<?xml version="1.0" encoding="UTF-8" standalone="no"?>
<!-- Created with Inkscape (http://www.inkscape.org/) -->

<svg
   width="208.22607"
   height="154.70996"
   viewBox="0 0 55.093148 40.933677"
   version="1.1"
   id="svg1"
   xml:space="preserve"
   inkscape:version="1.3.2 (1:1.3.2+202311252150+091e20ef0f)"
   sodipodi:docname="drawing.svg"
   xmlns:inkscape="http://www.inkscape.org/namespaces/inkscape"
   xmlns:sodipodi="http://sodipodi.sourceforge.net/DTD/sodipodi-0.dtd"
   xmlns="http://www.w3.org/2000/svg"
   xmlns:svg="http://www.w3.org/2000/svg"><sodipodi:namedview
     id="namedview1"
     pagecolor="#ffffff"
     bordercolor="#ffffff"
     borderopacity="1"
     inkscape:showpageshadow="0"
     inkscape:pageopacity="0"
     inkscape:pagecheckerboard="false"
     inkscape:deskcolor="#bfe3c2"
     inkscape:document-units="mm"
     showborder="true"
     labelstyle="default"
     showguides="true"
     inkscape:zoom="0.96756973"
     inkscape:cx="-2947.5912"
     inkscape:cy="-969.43917"
     inkscape:window-width="1920"
     inkscape:window-height="953"
     inkscape:window-x="0"
     inkscape:window-y="0"
     inkscape:window-maximized="1"
     inkscape:current-layer="g813"
     inkscape:lockguides="false"><sodipodi:guide
       position="886.58827,392.24154"
       orientation="1,0"
       id="guide536"
       inkscape:locked="false" /><sodipodi:guide
       position="1482.1726,392.24157"
       orientation="1,0"
       id="guide537"
       inkscape:locked="false" /><sodipodi:guide
       position="2077.757,392.24157"
       orientation="1,0"
       id="guide538"
       inkscape:locked="false" /></sodipodi:namedview><defs
     id="defs1" /><g
     inkscape:label="Layer 1"
     inkscape:groupmode="layer"
     id="layer1"
     transform="translate(886.58827,554.10901)"><g
       id="g3"
       inkscape:label="Logo Sheet"
       transform="translate(2.5740966,-659.21062)"><g
         id="g830"
         inkscape:label="Green Sloth"
         inkscape:export-filename="GreenSloth.pdf"
         inkscape:export-xdpi="150"
         inkscape:export-ydpi="150"><g
           id="g579"
           inkscape:label="Green on White"
           transform="translate(123.19272,-63.99801)"><g
             id="g622"
             inkscape:label="Concert Onr"><g
               id="g473"
               inkscape:label="Logo Without Text"
               transform="translate(1.4683228,57.597991)"><g
                 id="g472"
                 transform="matrix(0.26458333,0,0,0.26458333,-1064.2441,106.11652)"
                 inkscape:label="Logo"><path
                   class="cls-5"
                   d="m 285.09643,156.38318 c -1.4,-3.59 -2.63,-6.78 -3.89,-9.96 -3.76,-9.52 -6.66,-19.3 -8.81,-29.3 -2.04,-9.48 -2.97,-19.050003 -2.41,-28.740003 0.1,-1.67 0.45,-3.36 0.95,-4.95 0.36,-1.15 1.26,-1.86 2.66,-2.04 8.25,-1.08 16.51,-2.18 24.74,-3.46 3.65,-0.57 7.23,-1.57 10.84,-2.37 0.22,-0.05 0.45,-0.08 0.97,-0.18 0,1.73 0,3.37 0,5.02 0.02,8.87 0,17.75 0.09,26.620003 0.07,7.25 0.27,14.5 0.46,21.76 0.03,1.05 -0.29,1.82 -1.02,2.55 -7.82,7.84 -15.63,15.69 -23.43,23.56 -0.37,0.37 -0.65,0.84 -1.16,1.5 z m 4.36,-18.48 c 0.14,0.06 0.29,0.13 0.43,0.19 2.86,-3.02 5.76,-6 8.55,-9.08 1.48,-1.63 2,-3.71 2.06,-5.89 0.03,-1.04 0.01,-2.08 0.03,-3.12 0.13,-5.78 0.26,-11.57 0.4,-17.35 0.09,-3.550003 0.27,-7.100003 0.27,-10.640003 0,-2.58 -1.41,-3.94 -3.9,-3.63 -4.24,0.53 -8.44,1.32 -12.67,1.95 -2.76,0.41 -3.88,2.24 -4.3,4.72 -0.14,0.83 -0.29,1.69 -0.22,2.52 0.23,3.030003 0.45,6.070003 0.84,9.090003 1.05,8.13 3.24,15.99 5.89,23.73 0.86,2.51 1.73,5 2.6,7.51 z"
                   id="path367"
                   style="display:inline;fill:#4d683d;fill-opacity:1" /><path
                   class="cls-5"
                   d="m 359.06643,64.833177 c 3.35,-0.43 6.63,-0.85 10.05,-1.29 0.11,1.51 0.27,2.91 0.32,4.31 0.3,8.95 0.72,17.89 0.82,26.84 0.17,14.970003 0.12,29.950003 0.2,44.920003 0,0.87 -0.26,1.36 -0.99,1.85 -3.73,2.52 -7.42,5.12 -11.21,7.75 0.31,-1.75 0.7,-3.49 0.9,-5.25 0.94,-8.62 1.89,-17.24 2.72,-25.87 0.29,-3.03 0.3,-6.09 0.34,-9.13 0,-0.56 -0.3,-1.32 -0.72,-1.67 -2.06,-1.67 -4.21,-3.23 -6.66,-5.09 0,1.08 0,1.82 0,2.56 0.02,15.32 0.02,30.64 0.08,45.96 0,1.02 -0.34,1.59 -1.14,2.16 -3.21,2.28 -6.37,4.62 -9.55,6.94 -0.24,0.17 -0.49,0.33 -0.85,0.56 0.25,-3.02 0.5,-5.89 0.73,-8.77 0.47,-5.88 1.05,-11.76 1.36,-17.65 0.6,-11.67 1.27,-23.35 1.48,-35.030003 0.15,-8.52 -0.35,-17.04 -0.63,-25.56 -0.06,-1.76 -0.4,-3.51 -0.62,-5.38 2.96,-0.68 5.9,-1.37 9.18,-2.12 0,2.19 -0.01,4.23 0,6.27 0.06,6.68 0.13,13.35 0.17,20.03 0,0.77 0.21,1.28 0.86,1.73 2.08,1.45 4.11,2.96 6.35,4.58 0.38,-11.5 -1,-22.58 -3.18,-33.66 z"
                   id="path373"
                   style="display:inline;fill:#4d683d;fill-opacity:1" /><path
                   class="cls-5"
                   d="m 251.76643,165.11318 c -2.5,-1.96 -4.9,-3.83 -7.27,-5.72 -5.36,-4.29 -10.63,-8.7 -16.1,-12.85 -3.63,-2.75 -5.69,-6.27 -6.17,-10.68 -0.41,-3.71 -0.52,-7.45 -0.75,-11.18 -0.02,-0.25 0.05,-0.5 0.11,-0.93 2.43,1.83 4.63,3.72 7.06,5.24 2.01,1.26 2.72,2.82 2.64,5.1 -0.12,3.79 1.43,6.77 4.76,8.78 1.51,0.92 2.88,2.07 4.34,3.07 0.47,0.32 1.06,0.47 1.84,0.8 0.07,-2.41 0.1,-4.53 0.21,-6.63 0.35,-6.65 -0.94,-12.88 -4.57,-18.55 -2.26,-3.53 -5.43,-6.19 -8.48,-8.97 -2.08,-1.89 -4.16,-3.79 -6.25,-5.69 -2.58,-2.34 -4.05,-5.21 -4.24,-8.710003 -0.47,-8.51 0.42,-16.85 3.03,-25.1 0.83,0.39 1.6,0.73 2.35,1.1 7.98,3.94 16.47,6.28 25.12,8.15 1.87,0.4 1.82,0.42 1.78,2.26 -0.11,4.4 -0.17,8.79 -0.24,13.19 0,0.41 0,0.82 0,1.43 -3.48,-2.2 -7.07,-3.61 -11.2,-4.16 0,-1.19 0.08,-2.38 -0.02,-3.55 -0.2,-2.56 -1.24,-3.68 -3.76,-4.02 -2.04,-0.28 -4,0.1 -5.8,1.14 -1.35,0.78 -1.97,2.03 -2.12,3.52 -0.29,2.92 0.3,5.69 2.27,7.890003 2.23,2.5 4.64,4.84 7.07,7.15 3.21,3.06 6.57,5.96 9.76,9.04 3.47,3.35 5.2,7.48 5.14,12.34 -0.14,12.04 -0.27,24.07 -0.4,36.11 0,0.07 -0.04,0.14 -0.11,0.42 z"
                   id="path375"
                   style="display:inline;fill:#4d683d;fill-opacity:1" /><path
                   class="cls-5"
                   d="m 279.51643,55.033177 c -2.76,-2.61 -5.88,-4.56 -9.38,-5.88 -3.19,-1.2 -6.44,-1.64 -9.66,-0.09 -0.72,0.34 -1.41,0.83 -1.97,1.39 -1.61,1.62 -1.55,4.12 0.28,5.63 1.11,0.91 2.44,1.64 3.78,2.17 5.02,1.96 10.09,3.8 15.14,5.68 0.24,0.09 0.48,0.2 0.82,0.34 -1.14,2.2 -2.58,4.09 -4.29,5.76 -5.31,5.17 -11.74,7.84 -19.09,8.33 -6.62,0.44 -12.99,-0.48 -18.94,-3.64 -4.24,-2.24 -7.56,-5.4 -10.06,-9.61 0.31,-0.14 0.57,-0.27 0.83,-0.38 5.22,-2.2 10.45,-4.38 15.66,-6.61 0.95,-0.41 1.88,-0.92 2.71,-1.53 2.54,-1.84 2.5,-4.58 -0.06,-6.42 -2.15,-1.55 -4.59,-1.74 -7.08,-1.28 -4.8,0.9 -8.62,3.59 -12.12,6.82 -0.22,0.2 -0.41,0.43 -0.8,0.83 0.15,-2.34 0.76,-4.28 1.65,-6.14 3.34,-7.03 11.34,-11.67 19.11,-10.95 1.97,0.18 3.88,0.86 5.84,1.25 0.48,0.1 1.07,0.11 1.51,-0.08 7.56,-3.11 16.12,-1.33 21.64,4.68 2.5,2.72 3.93,6.03 4.48,9.71 z m -16.31,9.43 c -0.43,0.16 -0.67,0.24 -0.9,0.35 -2.51,1.23 -5.15,1.53 -7.88,1.06 -0.4,-0.07 -0.75,-0.42 -1.13,-0.64 0.26,-0.33 0.45,-0.74 0.78,-0.96 1.47,-0.98 2.79,-2.08 3.25,-3.89 0.38,-1.49 -0.08,-2.52 -1.54,-3.02 -2.46,-0.85 -4.93,-0.7 -7.34,0.23 -1.01,0.39 -1.34,1.23 -1.14,2.26 0.37,1.93 1.47,3.35 3.12,4.38 0.31,0.2 0.49,0.6 0.73,0.92 -0.33,0.23 -0.64,0.64 -0.99,0.67 -1.41,0.13 -2.85,0.31 -4.24,0.16 -1.44,-0.16 -2.85,-0.68 -4.27,-1.05 -0.08,0.08 -0.16,0.16 -0.24,0.23 0.69,0.65 1.31,1.43 2.1,1.94 2.22,1.43 4.78,1.63 7.33,1.73 3.37,0.13 6.72,-0.05 9.83,-1.57 1.12,-0.55 2.14,-1.24 2.53,-2.8 z"
                   id="path445"
                   style="display:inline;fill:#4d683d;fill-opacity:1" /><path
                   class="cls-5"
                   d="m 306.79643,148.20318 c 6.23,-6.79 13.43,-11.71 23.05,-12.06 -8.99,1.78 -15.55,7.09 -20.73,14.42 0.17,-0.15 0.35,-0.29 0.51,-0.44 0.16,-0.16 0.31,-0.34 0.46,-0.51 4.8,-5.25 10.38,-9.33 17.33,-11.23 1.39,-0.38 2.88,-0.53 4.33,-0.59 1.48,-0.06 2.1,0.54 2.03,2.03 -0.06,1.2 -0.35,2.44 -0.79,3.56 -1.73,4.35 -4.46,8.09 -7.42,11.67 -4.09,4.93 -8.71,9.28 -14.21,12.62 -6.07,3.67 -12.67,5.9 -19.69,6.53 -6.21,0.56 -12.47,0.6 -18.71,0.86 -0.22,0 -0.44,-0.05 -0.89,-0.1 0.76,-0.86 1.38,-1.63 2.07,-2.32 10.56,-10.61 21.11,-21.23 31.72,-31.79 3.86,-3.84 8.35,-6.75 13.79,-7.82 2.08,-0.41 4.23,-0.48 6.38,-0.49 -3.79,0.63 -7.35,1.82 -10.64,3.78 -3.3,1.97 -6.12,4.48 -8.49,7.51 2.92,-2.81 6.1,-5.23 9.78,-6.97 3.71,-1.75 7.58,-2.7 11.7,-2.61 -9.38,1.29 -16.11,6.65 -21.57,13.97 z"
                   id="path446"
                   style="display:inline;fill:#4d683d;fill-opacity:1" /><path
                   class="cls-5"
                   d="m 266.20643,157.53318 c 3.98,-3.96 7.97,-7.93 12.06,-11.99 0.6,2.06 1.19,4.03 1.76,6.01 0.67,2.33 1.36,4.66 1.98,7 0.1,0.4 0.03,1.05 -0.23,1.31 -4.67,4.6 -9.38,9.15 -14.1,13.72 -3.79,-2.03 -7.52,-4.02 -11.22,-6.08 -0.3,-0.17 -0.43,-0.84 -0.43,-1.28 -0.08,-4.28 -0.14,-8.56 -0.15,-12.85 -0.05,-22.72 -0.09,-45.45 -0.14,-68.170003 0,-0.61 0,-1.21 0,-1.98 h 9.03 c -0.24,24.730003 0.13,49.500003 1.12,74.260003 0.1,0.01 0.21,0.03 0.31,0.04 z"
                   id="path447"
                   style="display:inline;fill:#4d683d;fill-opacity:1" /><path
                   class="cls-5"
                   d="m 322.94643,81.623177 c -3.44,1.91 -6.64,3.68 -9.88,5.48 -0.12,-3.92 -0.24,-7.83 -0.36,-11.94 10.17,-1.36 20.18,-3.95 30.47,-6.62 0.31,4.38 0.6,8.59 0.89,12.71 -4.29,-0.56 -8.36,-1.09 -12.7,-1.66 1.07,18.41 2.32,36.490003 4.34,54.770003 -2.35,-1.61 -4.51,-3.07 -6.66,-4.55 -1.34,-0.92 -2.69,-1.81 -3.97,-2.8 -0.38,-0.29 -0.72,-0.89 -0.73,-1.36 -0.29,-10.1 -0.5,-20.21 -0.79,-30.320003 -0.13,-4.46 -0.4,-8.92 -0.63,-13.72 z"
                   id="path448"
                   style="display:inline;fill:#4d683d;fill-opacity:1" /><path
                   class="cls-5"
                   d="m 230.06643,73.293177 c -6.71,-2.65 -10.1,-7.7 -10.53,-14.56 -0.73,-11.7 4.46,-20.38 14.42,-26.22 1.97,-1.15 4.39,-1.61 6.67,-2.12 1.23,-0.27 2.11,-0.76 2.88,-1.69 1.32,-1.61 2.69,-3.18 4.04,-4.76 0.21,-0.25 0.48,-0.46 0.95,-0.91 -0.24,2.11 -0.44,3.92 -0.64,5.73 0.08,0.03 0.16,0.06 0.24,0.09 0.82,-1.48 1.57,-2.99 2.47,-4.41 0.89,-1.4 1.95,-2.7 2.96,-4.09 0.7,1.45 1.16,2.72 1.88,3.83 1.82,2.8 4.57,4.09 7.83,4.19 2,0.07 4.01,-0.11 6.01,-0.17 0.73,-0.02 1.45,0 2.23,0.18 -2.28,0.76 -4.56,1.52 -7.07,2.36 10.12,2.73 15.31,9.44 17.31,19.04 -0.79,-1.53 -1.48,-3.13 -2.4,-4.58 -4.48,-7.09 -10.96,-9.77 -19.19,-8.64 -5.98,0.83 -11.98,1.06 -18,0.51 -4.23,-0.39 -8.02,0.67 -11.31,3.4 -4.87,4.04 -7.89,9.13 -8.5,15.49 -0.45,4.74 0.87,9.01 3.83,12.74 1.22,1.54 2.55,2.99 3.92,4.58 z"
                   id="path449"
                   style="display:inline;fill:#4d683d;fill-opacity:1" /><path
                   class="cls-5"
                   d="m 282.50643,60.973177 c 11.32,1.34 22.97,1.37 34.79,0.64 0.6,2.29 1.19,4.59 1.84,7.09 -13.73,1.05 -27.3,1.9 -40.7,1.09 1.3,-2.83 2.62,-5.7 4.06,-8.82 z"
                   id="path450"
                   style="display:inline;fill:#4d683d;fill-opacity:1" /><path
                   class="cls-5"
                   d="m 380.40643,55.073177 c 2.93,2.11 5.81,3.72 8.05,6.41 -8.77,-2.3 -17.41,-1.47 -26.05,-0.34 0.23,-2.24 0.45,-4.45 0.68,-6.8 1.83,-0.48 3.83,-0.89 5.75,-1.52 6.19,-2.02 12.34,-4.15 18.52,-6.18 2.6,-0.85 5.24,-1.58 7.86,-2.34 0.48,-0.14 0.99,-0.17 1.48,-0.22 0.85,-0.09 1.81,0.01 2.02,0.92 0.17,0.73 0.06,1.77 -0.38,2.34 -0.6,0.78 -1.55,1.42 -2.47,1.82 -2.93,1.26 -5.91,2.41 -8.9,3.56 -2.08,0.8 -4.19,1.5 -6.57,2.35 z"
                   id="path451"
                   style="display:inline;fill:#4d683d;fill-opacity:1" /><path
                   class="cls-5"
                   d="m 335.94643,142.72318 c 2.23,8.42 -0.5,15.28 -5.72,21.49 0.06,0.1 0.13,0.2 0.19,0.3 1.31,-0.25 2.62,-0.51 4.05,-0.78 -1.91,1.58 -4.09,2.12 -6.38,2.16 -3.54,0.07 -7.08,0.02 -10.72,-0.22 7.9,-6.27 13.56,-14.2 18.58,-22.96 z"
                   id="path452"
                   style="display:inline;fill:#4d683d;fill-opacity:1" /><path
                   class="cls-5"
                   d="m 327.74643,67.383177 c 0.56,-2.45 1.1,-4.77 1.61,-6.98 7.36,-0.95 14.75,-1.9 22.36,-2.88 0.6,1.72 1.29,3.73 2.03,5.85 -8.64,2.03 -17.26,3.33 -26,4.01 z"
                   id="path453"
                   style="display:inline;fill:#4d683d;fill-opacity:1" /><path
                   class="cls-5"
                   d="m 216.66643,62.253177 c -1.75,-0.33 -3.35,-0.71 -4.97,-0.93 -4.96,-0.66 -9.94,-1.25 -14.9,-1.9 -1.37,-0.18 -2.74,-0.44 -4.1,-0.7 -0.41,-0.08 -0.9,-0.17 -1.17,-0.44 -0.43,-0.42 -0.93,-0.98 -0.96,-1.5 -0.01,-0.3 0.84,-0.9 1.33,-0.92 2.42,-0.1 4.87,-0.21 7.28,-0.02 5.34,0.42 10.67,1.03 16,1.53 0.73,0.07 1.08,0.28 1.11,1.09 0.04,1.19 0.24,2.37 0.39,3.78 z"
                   id="path454"
                   style="display:inline;fill:#4d683d;fill-opacity:1" /><path
                   class="cls-5"
                   d="m 214.81643,63.753177 c -1.09,0.47 -1.88,0.76 -2.62,1.13 -2.97,1.45 -5.92,2.94 -8.89,4.39 -1.84,0.89 -3.76,1.36 -5.81,0.83 -1.54,-0.4 -1.93,-1.47 -0.71,-2.46 1.39,-1.11 2.95,-2.11 4.59,-2.79 3.95,-1.64 8.1,-2.05 12.34,-1.43 0.26,0.04 0.51,0.15 1.1,0.33 z"
                   id="path455"
                   style="display:inline;fill:#4d683d;fill-opacity:1" /><path
                   class="cls-5"
                   d="m 345.99643,55.113177 c -0.18,-2.55 1.98,-6.26 4.08,-7.26 0.95,-0.45 1.61,-0.09 2.21,0.64 1.57,1.91 2.37,4.17 2.75,6.53 0.34,2.15 0.36,4.35 0.37,6.56 -0.59,-2.34 -1.68,-4.36 -3.24,-6.17 -1.1,-1.27 -2.34,-1.67 -3.91,-1.08 -0.71,0.27 -1.44,0.49 -2.26,0.77 z"
                   id="path456"
                   style="display:inline;fill:#4d683d;fill-opacity:1" /><path
                   class="cls-5"
                   d="m 321.27643,67.793177 c -1.46,-6.84 -2.55,-7.94 -7.7,-7.97 -0.37,-1.88 1.13,-5.2 2.75,-6.11 0.91,-0.51 1.54,-0.1 2.09,0.59 1.57,1.94 2.44,4.21 2.86,6.62 0.3,1.73 0.25,3.52 0.31,5.29 0.01,0.43 -0.17,0.87 -0.31,1.58 z"
                   id="path457"
                   style="display:inline;fill:#4d683d;fill-opacity:1" /><path
                   class="cls-5"
                   d="m 325.96643,66.213177 c 0.23,-4.23 0.26,-8.32 -1.13,-12.3 -0.18,-0.51 -0.39,-1.01 -0.52,-1.53 -0.07,-0.3 -0.01,-0.63 -0.02,-0.95 0.36,0.04 0.86,-0.06 1.05,0.14 0.72,0.76 1.58,1.52 1.96,2.45 1.35,3.32 0.81,6.64 -0.34,9.91 -0.27,0.78 -0.66,1.52 -1,2.28 z"
                   id="path458"
                   style="display:inline;fill:#4d683d;fill-opacity:1" /><path
                   class="cls-5"
                   d="m 323.36643,66.913177 c -0.13,-1.93 -0.17,-3.87 -0.4,-5.79 -0.34,-2.8 -1.34,-5.35 -3.13,-7.58 -0.25,-0.31 -0.41,-1.12 -0.29,-1.2 0.46,-0.29 1.3,-0.69 1.54,-0.49 0.8,0.64 1.64,1.43 2.04,2.35 1.22,2.76 1.54,5.71 1.23,8.7 -0.14,1.37 -0.48,2.72 -0.73,4.08 -0.09,-0.02 -0.18,-0.04 -0.27,-0.06 z"
                   id="path459"
                   style="display:inline;fill:#4d683d;fill-opacity:1" /><path
                   class="cls-5"
                   d="m 360.13643,59.583177 c -0.47,-2.85 -0.92,-5.76 -1.46,-8.65 -0.13,-0.7 -0.61,-1.32 -0.84,-2.01 -0.18,-0.55 -0.21,-1.14 -0.35,-1.97 2.15,0.88 3.2,2.26 3.61,4.07 0.68,3.02 0.18,5.92 -0.96,8.57 z"
                   id="path460"
                   style="display:inline;fill:#4d683d;fill-opacity:1" /><path
                   class="cls-5"
                   d="m 357.46643,62.143177 c -0.32,-2.57 -0.39,-5.01 -0.98,-7.32 -0.52,-2.05 -1.63,-3.94 -2.45,-5.92 -0.17,-0.41 -0.2,-0.87 -0.29,-1.31 0.48,0.1 1.18,0.05 1.41,0.34 0.78,1.03 1.57,2.11 2.04,3.3 1.23,3.12 1.32,6.38 0.69,9.66 -0.07,0.38 -0.24,0.75 -0.41,1.24 z"
                   id="path461"
                   style="display:inline;fill:#4d683d;fill-opacity:1" /><path
                   class="cls-5"
                   d="m 260.63643,53.543177 c 0.23,-0.44 0.36,-0.92 0.66,-1.26 1.32,-1.46 4.49,-1.58 5.93,-0.27 0.38,0.35 0.66,0.69 0.02,1.07 -0.77,0.45 -5.43,0.83 -6.61,0.46 z"
                   id="path462"
                   style="display:inline;fill:#4d683d;fill-opacity:1" /><path
                   class="cls-5"
                   d="m 237.05643,53.393177 c 0.74,-1.63 2.52,-2.31 4.46,-1.93 1.54,0.3 2.2,0.96 2.28,2.47 -2.23,-0.18 -4.44,-0.35 -6.74,-0.54 z"
                   id="path463"
                   style="display:inline;fill:#4d683d;fill-opacity:1" /><path
                   class="cls-5"
                   d="m 268.07643,54.853177 c -0.4,1.78 -4.06,2.48 -6.08,1.03 2.04,-0.34 4.09,-0.69 6.08,-1.03 z"
                   id="path464"
                   style="display:inline;fill:#4d683d;fill-opacity:1" /><path
                   class="cls-5"
                   d="m 242.33643,56.053177 c -1.68,1.38 -5.14,0.8 -5.81,-1.03 1.92,0.34 3.92,0.69 5.81,1.03 z"
                   id="path465"
                   style="display:inline;fill:#4d683d;fill-opacity:1" /><path
                   class="cls-5"
                   d="m 249.16643,58.943177 c 2.2,-0.47 4.28,-0.46 6.4,0.03 -0.5,1.38 -1.82,2.12 -3.45,2.05 -1.51,-0.07 -2.58,-0.78 -2.95,-2.08 z"
                   id="path466"
                   style="display:inline;fill:#4d683d;fill-opacity:1" /><g
                   id="g471"
                   transform="translate(-67.063566,-100.64682)"><path
                     class="cls-5"
                     d="m 284.17,233.51 c -0.2,1.15 -0.46,2.13 -0.78,2.93 -0.31,0.8 -0.65,1.44 -1.01,1.92 -0.36,0.48 -0.72,0.82 -1.06,1.02 -0.35,0.2 -0.66,0.27 -0.93,0.23 -0.24,-0.04 -0.43,-0.16 -0.57,-0.34 -0.14,-0.19 -0.22,-0.42 -0.26,-0.69 -0.04,-0.27 -0.03,-0.57 0.03,-0.9 0.05,-0.26 0.16,-0.56 0.33,-0.89 0.17,-0.33 0.37,-0.71 0.6,-1.13 0.22,-0.43 0.44,-0.92 0.64,-1.47 0.2,-0.55 0.35,-1.18 0.45,-1.89 0.12,-0.76 0.1,-1.42 -0.08,-1.99 -0.18,-0.57 -0.46,-1.06 -0.84,-1.46 -0.39,-0.4 -0.82,-0.73 -1.31,-0.97 -0.49,-0.24 -1,-0.41 -1.52,-0.5 -0.09,-0.02 -0.17,-0.02 -0.24,-0.02 -0.07,0 -0.12,0.02 -0.17,0.04 -0.05,0.03 -0.08,0.06 -0.08,0.11 -0.02,0.1 0.05,0.28 0.2,0.55 0.15,0.26 0.31,0.61 0.49,1.04 0.17,0.43 0.31,0.95 0.4,1.55 0.09,0.61 0.07,1.3 -0.07,2.08 -0.26,1.47 -0.72,2.66 -1.39,3.57 -0.67,0.91 -1.51,1.54 -2.53,1.88 -1.02,0.34 -2.17,0.4 -3.47,0.17 -1.16,-0.2 -2.13,-0.61 -2.89,-1.2 -0.76,-0.59 -1.35,-1.33 -1.77,-2.2 -0.41,-0.87 -0.66,-1.83 -0.75,-2.87 -0.09,-1.04 -0.03,-2.1 0.16,-3.18 0.21,-1.17 0.57,-2.19 1.09,-3.06 0.52,-0.87 1.19,-1.56 1.99,-2.09 0.8,-0.53 1.73,-0.87 2.77,-1.04 1.04,-0.17 2.19,-0.14 3.44,0.08 1.86,0.33 3.44,0.8 4.72,1.41 1.28,0.62 2.3,1.37 3.04,2.26 0.74,0.89 1.22,1.93 1.45,3.1 0.23,1.17 0.21,2.49 -0.05,3.94 z m -8.04,-2.06 c 0.11,-0.64 0.12,-1.27 0.02,-1.87 -0.1,-0.6 -0.3,-1.15 -0.59,-1.64 -0.29,-0.49 -0.67,-0.9 -1.13,-1.24 -0.46,-0.33 -0.99,-0.55 -1.6,-0.66 -0.73,-0.13 -1.41,-0.08 -2.04,0.13 -0.63,0.22 -1.17,0.6 -1.61,1.14 -0.44,0.55 -0.73,1.26 -0.89,2.13 -0.09,0.52 -0.12,1.07 -0.1,1.65 0.02,0.58 0.16,1.14 0.38,1.67 0.22,0.53 0.58,0.99 1.06,1.38 0.48,0.39 1.12,0.65 1.93,0.79 0.76,0.13 1.46,0.08 2.1,-0.16 0.64,-0.24 1.17,-0.64 1.59,-1.21 0.42,-0.57 0.71,-1.28 0.86,-2.12 z"
                     id="path467"
                     style="fill:#4d683d;fill-opacity:1" /><path
                     class="cls-5"
                     d="m 282.14,219.3 c -0.05,0.26 -0.14,0.49 -0.28,0.68 -0.14,0.19 -0.32,0.36 -0.53,0.49 -0.21,0.13 -0.45,0.25 -0.72,0.35 -0.38,0.1 -0.8,0.18 -1.29,0.24 -0.48,0.06 -0.98,0.09 -1.49,0.1 -0.51,0.01 -1.02,0 -1.52,-0.05 -0.5,-0.04 -0.96,-0.1 -1.38,-0.17 -1.49,-0.26 -2.7,-0.76 -3.63,-1.5 -0.93,-0.74 -1.58,-1.68 -1.93,-2.83 -0.35,-1.14 -0.4,-2.45 -0.14,-3.92 0.11,-0.62 0.26,-1.21 0.45,-1.76 0.19,-0.55 0.42,-1.04 0.67,-1.46 0.26,-0.42 0.54,-0.73 0.84,-0.95 0.3,-0.22 0.63,-0.29 0.97,-0.23 0.28,0.05 0.5,0.15 0.65,0.3 0.15,0.15 0.24,0.32 0.27,0.52 0.04,0.2 0.04,0.4 0,0.6 -0.07,0.42 -0.23,0.87 -0.45,1.34 -0.22,0.47 -0.41,1.11 -0.55,1.9 -0.21,1.2 0,2.16 0.64,2.89 0.63,0.73 1.59,1.2 2.85,1.43 0.46,0.08 0.9,0.14 1.33,0.16 0.43,0.02 0.85,0.05 1.25,0.05 0.4,0 0.77,0 1.11,0 0.34,0 0.64,0 0.9,0 0.26,0 0.48,0.02 0.64,0.05 0.57,0.1 0.95,0.3 1.17,0.59 0.21,0.3 0.27,0.69 0.19,1.18 z"
                     id="path468"
                     style="fill:#4d683d;fill-opacity:1" /><path
                     class="cls-5"
                     d="m 281.17,201.89 c -0.23,1.3 -0.63,2.4 -1.19,3.29 -0.56,0.89 -1.3,1.52 -2.22,1.89 -0.92,0.37 -2.01,0.44 -3.29,0.22 -1.06,-0.19 -1.96,-0.53 -2.69,-1.02 -0.73,-0.49 -1.31,-1.1 -1.74,-1.81 -0.43,-0.71 -0.7,-1.5 -0.82,-2.36 -0.12,-0.86 -0.11,-1.75 0.06,-2.68 0.11,-0.63 0.28,-1.21 0.51,-1.75 0.23,-0.54 0.52,-1 0.87,-1.39 0.35,-0.39 0.76,-0.67 1.23,-0.84 0.47,-0.17 1,-0.21 1.59,-0.1 0.63,0.11 1.12,0.33 1.46,0.66 0.35,0.33 0.59,0.75 0.73,1.24 0.14,0.5 0.21,1.04 0.22,1.64 0.01,0.6 -0.02,1.21 -0.08,1.85 0,0.33 -0.02,0.71 -0.07,1.15 -0.04,0.44 -0.09,0.87 -0.14,1.28 -0.05,0.41 -0.1,0.73 -0.14,0.95 -0.04,0.22 -0.04,0.4 0,0.49 0.05,0.1 0.15,0.16 0.31,0.19 0.19,0.03 0.43,0.02 0.71,-0.04 0.28,-0.06 0.56,-0.17 0.84,-0.33 0.52,-0.29 0.9,-0.67 1.14,-1.14 0.24,-0.47 0.42,-1.06 0.55,-1.78 0.11,-0.63 0.14,-1.21 0.08,-1.76 -0.06,-0.54 -0.13,-1.04 -0.21,-1.48 -0.08,-0.45 -0.09,-0.83 -0.03,-1.17 0.05,-0.3 0.15,-0.53 0.29,-0.69 0.14,-0.15 0.38,-0.2 0.7,-0.15 0.29,0.05 0.55,0.24 0.78,0.55 0.22,0.32 0.4,0.73 0.52,1.24 0.12,0.51 0.19,1.09 0.2,1.75 0,0.66 -0.05,1.36 -0.18,2.1 z m -6.63,-0.22 c 0.11,-0.63 0.15,-1.22 0.13,-1.79 -0.02,-0.56 -0.15,-1.04 -0.38,-1.43 -0.23,-0.39 -0.6,-0.63 -1.12,-0.72 -0.6,-0.11 -1.1,0.03 -1.48,0.42 -0.38,0.39 -0.65,0.98 -0.79,1.78 -0.08,0.47 -0.08,0.95 0,1.43 0.09,0.48 0.25,0.92 0.48,1.32 0.23,0.4 0.52,0.74 0.85,1.01 0.34,0.27 0.72,0.45 1.14,0.53 0.22,0.04 0.39,-0.02 0.52,-0.18 0.13,-0.16 0.24,-0.43 0.33,-0.82 0.09,-0.39 0.2,-0.91 0.31,-1.56 z"
                     id="path469"
                     style="fill:#4d683d;fill-opacity:1" /><path
                     class="cls-5"
                     d="m 281.41,189.25 c -0.2,1.14 -0.55,2.1 -1.04,2.87 -0.49,0.78 -1.14,1.33 -1.94,1.65 -0.8,0.32 -1.76,0.39 -2.88,0.19 -0.93,-0.16 -1.71,-0.46 -2.35,-0.89 -0.64,-0.43 -1.15,-0.96 -1.52,-1.58 -0.37,-0.62 -0.61,-1.31 -0.72,-2.07 -0.11,-0.75 -0.09,-1.53 0.05,-2.34 0.1,-0.55 0.25,-1.06 0.45,-1.53 0.2,-0.47 0.46,-0.88 0.77,-1.22 0.31,-0.34 0.67,-0.59 1.08,-0.74 0.41,-0.15 0.87,-0.18 1.39,-0.09 0.55,0.1 0.98,0.29 1.28,0.58 0.3,0.29 0.51,0.65 0.64,1.09 0.12,0.43 0.19,0.91 0.19,1.43 0,0.52 -0.02,1.06 -0.07,1.62 0,0.29 -0.02,0.62 -0.06,1.01 -0.04,0.39 -0.08,0.76 -0.12,1.12 -0.05,0.36 -0.09,0.64 -0.12,0.83 -0.03,0.19 -0.03,0.35 0,0.43 0.04,0.08 0.13,0.14 0.28,0.16 0.17,0.03 0.38,0.02 0.62,-0.04 0.24,-0.05 0.49,-0.15 0.74,-0.29 0.46,-0.26 0.79,-0.59 1,-0.99 0.21,-0.41 0.37,-0.93 0.48,-1.56 0.1,-0.55 0.12,-1.06 0.07,-1.54 -0.05,-0.47 -0.11,-0.91 -0.18,-1.3 -0.07,-0.39 -0.08,-0.73 -0.02,-1.02 0.05,-0.26 0.13,-0.46 0.26,-0.6 0.13,-0.14 0.33,-0.18 0.62,-0.13 0.26,0.05 0.48,0.21 0.68,0.48 0.2,0.28 0.35,0.64 0.45,1.08 0.11,0.45 0.16,0.96 0.17,1.53 0,0.57 -0.05,1.19 -0.16,1.84 z m -5.8,-0.19 c 0.1,-0.55 0.13,-1.07 0.11,-1.56 -0.02,-0.49 -0.13,-0.91 -0.34,-1.25 -0.2,-0.34 -0.53,-0.55 -0.98,-0.63 -0.53,-0.09 -0.96,0.03 -1.3,0.37 -0.34,0.34 -0.57,0.86 -0.69,1.56 -0.07,0.41 -0.07,0.83 0,1.25 0.08,0.42 0.22,0.8 0.42,1.15 0.2,0.35 0.45,0.65 0.75,0.89 0.29,0.24 0.63,0.39 1,0.46 0.19,0.03 0.34,-0.02 0.45,-0.16 0.11,-0.14 0.21,-0.38 0.29,-0.71 0.08,-0.34 0.17,-0.79 0.27,-1.36 z"
                     id="path470"
                     style="fill:#4d683d;fill-opacity:1" /><path
                     class="cls-5"
                     d="m 282.93,181.87 c -0.06,0.32 -0.19,0.55 -0.39,0.71 -0.2,0.16 -0.5,0.24 -0.9,0.26 -0.18,-0.01 -0.38,-0.03 -0.61,-0.06 -0.22,-0.03 -0.48,-0.08 -0.76,-0.13 -0.28,-0.06 -0.59,-0.13 -0.93,-0.22 -1.34,-0.32 -2.43,-0.8 -3.29,-1.43 -0.86,-0.63 -1.46,-1.41 -1.8,-2.33 -0.34,-0.92 -0.42,-1.96 -0.21,-3.11 0.21,-1.15 0.61,-2.11 1.23,-2.86 0.61,-0.74 1.44,-1.25 2.49,-1.52 1.05,-0.27 2.32,-0.27 3.83,0 0.27,0.05 0.52,0.1 0.75,0.15 0.23,0.05 0.44,0.1 0.62,0.16 0.18,0.06 0.35,0.11 0.5,0.18 0.42,0.18 0.7,0.38 0.86,0.62 0.15,0.23 0.2,0.51 0.15,0.83 -0.05,0.32 -0.16,0.57 -0.29,0.72 -0.14,0.15 -0.32,0.25 -0.55,0.28 -0.23,0.03 -0.51,0.04 -0.83,0 -0.51,-0.07 -0.96,-0.13 -1.36,-0.18 -0.39,-0.05 -0.75,-0.09 -1.06,-0.11 -0.31,-0.02 -0.61,-0.04 -0.88,-0.05 -0.27,0 -0.55,0 -0.84,0.01 -0.72,0.03 -1.29,0.2 -1.71,0.51 -0.42,0.3 -0.7,0.82 -0.83,1.54 -0.13,0.72 -0.03,1.29 0.29,1.79 0.32,0.49 0.79,0.91 1.42,1.26 0.27,0.15 0.55,0.29 0.85,0.41 0.3,0.12 0.61,0.24 0.94,0.34 0.32,0.1 0.67,0.2 1.03,0.3 0.36,0.09 0.74,0.19 1.13,0.29 0.37,0.1 0.65,0.23 0.83,0.4 0.18,0.16 0.29,0.35 0.33,0.56 0.04,0.21 0.04,0.44 0,0.7 z"
                     id="path471"
                     style="fill:#4d683d;fill-opacity:1" /></g></g></g></g></g></g></g></g><style
     type="text/css"
     id="style1">&#10;<![CDATA[
	.st0{fill-rule:evenodd;clip-rule:evenodd;fill:#85C1FE;stroke:#828282;stroke-width:1.02017;stroke-miterlimit:282;}
	.st1{fill-rule:evenodd;clip-rule:evenodd;fill:#00FEFE;stroke:#15404B;stroke-width:0.90682;stroke-miterlimit:282;}
	.st2{fill:none;stroke:#000000;stroke-width:1.04851;stroke-miterlimit:282;}
	.st3{fill:none;stroke:#000000;stroke-width:0.96349;stroke-miterlimit:282;}
	.st4{fill:none;stroke:#1B1BFE;stroke-width:3.17386;stroke-miterlimit:282;stroke-dasharray:3.17459 3.17459;}
	.st5{fill:#803300;}
	.st6{fill:#FEC145;stroke:#000000;stroke-width:0.79196;stroke-miterlimit:282;}
	.st7{opacity:0;fill-rule:evenodd;clip-rule:evenodd;fill:#00C145;}
	.st8{fill:none;stroke:#063FF2;stroke-width:3.17386;stroke-miterlimit:282;stroke-dasharray:3.17459 3.17459;}
	.st9{fill:#008585;stroke:#15404B;stroke-width:0.79347;stroke-miterlimit:282;}
	.st10{opacity:0;fill-rule:evenodd;clip-rule:evenodd;fill:#00C145;stroke:#828282;stroke-width:1.02017;stroke-miterlimit:282;}
	.st11{fill:#2523D1;stroke:#000000;stroke-width:0.02834;stroke-miterlimit:282;}
	.st12{fill:#FEC145;stroke:#F99C22;stroke-width:0.79347;stroke-miterlimit:282;}
	.st13{fill:none;stroke:#144FD7;stroke-width:3.17386;stroke-miterlimit:282;stroke-dasharray:3.17459 3.17459;}
	.st14{fill:#FE0707;stroke:#000000;stroke-width:0.02834;stroke-miterlimit:282;}
	.st15{fill:#1B1BFE;stroke:#1B1BFE;stroke-width:0.02834;stroke-miterlimit:282;}
	.st16{fill:#144FD7;stroke:#000000;stroke-width:0.02834;stroke-miterlimit:282;}
	.st17{fill:none;stroke:#FB0404;stroke-width:3.17386;stroke-miterlimit:282;stroke-dasharray:3.17459 3.17459;}
	.st18{fill:#C1C1FE;stroke:#737475;stroke-width:0.93516;stroke-miterlimit:282;}
	.st19{fill-rule:evenodd;clip-rule:evenodd;fill:#FEFEC1;stroke:#151212;stroke-width:1.02017;stroke-miterlimit:282;}
	.st20{fill:#225500;}
	.st21{fill:none;stroke:#000000;stroke-width:1.13352;stroke-miterlimit:282;}
	.st22{fill:#EC0202;stroke:#000000;stroke-width:0.02834;stroke-miterlimit:282;}
	.st23{fill:none;stroke:#EC0202;stroke-width:3.25888;stroke-miterlimit:282;stroke-dasharray:3.25962 3.25962;}
	.st24{fill-rule:evenodd;clip-rule:evenodd;fill:#00C145;stroke:#828282;stroke-width:1.02017;stroke-miterlimit:282;}
	.st25{fill:#008585;stroke:#000000;stroke-width:0.79196;stroke-miterlimit:282;}
	.st26{fill-rule:evenodd;clip-rule:evenodd;fill:#FEC145;stroke:#7A7474;stroke-width:1.36023;stroke-miterlimit:282;}
	.st27{fill:#FE8545;stroke:#7C7878;stroke-width:1.02017;stroke-miterlimit:282;}
	.st28{fill-rule:evenodd;clip-rule:evenodd;fill:#FFFF00;stroke:#7A7474;stroke-width:0.99183;stroke-miterlimit:282;}
	.st29{fill-rule:evenodd;clip-rule:evenodd;fill:#ADD8DB;stroke:#151212;stroke-width:1.02017;stroke-miterlimit:282;}
	.st30{fill:#FE8500;}
	.st31{fill:#063FF2;stroke:#000000;stroke-width:0.02834;stroke-miterlimit:282;}
	.st32{fill:none;stroke:#EC0202;stroke-width:3.17386;stroke-miterlimit:246;stroke-dasharray:3.17459 3.17459;}
	.st33{fill:#ADD8DB;stroke:#000000;stroke-width:0.79196;stroke-miterlimit:282;}
	.st34{fill-rule:evenodd;clip-rule:evenodd;fill:#FEC1FE;stroke:#7B8486;stroke-width:1.16186;stroke-miterlimit:282;}
	.st35{fill:#FB110D;stroke:#000000;stroke-width:0.02834;stroke-miterlimit:282;}
	.st36{fill:none;stroke:#000000;stroke-width:1.02017;stroke-miterlimit:282;}
	.st37{fill:none;stroke:#FB110D;stroke-width:3.17386;stroke-miterlimit:282;stroke-dasharray:3.17459 3.17459;}
	.st38{fill:none;stroke:#EC0202;stroke-width:3.17386;stroke-miterlimit:282;stroke-dasharray:3.17459 3.17459;}
	.st39{fill:#00C185;stroke:#089278;stroke-width:0.79347;stroke-miterlimit:282;}
	.st40{fill:#0B0808;stroke:#000000;stroke-width:0.02834;stroke-miterlimit:282;}
	.st41{fill-rule:evenodd;clip-rule:evenodd;fill:#4585FE;stroke:#151212;stroke-width:1.02017;stroke-miterlimit:282;}
	.st42{fill:#FFFF00;stroke:#EE5908;stroke-width:0.79347;stroke-miterlimit:282;}
	.st43{fill:#666666;stroke:#000000;stroke-width:0.02834;stroke-miterlimit:282;}
	.st44{fill:#FE8500;stroke:#F92222;stroke-width:0.79347;stroke-miterlimit:282;}
	.st45{fill:#FE9C6A;stroke:#828282;stroke-width:1.02017;stroke-miterlimit:282;}
	.st46{fill:#C1FEFE;stroke:#737475;stroke-width:1.02017;stroke-miterlimit:282;}
	.st47{fill:#C1FE85;stroke:#6C6C6C;stroke-width:1.04851;stroke-miterlimit:282;}
	.st48{fill:#EC0202;stroke:#EC0202;stroke-width:0.02834;stroke-miterlimit:282;}
	.st49{fill:#B3B3B3;stroke:#737475;stroke-width:0.93516;stroke-miterlimit:282;}
	.st50{fill:none;stroke:#000000;stroke-width:2.63544;stroke-miterlimit:282;}
	.st51{fill:none;stroke:#2523D1;stroke-width:3.17386;stroke-miterlimit:282;stroke-dasharray:3.17459 3.17459;}
	.st52{fill-rule:evenodd;clip-rule:evenodd;fill:#FEFE00;stroke:#151212;stroke-width:1.02017;stroke-miterlimit:282;}
	.st53{fill-rule:evenodd;clip-rule:evenodd;fill:#00C185;stroke:#828282;stroke-width:1.02017;stroke-miterlimit:282;}
	.st54{fill:none;stroke:#000000;stroke-width:2.66378;stroke-miterlimit:282;}
	.st55{fill-rule:evenodd;clip-rule:evenodd;fill:#FEC185;stroke:#7A7474;stroke-width:1.36023;stroke-miterlimit:282;}
]]>&#10;</style></svg>
