<?xml version="1.0" encoding="UTF-8" standalone="no"?>
<!-- Created with Inkscape (http://www.inkscape.org/) -->

<svg
   version="1.1"
   id="svg1"
   width="376.92001"
   height="120.94667"
   viewBox="0 0 376.92001 120.94667"
   sodipodi:docname="rwth_jp_computational_life_science_bild_rgb.eps"
   xmlns:inkscape="http://www.inkscape.org/namespaces/inkscape"
   xmlns:sodipodi="http://sodipodi.sourceforge.net/DTD/sodipodi-0.dtd"
   xmlns="http://www.w3.org/2000/svg"
   xmlns:svg="http://www.w3.org/2000/svg">
  <defs
     id="defs1" />
  <sodipodi:namedview
     id="namedview1"
     pagecolor="#ffffff"
     bordercolor="#000000"
     borderopacity="0.25"
     inkscape:showpageshadow="2"
     inkscape:pageopacity="0.0"
     inkscape:pagecheckerboard="0"
     inkscape:deskcolor="#d1d1d1">
    <inkscape:page
       x="0"
       y="0"
       inkscape:label="1"
       id="page1"
       width="376.92001"
       height="120.94667"
       margin="0"
       bleed="0" />
  </sodipodi:namedview>
  <g
     id="g1"
     inkscape:groupmode="layer"
     inkscape:label="1">
    <g
       id="group-R5">
      <path
         id="path2"
         d="m 2122.19,412.035 h 20.52 c 19.61,0 30.18,-9.961 30.18,-29.879 0,-23.23 -11.78,-32.281 -32.6,-32.281 h -18.1 z m -43.45,-183.469 h 43.45 v 91.129 h 23.23 c 17.5,0 25.05,-10.261 25.66,-27.16 l 1.2,-41.34 c 0.3,-8.441 1.21,-16.59 5.43,-22.629 h 47.07 v 1.809 c -8.14,4.23 -9.35,15.988 -9.65,38.621 -0.6,45.57 -5.13,61.867 -34.7,65.789 v 0.602 c 24.44,5.129 35.91,24.437 35.91,53.109 0,36.82 -21.73,55.527 -57.34,55.527 h -80.26 V 228.566"
         style="fill:#87b6e5;fill-opacity:1;fill-rule:nonzero;stroke:none"
         transform="matrix(0.13333333,0,0,-0.13333333,0,120.94667)" />
      <path
         id="path3"
         d="M 1438.1,444.02 V 293.75 c 0,-57.641 33.49,-69.41 68.8,-69.41 35.3,0 68.8,14.48 68.8,69.41 v 150.27 h -43.45 V 293.75 c 0,-21.43 -5.13,-37.422 -25.35,-37.422 -20.22,0 -25.35,15.992 -25.35,37.422 v 150.27 h -43.45"
         style="fill:#87b6e5;fill-opacity:1;fill-rule:nonzero;stroke:none"
         transform="matrix(0.13333333,0,0,-0.13333333,0,120.94667)" />
      <path
         id="path4"
         d="M 1586.34,444.02 V 228.57 h 39.83 v 150.871 h 0.6 l 53.11,-150.871 h 49.49 v 215.45 h -39.83 V 296.461 h -0.61 l -52.5,147.559 h -50.09"
         style="fill:#87b6e5;fill-opacity:1;fill-rule:nonzero;stroke:none"
         transform="matrix(0.13333333,0,0,-0.13333333,0,120.94667)" />
      <path
         id="path5"
         d="m 1783.99,444.02 h -43.45 V 228.57 h 43.45 v 215.45"
         style="fill:#87b6e5;fill-opacity:1;fill-rule:nonzero;stroke:none"
         transform="matrix(0.13333333,0,0,-0.13333333,0,120.94667)" />
      <path
         id="path6"
         d="m 1786.98,444.02 49.48,-215.45 h 55.83 l 49.48,215.45 h -44.96 l -31.98,-159.329 h -0.9 l -30.48,159.329 h -46.47"
         style="fill:#87b6e5;fill-opacity:1;fill-rule:nonzero;stroke:none"
         transform="matrix(0.13333333,0,0,-0.13333333,0,120.94667)" />
      <path
         id="path7"
         d="M 1945.64,444.02 V 228.57 h 123.42 v 35.602 h -79.97 v 57.937 h 72.43 v 35.61 h -72.43 v 50.691 h 76.95 v 35.61 h -120.4"
         style="fill:#87b6e5;fill-opacity:1;fill-rule:nonzero;stroke:none"
         transform="matrix(0.13333333,0,0,-0.13333333,0,120.94667)" />
      <path
         id="path8"
         d="m 2219.94,295.859 v -8.75 c 0,-39.839 19.31,-62.769 68.5,-62.769 47.07,0 74.83,20.519 74.83,66.09 0,26.25 -8.45,42.84 -41.04,57.027 l -33.49,14.481 c -18.41,7.851 -22.33,15.992 -22.33,29.269 0,12.672 5.13,25.051 24.74,25.051 16.59,0 23.54,-11.77 23.54,-31.988 h 41.64 v 6.039 c 0,41.339 -28.07,57.929 -66.69,57.929 -41.04,0 -66.68,-21.422 -66.68,-63.359 0,-35.91 17.8,-51.91 56.42,-65.18 28.67,-9.961 38.63,-17.203 38.63,-36.82 0,-18.102 -12.68,-26.551 -25.95,-26.551 -22.94,0 -28.67,12.969 -28.67,33.192 v 6.339 h -43.45"
         style="fill:#87b6e5;fill-opacity:1;fill-rule:nonzero;stroke:none"
         transform="matrix(0.13333333,0,0,-0.13333333,0,120.94667)" />
      <path
         id="path9"
         d="m 2412.4,444.02 h -43.45 V 228.57 h 43.45 v 215.45"
         style="fill:#87b6e5;fill-opacity:1;fill-rule:nonzero;stroke:none"
         transform="matrix(0.13333333,0,0,-0.13333333,0,120.94667)" />
      <path
         id="path10"
         d="m 2638.1,444.02 -30.18,-83.282 h -0.6 l -28.36,83.282 H 2418.1 v -35.61 h 47.07 V 228.57 h 43.46 v 179.84 h 36.65 l 40.61,-95.051 V 228.57 h 43.46 v 84.789 l 55.83,130.661 h -47.08"
         style="fill:#87b6e5;fill-opacity:1;fill-rule:nonzero;stroke:none"
         transform="matrix(0.13333333,0,0,-0.13333333,0,120.94667)" />
      <path
         id="path11"
         d="m 1056.39,463.617 h -71.999 v 216.41 h 118.069 c 32.02,0.008 59.63,-20.722 68.64,-48.203 8.34,-25.457 1.21,-53.117 -17.61,-72.808 2.5,-6.782 4.94,-12.09 7.26,-18.18 5.23,-12.051 10.01,-24.102 15.24,-36 l 17.13,-41.219 h -0.44 -72.57 c 0,-0.043 -0.58,1.738 -1.16,2.469 -2.9,6.379 -5.52,13.211 -8.42,19.59 l -17.56,41.66 c -6.97,16.84 -13.94,32.75 -20.9,49.582 8.69,0.238 15.19,-1.391 23.58,2.469 5.9,2.898 14.84,10.109 15.07,23.937 -0.23,6.852 -2.13,12.043 -6.66,17.442 -4.55,5.019 -11.13,8.742 -19.7,8.859 0,0 -27.98,0.012 -27.97,0 V 463.617"
         style="fill:#275aad;fill-opacity:1;fill-rule:nonzero;stroke:none"
         transform="matrix(0.13333333,0,0,-0.13333333,0,120.94667)" />
      <path
         id="path12"
         d="m 1808.45,680.027 v -216.41 h -72 v 88.242 h -6.72 -43.1 -0.59 v -88.242 c -13.06,0 -27.14,0.141 -40.2,0 h -31.8 v 166.332 h -50.36 v -5.219 -15.671 -71.27 -74.172 h -0.58 -71.42 v 89.703 3.481 73.148 h -50.79 V 551.43 463.617 h -74.17 c -12.92,31.203 -26.56,62.703 -39.19,93.762 -1.45,6.531 -2.9,13.07 -4.79,19.449 V 463.617 h -74.32 c -14.73,34.25 -28.88,67.821 -43.57,102.582 -5.09,12.039 -9.26,21.84 -14.52,34.36 l -0.72,1.64 -11.44,26.852 -16.38,38.347 c -1.44,4.352 -3.76,8.282 -5.22,12.629 h 74.15 c 15.24,-37.007 30.62,-73.589 46.59,-110.019 l 0.44,-0.867 c -0.58,4.207 -1.9,9.578 -2.62,13.636 v 64.59 c 0.14,10.313 0,22.071 0,32.66 h 74.31 c 0.94,-2.359 1.46,-3.629 2.18,-5.519 8.71,-20.457 16.99,-40.778 25.7,-61.098 l 19.45,-44.269 c -0.44,4.648 -1.46,9.136 -2.04,13.636 v 97.25 h 5.96 50.51 182.88 51.96 v -13.5 -64.589 h 3.49 46.92 v 78.089 h 37.55 34.45"
         style="fill:#275aad;fill-opacity:1;fill-rule:nonzero;stroke:none"
         transform="matrix(0.13333333,0,0,-0.13333333,0,120.94667)" />
      <path
         id="path13"
         d="m 2065.49,680.051 h -53.96 l -45.16,-170.59 -45.16,170.59 h -53.96 l -57.29,-216.434 h 45.47 l 10,45.774 h 57.61 l 9.99,-45.774 h 66.68 l 10,45.774 h 57.6 l 10,-45.774 h 45.47 z m -192.47,-134.891 20.91,97.301 h 0.6 l 20.92,-97.301 z m 144.27,0 20.92,97.301 h 0.6 l 20.92,-97.301 h -42.44"
         style="fill:#87b6e5;fill-opacity:1;fill-rule:nonzero;stroke:none"
         transform="matrix(0.13333333,0,0,-0.13333333,0,120.94667)" />
      <path
         id="path14"
         d="m 2252.78,606.199 c 0,31.379 -4.52,76.949 -66.69,76.949 -65.17,0 -73.33,-46.468 -73.33,-111.949 0,-65.48 8.16,-111.949 73.33,-111.949 57.03,0 68.5,40.129 68.5,86.602 h -43.45 c 0,-46.473 -11.47,-54.622 -27.16,-54.622 -18.71,0 -27.76,11.77 -27.76,76.95 0,60.949 5.13,82.98 27.16,82.98 19.61,0 25.95,-13.582 25.95,-44.961 h 43.45"
         style="fill:#87b6e5;fill-opacity:1;fill-rule:nonzero;stroke:none"
         transform="matrix(0.13333333,0,0,-0.13333333,0,120.94667)" />
      <path
         id="path15"
         d="m 2263.17,463.617 h 43.64 v 96.078 h 50.92 v -96.078 h 43.65 v 216.41 h -43.65 v -82.75 h -50.92 v 82.75 h -43.64 v -216.41"
         style="fill:#87b6e5;fill-opacity:1;fill-rule:nonzero;stroke:none"
         transform="matrix(0.13333333,0,0,-0.13333333,0,120.94667)" />
      <path
         id="path16"
         d="M 2410.84,680.066 V 463.617 h 124 v 35.77 h -80.34 v 58.211 h 72.76 v 35.769 h -72.76 v 50.93 h 77.3 v 35.769 h -120.96"
         style="fill:#87b6e5;fill-opacity:1;fill-rule:nonzero;stroke:none"
         transform="matrix(0.13333333,0,0,-0.13333333,0,120.94667)" />
      <path
         id="path17"
         d="m 2541.32,680.027 v -216.41 h 40.01 v 151.547 h 0.6 l 53.35,-151.547 h 49.71 v 216.41 h -40.01 V 531.816 h -0.61 l -52.74,148.211 h -50.31"
         style="fill:#87b6e5;fill-opacity:1;fill-rule:nonzero;stroke:none"
         transform="matrix(0.13333333,0,0,-0.13333333,0,120.94667)" />
      <path
         id="path18"
         d="m 837.66,226.77 h 10 v 453.55 h -10 V 226.77"
         style="fill:#275aad;fill-opacity:1;fill-rule:nonzero;stroke:none"
         transform="matrix(0.13333333,0,0,-0.13333333,0,120.94667)" />
      <path
         id="path19"
         d="m 186.289,595.266 c -4.269,-0.192 -22.301,7.679 -44.539,18.597 v -8.179 c 19.449,-9.481 38.191,-17.711 44.59,-17.711 0.14,0 0.269,0 0.398,0.011 10.313,0.641 20.032,6.039 29.422,11.258 11.719,6.512 21.84,12.133 30.578,7.703 14.321,-7.269 16.91,-43.902 19.203,-76.222 0.149,-2.098 0.289,-4.168 0.438,-6.231 -22.527,-17.418 -47.699,-36.469 -62.731,-28.847 -10,5.078 -10.976,23.878 -11.687,37.597 -0.492,9.391 -0.84,16.172 -3.492,19.742 -3.071,4.149 -24.641,15.579 -46.719,26.559 v -8.148 c 21.891,-10.95 38.648,-20.012 40.859,-22.75 1.34,-1.809 1.743,-9.551 2.071,-15.782 0.851,-16.359 1.898,-36.73 15.672,-43.718 18.148,-9.219 42.558,8.089 66.687,26.648 2.09,-25.809 5.191,-46.57 15.961,-52.027 14.871,-7.551 34.289,4.578 51.102,16.617 -0.032,-22.059 1.109,-40.168 12,-45.559 2.648,-1.308 5.418,-1.898 8.289,-1.898 13.089,0 28.058,12.238 41.55,23.277 1.118,0.922 2.27,1.86 3.418,2.789 13.5,-6.59 29.032,-14.207 38.68,-18.937 l 0.07,-75.469 104.18,-61.481 106.859,60.02 0.012,170.309 -104.801,61.5 -52.078,-29.579 c -11.84,5.829 -23.769,11.43 -36.14,17.649 -1.789,0.898 -3.5,2.871 -4.231,4.75 -2.48,6.441 -4.609,13.031 -6.648,19.621 -0.782,2.52 -2.133,4.039 -4.524,5.211 -25.367,12.519 -50.699,25.18 -76.09,37.707 -2.367,1.16 -3.277,2.223 -2.929,5.133 1.179,9.679 -4.91,18.16 -14.391,20.777 -8.558,2.352 -18.137,-2.07 -22.148,-10.238 -3.93,-8.012 -1.731,-18.25 5.058,-23.563 7.742,-6.066 18.172,-5.949 25.25,0.75 2.242,2.133 3.782,2.032 6.262,0.782 18.871,-9.489 37.828,-18.84 56.762,-28.25 6.527,-3.27 14.679,-5.2 19.09,-10.309 4.507,-5.23 5.578,-13.582 7.699,-20.691 0.488,-1.629 1.211,-2.918 2.121,-4 1.129,-1.321 2.558,-2.329 4.308,-3.192 10.711,-5.289 20.239,-9.808 29.84,-14.547 1.149,-0.57 2.301,-1.14 3.45,-1.711 l -0.071,-0.05 c 3.571,-1.86 7.16,-3.711 10.731,-5.579 2.898,-1.5 5.5,-2.3 8.48,-0.73 7.641,4.039 14.578,2.867 21.781,-1.762 6.418,-4.14 13.539,-7.187 20.469,-10.777 1.07,1.098 1.969,2.098 2.93,3.039 6.851,6.699 17.148,7.461 25.289,1.859 7.34,-5.058 10.09,-15.191 6.473,-23.879 -3.454,-8.23 -13,-13.089 -22.063,-11.222 -9.059,1.871 -15.719,9.859 -15.398,19.211 0.129,3.441 -0.942,5.07 -3.891,6.492 -7.41,3.578 -14.578,7.656 -22.02,11.187 -1.851,0.891 -4.718,1.321 -6.429,0.5 -8.34,-4.031 -15.379,-2.269 -23.403,2 -3.437,1.832 -6.898,3.641 -10.347,5.461 l -26.403,-14.992 c 41.922,-21.699 83.832,-43.398 125.704,-65.179 2.468,-1.278 3.957,-1.579 6.218,0.8 6.352,6.762 17.141,7.723 24.532,2.68 8.136,-5.527 11.07,-15.707 7.136,-24.719 -3.59,-8.191 -13.297,-12.969 -22.226,-10.91 -9.223,2.121 -15.774,10.32 -15.172,19.789 0.211,3.16 -0.711,4.492 -3.391,5.871 -43.437,22.418 -86.828,44.91 -130.199,67.461 l -0.191,-0.109 c -4.731,2.34 -10.02,4.738 -20.258,9.929 -2.871,1.45 -4.84,3.329 -5.121,6.649 -0.711,8.5 -5.391,13.648 -13.09,17.148 -6.86,3.133 -13.192,7.434 -19.86,11.274 0.34,1.469 0.692,2.75 0.961,4.047 1.918,9.25 -2.953,18.211 -11.941,22 -8.109,3.402 -17.988,0.293 -23.27,-7.36 -5,-7.25 -3.949,-17.769 2.418,-24.3 6.391,-6.528 16.571,-7.809 24.172,-2.547 2.789,1.937 4.711,1.918 7.461,0.218 6.93,-4.242 14.141,-8.031 21.039,-12.32 1.719,-1.07 3.621,-3.219 3.84,-5.078 1.11,-9.07 6.328,-13.981 14.149,-18.371 11.019,-5.801 11.23,-5.379 14.32,-6.781 l -0.059,-51.809 59.309,-32.293 c 7.73,8.223 18.133,10.031 26.019,4.871 8.5,-5.558 11.622,-15.848 7.532,-24.848 -4,-8.761 -13.43,-13.273 -22.86,-10.91 -10.172,2.539 -15.121,11.27 -13.922,24.957 l -56.128,31.063 v -0.231 c -7.161,3.141 -13.309,5.391 -17.11,5.899 -6.219,0.84 -13.699,-4.117 -22.762,-11.297 -10.378,5.066 -18.949,9.227 -21.668,10.477 -1.699,0.792 -2.031,3.21 -2.332,8.14 -0.347,5.942 -0.839,14.07 -8.828,18.121 -5.582,2.821 -13.191,-1.769 -24.082,-9.582 0.153,25.453 -0.597,50.5 -15.136,57.883 -13.153,6.668 -31.622,-6.32 -53.043,-22.781 -0.028,0.469 -0.059,0.929 -0.09,1.398 -2.547,35.922 -5.18,73.071 -23.18,82.203 -12.199,6.2 -25.027,-0.929 -37.43,-7.832 -8.679,-4.82 -17.648,-9.82 -26.32,-10.347 m 219.43,-131.25 c 6,4.558 11.492,8.047 14.48,7.636 3.582,-0.476 10.16,-3.047 18.012,-6.636 l -0.063,-9.383 c 2.141,-1.117 3.473,-1.797 4.243,-2.199 0.597,-0.309 2.437,-1.25 6.949,-3.571 3.18,-1.64 5.351,-3.699 6.39,-7.398 2.02,-7.231 2.961,-15.699 7.442,-21.07 4.387,-5.25 12.609,-7.332 19.168,-10.75 19,-9.872 38.039,-19.661 56.988,-29.59 2.492,-1.313 4.051,-1.442 6.371,0.679 7.289,6.668 17.852,6.61 25.582,0.329 6.789,-5.5 8.84,-15.911 4.731,-23.958 -4.203,-8.203 -13.992,-12.519 -22.614,-9.992 -9.57,2.821 -15.589,11.512 -14.226,21.301 0.406,2.941 -0.5,4.031 -2.883,5.25 -25.5,13.121 -50.93,26.379 -76.43,39.488 -2.39,1.231 -3.73,2.793 -4.48,5.352 -1.949,6.699 -4,13.41 -6.399,19.969 -0.71,1.91 -2.41,3.941 -4.21,4.882 -4.75,2.489 -7.532,4.028 -9.071,4.969 -8.59,4.211 -19.668,9.641 -29.98,14.692 m -64.297,21.679 c 7.656,5.578 18.308,13.188 20.848,12.118 3.968,-2.008 4.48,-5.887 4.851,-12.047 0.328,-5.442 0.699,-11.614 6.551,-14.313 2.379,-1.109 9.527,-4.57 18.469,-8.93 -0.282,-0.23 -0.539,-0.437 -0.821,-0.668 -14.011,-11.46 -31.441,-25.722 -41.98,-20.5 -7.77,3.848 -8.059,24.727 -7.918,44.34 m -67.473,35.43 c 19.442,15.02 39.242,29.988 49.102,24.988 11.527,-5.847 11.308,-32.847 11.109,-56.668 v -0.019 c -16.121,-11.742 -35.582,-25.383 -47.859,-19.153 -7.949,4.032 -10.571,27.391 -12.352,50.852 m 56.192,-229.25 -0.063,-109.062 9.953,-5.778 0.11,109.078 95.168,55.153 93.711,-56.43 0.058,-93.184 9.902,5.75 -0.171,94.231 -103.508,61.172 z m 326.3,62.59 -105.132,-60.93 0.152,-88.14 9.98,5.769 -0.132,76.609 95.152,55.141 44.461,-25.988 v 11.957 z m -1.921,190.488 46.402,26.36 v 11.5 l -46.32,-26.321 -94.25,55.66 -0.024,83.571 -9.949,5.742 0.531,-95.012 z m 46.402,1.77 v 11.55 l -39.582,-22.929 0.269,-170.321 39.313,-22.609 v 11.531 l -29.32,16.86 -0.25,158.781 29.57,17.137"
         style="fill:#ffffff;fill-opacity:1;fill-rule:nonzero;stroke:none"
         transform="matrix(0.13333333,0,0,-0.13333333,0,120.94667)" />
      <path
         id="path20"
         d="m 700.922,291.691 v 25.231 l -44.457,25.992 -95.152,-55.141 0.128,-76.609 z M 442.395,453.434 c -0.774,0.398 -2.102,1.089 -4.25,2.199 l 0.07,9.379 c -7.863,3.59 -14.442,6.16 -18.012,6.64 -2.988,0.411 -8.48,-3.078 -14.488,-7.64 10.316,-5.047 21.398,-10.481 29.988,-14.688 1.539,-0.941 4.32,-2.48 9.07,-4.972 1.801,-0.938 3.5,-2.969 4.2,-4.887 2.41,-6.551 4.461,-13.262 6.41,-19.961 0.75,-2.563 2.09,-4.121 4.48,-5.352 25.489,-13.109 50.918,-26.371 76.43,-39.488 2.379,-1.223 3.281,-2.312 2.879,-5.262 -1.367,-9.781 4.66,-18.468 14.223,-21.289 8.628,-2.531 18.418,1.789 22.609,9.989 4.117,8.05 2.07,18.461 -4.723,23.961 -7.738,6.281 -18.297,6.339 -25.578,-0.329 -2.32,-2.121 -3.879,-1.992 -6.371,-0.679 -18.949,9.929 -38,19.718 -57,29.59 -6.551,3.418 -14.769,5.5 -19.16,10.75 -4.481,5.367 -5.418,13.839 -7.438,21.07 -1.043,3.699 -3.211,5.758 -6.402,7.387 -4.508,2.332 -6.34,3.269 -6.937,3.582 m -80.122,44.39 c -2.539,1.071 -13.191,-6.551 -20.851,-12.133 -0.141,-19.609 0.152,-40.488 7.922,-44.339 10.527,-5.219 27.969,9.043 41.98,20.5 0.27,0.23 0.539,0.453 0.821,0.671 -8.954,4.36 -16.09,7.821 -18.481,8.93 -5.84,2.711 -6.211,8.871 -6.543,14.32 -0.367,6.149 -0.879,10.032 -4.848,12.051 m -28.121,-8.402 v 0.019 c 0.2,23.821 0.43,50.821 -11.109,56.672 -9.852,5.008 -29.648,-9.968 -49.09,-24.992 1.781,-23.457 4.399,-46.816 12.34,-50.848 12.281,-6.23 31.738,7.411 47.859,19.149 m 322.289,-134.957 44.481,-25.582 v 13.531 l -39.309,22.609 -0.269,170.321 39.578,22.937 v 13.032 l -46.41,-26.36 -103.598,61.5 -0.543,95.02 -129.027,74.5 -279.602,-161.418 v -0.692 c 22.242,-10.922 40.27,-18.789 44.551,-18.601 8.66,0.531 17.641,5.531 26.32,10.351 12.399,6.899 25.231,14.032 37.43,7.828 18,-9.128 20.629,-46.277 23.172,-82.199 0.027,-0.469 0.066,-0.929 0.098,-1.398 21.421,16.469 39.89,29.449 53.031,22.777 14.551,-7.379 15.301,-32.43 15.148,-57.879 10.891,7.821 18.492,12.41 24.082,9.582 7.981,-4.051 8.469,-12.179 8.828,-18.109 0.301,-4.942 0.629,-7.352 2.332,-8.141 2.719,-1.261 11.289,-5.422 21.661,-10.492 9.058,7.18 16.539,12.141 22.769,11.301 3.801,-0.512 9.938,-2.762 17.098,-5.899 l 0.011,0.231 56.129,-31.063 c -1.199,-13.687 3.743,-22.418 13.922,-24.961 9.418,-2.359 18.848,2.153 22.848,10.911 4.101,9 0.98,19.293 -7.52,24.851 -7.898,5.16 -18.3,3.36 -26.019,-4.871 l -59.309,32.289 0.059,51.813 c -3.102,1.398 -3.309,0.98 -14.32,6.781 -7.821,4.387 -13.04,9.308 -14.149,18.379 -0.23,1.847 -2.121,4 -3.84,5.07 -6.91,4.289 -14.109,8.078 -21.043,12.32 -2.75,1.7 -4.668,1.719 -7.457,-0.222 -7.601,-5.258 -17.781,-3.981 -24.172,2.551 -6.371,6.531 -7.429,17.05 -2.429,24.3 5.289,7.649 15.172,10.758 23.281,7.36 8.988,-3.782 13.848,-12.75 11.93,-22 -0.27,-1.301 -0.621,-2.578 -0.961,-4.051 6.679,-3.84 13.011,-8.141 19.871,-11.27 7.687,-3.5 12.379,-8.648 13.09,-17.148 0.281,-3.313 2.25,-5.199 5.121,-6.652 10.238,-5.18 15.519,-7.59 20.258,-9.93 l 0.191,0.109 c 43.367,-22.547 86.75,-45.039 130.199,-67.457 2.68,-1.371 3.59,-2.711 3.379,-5.871 -0.59,-9.461 5.949,-17.672 15.18,-19.789 8.922,-2.062 18.633,2.719 22.222,10.91 3.938,9.02 1,19.199 -7.132,24.719 -7.387,5.039 -18.18,4.078 -24.539,-2.68 -2.25,-2.379 -3.75,-2.082 -6.219,-0.8 -41.86,21.789 -83.781,43.48 -125.692,65.179 l 26.403,14.992 c 3.449,-1.82 6.91,-3.632 10.347,-5.461 8.012,-4.269 15.063,-6.019 23.403,-2 1.707,0.821 4.578,0.391 6.429,-0.5 7.43,-3.531 14.61,-7.609 22.008,-11.191 2.961,-1.418 4.031,-3.051 3.903,-6.488 -0.332,-9.352 6.328,-17.34 15.398,-19.211 9.059,-1.871 18.609,2.988 22.051,11.219 3.629,8.691 0.879,18.82 -6.461,23.882 -8.141,5.598 -18.449,4.84 -25.289,-1.863 -0.961,-0.937 -1.86,-1.937 -2.93,-3.039 -6.93,3.602 -14.051,6.641 -20.48,10.781 -7.192,4.629 -14.141,5.801 -21.77,1.758 -2.992,-1.566 -5.59,-0.769 -8.48,0.731 -3.582,1.871 -7.161,3.722 -10.743,5.582 l 0.082,0.05 c -1.152,0.571 -2.3,1.137 -3.46,1.707 -9.59,4.743 -19.122,9.262 -29.84,14.551 -1.739,0.86 -3.168,1.871 -4.301,3.192 -0.918,1.078 -1.641,2.371 -2.129,4 -2.109,7.109 -3.18,15.461 -7.691,20.687 -4.411,5.113 -12.559,7.043 -19.09,10.313 -18.938,9.41 -37.891,18.757 -56.758,28.25 -2.481,1.25 -4.02,1.347 -6.27,-0.782 -7.082,-6.699 -17.5,-6.808 -25.242,-0.75 -6.801,5.313 -9,15.551 -5.058,23.563 4,8.168 13.589,12.59 22.14,10.238 9.489,-2.621 15.578,-11.101 14.399,-20.781 -0.352,-2.91 0.558,-3.969 2.922,-5.129 25.386,-12.531 50.726,-25.191 76.097,-37.711 2.379,-1.168 3.731,-2.687 4.52,-5.211 2.031,-6.59 4.172,-13.18 6.652,-19.609 0.719,-1.891 2.438,-3.86 4.231,-4.758 12.367,-6.223 24.296,-11.82 36.128,-17.652 l 52.09,29.582 104.801,-61.5 -0.019,-170.313 -106.852,-60.019 -104.18,61.48 -0.07,75.473 c -9.66,4.738 -25.191,12.347 -38.68,18.937 -1.148,-0.929 -2.3,-1.859 -3.422,-2.789 -13.5,-11.039 -28.468,-23.281 -41.558,-23.281 -2.86,0 -5.629,0.59 -8.281,1.902 -10.887,5.391 -12.028,23.5 -12,45.559 -16.821,-12.039 -36.231,-24.168 -51.098,-16.621 -10.77,5.461 -13.871,26.222 -15.961,52.031 -24.129,-18.559 -48.551,-35.871 -66.691,-26.648 -13.77,6.988 -14.829,27.359 -15.68,43.718 -0.32,6.231 -0.719,13.981 -2.059,15.782 -2.211,2.738 -18.98,11.808 -40.871,22.75 V 291.691 l 188.332,-108.878 0.071,109.058 105.148,60.934 103.52,-61.172 0.171,-94.211 12.469,7.973 -0.148,88.136 z m 15.161,16.34 29.32,-16.864 v 192.782 l -29.57,-17.141 z m -17,185.687 46.32,26.321 v 31.742 l -140.59,81.168 0.02,-83.571 z m -468.258,31.481 c -6.403,0 -25.153,8.242 -44.602,17.718 v -26.136 c 22.082,-10.981 43.653,-22.41 46.731,-26.571 2.648,-3.57 3,-10.351 3.492,-19.742 0.707,-13.719 1.687,-32.519 11.687,-37.597 15.02,-7.622 40.2,11.429 62.731,28.847 -0.149,2.063 -0.301,4.129 -0.449,6.231 -2.282,32.32 -4.879,68.961 -19.192,76.218 -8.738,4.43 -18.871,-1.187 -30.578,-7.699 -9.402,-5.219 -19.109,-10.621 -29.43,-11.258 -0.121,-0.011 -0.25,-0.011 -0.39,-0.011 m 153.801,-301.86 -0.114,-109.07 81.313,-46.781 107.738,61.453 -0.07,93.117 -93.699,56.43 -95.168,-55.149"
         style="fill:#225e62;fill-opacity:1;fill-rule:nonzero;stroke:none"
         transform="matrix(0.13333333,0,0,-0.13333333,0,120.94667)" />
    </g>
  </g>
</svg>
