<?xml version="1.0" encoding="UTF-8" standalone="no"?>
<!-- Created with Inkscape (http://www.inkscape.org/) -->

<svg
   width="102.15191mm"
   height="72.378014mm"
   viewBox="0 0 102.15191 72.378014"
   version="1.1"
   id="svg1"
   inkscape:version="1.3.2 (1:1.3.2+202311252150+091e20ef0f)"
   sodipodi:docname="venn_diagramm.svg"
   xmlns:inkscape="http://www.inkscape.org/namespaces/inkscape"
   xmlns:sodipodi="http://sodipodi.sourceforge.net/DTD/sodipodi-0.dtd"
   xmlns="http://www.w3.org/2000/svg"
   xmlns:svg="http://www.w3.org/2000/svg">
  <sodipodi:namedview
     id="namedview1"
     pagecolor="#ffffff"
     bordercolor="#ffffff"
     borderopacity="1"
     inkscape:showpageshadow="0"
     inkscape:pageopacity="0"
     inkscape:pagecheckerboard="false"
     inkscape:deskcolor="#d1d1d1"
     inkscape:document-units="mm"
     inkscape:zoom="0.66813973"
     inkscape:cx="276.88819"
     inkscape:cy="278.38488"
     inkscape:window-width="1920"
     inkscape:window-height="953"
     inkscape:window-x="0"
     inkscape:window-y="0"
     inkscape:window-maximized="1"
     inkscape:current-layer="layer1" />
  <defs
     id="defs1" />
  <g
     inkscape:label="Layer 1"
     inkscape:groupmode="layer"
     id="layer1"
     transform="translate(-31.808394,-74.89362)">
    <path
       d="M 67.9974,74.89362 A 36.189137,36.189137 0 0 0 31.808394,111.08263 36.189137,36.189137 0 0 0 67.9974,147.27163 36.189137,36.189137 0 0 0 82.884347,143.96641 36.189137,36.189137 0 0 1 61.582288,111.08263 36.189137,36.189137 0 0 1 82.994934,78.152852 36.189137,36.189137 0 0 0 67.9974,74.89362 Z"
       style="display:inline;fill:#fd4545;fill-opacity:1;stroke-width:1.865;stroke-linejoin:round;paint-order:markers stroke fill"
       id="venndiagramm-left" />
    <path
       d="M 82.994934,78.152852 A 36.189137,36.189137 0 0 0 61.582288,111.08263 36.189137,36.189137 0 0 0 82.884347,143.96641 36.189137,36.189137 0 0 0 104.18692,111.08263 36.189137,36.189137 0 0 0 82.994934,78.152852 Z"
       style="display:inline;fill:#19a500;fill-opacity:1;stroke-width:1.865;stroke-linejoin:round;paint-order:markers stroke fill"
       id="venndiagramm-middle" />
    <path
       d="m 82.994934,78.152852 a 36.189137,36.189137 0 0 1 21.191986,32.929778 36.189137,36.189137 0 0 1 -21.302573,32.88378 36.189137,36.189137 0 0 0 14.886946,3.30522 36.189137,36.189137 0 0 0 36.189007,-36.189 36.189137,36.189137 0 0 0 -36.189007,-36.18901 36.189137,36.189137 0 0 0 -14.776359,3.259232 z"
       style="display:inline;fill:#1200a5;fill-opacity:1;stroke-width:1.865;stroke-linejoin:round;paint-order:markers stroke fill"
       id="venndiagramm-right" />
  </g>
</svg>
