<?xml version="1.0" encoding="utf-8" standalone="no"?>
<!DOCTYPE svg PUBLIC "-//W3C//DTD SVG 1.1//EN"
  "http://www.w3.org/Graphics/SVG/1.1/DTD/svg11.dtd">
<svg xmlns:xlink="http://www.w3.org/1999/xlink" width="575.28pt" height="444.96pt" viewBox="0 0 575.28 444.96" xmlns="http://www.w3.org/2000/svg" version="1.1">
 <metadata>
  <rdf:RDF xmlns:dc="http://purl.org/dc/elements/1.1/" xmlns:cc="http://creativecommons.org/ns#" xmlns:rdf="http://www.w3.org/1999/02/22-rdf-syntax-ns#">
   <cc:Work>
    <dc:type rdf:resource="http://purl.org/dc/dcmitype/StillImage"/>
    <dc:date>2026-07-13T09:29:45.204315</dc:date>
    <dc:format>image/svg+xml</dc:format>
    <dc:creator>
     <cc:Agent>
      <dc:title>Matplotlib v3.10.8, https://matplotlib.org/</dc:title>
     </cc:Agent>
    </dc:creator>
   </cc:Work>
  </rdf:RDF>
 </metadata>
 <defs>
  <style type="text/css">*{stroke-linejoin: round; stroke-linecap: butt}</style>
 </defs>
 <g id="figure_1">
  <g id="patch_1">
   <path d="M 0 444.96 
L 575.28 444.96 
L 575.28 0 
L 0 0 
z
" style="fill: #ffffff"/>
  </g>
  <g id="axes_1">
   <g id="patch_2">
    <path d="M 42.142428 146.261609 
L 565.28101 146.261609 
L 565.28101 29.454889 
L 42.142428 29.454889 
z
" style="fill: #ffffff"/>
   </g>
   <g id="matplotlib.axis_1">
    <g id="xtick_1">
     <g id="line2d_1">
      <defs>
       <path id="m849a201521" d="M 0 0 
L 0 -3.5 
" style="stroke: #000000; stroke-width: 0.8"/>
      </defs>
      <g>
       <use xlink:href="#m849a201521" x="42.142428" y="146.261609" style="stroke: #000000; stroke-width: 0.8"/>
      </g>
     </g>
     <g id="line2d_2">
      <defs>
       <path id="m4caa276582" d="M 0 0 
L 0 3.5 
" style="stroke: #000000; stroke-width: 0.8"/>
      </defs>
      <g>
       <use xlink:href="#m4caa276582" x="42.142428" y="29.454889" style="stroke: #000000; stroke-width: 0.8"/>
      </g>
     </g>
    </g>
    <g id="xtick_2">
     <g id="line2d_3">
      <g>
       <use xlink:href="#m849a201521" x="129.332191" y="146.261609" style="stroke: #000000; stroke-width: 0.8"/>
      </g>
     </g>
     <g id="line2d_4">
      <g>
       <use xlink:href="#m4caa276582" x="129.332191" y="29.454889" style="stroke: #000000; stroke-width: 0.8"/>
      </g>
     </g>
    </g>
    <g id="xtick_3">
     <g id="line2d_5">
      <g>
       <use xlink:href="#m849a201521" x="216.521955" y="146.261609" style="stroke: #000000; stroke-width: 0.8"/>
      </g>
     </g>
     <g id="line2d_6">
      <g>
       <use xlink:href="#m4caa276582" x="216.521955" y="29.454889" style="stroke: #000000; stroke-width: 0.8"/>
      </g>
     </g>
    </g>
    <g id="xtick_4">
     <g id="line2d_7">
      <g>
       <use xlink:href="#m849a201521" x="303.711719" y="146.261609" style="stroke: #000000; stroke-width: 0.8"/>
      </g>
     </g>
     <g id="line2d_8">
      <g>
       <use xlink:href="#m4caa276582" x="303.711719" y="29.454889" style="stroke: #000000; stroke-width: 0.8"/>
      </g>
     </g>
    </g>
    <g id="xtick_5">
     <g id="line2d_9">
      <g>
       <use xlink:href="#m849a201521" x="390.901482" y="146.261609" style="stroke: #000000; stroke-width: 0.8"/>
      </g>
     </g>
     <g id="line2d_10">
      <g>
       <use xlink:href="#m4caa276582" x="390.901482" y="29.454889" style="stroke: #000000; stroke-width: 0.8"/>
      </g>
     </g>
    </g>
    <g id="xtick_6">
     <g id="line2d_11">
      <g>
       <use xlink:href="#m849a201521" x="478.091246" y="146.261609" style="stroke: #000000; stroke-width: 0.8"/>
      </g>
     </g>
     <g id="line2d_12">
      <g>
       <use xlink:href="#m4caa276582" x="478.091246" y="29.454889" style="stroke: #000000; stroke-width: 0.8"/>
      </g>
     </g>
    </g>
    <g id="xtick_7">
     <g id="line2d_13">
      <g>
       <use xlink:href="#m849a201521" x="565.28101" y="146.261609" style="stroke: #000000; stroke-width: 0.8"/>
      </g>
     </g>
     <g id="line2d_14">
      <g>
       <use xlink:href="#m4caa276582" x="565.28101" y="29.454889" style="stroke: #000000; stroke-width: 0.8"/>
      </g>
     </g>
    </g>
   </g>
   <g id="matplotlib.axis_2">
    <g id="ytick_1">
     <g id="line2d_15">
      <defs>
       <path id="m24bc3ee3e7" d="M 0 0 
L 3.5 0 
" style="stroke: #000000; stroke-width: 0.8"/>
      </defs>
      <g>
       <use xlink:href="#m24bc3ee3e7" x="42.142428" y="146.261609" style="stroke: #000000; stroke-width: 0.8"/>
      </g>
     </g>
     <g id="line2d_16">
      <defs>
       <path id="m15c93c478e" d="M 0 0 
L -3.5 0 
" style="stroke: #000000; stroke-width: 0.8"/>
      </defs>
      <g>
       <use xlink:href="#m15c93c478e" x="565.28101" y="146.261609" style="stroke: #000000; stroke-width: 0.8"/>
      </g>
     </g>
     <g id="text_1">
      <!-- 0 -->
      <g transform="translate(31.643678 150.44075) scale(0.11 -0.11)">
       <defs>
        <path id="DejaVuSans-30" d="M 2034 4250 
Q 1547 4250 1301 3770 
Q 1056 3291 1056 2328 
Q 1056 1369 1301 889 
Q 1547 409 2034 409 
Q 2525 409 2770 889 
Q 3016 1369 3016 2328 
Q 3016 3291 2770 3770 
Q 2525 4250 2034 4250 
z
M 2034 4750 
Q 2819 4750 3233 4129 
Q 3647 3509 3647 2328 
Q 3647 1150 3233 529 
Q 2819 -91 2034 -91 
Q 1250 -91 836 529 
Q 422 1150 422 2328 
Q 422 3509 836 4129 
Q 1250 4750 2034 4750 
z
" transform="scale(0.015625)"/>
       </defs>
       <use xlink:href="#DejaVuSans-30"/>
      </g>
     </g>
    </g>
    <g id="ytick_2">
     <g id="line2d_17">
      <g>
       <use xlink:href="#m24bc3ee3e7" x="42.142428" y="93.167645" style="stroke: #000000; stroke-width: 0.8"/>
      </g>
     </g>
     <g id="line2d_18">
      <g>
       <use xlink:href="#m15c93c478e" x="565.28101" y="93.167645" style="stroke: #000000; stroke-width: 0.8"/>
      </g>
     </g>
     <g id="text_2">
      <!-- 50 -->
      <g transform="translate(24.644928 97.346786) scale(0.11 -0.11)">
       <defs>
        <path id="DejaVuSans-35" d="M 691 4666 
L 3169 4666 
L 3169 4134 
L 1269 4134 
L 1269 2991 
Q 1406 3038 1543 3061 
Q 1681 3084 1819 3084 
Q 2600 3084 3056 2656 
Q 3513 2228 3513 1497 
Q 3513 744 3044 326 
Q 2575 -91 1722 -91 
Q 1428 -91 1123 -41 
Q 819 9 494 109 
L 494 744 
Q 775 591 1075 516 
Q 1375 441 1709 441 
Q 2250 441 2565 725 
Q 2881 1009 2881 1497 
Q 2881 1984 2565 2268 
Q 2250 2553 1709 2553 
Q 1456 2553 1204 2497 
Q 953 2441 691 2322 
L 691 4666 
z
" transform="scale(0.015625)"/>
       </defs>
       <use xlink:href="#DejaVuSans-35"/>
       <use xlink:href="#DejaVuSans-30" transform="translate(63.623047 0)"/>
      </g>
     </g>
    </g>
    <g id="ytick_3">
     <g id="line2d_19">
      <g>
       <use xlink:href="#m24bc3ee3e7" x="42.142428" y="40.073682" style="stroke: #000000; stroke-width: 0.8"/>
      </g>
     </g>
     <g id="line2d_20">
      <g>
       <use xlink:href="#m15c93c478e" x="565.28101" y="40.073682" style="stroke: #000000; stroke-width: 0.8"/>
      </g>
     </g>
     <g id="text_3">
      <!-- 100 -->
      <g transform="translate(17.646178 44.252822) scale(0.11 -0.11)">
       <defs>
        <path id="DejaVuSans-31" d="M 794 531 
L 1825 531 
L 1825 4091 
L 703 3866 
L 703 4441 
L 1819 4666 
L 2450 4666 
L 2450 531 
L 3481 531 
L 3481 0 
L 794 0 
L 794 531 
z
" transform="scale(0.015625)"/>
       </defs>
       <use xlink:href="#DejaVuSans-31"/>
       <use xlink:href="#DejaVuSans-30" transform="translate(63.623047 0)"/>
       <use xlink:href="#DejaVuSans-30" transform="translate(127.246094 0)"/>
      </g>
     </g>
    </g>
    <g id="text_4">
     <!-- ETR [µmol m⁻² s⁻¹] -->
     <g transform="translate(11.358521 140.238874) rotate(-90) scale(0.11 -0.11)">
      <defs>
       <path id="DejaVuSans-45" d="M 628 4666 
L 3578 4666 
L 3578 4134 
L 1259 4134 
L 1259 2753 
L 3481 2753 
L 3481 2222 
L 1259 2222 
L 1259 531 
L 3634 531 
L 3634 0 
L 628 0 
L 628 4666 
z
" transform="scale(0.015625)"/>
       <path id="DejaVuSans-54" d="M -19 4666 
L 3928 4666 
L 3928 4134 
L 2272 4134 
L 2272 0 
L 1638 0 
L 1638 4134 
L -19 4134 
L -19 4666 
z
" transform="scale(0.015625)"/>
       <path id="DejaVuSans-52" d="M 2841 2188 
Q 3044 2119 3236 1894 
Q 3428 1669 3622 1275 
L 4263 0 
L 3584 0 
L 2988 1197 
Q 2756 1666 2539 1819 
Q 2322 1972 1947 1972 
L 1259 1972 
L 1259 0 
L 628 0 
L 628 4666 
L 2053 4666 
Q 2853 4666 3247 4331 
Q 3641 3997 3641 3322 
Q 3641 2881 3436 2590 
Q 3231 2300 2841 2188 
z
M 1259 4147 
L 1259 2491 
L 2053 2491 
Q 2509 2491 2742 2702 
Q 2975 2913 2975 3322 
Q 2975 3731 2742 3939 
Q 2509 4147 2053 4147 
L 1259 4147 
z
" transform="scale(0.015625)"/>
       <path id="DejaVuSans-20" transform="scale(0.015625)"/>
       <path id="DejaVuSans-5b" d="M 550 4863 
L 1875 4863 
L 1875 4416 
L 1125 4416 
L 1125 -397 
L 1875 -397 
L 1875 -844 
L 550 -844 
L 550 4863 
z
" transform="scale(0.015625)"/>
       <path id="DejaVuSans-b5" d="M 544 -1331 
L 544 3500 
L 1119 3500 
L 1119 1325 
Q 1119 872 1334 640 
Q 1550 409 1972 409 
Q 2434 409 2667 671 
Q 2900 934 2900 1459 
L 2900 3500 
L 3475 3500 
L 3475 806 
Q 3475 619 3529 530 
Q 3584 441 3700 441 
Q 3728 441 3778 458 
Q 3828 475 3916 513 
L 3916 50 
Q 3788 -22 3673 -56 
Q 3559 -91 3450 -91 
Q 3234 -91 3106 31 
Q 2978 153 2931 403 
Q 2775 156 2548 32 
Q 2322 -91 2016 -91 
Q 1697 -91 1473 31 
Q 1250 153 1119 397 
L 1119 -1331 
L 544 -1331 
z
" transform="scale(0.015625)"/>
       <path id="DejaVuSans-6d" d="M 3328 2828 
Q 3544 3216 3844 3400 
Q 4144 3584 4550 3584 
Q 5097 3584 5394 3201 
Q 5691 2819 5691 2113 
L 5691 0 
L 5113 0 
L 5113 2094 
Q 5113 2597 4934 2840 
Q 4756 3084 4391 3084 
Q 3944 3084 3684 2787 
Q 3425 2491 3425 1978 
L 3425 0 
L 2847 0 
L 2847 2094 
Q 2847 2600 2669 2842 
Q 2491 3084 2119 3084 
Q 1678 3084 1418 2786 
Q 1159 2488 1159 1978 
L 1159 0 
L 581 0 
L 581 3500 
L 1159 3500 
L 1159 2956 
Q 1356 3278 1631 3431 
Q 1906 3584 2284 3584 
Q 2666 3584 2933 3390 
Q 3200 3197 3328 2828 
z
" transform="scale(0.015625)"/>
       <path id="DejaVuSans-6f" d="M 1959 3097 
Q 1497 3097 1228 2736 
Q 959 2375 959 1747 
Q 959 1119 1226 758 
Q 1494 397 1959 397 
Q 2419 397 2687 759 
Q 2956 1122 2956 1747 
Q 2956 2369 2687 2733 
Q 2419 3097 1959 3097 
z
M 1959 3584 
Q 2709 3584 3137 3096 
Q 3566 2609 3566 1747 
Q 3566 888 3137 398 
Q 2709 -91 1959 -91 
Q 1206 -91 779 398 
Q 353 888 353 1747 
Q 353 2609 779 3096 
Q 1206 3584 1959 3584 
z
" transform="scale(0.015625)"/>
       <path id="DejaVuSans-6c" d="M 603 4863 
L 1178 4863 
L 1178 0 
L 603 0 
L 603 4863 
z
" transform="scale(0.015625)"/>
       <path id="DejaVuSans-207b" d="M 428 3359 
L 2950 3359 
L 2950 3063 
L 428 3063 
L 428 3359 
z
" transform="scale(0.015625)"/>
       <path id="DejaVuSans-b2" d="M 838 2444 
L 2163 2444 
L 2163 2088 
L 294 2088 
L 294 2431 
Q 400 2528 597 2703 
Q 1672 3656 1672 3950 
Q 1672 4156 1509 4282 
Q 1347 4409 1081 4409 
Q 919 4409 728 4354 
Q 538 4300 313 4191 
L 313 4575 
Q 553 4663 761 4706 
Q 969 4750 1147 4750 
Q 1600 4750 1872 4544 
Q 2144 4338 2144 4000 
Q 2144 3566 1109 2678 
Q 934 2528 838 2444 
z
" transform="scale(0.015625)"/>
       <path id="DejaVuSans-73" d="M 2834 3397 
L 2834 2853 
Q 2591 2978 2328 3040 
Q 2066 3103 1784 3103 
Q 1356 3103 1142 2972 
Q 928 2841 928 2578 
Q 928 2378 1081 2264 
Q 1234 2150 1697 2047 
L 1894 2003 
Q 2506 1872 2764 1633 
Q 3022 1394 3022 966 
Q 3022 478 2636 193 
Q 2250 -91 1575 -91 
Q 1294 -91 989 -36 
Q 684 19 347 128 
L 347 722 
Q 666 556 975 473 
Q 1284 391 1588 391 
Q 1994 391 2212 530 
Q 2431 669 2431 922 
Q 2431 1156 2273 1281 
Q 2116 1406 1581 1522 
L 1381 1569 
Q 847 1681 609 1914 
Q 372 2147 372 2553 
Q 372 3047 722 3315 
Q 1072 3584 1716 3584 
Q 2034 3584 2315 3537 
Q 2597 3491 2834 3397 
z
" transform="scale(0.015625)"/>
       <path id="DejaVuSans-b9" d="M 488 2431 
L 1125 2431 
L 1125 4341 
L 428 4213 
L 428 4575 
L 1147 4697 
L 1575 4697 
L 1575 2431 
L 2216 2431 
L 2216 2088 
L 488 2088 
L 488 2431 
z
" transform="scale(0.015625)"/>
       <path id="DejaVuSans-5d" d="M 1947 4863 
L 1947 -844 
L 622 -844 
L 622 -397 
L 1369 -397 
L 1369 4416 
L 622 4416 
L 622 4863 
L 1947 4863 
z
" transform="scale(0.015625)"/>
      </defs>
      <use xlink:href="#DejaVuSans-45"/>
      <use xlink:href="#DejaVuSans-54" transform="translate(63.183594 0)"/>
      <use xlink:href="#DejaVuSans-52" transform="translate(124.267578 0)"/>
      <use xlink:href="#DejaVuSans-20" transform="translate(193.75 0)"/>
      <use xlink:href="#DejaVuSans-5b" transform="translate(225.537109 0)"/>
      <use xlink:href="#DejaVuSans-b5" transform="translate(264.550781 0)"/>
      <use xlink:href="#DejaVuSans-6d" transform="translate(328.173828 0)"/>
      <use xlink:href="#DejaVuSans-6f" transform="translate(425.585938 0)"/>
      <use xlink:href="#DejaVuSans-6c" transform="translate(486.767578 0)"/>
      <use xlink:href="#DejaVuSans-20" transform="translate(514.550781 0)"/>
      <use xlink:href="#DejaVuSans-6d" transform="translate(546.337891 0)"/>
      <use xlink:href="#DejaVuSans-207b" transform="translate(643.75 0)"/>
      <use xlink:href="#DejaVuSans-b2" transform="translate(696.533203 0)"/>
      <use xlink:href="#DejaVuSans-20" transform="translate(736.621094 0)"/>
      <use xlink:href="#DejaVuSans-73" transform="translate(768.408203 0)"/>
      <use xlink:href="#DejaVuSans-207b" transform="translate(820.507812 0)"/>
      <use xlink:href="#DejaVuSans-b9" transform="translate(873.291016 0)"/>
      <use xlink:href="#DejaVuSans-5d" transform="translate(913.378906 0)"/>
     </g>
    </g>
   </g>
   <g id="line2d_21">
    <path d="M 42.142428 146.261609 
L 47.426656 142.272992 
L 52.710884 139.16054 
L 57.995112 136.038198 
L 63.27934 132.941703 
L 68.563568 129.875869 
L 73.847796 126.843293 
L 79.132024 123.846061 
L 84.416252 120.886069 
L 89.70048 117.965111 
L 94.984709 115.084943 
L 100.268937 112.247324 
L 105.553165 109.454046 
L 110.837393 106.706962 
L 116.121621 104.008003 
L 121.405849 101.359189 
L 126.690077 98.762632 
L 131.974305 96.22053 
L 137.258533 93.735163 
L 142.542762 91.308872 
L 147.82699 88.944043 
L 153.111218 86.643072 
L 158.395446 84.408337 
L 163.679674 82.242152 
L 168.963902 80.146725 
L 174.24813 78.157408 
L 179.532358 76.376258 
L 184.816586 74.780868 
L 190.100814 73.342918 
L 195.385043 72.038952 
L 200.669271 70.849692 
L 205.953499 69.759326 
L 211.237727 68.754871 
L 216.521955 67.825608 
L 221.806183 66.962635 
L 227.090411 66.158493 
L 232.374639 65.406882 
L 237.658867 64.70243 
L 242.943096 64.040522 
L 248.227324 63.41716 
L 253.511552 62.828856 
L 258.79578 62.272552 
L 264.080008 61.745547 
L 269.364236 61.245449 
L 274.648464 60.770121 
L 279.932692 60.317664 
L 285.21692 59.886362 
L 290.501148 59.474675 
L 295.785377 59.081215 
L 301.069605 58.704722 
L 306.353833 58.344051 
L 311.638061 57.998164 
L 316.922289 57.66611 
L 322.206517 57.347023 
L 327.490745 57.040106 
L 332.774973 56.74463 
L 338.059201 56.459924 
L 343.34343 56.185369 
L 348.627658 55.920393 
L 353.911886 55.66447 
L 359.196114 55.41711 
L 364.480342 55.17786 
L 369.76457 54.946298 
L 375.048798 54.722033 
L 380.333026 54.5047 
L 385.617254 54.293958 
L 390.901482 54.089489 
L 396.185711 53.890997 
L 401.469939 53.698203 
L 406.754167 53.510847 
L 412.038395 53.328683 
L 417.322623 53.151483 
L 422.606851 52.979029 
L 427.891079 52.81112 
L 433.175307 52.647562 
L 438.459535 52.488177 
L 443.743764 52.332793 
L 449.027992 52.18125 
L 454.31222 52.033395 
L 459.596448 51.889085 
L 464.880676 51.748182 
L 470.164904 51.610559 
L 475.449132 51.476091 
L 480.73336 51.344664 
L 486.017588 51.216166 
L 491.301817 51.090493 
L 496.586045 50.967545 
L 501.870273 50.847226 
L 507.154501 50.729446 
L 512.438729 50.614119 
L 517.722957 50.501162 
L 523.007185 50.390498 
L 528.291413 50.28205 
L 533.575641 50.175748 
L 538.859869 50.071523 
L 544.144098 49.969309 
L 549.428326 49.869045 
L 554.712554 49.770669 
L 559.996782 49.674124 
L 565.28101 49.579356 
" clip-path="url(#p2cf633da97)" style="fill: none; stroke: #228b22; stroke-width: 1.5; stroke-linecap: square"/>
   </g>
   <g id="line2d_22">
    <path d="M 42.142428 146.261609 
L 47.426656 142.390539 
L 52.710884 140.065114 
L 57.995112 137.753092 
L 63.27934 135.460149 
L 68.563568 133.187123 
L 73.847796 130.934872 
L 79.132024 128.704318 
L 84.416252 126.496461 
L 89.70048 124.312378 
L 94.984709 122.153235 
L 100.268937 120.020287 
L 105.553165 117.914885 
L 110.837393 115.83848 
L 116.121621 113.792621 
L 121.405849 111.778964 
L 126.690077 109.799262 
L 131.974305 107.855366 
L 137.258533 105.949218 
L 142.542762 104.082839 
L 147.82699 102.25831 
L 153.111218 100.477759 
L 158.395446 98.743327 
L 163.679674 97.057141 
L 168.963902 95.421274 
L 174.24813 93.837702 
L 179.532358 92.308263 
L 184.816586 90.834599 
L 190.100814 89.418117 
L 195.385043 88.059937 
L 200.669271 86.760855 
L 205.953499 85.52131 
L 211.237727 84.341363 
L 216.521955 83.220687 
L 221.806183 82.158574 
L 227.090411 81.15395 
L 232.374639 80.205406 
L 237.658867 79.311234 
L 242.943096 78.469477 
L 248.227324 77.691816 
L 253.511552 76.99736 
L 258.79578 76.374262 
L 264.080008 75.811836 
L 269.364236 75.301421 
L 274.648464 74.835929 
L 279.932692 74.409505 
L 285.21692 74.017273 
L 290.501148 73.655137 
L 295.785377 73.319636 
L 301.069605 73.007821 
L 306.353833 72.717166 
L 311.638061 72.445496 
L 316.922289 72.190928 
L 322.206517 71.951819 
L 327.490745 71.726736 
L 332.774973 71.514418 
L 338.059201 71.313753 
L 343.34343 71.123757 
L 348.627658 70.943554 
L 353.911886 70.772366 
L 359.196114 70.609492 
L 364.480342 70.454307 
L 369.76457 70.306246 
L 375.048798 70.1648 
L 380.333026 70.029508 
L 385.617254 69.899953 
L 390.901482 69.775753 
L 396.185711 69.65656 
L 401.469939 69.542061 
L 406.754167 69.431962 
L 412.038395 69.325999 
L 417.322623 69.223927 
L 422.606851 69.12552 
L 427.891079 69.030571 
L 433.175307 68.938888 
L 438.459535 68.850292 
L 443.743764 68.76462 
L 449.027992 68.681719 
L 454.31222 68.601445 
L 459.596448 68.523667 
L 464.880676 68.448262 
L 470.164904 68.375114 
L 475.449132 68.304116 
L 480.73336 68.235166 
L 486.017588 68.168172 
L 491.301817 68.103043 
L 496.586045 68.039697 
L 501.870273 67.978056 
L 507.154501 67.918047 
L 512.438729 67.8596 
L 517.722957 67.80265 
L 523.007185 67.747135 
L 528.291413 67.692998 
L 533.575641 67.640184 
L 538.859869 67.58864 
L 544.144098 67.538318 
L 549.428326 67.489171 
L 554.712554 67.441154 
L 559.996782 67.394227 
L 565.28101 67.348347 
" clip-path="url(#p2cf633da97)" style="fill: none; stroke: #90ee90; stroke-width: 1.5; stroke-linecap: square"/>
   </g>
   <g id="line2d_23">
    <path d="M 42.142428 28.286822 
L 50.861404 28.286822 
" style="fill: none; stroke: #000000; stroke-width: 2; stroke-linecap: square"/>
   </g>
   <g id="line2d_24">
    <path d="M 50.861404 28.053208 
L 565.28101 28.053208 
" style="fill: none; stroke: #ffff00; stroke-width: 2; stroke-linecap: square"/>
   </g>
   <g id="patch_3">
    <path d="M 42.142428 146.261609 
L 42.142428 29.454889 
" style="fill: none; stroke: #000000; stroke-width: 0.8; stroke-linejoin: miter; stroke-linecap: square"/>
   </g>
   <g id="patch_4">
    <path d="M 565.28101 146.261609 
L 565.28101 29.454889 
" style="fill: none; stroke: #000000; stroke-width: 0.8; stroke-linejoin: miter; stroke-linecap: square"/>
   </g>
   <g id="patch_5">
    <path d="M 42.142428 146.261609 
L 565.28101 146.261609 
" style="fill: none; stroke: #000000; stroke-width: 0.8; stroke-linejoin: miter; stroke-linecap: square"/>
   </g>
   <g id="patch_6">
    <path d="M 42.142428 29.454889 
L 565.28101 29.454889 
" style="fill: none; stroke: #000000; stroke-width: 0.8; stroke-linejoin: miter; stroke-linecap: square"/>
   </g>
   <g id="legend_1">
    <g id="patch_7">
     <path d="M 284.986175 22.446486 
L 450.156332 22.446486 
Q 452.356332 22.446486 452.356332 20.246486 
L 452.356332 5.200548 
Q 452.356332 3.000548 450.156332 3.000548 
L 284.986175 3.000548 
Q 282.786175 3.000548 282.786175 5.200548 
L 282.786175 20.246486 
Q 282.786175 22.446486 284.986175 22.446486 
z
" style="fill: #ffffff; opacity: 0.8; stroke: #cccccc; stroke-linejoin: miter"/>
    </g>
    <g id="line2d_25">
     <path d="M 287.186175 11.908829 
L 298.186175 11.908829 
L 309.186175 11.908829 
" style="fill: none; stroke: #000000; stroke-width: 2; stroke-linecap: square"/>
    </g>
    <g id="text_5">
     <!-- dark -->
     <g transform="translate(317.986175 15.758829) scale(0.11 -0.11)">
      <defs>
       <path id="DejaVuSans-64" d="M 2906 2969 
L 2906 4863 
L 3481 4863 
L 3481 0 
L 2906 0 
L 2906 525 
Q 2725 213 2448 61 
Q 2172 -91 1784 -91 
Q 1150 -91 751 415 
Q 353 922 353 1747 
Q 353 2572 751 3078 
Q 1150 3584 1784 3584 
Q 2172 3584 2448 3432 
Q 2725 3281 2906 2969 
z
M 947 1747 
Q 947 1113 1208 752 
Q 1469 391 1925 391 
Q 2381 391 2643 752 
Q 2906 1113 2906 1747 
Q 2906 2381 2643 2742 
Q 2381 3103 1925 3103 
Q 1469 3103 1208 2742 
Q 947 2381 947 1747 
z
" transform="scale(0.015625)"/>
       <path id="DejaVuSans-61" d="M 2194 1759 
Q 1497 1759 1228 1600 
Q 959 1441 959 1056 
Q 959 750 1161 570 
Q 1363 391 1709 391 
Q 2188 391 2477 730 
Q 2766 1069 2766 1631 
L 2766 1759 
L 2194 1759 
z
M 3341 1997 
L 3341 0 
L 2766 0 
L 2766 531 
Q 2569 213 2275 61 
Q 1981 -91 1556 -91 
Q 1019 -91 701 211 
Q 384 513 384 1019 
Q 384 1609 779 1909 
Q 1175 2209 1959 2209 
L 2766 2209 
L 2766 2266 
Q 2766 2663 2505 2880 
Q 2244 3097 1772 3097 
Q 1472 3097 1187 3025 
Q 903 2953 641 2809 
L 641 3341 
Q 956 3463 1253 3523 
Q 1550 3584 1831 3584 
Q 2591 3584 2966 3190 
Q 3341 2797 3341 1997 
z
" transform="scale(0.015625)"/>
       <path id="DejaVuSans-72" d="M 2631 2963 
Q 2534 3019 2420 3045 
Q 2306 3072 2169 3072 
Q 1681 3072 1420 2755 
Q 1159 2438 1159 1844 
L 1159 0 
L 581 0 
L 581 3500 
L 1159 3500 
L 1159 2956 
Q 1341 3275 1631 3429 
Q 1922 3584 2338 3584 
Q 2397 3584 2469 3576 
Q 2541 3569 2628 3553 
L 2631 2963 
z
" transform="scale(0.015625)"/>
       <path id="DejaVuSans-6b" d="M 581 4863 
L 1159 4863 
L 1159 1991 
L 2875 3500 
L 3609 3500 
L 1753 1863 
L 3688 0 
L 2938 0 
L 1159 1709 
L 1159 0 
L 581 0 
L 581 4863 
z
" transform="scale(0.015625)"/>
      </defs>
      <use xlink:href="#DejaVuSans-64"/>
      <use xlink:href="#DejaVuSans-61" transform="translate(63.476562 0)"/>
      <use xlink:href="#DejaVuSans-72" transform="translate(124.755859 0)"/>
      <use xlink:href="#DejaVuSans-6b" transform="translate(165.869141 0)"/>
     </g>
    </g>
    <g id="line2d_26">
     <path d="M 364.602113 11.908829 
L 375.602113 11.908829 
L 386.602113 11.908829 
" style="fill: none; stroke: #ffff00; stroke-width: 2; stroke-linecap: square"/>
    </g>
    <g id="text_6">
     <!-- 650 PPFD -->
     <g transform="translate(395.402113 15.758829) scale(0.11 -0.11)">
      <defs>
       <path id="DejaVuSans-36" d="M 2113 2584 
Q 1688 2584 1439 2293 
Q 1191 2003 1191 1497 
Q 1191 994 1439 701 
Q 1688 409 2113 409 
Q 2538 409 2786 701 
Q 3034 994 3034 1497 
Q 3034 2003 2786 2293 
Q 2538 2584 2113 2584 
z
M 3366 4563 
L 3366 3988 
Q 3128 4100 2886 4159 
Q 2644 4219 2406 4219 
Q 1781 4219 1451 3797 
Q 1122 3375 1075 2522 
Q 1259 2794 1537 2939 
Q 1816 3084 2150 3084 
Q 2853 3084 3261 2657 
Q 3669 2231 3669 1497 
Q 3669 778 3244 343 
Q 2819 -91 2113 -91 
Q 1303 -91 875 529 
Q 447 1150 447 2328 
Q 447 3434 972 4092 
Q 1497 4750 2381 4750 
Q 2619 4750 2861 4703 
Q 3103 4656 3366 4563 
z
" transform="scale(0.015625)"/>
       <path id="DejaVuSans-50" d="M 1259 4147 
L 1259 2394 
L 2053 2394 
Q 2494 2394 2734 2622 
Q 2975 2850 2975 3272 
Q 2975 3691 2734 3919 
Q 2494 4147 2053 4147 
L 1259 4147 
z
M 628 4666 
L 2053 4666 
Q 2838 4666 3239 4311 
Q 3641 3956 3641 3272 
Q 3641 2581 3239 2228 
Q 2838 1875 2053 1875 
L 1259 1875 
L 1259 0 
L 628 0 
L 628 4666 
z
" transform="scale(0.015625)"/>
       <path id="DejaVuSans-46" d="M 628 4666 
L 3309 4666 
L 3309 4134 
L 1259 4134 
L 1259 2759 
L 3109 2759 
L 3109 2228 
L 1259 2228 
L 1259 0 
L 628 0 
L 628 4666 
z
" transform="scale(0.015625)"/>
       <path id="DejaVuSans-44" d="M 1259 4147 
L 1259 519 
L 2022 519 
Q 2988 519 3436 956 
Q 3884 1394 3884 2338 
Q 3884 3275 3436 3711 
Q 2988 4147 2022 4147 
L 1259 4147 
z
M 628 4666 
L 1925 4666 
Q 3281 4666 3915 4102 
Q 4550 3538 4550 2338 
Q 4550 1131 3912 565 
Q 3275 0 1925 0 
L 628 0 
L 628 4666 
z
" transform="scale(0.015625)"/>
      </defs>
      <use xlink:href="#DejaVuSans-36"/>
      <use xlink:href="#DejaVuSans-35" transform="translate(63.623047 0)"/>
      <use xlink:href="#DejaVuSans-30" transform="translate(127.246094 0)"/>
      <use xlink:href="#DejaVuSans-20" transform="translate(190.869141 0)"/>
      <use xlink:href="#DejaVuSans-50" transform="translate(222.65625 0)"/>
      <use xlink:href="#DejaVuSans-50" transform="translate(282.958984 0)"/>
      <use xlink:href="#DejaVuSans-46" transform="translate(343.261719 0)"/>
      <use xlink:href="#DejaVuSans-44" transform="translate(400.78125 0)"/>
     </g>
    </g>
   </g>
  </g>
  <g id="axes_2">
   <g id="patch_8">
    <path d="M 42.142428 279.714747 
L 565.28101 279.714747 
L 565.28101 162.908027 
L 42.142428 162.908027 
z
" style="fill: #ffffff"/>
   </g>
   <g id="matplotlib.axis_3">
    <g id="xtick_8">
     <g id="line2d_27">
      <g>
       <use xlink:href="#m849a201521" x="42.142428" y="279.714747" style="stroke: #000000; stroke-width: 0.8"/>
      </g>
     </g>
     <g id="line2d_28">
      <g>
       <use xlink:href="#m4caa276582" x="42.142428" y="162.908027" style="stroke: #000000; stroke-width: 0.8"/>
      </g>
     </g>
    </g>
    <g id="xtick_9">
     <g id="line2d_29">
      <g>
       <use xlink:href="#m849a201521" x="129.332191" y="279.714747" style="stroke: #000000; stroke-width: 0.8"/>
      </g>
     </g>
     <g id="line2d_30">
      <g>
       <use xlink:href="#m4caa276582" x="129.332191" y="162.908027" style="stroke: #000000; stroke-width: 0.8"/>
      </g>
     </g>
    </g>
    <g id="xtick_10">
     <g id="line2d_31">
      <g>
       <use xlink:href="#m849a201521" x="216.521955" y="279.714747" style="stroke: #000000; stroke-width: 0.8"/>
      </g>
     </g>
     <g id="line2d_32">
      <g>
       <use xlink:href="#m4caa276582" x="216.521955" y="162.908027" style="stroke: #000000; stroke-width: 0.8"/>
      </g>
     </g>
    </g>
    <g id="xtick_11">
     <g id="line2d_33">
      <g>
       <use xlink:href="#m849a201521" x="303.711719" y="279.714747" style="stroke: #000000; stroke-width: 0.8"/>
      </g>
     </g>
     <g id="line2d_34">
      <g>
       <use xlink:href="#m4caa276582" x="303.711719" y="162.908027" style="stroke: #000000; stroke-width: 0.8"/>
      </g>
     </g>
    </g>
    <g id="xtick_12">
     <g id="line2d_35">
      <g>
       <use xlink:href="#m849a201521" x="390.901482" y="279.714747" style="stroke: #000000; stroke-width: 0.8"/>
      </g>
     </g>
     <g id="line2d_36">
      <g>
       <use xlink:href="#m4caa276582" x="390.901482" y="162.908027" style="stroke: #000000; stroke-width: 0.8"/>
      </g>
     </g>
    </g>
    <g id="xtick_13">
     <g id="line2d_37">
      <g>
       <use xlink:href="#m849a201521" x="478.091246" y="279.714747" style="stroke: #000000; stroke-width: 0.8"/>
      </g>
     </g>
     <g id="line2d_38">
      <g>
       <use xlink:href="#m4caa276582" x="478.091246" y="162.908027" style="stroke: #000000; stroke-width: 0.8"/>
      </g>
     </g>
    </g>
    <g id="xtick_14">
     <g id="line2d_39">
      <g>
       <use xlink:href="#m849a201521" x="565.28101" y="279.714747" style="stroke: #000000; stroke-width: 0.8"/>
      </g>
     </g>
     <g id="line2d_40">
      <g>
       <use xlink:href="#m4caa276582" x="565.28101" y="162.908027" style="stroke: #000000; stroke-width: 0.8"/>
      </g>
     </g>
    </g>
   </g>
   <g id="matplotlib.axis_4">
    <g id="ytick_4">
     <g id="line2d_41">
      <g>
       <use xlink:href="#m24bc3ee3e7" x="42.142428" y="279.714747" style="stroke: #000000; stroke-width: 0.8"/>
      </g>
     </g>
     <g id="line2d_42">
      <g>
       <use xlink:href="#m15c93c478e" x="565.28101" y="279.714747" style="stroke: #000000; stroke-width: 0.8"/>
      </g>
     </g>
     <g id="text_7">
      <!-- 0 -->
      <g transform="translate(31.643678 283.893888) scale(0.11 -0.11)">
       <use xlink:href="#DejaVuSans-30"/>
      </g>
     </g>
    </g>
    <g id="ytick_5">
     <g id="line2d_43">
      <g>
       <use xlink:href="#m24bc3ee3e7" x="42.142428" y="250.513067" style="stroke: #000000; stroke-width: 0.8"/>
      </g>
     </g>
     <g id="line2d_44">
      <g>
       <use xlink:href="#m15c93c478e" x="565.28101" y="250.513067" style="stroke: #000000; stroke-width: 0.8"/>
      </g>
     </g>
     <g id="text_8">
      <!-- 5 -->
      <g transform="translate(31.643678 254.692208) scale(0.11 -0.11)">
       <use xlink:href="#DejaVuSans-35"/>
      </g>
     </g>
    </g>
    <g id="ytick_6">
     <g id="line2d_45">
      <g>
       <use xlink:href="#m24bc3ee3e7" x="42.142428" y="221.311387" style="stroke: #000000; stroke-width: 0.8"/>
      </g>
     </g>
     <g id="line2d_46">
      <g>
       <use xlink:href="#m15c93c478e" x="565.28101" y="221.311387" style="stroke: #000000; stroke-width: 0.8"/>
      </g>
     </g>
     <g id="text_9">
      <!-- 10 -->
      <g transform="translate(24.644928 225.490528) scale(0.11 -0.11)">
       <use xlink:href="#DejaVuSans-31"/>
       <use xlink:href="#DejaVuSans-30" transform="translate(63.623047 0)"/>
      </g>
     </g>
    </g>
    <g id="ytick_7">
     <g id="line2d_47">
      <g>
       <use xlink:href="#m24bc3ee3e7" x="42.142428" y="192.109707" style="stroke: #000000; stroke-width: 0.8"/>
      </g>
     </g>
     <g id="line2d_48">
      <g>
       <use xlink:href="#m15c93c478e" x="565.28101" y="192.109707" style="stroke: #000000; stroke-width: 0.8"/>
      </g>
     </g>
     <g id="text_10">
      <!-- 15 -->
      <g transform="translate(24.644928 196.288847) scale(0.11 -0.11)">
       <use xlink:href="#DejaVuSans-31"/>
       <use xlink:href="#DejaVuSans-35" transform="translate(63.623047 0)"/>
      </g>
     </g>
    </g>
    <g id="ytick_8">
     <g id="line2d_49">
      <g>
       <use xlink:href="#m24bc3ee3e7" x="42.142428" y="162.908027" style="stroke: #000000; stroke-width: 0.8"/>
      </g>
     </g>
     <g id="line2d_50">
      <g>
       <use xlink:href="#m15c93c478e" x="565.28101" y="162.908027" style="stroke: #000000; stroke-width: 0.8"/>
      </g>
     </g>
     <g id="text_11">
      <!-- 20 -->
      <g transform="translate(24.644928 167.087167) scale(0.11 -0.11)">
       <defs>
        <path id="DejaVuSans-32" d="M 1228 531 
L 3431 531 
L 3431 0 
L 469 0 
L 469 531 
Q 828 903 1448 1529 
Q 2069 2156 2228 2338 
Q 2531 2678 2651 2914 
Q 2772 3150 2772 3378 
Q 2772 3750 2511 3984 
Q 2250 4219 1831 4219 
Q 1534 4219 1204 4116 
Q 875 4013 500 3803 
L 500 4441 
Q 881 4594 1212 4672 
Q 1544 4750 1819 4750 
Q 2544 4750 2975 4387 
Q 3406 4025 3406 3419 
Q 3406 3131 3298 2873 
Q 3191 2616 2906 2266 
Q 2828 2175 2409 1742 
Q 1991 1309 1228 531 
z
" transform="scale(0.015625)"/>
       </defs>
       <use xlink:href="#DejaVuSans-32"/>
       <use xlink:href="#DejaVuSans-30" transform="translate(63.623047 0)"/>
      </g>
     </g>
    </g>
    <g id="text_12">
     <!-- A [µmol m⁻² s⁻¹] -->
     <g transform="translate(18.357271 266.798106) rotate(-90) scale(0.11 -0.11)">
      <defs>
       <path id="DejaVuSans-41" d="M 2188 4044 
L 1331 1722 
L 3047 1722 
L 2188 4044 
z
M 1831 4666 
L 2547 4666 
L 4325 0 
L 3669 0 
L 3244 1197 
L 1141 1197 
L 716 0 
L 50 0 
L 1831 4666 
z
" transform="scale(0.015625)"/>
      </defs>
      <use xlink:href="#DejaVuSans-41"/>
      <use xlink:href="#DejaVuSans-20" transform="translate(68.408203 0)"/>
      <use xlink:href="#DejaVuSans-5b" transform="translate(100.195312 0)"/>
      <use xlink:href="#DejaVuSans-b5" transform="translate(139.208984 0)"/>
      <use xlink:href="#DejaVuSans-6d" transform="translate(202.832031 0)"/>
      <use xlink:href="#DejaVuSans-6f" transform="translate(300.244141 0)"/>
      <use xlink:href="#DejaVuSans-6c" transform="translate(361.425781 0)"/>
      <use xlink:href="#DejaVuSans-20" transform="translate(389.208984 0)"/>
      <use xlink:href="#DejaVuSans-6d" transform="translate(420.996094 0)"/>
      <use xlink:href="#DejaVuSans-207b" transform="translate(518.408203 0)"/>
      <use xlink:href="#DejaVuSans-b2" transform="translate(571.191406 0)"/>
      <use xlink:href="#DejaVuSans-20" transform="translate(611.279297 0)"/>
      <use xlink:href="#DejaVuSans-73" transform="translate(643.066406 0)"/>
      <use xlink:href="#DejaVuSans-207b" transform="translate(695.166016 0)"/>
      <use xlink:href="#DejaVuSans-b9" transform="translate(747.949219 0)"/>
      <use xlink:href="#DejaVuSans-5d" transform="translate(788.037109 0)"/>
     </g>
    </g>
   </g>
   <g id="line2d_51">
    <path d="M 42.142428 278.993627 
L 47.426656 275.887328 
L 52.710884 272.834834 
L 57.995112 269.809902 
L 63.27934 266.81377 
L 68.563568 263.848357 
L 73.847796 260.915569 
L 79.132024 258.017219 
L 84.416252 255.155036 
L 89.70048 252.330685 
L 94.984709 249.545804 
L 100.268937 246.802039 
L 105.553165 244.101075 
L 110.837393 241.444663 
L 116.121621 238.834635 
L 121.405849 236.272916 
L 126.690077 233.761527 
L 131.974305 231.302579 
L 137.258533 228.898269 
L 142.542762 226.550861 
L 147.82699 224.262666 
L 153.111218 222.036013 
L 158.395446 219.873221 
L 163.679674 217.776554 
L 168.963902 215.748178 
L 174.24813 213.825937 
L 179.532358 212.107934 
L 184.816586 210.570308 
L 190.100814 209.18533 
L 195.385043 207.930064 
L 200.669271 206.78569 
L 205.953499 205.736804 
L 211.237727 204.770777 
L 216.521955 203.87721 
L 221.806183 203.047479 
L 227.090411 202.274375 
L 232.374639 201.551812 
L 237.658867 200.874612 
L 242.943096 200.238328 
L 248.227324 199.639111 
L 253.511552 199.073604 
L 258.79578 198.538865 
L 264.080008 198.032297 
L 269.364236 197.551597 
L 274.648464 197.094716 
L 279.932692 196.659818 
L 285.21692 196.245259 
L 290.501148 195.849559 
L 295.785377 195.471379 
L 301.069605 195.10951 
L 306.353833 194.762851 
L 311.638061 194.430402 
L 316.922289 194.111251 
L 322.206517 193.804562 
L 327.490745 193.509572 
L 332.774973 193.225578 
L 338.059201 192.951936 
L 343.34343 192.688049 
L 348.627658 192.43337 
L 353.911886 192.18739 
L 359.196114 191.94964 
L 364.480342 191.719684 
L 369.76457 191.497116 
L 375.048798 191.281561 
L 380.333026 191.072667 
L 385.617254 190.870107 
L 390.901482 190.673575 
L 396.185711 190.482786 
L 401.469939 190.297473 
L 406.754167 190.117385 
L 412.038395 189.942287 
L 417.322623 189.771958 
L 422.606851 189.60619 
L 427.891079 189.444788 
L 433.175307 189.287569 
L 438.459535 189.134358 
L 443.743764 188.984992 
L 449.027992 188.839316 
L 454.31222 188.697184 
L 459.596448 188.558458 
L 464.880676 188.423007 
L 470.164904 188.290706 
L 475.449132 188.161438 
L 480.73336 188.035091 
L 486.017588 187.911558 
L 491.301817 187.79074 
L 496.586045 187.672539 
L 501.870273 187.556866 
L 507.154501 187.443632 
L 512.438729 187.332754 
L 517.722957 187.224155 
L 523.007185 187.117758 
L 528.291413 187.013491 
L 533.575641 186.911285 
L 538.859869 186.811075 
L 544.144098 186.712798 
L 549.428326 186.616394 
L 554.712554 186.521804 
L 559.996782 186.428975 
L 565.28101 186.337852 
" clip-path="url(#p9702cad493)" style="fill: none; stroke: #228b22; stroke-width: 1.5; stroke-linecap: square"/>
   </g>
   <g id="line2d_52">
    <path d="M 42.142428 278.914457 
L 47.426656 275.776313 
L 52.710884 273.429064 
L 57.995112 271.100379 
L 63.27934 268.790805 
L 68.563568 266.501119 
L 73.847796 264.232166 
L 79.132024 261.984862 
L 84.416252 259.760198 
L 89.70048 257.559246 
L 94.984709 255.383165 
L 100.268937 253.233208 
L 105.553165 251.110721 
L 110.837393 249.017153 
L 116.121621 246.954056 
L 121.405849 244.923087 
L 126.690077 242.926007 
L 131.974305 240.964676 
L 137.258533 239.041052 
L 142.542762 237.157175 
L 147.82699 235.315155 
L 153.111218 233.517152 
L 158.395446 231.765351 
L 163.679674 230.061929 
L 168.963902 228.409017 
L 174.24813 226.808662 
L 179.532358 225.262773 
L 184.816586 223.773077 
L 190.100814 222.341065 
L 195.385043 220.967947 
L 200.669271 219.654604 
L 205.953499 218.401559 
L 211.237727 217.208947 
L 216.521955 216.076505 
L 221.806183 215.003577 
L 227.090411 213.989123 
L 232.374639 213.031753 
L 237.658867 212.129762 
L 242.943096 211.28118 
L 248.227324 210.506051 
L 253.511552 209.818342 
L 258.79578 209.201586 
L 264.080008 208.645064 
L 269.364236 208.140144 
L 274.648464 207.679766 
L 279.932692 207.258107 
L 285.21692 206.870317 
L 290.501148 206.512327 
L 295.785377 206.180699 
L 301.069605 205.872506 
L 306.353833 205.585244 
L 311.638061 205.316756 
L 316.922289 205.065173 
L 322.206517 204.828872 
L 327.490745 204.606431 
L 332.774973 204.396602 
L 338.059201 204.198286 
L 343.34343 204.010508 
L 348.627658 203.832403 
L 353.911886 203.663199 
L 359.196114 203.502206 
L 364.480342 203.348805 
L 369.76457 203.202439 
L 375.048798 203.062603 
L 380.333026 202.928843 
L 385.617254 202.800745 
L 390.901482 202.677934 
L 396.185711 202.560068 
L 401.469939 202.446833 
L 406.754167 202.337943 
L 412.038395 202.233135 
L 417.322623 202.132168 
L 422.606851 202.03482 
L 427.891079 201.940885 
L 433.175307 201.850174 
L 438.459535 201.762512 
L 443.743764 201.677735 
L 449.027992 201.595693 
L 454.31222 201.516246 
L 459.596448 201.439263 
L 464.880676 201.364623 
L 470.164904 201.292211 
L 475.449132 201.221922 
L 480.73336 201.153656 
L 486.017588 201.08732 
L 491.301817 201.022827 
L 496.586045 200.960095 
L 501.870273 200.899047 
L 507.154501 200.839609 
L 512.438729 200.781715 
L 517.722957 200.7253 
L 523.007185 200.670303 
L 528.291413 200.616666 
L 533.575641 200.564336 
L 538.859869 200.513261 
L 544.144098 200.463393 
L 549.428326 200.414686 
L 554.712554 200.367096 
L 559.996782 200.320581 
L 565.28101 200.275104 
" clip-path="url(#p9702cad493)" style="fill: none; stroke: #90ee90; stroke-width: 1.5; stroke-linecap: square"/>
   </g>
   <g id="patch_9">
    <path d="M 42.142428 279.714747 
L 42.142428 162.908027 
" style="fill: none; stroke: #000000; stroke-width: 0.8; stroke-linejoin: miter; stroke-linecap: square"/>
   </g>
   <g id="patch_10">
    <path d="M 565.28101 279.714747 
L 565.28101 162.908027 
" style="fill: none; stroke: #000000; stroke-width: 0.8; stroke-linejoin: miter; stroke-linecap: square"/>
   </g>
   <g id="patch_11">
    <path d="M 42.142428 279.714747 
L 565.28101 279.714747 
" style="fill: none; stroke: #000000; stroke-width: 0.8; stroke-linejoin: miter; stroke-linecap: square"/>
   </g>
   <g id="patch_12">
    <path d="M 42.142428 162.908027 
L 565.28101 162.908027 
" style="fill: none; stroke: #000000; stroke-width: 0.8; stroke-linejoin: miter; stroke-linecap: square"/>
   </g>
  </g>
  <g id="axes_3">
   <g id="patch_13">
    <path d="M 42.142428 413.167885 
L 565.28101 413.167885 
L 565.28101 296.361165 
L 42.142428 296.361165 
z
" style="fill: #ffffff"/>
   </g>
   <g id="matplotlib.axis_5">
    <g id="xtick_15">
     <g id="line2d_53">
      <g>
       <use xlink:href="#m849a201521" x="42.142428" y="413.167885" style="stroke: #000000; stroke-width: 0.8"/>
      </g>
     </g>
     <g id="line2d_54">
      <g>
       <use xlink:href="#m4caa276582" x="42.142428" y="296.361165" style="stroke: #000000; stroke-width: 0.8"/>
      </g>
     </g>
     <g id="text_13">
      <!-- 0 -->
      <g transform="translate(38.643053 425.026166) scale(0.11 -0.11)">
       <use xlink:href="#DejaVuSans-30"/>
      </g>
     </g>
    </g>
    <g id="xtick_16">
     <g id="line2d_55">
      <g>
       <use xlink:href="#m849a201521" x="129.332191" y="413.167885" style="stroke: #000000; stroke-width: 0.8"/>
      </g>
     </g>
     <g id="line2d_56">
      <g>
       <use xlink:href="#m4caa276582" x="129.332191" y="296.361165" style="stroke: #000000; stroke-width: 0.8"/>
      </g>
     </g>
     <g id="text_14">
      <!-- 10 -->
      <g transform="translate(122.333441 425.026166) scale(0.11 -0.11)">
       <use xlink:href="#DejaVuSans-31"/>
       <use xlink:href="#DejaVuSans-30" transform="translate(63.623047 0)"/>
      </g>
     </g>
    </g>
    <g id="xtick_17">
     <g id="line2d_57">
      <g>
       <use xlink:href="#m849a201521" x="216.521955" y="413.167885" style="stroke: #000000; stroke-width: 0.8"/>
      </g>
     </g>
     <g id="line2d_58">
      <g>
       <use xlink:href="#m4caa276582" x="216.521955" y="296.361165" style="stroke: #000000; stroke-width: 0.8"/>
      </g>
     </g>
     <g id="text_15">
      <!-- 20 -->
      <g transform="translate(209.523205 425.026166) scale(0.11 -0.11)">
       <use xlink:href="#DejaVuSans-32"/>
       <use xlink:href="#DejaVuSans-30" transform="translate(63.623047 0)"/>
      </g>
     </g>
    </g>
    <g id="xtick_18">
     <g id="line2d_59">
      <g>
       <use xlink:href="#m849a201521" x="303.711719" y="413.167885" style="stroke: #000000; stroke-width: 0.8"/>
      </g>
     </g>
     <g id="line2d_60">
      <g>
       <use xlink:href="#m4caa276582" x="303.711719" y="296.361165" style="stroke: #000000; stroke-width: 0.8"/>
      </g>
     </g>
     <g id="text_16">
      <!-- 30 -->
      <g transform="translate(296.712969 425.026166) scale(0.11 -0.11)">
       <defs>
        <path id="DejaVuSans-33" d="M 2597 2516 
Q 3050 2419 3304 2112 
Q 3559 1806 3559 1356 
Q 3559 666 3084 287 
Q 2609 -91 1734 -91 
Q 1441 -91 1130 -33 
Q 819 25 488 141 
L 488 750 
Q 750 597 1062 519 
Q 1375 441 1716 441 
Q 2309 441 2620 675 
Q 2931 909 2931 1356 
Q 2931 1769 2642 2001 
Q 2353 2234 1838 2234 
L 1294 2234 
L 1294 2753 
L 1863 2753 
Q 2328 2753 2575 2939 
Q 2822 3125 2822 3475 
Q 2822 3834 2567 4026 
Q 2313 4219 1838 4219 
Q 1578 4219 1281 4162 
Q 984 4106 628 3988 
L 628 4550 
Q 988 4650 1302 4700 
Q 1616 4750 1894 4750 
Q 2613 4750 3031 4423 
Q 3450 4097 3450 3541 
Q 3450 3153 3228 2886 
Q 3006 2619 2597 2516 
z
" transform="scale(0.015625)"/>
       </defs>
       <use xlink:href="#DejaVuSans-33"/>
       <use xlink:href="#DejaVuSans-30" transform="translate(63.623047 0)"/>
      </g>
     </g>
    </g>
    <g id="xtick_19">
     <g id="line2d_61">
      <g>
       <use xlink:href="#m849a201521" x="390.901482" y="413.167885" style="stroke: #000000; stroke-width: 0.8"/>
      </g>
     </g>
     <g id="line2d_62">
      <g>
       <use xlink:href="#m4caa276582" x="390.901482" y="296.361165" style="stroke: #000000; stroke-width: 0.8"/>
      </g>
     </g>
     <g id="text_17">
      <!-- 40 -->
      <g transform="translate(383.902733 425.026166) scale(0.11 -0.11)">
       <defs>
        <path id="DejaVuSans-34" d="M 2419 4116 
L 825 1625 
L 2419 1625 
L 2419 4116 
z
M 2253 4666 
L 3047 4666 
L 3047 1625 
L 3713 1625 
L 3713 1100 
L 3047 1100 
L 3047 0 
L 2419 0 
L 2419 1100 
L 313 1100 
L 313 1709 
L 2253 4666 
z
" transform="scale(0.015625)"/>
       </defs>
       <use xlink:href="#DejaVuSans-34"/>
       <use xlink:href="#DejaVuSans-30" transform="translate(63.623047 0)"/>
      </g>
     </g>
    </g>
    <g id="xtick_20">
     <g id="line2d_63">
      <g>
       <use xlink:href="#m849a201521" x="478.091246" y="413.167885" style="stroke: #000000; stroke-width: 0.8"/>
      </g>
     </g>
     <g id="line2d_64">
      <g>
       <use xlink:href="#m4caa276582" x="478.091246" y="296.361165" style="stroke: #000000; stroke-width: 0.8"/>
      </g>
     </g>
     <g id="text_18">
      <!-- 50 -->
      <g transform="translate(471.092496 425.026166) scale(0.11 -0.11)">
       <use xlink:href="#DejaVuSans-35"/>
       <use xlink:href="#DejaVuSans-30" transform="translate(63.623047 0)"/>
      </g>
     </g>
    </g>
    <g id="xtick_21">
     <g id="line2d_65">
      <g>
       <use xlink:href="#m849a201521" x="565.28101" y="413.167885" style="stroke: #000000; stroke-width: 0.8"/>
      </g>
     </g>
     <g id="line2d_66">
      <g>
       <use xlink:href="#m4caa276582" x="565.28101" y="296.361165" style="stroke: #000000; stroke-width: 0.8"/>
      </g>
     </g>
     <g id="text_19">
      <!-- 60 -->
      <g transform="translate(558.28226 425.026166) scale(0.11 -0.11)">
       <use xlink:href="#DejaVuSans-36"/>
       <use xlink:href="#DejaVuSans-30" transform="translate(63.623047 0)"/>
      </g>
     </g>
    </g>
    <g id="text_20">
     <!-- time [min] -->
     <g transform="translate(274.875391 439.672104) scale(0.11 -0.11)">
      <defs>
       <path id="DejaVuSans-74" d="M 1172 4494 
L 1172 3500 
L 2356 3500 
L 2356 3053 
L 1172 3053 
L 1172 1153 
Q 1172 725 1289 603 
Q 1406 481 1766 481 
L 2356 481 
L 2356 0 
L 1766 0 
Q 1100 0 847 248 
Q 594 497 594 1153 
L 594 3053 
L 172 3053 
L 172 3500 
L 594 3500 
L 594 4494 
L 1172 4494 
z
" transform="scale(0.015625)"/>
       <path id="DejaVuSans-69" d="M 603 3500 
L 1178 3500 
L 1178 0 
L 603 0 
L 603 3500 
z
M 603 4863 
L 1178 4863 
L 1178 4134 
L 603 4134 
L 603 4863 
z
" transform="scale(0.015625)"/>
       <path id="DejaVuSans-65" d="M 3597 1894 
L 3597 1613 
L 953 1613 
Q 991 1019 1311 708 
Q 1631 397 2203 397 
Q 2534 397 2845 478 
Q 3156 559 3463 722 
L 3463 178 
Q 3153 47 2828 -22 
Q 2503 -91 2169 -91 
Q 1331 -91 842 396 
Q 353 884 353 1716 
Q 353 2575 817 3079 
Q 1281 3584 2069 3584 
Q 2775 3584 3186 3129 
Q 3597 2675 3597 1894 
z
M 3022 2063 
Q 3016 2534 2758 2815 
Q 2500 3097 2075 3097 
Q 1594 3097 1305 2825 
Q 1016 2553 972 2059 
L 3022 2063 
z
" transform="scale(0.015625)"/>
       <path id="DejaVuSans-6e" d="M 3513 2113 
L 3513 0 
L 2938 0 
L 2938 2094 
Q 2938 2591 2744 2837 
Q 2550 3084 2163 3084 
Q 1697 3084 1428 2787 
Q 1159 2491 1159 1978 
L 1159 0 
L 581 0 
L 581 3500 
L 1159 3500 
L 1159 2956 
Q 1366 3272 1645 3428 
Q 1925 3584 2291 3584 
Q 2894 3584 3203 3211 
Q 3513 2838 3513 2113 
z
" transform="scale(0.015625)"/>
      </defs>
      <use xlink:href="#DejaVuSans-74"/>
      <use xlink:href="#DejaVuSans-69" transform="translate(39.208984 0)"/>
      <use xlink:href="#DejaVuSans-6d" transform="translate(66.992188 0)"/>
      <use xlink:href="#DejaVuSans-65" transform="translate(164.404297 0)"/>
      <use xlink:href="#DejaVuSans-20" transform="translate(225.927734 0)"/>
      <use xlink:href="#DejaVuSans-5b" transform="translate(257.714844 0)"/>
      <use xlink:href="#DejaVuSans-6d" transform="translate(296.728516 0)"/>
      <use xlink:href="#DejaVuSans-69" transform="translate(394.140625 0)"/>
      <use xlink:href="#DejaVuSans-6e" transform="translate(421.923828 0)"/>
      <use xlink:href="#DejaVuSans-5d" transform="translate(485.302734 0)"/>
     </g>
    </g>
   </g>
   <g id="matplotlib.axis_6">
    <g id="ytick_9">
     <g id="line2d_67">
      <g>
       <use xlink:href="#m24bc3ee3e7" x="42.142428" y="413.167885" style="stroke: #000000; stroke-width: 0.8"/>
      </g>
     </g>
     <g id="line2d_68">
      <g>
       <use xlink:href="#m15c93c478e" x="565.28101" y="413.167885" style="stroke: #000000; stroke-width: 0.8"/>
      </g>
     </g>
     <g id="text_21">
      <!-- 0.0 -->
      <g transform="translate(21.14899 417.347026) scale(0.11 -0.11)">
       <defs>
        <path id="DejaVuSans-2e" d="M 684 794 
L 1344 794 
L 1344 0 
L 684 0 
L 684 794 
z
" transform="scale(0.015625)"/>
       </defs>
       <use xlink:href="#DejaVuSans-30"/>
       <use xlink:href="#DejaVuSans-2e" transform="translate(63.623047 0)"/>
       <use xlink:href="#DejaVuSans-30" transform="translate(95.410156 0)"/>
      </g>
     </g>
    </g>
    <g id="ytick_10">
     <g id="line2d_69">
      <g>
       <use xlink:href="#m24bc3ee3e7" x="42.142428" y="389.806541" style="stroke: #000000; stroke-width: 0.8"/>
      </g>
     </g>
     <g id="line2d_70">
      <g>
       <use xlink:href="#m15c93c478e" x="565.28101" y="389.806541" style="stroke: #000000; stroke-width: 0.8"/>
      </g>
     </g>
     <g id="text_22">
      <!-- 0.5 -->
      <g transform="translate(21.14899 393.985682) scale(0.11 -0.11)">
       <use xlink:href="#DejaVuSans-30"/>
       <use xlink:href="#DejaVuSans-2e" transform="translate(63.623047 0)"/>
       <use xlink:href="#DejaVuSans-35" transform="translate(95.410156 0)"/>
      </g>
     </g>
    </g>
    <g id="ytick_11">
     <g id="line2d_71">
      <g>
       <use xlink:href="#m24bc3ee3e7" x="42.142428" y="366.445197" style="stroke: #000000; stroke-width: 0.8"/>
      </g>
     </g>
     <g id="line2d_72">
      <g>
       <use xlink:href="#m15c93c478e" x="565.28101" y="366.445197" style="stroke: #000000; stroke-width: 0.8"/>
      </g>
     </g>
     <g id="text_23">
      <!-- 1.0 -->
      <g transform="translate(21.14899 370.624337) scale(0.11 -0.11)">
       <use xlink:href="#DejaVuSans-31"/>
       <use xlink:href="#DejaVuSans-2e" transform="translate(63.623047 0)"/>
       <use xlink:href="#DejaVuSans-30" transform="translate(95.410156 0)"/>
      </g>
     </g>
    </g>
    <g id="ytick_12">
     <g id="line2d_73">
      <g>
       <use xlink:href="#m24bc3ee3e7" x="42.142428" y="343.083853" style="stroke: #000000; stroke-width: 0.8"/>
      </g>
     </g>
     <g id="line2d_74">
      <g>
       <use xlink:href="#m15c93c478e" x="565.28101" y="343.083853" style="stroke: #000000; stroke-width: 0.8"/>
      </g>
     </g>
     <g id="text_24">
      <!-- 1.5 -->
      <g transform="translate(21.14899 347.262993) scale(0.11 -0.11)">
       <use xlink:href="#DejaVuSans-31"/>
       <use xlink:href="#DejaVuSans-2e" transform="translate(63.623047 0)"/>
       <use xlink:href="#DejaVuSans-35" transform="translate(95.410156 0)"/>
      </g>
     </g>
    </g>
    <g id="ytick_13">
     <g id="line2d_75">
      <g>
       <use xlink:href="#m24bc3ee3e7" x="42.142428" y="319.722509" style="stroke: #000000; stroke-width: 0.8"/>
      </g>
     </g>
     <g id="line2d_76">
      <g>
       <use xlink:href="#m15c93c478e" x="565.28101" y="319.722509" style="stroke: #000000; stroke-width: 0.8"/>
      </g>
     </g>
     <g id="text_25">
      <!-- 2.0 -->
      <g transform="translate(21.14899 323.901649) scale(0.11 -0.11)">
       <use xlink:href="#DejaVuSans-32"/>
       <use xlink:href="#DejaVuSans-2e" transform="translate(63.623047 0)"/>
       <use xlink:href="#DejaVuSans-30" transform="translate(95.410156 0)"/>
      </g>
     </g>
    </g>
    <g id="ytick_14">
     <g id="line2d_77">
      <g>
       <use xlink:href="#m24bc3ee3e7" x="42.142428" y="296.361165" style="stroke: #000000; stroke-width: 0.8"/>
      </g>
     </g>
     <g id="line2d_78">
      <g>
       <use xlink:href="#m15c93c478e" x="565.28101" y="296.361165" style="stroke: #000000; stroke-width: 0.8"/>
      </g>
     </g>
     <g id="text_26">
      <!-- 2.5 -->
      <g transform="translate(21.14899 300.540305) scale(0.11 -0.11)">
       <use xlink:href="#DejaVuSans-32"/>
       <use xlink:href="#DejaVuSans-2e" transform="translate(63.623047 0)"/>
       <use xlink:href="#DejaVuSans-35" transform="translate(95.410156 0)"/>
      </g>
     </g>
    </g>
    <g id="text_27">
     <!-- NPQ [µmol m⁻² s⁻¹] -->
     <g transform="translate(14.861334 408.249447) rotate(-90) scale(0.11 -0.11)">
      <defs>
       <path id="DejaVuSans-4e" d="M 628 4666 
L 1478 4666 
L 3547 763 
L 3547 4666 
L 4159 4666 
L 4159 0 
L 3309 0 
L 1241 3903 
L 1241 0 
L 628 0 
L 628 4666 
z
" transform="scale(0.015625)"/>
       <path id="DejaVuSans-51" d="M 2522 4238 
Q 1834 4238 1429 3725 
Q 1025 3213 1025 2328 
Q 1025 1447 1429 934 
Q 1834 422 2522 422 
Q 3209 422 3611 934 
Q 4013 1447 4013 2328 
Q 4013 3213 3611 3725 
Q 3209 4238 2522 4238 
z
M 3406 84 
L 4238 -825 
L 3475 -825 
L 2784 -78 
Q 2681 -84 2626 -87 
Q 2572 -91 2522 -91 
Q 1538 -91 948 567 
Q 359 1225 359 2328 
Q 359 3434 948 4092 
Q 1538 4750 2522 4750 
Q 3503 4750 4090 4092 
Q 4678 3434 4678 2328 
Q 4678 1516 4351 937 
Q 4025 359 3406 84 
z
" transform="scale(0.015625)"/>
      </defs>
      <use xlink:href="#DejaVuSans-4e"/>
      <use xlink:href="#DejaVuSans-50" transform="translate(74.804688 0)"/>
      <use xlink:href="#DejaVuSans-51" transform="translate(135.107422 0)"/>
      <use xlink:href="#DejaVuSans-20" transform="translate(213.818359 0)"/>
      <use xlink:href="#DejaVuSans-5b" transform="translate(245.605469 0)"/>
      <use xlink:href="#DejaVuSans-b5" transform="translate(284.619141 0)"/>
      <use xlink:href="#DejaVuSans-6d" transform="translate(348.242188 0)"/>
      <use xlink:href="#DejaVuSans-6f" transform="translate(445.654297 0)"/>
      <use xlink:href="#DejaVuSans-6c" transform="translate(506.835938 0)"/>
      <use xlink:href="#DejaVuSans-20" transform="translate(534.619141 0)"/>
      <use xlink:href="#DejaVuSans-6d" transform="translate(566.40625 0)"/>
      <use xlink:href="#DejaVuSans-207b" transform="translate(663.818359 0)"/>
      <use xlink:href="#DejaVuSans-b2" transform="translate(716.601562 0)"/>
      <use xlink:href="#DejaVuSans-20" transform="translate(756.689453 0)"/>
      <use xlink:href="#DejaVuSans-73" transform="translate(788.476562 0)"/>
      <use xlink:href="#DejaVuSans-207b" transform="translate(840.576172 0)"/>
      <use xlink:href="#DejaVuSans-b9" transform="translate(893.359375 0)"/>
      <use xlink:href="#DejaVuSans-5d" transform="translate(933.447266 0)"/>
     </g>
    </g>
   </g>
   <g id="line2d_79">
    <path d="M 42.142428 413.167885 
L 47.426656 405.747994 
L 52.710884 389.770908 
L 57.995112 373.506772 
L 63.27934 359.655448 
L 68.563568 348.534414 
L 73.847796 339.760135 
L 79.132024 332.847629 
L 84.416252 327.378976 
L 89.70048 323.030383 
L 94.984709 319.560031 
L 100.268937 316.789089 
L 105.553165 314.584933 
L 110.837393 312.848278 
L 116.121621 311.503676 
L 121.405849 310.493034 
L 126.690077 309.770617 
L 131.974305 309.299823 
L 137.258533 309.050741 
L 142.542762 308.998413 
L 147.82699 309.12158 
L 153.111218 309.401748 
L 158.395446 309.822509 
L 163.679674 310.368989 
L 168.963902 311.027521 
L 174.24813 311.78251 
L 179.532358 312.588195 
L 184.816586 313.396184 
L 190.100814 314.178808 
L 195.385043 314.922044 
L 200.669271 315.620331 
L 205.953499 316.273123 
L 211.237727 316.882621 
L 216.521955 317.452368 
L 221.806183 317.986392 
L 227.090411 318.48871 
L 232.374639 318.963075 
L 237.658867 319.412861 
L 242.943096 319.84103 
L 248.227324 320.250151 
L 253.511552 320.642431 
L 258.79578 321.019762 
L 264.080008 321.38376 
L 269.364236 321.735812 
L 274.648464 322.077107 
L 279.932692 322.408665 
L 285.21692 322.731374 
L 290.501148 323.045996 
L 295.785377 323.353207 
L 301.069605 323.653574 
L 306.353833 323.947614 
L 311.638061 324.235771 
L 316.922289 324.518439 
L 322.206517 324.795965 
L 327.490745 325.068657 
L 332.774973 325.33679 
L 338.059201 325.600604 
L 343.34343 325.860319 
L 348.627658 326.116129 
L 353.911886 326.368207 
L 359.196114 326.616711 
L 364.480342 326.861781 
L 369.76457 327.103546 
L 375.048798 327.342122 
L 380.333026 327.577612 
L 385.617254 327.810114 
L 390.901482 328.039714 
L 396.185711 328.266492 
L 401.469939 328.490522 
L 406.754167 328.711872 
L 412.038395 328.930605 
L 417.322623 329.146778 
L 422.606851 329.360445 
L 427.891079 329.571656 
L 433.175307 329.78046 
L 438.459535 329.986899 
L 443.743764 330.191016 
L 449.027992 330.39285 
L 454.31222 330.592437 
L 459.596448 330.789814 
L 464.880676 330.985015 
L 470.164904 331.178071 
L 475.449132 331.369014 
L 480.73336 331.557873 
L 486.017588 331.744676 
L 491.301817 331.929454 
L 496.586045 332.112231 
L 501.870273 332.293033 
L 507.154501 332.471887 
L 512.438729 332.648818 
L 517.722957 332.823848 
L 523.007185 332.997002 
L 528.291413 333.168304 
L 533.575641 333.337775 
L 538.859869 333.505439 
L 544.144098 333.671317 
L 549.428326 333.83543 
L 554.712554 333.997801 
L 559.996782 334.15845 
L 565.28101 334.317397 
" clip-path="url(#p04b83e3c65)" style="fill: none; stroke: #228b22; stroke-width: 1.5; stroke-linecap: square"/>
   </g>
   <g id="line2d_80">
    <path d="M 42.142428 413.167885 
L 47.426656 398.498205 
L 52.710884 388.647343 
L 57.995112 382.029903 
L 63.27934 377.234189 
L 68.563568 373.613454 
L 73.847796 370.796975 
L 79.132024 368.55641 
L 84.416252 366.743323 
L 89.70048 365.257039 
L 94.984709 364.026866 
L 100.268937 363.00169 
L 105.553165 362.143683 
L 110.837393 361.424229 
L 116.121621 360.821291 
L 121.405849 360.317618 
L 126.690077 359.89949 
L 131.974305 359.555856 
L 137.258533 359.277681 
L 142.542762 359.057459 
L 147.82699 358.888875 
L 153.111218 358.766552 
L 158.395446 358.685787 
L 163.679674 358.642419 
L 168.963902 358.632734 
L 174.24813 358.653264 
L 179.532358 358.700806 
L 184.816586 358.77232 
L 190.100814 358.864894 
L 195.385043 358.975719 
L 200.669271 359.102075 
L 205.953499 359.241331 
L 211.237727 359.390952 
L 216.521955 359.548514 
L 221.806183 359.711722 
L 227.090411 359.878433 
L 232.374639 360.046669 
L 237.658867 360.214639 
L 242.943096 360.380749 
L 248.227324 360.537728 
L 253.511552 360.666431 
L 258.79578 360.768019 
L 264.080008 360.846304 
L 269.364236 360.904528 
L 274.648464 360.945436 
L 279.932692 360.971362 
L 285.21692 360.984296 
L 290.501148 360.985945 
L 295.785377 360.977778 
L 301.069605 360.961064 
L 306.353833 360.936899 
L 311.638061 360.906239 
L 316.922289 360.869915 
L 322.206517 360.828654 
L 327.490745 360.783092 
L 332.774973 360.733788 
L 338.059201 360.681234 
L 343.34343 360.625863 
L 348.627658 360.568059 
L 353.911886 360.508159 
L 359.196114 360.446466 
L 364.480342 360.383244 
L 369.76457 360.318731 
L 375.048798 360.253138 
L 380.333026 360.186652 
L 385.617254 360.119441 
L 390.901482 360.051653 
L 396.185711 359.983422 
L 401.469939 359.914867 
L 406.754167 359.846094 
L 412.038395 359.777198 
L 417.322623 359.708264 
L 422.606851 359.639367 
L 427.891079 359.570578 
L 433.175307 359.501954 
L 438.459535 359.43355 
L 443.743764 359.365412 
L 449.027992 359.297588 
L 454.31222 359.230111 
L 459.596448 359.163018 
L 464.880676 359.096338 
L 470.164904 359.030097 
L 475.449132 358.96432 
L 480.73336 358.899026 
L 486.017588 358.834233 
L 491.301817 358.769958 
L 496.586045 358.706214 
L 501.870273 358.643012 
L 507.154501 358.580362 
L 512.438729 358.518273 
L 517.722957 358.456752 
L 523.007185 358.395804 
L 528.291413 358.335434 
L 533.575641 358.275645 
L 538.859869 358.216441 
L 544.144098 358.157822 
L 549.428326 358.09979 
L 554.712554 358.042344 
L 559.996782 357.985485 
L 565.28101 357.92921 
" clip-path="url(#p04b83e3c65)" style="fill: none; stroke: #90ee90; stroke-width: 1.5; stroke-linecap: square"/>
   </g>
   <g id="patch_14">
    <path d="M 42.142428 413.167885 
L 42.142428 296.361165 
" style="fill: none; stroke: #000000; stroke-width: 0.8; stroke-linejoin: miter; stroke-linecap: square"/>
   </g>
   <g id="patch_15">
    <path d="M 565.28101 413.167885 
L 565.28101 296.361165 
" style="fill: none; stroke: #000000; stroke-width: 0.8; stroke-linejoin: miter; stroke-linecap: square"/>
   </g>
   <g id="patch_16">
    <path d="M 42.142428 413.167885 
L 565.28101 413.167885 
" style="fill: none; stroke: #000000; stroke-width: 0.8; stroke-linejoin: miter; stroke-linecap: square"/>
   </g>
   <g id="patch_17">
    <path d="M 42.142428 296.361165 
L 565.28101 296.361165 
" style="fill: none; stroke: #000000; stroke-width: 0.8; stroke-linejoin: miter; stroke-linecap: square"/>
   </g>
   <g id="legend_2">
    <g id="patch_18">
     <path d="M 470.59851 407.667885 
L 557.58101 407.667885 
Q 559.78101 407.667885 559.78101 405.467885 
L 559.78101 374.27601 
Q 559.78101 372.07601 557.58101 372.07601 
L 470.59851 372.07601 
Q 468.39851 372.07601 468.39851 374.27601 
L 468.39851 405.467885 
Q 468.39851 407.667885 470.59851 407.667885 
z
" style="fill: #ffffff; opacity: 0.8; stroke: #cccccc; stroke-linejoin: miter"/>
    </g>
    <g id="line2d_81">
     <path d="M 472.79851 380.984291 
L 483.79851 380.984291 
L 494.79851 380.984291 
" style="fill: none; stroke: #228b22; stroke-width: 1.5; stroke-linecap: square"/>
    </g>
    <g id="text_28">
     <!-- Eiko -->
     <g transform="translate(503.59851 384.834291) scale(0.11 -0.11)">
      <use xlink:href="#DejaVuSans-45"/>
      <use xlink:href="#DejaVuSans-69" transform="translate(63.183594 0)"/>
      <use xlink:href="#DejaVuSans-6b" transform="translate(90.966797 0)"/>
      <use xlink:href="#DejaVuSans-6f" transform="translate(145.251953 0)"/>
     </g>
    </g>
    <g id="line2d_82">
     <path d="M 472.79851 397.130229 
L 483.79851 397.130229 
L 494.79851 397.130229 
" style="fill: none; stroke: #90ee90; stroke-width: 1.5; stroke-linecap: square"/>
    </g>
    <g id="text_29">
     <!-- MinnGold -->
     <g transform="translate(503.59851 400.980229) scale(0.11 -0.11)">
      <defs>
       <path id="DejaVuSans-4d" d="M 628 4666 
L 1569 4666 
L 2759 1491 
L 3956 4666 
L 4897 4666 
L 4897 0 
L 4281 0 
L 4281 4097 
L 3078 897 
L 2444 897 
L 1241 4097 
L 1241 0 
L 628 0 
L 628 4666 
z
" transform="scale(0.015625)"/>
       <path id="DejaVuSans-47" d="M 3809 666 
L 3809 1919 
L 2778 1919 
L 2778 2438 
L 4434 2438 
L 4434 434 
Q 4069 175 3628 42 
Q 3188 -91 2688 -91 
Q 1594 -91 976 548 
Q 359 1188 359 2328 
Q 359 3472 976 4111 
Q 1594 4750 2688 4750 
Q 3144 4750 3555 4637 
Q 3966 4525 4313 4306 
L 4313 3634 
Q 3963 3931 3569 4081 
Q 3175 4231 2741 4231 
Q 1884 4231 1454 3753 
Q 1025 3275 1025 2328 
Q 1025 1384 1454 906 
Q 1884 428 2741 428 
Q 3075 428 3337 486 
Q 3600 544 3809 666 
z
" transform="scale(0.015625)"/>
      </defs>
      <use xlink:href="#DejaVuSans-4d"/>
      <use xlink:href="#DejaVuSans-69" transform="translate(86.279297 0)"/>
      <use xlink:href="#DejaVuSans-6e" transform="translate(114.0625 0)"/>
      <use xlink:href="#DejaVuSans-6e" transform="translate(177.441406 0)"/>
      <use xlink:href="#DejaVuSans-47" transform="translate(240.820312 0)"/>
      <use xlink:href="#DejaVuSans-6f" transform="translate(318.310547 0)"/>
      <use xlink:href="#DejaVuSans-6c" transform="translate(379.492188 0)"/>
      <use xlink:href="#DejaVuSans-64" transform="translate(407.275391 0)"/>
     </g>
    </g>
   </g>
  </g>
 </g>
 <defs>
  <clipPath id="p2cf633da97">
   <rect x="42.142428" y="29.454889" width="523.138582" height="116.80672"/>
  </clipPath>
  <clipPath id="p9702cad493">
   <rect x="42.142428" y="162.908027" width="523.138582" height="116.80672"/>
  </clipPath>
  <clipPath id="p04b83e3c65">
   <rect x="42.142428" y="296.361165" width="523.138582" height="116.80672"/>
  </clipPath>
 </defs>
</svg>
