<?xml version="1.0" encoding="utf-8" standalone="no"?>
<!DOCTYPE svg PUBLIC "-//W3C//DTD SVG 1.1//EN"
  "http://www.w3.org/Graphics/SVG/1.1/DTD/svg11.dtd">
<svg xmlns:xlink="http://www.w3.org/1999/xlink" width="277.61pt" height="243.99625pt" viewBox="0 0 277.61 243.99625" xmlns="http://www.w3.org/2000/svg" version="1.1">
 <metadata>
  <rdf:RDF xmlns:dc="http://purl.org/dc/elements/1.1/" xmlns:cc="http://creativecommons.org/ns#" xmlns:rdf="http://www.w3.org/1999/02/22-rdf-syntax-ns#">
   <cc:Work>
    <dc:type rdf:resource="http://purl.org/dc/dcmitype/StillImage"/>
    <dc:date>2026-07-14T14:46:17.224847</dc:date>
    <dc:format>image/svg+xml</dc:format>
    <dc:creator>
     <cc:Agent>
      <dc:title>Matplotlib v3.10.9, https://matplotlib.org/</dc:title>
     </cc:Agent>
    </dc:creator>
   </cc:Work>
  </rdf:RDF>
 </metadata>
 <defs>
  <style type="text/css">*{stroke-linejoin: round; stroke-linecap: butt}</style>
 </defs>
 <g id="figure_1">
  <g id="patch_1">
   <path d="M 0 243.99625 
L 277.61 243.99625 
L 277.61 0 
L 0 0 
z
" style="fill: #ffffff"/>
  </g>
  <g id="axes_1">
   <g id="patch_2">
    <path d="M 46.9875 206.44 
L 264.0475 206.44 
L 264.0475 7.2 
L 46.9875 7.2 
z
" style="fill: #ffffff"/>
   </g>
   <g id="matplotlib.axis_1">
    <g id="xtick_1">
     <g id="line2d_1">
      <defs>
       <path id="m82ce4280c1" d="M 0 0 
L 0 3.5 
" style="stroke: #000000; stroke-width: 0.8"/>
      </defs>
      <g>
       <use xlink:href="#m82ce4280c1" x="46.9875" y="206.44" style="stroke: #000000; stroke-width: 0.8"/>
      </g>
     </g>
     <g id="text_1">
      <!-- 0 -->
      <g transform="translate(43.80625 221.038438) scale(0.1 -0.1)">
       <defs>
        <path id="DejaVuSans-30" d="M 2034 4250 
Q 1547 4250 1301 3770 
Q 1056 3291 1056 2328 
Q 1056 1369 1301 889 
Q 1547 409 2034 409 
Q 2525 409 2770 889 
Q 3016 1369 3016 2328 
Q 3016 3291 2770 3770 
Q 2525 4250 2034 4250 
z
M 2034 4750 
Q 2819 4750 3233 4129 
Q 3647 3509 3647 2328 
Q 3647 1150 3233 529 
Q 2819 -91 2034 -91 
Q 1250 -91 836 529 
Q 422 1150 422 2328 
Q 422 3509 836 4129 
Q 1250 4750 2034 4750 
z
" transform="scale(0.015625)"/>
       </defs>
       <use xlink:href="#DejaVuSans-30"/>
      </g>
     </g>
    </g>
    <g id="xtick_2">
     <g id="line2d_2">
      <g>
       <use xlink:href="#m82ce4280c1" x="101.2525" y="206.44" style="stroke: #000000; stroke-width: 0.8"/>
      </g>
     </g>
     <g id="text_2">
      <!-- 10 -->
      <g transform="translate(94.89 221.038438) scale(0.1 -0.1)">
       <defs>
        <path id="DejaVuSans-31" d="M 794 531 
L 1825 531 
L 1825 4091 
L 703 3866 
L 703 4441 
L 1819 4666 
L 2450 4666 
L 2450 531 
L 3481 531 
L 3481 0 
L 794 0 
L 794 531 
z
" transform="scale(0.015625)"/>
       </defs>
       <use xlink:href="#DejaVuSans-31"/>
       <use xlink:href="#DejaVuSans-30" transform="translate(63.623047 0)"/>
      </g>
     </g>
    </g>
    <g id="xtick_3">
     <g id="line2d_3">
      <g>
       <use xlink:href="#m82ce4280c1" x="155.5175" y="206.44" style="stroke: #000000; stroke-width: 0.8"/>
      </g>
     </g>
     <g id="text_3">
      <!-- 20 -->
      <g transform="translate(149.155 221.038438) scale(0.1 -0.1)">
       <defs>
        <path id="DejaVuSans-32" d="M 1228 531 
L 3431 531 
L 3431 0 
L 469 0 
L 469 531 
Q 828 903 1448 1529 
Q 2069 2156 2228 2338 
Q 2531 2678 2651 2914 
Q 2772 3150 2772 3378 
Q 2772 3750 2511 3984 
Q 2250 4219 1831 4219 
Q 1534 4219 1204 4116 
Q 875 4013 500 3803 
L 500 4441 
Q 881 4594 1212 4672 
Q 1544 4750 1819 4750 
Q 2544 4750 2975 4387 
Q 3406 4025 3406 3419 
Q 3406 3131 3298 2873 
Q 3191 2616 2906 2266 
Q 2828 2175 2409 1742 
Q 1991 1309 1228 531 
z
" transform="scale(0.015625)"/>
       </defs>
       <use xlink:href="#DejaVuSans-32"/>
       <use xlink:href="#DejaVuSans-30" transform="translate(63.623047 0)"/>
      </g>
     </g>
    </g>
    <g id="xtick_4">
     <g id="line2d_4">
      <g>
       <use xlink:href="#m82ce4280c1" x="209.7825" y="206.44" style="stroke: #000000; stroke-width: 0.8"/>
      </g>
     </g>
     <g id="text_4">
      <!-- 30 -->
      <g transform="translate(203.42 221.038438) scale(0.1 -0.1)">
       <defs>
        <path id="DejaVuSans-33" d="M 2597 2516 
Q 3050 2419 3304 2112 
Q 3559 1806 3559 1356 
Q 3559 666 3084 287 
Q 2609 -91 1734 -91 
Q 1441 -91 1130 -33 
Q 819 25 488 141 
L 488 750 
Q 750 597 1062 519 
Q 1375 441 1716 441 
Q 2309 441 2620 675 
Q 2931 909 2931 1356 
Q 2931 1769 2642 2001 
Q 2353 2234 1838 2234 
L 1294 2234 
L 1294 2753 
L 1863 2753 
Q 2328 2753 2575 2939 
Q 2822 3125 2822 3475 
Q 2822 3834 2567 4026 
Q 2313 4219 1838 4219 
Q 1578 4219 1281 4162 
Q 984 4106 628 3988 
L 628 4550 
Q 988 4650 1302 4700 
Q 1616 4750 1894 4750 
Q 2613 4750 3031 4423 
Q 3450 4097 3450 3541 
Q 3450 3153 3228 2886 
Q 3006 2619 2597 2516 
z
" transform="scale(0.015625)"/>
       </defs>
       <use xlink:href="#DejaVuSans-33"/>
       <use xlink:href="#DejaVuSans-30" transform="translate(63.623047 0)"/>
      </g>
     </g>
    </g>
    <g id="xtick_5">
     <g id="line2d_5">
      <g>
       <use xlink:href="#m82ce4280c1" x="264.0475" y="206.44" style="stroke: #000000; stroke-width: 0.8"/>
      </g>
     </g>
     <g id="text_5">
      <!-- 40 -->
      <g transform="translate(257.685 221.038438) scale(0.1 -0.1)">
       <defs>
        <path id="DejaVuSans-34" d="M 2419 4116 
L 825 1625 
L 2419 1625 
L 2419 4116 
z
M 2253 4666 
L 3047 4666 
L 3047 1625 
L 3713 1625 
L 3713 1100 
L 3047 1100 
L 3047 0 
L 2419 0 
L 2419 1100 
L 313 1100 
L 313 1709 
L 2253 4666 
z
" transform="scale(0.015625)"/>
       </defs>
       <use xlink:href="#DejaVuSans-34"/>
       <use xlink:href="#DejaVuSans-30" transform="translate(63.623047 0)"/>
      </g>
     </g>
    </g>
    <g id="text_6">
     <!-- T (C) -->
     <g transform="translate(143.481563 234.716563) scale(0.1 -0.1)">
      <defs>
       <path id="DejaVuSans-54" d="M -19 4666 
L 3928 4666 
L 3928 4134 
L 2272 4134 
L 2272 0 
L 1638 0 
L 1638 4134 
L -19 4134 
L -19 4666 
z
" transform="scale(0.015625)"/>
       <path id="DejaVuSans-20" transform="scale(0.015625)"/>
       <path id="DejaVuSans-28" d="M 1984 4856 
Q 1566 4138 1362 3434 
Q 1159 2731 1159 2009 
Q 1159 1288 1364 580 
Q 1569 -128 1984 -844 
L 1484 -844 
Q 1016 -109 783 600 
Q 550 1309 550 2009 
Q 550 2706 781 3412 
Q 1013 4119 1484 4856 
L 1984 4856 
z
" transform="scale(0.015625)"/>
       <path id="DejaVuSans-43" d="M 4122 4306 
L 4122 3641 
Q 3803 3938 3442 4084 
Q 3081 4231 2675 4231 
Q 1875 4231 1450 3742 
Q 1025 3253 1025 2328 
Q 1025 1406 1450 917 
Q 1875 428 2675 428 
Q 3081 428 3442 575 
Q 3803 722 4122 1019 
L 4122 359 
Q 3791 134 3420 21 
Q 3050 -91 2638 -91 
Q 1578 -91 968 557 
Q 359 1206 359 2328 
Q 359 3453 968 4101 
Q 1578 4750 2638 4750 
Q 3056 4750 3426 4639 
Q 3797 4528 4122 4306 
z
" transform="scale(0.015625)"/>
       <path id="DejaVuSans-29" d="M 513 4856 
L 1013 4856 
Q 1481 4119 1714 3412 
Q 1947 2706 1947 2009 
Q 1947 1309 1714 600 
Q 1481 -109 1013 -844 
L 513 -844 
Q 928 -128 1133 580 
Q 1338 1288 1338 2009 
Q 1338 2731 1133 3434 
Q 928 4138 513 4856 
z
" transform="scale(0.015625)"/>
      </defs>
      <use xlink:href="#DejaVuSans-54"/>
      <use xlink:href="#DejaVuSans-20" transform="translate(61.083984 0)"/>
      <use xlink:href="#DejaVuSans-28" transform="translate(92.871094 0)"/>
      <use xlink:href="#DejaVuSans-43" transform="translate(131.884766 0)"/>
      <use xlink:href="#DejaVuSans-29" transform="translate(201.708984 0)"/>
     </g>
    </g>
   </g>
   <g id="matplotlib.axis_2">
    <g id="ytick_1">
     <g id="line2d_6">
      <defs>
       <path id="m03f00bcd34" d="M 0 0 
L -3.5 0 
" style="stroke: #000000; stroke-width: 0.8"/>
      </defs>
      <g>
       <use xlink:href="#m03f00bcd34" x="46.9875" y="206.44" style="stroke: #000000; stroke-width: 0.8"/>
      </g>
     </g>
     <g id="text_7">
      <!-- 0 -->
      <g transform="translate(33.625 210.239219) scale(0.1 -0.1)">
       <use xlink:href="#DejaVuSans-30"/>
      </g>
     </g>
    </g>
    <g id="ytick_2">
     <g id="line2d_7">
      <g>
       <use xlink:href="#m03f00bcd34" x="46.9875" y="159.56" style="stroke: #000000; stroke-width: 0.8"/>
      </g>
     </g>
     <g id="text_8">
      <!-- 40 -->
      <g transform="translate(27.2625 163.359219) scale(0.1 -0.1)">
       <use xlink:href="#DejaVuSans-34"/>
       <use xlink:href="#DejaVuSans-30" transform="translate(63.623047 0)"/>
      </g>
     </g>
    </g>
    <g id="ytick_3">
     <g id="line2d_8">
      <g>
       <use xlink:href="#m03f00bcd34" x="46.9875" y="112.68" style="stroke: #000000; stroke-width: 0.8"/>
      </g>
     </g>
     <g id="text_9">
      <!-- 80 -->
      <g transform="translate(27.2625 116.479219) scale(0.1 -0.1)">
       <defs>
        <path id="DejaVuSans-38" d="M 2034 2216 
Q 1584 2216 1326 1975 
Q 1069 1734 1069 1313 
Q 1069 891 1326 650 
Q 1584 409 2034 409 
Q 2484 409 2743 651 
Q 3003 894 3003 1313 
Q 3003 1734 2745 1975 
Q 2488 2216 2034 2216 
z
M 1403 2484 
Q 997 2584 770 2862 
Q 544 3141 544 3541 
Q 544 4100 942 4425 
Q 1341 4750 2034 4750 
Q 2731 4750 3128 4425 
Q 3525 4100 3525 3541 
Q 3525 3141 3298 2862 
Q 3072 2584 2669 2484 
Q 3125 2378 3379 2068 
Q 3634 1759 3634 1313 
Q 3634 634 3220 271 
Q 2806 -91 2034 -91 
Q 1263 -91 848 271 
Q 434 634 434 1313 
Q 434 1759 690 2068 
Q 947 2378 1403 2484 
z
M 1172 3481 
Q 1172 3119 1398 2916 
Q 1625 2713 2034 2713 
Q 2441 2713 2670 2916 
Q 2900 3119 2900 3481 
Q 2900 3844 2670 4047 
Q 2441 4250 2034 4250 
Q 1625 4250 1398 4047 
Q 1172 3844 1172 3481 
z
" transform="scale(0.015625)"/>
       </defs>
       <use xlink:href="#DejaVuSans-38"/>
       <use xlink:href="#DejaVuSans-30" transform="translate(63.623047 0)"/>
      </g>
     </g>
    </g>
    <g id="ytick_4">
     <g id="line2d_9">
      <g>
       <use xlink:href="#m03f00bcd34" x="46.9875" y="65.8" style="stroke: #000000; stroke-width: 0.8"/>
      </g>
     </g>
     <g id="text_10">
      <!-- 120 -->
      <g transform="translate(20.9 69.599219) scale(0.1 -0.1)">
       <use xlink:href="#DejaVuSans-31"/>
       <use xlink:href="#DejaVuSans-32" transform="translate(63.623047 0)"/>
       <use xlink:href="#DejaVuSans-30" transform="translate(127.246094 0)"/>
      </g>
     </g>
    </g>
    <g id="ytick_5">
     <g id="line2d_10">
      <g>
       <use xlink:href="#m03f00bcd34" x="46.9875" y="18.92" style="stroke: #000000; stroke-width: 0.8"/>
      </g>
     </g>
     <g id="text_11">
      <!-- 160 -->
      <g transform="translate(20.9 22.719219) scale(0.1 -0.1)">
       <defs>
        <path id="DejaVuSans-36" d="M 2113 2584 
Q 1688 2584 1439 2293 
Q 1191 2003 1191 1497 
Q 1191 994 1439 701 
Q 1688 409 2113 409 
Q 2538 409 2786 701 
Q 3034 994 3034 1497 
Q 3034 2003 2786 2293 
Q 2538 2584 2113 2584 
z
M 3366 4563 
L 3366 3988 
Q 3128 4100 2886 4159 
Q 2644 4219 2406 4219 
Q 1781 4219 1451 3797 
Q 1122 3375 1075 2522 
Q 1259 2794 1537 2939 
Q 1816 3084 2150 3084 
Q 2853 3084 3261 2657 
Q 3669 2231 3669 1497 
Q 3669 778 3244 343 
Q 2819 -91 2113 -91 
Q 1303 -91 875 529 
Q 447 1150 447 2328 
Q 447 3434 972 4092 
Q 1497 4750 2381 4750 
Q 2619 4750 2861 4703 
Q 3103 4656 3366 4563 
z
" transform="scale(0.015625)"/>
       </defs>
       <use xlink:href="#DejaVuSans-31"/>
       <use xlink:href="#DejaVuSans-36" transform="translate(63.623047 0)"/>
       <use xlink:href="#DejaVuSans-30" transform="translate(127.246094 0)"/>
      </g>
     </g>
    </g>
    <g id="text_12">
     <!-- CO2 compensation point, $\Gamma$ (µbar) -->
     <g transform="translate(14.8 191.67) rotate(-90) scale(0.1 -0.1)">
      <defs>
       <path id="DejaVuSans-4f" d="M 2522 4238 
Q 1834 4238 1429 3725 
Q 1025 3213 1025 2328 
Q 1025 1447 1429 934 
Q 1834 422 2522 422 
Q 3209 422 3611 934 
Q 4013 1447 4013 2328 
Q 4013 3213 3611 3725 
Q 3209 4238 2522 4238 
z
M 2522 4750 
Q 3503 4750 4090 4092 
Q 4678 3434 4678 2328 
Q 4678 1225 4090 567 
Q 3503 -91 2522 -91 
Q 1538 -91 948 565 
Q 359 1222 359 2328 
Q 359 3434 948 4092 
Q 1538 4750 2522 4750 
z
" transform="scale(0.015625)"/>
       <path id="DejaVuSans-63" d="M 3122 3366 
L 3122 2828 
Q 2878 2963 2633 3030 
Q 2388 3097 2138 3097 
Q 1578 3097 1268 2742 
Q 959 2388 959 1747 
Q 959 1106 1268 751 
Q 1578 397 2138 397 
Q 2388 397 2633 464 
Q 2878 531 3122 666 
L 3122 134 
Q 2881 22 2623 -34 
Q 2366 -91 2075 -91 
Q 1284 -91 818 406 
Q 353 903 353 1747 
Q 353 2603 823 3093 
Q 1294 3584 2113 3584 
Q 2378 3584 2631 3529 
Q 2884 3475 3122 3366 
z
" transform="scale(0.015625)"/>
       <path id="DejaVuSans-6f" d="M 1959 3097 
Q 1497 3097 1228 2736 
Q 959 2375 959 1747 
Q 959 1119 1226 758 
Q 1494 397 1959 397 
Q 2419 397 2687 759 
Q 2956 1122 2956 1747 
Q 2956 2369 2687 2733 
Q 2419 3097 1959 3097 
z
M 1959 3584 
Q 2709 3584 3137 3096 
Q 3566 2609 3566 1747 
Q 3566 888 3137 398 
Q 2709 -91 1959 -91 
Q 1206 -91 779 398 
Q 353 888 353 1747 
Q 353 2609 779 3096 
Q 1206 3584 1959 3584 
z
" transform="scale(0.015625)"/>
       <path id="DejaVuSans-6d" d="M 3328 2828 
Q 3544 3216 3844 3400 
Q 4144 3584 4550 3584 
Q 5097 3584 5394 3201 
Q 5691 2819 5691 2113 
L 5691 0 
L 5113 0 
L 5113 2094 
Q 5113 2597 4934 2840 
Q 4756 3084 4391 3084 
Q 3944 3084 3684 2787 
Q 3425 2491 3425 1978 
L 3425 0 
L 2847 0 
L 2847 2094 
Q 2847 2600 2669 2842 
Q 2491 3084 2119 3084 
Q 1678 3084 1418 2786 
Q 1159 2488 1159 1978 
L 1159 0 
L 581 0 
L 581 3500 
L 1159 3500 
L 1159 2956 
Q 1356 3278 1631 3431 
Q 1906 3584 2284 3584 
Q 2666 3584 2933 3390 
Q 3200 3197 3328 2828 
z
" transform="scale(0.015625)"/>
       <path id="DejaVuSans-70" d="M 1159 525 
L 1159 -1331 
L 581 -1331 
L 581 3500 
L 1159 3500 
L 1159 2969 
Q 1341 3281 1617 3432 
Q 1894 3584 2278 3584 
Q 2916 3584 3314 3078 
Q 3713 2572 3713 1747 
Q 3713 922 3314 415 
Q 2916 -91 2278 -91 
Q 1894 -91 1617 61 
Q 1341 213 1159 525 
z
M 3116 1747 
Q 3116 2381 2855 2742 
Q 2594 3103 2138 3103 
Q 1681 3103 1420 2742 
Q 1159 2381 1159 1747 
Q 1159 1113 1420 752 
Q 1681 391 2138 391 
Q 2594 391 2855 752 
Q 3116 1113 3116 1747 
z
" transform="scale(0.015625)"/>
       <path id="DejaVuSans-65" d="M 3597 1894 
L 3597 1613 
L 953 1613 
Q 991 1019 1311 708 
Q 1631 397 2203 397 
Q 2534 397 2845 478 
Q 3156 559 3463 722 
L 3463 178 
Q 3153 47 2828 -22 
Q 2503 -91 2169 -91 
Q 1331 -91 842 396 
Q 353 884 353 1716 
Q 353 2575 817 3079 
Q 1281 3584 2069 3584 
Q 2775 3584 3186 3129 
Q 3597 2675 3597 1894 
z
M 3022 2063 
Q 3016 2534 2758 2815 
Q 2500 3097 2075 3097 
Q 1594 3097 1305 2825 
Q 1016 2553 972 2059 
L 3022 2063 
z
" transform="scale(0.015625)"/>
       <path id="DejaVuSans-6e" d="M 3513 2113 
L 3513 0 
L 2938 0 
L 2938 2094 
Q 2938 2591 2744 2837 
Q 2550 3084 2163 3084 
Q 1697 3084 1428 2787 
Q 1159 2491 1159 1978 
L 1159 0 
L 581 0 
L 581 3500 
L 1159 3500 
L 1159 2956 
Q 1366 3272 1645 3428 
Q 1925 3584 2291 3584 
Q 2894 3584 3203 3211 
Q 3513 2838 3513 2113 
z
" transform="scale(0.015625)"/>
       <path id="DejaVuSans-73" d="M 2834 3397 
L 2834 2853 
Q 2591 2978 2328 3040 
Q 2066 3103 1784 3103 
Q 1356 3103 1142 2972 
Q 928 2841 928 2578 
Q 928 2378 1081 2264 
Q 1234 2150 1697 2047 
L 1894 2003 
Q 2506 1872 2764 1633 
Q 3022 1394 3022 966 
Q 3022 478 2636 193 
Q 2250 -91 1575 -91 
Q 1294 -91 989 -36 
Q 684 19 347 128 
L 347 722 
Q 666 556 975 473 
Q 1284 391 1588 391 
Q 1994 391 2212 530 
Q 2431 669 2431 922 
Q 2431 1156 2273 1281 
Q 2116 1406 1581 1522 
L 1381 1569 
Q 847 1681 609 1914 
Q 372 2147 372 2553 
Q 372 3047 722 3315 
Q 1072 3584 1716 3584 
Q 2034 3584 2315 3537 
Q 2597 3491 2834 3397 
z
" transform="scale(0.015625)"/>
       <path id="DejaVuSans-61" d="M 2194 1759 
Q 1497 1759 1228 1600 
Q 959 1441 959 1056 
Q 959 750 1161 570 
Q 1363 391 1709 391 
Q 2188 391 2477 730 
Q 2766 1069 2766 1631 
L 2766 1759 
L 2194 1759 
z
M 3341 1997 
L 3341 0 
L 2766 0 
L 2766 531 
Q 2569 213 2275 61 
Q 1981 -91 1556 -91 
Q 1019 -91 701 211 
Q 384 513 384 1019 
Q 384 1609 779 1909 
Q 1175 2209 1959 2209 
L 2766 2209 
L 2766 2266 
Q 2766 2663 2505 2880 
Q 2244 3097 1772 3097 
Q 1472 3097 1187 3025 
Q 903 2953 641 2809 
L 641 3341 
Q 956 3463 1253 3523 
Q 1550 3584 1831 3584 
Q 2591 3584 2966 3190 
Q 3341 2797 3341 1997 
z
" transform="scale(0.015625)"/>
       <path id="DejaVuSans-74" d="M 1172 4494 
L 1172 3500 
L 2356 3500 
L 2356 3053 
L 1172 3053 
L 1172 1153 
Q 1172 725 1289 603 
Q 1406 481 1766 481 
L 2356 481 
L 2356 0 
L 1766 0 
Q 1100 0 847 248 
Q 594 497 594 1153 
L 594 3053 
L 172 3053 
L 172 3500 
L 594 3500 
L 594 4494 
L 1172 4494 
z
" transform="scale(0.015625)"/>
       <path id="DejaVuSans-69" d="M 603 3500 
L 1178 3500 
L 1178 0 
L 603 0 
L 603 3500 
z
M 603 4863 
L 1178 4863 
L 1178 4134 
L 603 4134 
L 603 4863 
z
" transform="scale(0.015625)"/>
       <path id="DejaVuSans-2c" d="M 750 794 
L 1409 794 
L 1409 256 
L 897 -744 
L 494 -744 
L 750 256 
L 750 794 
z
" transform="scale(0.015625)"/>
       <path id="DejaVuSans-393" d="M 628 0 
L 628 4666 
L 3531 4666 
L 3531 4134 
L 1259 4134 
L 1259 0 
L 628 0 
z
" transform="scale(0.015625)"/>
       <path id="DejaVuSans-b5" d="M 544 -1331 
L 544 3500 
L 1119 3500 
L 1119 1325 
Q 1119 872 1334 640 
Q 1550 409 1972 409 
Q 2434 409 2667 671 
Q 2900 934 2900 1459 
L 2900 3500 
L 3475 3500 
L 3475 806 
Q 3475 619 3529 530 
Q 3584 441 3700 441 
Q 3728 441 3778 458 
Q 3828 475 3916 513 
L 3916 50 
Q 3788 -22 3673 -56 
Q 3559 -91 3450 -91 
Q 3234 -91 3106 31 
Q 2978 153 2931 403 
Q 2775 156 2548 32 
Q 2322 -91 2016 -91 
Q 1697 -91 1473 31 
Q 1250 153 1119 397 
L 1119 -1331 
L 544 -1331 
z
" transform="scale(0.015625)"/>
       <path id="DejaVuSans-62" d="M 3116 1747 
Q 3116 2381 2855 2742 
Q 2594 3103 2138 3103 
Q 1681 3103 1420 2742 
Q 1159 2381 1159 1747 
Q 1159 1113 1420 752 
Q 1681 391 2138 391 
Q 2594 391 2855 752 
Q 3116 1113 3116 1747 
z
M 1159 2969 
Q 1341 3281 1617 3432 
Q 1894 3584 2278 3584 
Q 2916 3584 3314 3078 
Q 3713 2572 3713 1747 
Q 3713 922 3314 415 
Q 2916 -91 2278 -91 
Q 1894 -91 1617 61 
Q 1341 213 1159 525 
L 1159 0 
L 581 0 
L 581 4863 
L 1159 4863 
L 1159 2969 
z
" transform="scale(0.015625)"/>
       <path id="DejaVuSans-72" d="M 2631 2963 
Q 2534 3019 2420 3045 
Q 2306 3072 2169 3072 
Q 1681 3072 1420 2755 
Q 1159 2438 1159 1844 
L 1159 0 
L 581 0 
L 581 3500 
L 1159 3500 
L 1159 2956 
Q 1341 3275 1631 3429 
Q 1922 3584 2338 3584 
Q 2397 3584 2469 3576 
Q 2541 3569 2628 3553 
L 2631 2963 
z
" transform="scale(0.015625)"/>
      </defs>
      <use xlink:href="#DejaVuSans-43" transform="translate(0 0.015625)"/>
      <use xlink:href="#DejaVuSans-4f" transform="translate(69.824219 0.015625)"/>
      <use xlink:href="#DejaVuSans-32" transform="translate(148.535156 0.015625)"/>
      <use xlink:href="#DejaVuSans-20" transform="translate(212.158203 0.015625)"/>
      <use xlink:href="#DejaVuSans-63" transform="translate(243.945312 0.015625)"/>
      <use xlink:href="#DejaVuSans-6f" transform="translate(298.925781 0.015625)"/>
      <use xlink:href="#DejaVuSans-6d" transform="translate(360.107422 0.015625)"/>
      <use xlink:href="#DejaVuSans-70" transform="translate(457.519531 0.015625)"/>
      <use xlink:href="#DejaVuSans-65" transform="translate(520.996094 0.015625)"/>
      <use xlink:href="#DejaVuSans-6e" transform="translate(582.519531 0.015625)"/>
      <use xlink:href="#DejaVuSans-73" transform="translate(645.898438 0.015625)"/>
      <use xlink:href="#DejaVuSans-61" transform="translate(697.998047 0.015625)"/>
      <use xlink:href="#DejaVuSans-74" transform="translate(759.277344 0.015625)"/>
      <use xlink:href="#DejaVuSans-69" transform="translate(798.486328 0.015625)"/>
      <use xlink:href="#DejaVuSans-6f" transform="translate(826.269531 0.015625)"/>
      <use xlink:href="#DejaVuSans-6e" transform="translate(887.451172 0.015625)"/>
      <use xlink:href="#DejaVuSans-20" transform="translate(950.830078 0.015625)"/>
      <use xlink:href="#DejaVuSans-70" transform="translate(982.617188 0.015625)"/>
      <use xlink:href="#DejaVuSans-6f" transform="translate(1046.09375 0.015625)"/>
      <use xlink:href="#DejaVuSans-69" transform="translate(1107.275391 0.015625)"/>
      <use xlink:href="#DejaVuSans-6e" transform="translate(1135.058594 0.015625)"/>
      <use xlink:href="#DejaVuSans-74" transform="translate(1198.4375 0.015625)"/>
      <use xlink:href="#DejaVuSans-2c" transform="translate(1237.646484 0.015625)"/>
      <use xlink:href="#DejaVuSans-20" transform="translate(1269.433594 0.015625)"/>
      <use xlink:href="#DejaVuSans-393" transform="translate(1301.220703 0.015625)"/>
      <use xlink:href="#DejaVuSans-20" transform="translate(1356.933594 0.015625)"/>
      <use xlink:href="#DejaVuSans-28" transform="translate(1388.720703 0.015625)"/>
      <use xlink:href="#DejaVuSans-b5" transform="translate(1427.734375 0.015625)"/>
      <use xlink:href="#DejaVuSans-62" transform="translate(1491.357422 0.015625)"/>
      <use xlink:href="#DejaVuSans-61" transform="translate(1554.833984 0.015625)"/>
      <use xlink:href="#DejaVuSans-72" transform="translate(1616.113281 0.015625)"/>
      <use xlink:href="#DejaVuSans-29" transform="translate(1657.226562 0.015625)"/>
     </g>
    </g>
   </g>
   <g id="line2d_11">
    <path d="M 46.9875 189.417371 
L 49.180025 189.133864 
L 51.372551 188.846044 
L 53.565076 188.553844 
L 55.757601 188.257191 
L 57.950126 187.956015 
L 60.142652 187.65024 
L 62.335177 187.339792 
L 64.527702 187.024594 
L 66.720227 186.704567 
L 68.912753 186.37963 
L 71.105278 186.049701 
L 73.297803 185.714697 
L 75.490328 185.37453 
L 77.682854 185.029114 
L 79.875379 184.678358 
L 82.067904 184.32217 
L 84.260429 183.960457 
L 86.452955 183.593122 
L 88.64548 183.220067 
L 90.838005 182.841191 
L 93.03053 182.456391 
L 95.223056 182.065561 
L 97.415581 181.668595 
L 99.608106 181.26538 
L 101.800631 180.855805 
L 103.993157 180.439754 
L 106.185682 180.017108 
L 108.378207 179.587746 
L 110.570732 179.151544 
L 112.763258 178.708375 
L 114.955783 178.258109 
L 117.148308 177.800612 
L 119.340833 177.335748 
L 121.533359 176.863377 
L 123.725884 176.383357 
L 125.918409 175.895539 
L 128.110934 175.399775 
L 130.30346 174.895911 
L 132.495985 174.383787 
L 134.68851 173.863245 
L 136.881035 173.334117 
L 139.073561 172.773513 
L 141.266086 172.112184 
L 143.458611 171.43173 
L 145.651136 170.731298 
L 147.843662 170.009986 
L 150.036187 169.266846 
L 152.228712 168.500871 
L 154.421237 167.711001 
L 156.613763 166.896114 
L 158.806288 166.055022 
L 160.998813 165.186467 
L 163.191338 164.289119 
L 165.383864 163.361566 
L 167.576389 162.402311 
L 169.768914 161.409766 
L 171.961439 160.382245 
L 174.153965 159.317956 
L 176.34649 158.214994 
L 178.539015 157.071331 
L 180.73154 155.884809 
L 182.924066 154.653127 
L 185.116591 153.373831 
L 187.309116 152.044302 
L 189.501641 150.661743 
L 191.694167 149.223161 
L 193.886692 147.725355 
L 196.079217 146.164896 
L 198.271742 144.538103 
L 200.464268 142.841029 
L 202.656793 141.06943 
L 204.849318 139.218741 
L 207.041843 137.284044 
L 209.234369 135.260036 
L 211.426894 133.140989 
L 213.619419 130.920713 
L 215.811944 128.5925 
L 218.00447 126.149082 
L 220.196995 123.582561 
L 222.38952 120.884347 
L 224.582045 118.045084 
L 226.774571 115.054554 
L 228.967096 111.901589 
L 231.159621 108.573951 
L 233.352146 105.058206 
L 235.544672 101.339573 
L 237.737197 97.401758 
L 239.929722 93.226752 
L 242.122247 88.794601 
L 244.314773 84.083143 
L 246.507298 79.067693 
L 248.699823 73.720674 
L 250.892348 68.011186 
L 253.084874 61.904493 
L 255.277399 55.361407 
L 257.469924 48.337559 
L 259.662449 40.782514 
L 261.854975 32.638699 
L 264.0475 23.840104 
" clip-path="url(#p258043c04a)" style="fill: none; stroke: #000000; stroke-width: 1.5; stroke-linecap: square"/>
   </g>
   <g id="line2d_12">
    <path d="M 46.9875 189.417371 
L 49.180025 189.133864 
L 51.372551 188.846044 
L 53.565076 188.553844 
L 55.757601 188.257191 
L 57.950126 187.956015 
L 60.142652 187.65024 
L 62.335177 187.339792 
L 64.527702 187.024594 
L 66.720227 186.704567 
L 68.912753 186.37963 
L 71.105278 186.049701 
L 73.297803 185.714697 
L 75.490328 185.37453 
L 77.682854 185.029114 
L 79.875379 184.678358 
L 82.067904 184.32217 
L 84.260429 183.960457 
L 86.452955 183.593122 
L 88.64548 183.220067 
L 90.838005 182.841191 
L 93.03053 182.456391 
L 95.223056 182.065561 
L 97.415581 181.668595 
L 99.608106 181.26538 
L 101.800631 180.855805 
L 103.993157 180.439754 
L 106.185682 180.017108 
L 108.378207 179.587746 
L 110.570732 179.151544 
L 112.763258 178.708375 
L 114.955783 178.258109 
L 117.148308 177.800612 
L 119.340833 177.335748 
L 121.533359 176.863377 
L 123.725884 176.383357 
L 125.918409 175.895539 
L 128.110934 175.399775 
L 130.30346 174.895911 
L 132.495985 174.383787 
L 134.68851 173.863245 
L 136.881035 173.334117 
L 139.073561 172.796234 
L 141.266086 172.249423 
L 143.458611 171.693505 
L 145.651136 171.128299 
L 147.843662 170.553618 
L 150.036187 169.96927 
L 152.228712 169.375058 
L 154.421237 168.770782 
L 156.613763 168.156237 
L 158.806288 167.531209 
L 160.998813 166.895484 
L 163.191338 166.24884 
L 165.383864 165.591049 
L 167.576389 164.921878 
L 169.768914 164.241088 
L 171.961439 163.548436 
L 174.153965 162.843669 
L 176.34649 162.126532 
L 178.539015 161.39676 
L 180.73154 160.654084 
L 182.924066 159.898226 
L 185.116591 159.128904 
L 187.309116 158.345826 
L 189.501641 157.548695 
L 191.694167 156.737205 
L 193.886692 155.911043 
L 196.079217 155.069889 
L 198.271742 154.213413 
L 200.464268 153.34128 
L 202.656793 152.453142 
L 204.849318 151.548647 
L 207.041843 150.627433 
L 209.234369 149.689126 
L 211.426894 148.733346 
L 213.619419 147.759704 
L 215.811944 146.767798 
L 218.00447 145.75722 
L 220.196995 144.727548 
L 222.38952 143.678353 
L 224.582045 142.609194 
L 226.774571 141.519618 
L 228.967096 140.409163 
L 231.159621 139.277354 
L 233.352146 138.123705 
L 235.544672 136.947718 
L 237.737197 135.748883 
L 239.929722 134.526677 
L 242.122247 133.280564 
L 244.314773 132.009997 
L 246.507298 130.714413 
L 248.699823 129.393237 
L 250.892348 128.045878 
L 253.084874 126.671734 
L 255.277399 125.270185 
L 257.469924 123.840598 
L 259.662449 122.382324 
L 261.854975 120.8947 
L 264.0475 119.377043 
" clip-path="url(#p258043c04a)" style="fill: none; stroke: #000000; stroke-width: 1.5; stroke-linecap: square"/>
   </g>
   <g id="patch_3">
    <path d="M 46.9875 206.44 
L 46.9875 7.2 
" style="fill: none; stroke: #000000; stroke-width: 0.8; stroke-linejoin: miter; stroke-linecap: square"/>
   </g>
   <g id="patch_4">
    <path d="M 264.0475 206.44 
L 264.0475 7.2 
" style="fill: none; stroke: #000000; stroke-width: 0.8; stroke-linejoin: miter; stroke-linecap: square"/>
   </g>
   <g id="patch_5">
    <path d="M 46.9875 206.44 
L 264.0475 206.44 
" style="fill: none; stroke: #000000; stroke-width: 0.8; stroke-linejoin: miter; stroke-linecap: square"/>
   </g>
   <g id="patch_6">
    <path d="M 46.9875 7.2 
L 264.0475 7.2 
" style="fill: none; stroke: #000000; stroke-width: 0.8; stroke-linejoin: miter; stroke-linecap: square"/>
   </g>
   <g id="text_13">
    <!-- I = 100 µE m⁻² s⁻¹ -->
    <g transform="translate(111.841938 134.795053) scale(0.1 -0.1)">
     <defs>
      <path id="DejaVuSans-49" d="M 628 4666 
L 1259 4666 
L 1259 0 
L 628 0 
L 628 4666 
z
" transform="scale(0.015625)"/>
      <path id="DejaVuSans-3d" d="M 678 2906 
L 4684 2906 
L 4684 2381 
L 678 2381 
L 678 2906 
z
M 678 1631 
L 4684 1631 
L 4684 1100 
L 678 1100 
L 678 1631 
z
" transform="scale(0.015625)"/>
      <path id="DejaVuSans-45" d="M 628 4666 
L 3578 4666 
L 3578 4134 
L 1259 4134 
L 1259 2753 
L 3481 2753 
L 3481 2222 
L 1259 2222 
L 1259 531 
L 3634 531 
L 3634 0 
L 628 0 
L 628 4666 
z
" transform="scale(0.015625)"/>
      <path id="DejaVuSans-207b" d="M 428 3359 
L 2950 3359 
L 2950 3063 
L 428 3063 
L 428 3359 
z
" transform="scale(0.015625)"/>
      <path id="DejaVuSans-b2" d="M 838 2444 
L 2163 2444 
L 2163 2088 
L 294 2088 
L 294 2431 
Q 400 2528 597 2703 
Q 1672 3656 1672 3950 
Q 1672 4156 1509 4282 
Q 1347 4409 1081 4409 
Q 919 4409 728 4354 
Q 538 4300 313 4191 
L 313 4575 
Q 553 4663 761 4706 
Q 969 4750 1147 4750 
Q 1600 4750 1872 4544 
Q 2144 4338 2144 4000 
Q 2144 3566 1109 2678 
Q 934 2528 838 2444 
z
" transform="scale(0.015625)"/>
      <path id="DejaVuSans-b9" d="M 488 2431 
L 1125 2431 
L 1125 4341 
L 428 4213 
L 428 4575 
L 1147 4697 
L 1575 4697 
L 1575 2431 
L 2216 2431 
L 2216 2088 
L 488 2088 
L 488 2431 
z
" transform="scale(0.015625)"/>
     </defs>
     <use xlink:href="#DejaVuSans-49"/>
     <use xlink:href="#DejaVuSans-20" transform="translate(29.492188 0)"/>
     <use xlink:href="#DejaVuSans-3d" transform="translate(61.279297 0)"/>
     <use xlink:href="#DejaVuSans-20" transform="translate(145.068359 0)"/>
     <use xlink:href="#DejaVuSans-31" transform="translate(176.855469 0)"/>
     <use xlink:href="#DejaVuSans-30" transform="translate(240.478516 0)"/>
     <use xlink:href="#DejaVuSans-30" transform="translate(304.101562 0)"/>
     <use xlink:href="#DejaVuSans-20" transform="translate(367.724609 0)"/>
     <use xlink:href="#DejaVuSans-b5" transform="translate(399.511719 0)"/>
     <use xlink:href="#DejaVuSans-45" transform="translate(463.134766 0)"/>
     <use xlink:href="#DejaVuSans-20" transform="translate(526.318359 0)"/>
     <use xlink:href="#DejaVuSans-6d" transform="translate(558.105469 0)"/>
     <use xlink:href="#DejaVuSans-207b" transform="translate(655.517578 0)"/>
     <use xlink:href="#DejaVuSans-b2" transform="translate(708.300781 0)"/>
     <use xlink:href="#DejaVuSans-20" transform="translate(748.388672 0)"/>
     <use xlink:href="#DejaVuSans-73" transform="translate(780.175781 0)"/>
     <use xlink:href="#DejaVuSans-207b" transform="translate(832.275391 0)"/>
     <use xlink:href="#DejaVuSans-b9" transform="translate(885.058594 0)"/>
    </g>
   </g>
   <g id="text_14">
    <!-- I = 1000 -->
    <g transform="translate(204.356 161.491085) scale(0.1 -0.1)">
     <use xlink:href="#DejaVuSans-49"/>
     <use xlink:href="#DejaVuSans-20" transform="translate(29.492188 0)"/>
     <use xlink:href="#DejaVuSans-3d" transform="translate(61.279297 0)"/>
     <use xlink:href="#DejaVuSans-20" transform="translate(145.068359 0)"/>
     <use xlink:href="#DejaVuSans-31" transform="translate(176.855469 0)"/>
     <use xlink:href="#DejaVuSans-30" transform="translate(240.478516 0)"/>
     <use xlink:href="#DejaVuSans-30" transform="translate(304.101562 0)"/>
     <use xlink:href="#DejaVuSans-30" transform="translate(367.724609 0)"/>
    </g>
   </g>
   <g id="text_15">
    <!-- O=210 mbar -->
    <g transform="translate(101.2525 49.958438) scale(0.1 -0.1)">
     <use xlink:href="#DejaVuSans-4f"/>
     <use xlink:href="#DejaVuSans-3d" transform="translate(78.710938 0)"/>
     <use xlink:href="#DejaVuSans-32" transform="translate(162.5 0)"/>
     <use xlink:href="#DejaVuSans-31" transform="translate(226.123047 0)"/>
     <use xlink:href="#DejaVuSans-30" transform="translate(289.746094 0)"/>
     <use xlink:href="#DejaVuSans-20" transform="translate(353.369141 0)"/>
     <use xlink:href="#DejaVuSans-6d" transform="translate(385.15625 0)"/>
     <use xlink:href="#DejaVuSans-62" transform="translate(482.568359 0)"/>
     <use xlink:href="#DejaVuSans-61" transform="translate(546.044922 0)"/>
     <use xlink:href="#DejaVuSans-72" transform="translate(607.324219 0)"/>
    </g>
   </g>
  </g>
 </g>
 <defs>
  <clipPath id="p258043c04a">
   <rect x="46.9875" y="7.2" width="217.06" height="199.24"/>
  </clipPath>
 </defs>
</svg>
