<?xml version="1.0" encoding="utf-8" standalone="no"?>
<!DOCTYPE svg PUBLIC "-//W3C//DTD SVG 1.1//EN"
  "http://www.w3.org/Graphics/SVG/1.1/DTD/svg11.dtd">
<svg xmlns:xlink="http://www.w3.org/1999/xlink" width="280.470313pt" height="495.835469pt" viewBox="0 0 280.470313 495.835469" xmlns="http://www.w3.org/2000/svg" version="1.1">
 <metadata>
  <rdf:RDF xmlns:dc="http://purl.org/dc/elements/1.1/" xmlns:cc="http://creativecommons.org/ns#" xmlns:rdf="http://www.w3.org/1999/02/22-rdf-syntax-ns#">
   <cc:Work>
    <dc:type rdf:resource="http://purl.org/dc/dcmitype/StillImage"/>
    <dc:date>2026-07-14T14:46:17.343296</dc:date>
    <dc:format>image/svg+xml</dc:format>
    <dc:creator>
     <cc:Agent>
      <dc:title>Matplotlib v3.10.9, https://matplotlib.org/</dc:title>
     </cc:Agent>
    </dc:creator>
   </cc:Work>
  </rdf:RDF>
 </metadata>
 <defs>
  <style type="text/css">*{stroke-linejoin: round; stroke-linecap: butt}</style>
 </defs>
 <g id="figure_1">
  <g id="patch_1">
   <path d="M 0 495.835469 
L 280.470313 495.835469 
L 280.470313 0 
L 0 0 
z
" style="fill: #ffffff"/>
  </g>
  <g id="axes_1">
   <g id="patch_2">
    <path d="M 42.620313 458.279219 
L 273.270313 458.279219 
L 273.270313 10.999219 
L 42.620313 10.999219 
z
" style="fill: #ffffff"/>
   </g>
   <g id="matplotlib.axis_1">
    <g id="xtick_1">
     <g id="line2d_1">
      <defs>
       <path id="m9df0eaa3a2" d="M 0 0 
L 0 3.5 
" style="stroke: #000000; stroke-width: 0.8"/>
      </defs>
      <g>
       <use xlink:href="#m9df0eaa3a2" x="42.620313" y="458.279219" style="stroke: #000000; stroke-width: 0.8"/>
      </g>
     </g>
     <g id="text_1">
      <!-- 0 -->
      <g transform="translate(39.439063 472.877656) scale(0.1 -0.1)">
       <defs>
        <path id="DejaVuSans-30" d="M 2034 4250 
Q 1547 4250 1301 3770 
Q 1056 3291 1056 2328 
Q 1056 1369 1301 889 
Q 1547 409 2034 409 
Q 2525 409 2770 889 
Q 3016 1369 3016 2328 
Q 3016 3291 2770 3770 
Q 2525 4250 2034 4250 
z
M 2034 4750 
Q 2819 4750 3233 4129 
Q 3647 3509 3647 2328 
Q 3647 1150 3233 529 
Q 2819 -91 2034 -91 
Q 1250 -91 836 529 
Q 422 1150 422 2328 
Q 422 3509 836 4129 
Q 1250 4750 2034 4750 
z
" transform="scale(0.015625)"/>
       </defs>
       <use xlink:href="#DejaVuSans-30"/>
      </g>
     </g>
    </g>
    <g id="xtick_2">
     <g id="line2d_2">
      <g>
       <use xlink:href="#m9df0eaa3a2" x="93.875868" y="458.279219" style="stroke: #000000; stroke-width: 0.8"/>
      </g>
     </g>
     <g id="text_2">
      <!-- 100 -->
      <g transform="translate(84.332118 472.877656) scale(0.1 -0.1)">
       <defs>
        <path id="DejaVuSans-31" d="M 794 531 
L 1825 531 
L 1825 4091 
L 703 3866 
L 703 4441 
L 1819 4666 
L 2450 4666 
L 2450 531 
L 3481 531 
L 3481 0 
L 794 0 
L 794 531 
z
" transform="scale(0.015625)"/>
       </defs>
       <use xlink:href="#DejaVuSans-31"/>
       <use xlink:href="#DejaVuSans-30" transform="translate(63.623047 0)"/>
       <use xlink:href="#DejaVuSans-30" transform="translate(127.246094 0)"/>
      </g>
     </g>
    </g>
    <g id="xtick_3">
     <g id="line2d_3">
      <g>
       <use xlink:href="#m9df0eaa3a2" x="145.131424" y="458.279219" style="stroke: #000000; stroke-width: 0.8"/>
      </g>
     </g>
     <g id="text_3">
      <!-- 200 -->
      <g transform="translate(135.587674 472.877656) scale(0.1 -0.1)">
       <defs>
        <path id="DejaVuSans-32" d="M 1228 531 
L 3431 531 
L 3431 0 
L 469 0 
L 469 531 
Q 828 903 1448 1529 
Q 2069 2156 2228 2338 
Q 2531 2678 2651 2914 
Q 2772 3150 2772 3378 
Q 2772 3750 2511 3984 
Q 2250 4219 1831 4219 
Q 1534 4219 1204 4116 
Q 875 4013 500 3803 
L 500 4441 
Q 881 4594 1212 4672 
Q 1544 4750 1819 4750 
Q 2544 4750 2975 4387 
Q 3406 4025 3406 3419 
Q 3406 3131 3298 2873 
Q 3191 2616 2906 2266 
Q 2828 2175 2409 1742 
Q 1991 1309 1228 531 
z
" transform="scale(0.015625)"/>
       </defs>
       <use xlink:href="#DejaVuSans-32"/>
       <use xlink:href="#DejaVuSans-30" transform="translate(63.623047 0)"/>
       <use xlink:href="#DejaVuSans-30" transform="translate(127.246094 0)"/>
      </g>
     </g>
    </g>
    <g id="xtick_4">
     <g id="line2d_4">
      <g>
       <use xlink:href="#m9df0eaa3a2" x="196.386979" y="458.279219" style="stroke: #000000; stroke-width: 0.8"/>
      </g>
     </g>
     <g id="text_4">
      <!-- 300 -->
      <g transform="translate(186.843229 472.877656) scale(0.1 -0.1)">
       <defs>
        <path id="DejaVuSans-33" d="M 2597 2516 
Q 3050 2419 3304 2112 
Q 3559 1806 3559 1356 
Q 3559 666 3084 287 
Q 2609 -91 1734 -91 
Q 1441 -91 1130 -33 
Q 819 25 488 141 
L 488 750 
Q 750 597 1062 519 
Q 1375 441 1716 441 
Q 2309 441 2620 675 
Q 2931 909 2931 1356 
Q 2931 1769 2642 2001 
Q 2353 2234 1838 2234 
L 1294 2234 
L 1294 2753 
L 1863 2753 
Q 2328 2753 2575 2939 
Q 2822 3125 2822 3475 
Q 2822 3834 2567 4026 
Q 2313 4219 1838 4219 
Q 1578 4219 1281 4162 
Q 984 4106 628 3988 
L 628 4550 
Q 988 4650 1302 4700 
Q 1616 4750 1894 4750 
Q 2613 4750 3031 4423 
Q 3450 4097 3450 3541 
Q 3450 3153 3228 2886 
Q 3006 2619 2597 2516 
z
" transform="scale(0.015625)"/>
       </defs>
       <use xlink:href="#DejaVuSans-33"/>
       <use xlink:href="#DejaVuSans-30" transform="translate(63.623047 0)"/>
       <use xlink:href="#DejaVuSans-30" transform="translate(127.246094 0)"/>
      </g>
     </g>
    </g>
    <g id="xtick_5">
     <g id="line2d_5">
      <g>
       <use xlink:href="#m9df0eaa3a2" x="247.642535" y="458.279219" style="stroke: #000000; stroke-width: 0.8"/>
      </g>
     </g>
     <g id="text_5">
      <!-- 400 -->
      <g transform="translate(238.098785 472.877656) scale(0.1 -0.1)">
       <defs>
        <path id="DejaVuSans-34" d="M 2419 4116 
L 825 1625 
L 2419 1625 
L 2419 4116 
z
M 2253 4666 
L 3047 4666 
L 3047 1625 
L 3713 1625 
L 3713 1100 
L 3047 1100 
L 3047 0 
L 2419 0 
L 2419 1100 
L 313 1100 
L 313 1709 
L 2253 4666 
z
" transform="scale(0.015625)"/>
       </defs>
       <use xlink:href="#DejaVuSans-34"/>
       <use xlink:href="#DejaVuSans-30" transform="translate(63.623047 0)"/>
       <use xlink:href="#DejaVuSans-30" transform="translate(127.246094 0)"/>
      </g>
     </g>
    </g>
    <g id="text_6">
     <!-- Intercellular CO₂, C (µbar) -->
     <g transform="translate(93.384375 486.555781) scale(0.1 -0.1)">
      <defs>
       <path id="DejaVuSans-49" d="M 628 4666 
L 1259 4666 
L 1259 0 
L 628 0 
L 628 4666 
z
" transform="scale(0.015625)"/>
       <path id="DejaVuSans-6e" d="M 3513 2113 
L 3513 0 
L 2938 0 
L 2938 2094 
Q 2938 2591 2744 2837 
Q 2550 3084 2163 3084 
Q 1697 3084 1428 2787 
Q 1159 2491 1159 1978 
L 1159 0 
L 581 0 
L 581 3500 
L 1159 3500 
L 1159 2956 
Q 1366 3272 1645 3428 
Q 1925 3584 2291 3584 
Q 2894 3584 3203 3211 
Q 3513 2838 3513 2113 
z
" transform="scale(0.015625)"/>
       <path id="DejaVuSans-74" d="M 1172 4494 
L 1172 3500 
L 2356 3500 
L 2356 3053 
L 1172 3053 
L 1172 1153 
Q 1172 725 1289 603 
Q 1406 481 1766 481 
L 2356 481 
L 2356 0 
L 1766 0 
Q 1100 0 847 248 
Q 594 497 594 1153 
L 594 3053 
L 172 3053 
L 172 3500 
L 594 3500 
L 594 4494 
L 1172 4494 
z
" transform="scale(0.015625)"/>
       <path id="DejaVuSans-65" d="M 3597 1894 
L 3597 1613 
L 953 1613 
Q 991 1019 1311 708 
Q 1631 397 2203 397 
Q 2534 397 2845 478 
Q 3156 559 3463 722 
L 3463 178 
Q 3153 47 2828 -22 
Q 2503 -91 2169 -91 
Q 1331 -91 842 396 
Q 353 884 353 1716 
Q 353 2575 817 3079 
Q 1281 3584 2069 3584 
Q 2775 3584 3186 3129 
Q 3597 2675 3597 1894 
z
M 3022 2063 
Q 3016 2534 2758 2815 
Q 2500 3097 2075 3097 
Q 1594 3097 1305 2825 
Q 1016 2553 972 2059 
L 3022 2063 
z
" transform="scale(0.015625)"/>
       <path id="DejaVuSans-72" d="M 2631 2963 
Q 2534 3019 2420 3045 
Q 2306 3072 2169 3072 
Q 1681 3072 1420 2755 
Q 1159 2438 1159 1844 
L 1159 0 
L 581 0 
L 581 3500 
L 1159 3500 
L 1159 2956 
Q 1341 3275 1631 3429 
Q 1922 3584 2338 3584 
Q 2397 3584 2469 3576 
Q 2541 3569 2628 3553 
L 2631 2963 
z
" transform="scale(0.015625)"/>
       <path id="DejaVuSans-63" d="M 3122 3366 
L 3122 2828 
Q 2878 2963 2633 3030 
Q 2388 3097 2138 3097 
Q 1578 3097 1268 2742 
Q 959 2388 959 1747 
Q 959 1106 1268 751 
Q 1578 397 2138 397 
Q 2388 397 2633 464 
Q 2878 531 3122 666 
L 3122 134 
Q 2881 22 2623 -34 
Q 2366 -91 2075 -91 
Q 1284 -91 818 406 
Q 353 903 353 1747 
Q 353 2603 823 3093 
Q 1294 3584 2113 3584 
Q 2378 3584 2631 3529 
Q 2884 3475 3122 3366 
z
" transform="scale(0.015625)"/>
       <path id="DejaVuSans-6c" d="M 603 4863 
L 1178 4863 
L 1178 0 
L 603 0 
L 603 4863 
z
" transform="scale(0.015625)"/>
       <path id="DejaVuSans-75" d="M 544 1381 
L 544 3500 
L 1119 3500 
L 1119 1403 
Q 1119 906 1312 657 
Q 1506 409 1894 409 
Q 2359 409 2629 706 
Q 2900 1003 2900 1516 
L 2900 3500 
L 3475 3500 
L 3475 0 
L 2900 0 
L 2900 538 
Q 2691 219 2414 64 
Q 2138 -91 1772 -91 
Q 1169 -91 856 284 
Q 544 659 544 1381 
z
M 1991 3584 
L 1991 3584 
z
" transform="scale(0.015625)"/>
       <path id="DejaVuSans-61" d="M 2194 1759 
Q 1497 1759 1228 1600 
Q 959 1441 959 1056 
Q 959 750 1161 570 
Q 1363 391 1709 391 
Q 2188 391 2477 730 
Q 2766 1069 2766 1631 
L 2766 1759 
L 2194 1759 
z
M 3341 1997 
L 3341 0 
L 2766 0 
L 2766 531 
Q 2569 213 2275 61 
Q 1981 -91 1556 -91 
Q 1019 -91 701 211 
Q 384 513 384 1019 
Q 384 1609 779 1909 
Q 1175 2209 1959 2209 
L 2766 2209 
L 2766 2266 
Q 2766 2663 2505 2880 
Q 2244 3097 1772 3097 
Q 1472 3097 1187 3025 
Q 903 2953 641 2809 
L 641 3341 
Q 956 3463 1253 3523 
Q 1550 3584 1831 3584 
Q 2591 3584 2966 3190 
Q 3341 2797 3341 1997 
z
" transform="scale(0.015625)"/>
       <path id="DejaVuSans-20" transform="scale(0.015625)"/>
       <path id="DejaVuSans-43" d="M 4122 4306 
L 4122 3641 
Q 3803 3938 3442 4084 
Q 3081 4231 2675 4231 
Q 1875 4231 1450 3742 
Q 1025 3253 1025 2328 
Q 1025 1406 1450 917 
Q 1875 428 2675 428 
Q 3081 428 3442 575 
Q 3803 722 4122 1019 
L 4122 359 
Q 3791 134 3420 21 
Q 3050 -91 2638 -91 
Q 1578 -91 968 557 
Q 359 1206 359 2328 
Q 359 3453 968 4101 
Q 1578 4750 2638 4750 
Q 3056 4750 3426 4639 
Q 3797 4528 4122 4306 
z
" transform="scale(0.015625)"/>
       <path id="DejaVuSans-4f" d="M 2522 4238 
Q 1834 4238 1429 3725 
Q 1025 3213 1025 2328 
Q 1025 1447 1429 934 
Q 1834 422 2522 422 
Q 3209 422 3611 934 
Q 4013 1447 4013 2328 
Q 4013 3213 3611 3725 
Q 3209 4238 2522 4238 
z
M 2522 4750 
Q 3503 4750 4090 4092 
Q 4678 3434 4678 2328 
Q 4678 1225 4090 567 
Q 3503 -91 2522 -91 
Q 1538 -91 948 565 
Q 359 1222 359 2328 
Q 359 3434 948 4092 
Q 1538 4750 2522 4750 
z
" transform="scale(0.015625)"/>
       <path id="DejaVuSans-2082" d="M 838 332 
L 2163 332 
L 2163 -24 
L 294 -24 
L 294 319 
Q 400 416 597 591 
Q 1672 1544 1672 1838 
Q 1672 2044 1509 2170 
Q 1347 2297 1081 2297 
Q 919 2297 728 2242 
Q 538 2188 313 2079 
L 313 2463 
Q 553 2551 761 2594 
Q 969 2638 1147 2638 
Q 1600 2638 1872 2432 
Q 2144 2226 2144 1888 
Q 2144 1454 1109 566 
Q 934 416 838 332 
z
" transform="scale(0.015625)"/>
       <path id="DejaVuSans-2c" d="M 750 794 
L 1409 794 
L 1409 256 
L 897 -744 
L 494 -744 
L 750 256 
L 750 794 
z
" transform="scale(0.015625)"/>
       <path id="DejaVuSans-28" d="M 1984 4856 
Q 1566 4138 1362 3434 
Q 1159 2731 1159 2009 
Q 1159 1288 1364 580 
Q 1569 -128 1984 -844 
L 1484 -844 
Q 1016 -109 783 600 
Q 550 1309 550 2009 
Q 550 2706 781 3412 
Q 1013 4119 1484 4856 
L 1984 4856 
z
" transform="scale(0.015625)"/>
       <path id="DejaVuSans-b5" d="M 544 -1331 
L 544 3500 
L 1119 3500 
L 1119 1325 
Q 1119 872 1334 640 
Q 1550 409 1972 409 
Q 2434 409 2667 671 
Q 2900 934 2900 1459 
L 2900 3500 
L 3475 3500 
L 3475 806 
Q 3475 619 3529 530 
Q 3584 441 3700 441 
Q 3728 441 3778 458 
Q 3828 475 3916 513 
L 3916 50 
Q 3788 -22 3673 -56 
Q 3559 -91 3450 -91 
Q 3234 -91 3106 31 
Q 2978 153 2931 403 
Q 2775 156 2548 32 
Q 2322 -91 2016 -91 
Q 1697 -91 1473 31 
Q 1250 153 1119 397 
L 1119 -1331 
L 544 -1331 
z
" transform="scale(0.015625)"/>
       <path id="DejaVuSans-62" d="M 3116 1747 
Q 3116 2381 2855 2742 
Q 2594 3103 2138 3103 
Q 1681 3103 1420 2742 
Q 1159 2381 1159 1747 
Q 1159 1113 1420 752 
Q 1681 391 2138 391 
Q 2594 391 2855 752 
Q 3116 1113 3116 1747 
z
M 1159 2969 
Q 1341 3281 1617 3432 
Q 1894 3584 2278 3584 
Q 2916 3584 3314 3078 
Q 3713 2572 3713 1747 
Q 3713 922 3314 415 
Q 2916 -91 2278 -91 
Q 1894 -91 1617 61 
Q 1341 213 1159 525 
L 1159 0 
L 581 0 
L 581 4863 
L 1159 4863 
L 1159 2969 
z
" transform="scale(0.015625)"/>
       <path id="DejaVuSans-29" d="M 513 4856 
L 1013 4856 
Q 1481 4119 1714 3412 
Q 1947 2706 1947 2009 
Q 1947 1309 1714 600 
Q 1481 -109 1013 -844 
L 513 -844 
Q 928 -128 1133 580 
Q 1338 1288 1338 2009 
Q 1338 2731 1133 3434 
Q 928 4138 513 4856 
z
" transform="scale(0.015625)"/>
      </defs>
      <use xlink:href="#DejaVuSans-49"/>
      <use xlink:href="#DejaVuSans-6e" transform="translate(29.492188 0)"/>
      <use xlink:href="#DejaVuSans-74" transform="translate(92.871094 0)"/>
      <use xlink:href="#DejaVuSans-65" transform="translate(132.080078 0)"/>
      <use xlink:href="#DejaVuSans-72" transform="translate(193.603516 0)"/>
      <use xlink:href="#DejaVuSans-63" transform="translate(232.466797 0)"/>
      <use xlink:href="#DejaVuSans-65" transform="translate(287.447266 0)"/>
      <use xlink:href="#DejaVuSans-6c" transform="translate(348.970703 0)"/>
      <use xlink:href="#DejaVuSans-6c" transform="translate(376.753906 0)"/>
      <use xlink:href="#DejaVuSans-75" transform="translate(404.537109 0)"/>
      <use xlink:href="#DejaVuSans-6c" transform="translate(467.916016 0)"/>
      <use xlink:href="#DejaVuSans-61" transform="translate(495.699219 0)"/>
      <use xlink:href="#DejaVuSans-72" transform="translate(556.978516 0)"/>
      <use xlink:href="#DejaVuSans-20" transform="translate(598.091797 0)"/>
      <use xlink:href="#DejaVuSans-43" transform="translate(629.878906 0)"/>
      <use xlink:href="#DejaVuSans-4f" transform="translate(699.703125 0)"/>
      <use xlink:href="#DejaVuSans-2082" transform="translate(778.414062 0)"/>
      <use xlink:href="#DejaVuSans-2c" transform="translate(818.501953 0)"/>
      <use xlink:href="#DejaVuSans-20" transform="translate(850.289062 0)"/>
      <use xlink:href="#DejaVuSans-43" transform="translate(882.076172 0)"/>
      <use xlink:href="#DejaVuSans-20" transform="translate(951.900391 0)"/>
      <use xlink:href="#DejaVuSans-28" transform="translate(983.6875 0)"/>
      <use xlink:href="#DejaVuSans-b5" transform="translate(1022.701172 0)"/>
      <use xlink:href="#DejaVuSans-62" transform="translate(1086.324219 0)"/>
      <use xlink:href="#DejaVuSans-61" transform="translate(1149.800781 0)"/>
      <use xlink:href="#DejaVuSans-72" transform="translate(1211.080078 0)"/>
      <use xlink:href="#DejaVuSans-29" transform="translate(1252.193359 0)"/>
     </g>
    </g>
   </g>
   <g id="matplotlib.axis_2">
    <g id="ytick_1">
     <g id="line2d_6">
      <defs>
       <path id="m22a7090707" d="M 0 0 
L -3.5 0 
" style="stroke: #000000; stroke-width: 0.8"/>
      </defs>
      <g>
       <use xlink:href="#m22a7090707" x="42.620313" y="458.279219" style="stroke: #000000; stroke-width: 0.8"/>
      </g>
     </g>
     <g id="text_7">
      <!-- −5 -->
      <g transform="translate(20.878125 462.078437) scale(0.1 -0.1)">
       <defs>
        <path id="DejaVuSans-2212" d="M 678 2272 
L 4684 2272 
L 4684 1741 
L 678 1741 
L 678 2272 
z
" transform="scale(0.015625)"/>
        <path id="DejaVuSans-35" d="M 691 4666 
L 3169 4666 
L 3169 4134 
L 1269 4134 
L 1269 2991 
Q 1406 3038 1543 3061 
Q 1681 3084 1819 3084 
Q 2600 3084 3056 2656 
Q 3513 2228 3513 1497 
Q 3513 744 3044 326 
Q 2575 -91 1722 -91 
Q 1428 -91 1123 -41 
Q 819 9 494 109 
L 494 744 
Q 775 591 1075 516 
Q 1375 441 1709 441 
Q 2250 441 2565 725 
Q 2881 1009 2881 1497 
Q 2881 1984 2565 2268 
Q 2250 2553 1709 2553 
Q 1456 2553 1204 2497 
Q 953 2441 691 2322 
L 691 4666 
z
" transform="scale(0.015625)"/>
       </defs>
       <use xlink:href="#DejaVuSans-2212"/>
       <use xlink:href="#DejaVuSans-35" transform="translate(83.789062 0)"/>
      </g>
     </g>
    </g>
    <g id="ytick_2">
     <g id="line2d_7">
      <g>
       <use xlink:href="#m22a7090707" x="42.620313" y="394.382076" style="stroke: #000000; stroke-width: 0.8"/>
      </g>
     </g>
     <g id="text_8">
      <!-- 0 -->
      <g transform="translate(29.257813 398.181295) scale(0.1 -0.1)">
       <use xlink:href="#DejaVuSans-30"/>
      </g>
     </g>
    </g>
    <g id="ytick_3">
     <g id="line2d_8">
      <g>
       <use xlink:href="#m22a7090707" x="42.620313" y="330.484933" style="stroke: #000000; stroke-width: 0.8"/>
      </g>
     </g>
     <g id="text_9">
      <!-- 5 -->
      <g transform="translate(29.257813 334.284152) scale(0.1 -0.1)">
       <use xlink:href="#DejaVuSans-35"/>
      </g>
     </g>
    </g>
    <g id="ytick_4">
     <g id="line2d_9">
      <g>
       <use xlink:href="#m22a7090707" x="42.620313" y="266.58779" style="stroke: #000000; stroke-width: 0.8"/>
      </g>
     </g>
     <g id="text_10">
      <!-- 10 -->
      <g transform="translate(22.895313 270.387009) scale(0.1 -0.1)">
       <use xlink:href="#DejaVuSans-31"/>
       <use xlink:href="#DejaVuSans-30" transform="translate(63.623047 0)"/>
      </g>
     </g>
    </g>
    <g id="ytick_5">
     <g id="line2d_10">
      <g>
       <use xlink:href="#m22a7090707" x="42.620313" y="202.690647" style="stroke: #000000; stroke-width: 0.8"/>
      </g>
     </g>
     <g id="text_11">
      <!-- 15 -->
      <g transform="translate(22.895313 206.489866) scale(0.1 -0.1)">
       <use xlink:href="#DejaVuSans-31"/>
       <use xlink:href="#DejaVuSans-35" transform="translate(63.623047 0)"/>
      </g>
     </g>
    </g>
    <g id="ytick_6">
     <g id="line2d_11">
      <g>
       <use xlink:href="#m22a7090707" x="42.620313" y="138.793504" style="stroke: #000000; stroke-width: 0.8"/>
      </g>
     </g>
     <g id="text_12">
      <!-- 20 -->
      <g transform="translate(22.895313 142.592723) scale(0.1 -0.1)">
       <use xlink:href="#DejaVuSans-32"/>
       <use xlink:href="#DejaVuSans-30" transform="translate(63.623047 0)"/>
      </g>
     </g>
    </g>
    <g id="ytick_7">
     <g id="line2d_12">
      <g>
       <use xlink:href="#m22a7090707" x="42.620313" y="74.896362" style="stroke: #000000; stroke-width: 0.8"/>
      </g>
     </g>
     <g id="text_13">
      <!-- 25 -->
      <g transform="translate(22.895313 78.69558) scale(0.1 -0.1)">
       <use xlink:href="#DejaVuSans-32"/>
       <use xlink:href="#DejaVuSans-35" transform="translate(63.623047 0)"/>
      </g>
     </g>
    </g>
    <g id="ytick_8">
     <g id="line2d_13">
      <g>
       <use xlink:href="#m22a7090707" x="42.620313" y="10.999219" style="stroke: #000000; stroke-width: 0.8"/>
      </g>
     </g>
     <g id="text_14">
      <!-- 30 -->
      <g transform="translate(22.895313 14.798437) scale(0.1 -0.1)">
       <use xlink:href="#DejaVuSans-33"/>
       <use xlink:href="#DejaVuSans-30" transform="translate(63.623047 0)"/>
      </g>
     </g>
    </g>
    <g id="text_15">
     <!-- CO2 fluxes (μmol m⁻² s⁻¹) -->
     <g transform="translate(14.798438 299.570469) rotate(-90) scale(0.1 -0.1)">
      <defs>
       <path id="DejaVuSans-66" d="M 2375 4863 
L 2375 4384 
L 1825 4384 
Q 1516 4384 1395 4259 
Q 1275 4134 1275 3809 
L 1275 3500 
L 2222 3500 
L 2222 3053 
L 1275 3053 
L 1275 0 
L 697 0 
L 697 3053 
L 147 3053 
L 147 3500 
L 697 3500 
L 697 3744 
Q 697 4328 969 4595 
Q 1241 4863 1831 4863 
L 2375 4863 
z
" transform="scale(0.015625)"/>
       <path id="DejaVuSans-78" d="M 3513 3500 
L 2247 1797 
L 3578 0 
L 2900 0 
L 1881 1375 
L 863 0 
L 184 0 
L 1544 1831 
L 300 3500 
L 978 3500 
L 1906 2253 
L 2834 3500 
L 3513 3500 
z
" transform="scale(0.015625)"/>
       <path id="DejaVuSans-73" d="M 2834 3397 
L 2834 2853 
Q 2591 2978 2328 3040 
Q 2066 3103 1784 3103 
Q 1356 3103 1142 2972 
Q 928 2841 928 2578 
Q 928 2378 1081 2264 
Q 1234 2150 1697 2047 
L 1894 2003 
Q 2506 1872 2764 1633 
Q 3022 1394 3022 966 
Q 3022 478 2636 193 
Q 2250 -91 1575 -91 
Q 1294 -91 989 -36 
Q 684 19 347 128 
L 347 722 
Q 666 556 975 473 
Q 1284 391 1588 391 
Q 1994 391 2212 530 
Q 2431 669 2431 922 
Q 2431 1156 2273 1281 
Q 2116 1406 1581 1522 
L 1381 1569 
Q 847 1681 609 1914 
Q 372 2147 372 2553 
Q 372 3047 722 3315 
Q 1072 3584 1716 3584 
Q 2034 3584 2315 3537 
Q 2597 3491 2834 3397 
z
" transform="scale(0.015625)"/>
       <path id="DejaVuSans-3bc" d="M 544 -1331 
L 544 3500 
L 1119 3500 
L 1119 1325 
Q 1119 872 1334 640 
Q 1550 409 1972 409 
Q 2434 409 2667 671 
Q 2900 934 2900 1459 
L 2900 3500 
L 3475 3500 
L 3475 806 
Q 3475 619 3529 530 
Q 3584 441 3700 441 
Q 3728 441 3778 458 
Q 3828 475 3916 513 
L 3916 50 
Q 3788 -22 3673 -56 
Q 3559 -91 3450 -91 
Q 3234 -91 3106 31 
Q 2978 153 2931 403 
Q 2775 156 2548 32 
Q 2322 -91 2016 -91 
Q 1697 -91 1473 31 
Q 1250 153 1119 397 
L 1119 -1331 
L 544 -1331 
z
" transform="scale(0.015625)"/>
       <path id="DejaVuSans-6d" d="M 3328 2828 
Q 3544 3216 3844 3400 
Q 4144 3584 4550 3584 
Q 5097 3584 5394 3201 
Q 5691 2819 5691 2113 
L 5691 0 
L 5113 0 
L 5113 2094 
Q 5113 2597 4934 2840 
Q 4756 3084 4391 3084 
Q 3944 3084 3684 2787 
Q 3425 2491 3425 1978 
L 3425 0 
L 2847 0 
L 2847 2094 
Q 2847 2600 2669 2842 
Q 2491 3084 2119 3084 
Q 1678 3084 1418 2786 
Q 1159 2488 1159 1978 
L 1159 0 
L 581 0 
L 581 3500 
L 1159 3500 
L 1159 2956 
Q 1356 3278 1631 3431 
Q 1906 3584 2284 3584 
Q 2666 3584 2933 3390 
Q 3200 3197 3328 2828 
z
" transform="scale(0.015625)"/>
       <path id="DejaVuSans-6f" d="M 1959 3097 
Q 1497 3097 1228 2736 
Q 959 2375 959 1747 
Q 959 1119 1226 758 
Q 1494 397 1959 397 
Q 2419 397 2687 759 
Q 2956 1122 2956 1747 
Q 2956 2369 2687 2733 
Q 2419 3097 1959 3097 
z
M 1959 3584 
Q 2709 3584 3137 3096 
Q 3566 2609 3566 1747 
Q 3566 888 3137 398 
Q 2709 -91 1959 -91 
Q 1206 -91 779 398 
Q 353 888 353 1747 
Q 353 2609 779 3096 
Q 1206 3584 1959 3584 
z
" transform="scale(0.015625)"/>
       <path id="DejaVuSans-207b" d="M 428 3359 
L 2950 3359 
L 2950 3063 
L 428 3063 
L 428 3359 
z
" transform="scale(0.015625)"/>
       <path id="DejaVuSans-b2" d="M 838 2444 
L 2163 2444 
L 2163 2088 
L 294 2088 
L 294 2431 
Q 400 2528 597 2703 
Q 1672 3656 1672 3950 
Q 1672 4156 1509 4282 
Q 1347 4409 1081 4409 
Q 919 4409 728 4354 
Q 538 4300 313 4191 
L 313 4575 
Q 553 4663 761 4706 
Q 969 4750 1147 4750 
Q 1600 4750 1872 4544 
Q 2144 4338 2144 4000 
Q 2144 3566 1109 2678 
Q 934 2528 838 2444 
z
" transform="scale(0.015625)"/>
       <path id="DejaVuSans-b9" d="M 488 2431 
L 1125 2431 
L 1125 4341 
L 428 4213 
L 428 4575 
L 1147 4697 
L 1575 4697 
L 1575 2431 
L 2216 2431 
L 2216 2088 
L 488 2088 
L 488 2431 
z
" transform="scale(0.015625)"/>
      </defs>
      <use xlink:href="#DejaVuSans-43"/>
      <use xlink:href="#DejaVuSans-4f" transform="translate(69.824219 0)"/>
      <use xlink:href="#DejaVuSans-32" transform="translate(148.535156 0)"/>
      <use xlink:href="#DejaVuSans-20" transform="translate(212.158203 0)"/>
      <use xlink:href="#DejaVuSans-66" transform="translate(243.945312 0)"/>
      <use xlink:href="#DejaVuSans-6c" transform="translate(279.150391 0)"/>
      <use xlink:href="#DejaVuSans-75" transform="translate(306.933594 0)"/>
      <use xlink:href="#DejaVuSans-78" transform="translate(370.3125 0)"/>
      <use xlink:href="#DejaVuSans-65" transform="translate(426.367188 0)"/>
      <use xlink:href="#DejaVuSans-73" transform="translate(487.890625 0)"/>
      <use xlink:href="#DejaVuSans-20" transform="translate(539.990234 0)"/>
      <use xlink:href="#DejaVuSans-28" transform="translate(571.777344 0)"/>
      <use xlink:href="#DejaVuSans-3bc" transform="translate(610.791016 0)"/>
      <use xlink:href="#DejaVuSans-6d" transform="translate(674.414062 0)"/>
      <use xlink:href="#DejaVuSans-6f" transform="translate(771.826172 0)"/>
      <use xlink:href="#DejaVuSans-6c" transform="translate(833.007812 0)"/>
      <use xlink:href="#DejaVuSans-20" transform="translate(860.791016 0)"/>
      <use xlink:href="#DejaVuSans-6d" transform="translate(892.578125 0)"/>
      <use xlink:href="#DejaVuSans-207b" transform="translate(989.990234 0)"/>
      <use xlink:href="#DejaVuSans-b2" transform="translate(1042.773438 0)"/>
      <use xlink:href="#DejaVuSans-20" transform="translate(1082.861328 0)"/>
      <use xlink:href="#DejaVuSans-73" transform="translate(1114.648438 0)"/>
      <use xlink:href="#DejaVuSans-207b" transform="translate(1166.748047 0)"/>
      <use xlink:href="#DejaVuSans-b9" transform="translate(1219.53125 0)"/>
      <use xlink:href="#DejaVuSans-29" transform="translate(1259.619141 0)"/>
     </g>
    </g>
   </g>
   <g id="line2d_14">
    <path d="M 43.132868 457.849025 
L 45.457489 450.06268 
L 47.782109 442.368926 
L 50.10673 434.76612 
L 52.431351 427.252659 
L 54.755971 419.826978 
L 57.080592 412.487547 
L 59.405213 405.232873 
L 61.729833 398.061494 
L 64.054454 390.971986 
L 66.379075 383.962954 
L 68.703695 377.033035 
L 71.028316 370.180898 
L 73.352937 363.40524 
L 75.677557 356.704789 
L 78.002178 350.078298 
L 80.326798 343.524549 
L 82.651419 337.042353 
L 84.97604 330.630543 
L 87.30066 324.287978 
L 89.625281 318.013544 
L 91.949902 311.806149 
L 94.274522 305.664723 
L 96.599143 299.588221 
L 98.923764 293.575618 
L 101.248384 287.625912 
L 103.573005 281.738121 
L 105.897626 275.911284 
L 108.222246 270.144458 
L 110.546867 264.436722 
L 112.871488 258.787173 
L 115.196108 253.194924 
L 117.520729 247.659108 
L 119.84535 242.178876 
L 122.16997 236.753394 
L 124.494591 231.381847 
L 126.819211 226.063433 
L 129.143832 220.797369 
L 131.468453 215.582884 
L 133.793073 210.419226 
L 136.117694 205.305655 
L 138.442315 200.241445 
L 140.766935 195.225884 
L 143.091556 190.258277 
L 145.416177 185.337937 
L 147.740797 180.464194 
L 150.065418 175.636388 
L 152.390039 170.853874 
L 154.714659 166.116016 
L 157.03928 161.422193 
L 159.363901 156.771793 
L 161.688521 152.164217 
L 164.013142 147.598875 
L 166.337763 143.07519 
L 168.662383 138.592593 
L 170.987004 134.150529 
L 173.311625 131.40828 
L 175.636245 129.48018 
L 177.960866 127.60264 
L 180.285486 125.773714 
L 182.610107 123.991552 
L 184.934728 122.254399 
L 187.259348 120.560584 
L 189.583969 118.908516 
L 191.90859 117.296682 
L 194.23321 115.723641 
L 196.557831 114.188017 
L 198.882452 112.688501 
L 201.207072 111.223842 
L 203.531693 109.792846 
L 205.856314 108.394372 
L 208.180934 107.027332 
L 210.505555 105.690682 
L 212.830176 104.383427 
L 215.154796 103.104613 
L 217.479417 101.853326 
L 219.804038 100.628691 
L 222.128658 99.429871 
L 224.453279 98.256062 
L 226.777899 97.106493 
L 229.10252 95.980424 
L 231.427141 94.877145 
L 233.751761 93.795974 
L 236.076382 92.736257 
L 238.401003 91.697363 
L 240.725623 90.678689 
L 243.050244 89.67965 
L 245.374865 88.699688 
L 247.699485 87.738263 
L 250.024106 86.794856 
L 252.348727 85.868968 
L 254.673347 84.960116 
L 256.997968 84.067837 
L 259.322589 83.191682 
L 261.647209 82.33122 
L 263.97183 81.486035 
L 266.296451 80.655725 
L 268.621071 79.839902 
L 270.945692 79.03819 
L 273.270313 78.250229 
" clip-path="url(#paa2dae2ab3)" style="fill: none; stroke: #000000; stroke-width: 1.5; stroke-linecap: square"/>
   </g>
   <g id="line2d_15">
    <path d="M 43.132868 392.720488 
L 45.457489 385.239613 
L 47.782109 377.847695 
L 50.10673 370.543158 
L 52.431351 363.324461 
L 54.755971 356.190099 
L 57.080592 349.138604 
L 59.405213 342.168541 
L 61.729833 335.278505 
L 64.054454 328.467129 
L 66.379075 321.73307 
L 68.703695 315.075022 
L 71.028316 308.491704 
L 73.352937 301.981864 
L 75.677557 295.54428 
L 78.002178 289.177756 
L 80.326798 282.88112 
L 82.651419 276.653229 
L 84.97604 270.492963 
L 87.30066 264.399227 
L 89.625281 258.370947 
L 91.949902 252.407076 
L 94.274522 246.506587 
L 96.599143 240.668474 
L 98.923764 234.891754 
L 101.248384 229.175464 
L 103.573005 223.518659 
L 105.897626 217.920417 
L 108.222246 212.379832 
L 110.546867 206.896018 
L 112.871488 201.468108 
L 115.196108 196.095251 
L 117.520729 190.776613 
L 119.84535 185.511378 
L 122.16997 180.298745 
L 124.494591 175.137931 
L 126.819211 170.028166 
L 129.143832 164.968697 
L 131.468453 159.958784 
L 133.793073 154.997703 
L 136.117694 150.084744 
L 138.442315 145.21921 
L 140.766935 140.400417 
L 143.091556 135.627696 
L 145.416177 130.900388 
L 147.740797 126.217848 
L 150.065418 121.579444 
L 152.390039 116.984554 
L 154.714659 112.432569 
L 157.03928 107.922891 
L 159.363901 103.454933 
L 161.688521 99.028118 
L 164.013142 94.641881 
L 166.337763 90.295667 
L 168.662383 85.988929 
L 170.987004 81.721133 
L 173.311625 79.379091 
L 175.636245 77.944712 
L 177.960866 76.548359 
L 180.285486 75.18855 
L 182.610107 73.863882 
L 184.934728 72.573018 
L 187.259348 71.31469 
L 189.583969 70.087691 
L 191.90859 68.890874 
L 194.23321 67.723145 
L 196.557831 66.583463 
L 198.882452 65.470835 
L 201.207072 64.384316 
L 203.531693 63.323001 
L 205.856314 62.28603 
L 208.180934 61.272578 
L 210.505555 60.281858 
L 212.830176 59.313118 
L 215.154796 58.365638 
L 217.479417 57.43873 
L 219.804038 56.531732 
L 222.128658 55.644015 
L 224.453279 54.774971 
L 226.777899 53.924021 
L 229.10252 53.090608 
L 231.427141 52.274197 
L 233.751761 51.474276 
L 236.076382 50.690352 
L 238.401003 49.921951 
L 240.725623 49.168619 
L 243.050244 48.429919 
L 245.374865 47.70543 
L 247.699485 46.994746 
L 250.024106 46.297479 
L 252.348727 45.613254 
L 254.673347 44.941709 
L 256.997968 44.282496 
L 259.322589 43.63528 
L 261.647209 42.999737 
L 263.97183 42.375554 
L 266.296451 41.762432 
L 268.621071 41.16008 
L 270.945692 40.568216 
L 273.270313 39.986571 
" clip-path="url(#paa2dae2ab3)" style="fill: none; stroke: #000000; stroke-width: 1.5; stroke-linecap: square"/>
   </g>
   <g id="line2d_16">
    <path d="M 43.132868 343.310911 
L 45.457489 343.61638 
L 47.782109 343.918216 
L 50.10673 344.216485 
L 52.431351 344.511249 
L 54.755971 344.802568 
L 57.080592 345.090504 
L 59.405213 345.375115 
L 61.729833 345.656458 
L 64.054454 345.93459 
L 66.379075 346.209564 
L 68.703695 346.481434 
L 71.028316 346.750253 
L 73.352937 347.016071 
L 75.677557 347.278939 
L 78.002178 347.538906 
L 80.326798 347.796018 
L 82.651419 348.050324 
L 84.97604 348.301868 
L 87.30066 348.550696 
L 89.625281 348.79685 
L 91.949902 349.040375 
L 94.274522 349.281312 
L 96.599143 349.519701 
L 98.923764 349.755584 
L 101.248384 349.988999 
L 103.573005 350.219985 
L 105.897626 350.44858 
L 108.222246 350.674821 
L 110.546867 350.898743 
L 112.871488 351.120383 
L 115.196108 351.339775 
L 117.520729 351.556952 
L 119.84535 351.771949 
L 122.16997 351.984799 
L 124.494591 352.195532 
L 126.819211 352.404181 
L 129.143832 352.610776 
L 131.468453 352.815347 
L 133.793073 353.017924 
L 136.117694 353.218537 
L 138.442315 353.417213 
L 140.766935 353.61398 
L 143.091556 353.808866 
L 145.416177 354.001898 
L 147.740797 354.193102 
L 150.065418 354.382503 
L 152.390039 354.570128 
L 154.714659 354.756001 
L 157.03928 354.940146 
L 159.363901 355.122588 
L 161.688521 355.303349 
L 164.013142 355.482454 
L 166.337763 355.659924 
L 168.662383 355.835783 
L 170.987004 356.010051 
L 173.311625 356.410259 
L 175.636245 356.903979 
L 177.960866 357.385166 
L 180.285486 357.854284 
L 182.610107 358.311777 
L 184.934728 358.758066 
L 187.259348 359.193554 
L 189.583969 359.618623 
L 191.90859 360.033639 
L 194.23321 360.438951 
L 196.557831 360.834893 
L 198.882452 361.221781 
L 201.207072 361.599921 
L 203.531693 361.969603 
L 205.856314 362.331105 
L 208.180934 362.684694 
L 210.505555 363.030623 
L 212.830176 363.369138 
L 215.154796 363.700473 
L 217.479417 364.024851 
L 219.804038 364.342488 
L 222.128658 364.65359 
L 224.453279 364.958356 
L 226.777899 365.256976 
L 229.10252 365.549632 
L 231.427141 365.8365 
L 233.751761 366.117749 
L 236.076382 366.393542 
L 238.401003 366.664035 
L 240.725623 366.929378 
L 243.050244 367.189716 
L 245.374865 367.445189 
L 247.699485 367.69593 
L 250.024106 367.94207 
L 252.348727 368.183734 
L 254.673347 368.42104 
L 256.997968 368.654107 
L 259.322589 368.883045 
L 261.647209 369.107964 
L 263.97183 369.328966 
L 266.296451 369.546154 
L 268.621071 369.759625 
L 270.945692 369.969473 
L 273.270313 370.175789 
" clip-path="url(#paa2dae2ab3)" style="fill: none; stroke: #000000; stroke-width: 1.5; stroke-linecap: square"/>
   </g>
   <g id="line2d_17">
    <path d="M 43.132868 409.662026 
L 45.457489 397.804156 
L 47.782109 386.168512 
L 50.10673 374.748904 
L 52.431351 363.539371 
L 54.755971 352.534169 
L 57.080592 341.727761 
L 59.405213 331.114809 
L 61.729833 320.690165 
L 64.054454 310.448861 
L 66.379075 300.386103 
L 68.703695 290.49726 
L 71.028316 280.777865 
L 73.352937 271.223597 
L 75.677557 261.830285 
L 78.002178 252.593895 
L 80.326798 243.510528 
L 82.651419 234.576411 
L 84.97604 225.787897 
L 87.30066 217.141455 
L 89.625281 208.633667 
L 91.949902 200.261225 
L 94.274522 192.020924 
L 96.599143 183.909661 
L 98.923764 175.924428 
L 101.248384 168.06231 
L 103.573005 160.320483 
L 105.897626 152.696206 
L 108.222246 145.186822 
L 110.546867 137.789753 
L 112.871488 130.502499 
L 115.196108 123.322632 
L 117.520729 116.247796 
L 119.84535 109.275703 
L 122.16997 102.40413 
L 124.494591 95.63092 
L 126.819211 88.953976 
L 129.143832 82.371259 
L 131.468453 75.880789 
L 133.793073 69.480641 
L 136.117694 63.168941 
L 138.442315 56.94387 
L 140.766935 50.803656 
L 143.091556 44.746575 
L 145.416177 38.77095 
L 147.740797 33.449803 
L 150.065418 32.461423 
L 152.390039 31.514164 
L 154.714659 30.605538 
L 157.03928 29.733255 
L 159.363901 28.895195 
L 161.688521 28.089403 
L 164.013142 27.314067 
L 166.337763 26.567505 
L 168.662383 25.848159 
L 170.987004 25.154579 
L 173.311625 24.485415 
L 175.636245 23.839409 
L 177.960866 23.215388 
L 180.285486 22.612256 
L 182.610107 22.028988 
L 184.934728 21.464625 
L 187.259348 20.918269 
L 189.583969 20.389075 
L 191.90859 19.876252 
L 194.23321 19.379057 
L 196.557831 18.896789 
L 198.882452 18.42879 
L 201.207072 17.974439 
L 203.531693 17.533151 
L 205.856314 17.104371 
L 208.180934 16.68758 
L 210.505555 16.282282 
L 212.830176 15.888012 
L 215.154796 15.504326 
L 217.479417 15.130807 
L 219.804038 14.767056 
L 222.128658 14.412698 
L 224.453279 14.067374 
L 226.777899 13.730744 
L 229.10252 13.402486 
L 231.427141 13.082292 
L 233.751761 12.76987 
L 236.076382 12.46494 
L 238.401003 12.167238 
L 240.725623 11.87651 
L 243.050244 11.592514 
L 245.374865 11.315021 
L 247.699485 11.04381 
L 250.024106 10.778671 
L 252.348727 10.519402 
L 254.673347 10.265812 
L 256.997968 10.017717 
L 259.322589 9.774939 
L 261.647209 9.537311 
L 263.97183 9.304671 
L 266.296451 9.076863 
L 268.621071 8.853739 
L 270.945692 8.635157 
L 273.270313 8.420979 
" clip-path="url(#paa2dae2ab3)" style="fill: none; stroke-dasharray: 5.55,2.4; stroke-dashoffset: 0; stroke: #000000; stroke-width: 1.5"/>
   </g>
   <g id="patch_3">
    <path d="M 42.620313 458.279219 
L 42.620313 10.999219 
" style="fill: none; stroke: #000000; stroke-width: 0.8; stroke-linejoin: miter; stroke-linecap: square"/>
   </g>
   <g id="patch_4">
    <path d="M 273.270313 458.279219 
L 273.270313 10.999219 
" style="fill: none; stroke: #000000; stroke-width: 0.8; stroke-linejoin: miter; stroke-linecap: square"/>
   </g>
   <g id="patch_5">
    <path d="M 42.620313 458.279219 
L 273.270313 458.279219 
" style="fill: none; stroke: #000000; stroke-width: 0.8; stroke-linejoin: miter; stroke-linecap: square"/>
   </g>
   <g id="patch_6">
    <path d="M 42.620313 10.999219 
L 273.270313 10.999219 
" style="fill: none; stroke: #000000; stroke-width: 0.8; stroke-linejoin: miter; stroke-linecap: square"/>
   </g>
   <g id="text_16">
    <!-- O=10 mbar -->
    <g transform="translate(61.020833 81.637158) scale(0.1 -0.1)">
     <defs>
      <path id="DejaVuSans-3d" d="M 678 2906 
L 4684 2906 
L 4684 2381 
L 678 2381 
L 678 2906 
z
M 678 1631 
L 4684 1631 
L 4684 1100 
L 678 1100 
L 678 1631 
z
" transform="scale(0.015625)"/>
     </defs>
     <use xlink:href="#DejaVuSans-4f"/>
     <use xlink:href="#DejaVuSans-3d" transform="translate(78.710938 0)"/>
     <use xlink:href="#DejaVuSans-31" transform="translate(162.5 0)"/>
     <use xlink:href="#DejaVuSans-30" transform="translate(226.123047 0)"/>
     <use xlink:href="#DejaVuSans-20" transform="translate(289.746094 0)"/>
     <use xlink:href="#DejaVuSans-6d" transform="translate(321.533203 0)"/>
     <use xlink:href="#DejaVuSans-62" transform="translate(418.945312 0)"/>
     <use xlink:href="#DejaVuSans-61" transform="translate(482.421875 0)"/>
     <use xlink:href="#DejaVuSans-72" transform="translate(543.701172 0)"/>
    </g>
   </g>
   <g id="text_17">
    <!-- O=10 mbar -->
    <g transform="translate(119.503646 275.33617) scale(0.1 -0.1)">
     <use xlink:href="#DejaVuSans-4f"/>
     <use xlink:href="#DejaVuSans-3d" transform="translate(78.710938 0)"/>
     <use xlink:href="#DejaVuSans-31" transform="translate(162.5 0)"/>
     <use xlink:href="#DejaVuSans-30" transform="translate(226.123047 0)"/>
     <use xlink:href="#DejaVuSans-20" transform="translate(289.746094 0)"/>
     <use xlink:href="#DejaVuSans-6d" transform="translate(321.533203 0)"/>
     <use xlink:href="#DejaVuSans-62" transform="translate(418.945312 0)"/>
     <use xlink:href="#DejaVuSans-61" transform="translate(482.421875 0)"/>
     <use xlink:href="#DejaVuSans-72" transform="translate(543.701172 0)"/>
    </g>
   </g>
   <g id="text_18">
    <!-- A -->
    <g transform="translate(167.338889 119.291413) scale(0.1 -0.1)">
     <defs>
      <path id="DejaVuSans-41" d="M 2188 4044 
L 1331 1722 
L 3047 1722 
L 2188 4044 
z
M 1831 4666 
L 2547 4666 
L 4325 0 
L 3669 0 
L 3244 1197 
L 1141 1197 
L 716 0 
L 50 0 
L 1831 4666 
z
" transform="scale(0.015625)"/>
     </defs>
     <use xlink:href="#DejaVuSans-41"/>
    </g>
   </g>
   <g id="text_19">
    <!-- Vc -->
    <g transform="translate(164.58967 66.862017) scale(0.1 -0.1)">
     <defs>
      <path id="DejaVuSans-56" d="M 1831 0 
L 50 4666 
L 709 4666 
L 2188 738 
L 3669 4666 
L 4325 4666 
L 2547 0 
L 1831 0 
z
" transform="scale(0.015625)"/>
     </defs>
     <use xlink:href="#DejaVuSans-56"/>
     <use xlink:href="#DejaVuSans-63" transform="translate(68.408203 0)"/>
    </g>
   </g>
   <g id="text_20">
    <!-- 0.5 $\times$Vo -->
    <g transform="translate(150.509201 341.150935) scale(0.1 -0.1)">
     <defs>
      <path id="DejaVuSans-2e" d="M 684 794 
L 1344 794 
L 1344 0 
L 684 0 
L 684 794 
z
" transform="scale(0.015625)"/>
      <path id="DejaVuSans-d7" d="M 4488 3438 
L 3059 2003 
L 4488 575 
L 4116 197 
L 2681 1631 
L 1247 197 
L 878 575 
L 2303 2003 
L 878 3438 
L 1247 3816 
L 2681 2381 
L 4116 3816 
L 4488 3438 
z
" transform="scale(0.015625)"/>
     </defs>
     <use xlink:href="#DejaVuSans-30" transform="translate(0 0.78125)"/>
     <use xlink:href="#DejaVuSans-2e" transform="translate(63.623047 0.78125)"/>
     <use xlink:href="#DejaVuSans-35" transform="translate(95.410156 0.78125)"/>
     <use xlink:href="#DejaVuSans-20" transform="translate(159.033203 0.78125)"/>
     <use xlink:href="#DejaVuSans-d7" transform="translate(190.820312 0.78125)"/>
     <use xlink:href="#DejaVuSans-56" transform="translate(274.609375 0.78125)"/>
     <use xlink:href="#DejaVuSans-6f" transform="translate(343.017578 0.78125)"/>
    </g>
   </g>
   <g id="text_21">
    <!-- A -->
    <g transform="translate(141.711111 23.911834) scale(0.1 -0.1)">
     <use xlink:href="#DejaVuSans-41"/>
    </g>
   </g>
  </g>
 </g>
 <defs>
  <clipPath id="paa2dae2ab3">
   <rect x="42.620313" y="10.999219" width="230.65" height="447.28"/>
  </clipPath>
 </defs>
</svg>
