<?xml version="1.0" encoding="utf-8" standalone="no"?>
<!DOCTYPE svg PUBLIC "-//W3C//DTD SVG 1.1//EN"
  "http://www.w3.org/Graphics/SVG/1.1/DTD/svg11.dtd">
<svg xmlns:xlink="http://www.w3.org/1999/xlink" width="208.433125pt" height="351.99625pt" viewBox="0 0 208.433125 351.99625" xmlns="http://www.w3.org/2000/svg" version="1.1">
 <metadata>
  <rdf:RDF xmlns:dc="http://purl.org/dc/elements/1.1/" xmlns:cc="http://creativecommons.org/ns#" xmlns:rdf="http://www.w3.org/1999/02/22-rdf-syntax-ns#">
   <cc:Work>
    <dc:type rdf:resource="http://purl.org/dc/dcmitype/StillImage"/>
    <dc:date>2026-07-14T14:46:17.477733</dc:date>
    <dc:format>image/svg+xml</dc:format>
    <dc:creator>
     <cc:Agent>
      <dc:title>Matplotlib v3.10.9, https://matplotlib.org/</dc:title>
     </cc:Agent>
    </dc:creator>
   </cc:Work>
  </rdf:RDF>
 </metadata>
 <defs>
  <style type="text/css">*{stroke-linejoin: round; stroke-linecap: butt}</style>
 </defs>
 <g id="figure_1">
  <g id="patch_1">
   <path d="M 0 351.99625 
L 208.433125 351.99625 
L 208.433125 0 
L 0 0 
z
" style="fill: #ffffff"/>
  </g>
  <g id="axes_1">
   <g id="patch_2">
    <path d="M 40.603125 314.44 
L 201.233125 314.44 
L 201.233125 7.2 
L 40.603125 7.2 
z
" style="fill: #ffffff"/>
   </g>
   <g id="matplotlib.axis_1">
    <g id="xtick_1">
     <g id="line2d_1">
      <defs>
       <path id="m164ed05a59" d="M 0 0 
L 0 3.5 
" style="stroke: #000000; stroke-width: 0.8"/>
      </defs>
      <g>
       <use xlink:href="#m164ed05a59" x="40.603125" y="314.44" style="stroke: #000000; stroke-width: 0.8"/>
      </g>
     </g>
     <g id="text_1">
      <!-- 0 -->
      <g transform="translate(37.421875 329.038437) scale(0.1 -0.1)">
       <defs>
        <path id="DejaVuSans-30" d="M 2034 4250 
Q 1547 4250 1301 3770 
Q 1056 3291 1056 2328 
Q 1056 1369 1301 889 
Q 1547 409 2034 409 
Q 2525 409 2770 889 
Q 3016 1369 3016 2328 
Q 3016 3291 2770 3770 
Q 2525 4250 2034 4250 
z
M 2034 4750 
Q 2819 4750 3233 4129 
Q 3647 3509 3647 2328 
Q 3647 1150 3233 529 
Q 2819 -91 2034 -91 
Q 1250 -91 836 529 
Q 422 1150 422 2328 
Q 422 3509 836 4129 
Q 1250 4750 2034 4750 
z
" transform="scale(0.015625)"/>
       </defs>
       <use xlink:href="#DejaVuSans-30"/>
      </g>
     </g>
    </g>
    <g id="xtick_2">
     <g id="line2d_2">
      <g>
       <use xlink:href="#m164ed05a59" x="76.298681" y="314.44" style="stroke: #000000; stroke-width: 0.8"/>
      </g>
     </g>
     <g id="text_2">
      <!-- 10 -->
      <g transform="translate(69.936181 329.038437) scale(0.1 -0.1)">
       <defs>
        <path id="DejaVuSans-31" d="M 794 531 
L 1825 531 
L 1825 4091 
L 703 3866 
L 703 4441 
L 1819 4666 
L 2450 4666 
L 2450 531 
L 3481 531 
L 3481 0 
L 794 0 
L 794 531 
z
" transform="scale(0.015625)"/>
       </defs>
       <use xlink:href="#DejaVuSans-31"/>
       <use xlink:href="#DejaVuSans-30" transform="translate(63.623047 0)"/>
      </g>
     </g>
    </g>
    <g id="xtick_3">
     <g id="line2d_3">
      <g>
       <use xlink:href="#m164ed05a59" x="111.994236" y="314.44" style="stroke: #000000; stroke-width: 0.8"/>
      </g>
     </g>
     <g id="text_3">
      <!-- 20 -->
      <g transform="translate(105.631736 329.038437) scale(0.1 -0.1)">
       <defs>
        <path id="DejaVuSans-32" d="M 1228 531 
L 3431 531 
L 3431 0 
L 469 0 
L 469 531 
Q 828 903 1448 1529 
Q 2069 2156 2228 2338 
Q 2531 2678 2651 2914 
Q 2772 3150 2772 3378 
Q 2772 3750 2511 3984 
Q 2250 4219 1831 4219 
Q 1534 4219 1204 4116 
Q 875 4013 500 3803 
L 500 4441 
Q 881 4594 1212 4672 
Q 1544 4750 1819 4750 
Q 2544 4750 2975 4387 
Q 3406 4025 3406 3419 
Q 3406 3131 3298 2873 
Q 3191 2616 2906 2266 
Q 2828 2175 2409 1742 
Q 1991 1309 1228 531 
z
" transform="scale(0.015625)"/>
       </defs>
       <use xlink:href="#DejaVuSans-32"/>
       <use xlink:href="#DejaVuSans-30" transform="translate(63.623047 0)"/>
      </g>
     </g>
    </g>
    <g id="xtick_4">
     <g id="line2d_4">
      <g>
       <use xlink:href="#m164ed05a59" x="147.689792" y="314.44" style="stroke: #000000; stroke-width: 0.8"/>
      </g>
     </g>
     <g id="text_4">
      <!-- 30 -->
      <g transform="translate(141.327292 329.038437) scale(0.1 -0.1)">
       <defs>
        <path id="DejaVuSans-33" d="M 2597 2516 
Q 3050 2419 3304 2112 
Q 3559 1806 3559 1356 
Q 3559 666 3084 287 
Q 2609 -91 1734 -91 
Q 1441 -91 1130 -33 
Q 819 25 488 141 
L 488 750 
Q 750 597 1062 519 
Q 1375 441 1716 441 
Q 2309 441 2620 675 
Q 2931 909 2931 1356 
Q 2931 1769 2642 2001 
Q 2353 2234 1838 2234 
L 1294 2234 
L 1294 2753 
L 1863 2753 
Q 2328 2753 2575 2939 
Q 2822 3125 2822 3475 
Q 2822 3834 2567 4026 
Q 2313 4219 1838 4219 
Q 1578 4219 1281 4162 
Q 984 4106 628 3988 
L 628 4550 
Q 988 4650 1302 4700 
Q 1616 4750 1894 4750 
Q 2613 4750 3031 4423 
Q 3450 4097 3450 3541 
Q 3450 3153 3228 2886 
Q 3006 2619 2597 2516 
z
" transform="scale(0.015625)"/>
       </defs>
       <use xlink:href="#DejaVuSans-33"/>
       <use xlink:href="#DejaVuSans-30" transform="translate(63.623047 0)"/>
      </g>
     </g>
    </g>
    <g id="xtick_5">
     <g id="line2d_5">
      <g>
       <use xlink:href="#m164ed05a59" x="183.385347" y="314.44" style="stroke: #000000; stroke-width: 0.8"/>
      </g>
     </g>
     <g id="text_5">
      <!-- 40 -->
      <g transform="translate(177.022847 329.038437) scale(0.1 -0.1)">
       <defs>
        <path id="DejaVuSans-34" d="M 2419 4116 
L 825 1625 
L 2419 1625 
L 2419 4116 
z
M 2253 4666 
L 3047 4666 
L 3047 1625 
L 3713 1625 
L 3713 1100 
L 3047 1100 
L 3047 0 
L 2419 0 
L 2419 1100 
L 313 1100 
L 313 1709 
L 2253 4666 
z
" transform="scale(0.015625)"/>
       </defs>
       <use xlink:href="#DejaVuSans-34"/>
       <use xlink:href="#DejaVuSans-30" transform="translate(63.623047 0)"/>
      </g>
     </g>
    </g>
    <g id="text_6">
     <!-- T (C) -->
     <g transform="translate(108.882188 342.716562) scale(0.1 -0.1)">
      <defs>
       <path id="DejaVuSans-54" d="M -19 4666 
L 3928 4666 
L 3928 4134 
L 2272 4134 
L 2272 0 
L 1638 0 
L 1638 4134 
L -19 4134 
L -19 4666 
z
" transform="scale(0.015625)"/>
       <path id="DejaVuSans-20" transform="scale(0.015625)"/>
       <path id="DejaVuSans-28" d="M 1984 4856 
Q 1566 4138 1362 3434 
Q 1159 2731 1159 2009 
Q 1159 1288 1364 580 
Q 1569 -128 1984 -844 
L 1484 -844 
Q 1016 -109 783 600 
Q 550 1309 550 2009 
Q 550 2706 781 3412 
Q 1013 4119 1484 4856 
L 1984 4856 
z
" transform="scale(0.015625)"/>
       <path id="DejaVuSans-43" d="M 4122 4306 
L 4122 3641 
Q 3803 3938 3442 4084 
Q 3081 4231 2675 4231 
Q 1875 4231 1450 3742 
Q 1025 3253 1025 2328 
Q 1025 1406 1450 917 
Q 1875 428 2675 428 
Q 3081 428 3442 575 
Q 3803 722 4122 1019 
L 4122 359 
Q 3791 134 3420 21 
Q 3050 -91 2638 -91 
Q 1578 -91 968 557 
Q 359 1206 359 2328 
Q 359 3453 968 4101 
Q 1578 4750 2638 4750 
Q 3056 4750 3426 4639 
Q 3797 4528 4122 4306 
z
" transform="scale(0.015625)"/>
       <path id="DejaVuSans-29" d="M 513 4856 
L 1013 4856 
Q 1481 4119 1714 3412 
Q 1947 2706 1947 2009 
Q 1947 1309 1714 600 
Q 1481 -109 1013 -844 
L 513 -844 
Q 928 -128 1133 580 
Q 1338 1288 1338 2009 
Q 1338 2731 1133 3434 
Q 928 4138 513 4856 
z
" transform="scale(0.015625)"/>
      </defs>
      <use xlink:href="#DejaVuSans-54"/>
      <use xlink:href="#DejaVuSans-20" transform="translate(61.083984 0)"/>
      <use xlink:href="#DejaVuSans-28" transform="translate(92.871094 0)"/>
      <use xlink:href="#DejaVuSans-43" transform="translate(131.884766 0)"/>
      <use xlink:href="#DejaVuSans-29" transform="translate(201.708984 0)"/>
     </g>
    </g>
   </g>
   <g id="matplotlib.axis_2">
    <g id="ytick_1">
     <g id="line2d_6">
      <defs>
       <path id="m07580a2c3d" d="M 0 0 
L -3.5 0 
" style="stroke: #000000; stroke-width: 0.8"/>
      </defs>
      <g>
       <use xlink:href="#m07580a2c3d" x="40.603125" y="270.548571" style="stroke: #000000; stroke-width: 0.8"/>
      </g>
     </g>
     <g id="text_7">
      <!-- 0 -->
      <g transform="translate(27.240625 274.34779) scale(0.1 -0.1)">
       <use xlink:href="#DejaVuSans-30"/>
      </g>
     </g>
    </g>
    <g id="ytick_2">
     <g id="line2d_7">
      <g>
       <use xlink:href="#m07580a2c3d" x="40.603125" y="226.657143" style="stroke: #000000; stroke-width: 0.8"/>
      </g>
     </g>
     <g id="text_8">
      <!-- 5 -->
      <g transform="translate(27.240625 230.456362) scale(0.1 -0.1)">
       <defs>
        <path id="DejaVuSans-35" d="M 691 4666 
L 3169 4666 
L 3169 4134 
L 1269 4134 
L 1269 2991 
Q 1406 3038 1543 3061 
Q 1681 3084 1819 3084 
Q 2600 3084 3056 2656 
Q 3513 2228 3513 1497 
Q 3513 744 3044 326 
Q 2575 -91 1722 -91 
Q 1428 -91 1123 -41 
Q 819 9 494 109 
L 494 744 
Q 775 591 1075 516 
Q 1375 441 1709 441 
Q 2250 441 2565 725 
Q 2881 1009 2881 1497 
Q 2881 1984 2565 2268 
Q 2250 2553 1709 2553 
Q 1456 2553 1204 2497 
Q 953 2441 691 2322 
L 691 4666 
z
" transform="scale(0.015625)"/>
       </defs>
       <use xlink:href="#DejaVuSans-35"/>
      </g>
     </g>
    </g>
    <g id="ytick_3">
     <g id="line2d_8">
      <g>
       <use xlink:href="#m07580a2c3d" x="40.603125" y="182.765714" style="stroke: #000000; stroke-width: 0.8"/>
      </g>
     </g>
     <g id="text_9">
      <!-- 10 -->
      <g transform="translate(20.878125 186.564933) scale(0.1 -0.1)">
       <use xlink:href="#DejaVuSans-31"/>
       <use xlink:href="#DejaVuSans-30" transform="translate(63.623047 0)"/>
      </g>
     </g>
    </g>
    <g id="ytick_4">
     <g id="line2d_9">
      <g>
       <use xlink:href="#m07580a2c3d" x="40.603125" y="138.874286" style="stroke: #000000; stroke-width: 0.8"/>
      </g>
     </g>
     <g id="text_10">
      <!-- 15 -->
      <g transform="translate(20.878125 142.673504) scale(0.1 -0.1)">
       <use xlink:href="#DejaVuSans-31"/>
       <use xlink:href="#DejaVuSans-35" transform="translate(63.623047 0)"/>
      </g>
     </g>
    </g>
    <g id="ytick_5">
     <g id="line2d_10">
      <g>
       <use xlink:href="#m07580a2c3d" x="40.603125" y="94.982857" style="stroke: #000000; stroke-width: 0.8"/>
      </g>
     </g>
     <g id="text_11">
      <!-- 20 -->
      <g transform="translate(20.878125 98.782076) scale(0.1 -0.1)">
       <use xlink:href="#DejaVuSans-32"/>
       <use xlink:href="#DejaVuSans-30" transform="translate(63.623047 0)"/>
      </g>
     </g>
    </g>
    <g id="ytick_6">
     <g id="line2d_11">
      <g>
       <use xlink:href="#m07580a2c3d" x="40.603125" y="51.091429" style="stroke: #000000; stroke-width: 0.8"/>
      </g>
     </g>
     <g id="text_12">
      <!-- 25 -->
      <g transform="translate(20.878125 54.890647) scale(0.1 -0.1)">
       <use xlink:href="#DejaVuSans-32"/>
       <use xlink:href="#DejaVuSans-35" transform="translate(63.623047 0)"/>
      </g>
     </g>
    </g>
    <g id="text_13">
     <!-- Assimilation rate, A (μmol m⁻² s⁻¹) -->
     <g transform="translate(14.798437 247.403594) rotate(-90) scale(0.1 -0.1)">
      <defs>
       <path id="DejaVuSans-41" d="M 2188 4044 
L 1331 1722 
L 3047 1722 
L 2188 4044 
z
M 1831 4666 
L 2547 4666 
L 4325 0 
L 3669 0 
L 3244 1197 
L 1141 1197 
L 716 0 
L 50 0 
L 1831 4666 
z
" transform="scale(0.015625)"/>
       <path id="DejaVuSans-73" d="M 2834 3397 
L 2834 2853 
Q 2591 2978 2328 3040 
Q 2066 3103 1784 3103 
Q 1356 3103 1142 2972 
Q 928 2841 928 2578 
Q 928 2378 1081 2264 
Q 1234 2150 1697 2047 
L 1894 2003 
Q 2506 1872 2764 1633 
Q 3022 1394 3022 966 
Q 3022 478 2636 193 
Q 2250 -91 1575 -91 
Q 1294 -91 989 -36 
Q 684 19 347 128 
L 347 722 
Q 666 556 975 473 
Q 1284 391 1588 391 
Q 1994 391 2212 530 
Q 2431 669 2431 922 
Q 2431 1156 2273 1281 
Q 2116 1406 1581 1522 
L 1381 1569 
Q 847 1681 609 1914 
Q 372 2147 372 2553 
Q 372 3047 722 3315 
Q 1072 3584 1716 3584 
Q 2034 3584 2315 3537 
Q 2597 3491 2834 3397 
z
" transform="scale(0.015625)"/>
       <path id="DejaVuSans-69" d="M 603 3500 
L 1178 3500 
L 1178 0 
L 603 0 
L 603 3500 
z
M 603 4863 
L 1178 4863 
L 1178 4134 
L 603 4134 
L 603 4863 
z
" transform="scale(0.015625)"/>
       <path id="DejaVuSans-6d" d="M 3328 2828 
Q 3544 3216 3844 3400 
Q 4144 3584 4550 3584 
Q 5097 3584 5394 3201 
Q 5691 2819 5691 2113 
L 5691 0 
L 5113 0 
L 5113 2094 
Q 5113 2597 4934 2840 
Q 4756 3084 4391 3084 
Q 3944 3084 3684 2787 
Q 3425 2491 3425 1978 
L 3425 0 
L 2847 0 
L 2847 2094 
Q 2847 2600 2669 2842 
Q 2491 3084 2119 3084 
Q 1678 3084 1418 2786 
Q 1159 2488 1159 1978 
L 1159 0 
L 581 0 
L 581 3500 
L 1159 3500 
L 1159 2956 
Q 1356 3278 1631 3431 
Q 1906 3584 2284 3584 
Q 2666 3584 2933 3390 
Q 3200 3197 3328 2828 
z
" transform="scale(0.015625)"/>
       <path id="DejaVuSans-6c" d="M 603 4863 
L 1178 4863 
L 1178 0 
L 603 0 
L 603 4863 
z
" transform="scale(0.015625)"/>
       <path id="DejaVuSans-61" d="M 2194 1759 
Q 1497 1759 1228 1600 
Q 959 1441 959 1056 
Q 959 750 1161 570 
Q 1363 391 1709 391 
Q 2188 391 2477 730 
Q 2766 1069 2766 1631 
L 2766 1759 
L 2194 1759 
z
M 3341 1997 
L 3341 0 
L 2766 0 
L 2766 531 
Q 2569 213 2275 61 
Q 1981 -91 1556 -91 
Q 1019 -91 701 211 
Q 384 513 384 1019 
Q 384 1609 779 1909 
Q 1175 2209 1959 2209 
L 2766 2209 
L 2766 2266 
Q 2766 2663 2505 2880 
Q 2244 3097 1772 3097 
Q 1472 3097 1187 3025 
Q 903 2953 641 2809 
L 641 3341 
Q 956 3463 1253 3523 
Q 1550 3584 1831 3584 
Q 2591 3584 2966 3190 
Q 3341 2797 3341 1997 
z
" transform="scale(0.015625)"/>
       <path id="DejaVuSans-74" d="M 1172 4494 
L 1172 3500 
L 2356 3500 
L 2356 3053 
L 1172 3053 
L 1172 1153 
Q 1172 725 1289 603 
Q 1406 481 1766 481 
L 2356 481 
L 2356 0 
L 1766 0 
Q 1100 0 847 248 
Q 594 497 594 1153 
L 594 3053 
L 172 3053 
L 172 3500 
L 594 3500 
L 594 4494 
L 1172 4494 
z
" transform="scale(0.015625)"/>
       <path id="DejaVuSans-6f" d="M 1959 3097 
Q 1497 3097 1228 2736 
Q 959 2375 959 1747 
Q 959 1119 1226 758 
Q 1494 397 1959 397 
Q 2419 397 2687 759 
Q 2956 1122 2956 1747 
Q 2956 2369 2687 2733 
Q 2419 3097 1959 3097 
z
M 1959 3584 
Q 2709 3584 3137 3096 
Q 3566 2609 3566 1747 
Q 3566 888 3137 398 
Q 2709 -91 1959 -91 
Q 1206 -91 779 398 
Q 353 888 353 1747 
Q 353 2609 779 3096 
Q 1206 3584 1959 3584 
z
" transform="scale(0.015625)"/>
       <path id="DejaVuSans-6e" d="M 3513 2113 
L 3513 0 
L 2938 0 
L 2938 2094 
Q 2938 2591 2744 2837 
Q 2550 3084 2163 3084 
Q 1697 3084 1428 2787 
Q 1159 2491 1159 1978 
L 1159 0 
L 581 0 
L 581 3500 
L 1159 3500 
L 1159 2956 
Q 1366 3272 1645 3428 
Q 1925 3584 2291 3584 
Q 2894 3584 3203 3211 
Q 3513 2838 3513 2113 
z
" transform="scale(0.015625)"/>
       <path id="DejaVuSans-72" d="M 2631 2963 
Q 2534 3019 2420 3045 
Q 2306 3072 2169 3072 
Q 1681 3072 1420 2755 
Q 1159 2438 1159 1844 
L 1159 0 
L 581 0 
L 581 3500 
L 1159 3500 
L 1159 2956 
Q 1341 3275 1631 3429 
Q 1922 3584 2338 3584 
Q 2397 3584 2469 3576 
Q 2541 3569 2628 3553 
L 2631 2963 
z
" transform="scale(0.015625)"/>
       <path id="DejaVuSans-65" d="M 3597 1894 
L 3597 1613 
L 953 1613 
Q 991 1019 1311 708 
Q 1631 397 2203 397 
Q 2534 397 2845 478 
Q 3156 559 3463 722 
L 3463 178 
Q 3153 47 2828 -22 
Q 2503 -91 2169 -91 
Q 1331 -91 842 396 
Q 353 884 353 1716 
Q 353 2575 817 3079 
Q 1281 3584 2069 3584 
Q 2775 3584 3186 3129 
Q 3597 2675 3597 1894 
z
M 3022 2063 
Q 3016 2534 2758 2815 
Q 2500 3097 2075 3097 
Q 1594 3097 1305 2825 
Q 1016 2553 972 2059 
L 3022 2063 
z
" transform="scale(0.015625)"/>
       <path id="DejaVuSans-2c" d="M 750 794 
L 1409 794 
L 1409 256 
L 897 -744 
L 494 -744 
L 750 256 
L 750 794 
z
" transform="scale(0.015625)"/>
       <path id="DejaVuSans-3bc" d="M 544 -1331 
L 544 3500 
L 1119 3500 
L 1119 1325 
Q 1119 872 1334 640 
Q 1550 409 1972 409 
Q 2434 409 2667 671 
Q 2900 934 2900 1459 
L 2900 3500 
L 3475 3500 
L 3475 806 
Q 3475 619 3529 530 
Q 3584 441 3700 441 
Q 3728 441 3778 458 
Q 3828 475 3916 513 
L 3916 50 
Q 3788 -22 3673 -56 
Q 3559 -91 3450 -91 
Q 3234 -91 3106 31 
Q 2978 153 2931 403 
Q 2775 156 2548 32 
Q 2322 -91 2016 -91 
Q 1697 -91 1473 31 
Q 1250 153 1119 397 
L 1119 -1331 
L 544 -1331 
z
" transform="scale(0.015625)"/>
       <path id="DejaVuSans-207b" d="M 428 3359 
L 2950 3359 
L 2950 3063 
L 428 3063 
L 428 3359 
z
" transform="scale(0.015625)"/>
       <path id="DejaVuSans-b2" d="M 838 2444 
L 2163 2444 
L 2163 2088 
L 294 2088 
L 294 2431 
Q 400 2528 597 2703 
Q 1672 3656 1672 3950 
Q 1672 4156 1509 4282 
Q 1347 4409 1081 4409 
Q 919 4409 728 4354 
Q 538 4300 313 4191 
L 313 4575 
Q 553 4663 761 4706 
Q 969 4750 1147 4750 
Q 1600 4750 1872 4544 
Q 2144 4338 2144 4000 
Q 2144 3566 1109 2678 
Q 934 2528 838 2444 
z
" transform="scale(0.015625)"/>
       <path id="DejaVuSans-b9" d="M 488 2431 
L 1125 2431 
L 1125 4341 
L 428 4213 
L 428 4575 
L 1147 4697 
L 1575 4697 
L 1575 2431 
L 2216 2431 
L 2216 2088 
L 488 2088 
L 488 2431 
z
" transform="scale(0.015625)"/>
      </defs>
      <use xlink:href="#DejaVuSans-41"/>
      <use xlink:href="#DejaVuSans-73" transform="translate(68.408203 0)"/>
      <use xlink:href="#DejaVuSans-73" transform="translate(120.507812 0)"/>
      <use xlink:href="#DejaVuSans-69" transform="translate(172.607422 0)"/>
      <use xlink:href="#DejaVuSans-6d" transform="translate(200.390625 0)"/>
      <use xlink:href="#DejaVuSans-69" transform="translate(297.802734 0)"/>
      <use xlink:href="#DejaVuSans-6c" transform="translate(325.585938 0)"/>
      <use xlink:href="#DejaVuSans-61" transform="translate(353.369141 0)"/>
      <use xlink:href="#DejaVuSans-74" transform="translate(414.648438 0)"/>
      <use xlink:href="#DejaVuSans-69" transform="translate(453.857422 0)"/>
      <use xlink:href="#DejaVuSans-6f" transform="translate(481.640625 0)"/>
      <use xlink:href="#DejaVuSans-6e" transform="translate(542.822266 0)"/>
      <use xlink:href="#DejaVuSans-20" transform="translate(606.201172 0)"/>
      <use xlink:href="#DejaVuSans-72" transform="translate(637.988281 0)"/>
      <use xlink:href="#DejaVuSans-61" transform="translate(679.101562 0)"/>
      <use xlink:href="#DejaVuSans-74" transform="translate(740.380859 0)"/>
      <use xlink:href="#DejaVuSans-65" transform="translate(779.589844 0)"/>
      <use xlink:href="#DejaVuSans-2c" transform="translate(841.113281 0)"/>
      <use xlink:href="#DejaVuSans-20" transform="translate(872.900391 0)"/>
      <use xlink:href="#DejaVuSans-41" transform="translate(904.6875 0)"/>
      <use xlink:href="#DejaVuSans-20" transform="translate(973.095703 0)"/>
      <use xlink:href="#DejaVuSans-28" transform="translate(1004.882812 0)"/>
      <use xlink:href="#DejaVuSans-3bc" transform="translate(1043.896484 0)"/>
      <use xlink:href="#DejaVuSans-6d" transform="translate(1107.519531 0)"/>
      <use xlink:href="#DejaVuSans-6f" transform="translate(1204.931641 0)"/>
      <use xlink:href="#DejaVuSans-6c" transform="translate(1266.113281 0)"/>
      <use xlink:href="#DejaVuSans-20" transform="translate(1293.896484 0)"/>
      <use xlink:href="#DejaVuSans-6d" transform="translate(1325.683594 0)"/>
      <use xlink:href="#DejaVuSans-207b" transform="translate(1423.095703 0)"/>
      <use xlink:href="#DejaVuSans-b2" transform="translate(1475.878906 0)"/>
      <use xlink:href="#DejaVuSans-20" transform="translate(1515.966797 0)"/>
      <use xlink:href="#DejaVuSans-73" transform="translate(1547.753906 0)"/>
      <use xlink:href="#DejaVuSans-207b" transform="translate(1599.853516 0)"/>
      <use xlink:href="#DejaVuSans-b9" transform="translate(1652.636719 0)"/>
      <use xlink:href="#DejaVuSans-29" transform="translate(1692.724609 0)"/>
     </g>
    </g>
   </g>
   <g id="line2d_12">
    <path d="M 40.603125 228.270895 
L 45.087491 224.091426 
L 49.571858 219.586103 
L 54.056224 214.738925 
L 58.54059 209.534054 
L 63.024956 203.955951 
L 67.509323 197.989523 
L 71.993689 191.620311 
L 76.478055 184.834728 
L 80.962421 177.62036 
L 85.446788 169.96639 
L 89.931154 161.864174 
L 94.41552 153.30808 
L 98.899887 144.296712 
L 103.384253 134.834703 
L 108.765492 122.905061 
L 114.146732 110.394546 
L 120.424845 95.188243 
L 137.465437 53.390812 
L 141.05293 45.481775 
L 143.743549 40.095033 
L 145.537296 36.848703 
L 147.331042 33.939995 
L 149.124789 31.42811 
L 150.918535 29.377684 
L 152.712282 27.858358 
L 153.609155 27.3208 
L 154.506028 26.943973 
L 155.402902 26.737555 
L 156.299775 26.7113 
L 157.196648 26.874961 
L 158.093521 27.238217 
L 158.990395 27.810574 
L 159.887268 28.60127 
L 160.784141 29.619156 
L 161.681014 30.872583 
L 162.577888 32.369268 
L 163.474761 34.116165 
L 165.268507 38.383741 
L 167.062254 43.710345 
L 168.856 50.110051 
L 170.649747 57.572313 
L 172.443494 66.059409 
L 174.23724 75.505503 
L 176.92786 91.262746 
L 179.61848 108.553088 
L 183.205973 133.140265 
L 191.277832 189.162407 
L 194.865325 212.256062 
L 197.555945 228.370506 
L 200.246564 243.360166 
L 202.937184 257.22121 
L 205.627804 270.002365 
L 208.318424 281.787829 
L 209.433125 286.3946 
L 209.433125 286.3946 
" clip-path="url(#p27a550070e)" style="fill: none; stroke: #000000; stroke-width: 1.5; stroke-linecap: square"/>
   </g>
   <g id="line2d_13">
    <path d="M 40.603125 230.798343 
L 45.087491 226.990702 
L 49.571858 222.90496 
L 54.056224 218.530215 
L 58.54059 213.856137 
L 63.024956 208.873105 
L 67.509323 203.572376 
L 71.993689 197.94627 
L 76.478055 191.988404 
L 80.962421 185.693979 
L 85.446788 179.060159 
L 89.931154 172.086588 
L 95.312394 163.274107 
L 100.693633 153.989877 
L 106.074873 144.259774 
L 112.352985 132.405505 
L 120.424845 116.677152 
L 125.806084 110.295044 
L 130.290451 105.283332 
L 134.774817 100.588976 
L 139.259183 96.246999 
L 142.846676 93.049945 
L 146.434169 90.116942 
L 150.021662 87.464334 
L 153.609155 85.108015 
L 157.196648 83.063464 
L 159.887268 81.74375 
L 162.577888 80.614169 
L 165.268507 79.680895 
L 166.165381 79.414486 
L 167.062254 81.656977 
L 168.856 87.411604 
L 170.649747 94.068423 
L 172.443494 101.598957 
L 174.23724 109.950061 
L 176.92786 123.839903 
L 179.61848 139.047697 
L 184.102846 166.15873 
L 190.380959 204.461302 
L 193.968452 225.03712 
L 196.659071 239.464167 
L 199.349691 252.932417 
L 202.040311 265.428321 
L 204.730931 276.988895 
L 207.42155 287.685727 
L 209.433125 295.166594 
L 209.433125 295.166594 
" clip-path="url(#p27a550070e)" style="fill: none; stroke: #000000; stroke-width: 1.5; stroke-linecap: square"/>
   </g>
   <g id="line2d_14">
    <path d="M 40.603125 233.795577 
L 45.984365 229.713606 
L 51.365604 225.305295 
L 56.746844 220.561287 
L 62.128083 215.474244 
L 67.509323 210.039225 
L 72.890562 204.254121 
L 78.271802 198.120164 
L 83.653041 191.642583 
L 89.034281 184.949642 
L 98.003013 177.058808 
L 104.281126 171.800836 
L 109.662366 167.534549 
L 115.043605 163.540882 
L 119.527971 160.455233 
L 124.012338 157.618665 
L 128.496704 155.057529 
L 132.98107 152.797581 
L 136.568563 151.223395 
L 140.156056 149.870676 
L 143.743549 148.751807 
L 147.331042 147.878976 
L 150.918535 147.264217 
L 154.506028 146.919454 
L 158.093521 146.856549 
L 160.784141 147.001476 
L 163.474761 147.316645 
L 166.165381 147.807119 
L 168.856 148.478012 
L 171.54662 149.334509 
L 174.23724 150.381885 
L 175.134113 150.774355 
L 176.030987 154.184552 
L 178.721606 166.843575 
L 182.309099 184.983005 
L 191.277832 231.310284 
L 194.865325 248.446252 
L 197.555945 260.420661 
L 200.246564 271.595718 
L 202.937184 281.985853 
L 205.627804 291.642128 
L 208.318424 300.63908 
L 209.433125 304.188254 
L 209.433125 304.188254 
" clip-path="url(#p27a550070e)" style="fill: none; stroke: #000000; stroke-width: 1.5; stroke-linecap: square"/>
   </g>
   <g id="line2d_15">
    <path d="M 40.603125 238.423232 
L 46.881238 234.537446 
L 48.674984 233.495152 
L 64.818703 224.937153 
L 77.374928 218.381784 
L 85.446788 214.406573 
L 92.621774 211.134105 
L 98.899887 208.536461 
L 104.281126 206.549416 
L 109.662366 204.818512 
L 114.146732 203.595525 
L 118.631098 202.592154 
L 123.115464 201.82707 
L 127.599831 201.318759 
L 131.187324 201.109315 
L 134.774817 201.085291 
L 138.36231 201.25602 
L 141.949803 201.630855 
L 145.537296 202.219206 
L 149.124789 203.030578 
L 152.712282 204.074617 
L 156.299775 205.36116 
L 159.887268 206.900286 
L 163.474761 208.702372 
L 167.062254 210.778147 
L 170.649747 213.138759 
L 174.23724 215.795831 
L 177.824733 218.761527 
L 181.412226 222.048619 
L 182.309099 224.649654 
L 191.277832 259.81287 
L 194.865325 272.782885 
L 198.452818 284.778528 
L 202.040311 295.789874 
L 205.627804 305.909495 
L 209.433125 315.833116 
L 209.433125 315.833116 
" clip-path="url(#p27a550070e)" style="fill: none; stroke: #000000; stroke-width: 1.5; stroke-linecap: square"/>
   </g>
   <g id="line2d_16">
    <path d="M 40.603125 253.250727 
L 53.159351 251.05641 
L 62.128083 249.70165 
L 70.199942 248.708239 
L 77.374928 248.056593 
L 83.653041 247.701942 
L 89.931154 247.580824 
L 95.312394 247.686693 
L 100.693633 248.007276 
L 106.074873 248.562863 
L 111.456112 249.374019 
L 115.940478 250.26028 
L 120.424845 251.350863 
L 124.909211 252.658372 
L 129.393577 254.195747 
L 133.877944 255.976345 
L 138.36231 258.014023 
L 142.846676 260.323241 
L 147.331042 262.919163 
L 151.815409 265.81777 
L 156.299775 269.035987 
L 160.784141 272.591807 
L 164.371634 275.692394 
L 167.959127 279.03175 
L 171.54662 282.620919 
L 175.134113 286.471593 
L 178.721606 290.596165 
L 182.309099 295.007781 
L 185.896592 299.720399 
L 188.587212 303.535176 
L 192.174705 309.486274 
L 196.659071 316.443858 
L 202.040311 324.300856 
L 209.433125 334.86678 
L 209.433125 334.86678 
" clip-path="url(#p27a550070e)" style="fill: none; stroke: #000000; stroke-width: 1.5; stroke-linecap: square"/>
   </g>
   <g id="patch_3">
    <path d="M 40.603125 314.44 
L 40.603125 7.2 
" style="fill: none; stroke: #000000; stroke-width: 0.8; stroke-linejoin: miter; stroke-linecap: square"/>
   </g>
   <g id="patch_4">
    <path d="M 201.233125 314.44 
L 201.233125 7.2 
" style="fill: none; stroke: #000000; stroke-width: 0.8; stroke-linejoin: miter; stroke-linecap: square"/>
   </g>
   <g id="patch_5">
    <path d="M 40.603125 314.44 
L 201.233125 314.44 
" style="fill: none; stroke: #000000; stroke-width: 0.8; stroke-linejoin: miter; stroke-linecap: square"/>
   </g>
   <g id="patch_6">
    <path d="M 40.603125 7.2 
L 201.233125 7.2 
" style="fill: none; stroke: #000000; stroke-width: 0.8; stroke-linejoin: miter; stroke-linecap: square"/>
   </g>
   <g id="text_14">
    <!-- C= 330 µbar -->
    <g transform="translate(115.811667 23.082022) scale(0.1 -0.1)">
     <defs>
      <path id="DejaVuSans-3d" d="M 678 2906 
L 4684 2906 
L 4684 2381 
L 678 2381 
L 678 2906 
z
M 678 1631 
L 4684 1631 
L 4684 1100 
L 678 1100 
L 678 1631 
z
" transform="scale(0.015625)"/>
      <path id="DejaVuSans-b5" d="M 544 -1331 
L 544 3500 
L 1119 3500 
L 1119 1325 
Q 1119 872 1334 640 
Q 1550 409 1972 409 
Q 2434 409 2667 671 
Q 2900 934 2900 1459 
L 2900 3500 
L 3475 3500 
L 3475 806 
Q 3475 619 3529 530 
Q 3584 441 3700 441 
Q 3728 441 3778 458 
Q 3828 475 3916 513 
L 3916 50 
Q 3788 -22 3673 -56 
Q 3559 -91 3450 -91 
Q 3234 -91 3106 31 
Q 2978 153 2931 403 
Q 2775 156 2548 32 
Q 2322 -91 2016 -91 
Q 1697 -91 1473 31 
Q 1250 153 1119 397 
L 1119 -1331 
L 544 -1331 
z
" transform="scale(0.015625)"/>
      <path id="DejaVuSans-62" d="M 3116 1747 
Q 3116 2381 2855 2742 
Q 2594 3103 2138 3103 
Q 1681 3103 1420 2742 
Q 1159 2381 1159 1747 
Q 1159 1113 1420 752 
Q 1681 391 2138 391 
Q 2594 391 2855 752 
Q 3116 1113 3116 1747 
z
M 1159 2969 
Q 1341 3281 1617 3432 
Q 1894 3584 2278 3584 
Q 2916 3584 3314 3078 
Q 3713 2572 3713 1747 
Q 3713 922 3314 415 
Q 2916 -91 2278 -91 
Q 1894 -91 1617 61 
Q 1341 213 1159 525 
L 1159 0 
L 581 0 
L 581 4863 
L 1159 4863 
L 1159 2969 
z
" transform="scale(0.015625)"/>
     </defs>
     <use xlink:href="#DejaVuSans-43"/>
     <use xlink:href="#DejaVuSans-3d" transform="translate(69.824219 0)"/>
     <use xlink:href="#DejaVuSans-20" transform="translate(153.613281 0)"/>
     <use xlink:href="#DejaVuSans-33" transform="translate(185.400391 0)"/>
     <use xlink:href="#DejaVuSans-33" transform="translate(249.023438 0)"/>
     <use xlink:href="#DejaVuSans-30" transform="translate(312.646484 0)"/>
     <use xlink:href="#DejaVuSans-20" transform="translate(376.269531 0)"/>
     <use xlink:href="#DejaVuSans-b5" transform="translate(408.056641 0)"/>
     <use xlink:href="#DejaVuSans-62" transform="translate(471.679688 0)"/>
     <use xlink:href="#DejaVuSans-61" transform="translate(535.15625 0)"/>
     <use xlink:href="#DejaVuSans-72" transform="translate(596.435547 0)"/>
    </g>
   </g>
   <g id="text_15">
    <!-- 230 -->
    <g transform="translate(138.146042 78.568901) scale(0.1 -0.1)">
     <use xlink:href="#DejaVuSans-32"/>
     <use xlink:href="#DejaVuSans-33" transform="translate(63.623047 0)"/>
     <use xlink:href="#DejaVuSans-30" transform="translate(127.246094 0)"/>
    </g>
   </g>
   <g id="text_16">
    <!-- 165 -->
    <g transform="translate(138.146042 137.021003) scale(0.1 -0.1)">
     <defs>
      <path id="DejaVuSans-36" d="M 2113 2584 
Q 1688 2584 1439 2293 
Q 1191 2003 1191 1497 
Q 1191 994 1439 701 
Q 1688 409 2113 409 
Q 2538 409 2786 701 
Q 3034 994 3034 1497 
Q 3034 2003 2786 2293 
Q 2538 2584 2113 2584 
z
M 3366 4563 
L 3366 3988 
Q 3128 4100 2886 4159 
Q 2644 4219 2406 4219 
Q 1781 4219 1451 3797 
Q 1122 3375 1075 2522 
Q 1259 2794 1537 2939 
Q 1816 3084 2150 3084 
Q 2853 3084 3261 2657 
Q 3669 2231 3669 1497 
Q 3669 778 3244 343 
Q 2819 -91 2113 -91 
Q 1303 -91 875 529 
Q 447 1150 447 2328 
Q 447 3434 972 4092 
Q 1497 4750 2381 4750 
Q 2619 4750 2861 4703 
Q 3103 4656 3366 4563 
z
" transform="scale(0.015625)"/>
     </defs>
     <use xlink:href="#DejaVuSans-31"/>
     <use xlink:href="#DejaVuSans-36" transform="translate(63.623047 0)"/>
     <use xlink:href="#DejaVuSans-35" transform="translate(127.246094 0)"/>
    </g>
   </g>
   <g id="text_17">
    <!-- 110 -->
    <g transform="translate(138.146042 191.738442) scale(0.1 -0.1)">
     <use xlink:href="#DejaVuSans-31"/>
     <use xlink:href="#DejaVuSans-31" transform="translate(63.623047 0)"/>
     <use xlink:href="#DejaVuSans-30" transform="translate(127.246094 0)"/>
    </g>
   </g>
   <g id="text_18">
    <!-- 55 -->
    <g transform="translate(141.327292 252.061189) scale(0.1 -0.1)">
     <use xlink:href="#DejaVuSans-35"/>
     <use xlink:href="#DejaVuSans-35" transform="translate(63.623047 0)"/>
    </g>
   </g>
   <g id="text_19">
    <!-- I=700 µE m⁻² s⁻¹ -->
    <g transform="translate(44.172681 58.689866) scale(0.1 -0.1)">
     <defs>
      <path id="DejaVuSans-49" d="M 628 4666 
L 1259 4666 
L 1259 0 
L 628 0 
L 628 4666 
z
" transform="scale(0.015625)"/>
      <path id="DejaVuSans-37" d="M 525 4666 
L 3525 4666 
L 3525 4397 
L 1831 0 
L 1172 0 
L 2766 4134 
L 525 4134 
L 525 4666 
z
" transform="scale(0.015625)"/>
      <path id="DejaVuSans-45" d="M 628 4666 
L 3578 4666 
L 3578 4134 
L 1259 4134 
L 1259 2753 
L 3481 2753 
L 3481 2222 
L 1259 2222 
L 1259 531 
L 3634 531 
L 3634 0 
L 628 0 
L 628 4666 
z
" transform="scale(0.015625)"/>
     </defs>
     <use xlink:href="#DejaVuSans-49"/>
     <use xlink:href="#DejaVuSans-3d" transform="translate(29.492188 0)"/>
     <use xlink:href="#DejaVuSans-37" transform="translate(113.28125 0)"/>
     <use xlink:href="#DejaVuSans-30" transform="translate(176.904297 0)"/>
     <use xlink:href="#DejaVuSans-30" transform="translate(240.527344 0)"/>
     <use xlink:href="#DejaVuSans-20" transform="translate(304.150391 0)"/>
     <use xlink:href="#DejaVuSans-b5" transform="translate(335.9375 0)"/>
     <use xlink:href="#DejaVuSans-45" transform="translate(399.560547 0)"/>
     <use xlink:href="#DejaVuSans-20" transform="translate(462.744141 0)"/>
     <use xlink:href="#DejaVuSans-6d" transform="translate(494.53125 0)"/>
     <use xlink:href="#DejaVuSans-207b" transform="translate(591.943359 0)"/>
     <use xlink:href="#DejaVuSans-b2" transform="translate(644.726562 0)"/>
     <use xlink:href="#DejaVuSans-20" transform="translate(684.814453 0)"/>
     <use xlink:href="#DejaVuSans-73" transform="translate(716.601562 0)"/>
     <use xlink:href="#DejaVuSans-207b" transform="translate(768.701172 0)"/>
     <use xlink:href="#DejaVuSans-b9" transform="translate(821.484375 0)"/>
    </g>
    <!-- O=210 mbar -->
    <g transform="translate(44.172681 69.887679) scale(0.1 -0.1)">
     <defs>
      <path id="DejaVuSans-4f" d="M 2522 4238 
Q 1834 4238 1429 3725 
Q 1025 3213 1025 2328 
Q 1025 1447 1429 934 
Q 1834 422 2522 422 
Q 3209 422 3611 934 
Q 4013 1447 4013 2328 
Q 4013 3213 3611 3725 
Q 3209 4238 2522 4238 
z
M 2522 4750 
Q 3503 4750 4090 4092 
Q 4678 3434 4678 2328 
Q 4678 1225 4090 567 
Q 3503 -91 2522 -91 
Q 1538 -91 948 565 
Q 359 1222 359 2328 
Q 359 3434 948 4092 
Q 1538 4750 2522 4750 
z
" transform="scale(0.015625)"/>
     </defs>
     <use xlink:href="#DejaVuSans-4f"/>
     <use xlink:href="#DejaVuSans-3d" transform="translate(78.710938 0)"/>
     <use xlink:href="#DejaVuSans-32" transform="translate(162.5 0)"/>
     <use xlink:href="#DejaVuSans-31" transform="translate(226.123047 0)"/>
     <use xlink:href="#DejaVuSans-30" transform="translate(289.746094 0)"/>
     <use xlink:href="#DejaVuSans-20" transform="translate(353.369141 0)"/>
     <use xlink:href="#DejaVuSans-6d" transform="translate(385.15625 0)"/>
     <use xlink:href="#DejaVuSans-62" transform="translate(482.568359 0)"/>
     <use xlink:href="#DejaVuSans-61" transform="translate(546.044922 0)"/>
     <use xlink:href="#DejaVuSans-72" transform="translate(607.324219 0)"/>
    </g>
   </g>
  </g>
 </g>
 <defs>
  <clipPath id="p27a550070e">
   <rect x="40.603125" y="7.2" width="160.63" height="307.24"/>
  </clipPath>
 </defs>
</svg>
