<?xml version="1.0" encoding="utf-8" standalone="no"?>
<!DOCTYPE svg PUBLIC "-//W3C//DTD SVG 1.1//EN"
  "http://www.w3.org/Graphics/SVG/1.1/DTD/svg11.dtd">
<svg xmlns:xlink="http://www.w3.org/1999/xlink" width="208.495625pt" height="351.99625pt" viewBox="0 0 208.495625 351.99625" xmlns="http://www.w3.org/2000/svg" version="1.1">
 <metadata>
  <rdf:RDF xmlns:dc="http://purl.org/dc/elements/1.1/" xmlns:cc="http://creativecommons.org/ns#" xmlns:rdf="http://www.w3.org/1999/02/22-rdf-syntax-ns#">
   <cc:Work>
    <dc:type rdf:resource="http://purl.org/dc/dcmitype/StillImage"/>
    <dc:date>2026-07-14T14:46:17.599935</dc:date>
    <dc:format>image/svg+xml</dc:format>
    <dc:creator>
     <cc:Agent>
      <dc:title>Matplotlib v3.10.9, https://matplotlib.org/</dc:title>
     </cc:Agent>
    </dc:creator>
   </cc:Work>
  </rdf:RDF>
 </metadata>
 <defs>
  <style type="text/css">*{stroke-linejoin: round; stroke-linecap: butt}</style>
 </defs>
 <g id="figure_1">
  <g id="patch_1">
   <path d="M 0 351.99625 
L 208.495625 351.99625 
L 208.495625 0 
L 0 0 
z
" style="fill: #ffffff"/>
  </g>
  <g id="axes_1">
   <g id="patch_2">
    <path d="M 40.603125 314.44 
L 194.933125 314.44 
L 194.933125 7.2 
L 40.603125 7.2 
z
" style="fill: #ffffff"/>
   </g>
   <g id="matplotlib.axis_1">
    <g id="xtick_1">
     <g id="line2d_1">
      <defs>
       <path id="mcc1d938aba" d="M 0 0 
L 0 3.5 
" style="stroke: #000000; stroke-width: 0.8"/>
      </defs>
      <g>
       <use xlink:href="#mcc1d938aba" x="40.603125" y="314.44" style="stroke: #000000; stroke-width: 0.8"/>
      </g>
     </g>
     <g id="text_1">
      <!-- 0 -->
      <g transform="translate(37.421875 329.038437) scale(0.1 -0.1)">
       <defs>
        <path id="DejaVuSans-30" d="M 2034 4250 
Q 1547 4250 1301 3770 
Q 1056 3291 1056 2328 
Q 1056 1369 1301 889 
Q 1547 409 2034 409 
Q 2525 409 2770 889 
Q 3016 1369 3016 2328 
Q 3016 3291 2770 3770 
Q 2525 4250 2034 4250 
z
M 2034 4750 
Q 2819 4750 3233 4129 
Q 3647 3509 3647 2328 
Q 3647 1150 3233 529 
Q 2819 -91 2034 -91 
Q 1250 -91 836 529 
Q 422 1150 422 2328 
Q 422 3509 836 4129 
Q 1250 4750 2034 4750 
z
" transform="scale(0.015625)"/>
       </defs>
       <use xlink:href="#DejaVuSans-30"/>
      </g>
     </g>
    </g>
    <g id="xtick_2">
     <g id="line2d_2">
      <g>
       <use xlink:href="#mcc1d938aba" x="71.469125" y="314.44" style="stroke: #000000; stroke-width: 0.8"/>
      </g>
     </g>
     <g id="text_2">
      <!-- 10 -->
      <g transform="translate(65.106625 329.038437) scale(0.1 -0.1)">
       <defs>
        <path id="DejaVuSans-31" d="M 794 531 
L 1825 531 
L 1825 4091 
L 703 3866 
L 703 4441 
L 1819 4666 
L 2450 4666 
L 2450 531 
L 3481 531 
L 3481 0 
L 794 0 
L 794 531 
z
" transform="scale(0.015625)"/>
       </defs>
       <use xlink:href="#DejaVuSans-31"/>
       <use xlink:href="#DejaVuSans-30" transform="translate(63.623047 0)"/>
      </g>
     </g>
    </g>
    <g id="xtick_3">
     <g id="line2d_3">
      <g>
       <use xlink:href="#mcc1d938aba" x="102.335125" y="314.44" style="stroke: #000000; stroke-width: 0.8"/>
      </g>
     </g>
     <g id="text_3">
      <!-- 20 -->
      <g transform="translate(95.972625 329.038437) scale(0.1 -0.1)">
       <defs>
        <path id="DejaVuSans-32" d="M 1228 531 
L 3431 531 
L 3431 0 
L 469 0 
L 469 531 
Q 828 903 1448 1529 
Q 2069 2156 2228 2338 
Q 2531 2678 2651 2914 
Q 2772 3150 2772 3378 
Q 2772 3750 2511 3984 
Q 2250 4219 1831 4219 
Q 1534 4219 1204 4116 
Q 875 4013 500 3803 
L 500 4441 
Q 881 4594 1212 4672 
Q 1544 4750 1819 4750 
Q 2544 4750 2975 4387 
Q 3406 4025 3406 3419 
Q 3406 3131 3298 2873 
Q 3191 2616 2906 2266 
Q 2828 2175 2409 1742 
Q 1991 1309 1228 531 
z
" transform="scale(0.015625)"/>
       </defs>
       <use xlink:href="#DejaVuSans-32"/>
       <use xlink:href="#DejaVuSans-30" transform="translate(63.623047 0)"/>
      </g>
     </g>
    </g>
    <g id="xtick_4">
     <g id="line2d_4">
      <g>
       <use xlink:href="#mcc1d938aba" x="133.201125" y="314.44" style="stroke: #000000; stroke-width: 0.8"/>
      </g>
     </g>
     <g id="text_4">
      <!-- 30 -->
      <g transform="translate(126.838625 329.038437) scale(0.1 -0.1)">
       <defs>
        <path id="DejaVuSans-33" d="M 2597 2516 
Q 3050 2419 3304 2112 
Q 3559 1806 3559 1356 
Q 3559 666 3084 287 
Q 2609 -91 1734 -91 
Q 1441 -91 1130 -33 
Q 819 25 488 141 
L 488 750 
Q 750 597 1062 519 
Q 1375 441 1716 441 
Q 2309 441 2620 675 
Q 2931 909 2931 1356 
Q 2931 1769 2642 2001 
Q 2353 2234 1838 2234 
L 1294 2234 
L 1294 2753 
L 1863 2753 
Q 2328 2753 2575 2939 
Q 2822 3125 2822 3475 
Q 2822 3834 2567 4026 
Q 2313 4219 1838 4219 
Q 1578 4219 1281 4162 
Q 984 4106 628 3988 
L 628 4550 
Q 988 4650 1302 4700 
Q 1616 4750 1894 4750 
Q 2613 4750 3031 4423 
Q 3450 4097 3450 3541 
Q 3450 3153 3228 2886 
Q 3006 2619 2597 2516 
z
" transform="scale(0.015625)"/>
       </defs>
       <use xlink:href="#DejaVuSans-33"/>
       <use xlink:href="#DejaVuSans-30" transform="translate(63.623047 0)"/>
      </g>
     </g>
    </g>
    <g id="xtick_5">
     <g id="line2d_5">
      <g>
       <use xlink:href="#mcc1d938aba" x="164.067125" y="314.44" style="stroke: #000000; stroke-width: 0.8"/>
      </g>
     </g>
     <g id="text_5">
      <!-- 40 -->
      <g transform="translate(157.704625 329.038437) scale(0.1 -0.1)">
       <defs>
        <path id="DejaVuSans-34" d="M 2419 4116 
L 825 1625 
L 2419 1625 
L 2419 4116 
z
M 2253 4666 
L 3047 4666 
L 3047 1625 
L 3713 1625 
L 3713 1100 
L 3047 1100 
L 3047 0 
L 2419 0 
L 2419 1100 
L 313 1100 
L 313 1709 
L 2253 4666 
z
" transform="scale(0.015625)"/>
       </defs>
       <use xlink:href="#DejaVuSans-34"/>
       <use xlink:href="#DejaVuSans-30" transform="translate(63.623047 0)"/>
      </g>
     </g>
    </g>
    <g id="xtick_6">
     <g id="line2d_6">
      <g>
       <use xlink:href="#mcc1d938aba" x="194.933125" y="314.44" style="stroke: #000000; stroke-width: 0.8"/>
      </g>
     </g>
     <g id="text_6">
      <!-- 50 -->
      <g transform="translate(188.570625 329.038437) scale(0.1 -0.1)">
       <defs>
        <path id="DejaVuSans-35" d="M 691 4666 
L 3169 4666 
L 3169 4134 
L 1269 4134 
L 1269 2991 
Q 1406 3038 1543 3061 
Q 1681 3084 1819 3084 
Q 2600 3084 3056 2656 
Q 3513 2228 3513 1497 
Q 3513 744 3044 326 
Q 2575 -91 1722 -91 
Q 1428 -91 1123 -41 
Q 819 9 494 109 
L 494 744 
Q 775 591 1075 516 
Q 1375 441 1709 441 
Q 2250 441 2565 725 
Q 2881 1009 2881 1497 
Q 2881 1984 2565 2268 
Q 2250 2553 1709 2553 
Q 1456 2553 1204 2497 
Q 953 2441 691 2322 
L 691 4666 
z
" transform="scale(0.015625)"/>
       </defs>
       <use xlink:href="#DejaVuSans-35"/>
       <use xlink:href="#DejaVuSans-30" transform="translate(63.623047 0)"/>
      </g>
     </g>
    </g>
    <g id="text_7">
     <!-- T (C) -->
     <g transform="translate(105.732187 342.716562) scale(0.1 -0.1)">
      <defs>
       <path id="DejaVuSans-54" d="M -19 4666 
L 3928 4666 
L 3928 4134 
L 2272 4134 
L 2272 0 
L 1638 0 
L 1638 4134 
L -19 4134 
L -19 4666 
z
" transform="scale(0.015625)"/>
       <path id="DejaVuSans-20" transform="scale(0.015625)"/>
       <path id="DejaVuSans-28" d="M 1984 4856 
Q 1566 4138 1362 3434 
Q 1159 2731 1159 2009 
Q 1159 1288 1364 580 
Q 1569 -128 1984 -844 
L 1484 -844 
Q 1016 -109 783 600 
Q 550 1309 550 2009 
Q 550 2706 781 3412 
Q 1013 4119 1484 4856 
L 1984 4856 
z
" transform="scale(0.015625)"/>
       <path id="DejaVuSans-43" d="M 4122 4306 
L 4122 3641 
Q 3803 3938 3442 4084 
Q 3081 4231 2675 4231 
Q 1875 4231 1450 3742 
Q 1025 3253 1025 2328 
Q 1025 1406 1450 917 
Q 1875 428 2675 428 
Q 3081 428 3442 575 
Q 3803 722 4122 1019 
L 4122 359 
Q 3791 134 3420 21 
Q 3050 -91 2638 -91 
Q 1578 -91 968 557 
Q 359 1206 359 2328 
Q 359 3453 968 4101 
Q 1578 4750 2638 4750 
Q 3056 4750 3426 4639 
Q 3797 4528 4122 4306 
z
" transform="scale(0.015625)"/>
       <path id="DejaVuSans-29" d="M 513 4856 
L 1013 4856 
Q 1481 4119 1714 3412 
Q 1947 2706 1947 2009 
Q 1947 1309 1714 600 
Q 1481 -109 1013 -844 
L 513 -844 
Q 928 -128 1133 580 
Q 1338 1288 1338 2009 
Q 1338 2731 1133 3434 
Q 928 4138 513 4856 
z
" transform="scale(0.015625)"/>
      </defs>
      <use xlink:href="#DejaVuSans-54"/>
      <use xlink:href="#DejaVuSans-20" transform="translate(61.083984 0)"/>
      <use xlink:href="#DejaVuSans-28" transform="translate(92.871094 0)"/>
      <use xlink:href="#DejaVuSans-43" transform="translate(131.884766 0)"/>
      <use xlink:href="#DejaVuSans-29" transform="translate(201.708984 0)"/>
     </g>
    </g>
   </g>
   <g id="matplotlib.axis_2">
    <g id="ytick_1">
     <g id="line2d_7">
      <defs>
       <path id="m1adbb877c4" d="M 0 0 
L -3.5 0 
" style="stroke: #000000; stroke-width: 0.8"/>
      </defs>
      <g>
       <use xlink:href="#m1adbb877c4" x="40.603125" y="270.548571" style="stroke: #000000; stroke-width: 0.8"/>
      </g>
     </g>
     <g id="text_8">
      <!-- 0 -->
      <g transform="translate(27.240625 274.34779) scale(0.1 -0.1)">
       <use xlink:href="#DejaVuSans-30"/>
      </g>
     </g>
    </g>
    <g id="ytick_2">
     <g id="line2d_8">
      <g>
       <use xlink:href="#m1adbb877c4" x="40.603125" y="226.657143" style="stroke: #000000; stroke-width: 0.8"/>
      </g>
     </g>
     <g id="text_9">
      <!-- 5 -->
      <g transform="translate(27.240625 230.456362) scale(0.1 -0.1)">
       <use xlink:href="#DejaVuSans-35"/>
      </g>
     </g>
    </g>
    <g id="ytick_3">
     <g id="line2d_9">
      <g>
       <use xlink:href="#m1adbb877c4" x="40.603125" y="182.765714" style="stroke: #000000; stroke-width: 0.8"/>
      </g>
     </g>
     <g id="text_10">
      <!-- 10 -->
      <g transform="translate(20.878125 186.564933) scale(0.1 -0.1)">
       <use xlink:href="#DejaVuSans-31"/>
       <use xlink:href="#DejaVuSans-30" transform="translate(63.623047 0)"/>
      </g>
     </g>
    </g>
    <g id="ytick_4">
     <g id="line2d_10">
      <g>
       <use xlink:href="#m1adbb877c4" x="40.603125" y="138.874286" style="stroke: #000000; stroke-width: 0.8"/>
      </g>
     </g>
     <g id="text_11">
      <!-- 15 -->
      <g transform="translate(20.878125 142.673504) scale(0.1 -0.1)">
       <use xlink:href="#DejaVuSans-31"/>
       <use xlink:href="#DejaVuSans-35" transform="translate(63.623047 0)"/>
      </g>
     </g>
    </g>
    <g id="ytick_5">
     <g id="line2d_11">
      <g>
       <use xlink:href="#m1adbb877c4" x="40.603125" y="94.982857" style="stroke: #000000; stroke-width: 0.8"/>
      </g>
     </g>
     <g id="text_12">
      <!-- 20 -->
      <g transform="translate(20.878125 98.782076) scale(0.1 -0.1)">
       <use xlink:href="#DejaVuSans-32"/>
       <use xlink:href="#DejaVuSans-30" transform="translate(63.623047 0)"/>
      </g>
     </g>
    </g>
    <g id="ytick_6">
     <g id="line2d_12">
      <g>
       <use xlink:href="#m1adbb877c4" x="40.603125" y="51.091429" style="stroke: #000000; stroke-width: 0.8"/>
      </g>
     </g>
     <g id="text_13">
      <!-- 25 -->
      <g transform="translate(20.878125 54.890647) scale(0.1 -0.1)">
       <use xlink:href="#DejaVuSans-32"/>
       <use xlink:href="#DejaVuSans-35" transform="translate(63.623047 0)"/>
      </g>
     </g>
    </g>
    <g id="text_14">
     <!-- Assimilation rate, A (μmol m⁻² s⁻¹) -->
     <g transform="translate(14.798437 247.403594) rotate(-90) scale(0.1 -0.1)">
      <defs>
       <path id="DejaVuSans-41" d="M 2188 4044 
L 1331 1722 
L 3047 1722 
L 2188 4044 
z
M 1831 4666 
L 2547 4666 
L 4325 0 
L 3669 0 
L 3244 1197 
L 1141 1197 
L 716 0 
L 50 0 
L 1831 4666 
z
" transform="scale(0.015625)"/>
       <path id="DejaVuSans-73" d="M 2834 3397 
L 2834 2853 
Q 2591 2978 2328 3040 
Q 2066 3103 1784 3103 
Q 1356 3103 1142 2972 
Q 928 2841 928 2578 
Q 928 2378 1081 2264 
Q 1234 2150 1697 2047 
L 1894 2003 
Q 2506 1872 2764 1633 
Q 3022 1394 3022 966 
Q 3022 478 2636 193 
Q 2250 -91 1575 -91 
Q 1294 -91 989 -36 
Q 684 19 347 128 
L 347 722 
Q 666 556 975 473 
Q 1284 391 1588 391 
Q 1994 391 2212 530 
Q 2431 669 2431 922 
Q 2431 1156 2273 1281 
Q 2116 1406 1581 1522 
L 1381 1569 
Q 847 1681 609 1914 
Q 372 2147 372 2553 
Q 372 3047 722 3315 
Q 1072 3584 1716 3584 
Q 2034 3584 2315 3537 
Q 2597 3491 2834 3397 
z
" transform="scale(0.015625)"/>
       <path id="DejaVuSans-69" d="M 603 3500 
L 1178 3500 
L 1178 0 
L 603 0 
L 603 3500 
z
M 603 4863 
L 1178 4863 
L 1178 4134 
L 603 4134 
L 603 4863 
z
" transform="scale(0.015625)"/>
       <path id="DejaVuSans-6d" d="M 3328 2828 
Q 3544 3216 3844 3400 
Q 4144 3584 4550 3584 
Q 5097 3584 5394 3201 
Q 5691 2819 5691 2113 
L 5691 0 
L 5113 0 
L 5113 2094 
Q 5113 2597 4934 2840 
Q 4756 3084 4391 3084 
Q 3944 3084 3684 2787 
Q 3425 2491 3425 1978 
L 3425 0 
L 2847 0 
L 2847 2094 
Q 2847 2600 2669 2842 
Q 2491 3084 2119 3084 
Q 1678 3084 1418 2786 
Q 1159 2488 1159 1978 
L 1159 0 
L 581 0 
L 581 3500 
L 1159 3500 
L 1159 2956 
Q 1356 3278 1631 3431 
Q 1906 3584 2284 3584 
Q 2666 3584 2933 3390 
Q 3200 3197 3328 2828 
z
" transform="scale(0.015625)"/>
       <path id="DejaVuSans-6c" d="M 603 4863 
L 1178 4863 
L 1178 0 
L 603 0 
L 603 4863 
z
" transform="scale(0.015625)"/>
       <path id="DejaVuSans-61" d="M 2194 1759 
Q 1497 1759 1228 1600 
Q 959 1441 959 1056 
Q 959 750 1161 570 
Q 1363 391 1709 391 
Q 2188 391 2477 730 
Q 2766 1069 2766 1631 
L 2766 1759 
L 2194 1759 
z
M 3341 1997 
L 3341 0 
L 2766 0 
L 2766 531 
Q 2569 213 2275 61 
Q 1981 -91 1556 -91 
Q 1019 -91 701 211 
Q 384 513 384 1019 
Q 384 1609 779 1909 
Q 1175 2209 1959 2209 
L 2766 2209 
L 2766 2266 
Q 2766 2663 2505 2880 
Q 2244 3097 1772 3097 
Q 1472 3097 1187 3025 
Q 903 2953 641 2809 
L 641 3341 
Q 956 3463 1253 3523 
Q 1550 3584 1831 3584 
Q 2591 3584 2966 3190 
Q 3341 2797 3341 1997 
z
" transform="scale(0.015625)"/>
       <path id="DejaVuSans-74" d="M 1172 4494 
L 1172 3500 
L 2356 3500 
L 2356 3053 
L 1172 3053 
L 1172 1153 
Q 1172 725 1289 603 
Q 1406 481 1766 481 
L 2356 481 
L 2356 0 
L 1766 0 
Q 1100 0 847 248 
Q 594 497 594 1153 
L 594 3053 
L 172 3053 
L 172 3500 
L 594 3500 
L 594 4494 
L 1172 4494 
z
" transform="scale(0.015625)"/>
       <path id="DejaVuSans-6f" d="M 1959 3097 
Q 1497 3097 1228 2736 
Q 959 2375 959 1747 
Q 959 1119 1226 758 
Q 1494 397 1959 397 
Q 2419 397 2687 759 
Q 2956 1122 2956 1747 
Q 2956 2369 2687 2733 
Q 2419 3097 1959 3097 
z
M 1959 3584 
Q 2709 3584 3137 3096 
Q 3566 2609 3566 1747 
Q 3566 888 3137 398 
Q 2709 -91 1959 -91 
Q 1206 -91 779 398 
Q 353 888 353 1747 
Q 353 2609 779 3096 
Q 1206 3584 1959 3584 
z
" transform="scale(0.015625)"/>
       <path id="DejaVuSans-6e" d="M 3513 2113 
L 3513 0 
L 2938 0 
L 2938 2094 
Q 2938 2591 2744 2837 
Q 2550 3084 2163 3084 
Q 1697 3084 1428 2787 
Q 1159 2491 1159 1978 
L 1159 0 
L 581 0 
L 581 3500 
L 1159 3500 
L 1159 2956 
Q 1366 3272 1645 3428 
Q 1925 3584 2291 3584 
Q 2894 3584 3203 3211 
Q 3513 2838 3513 2113 
z
" transform="scale(0.015625)"/>
       <path id="DejaVuSans-72" d="M 2631 2963 
Q 2534 3019 2420 3045 
Q 2306 3072 2169 3072 
Q 1681 3072 1420 2755 
Q 1159 2438 1159 1844 
L 1159 0 
L 581 0 
L 581 3500 
L 1159 3500 
L 1159 2956 
Q 1341 3275 1631 3429 
Q 1922 3584 2338 3584 
Q 2397 3584 2469 3576 
Q 2541 3569 2628 3553 
L 2631 2963 
z
" transform="scale(0.015625)"/>
       <path id="DejaVuSans-65" d="M 3597 1894 
L 3597 1613 
L 953 1613 
Q 991 1019 1311 708 
Q 1631 397 2203 397 
Q 2534 397 2845 478 
Q 3156 559 3463 722 
L 3463 178 
Q 3153 47 2828 -22 
Q 2503 -91 2169 -91 
Q 1331 -91 842 396 
Q 353 884 353 1716 
Q 353 2575 817 3079 
Q 1281 3584 2069 3584 
Q 2775 3584 3186 3129 
Q 3597 2675 3597 1894 
z
M 3022 2063 
Q 3016 2534 2758 2815 
Q 2500 3097 2075 3097 
Q 1594 3097 1305 2825 
Q 1016 2553 972 2059 
L 3022 2063 
z
" transform="scale(0.015625)"/>
       <path id="DejaVuSans-2c" d="M 750 794 
L 1409 794 
L 1409 256 
L 897 -744 
L 494 -744 
L 750 256 
L 750 794 
z
" transform="scale(0.015625)"/>
       <path id="DejaVuSans-3bc" d="M 544 -1331 
L 544 3500 
L 1119 3500 
L 1119 1325 
Q 1119 872 1334 640 
Q 1550 409 1972 409 
Q 2434 409 2667 671 
Q 2900 934 2900 1459 
L 2900 3500 
L 3475 3500 
L 3475 806 
Q 3475 619 3529 530 
Q 3584 441 3700 441 
Q 3728 441 3778 458 
Q 3828 475 3916 513 
L 3916 50 
Q 3788 -22 3673 -56 
Q 3559 -91 3450 -91 
Q 3234 -91 3106 31 
Q 2978 153 2931 403 
Q 2775 156 2548 32 
Q 2322 -91 2016 -91 
Q 1697 -91 1473 31 
Q 1250 153 1119 397 
L 1119 -1331 
L 544 -1331 
z
" transform="scale(0.015625)"/>
       <path id="DejaVuSans-207b" d="M 428 3359 
L 2950 3359 
L 2950 3063 
L 428 3063 
L 428 3359 
z
" transform="scale(0.015625)"/>
       <path id="DejaVuSans-b2" d="M 838 2444 
L 2163 2444 
L 2163 2088 
L 294 2088 
L 294 2431 
Q 400 2528 597 2703 
Q 1672 3656 1672 3950 
Q 1672 4156 1509 4282 
Q 1347 4409 1081 4409 
Q 919 4409 728 4354 
Q 538 4300 313 4191 
L 313 4575 
Q 553 4663 761 4706 
Q 969 4750 1147 4750 
Q 1600 4750 1872 4544 
Q 2144 4338 2144 4000 
Q 2144 3566 1109 2678 
Q 934 2528 838 2444 
z
" transform="scale(0.015625)"/>
       <path id="DejaVuSans-b9" d="M 488 2431 
L 1125 2431 
L 1125 4341 
L 428 4213 
L 428 4575 
L 1147 4697 
L 1575 4697 
L 1575 2431 
L 2216 2431 
L 2216 2088 
L 488 2088 
L 488 2431 
z
" transform="scale(0.015625)"/>
      </defs>
      <use xlink:href="#DejaVuSans-41"/>
      <use xlink:href="#DejaVuSans-73" transform="translate(68.408203 0)"/>
      <use xlink:href="#DejaVuSans-73" transform="translate(120.507812 0)"/>
      <use xlink:href="#DejaVuSans-69" transform="translate(172.607422 0)"/>
      <use xlink:href="#DejaVuSans-6d" transform="translate(200.390625 0)"/>
      <use xlink:href="#DejaVuSans-69" transform="translate(297.802734 0)"/>
      <use xlink:href="#DejaVuSans-6c" transform="translate(325.585938 0)"/>
      <use xlink:href="#DejaVuSans-61" transform="translate(353.369141 0)"/>
      <use xlink:href="#DejaVuSans-74" transform="translate(414.648438 0)"/>
      <use xlink:href="#DejaVuSans-69" transform="translate(453.857422 0)"/>
      <use xlink:href="#DejaVuSans-6f" transform="translate(481.640625 0)"/>
      <use xlink:href="#DejaVuSans-6e" transform="translate(542.822266 0)"/>
      <use xlink:href="#DejaVuSans-20" transform="translate(606.201172 0)"/>
      <use xlink:href="#DejaVuSans-72" transform="translate(637.988281 0)"/>
      <use xlink:href="#DejaVuSans-61" transform="translate(679.101562 0)"/>
      <use xlink:href="#DejaVuSans-74" transform="translate(740.380859 0)"/>
      <use xlink:href="#DejaVuSans-65" transform="translate(779.589844 0)"/>
      <use xlink:href="#DejaVuSans-2c" transform="translate(841.113281 0)"/>
      <use xlink:href="#DejaVuSans-20" transform="translate(872.900391 0)"/>
      <use xlink:href="#DejaVuSans-41" transform="translate(904.6875 0)"/>
      <use xlink:href="#DejaVuSans-20" transform="translate(973.095703 0)"/>
      <use xlink:href="#DejaVuSans-28" transform="translate(1004.882812 0)"/>
      <use xlink:href="#DejaVuSans-3bc" transform="translate(1043.896484 0)"/>
      <use xlink:href="#DejaVuSans-6d" transform="translate(1107.519531 0)"/>
      <use xlink:href="#DejaVuSans-6f" transform="translate(1204.931641 0)"/>
      <use xlink:href="#DejaVuSans-6c" transform="translate(1266.113281 0)"/>
      <use xlink:href="#DejaVuSans-20" transform="translate(1293.896484 0)"/>
      <use xlink:href="#DejaVuSans-6d" transform="translate(1325.683594 0)"/>
      <use xlink:href="#DejaVuSans-207b" transform="translate(1423.095703 0)"/>
      <use xlink:href="#DejaVuSans-b2" transform="translate(1475.878906 0)"/>
      <use xlink:href="#DejaVuSans-20" transform="translate(1515.966797 0)"/>
      <use xlink:href="#DejaVuSans-73" transform="translate(1547.753906 0)"/>
      <use xlink:href="#DejaVuSans-207b" transform="translate(1599.853516 0)"/>
      <use xlink:href="#DejaVuSans-b9" transform="translate(1652.636719 0)"/>
      <use xlink:href="#DejaVuSans-29" transform="translate(1692.724609 0)"/>
     </g>
    </g>
   </g>
   <g id="line2d_13">
    <path d="M 40.603125 230.798343 
L 44.480763 226.990702 
L 48.358401 222.90496 
L 52.23604 218.530215 
L 56.113678 213.856137 
L 59.991316 208.873105 
L 63.868954 203.572376 
L 67.746592 197.94627 
L 71.624231 191.988404 
L 76.277396 184.394417 
L 80.930562 176.311423 
L 85.583728 167.740384 
L 90.236894 158.689699 
L 94.89006 149.1783 
L 100.318753 137.546358 
L 106.522974 123.669025 
L 109.625085 116.677152 
L 114.278251 110.295044 
L 118.931416 104.317936 
L 122.809055 99.691289 
L 126.686693 95.423892 
L 129.788803 92.291293 
L 132.890914 89.426875 
L 135.993024 86.846866 
L 139.095135 84.567053 
L 142.197246 82.602818 
L 145.299356 80.969188 
L 147.625939 79.969797 
L 149.176994 79.414486 
L 149.952522 81.656977 
L 151.503577 87.411604 
L 153.054633 94.068423 
L 154.605688 101.598957 
L 156.932271 114.410038 
L 159.258854 128.78253 
L 162.360964 149.710968 
L 172.442823 220.02679 
L 175.544934 239.464167 
L 178.647045 257.204808 
L 180.973628 269.382805 
L 183.30021 280.646221 
L 186.402321 294.382315 
L 189.504432 306.869306 
L 192.606542 318.35735 
L 194.933125 326.465266 
L 194.933125 326.465266 
" clip-path="url(#pdafc35a910)" style="fill: none; stroke: #000000; stroke-width: 1.5; stroke-linecap: square"/>
   </g>
   <g id="line2d_14">
    <path d="M 40.603125 230.798343 
L 44.480763 226.990702 
L 48.358401 222.90496 
L 52.23604 218.530215 
L 56.113678 213.856137 
L 59.991316 208.873105 
L 63.868954 203.572376 
L 67.746592 197.94627 
L 71.624231 191.988404 
L 76.277396 184.394417 
L 80.930562 176.311423 
L 85.583728 167.740384 
L 90.236894 158.689699 
L 94.89006 149.1783 
L 100.318753 137.546358 
L 106.522974 123.669025 
L 109.625085 116.677152 
L 114.278251 110.295044 
L 117.380361 106.261426 
L 118.155889 105.369062 
L 121.257999 102.728463 
L 123.584582 100.991945 
L 125.911165 99.472317 
L 128.237748 98.175836 
L 130.564331 97.108062 
L 132.890914 96.27388 
L 135.217497 95.67753 
L 137.54408 95.322646 
L 139.870663 95.212304 
L 142.197246 95.349069 
L 144.523829 95.735059 
L 146.850411 96.371996 
L 149.176994 97.261279 
L 151.503577 98.404041 
L 153.83016 99.801219 
L 154.605688 101.598957 
L 156.932271 114.410038 
L 159.258854 128.78253 
L 162.360964 149.710968 
L 172.442823 220.02679 
L 175.544934 239.464167 
L 178.647045 257.204808 
L 180.973628 269.382805 
L 183.30021 280.646221 
L 186.402321 294.382315 
L 189.504432 306.869306 
L 192.606542 318.35735 
L 194.933125 326.465266 
L 194.933125 326.465266 
" clip-path="url(#pdafc35a910)" style="fill: none; stroke: #000000; stroke-width: 1.5; stroke-linecap: square"/>
   </g>
   <g id="line2d_15">
    <path d="M 40.603125 230.798343 
L 44.480763 226.990702 
L 48.358401 222.90496 
L 52.23604 218.530215 
L 56.113678 213.856137 
L 59.991316 208.873105 
L 63.868954 203.572376 
L 67.746592 197.94627 
L 70.073175 194.411709 
L 71.624231 192.776994 
L 77.052924 187.699962 
L 81.70609 183.668094 
L 85.583728 180.581546 
L 89.461366 177.778042 
L 93.339004 175.285825 
L 96.441115 173.53242 
L 99.543226 172.003889 
L 102.645336 170.708705 
L 105.747447 169.65366 
L 108.849557 168.843999 
L 111.951668 168.283583 
L 115.053778 167.975084 
L 118.155889 167.920188 
L 121.257999 168.119815 
L 124.36011 168.574333 
L 127.46222 169.28377 
L 130.564331 170.248012 
L 133.666442 171.466995 
L 136.768552 172.940869 
L 139.870663 174.670161 
L 142.972773 176.655908 
L 146.074884 178.899785 
L 149.176994 181.404212 
L 152.279105 184.172449 
L 155.381215 187.20868 
L 158.483326 190.518092 
L 161.585437 194.106936 
L 164.687547 197.982593 
L 167.789658 202.153626 
L 170.116241 205.481587 
L 170.891768 209.732307 
L 173.993879 229.949236 
L 177.095989 248.551573 
L 179.422572 261.36963 
L 181.749155 273.235427 
L 184.075738 284.210673 
L 187.177849 297.611465 
L 190.279959 309.825202 
L 193.38207 321.102225 
L 194.933125 326.465266 
L 194.933125 326.465266 
" clip-path="url(#pdafc35a910)" style="fill: none; stroke: #000000; stroke-width: 1.5; stroke-linecap: square"/>
   </g>
   <g id="line2d_16">
    <path d="M 40.603125 236.095575 
L 47.582874 232.821887 
L 53.011567 230.50184 
L 58.440261 228.433884 
L 63.093427 226.892195 
L 67.746592 225.583762 
L 72.399758 224.522082 
L 77.052924 223.715851 
L 81.70609 223.169808 
L 86.359256 222.885731 
L 91.012421 222.863458 
L 95.665587 223.101866 
L 100.318753 223.599744 
L 104.971919 224.356544 
L 109.625085 225.372996 
L 114.278251 226.651617 
L 118.931416 228.197107 
L 123.584582 230.016681 
L 128.237748 232.120336 
L 132.115386 234.099674 
L 135.993024 236.294489 
L 139.870663 238.715636 
L 143.748301 241.375683 
L 147.625939 244.288989 
L 151.503577 247.471791 
L 155.381215 250.942296 
L 159.258854 254.720781 
L 163.136492 258.829697 
L 167.01413 263.293789 
L 170.891768 268.140214 
L 174.769406 273.398684 
L 178.647045 279.101606 
L 182.524683 285.284242 
L 184.851266 289.239881 
L 185.626793 291.07502 
L 188.728904 303.851013 
L 191.831014 315.56539 
L 194.933125 326.465266 
L 194.933125 326.465266 
" clip-path="url(#pdafc35a910)" style="fill: none; stroke: #000000; stroke-width: 1.5; stroke-linecap: square"/>
   </g>
   <g id="line2d_17">
    <path d="M 40.603125 271.378143 
L 54.562622 271.884913 
L 66.195537 272.513669 
L 76.277396 273.270857 
L 84.8082 274.114664 
L 92.563477 275.08643 
L 99.543226 276.165567 
L 106.522974 277.478579 
L 112.727195 278.878819 
L 118.155889 280.314364 
L 123.584582 281.975964 
L 129.013276 283.895798 
L 133.666442 285.774269 
L 138.319607 287.894495 
L 142.972773 290.284613 
L 146.850411 292.504859 
L 150.72805 294.953688 
L 154.605688 297.652398 
L 158.483326 300.62405 
L 162.360964 303.893604 
L 166.238602 307.488052 
L 170.116241 311.436561 
L 173.993879 315.770624 
L 177.095989 319.538225 
L 180.1981 323.592898 
L 183.30021 327.95441 
L 186.402321 332.643737 
L 189.504432 337.683129 
L 192.606542 343.096178 
L 194.933125 347.416164 
L 194.933125 347.416164 
" clip-path="url(#pdafc35a910)" style="fill: none; stroke: #000000; stroke-width: 1.5; stroke-linecap: square"/>
   </g>
   <g id="line2d_18">
    <path d="M 40.603125 229.968771 
L 44.480763 226.04216 
L 48.358401 221.82171 
L 52.23604 217.294618 
L 56.113678 212.448441 
L 59.991316 207.271221 
L 63.868954 201.751624 
L 67.746592 195.879108 
L 71.624231 189.644127 
L 75.501869 183.038391 
L 79.379507 176.055219 
L 84.032673 167.170912 
L 88.685839 157.734131 
L 93.339004 147.750748 
L 97.99217 137.239082 
L 103.420864 124.358949 
L 109.625085 109.076834 
L 115.829306 99.129943 
L 121.257999 90.815139 
L 126.686693 82.933299 
L 131.339859 76.566642 
L 135.993024 70.592968 
L 139.870663 65.934646 
L 143.748301 61.58098 
L 147.625939 57.542687 
L 149.176994 56.017655 
L 149.952522 57.76091 
L 151.503577 62.487447 
L 153.054633 68.075501 
L 154.605688 74.49513 
L 156.156743 81.691681 
L 158.483326 93.764425 
L 160.809909 107.047914 
L 164.687547 130.697832 
L 169.340713 159.049957 
L 172.442823 176.586746 
L 174.769406 188.621153 
L 177.095989 199.56192 
L 179.422572 209.366945 
L 181.749155 218.049982 
L 184.075738 225.664083 
L 186.402321 232.287149 
L 188.728904 238.010389 
L 191.055487 242.929763 
L 193.38207 247.140073 
L 194.933125 249.597674 
L 194.933125 249.597674 
" clip-path="url(#pdafc35a910)" style="fill: none; stroke-dasharray: 5.55,2.4; stroke-dashoffset: 0; stroke: #000000; stroke-width: 1.5"/>
   </g>
   <g id="line2d_19">
    <path d="M 40.603125 218.300555 
L 45.256291 212.777032 
L 49.909457 206.914982 
L 54.562622 200.731145 
L 59.991316 193.141 
L 66.195537 184.030336 
L 73.175286 173.333079 
L 82.481617 158.597386 
L 97.99217 133.981127 
L 104.196391 124.549351 
L 109.625085 116.677152 
L 114.278251 110.295044 
L 118.931416 104.317936 
L 122.809055 99.691289 
L 126.686693 95.423892 
L 129.788803 92.291293 
L 132.890914 89.426875 
L 135.993024 86.846866 
L 139.095135 84.567053 
L 142.197246 82.602818 
L 145.299356 80.969188 
L 147.625939 79.969797 
L 149.952522 79.170792 
L 152.279105 78.57825 
L 154.605688 78.198216 
L 156.932271 78.036722 
L 159.258854 78.099812 
L 161.585437 78.393563 
L 163.912019 78.924108 
L 166.238602 79.697662 
L 168.565185 80.720549 
L 170.891768 81.99922 
L 173.218351 83.540287 
L 175.544934 85.350543 
L 177.871517 87.43699 
L 180.1981 89.806865 
L 182.524683 92.467668 
L 184.851266 95.427183 
L 187.177849 98.693509 
L 189.504432 102.275085 
L 191.831014 106.180717 
L 194.933125 111.908265 
L 194.933125 111.908265 
" clip-path="url(#pdafc35a910)" style="fill: none; stroke-dasharray: 1.5,2.475; stroke-dashoffset: 0; stroke: #000000; stroke-width: 1.5"/>
   </g>
   <g id="line2d_20">
    <path d="M 40.603125 217.470984 
L 45.256291 211.802865 
L 49.909457 205.773023 
L 54.562622 199.394804 
L 59.991316 191.539116 
L 65.420009 183.276073 
L 71.624231 173.399848 
L 78.603979 161.848509 
L 87.910311 145.97964 
L 104.971919 116.784465 
L 111.951668 105.297517 
L 118.155889 95.51754 
L 123.584582 87.380583 
L 128.237748 80.769276 
L 132.890914 74.530325 
L 137.54408 68.69386 
L 141.421718 64.155971 
L 145.299356 59.927293 
L 149.176994 56.017655 
L 153.054633 52.43474 
L 156.932271 49.184212 
L 160.809909 46.269857 
L 164.687547 43.69375 
L 167.789658 41.876801 
L 170.891768 40.276313 
L 173.993879 38.891402 
L 177.095989 37.720725 
L 180.1981 36.762539 
L 183.30021 36.014751 
L 186.402321 35.474965 
L 189.504432 35.140528 
L 192.606542 35.008577 
L 194.933125 35.040673 
L 194.933125 35.040673 
" clip-path="url(#pdafc35a910)" style="fill: none; stroke-dasharray: 9.6,2.4,1.5,2.4; stroke-dashoffset: 0; stroke: #000000; stroke-width: 1.5"/>
   </g>
   <g id="patch_3">
    <path d="M 40.603125 314.44 
L 40.603125 7.2 
" style="fill: none; stroke: #000000; stroke-width: 0.8; stroke-linejoin: miter; stroke-linecap: square"/>
   </g>
   <g id="patch_4">
    <path d="M 194.933125 314.44 
L 194.933125 7.2 
" style="fill: none; stroke: #000000; stroke-width: 0.8; stroke-linejoin: miter; stroke-linecap: square"/>
   </g>
   <g id="patch_5">
    <path d="M 40.603125 314.44 
L 194.933125 314.44 
" style="fill: none; stroke: #000000; stroke-width: 0.8; stroke-linejoin: miter; stroke-linecap: square"/>
   </g>
   <g id="patch_6">
    <path d="M 40.603125 7.2 
L 194.933125 7.2 
" style="fill: none; stroke: #000000; stroke-width: 0.8; stroke-linejoin: miter; stroke-linecap: square"/>
   </g>
   <g id="text_15">
    <!-- 500 -->
    <g transform="translate(123.657375 112.650603) scale(0.1 -0.1)">
     <use xlink:href="#DejaVuSans-35"/>
     <use xlink:href="#DejaVuSans-30" transform="translate(63.623047 0)"/>
     <use xlink:href="#DejaVuSans-30" transform="translate(127.246094 0)"/>
    </g>
   </g>
   <g id="text_16">
    <!-- 250 -->
    <g transform="translate(123.657375 187.515088) scale(0.1 -0.1)">
     <use xlink:href="#DejaVuSans-32"/>
     <use xlink:href="#DejaVuSans-35" transform="translate(63.623047 0)"/>
     <use xlink:href="#DejaVuSans-30" transform="translate(127.246094 0)"/>
    </g>
   </g>
   <g id="text_17">
    <!-- 100 -->
    <g transform="translate(123.657375 250.897798) scale(0.1 -0.1)">
     <use xlink:href="#DejaVuSans-31"/>
     <use xlink:href="#DejaVuSans-30" transform="translate(63.623047 0)"/>
     <use xlink:href="#DejaVuSans-30" transform="translate(127.246094 0)"/>
    </g>
   </g>
   <g id="text_18">
    <!-- 0 -->
    <g transform="translate(130.019875 301.821844) scale(0.1 -0.1)">
     <use xlink:href="#DejaVuSans-30"/>
    </g>
   </g>
   <g id="text_19">
    <!-- C=230 µbar -->
    <g transform="translate(43.689725 37.813929) scale(0.1 -0.1)">
     <defs>
      <path id="DejaVuSans-3d" d="M 678 2906 
L 4684 2906 
L 4684 2381 
L 678 2381 
L 678 2906 
z
M 678 1631 
L 4684 1631 
L 4684 1100 
L 678 1100 
L 678 1631 
z
" transform="scale(0.015625)"/>
      <path id="DejaVuSans-b5" d="M 544 -1331 
L 544 3500 
L 1119 3500 
L 1119 1325 
Q 1119 872 1334 640 
Q 1550 409 1972 409 
Q 2434 409 2667 671 
Q 2900 934 2900 1459 
L 2900 3500 
L 3475 3500 
L 3475 806 
Q 3475 619 3529 530 
Q 3584 441 3700 441 
Q 3728 441 3778 458 
Q 3828 475 3916 513 
L 3916 50 
Q 3788 -22 3673 -56 
Q 3559 -91 3450 -91 
Q 3234 -91 3106 31 
Q 2978 153 2931 403 
Q 2775 156 2548 32 
Q 2322 -91 2016 -91 
Q 1697 -91 1473 31 
Q 1250 153 1119 397 
L 1119 -1331 
L 544 -1331 
z
" transform="scale(0.015625)"/>
      <path id="DejaVuSans-62" d="M 3116 1747 
Q 3116 2381 2855 2742 
Q 2594 3103 2138 3103 
Q 1681 3103 1420 2742 
Q 1159 2381 1159 1747 
Q 1159 1113 1420 752 
Q 1681 391 2138 391 
Q 2594 391 2855 752 
Q 3116 1113 3116 1747 
z
M 1159 2969 
Q 1341 3281 1617 3432 
Q 1894 3584 2278 3584 
Q 2916 3584 3314 3078 
Q 3713 2572 3713 1747 
Q 3713 922 3314 415 
Q 2916 -91 2278 -91 
Q 1894 -91 1617 61 
Q 1341 213 1159 525 
L 1159 0 
L 581 0 
L 581 4863 
L 1159 4863 
L 1159 2969 
z
" transform="scale(0.015625)"/>
     </defs>
     <use xlink:href="#DejaVuSans-43"/>
     <use xlink:href="#DejaVuSans-3d" transform="translate(69.824219 0)"/>
     <use xlink:href="#DejaVuSans-32" transform="translate(153.613281 0)"/>
     <use xlink:href="#DejaVuSans-33" transform="translate(217.236328 0)"/>
     <use xlink:href="#DejaVuSans-30" transform="translate(280.859375 0)"/>
     <use xlink:href="#DejaVuSans-20" transform="translate(344.482422 0)"/>
     <use xlink:href="#DejaVuSans-b5" transform="translate(376.269531 0)"/>
     <use xlink:href="#DejaVuSans-62" transform="translate(439.892578 0)"/>
     <use xlink:href="#DejaVuSans-61" transform="translate(503.369141 0)"/>
     <use xlink:href="#DejaVuSans-72" transform="translate(564.648438 0)"/>
    </g>
    <!-- O=210 mbar -->
    <g transform="translate(43.689725 49.011741) scale(0.1 -0.1)">
     <defs>
      <path id="DejaVuSans-4f" d="M 2522 4238 
Q 1834 4238 1429 3725 
Q 1025 3213 1025 2328 
Q 1025 1447 1429 934 
Q 1834 422 2522 422 
Q 3209 422 3611 934 
Q 4013 1447 4013 2328 
Q 4013 3213 3611 3725 
Q 3209 4238 2522 4238 
z
M 2522 4750 
Q 3503 4750 4090 4092 
Q 4678 3434 4678 2328 
Q 4678 1225 4090 567 
Q 3503 -91 2522 -91 
Q 1538 -91 948 565 
Q 359 1222 359 2328 
Q 359 3434 948 4092 
Q 1538 4750 2522 4750 
z
" transform="scale(0.015625)"/>
     </defs>
     <use xlink:href="#DejaVuSans-4f"/>
     <use xlink:href="#DejaVuSans-3d" transform="translate(78.710938 0)"/>
     <use xlink:href="#DejaVuSans-32" transform="translate(162.5 0)"/>
     <use xlink:href="#DejaVuSans-31" transform="translate(226.123047 0)"/>
     <use xlink:href="#DejaVuSans-30" transform="translate(289.746094 0)"/>
     <use xlink:href="#DejaVuSans-20" transform="translate(353.369141 0)"/>
     <use xlink:href="#DejaVuSans-6d" transform="translate(385.15625 0)"/>
     <use xlink:href="#DejaVuSans-62" transform="translate(482.568359 0)"/>
     <use xlink:href="#DejaVuSans-61" transform="translate(546.044922 0)"/>
     <use xlink:href="#DejaVuSans-72" transform="translate(607.324219 0)"/>
    </g>
   </g>
  </g>
 </g>
 <defs>
  <clipPath id="pdafc35a910">
   <rect x="40.603125" y="7.2" width="154.33" height="307.24"/>
  </clipPath>
 </defs>
</svg>
