<?xml version="1.0" encoding="utf-8" standalone="no"?>
<!DOCTYPE svg PUBLIC "-//W3C//DTD SVG 1.1//EN"
  "http://www.w3.org/Graphics/SVG/1.1/DTD/svg11.dtd">
<svg xmlns:xlink="http://www.w3.org/1999/xlink" width="280.491563pt" height="273.82185pt" viewBox="0 0 280.491563 273.82185" xmlns="http://www.w3.org/2000/svg" version="1.1">
 <metadata>
  <rdf:RDF xmlns:dc="http://purl.org/dc/elements/1.1/" xmlns:cc="http://creativecommons.org/ns#" xmlns:rdf="http://www.w3.org/1999/02/22-rdf-syntax-ns#">
   <cc:Work>
    <dc:type rdf:resource="http://purl.org/dc/dcmitype/StillImage"/>
    <dc:date>2026-07-14T14:46:17.740332</dc:date>
    <dc:format>image/svg+xml</dc:format>
    <dc:creator>
     <cc:Agent>
      <dc:title>Matplotlib v3.10.9, https://matplotlib.org/</dc:title>
     </cc:Agent>
    </dc:creator>
   </cc:Work>
  </rdf:RDF>
 </metadata>
 <defs>
  <style type="text/css">*{stroke-linejoin: round; stroke-linecap: butt}</style>
 </defs>
 <g id="figure_1">
  <g id="patch_1">
   <path d="M 0 273.82185 
L 280.491563 273.82185 
L 280.491563 0 
L 0 0 
z
" style="fill: #ffffff"/>
  </g>
  <g id="axes_1">
   <g id="patch_2">
    <path d="M 48.982813 236.2656 
L 263.747813 236.2656 
L 263.747813 45.3776 
L 48.982813 45.3776 
z
" style="fill: #ffffff"/>
   </g>
   <g id="patch_3">
    <path d="M 48.982813 35.8332 
L 125.08338 35.8332 
L 125.08338 26.2888 
L 48.982813 26.2888 
z
" style="fill: #bad78c; stroke: #bad78c; stroke-linejoin: miter"/>
   </g>
   <g id="patch_4">
    <path d="M 125.08338 35.8332 
L 216.081914 35.8332 
L 216.081914 26.2888 
L 125.08338 26.2888 
z
" style="fill: #f4a17c; stroke: #f4a17c; stroke-linejoin: miter"/>
   </g>
   <g id="patch_5">
    <path d="M 216.081914 35.8332 
L 263.747813 35.8332 
L 263.747813 26.2888 
L 216.081914 26.2888 
z
" style="fill: #8e96c3; stroke: #8e96c3; stroke-linejoin: miter"/>
   </g>
   <g id="matplotlib.axis_1">
    <g id="xtick_1">
     <g id="line2d_1">
      <defs>
       <path id="m5ce0568a5c" d="M 0 0 
L 0 3.5 
" style="stroke: #000000; stroke-width: 0.8"/>
      </defs>
      <g>
       <use xlink:href="#m5ce0568a5c" x="48.982813" y="236.2656" style="stroke: #000000; stroke-width: 0.8"/>
      </g>
     </g>
     <g id="text_1">
      <!-- 0 -->
      <g transform="translate(45.801563 250.864037) scale(0.1 -0.1)">
       <defs>
        <path id="DejaVuSans-30" d="M 2034 4250 
Q 1547 4250 1301 3770 
Q 1056 3291 1056 2328 
Q 1056 1369 1301 889 
Q 1547 409 2034 409 
Q 2525 409 2770 889 
Q 3016 1369 3016 2328 
Q 3016 3291 2770 3770 
Q 2525 4250 2034 4250 
z
M 2034 4750 
Q 2819 4750 3233 4129 
Q 3647 3509 3647 2328 
Q 3647 1150 3233 529 
Q 2819 -91 2034 -91 
Q 1250 -91 836 529 
Q 422 1150 422 2328 
Q 422 3509 836 4129 
Q 1250 4750 2034 4750 
z
" transform="scale(0.015625)"/>
       </defs>
       <use xlink:href="#DejaVuSans-30"/>
      </g>
     </g>
    </g>
    <g id="xtick_2">
     <g id="line2d_2">
      <g>
       <use xlink:href="#m5ce0568a5c" x="102.674063" y="236.2656" style="stroke: #000000; stroke-width: 0.8"/>
      </g>
     </g>
     <g id="text_2">
      <!-- 200 -->
      <g transform="translate(93.130313 250.864037) scale(0.1 -0.1)">
       <defs>
        <path id="DejaVuSans-32" d="M 1228 531 
L 3431 531 
L 3431 0 
L 469 0 
L 469 531 
Q 828 903 1448 1529 
Q 2069 2156 2228 2338 
Q 2531 2678 2651 2914 
Q 2772 3150 2772 3378 
Q 2772 3750 2511 3984 
Q 2250 4219 1831 4219 
Q 1534 4219 1204 4116 
Q 875 4013 500 3803 
L 500 4441 
Q 881 4594 1212 4672 
Q 1544 4750 1819 4750 
Q 2544 4750 2975 4387 
Q 3406 4025 3406 3419 
Q 3406 3131 3298 2873 
Q 3191 2616 2906 2266 
Q 2828 2175 2409 1742 
Q 1991 1309 1228 531 
z
" transform="scale(0.015625)"/>
       </defs>
       <use xlink:href="#DejaVuSans-32"/>
       <use xlink:href="#DejaVuSans-30" transform="translate(63.623047 0)"/>
       <use xlink:href="#DejaVuSans-30" transform="translate(127.246094 0)"/>
      </g>
     </g>
    </g>
    <g id="xtick_3">
     <g id="line2d_3">
      <g>
       <use xlink:href="#m5ce0568a5c" x="156.365313" y="236.2656" style="stroke: #000000; stroke-width: 0.8"/>
      </g>
     </g>
     <g id="text_3">
      <!-- 400 -->
      <g transform="translate(146.821563 250.864037) scale(0.1 -0.1)">
       <defs>
        <path id="DejaVuSans-34" d="M 2419 4116 
L 825 1625 
L 2419 1625 
L 2419 4116 
z
M 2253 4666 
L 3047 4666 
L 3047 1625 
L 3713 1625 
L 3713 1100 
L 3047 1100 
L 3047 0 
L 2419 0 
L 2419 1100 
L 313 1100 
L 313 1709 
L 2253 4666 
z
" transform="scale(0.015625)"/>
       </defs>
       <use xlink:href="#DejaVuSans-34"/>
       <use xlink:href="#DejaVuSans-30" transform="translate(63.623047 0)"/>
       <use xlink:href="#DejaVuSans-30" transform="translate(127.246094 0)"/>
      </g>
     </g>
    </g>
    <g id="xtick_4">
     <g id="line2d_4">
      <g>
       <use xlink:href="#m5ce0568a5c" x="210.056563" y="236.2656" style="stroke: #000000; stroke-width: 0.8"/>
      </g>
     </g>
     <g id="text_4">
      <!-- 600 -->
      <g transform="translate(200.512813 250.864037) scale(0.1 -0.1)">
       <defs>
        <path id="DejaVuSans-36" d="M 2113 2584 
Q 1688 2584 1439 2293 
Q 1191 2003 1191 1497 
Q 1191 994 1439 701 
Q 1688 409 2113 409 
Q 2538 409 2786 701 
Q 3034 994 3034 1497 
Q 3034 2003 2786 2293 
Q 2538 2584 2113 2584 
z
M 3366 4563 
L 3366 3988 
Q 3128 4100 2886 4159 
Q 2644 4219 2406 4219 
Q 1781 4219 1451 3797 
Q 1122 3375 1075 2522 
Q 1259 2794 1537 2939 
Q 1816 3084 2150 3084 
Q 2853 3084 3261 2657 
Q 3669 2231 3669 1497 
Q 3669 778 3244 343 
Q 2819 -91 2113 -91 
Q 1303 -91 875 529 
Q 447 1150 447 2328 
Q 447 3434 972 4092 
Q 1497 4750 2381 4750 
Q 2619 4750 2861 4703 
Q 3103 4656 3366 4563 
z
" transform="scale(0.015625)"/>
       </defs>
       <use xlink:href="#DejaVuSans-36"/>
       <use xlink:href="#DejaVuSans-30" transform="translate(63.623047 0)"/>
       <use xlink:href="#DejaVuSans-30" transform="translate(127.246094 0)"/>
      </g>
     </g>
    </g>
    <g id="xtick_5">
     <g id="line2d_5">
      <g>
       <use xlink:href="#m5ce0568a5c" x="263.747813" y="236.2656" style="stroke: #000000; stroke-width: 0.8"/>
      </g>
     </g>
     <g id="text_5">
      <!-- 800 -->
      <g transform="translate(254.204063 250.864037) scale(0.1 -0.1)">
       <defs>
        <path id="DejaVuSans-38" d="M 2034 2216 
Q 1584 2216 1326 1975 
Q 1069 1734 1069 1313 
Q 1069 891 1326 650 
Q 1584 409 2034 409 
Q 2484 409 2743 651 
Q 3003 894 3003 1313 
Q 3003 1734 2745 1975 
Q 2488 2216 2034 2216 
z
M 1403 2484 
Q 997 2584 770 2862 
Q 544 3141 544 3541 
Q 544 4100 942 4425 
Q 1341 4750 2034 4750 
Q 2731 4750 3128 4425 
Q 3525 4100 3525 3541 
Q 3525 3141 3298 2862 
Q 3072 2584 2669 2484 
Q 3125 2378 3379 2068 
Q 3634 1759 3634 1313 
Q 3634 634 3220 271 
Q 2806 -91 2034 -91 
Q 1263 -91 848 271 
Q 434 634 434 1313 
Q 434 1759 690 2068 
Q 947 2378 1403 2484 
z
M 1172 3481 
Q 1172 3119 1398 2916 
Q 1625 2713 2034 2713 
Q 2441 2713 2670 2916 
Q 2900 3119 2900 3481 
Q 2900 3844 2670 4047 
Q 2441 4250 2034 4250 
Q 1625 4250 1398 4047 
Q 1172 3844 1172 3481 
z
" transform="scale(0.015625)"/>
       </defs>
       <use xlink:href="#DejaVuSans-38"/>
       <use xlink:href="#DejaVuSans-30" transform="translate(63.623047 0)"/>
       <use xlink:href="#DejaVuSans-30" transform="translate(127.246094 0)"/>
      </g>
     </g>
    </g>
    <g id="text_6">
     <!-- C (µbar) -->
     <g transform="translate(135.908281 264.542162) scale(0.1 -0.1)">
      <defs>
       <path id="DejaVuSans-43" d="M 4122 4306 
L 4122 3641 
Q 3803 3938 3442 4084 
Q 3081 4231 2675 4231 
Q 1875 4231 1450 3742 
Q 1025 3253 1025 2328 
Q 1025 1406 1450 917 
Q 1875 428 2675 428 
Q 3081 428 3442 575 
Q 3803 722 4122 1019 
L 4122 359 
Q 3791 134 3420 21 
Q 3050 -91 2638 -91 
Q 1578 -91 968 557 
Q 359 1206 359 2328 
Q 359 3453 968 4101 
Q 1578 4750 2638 4750 
Q 3056 4750 3426 4639 
Q 3797 4528 4122 4306 
z
" transform="scale(0.015625)"/>
       <path id="DejaVuSans-20" transform="scale(0.015625)"/>
       <path id="DejaVuSans-28" d="M 1984 4856 
Q 1566 4138 1362 3434 
Q 1159 2731 1159 2009 
Q 1159 1288 1364 580 
Q 1569 -128 1984 -844 
L 1484 -844 
Q 1016 -109 783 600 
Q 550 1309 550 2009 
Q 550 2706 781 3412 
Q 1013 4119 1484 4856 
L 1984 4856 
z
" transform="scale(0.015625)"/>
       <path id="DejaVuSans-b5" d="M 544 -1331 
L 544 3500 
L 1119 3500 
L 1119 1325 
Q 1119 872 1334 640 
Q 1550 409 1972 409 
Q 2434 409 2667 671 
Q 2900 934 2900 1459 
L 2900 3500 
L 3475 3500 
L 3475 806 
Q 3475 619 3529 530 
Q 3584 441 3700 441 
Q 3728 441 3778 458 
Q 3828 475 3916 513 
L 3916 50 
Q 3788 -22 3673 -56 
Q 3559 -91 3450 -91 
Q 3234 -91 3106 31 
Q 2978 153 2931 403 
Q 2775 156 2548 32 
Q 2322 -91 2016 -91 
Q 1697 -91 1473 31 
Q 1250 153 1119 397 
L 1119 -1331 
L 544 -1331 
z
" transform="scale(0.015625)"/>
       <path id="DejaVuSans-62" d="M 3116 1747 
Q 3116 2381 2855 2742 
Q 2594 3103 2138 3103 
Q 1681 3103 1420 2742 
Q 1159 2381 1159 1747 
Q 1159 1113 1420 752 
Q 1681 391 2138 391 
Q 2594 391 2855 752 
Q 3116 1113 3116 1747 
z
M 1159 2969 
Q 1341 3281 1617 3432 
Q 1894 3584 2278 3584 
Q 2916 3584 3314 3078 
Q 3713 2572 3713 1747 
Q 3713 922 3314 415 
Q 2916 -91 2278 -91 
Q 1894 -91 1617 61 
Q 1341 213 1159 525 
L 1159 0 
L 581 0 
L 581 4863 
L 1159 4863 
L 1159 2969 
z
" transform="scale(0.015625)"/>
       <path id="DejaVuSans-61" d="M 2194 1759 
Q 1497 1759 1228 1600 
Q 959 1441 959 1056 
Q 959 750 1161 570 
Q 1363 391 1709 391 
Q 2188 391 2477 730 
Q 2766 1069 2766 1631 
L 2766 1759 
L 2194 1759 
z
M 3341 1997 
L 3341 0 
L 2766 0 
L 2766 531 
Q 2569 213 2275 61 
Q 1981 -91 1556 -91 
Q 1019 -91 701 211 
Q 384 513 384 1019 
Q 384 1609 779 1909 
Q 1175 2209 1959 2209 
L 2766 2209 
L 2766 2266 
Q 2766 2663 2505 2880 
Q 2244 3097 1772 3097 
Q 1472 3097 1187 3025 
Q 903 2953 641 2809 
L 641 3341 
Q 956 3463 1253 3523 
Q 1550 3584 1831 3584 
Q 2591 3584 2966 3190 
Q 3341 2797 3341 1997 
z
" transform="scale(0.015625)"/>
       <path id="DejaVuSans-72" d="M 2631 2963 
Q 2534 3019 2420 3045 
Q 2306 3072 2169 3072 
Q 1681 3072 1420 2755 
Q 1159 2438 1159 1844 
L 1159 0 
L 581 0 
L 581 3500 
L 1159 3500 
L 1159 2956 
Q 1341 3275 1631 3429 
Q 1922 3584 2338 3584 
Q 2397 3584 2469 3576 
Q 2541 3569 2628 3553 
L 2631 2963 
z
" transform="scale(0.015625)"/>
       <path id="DejaVuSans-29" d="M 513 4856 
L 1013 4856 
Q 1481 4119 1714 3412 
Q 1947 2706 1947 2009 
Q 1947 1309 1714 600 
Q 1481 -109 1013 -844 
L 513 -844 
Q 928 -128 1133 580 
Q 1338 1288 1338 2009 
Q 1338 2731 1133 3434 
Q 928 4138 513 4856 
z
" transform="scale(0.015625)"/>
      </defs>
      <use xlink:href="#DejaVuSans-43"/>
      <use xlink:href="#DejaVuSans-20" transform="translate(69.824219 0)"/>
      <use xlink:href="#DejaVuSans-28" transform="translate(101.611328 0)"/>
      <use xlink:href="#DejaVuSans-b5" transform="translate(140.625 0)"/>
      <use xlink:href="#DejaVuSans-62" transform="translate(204.248047 0)"/>
      <use xlink:href="#DejaVuSans-61" transform="translate(267.724609 0)"/>
      <use xlink:href="#DejaVuSans-72" transform="translate(329.003906 0)"/>
      <use xlink:href="#DejaVuSans-29" transform="translate(370.117188 0)"/>
     </g>
    </g>
   </g>
   <g id="matplotlib.axis_2">
    <g id="ytick_1">
     <g id="line2d_6">
      <defs>
       <path id="ma54b2e4751" d="M 0 0 
L -3.5 0 
" style="stroke: #000000; stroke-width: 0.8"/>
      </defs>
      <g>
       <use xlink:href="#ma54b2e4751" x="48.982813" y="236.2656" style="stroke: #000000; stroke-width: 0.8"/>
      </g>
     </g>
     <g id="text_7">
      <!-- −20 -->
      <g transform="translate(20.878125 240.064819) scale(0.1 -0.1)">
       <defs>
        <path id="DejaVuSans-2212" d="M 678 2272 
L 4684 2272 
L 4684 1741 
L 678 1741 
L 678 2272 
z
" transform="scale(0.015625)"/>
       </defs>
       <use xlink:href="#DejaVuSans-2212"/>
       <use xlink:href="#DejaVuSans-32" transform="translate(83.789062 0)"/>
       <use xlink:href="#DejaVuSans-30" transform="translate(147.412109 0)"/>
      </g>
     </g>
    </g>
    <g id="ytick_2">
     <g id="line2d_7">
      <g>
       <use xlink:href="#ma54b2e4751" x="48.982813" y="208.995886" style="stroke: #000000; stroke-width: 0.8"/>
      </g>
     </g>
     <g id="text_8">
      <!-- −10 -->
      <g transform="translate(20.878125 212.795104) scale(0.1 -0.1)">
       <defs>
        <path id="DejaVuSans-31" d="M 794 531 
L 1825 531 
L 1825 4091 
L 703 3866 
L 703 4441 
L 1819 4666 
L 2450 4666 
L 2450 531 
L 3481 531 
L 3481 0 
L 794 0 
L 794 531 
z
" transform="scale(0.015625)"/>
       </defs>
       <use xlink:href="#DejaVuSans-2212"/>
       <use xlink:href="#DejaVuSans-31" transform="translate(83.789062 0)"/>
       <use xlink:href="#DejaVuSans-30" transform="translate(147.412109 0)"/>
      </g>
     </g>
    </g>
    <g id="ytick_3">
     <g id="line2d_8">
      <g>
       <use xlink:href="#ma54b2e4751" x="48.982813" y="181.726171" style="stroke: #000000; stroke-width: 0.8"/>
      </g>
     </g>
     <g id="text_9">
      <!-- 0 -->
      <g transform="translate(35.620313 185.52539) scale(0.1 -0.1)">
       <use xlink:href="#DejaVuSans-30"/>
      </g>
     </g>
    </g>
    <g id="ytick_4">
     <g id="line2d_9">
      <g>
       <use xlink:href="#ma54b2e4751" x="48.982813" y="154.456457" style="stroke: #000000; stroke-width: 0.8"/>
      </g>
     </g>
     <g id="text_10">
      <!-- 10 -->
      <g transform="translate(29.257813 158.255676) scale(0.1 -0.1)">
       <use xlink:href="#DejaVuSans-31"/>
       <use xlink:href="#DejaVuSans-30" transform="translate(63.623047 0)"/>
      </g>
     </g>
    </g>
    <g id="ytick_5">
     <g id="line2d_10">
      <g>
       <use xlink:href="#ma54b2e4751" x="48.982813" y="127.186743" style="stroke: #000000; stroke-width: 0.8"/>
      </g>
     </g>
     <g id="text_11">
      <!-- 20 -->
      <g transform="translate(29.257813 130.985962) scale(0.1 -0.1)">
       <use xlink:href="#DejaVuSans-32"/>
       <use xlink:href="#DejaVuSans-30" transform="translate(63.623047 0)"/>
      </g>
     </g>
    </g>
    <g id="ytick_6">
     <g id="line2d_11">
      <g>
       <use xlink:href="#ma54b2e4751" x="48.982813" y="99.917029" style="stroke: #000000; stroke-width: 0.8"/>
      </g>
     </g>
     <g id="text_12">
      <!-- 30 -->
      <g transform="translate(29.257813 103.716247) scale(0.1 -0.1)">
       <defs>
        <path id="DejaVuSans-33" d="M 2597 2516 
Q 3050 2419 3304 2112 
Q 3559 1806 3559 1356 
Q 3559 666 3084 287 
Q 2609 -91 1734 -91 
Q 1441 -91 1130 -33 
Q 819 25 488 141 
L 488 750 
Q 750 597 1062 519 
Q 1375 441 1716 441 
Q 2309 441 2620 675 
Q 2931 909 2931 1356 
Q 2931 1769 2642 2001 
Q 2353 2234 1838 2234 
L 1294 2234 
L 1294 2753 
L 1863 2753 
Q 2328 2753 2575 2939 
Q 2822 3125 2822 3475 
Q 2822 3834 2567 4026 
Q 2313 4219 1838 4219 
Q 1578 4219 1281 4162 
Q 984 4106 628 3988 
L 628 4550 
Q 988 4650 1302 4700 
Q 1616 4750 1894 4750 
Q 2613 4750 3031 4423 
Q 3450 4097 3450 3541 
Q 3450 3153 3228 2886 
Q 3006 2619 2597 2516 
z
" transform="scale(0.015625)"/>
       </defs>
       <use xlink:href="#DejaVuSans-33"/>
       <use xlink:href="#DejaVuSans-30" transform="translate(63.623047 0)"/>
      </g>
     </g>
    </g>
    <g id="ytick_7">
     <g id="line2d_12">
      <g>
       <use xlink:href="#ma54b2e4751" x="48.982813" y="72.647314" style="stroke: #000000; stroke-width: 0.8"/>
      </g>
     </g>
     <g id="text_13">
      <!-- 40 -->
      <g transform="translate(29.257813 76.446533) scale(0.1 -0.1)">
       <use xlink:href="#DejaVuSans-34"/>
       <use xlink:href="#DejaVuSans-30" transform="translate(63.623047 0)"/>
      </g>
     </g>
    </g>
    <g id="ytick_8">
     <g id="line2d_13">
      <g>
       <use xlink:href="#ma54b2e4751" x="48.982813" y="45.3776" style="stroke: #000000; stroke-width: 0.8"/>
      </g>
     </g>
     <g id="text_14">
      <!-- 50 -->
      <g transform="translate(29.257813 49.176819) scale(0.1 -0.1)">
       <defs>
        <path id="DejaVuSans-35" d="M 691 4666 
L 3169 4666 
L 3169 4134 
L 1269 4134 
L 1269 2991 
Q 1406 3038 1543 3061 
Q 1681 3084 1819 3084 
Q 2600 3084 3056 2656 
Q 3513 2228 3513 1497 
Q 3513 744 3044 326 
Q 2575 -91 1722 -91 
Q 1428 -91 1123 -41 
Q 819 9 494 109 
L 494 744 
Q 775 591 1075 516 
Q 1375 441 1709 441 
Q 2250 441 2565 725 
Q 2881 1009 2881 1497 
Q 2881 1984 2565 2268 
Q 2250 2553 1709 2553 
Q 1456 2553 1204 2497 
Q 953 2441 691 2322 
L 691 4666 
z
" transform="scale(0.015625)"/>
       </defs>
       <use xlink:href="#DejaVuSans-35"/>
       <use xlink:href="#DejaVuSans-30" transform="translate(63.623047 0)"/>
      </g>
     </g>
    </g>
    <g id="text_15">
     <!-- Rates (µmol m⁻² s⁻¹) -->
     <g transform="translate(14.798438 192.820037) rotate(-90) scale(0.1 -0.1)">
      <defs>
       <path id="DejaVuSans-52" d="M 2841 2188 
Q 3044 2119 3236 1894 
Q 3428 1669 3622 1275 
L 4263 0 
L 3584 0 
L 2988 1197 
Q 2756 1666 2539 1819 
Q 2322 1972 1947 1972 
L 1259 1972 
L 1259 0 
L 628 0 
L 628 4666 
L 2053 4666 
Q 2853 4666 3247 4331 
Q 3641 3997 3641 3322 
Q 3641 2881 3436 2590 
Q 3231 2300 2841 2188 
z
M 1259 4147 
L 1259 2491 
L 2053 2491 
Q 2509 2491 2742 2702 
Q 2975 2913 2975 3322 
Q 2975 3731 2742 3939 
Q 2509 4147 2053 4147 
L 1259 4147 
z
" transform="scale(0.015625)"/>
       <path id="DejaVuSans-74" d="M 1172 4494 
L 1172 3500 
L 2356 3500 
L 2356 3053 
L 1172 3053 
L 1172 1153 
Q 1172 725 1289 603 
Q 1406 481 1766 481 
L 2356 481 
L 2356 0 
L 1766 0 
Q 1100 0 847 248 
Q 594 497 594 1153 
L 594 3053 
L 172 3053 
L 172 3500 
L 594 3500 
L 594 4494 
L 1172 4494 
z
" transform="scale(0.015625)"/>
       <path id="DejaVuSans-65" d="M 3597 1894 
L 3597 1613 
L 953 1613 
Q 991 1019 1311 708 
Q 1631 397 2203 397 
Q 2534 397 2845 478 
Q 3156 559 3463 722 
L 3463 178 
Q 3153 47 2828 -22 
Q 2503 -91 2169 -91 
Q 1331 -91 842 396 
Q 353 884 353 1716 
Q 353 2575 817 3079 
Q 1281 3584 2069 3584 
Q 2775 3584 3186 3129 
Q 3597 2675 3597 1894 
z
M 3022 2063 
Q 3016 2534 2758 2815 
Q 2500 3097 2075 3097 
Q 1594 3097 1305 2825 
Q 1016 2553 972 2059 
L 3022 2063 
z
" transform="scale(0.015625)"/>
       <path id="DejaVuSans-73" d="M 2834 3397 
L 2834 2853 
Q 2591 2978 2328 3040 
Q 2066 3103 1784 3103 
Q 1356 3103 1142 2972 
Q 928 2841 928 2578 
Q 928 2378 1081 2264 
Q 1234 2150 1697 2047 
L 1894 2003 
Q 2506 1872 2764 1633 
Q 3022 1394 3022 966 
Q 3022 478 2636 193 
Q 2250 -91 1575 -91 
Q 1294 -91 989 -36 
Q 684 19 347 128 
L 347 722 
Q 666 556 975 473 
Q 1284 391 1588 391 
Q 1994 391 2212 530 
Q 2431 669 2431 922 
Q 2431 1156 2273 1281 
Q 2116 1406 1581 1522 
L 1381 1569 
Q 847 1681 609 1914 
Q 372 2147 372 2553 
Q 372 3047 722 3315 
Q 1072 3584 1716 3584 
Q 2034 3584 2315 3537 
Q 2597 3491 2834 3397 
z
" transform="scale(0.015625)"/>
       <path id="DejaVuSans-6d" d="M 3328 2828 
Q 3544 3216 3844 3400 
Q 4144 3584 4550 3584 
Q 5097 3584 5394 3201 
Q 5691 2819 5691 2113 
L 5691 0 
L 5113 0 
L 5113 2094 
Q 5113 2597 4934 2840 
Q 4756 3084 4391 3084 
Q 3944 3084 3684 2787 
Q 3425 2491 3425 1978 
L 3425 0 
L 2847 0 
L 2847 2094 
Q 2847 2600 2669 2842 
Q 2491 3084 2119 3084 
Q 1678 3084 1418 2786 
Q 1159 2488 1159 1978 
L 1159 0 
L 581 0 
L 581 3500 
L 1159 3500 
L 1159 2956 
Q 1356 3278 1631 3431 
Q 1906 3584 2284 3584 
Q 2666 3584 2933 3390 
Q 3200 3197 3328 2828 
z
" transform="scale(0.015625)"/>
       <path id="DejaVuSans-6f" d="M 1959 3097 
Q 1497 3097 1228 2736 
Q 959 2375 959 1747 
Q 959 1119 1226 758 
Q 1494 397 1959 397 
Q 2419 397 2687 759 
Q 2956 1122 2956 1747 
Q 2956 2369 2687 2733 
Q 2419 3097 1959 3097 
z
M 1959 3584 
Q 2709 3584 3137 3096 
Q 3566 2609 3566 1747 
Q 3566 888 3137 398 
Q 2709 -91 1959 -91 
Q 1206 -91 779 398 
Q 353 888 353 1747 
Q 353 2609 779 3096 
Q 1206 3584 1959 3584 
z
" transform="scale(0.015625)"/>
       <path id="DejaVuSans-6c" d="M 603 4863 
L 1178 4863 
L 1178 0 
L 603 0 
L 603 4863 
z
" transform="scale(0.015625)"/>
       <path id="DejaVuSans-207b" d="M 428 3359 
L 2950 3359 
L 2950 3063 
L 428 3063 
L 428 3359 
z
" transform="scale(0.015625)"/>
       <path id="DejaVuSans-b2" d="M 838 2444 
L 2163 2444 
L 2163 2088 
L 294 2088 
L 294 2431 
Q 400 2528 597 2703 
Q 1672 3656 1672 3950 
Q 1672 4156 1509 4282 
Q 1347 4409 1081 4409 
Q 919 4409 728 4354 
Q 538 4300 313 4191 
L 313 4575 
Q 553 4663 761 4706 
Q 969 4750 1147 4750 
Q 1600 4750 1872 4544 
Q 2144 4338 2144 4000 
Q 2144 3566 1109 2678 
Q 934 2528 838 2444 
z
" transform="scale(0.015625)"/>
       <path id="DejaVuSans-b9" d="M 488 2431 
L 1125 2431 
L 1125 4341 
L 428 4213 
L 428 4575 
L 1147 4697 
L 1575 4697 
L 1575 2431 
L 2216 2431 
L 2216 2088 
L 488 2088 
L 488 2431 
z
" transform="scale(0.015625)"/>
      </defs>
      <use xlink:href="#DejaVuSans-52"/>
      <use xlink:href="#DejaVuSans-61" transform="translate(67.232422 0)"/>
      <use xlink:href="#DejaVuSans-74" transform="translate(128.511719 0)"/>
      <use xlink:href="#DejaVuSans-65" transform="translate(167.720703 0)"/>
      <use xlink:href="#DejaVuSans-73" transform="translate(229.244141 0)"/>
      <use xlink:href="#DejaVuSans-20" transform="translate(281.34375 0)"/>
      <use xlink:href="#DejaVuSans-28" transform="translate(313.130859 0)"/>
      <use xlink:href="#DejaVuSans-b5" transform="translate(352.144531 0)"/>
      <use xlink:href="#DejaVuSans-6d" transform="translate(415.767578 0)"/>
      <use xlink:href="#DejaVuSans-6f" transform="translate(513.179688 0)"/>
      <use xlink:href="#DejaVuSans-6c" transform="translate(574.361328 0)"/>
      <use xlink:href="#DejaVuSans-20" transform="translate(602.144531 0)"/>
      <use xlink:href="#DejaVuSans-6d" transform="translate(633.931641 0)"/>
      <use xlink:href="#DejaVuSans-207b" transform="translate(731.34375 0)"/>
      <use xlink:href="#DejaVuSans-b2" transform="translate(784.126953 0)"/>
      <use xlink:href="#DejaVuSans-20" transform="translate(824.214844 0)"/>
      <use xlink:href="#DejaVuSans-73" transform="translate(856.001953 0)"/>
      <use xlink:href="#DejaVuSans-207b" transform="translate(908.101562 0)"/>
      <use xlink:href="#DejaVuSans-b9" transform="translate(960.884766 0)"/>
      <use xlink:href="#DejaVuSans-29" transform="translate(1000.972656 0)"/>
     </g>
    </g>
   </g>
   <g id="line2d_14">
    <path d="M 49.251269 202.637636 
L 51.417901 198.532869 
L 53.584532 194.542339 
L 55.751164 190.661342 
L 57.917796 186.88543 
L 60.084428 183.210391 
L 62.251059 179.632236 
L 64.417691 176.147185 
L 66.584323 172.751649 
L 68.750955 169.442224 
L 70.917586 166.215676 
L 73.084218 163.068929 
L 75.25085 159.999059 
L 77.417482 157.003282 
L 79.584113 154.07895 
L 81.750745 151.223535 
L 83.917377 148.43463 
L 86.084009 145.709938 
L 88.25064 143.047266 
L 90.417272 140.444521 
L 92.583904 137.899702 
L 94.750536 135.410896 
L 96.917167 132.976275 
L 99.083799 130.594088 
L 101.250431 128.262659 
L 103.417063 125.980383 
L 105.583694 123.745721 
L 107.750326 121.5572 
L 109.916958 119.413404 
L 112.08359 117.312977 
L 114.250221 115.254615 
L 116.416853 113.237067 
L 118.583485 111.259132 
L 120.750117 109.319655 
L 122.916748 107.417523 
L 125.08338 105.767086 
L 127.250012 104.952668 
L 129.416644 104.173137 
L 131.583275 103.426298 
L 133.749907 102.710137 
L 135.916539 102.022801 
L 138.083171 101.362584 
L 140.249802 100.727914 
L 142.416434 100.117334 
L 144.583066 99.529499 
L 146.749698 98.963161 
L 148.916329 98.417163 
L 151.082961 97.890427 
L 153.249593 97.381953 
L 155.416225 96.890806 
L 157.582857 96.416116 
L 159.749488 95.957069 
L 161.91612 95.512905 
L 164.082752 95.082911 
L 166.249384 94.66642 
L 168.416015 94.262805 
L 170.582647 93.871479 
L 172.749279 93.491889 
L 174.915911 93.123515 
L 177.082542 92.765866 
L 179.249174 92.418482 
L 181.415806 92.080925 
L 183.582438 91.752787 
L 185.749069 91.433676 
L 187.915701 91.123227 
L 190.082333 90.82109 
L 192.248965 90.526938 
L 194.415596 90.240456 
L 196.582228 89.96135 
L 198.74886 89.689337 
L 200.915492 89.424152 
L 203.082123 89.165539 
L 205.248755 88.913258 
L 207.415387 88.667079 
L 209.582019 88.426783 
L 211.74865 88.192161 
L 213.915282 87.963016 
L 216.081914 87.918354 
L 218.248546 87.918354 
L 220.415177 87.918354 
L 222.581809 87.918354 
L 224.748441 87.918354 
L 226.915073 87.918354 
L 229.081704 87.918354 
L 231.248336 87.918354 
L 233.414968 87.918354 
L 235.5816 87.918354 
L 237.748231 87.918354 
L 239.914863 87.918354 
L 242.081495 87.918354 
L 244.248127 87.918354 
L 246.414758 87.918354 
L 248.58139 87.918354 
L 250.748022 87.918354 
L 252.914654 87.918354 
L 255.081285 87.918354 
L 257.247917 87.918354 
L 259.414549 87.918354 
L 261.581181 87.918354 
L 263.747813 87.918354 
" clip-path="url(#p3704effbc4)" style="fill: none; stroke: #000000; stroke-width: 7; stroke-linecap: square"/>
   </g>
   <g id="line2d_15">
    <path d="M 49.251269 181.242541 
L 51.417901 177.401209 
L 53.584532 173.666782 
L 55.751164 170.034859 
L 57.917796 166.501276 
L 60.084428 163.062093 
L 62.251059 159.713576 
L 64.417691 156.452187 
L 66.584323 153.274569 
L 68.750955 150.177536 
L 70.917586 147.15806 
L 73.084218 144.213264 
L 75.25085 141.340411 
L 77.417482 138.536897 
L 79.584113 135.800242 
L 81.750745 133.128081 
L 83.917377 130.518161 
L 86.084009 127.968334 
L 88.25064 125.476546 
L 90.417272 123.040839 
L 92.583904 120.659341 
L 94.750536 118.330261 
L 96.917167 116.051889 
L 99.083799 113.822585 
L 101.250431 111.640782 
L 103.417063 109.504977 
L 105.583694 107.413731 
L 107.750326 105.365664 
L 109.916958 103.359452 
L 112.08359 101.393825 
L 114.250221 99.467564 
L 116.416853 97.579499 
L 118.583485 95.728503 
L 120.750117 93.913496 
L 122.916748 92.13344 
L 125.08338 90.636705 
L 127.250012 90.09376 
L 129.416644 89.574072 
L 131.583275 89.07618 
L 133.749907 88.598739 
L 135.916539 88.140515 
L 138.083171 87.700371 
L 140.249802 87.277257 
L 142.416434 86.870204 
L 144.583066 86.478314 
L 146.749698 86.100755 
L 148.916329 85.736756 
L 151.082961 85.385599 
L 153.249593 85.046616 
L 155.416225 84.719185 
L 157.582857 84.402725 
L 159.749488 84.096694 
L 161.91612 83.800584 
L 164.082752 83.513922 
L 166.249384 83.236261 
L 168.416015 82.967184 
L 170.582647 82.706301 
L 172.749279 82.45324 
L 174.915911 82.207657 
L 177.082542 81.969225 
L 179.249174 81.737635 
L 181.415806 81.512598 
L 183.582438 81.293839 
L 185.749069 81.081098 
L 187.915701 80.874132 
L 190.082333 80.672708 
L 192.248965 80.476606 
L 194.415596 80.285618 
L 196.582228 80.099548 
L 198.74886 79.918206 
L 200.915492 79.741415 
L 203.082123 79.569007 
L 205.248755 79.400819 
L 207.415387 79.2367 
L 209.582019 79.076503 
L 211.74865 78.920088 
L 213.915282 78.767325 
L 216.081914 78.80913 
L 218.248546 78.896151 
L 220.415177 78.980832 
L 222.581809 79.063264 
L 224.748441 79.143537 
L 226.915073 79.221734 
L 229.081704 79.297935 
L 231.248336 79.372214 
L 233.414968 79.444645 
L 235.5816 79.515295 
L 237.748231 79.584229 
L 239.914863 79.651508 
L 242.081495 79.717192 
L 244.248127 79.781337 
L 246.414758 79.843996 
L 248.58139 79.90522 
L 250.748022 79.965058 
L 252.914654 80.023557 
L 255.081285 80.08076 
L 257.247917 80.136711 
L 259.414549 80.19145 
L 261.581181 80.245016 
L 263.747813 80.297447 
" clip-path="url(#p3704effbc4)" style="fill: none; stroke: #cccccc; stroke-width: 7; stroke-linecap: square"/>
   </g>
   <g id="line2d_16">
    <path d="M 49.251269 181.242541 
L 51.417901 177.401209 
L 53.584532 173.666782 
L 55.751164 170.034859 
L 57.917796 166.501276 
L 60.084428 163.062093 
L 62.251059 159.713576 
L 64.417691 156.452187 
L 66.584323 153.274569 
L 68.750955 150.177536 
L 70.917586 147.15806 
L 73.084218 144.213264 
L 75.25085 141.340411 
L 77.417482 138.536897 
L 79.584113 135.800242 
L 81.750745 133.128081 
L 83.917377 130.518161 
L 86.084009 127.968334 
L 88.25064 125.476546 
L 90.417272 123.040839 
L 92.583904 120.659341 
L 94.750536 118.330261 
L 96.917167 116.051889 
L 99.083799 113.822585 
L 101.250431 111.640782 
L 103.417063 109.504977 
L 105.583694 107.413731 
L 107.750326 105.365664 
L 109.916958 103.359452 
L 112.08359 101.393825 
L 114.250221 99.467564 
L 116.416853 97.579499 
L 118.583485 95.728503 
L 120.750117 93.913496 
L 122.916748 92.13344 
L 125.08338 90.387332 
L 127.250012 88.674213 
L 129.416644 86.993155 
L 131.583275 85.343266 
L 133.749907 83.723689 
L 135.916539 82.133595 
L 138.083171 80.572186 
L 140.249802 79.038694 
L 142.416434 77.532375 
L 144.583066 76.052515 
L 146.749698 74.598422 
L 148.916329 73.169428 
L 151.082961 71.764891 
L 153.249593 70.384186 
L 155.416225 69.026713 
L 157.582857 67.69189 
L 159.749488 66.379155 
L 161.91612 65.087964 
L 164.082752 63.817792 
L 166.249384 62.568128 
L 168.416015 61.338481 
L 170.582647 60.128373 
L 172.749279 58.937343 
L 174.915911 57.764941 
L 177.082542 56.610736 
L 179.249174 55.474307 
L 181.415806 54.355245 
L 183.582438 53.253156 
L 185.749069 52.167657 
L 187.915701 51.098376 
L 190.082333 50.044952 
L 192.248965 49.007035 
L 194.415596 47.984285 
L 196.582228 46.976372 
L 198.74886 45.982976 
L 200.915492 45.003785 
L 203.082123 44.038496 
L 205.248755 43.086816 
L 207.415387 42.148459 
L 209.582019 41.223147 
L 211.74865 40.31061 
L 213.915282 39.410585 
L 216.081914 38.522816 
L 218.248546 37.647055 
L 220.415177 36.783061 
L 222.581809 35.930596 
L 224.748441 35.089433 
L 226.915073 34.259347 
L 229.081704 33.440122 
L 231.248336 32.631546 
L 233.414968 31.833412 
L 235.5816 31.045519 
L 237.748231 30.267672 
L 239.914863 29.499679 
L 242.081495 28.741355 
L 244.248127 27.992518 
L 246.414758 27.252992 
L 248.58139 26.522603 
L 250.748022 25.801183 
L 252.914654 25.088568 
L 255.081285 24.384598 
L 257.247917 23.689117 
L 259.414549 23.001971 
L 261.581181 22.323013 
L 263.747813 21.652096 
" clip-path="url(#p3704effbc4)" style="fill: none; stroke-dasharray: 11.1,4.8; stroke-dashoffset: 0; stroke: #bad78c; stroke-width: 3"/>
   </g>
   <g id="line2d_17">
    <path d="M 49.251269 180.244122 
L 51.417901 169.540561 
L 53.584532 160.668333 
L 55.751164 153.194478 
L 57.917796 146.812545 
L 60.084428 141.299531 
L 62.251059 136.489288 
L 64.417691 132.255489 
L 66.584323 128.500373 
L 68.750955 125.147102 
L 70.917586 122.134449 
L 73.084218 119.413023 
L 75.25085 116.942543 
L 77.417482 114.689829 
L 79.584113 112.627302 
L 81.750745 110.731853 
L 83.917377 108.983971 
L 86.084009 107.367069 
L 88.25064 105.866956 
L 90.417272 104.471419 
L 92.583904 103.169891 
L 94.750536 101.953182 
L 96.917167 100.813264 
L 99.083799 99.743087 
L 101.250431 98.736443 
L 103.417063 97.787837 
L 105.583694 96.892389 
L 107.750326 96.045754 
L 109.916958 95.244046 
L 112.08359 94.483781 
L 114.250221 93.761827 
L 116.416853 93.075359 
L 118.583485 92.421824 
L 120.750117 91.798906 
L 122.916748 91.204505 
L 125.08338 90.636705 
L 127.250012 90.09376 
L 129.416644 89.574072 
L 131.583275 89.07618 
L 133.749907 88.598739 
L 135.916539 88.140515 
L 138.083171 87.700371 
L 140.249802 87.277257 
L 142.416434 86.870204 
L 144.583066 86.478314 
L 146.749698 86.100755 
L 148.916329 85.736756 
L 151.082961 85.385599 
L 153.249593 85.046616 
L 155.416225 84.719185 
L 157.582857 84.402725 
L 159.749488 84.096694 
L 161.91612 83.800584 
L 164.082752 83.513922 
L 166.249384 83.236261 
L 168.416015 82.967184 
L 170.582647 82.706301 
L 172.749279 82.45324 
L 174.915911 82.207657 
L 177.082542 81.969225 
L 179.249174 81.737635 
L 181.415806 81.512598 
L 183.582438 81.293839 
L 185.749069 81.081098 
L 187.915701 80.874132 
L 190.082333 80.672708 
L 192.248965 80.476606 
L 194.415596 80.285618 
L 196.582228 80.099548 
L 198.74886 79.918206 
L 200.915492 79.741415 
L 203.082123 79.569007 
L 205.248755 79.400819 
L 207.415387 79.2367 
L 209.582019 79.076503 
L 211.74865 78.920088 
L 213.915282 78.767325 
L 216.081914 78.618086 
L 218.248546 78.472251 
L 220.415177 78.329704 
L 222.581809 78.190336 
L 224.748441 78.054042 
L 226.915073 77.92072 
L 229.081704 77.790276 
L 231.248336 77.662616 
L 233.414968 77.537652 
L 235.5816 77.4153 
L 237.748231 77.295479 
L 239.914863 77.178111 
L 242.081495 77.063122 
L 244.248127 76.95044 
L 246.414758 76.839995 
L 248.58139 76.731723 
L 250.748022 76.62556 
L 252.914654 76.521445 
L 255.081285 76.419318 
L 257.247917 76.319124 
L 259.414549 76.220808 
L 261.581181 76.124319 
L 263.747813 76.029604 
" clip-path="url(#p3704effbc4)" style="fill: none; stroke-dasharray: 19.2,4.8,3,4.8; stroke-dashoffset: 0; stroke: #f4a17c; stroke-width: 3"/>
   </g>
   <g id="line2d_18">
    <path d="M 70.957351 -1 
L 73.084218 12.381601 
L 75.25085 22.2996 
L 77.417482 29.839518 
L 79.584113 35.765095 
L 81.750745 40.544657 
L 83.917377 44.481349 
L 86.084009 47.780065 
L 88.25064 50.584264 
L 90.417272 52.997394 
L 92.583904 55.095929 
L 94.750536 56.937623 
L 96.917167 58.56691 
L 99.083799 60.018533 
L 101.250431 61.320049 
L 103.417063 62.493597 
L 105.583694 63.557164 
L 107.750326 64.525521 
L 109.916958 65.410903 
L 112.08359 66.223537 
L 114.250221 66.972036 
L 116.416853 67.663704 
L 118.583485 68.304777 
L 120.750117 68.90061 
L 122.916748 69.455829 
L 125.08338 69.974449 
L 127.250012 70.459974 
L 129.416644 70.915474 
L 131.583275 71.343651 
L 133.749907 71.746891 
L 135.916539 72.127311 
L 138.083171 72.486795 
L 140.249802 72.827025 
L 142.416434 73.149507 
L 144.583066 73.455596 
L 146.749698 73.746509 
L 148.916329 74.023349 
L 151.082961 74.287112 
L 153.249593 74.538703 
L 155.416225 74.778947 
L 157.582857 75.008593 
L 159.749488 75.228328 
L 161.91612 75.43878 
L 164.082752 75.640526 
L 166.249384 75.834093 
L 168.416015 76.019971 
L 170.582647 76.198607 
L 172.749279 76.370418 
L 174.915911 76.535787 
L 177.082542 76.695069 
L 179.249174 76.848595 
L 181.415806 76.996672 
L 183.582438 77.139583 
L 185.749069 77.277595 
L 187.915701 77.410956 
L 190.082333 77.539897 
L 192.248965 77.664633 
L 194.415596 77.785368 
L 196.582228 77.902291 
L 198.74886 78.015579 
L 200.915492 78.125399 
L 203.082123 78.231909 
L 205.248755 78.335256 
L 207.415387 78.435578 
L 209.582019 78.533006 
L 211.74865 78.627664 
L 213.915282 78.719669 
L 216.081914 78.80913 
L 218.248546 78.896151 
L 220.415177 78.980832 
L 222.581809 79.063264 
L 224.748441 79.143537 
L 226.915073 79.221734 
L 229.081704 79.297935 
L 231.248336 79.372214 
L 233.414968 79.444645 
L 235.5816 79.515295 
L 237.748231 79.584229 
L 239.914863 79.651508 
L 242.081495 79.717192 
L 244.248127 79.781337 
L 246.414758 79.843996 
L 248.58139 79.90522 
L 250.748022 79.965058 
L 252.914654 80.023557 
L 255.081285 80.08076 
L 257.247917 80.136711 
L 259.414549 80.19145 
L 261.581181 80.245016 
L 263.747813 80.297447 
" clip-path="url(#p3704effbc4)" style="fill: none; stroke-dasharray: 9,3,3,3,3,3; stroke-dashoffset: 0; stroke: #8e96c3; stroke-width: 3"/>
   </g>
   <g id="patch_6">
    <path d="M 48.982813 236.2656 
L 48.982813 45.3776 
" style="fill: none; stroke: #000000; stroke-width: 0.8; stroke-linejoin: miter; stroke-linecap: square"/>
   </g>
   <g id="patch_7">
    <path d="M 263.747813 236.2656 
L 263.747813 45.3776 
" style="fill: none; stroke: #000000; stroke-width: 0.8; stroke-linejoin: miter; stroke-linecap: square"/>
   </g>
   <g id="patch_8">
    <path d="M 48.982813 236.2656 
L 263.747813 236.2656 
" style="fill: none; stroke: #000000; stroke-width: 0.8; stroke-linejoin: miter; stroke-linecap: square"/>
   </g>
   <g id="patch_9">
    <path d="M 48.982813 45.3776 
L 263.747813 45.3776 
" style="fill: none; stroke: #000000; stroke-width: 0.8; stroke-linejoin: miter; stroke-linecap: square"/>
   </g>
   <g id="text_16">
    <!-- $W_c$ -->
    <g style="fill: #bad78c" transform="translate(78.573096 16.318125) scale(0.12 -0.12)">
     <defs>
      <path id="DejaVuSans-Oblique-57" d="M 616 4666 
L 1228 4666 
L 1453 697 
L 3213 4666 
L 3916 4666 
L 4147 697 
L 5888 4666 
L 6528 4666 
L 4453 0 
L 3659 0 
L 3444 3891 
L 1697 0 
L 903 0 
L 616 4666 
z
" transform="scale(0.015625)"/>
      <path id="DejaVuSans-Oblique-63" d="M 3431 3366 
L 3316 2797 
Q 3109 2947 2876 3022 
Q 2644 3097 2394 3097 
Q 2119 3097 1870 3000 
Q 1622 2903 1453 2725 
Q 1184 2453 1037 2087 
Q 891 1722 891 1331 
Q 891 859 1127 628 
Q 1363 397 1844 397 
Q 2081 397 2348 469 
Q 2616 541 2906 684 
L 2797 116 
Q 2547 13 2283 -39 
Q 2019 -91 1741 -91 
Q 1044 -91 669 257 
Q 294 606 294 1253 
Q 294 1797 489 2255 
Q 684 2713 1069 3078 
Q 1331 3328 1684 3456 
Q 2038 3584 2456 3584 
Q 2700 3584 2940 3529 
Q 3181 3475 3431 3366 
z
" transform="scale(0.015625)"/>
     </defs>
     <use xlink:href="#DejaVuSans-Oblique-57" transform="translate(0 0.09375)"/>
     <use xlink:href="#DejaVuSans-Oblique-63" transform="translate(98.876953 -16.3125) scale(0.7)"/>
    </g>
   </g>
   <g id="text_17">
    <!-- $W_j$ -->
    <g style="fill: #f4a17c" transform="translate(163.262647 15.96) scale(0.12 -0.12)">
     <defs>
      <path id="DejaVuSans-Oblique-6a" d="M 928 3500 
L 1503 3500 
L 813 -63 
L 809 -78 
Q 694 -675 544 -897 
Q 403 -1106 132 -1218 
Q -138 -1331 -506 -1331 
L -722 -1331 
L -628 -844 
L -481 -844 
Q -144 -844 -1 -703 
Q 141 -563 238 -63 
L 928 3500 
z
M 1197 4863 
L 1772 4863 
L 1631 4134 
L 1056 4134 
L 1197 4863 
z
" transform="scale(0.015625)"/>
     </defs>
     <use xlink:href="#DejaVuSans-Oblique-57" transform="translate(0 0.09375)"/>
     <use xlink:href="#DejaVuSans-Oblique-6a" transform="translate(98.876953 -16.3125) scale(0.7)"/>
    </g>
   </g>
   <g id="text_18">
    <!-- $W_p$ -->
    <g style="fill: #8e96c3" transform="translate(231.094863 15.96) scale(0.12 -0.12)">
     <defs>
      <path id="DejaVuSans-Oblique-70" d="M 3175 2156 
Q 3175 2616 2975 2859 
Q 2775 3103 2400 3103 
Q 2144 3103 1911 2972 
Q 1678 2841 1497 2591 
Q 1319 2344 1212 1994 
Q 1106 1644 1106 1300 
Q 1106 863 1306 627 
Q 1506 391 1875 391 
Q 2147 391 2380 519 
Q 2613 647 2778 891 
Q 2956 1147 3065 1494 
Q 3175 1841 3175 2156 
z
M 1394 2969 
Q 1625 3272 1939 3428 
Q 2253 3584 2638 3584 
Q 3175 3584 3472 3232 
Q 3769 2881 3769 2247 
Q 3769 1728 3584 1258 
Q 3400 788 3053 416 
Q 2822 169 2531 39 
Q 2241 -91 1919 -91 
Q 1547 -91 1294 64 
Q 1041 219 916 525 
L 556 -1331 
L -19 -1331 
L 922 3500 
L 1497 3500 
L 1394 2969 
z
" transform="scale(0.015625)"/>
     </defs>
     <use xlink:href="#DejaVuSans-Oblique-57" transform="translate(0 0.09375)"/>
     <use xlink:href="#DejaVuSans-Oblique-70" transform="translate(98.876953 -16.3125) scale(0.7)"/>
    </g>
   </g>
   <g id="PathCollection_1">
    <defs>
     <path id="m2139663cd6" d="M 0 -7.071068 
L -1.587554 -2.18508 
L -6.724985 -2.18508 
L -2.568716 0.834626 
L -4.156269 5.720614 
L -0 2.700907 
L 4.156269 5.720614 
L 2.568716 0.834626 
L 6.724985 -2.18508 
L 1.587554 -2.18508 
z
" style="stroke: #000000"/>
    </defs>
    <g clip-path="url(#p3704effbc4)">
     <use xlink:href="#m2139663cd6" x="125.08338" y="90.636705" style="fill: #ffffff; stroke: #000000"/>
     <use xlink:href="#m2139663cd6" x="216.081914" y="78.80913" style="fill: #ffffff; stroke: #000000"/>
    </g>
   </g>
   <g id="legend_1">
    <g id="text_19">
     <!-- Min-W variant: -->
     <g transform="translate(182.04 148.73435) scale(0.1 -0.1)">
      <defs>
       <path id="DejaVuSans-4d" d="M 628 4666 
L 1569 4666 
L 2759 1491 
L 3956 4666 
L 4897 4666 
L 4897 0 
L 4281 0 
L 4281 4097 
L 3078 897 
L 2444 897 
L 1241 4097 
L 1241 0 
L 628 0 
L 628 4666 
z
" transform="scale(0.015625)"/>
       <path id="DejaVuSans-69" d="M 603 3500 
L 1178 3500 
L 1178 0 
L 603 0 
L 603 3500 
z
M 603 4863 
L 1178 4863 
L 1178 4134 
L 603 4134 
L 603 4863 
z
" transform="scale(0.015625)"/>
       <path id="DejaVuSans-6e" d="M 3513 2113 
L 3513 0 
L 2938 0 
L 2938 2094 
Q 2938 2591 2744 2837 
Q 2550 3084 2163 3084 
Q 1697 3084 1428 2787 
Q 1159 2491 1159 1978 
L 1159 0 
L 581 0 
L 581 3500 
L 1159 3500 
L 1159 2956 
Q 1366 3272 1645 3428 
Q 1925 3584 2291 3584 
Q 2894 3584 3203 3211 
Q 3513 2838 3513 2113 
z
" transform="scale(0.015625)"/>
       <path id="DejaVuSans-2d" d="M 313 2009 
L 1997 2009 
L 1997 1497 
L 313 1497 
L 313 2009 
z
" transform="scale(0.015625)"/>
       <path id="DejaVuSans-57" d="M 213 4666 
L 850 4666 
L 1831 722 
L 2809 4666 
L 3519 4666 
L 4500 722 
L 5478 4666 
L 6119 4666 
L 4947 0 
L 4153 0 
L 3169 4050 
L 2175 0 
L 1381 0 
L 213 4666 
z
" transform="scale(0.015625)"/>
       <path id="DejaVuSans-76" d="M 191 3500 
L 800 3500 
L 1894 563 
L 2988 3500 
L 3597 3500 
L 2284 0 
L 1503 0 
L 191 3500 
z
" transform="scale(0.015625)"/>
       <path id="DejaVuSans-3a" d="M 750 794 
L 1409 794 
L 1409 0 
L 750 0 
L 750 794 
z
M 750 3309 
L 1409 3309 
L 1409 2516 
L 750 2516 
L 750 3309 
z
" transform="scale(0.015625)"/>
      </defs>
      <use xlink:href="#DejaVuSans-4d"/>
      <use xlink:href="#DejaVuSans-69" transform="translate(86.279297 0)"/>
      <use xlink:href="#DejaVuSans-6e" transform="translate(114.0625 0)"/>
      <use xlink:href="#DejaVuSans-2d" transform="translate(177.441406 0)"/>
      <use xlink:href="#DejaVuSans-57" transform="translate(209.525391 0)"/>
      <use xlink:href="#DejaVuSans-20" transform="translate(308.402344 0)"/>
      <use xlink:href="#DejaVuSans-76" transform="translate(340.189453 0)"/>
      <use xlink:href="#DejaVuSans-61" transform="translate(399.369141 0)"/>
      <use xlink:href="#DejaVuSans-72" transform="translate(460.648438 0)"/>
      <use xlink:href="#DejaVuSans-69" transform="translate(501.761719 0)"/>
      <use xlink:href="#DejaVuSans-61" transform="translate(529.544922 0)"/>
      <use xlink:href="#DejaVuSans-6e" transform="translate(590.824219 0)"/>
      <use xlink:href="#DejaVuSans-74" transform="translate(654.203125 0)"/>
      <use xlink:href="#DejaVuSans-3a" transform="translate(693.412109 0)"/>
     </g>
    </g>
    <g id="line2d_19">
     <path d="M 197.043906 159.912475 
L 207.043906 159.912475 
L 217.043906 159.912475 
" style="fill: none; stroke: #000000; stroke-width: 7; stroke-linecap: square"/>
    </g>
    <g id="text_20">
     <!-- A -->
     <g transform="translate(225.043906 163.412475) scale(0.1 -0.1)">
      <defs>
       <path id="DejaVuSans-41" d="M 2188 4044 
L 1331 1722 
L 3047 1722 
L 2188 4044 
z
M 1831 4666 
L 2547 4666 
L 4325 0 
L 3669 0 
L 3244 1197 
L 1141 1197 
L 716 0 
L 50 0 
L 1831 4666 
z
" transform="scale(0.015625)"/>
      </defs>
      <use xlink:href="#DejaVuSans-41"/>
     </g>
    </g>
    <g id="line2d_20">
     <path d="M 197.043906 174.5906 
L 207.043906 174.5906 
L 217.043906 174.5906 
" style="fill: none; stroke: #cccccc; stroke-width: 7; stroke-linecap: square"/>
    </g>
    <g id="text_21">
     <!-- $W_p$ -->
     <g transform="translate(225.043906 178.0906) scale(0.1 -0.1)">
      <use xlink:href="#DejaVuSans-Oblique-57" transform="translate(0 0.09375)"/>
      <use xlink:href="#DejaVuSans-Oblique-70" transform="translate(98.876953 -16.3125) scale(0.7)"/>
     </g>
    </g>
    <g id="line2d_21">
     <path d="M 197.043906 190.289037 
L 207.043906 190.289037 
L 217.043906 190.289037 
" style="fill: none; stroke-dasharray: 11.1,4.8; stroke-dashoffset: 0; stroke: #bad78c; stroke-width: 3"/>
    </g>
    <g id="text_22">
     <!-- $W_c$ -->
     <g transform="translate(225.043906 193.789037) scale(0.1 -0.1)">
      <use xlink:href="#DejaVuSans-Oblique-57" transform="translate(0 0.09375)"/>
      <use xlink:href="#DejaVuSans-Oblique-63" transform="translate(98.876953 -16.3125) scale(0.7)"/>
     </g>
    </g>
    <g id="line2d_22">
     <path d="M 197.043906 204.967162 
L 207.043906 204.967162 
L 217.043906 204.967162 
" style="fill: none; stroke-dasharray: 19.2,4.8,3,4.8; stroke-dashoffset: 0; stroke: #f4a17c; stroke-width: 3"/>
    </g>
    <g id="text_23">
     <!-- $W_j$ -->
     <g transform="translate(225.043906 208.467162) scale(0.1 -0.1)">
      <use xlink:href="#DejaVuSans-Oblique-57" transform="translate(0 0.09375)"/>
      <use xlink:href="#DejaVuSans-Oblique-6a" transform="translate(98.876953 -16.3125) scale(0.7)"/>
     </g>
    </g>
    <g id="line2d_23">
     <path d="M 197.043906 220.6656 
L 207.043906 220.6656 
L 217.043906 220.6656 
" style="fill: none; stroke-dasharray: 9,3,3,3,3,3; stroke-dashoffset: 0; stroke: #8e96c3; stroke-width: 3"/>
    </g>
    <g id="text_24">
     <!-- $W_p$ -->
     <g transform="translate(225.043906 224.1656) scale(0.1 -0.1)">
      <use xlink:href="#DejaVuSans-Oblique-57" transform="translate(0 0.09375)"/>
      <use xlink:href="#DejaVuSans-Oblique-70" transform="translate(98.876953 -16.3125) scale(0.7)"/>
     </g>
    </g>
   </g>
  </g>
 </g>
 <defs>
  <clipPath id="p3704effbc4">
   <rect x="48.982813" y="45.3776" width="214.765" height="190.888"/>
  </clipPath>
 </defs>
</svg>
