<?xml version="1.0" encoding="utf-8" standalone="no"?>
<!DOCTYPE svg PUBLIC "-//W3C//DTD SVG 1.1//EN"
  "http://www.w3.org/Graphics/SVG/1.1/DTD/svg11.dtd">
<svg xmlns:xlink="http://www.w3.org/1999/xlink" width="712.306562pt" height="352.478437pt" viewBox="0 0 712.306562 352.478437" xmlns="http://www.w3.org/2000/svg" version="1.1">
 <metadata>
  <rdf:RDF xmlns:dc="http://purl.org/dc/elements/1.1/" xmlns:cc="http://creativecommons.org/ns#" xmlns:rdf="http://www.w3.org/1999/02/22-rdf-syntax-ns#">
   <cc:Work>
    <dc:type rdf:resource="http://purl.org/dc/dcmitype/StillImage"/>
    <dc:date>2026-06-29T12:56:48.741109</dc:date>
    <dc:format>image/svg+xml</dc:format>
    <dc:creator>
     <cc:Agent>
      <dc:title>Matplotlib v3.11.0, https://matplotlib.org/</dc:title>
     </cc:Agent>
    </dc:creator>
   </cc:Work>
  </rdf:RDF>
 </metadata>
 <defs>
  <style type="text/css">*{stroke-linejoin: round; stroke-linecap: butt}</style>
 </defs>
 <g id="figure_1">
  <g id="patch_1">
   <path d="M 0 352.478437 
L 712.306562 352.478437 
L 712.306562 0 
L 0 0 
z
" style="fill: #ffffff"/>
  </g>
  <g id="axes_1">
   <g id="patch_2">
    <path d="M 44.103906 314.277656 
L 692.381562 314.277656 
L 692.381562 7.2 
L 44.103906 7.2 
z
" style="fill: #ffffff"/>
   </g>
   <g id="patch_3">
    <path d="M 44.103906 314.277656 
L 75.013785 314.277656 
L 75.013785 7.2 
L 44.103906 7.2 
z
" clip-path="url(#p108e8b5954)" style="fill: #b3b3b3; stroke: #b3b3b3; stroke-linejoin: miter"/>
   </g>
   <g id="patch_4">
    <path d="M 75.013785 314.277656 
L 106.131112 314.277656 
L 106.131112 7.2 
L 75.013785 7.2 
z
" clip-path="url(#p108e8b5954)" style="fill: #b3b3b3; stroke: #b3b3b3; stroke-linejoin: miter"/>
   </g>
   <g id="patch_5">
    <path d="M 417.304387 314.277656 
L 448.421715 314.277656 
L 448.421715 7.2 
L 417.304387 7.2 
z
" clip-path="url(#p108e8b5954)" style="fill: #b3b3b3; stroke: #b3b3b3; stroke-linejoin: miter"/>
   </g>
   <g id="patch_6">
    <path d="M 448.421715 314.277656 
L 479.539042 314.277656 
L 479.539042 7.2 
L 448.421715 7.2 
z
" clip-path="url(#p108e8b5954)" style="fill: #b3b3b3; stroke: #b3b3b3; stroke-linejoin: miter"/>
   </g>
   <g id="patch_7">
    <path d="M 479.539042 314.277656 
L 510.65637 314.277656 
L 510.65637 7.2 
L 479.539042 7.2 
z
" clip-path="url(#p108e8b5954)" style="fill: #b3b3b3; stroke: #b3b3b3; stroke-linejoin: miter"/>
   </g>
   <g id="patch_8">
    <path d="M 510.65637 314.277656 
L 541.773697 314.277656 
L 541.773697 7.2 
L 510.65637 7.2 
z
" clip-path="url(#p108e8b5954)" style="fill: #b3b3b3; stroke: #b3b3b3; stroke-linejoin: miter"/>
   </g>
   <g id="patch_9">
    <path d="M 541.773697 314.277656 
L 572.891025 314.277656 
L 572.891025 7.2 
L 541.773697 7.2 
z
" clip-path="url(#p108e8b5954)" style="fill: #b3b3b3; stroke: #b3b3b3; stroke-linejoin: miter"/>
   </g>
   <g id="patch_10">
    <path d="M 572.891025 314.277656 
L 604.008352 314.277656 
L 604.008352 7.2 
L 572.891025 7.2 
z
" clip-path="url(#p108e8b5954)" style="fill: #b3b3b3; stroke: #b3b3b3; stroke-linejoin: miter"/>
   </g>
   <g id="patch_11">
    <path d="M 604.008352 314.277656 
L 635.12568 314.277656 
L 635.12568 7.2 
L 604.008352 7.2 
z
" clip-path="url(#p108e8b5954)" style="fill: #b3b3b3; stroke: #b3b3b3; stroke-linejoin: miter"/>
   </g>
   <g id="patch_12">
    <path d="M 635.12568 314.277656 
L 666.243007 314.277656 
L 666.243007 7.2 
L 635.12568 7.2 
z
" clip-path="url(#p108e8b5954)" style="fill: #b3b3b3; stroke: #b3b3b3; stroke-linejoin: miter"/>
   </g>
   <g id="patch_13">
    <path d="M 666.243007 314.277656 
L 697.360335 314.277656 
L 697.360335 7.2 
L 666.243007 7.2 
z
" clip-path="url(#p108e8b5954)" style="fill: #b3b3b3; stroke: #b3b3b3; stroke-linejoin: miter"/>
   </g>
   <g id="matplotlib.axis_1">
    <g id="xtick_1">
     <g id="line2d_1">
      <defs>
       <path id="mc4a0fd6a75" d="M 0 0 
L 0 3.5 
" style="stroke: #000000; stroke-width: 0.8"/>
      </defs>
      <g>
       <use xlink:href="#mc4a0fd6a75" x="44.103906" y="314.277656" style="stroke: #000000; stroke-width: 0.8"/>
      </g>
     </g>
     <g id="text_1">
      <!-- 0 -->
      <g transform="translate(40.922656 328.875312) scale(0.1 -0.1)">
       <defs>
        <path id="DejaVuSans-13" d="M 2034 4250 
Q 1547 4250 1301 3770 
Q 1056 3291 1056 2328 
Q 1056 1369 1301 889 
Q 1547 409 2034 409 
Q 2525 409 2770 889 
Q 3016 1369 3016 2328 
Q 3016 3291 2770 3770 
Q 2525 4250 2034 4250 
z
M 2034 4750 
Q 2819 4750 3233 4129 
Q 3647 3509 3647 2328 
Q 3647 1150 3233 529 
Q 2819 -91 2034 -91 
Q 1250 -91 836 529 
Q 422 1150 422 2328 
Q 422 3509 836 4129 
Q 1250 4750 2034 4750 
z
" transform="scale(0.015625)"/>
       </defs>
       <use xlink:href="#DejaVuSans-13"/>
      </g>
     </g>
    </g>
    <g id="xtick_2">
     <g id="line2d_2">
      <g>
       <use xlink:href="#mc4a0fd6a75" x="173.759437" y="314.277656" style="stroke: #000000; stroke-width: 0.8"/>
      </g>
     </g>
     <g id="text_2">
      <!-- 500 -->
      <g transform="translate(164.215688 328.875312) scale(0.1 -0.1)">
       <defs>
        <path id="DejaVuSans-18" d="M 691 4666 
L 3169 4666 
L 3169 4134 
L 1269 4134 
L 1269 2991 
Q 1406 3038 1543 3061 
Q 1681 3084 1819 3084 
Q 2600 3084 3056 2656 
Q 3513 2228 3513 1497 
Q 3513 744 3044 326 
Q 2575 -91 1722 -91 
Q 1428 -91 1123 -41 
Q 819 9 494 109 
L 494 744 
Q 775 591 1075 516 
Q 1375 441 1709 441 
Q 2250 441 2565 725 
Q 2881 1009 2881 1497 
Q 2881 1984 2565 2268 
Q 2250 2553 1709 2553 
Q 1456 2553 1204 2497 
Q 953 2441 691 2322 
L 691 4666 
z
" transform="scale(0.015625)"/>
       </defs>
       <use xlink:href="#DejaVuSans-18"/>
       <use xlink:href="#DejaVuSans-13" transform="translate(63.625 0)"/>
       <use xlink:href="#DejaVuSans-13" transform="translate(127.25 0)"/>
      </g>
     </g>
    </g>
    <g id="xtick_3">
     <g id="line2d_3">
      <g>
       <use xlink:href="#mc4a0fd6a75" x="303.414969" y="314.277656" style="stroke: #000000; stroke-width: 0.8"/>
      </g>
     </g>
     <g id="text_3">
      <!-- 1000 -->
      <g transform="translate(290.689969 328.875312) scale(0.1 -0.1)">
       <defs>
        <path id="DejaVuSans-14" d="M 794 531 
L 1825 531 
L 1825 4091 
L 703 3866 
L 703 4441 
L 1819 4666 
L 2450 4666 
L 2450 531 
L 3481 531 
L 3481 0 
L 794 0 
L 794 531 
z
" transform="scale(0.015625)"/>
       </defs>
       <use xlink:href="#DejaVuSans-14"/>
       <use xlink:href="#DejaVuSans-13" transform="translate(63.625 0)"/>
       <use xlink:href="#DejaVuSans-13" transform="translate(127.25 0)"/>
       <use xlink:href="#DejaVuSans-13" transform="translate(190.875 0)"/>
      </g>
     </g>
    </g>
    <g id="xtick_4">
     <g id="line2d_4">
      <g>
       <use xlink:href="#mc4a0fd6a75" x="433.0705" y="314.277656" style="stroke: #000000; stroke-width: 0.8"/>
      </g>
     </g>
     <g id="text_4">
      <!-- 1500 -->
      <g transform="translate(420.3455 328.875312) scale(0.1 -0.1)">
       <use xlink:href="#DejaVuSans-14"/>
       <use xlink:href="#DejaVuSans-18" transform="translate(63.625 0)"/>
       <use xlink:href="#DejaVuSans-13" transform="translate(127.25 0)"/>
       <use xlink:href="#DejaVuSans-13" transform="translate(190.875 0)"/>
      </g>
     </g>
    </g>
    <g id="xtick_5">
     <g id="line2d_5">
      <g>
       <use xlink:href="#mc4a0fd6a75" x="562.726031" y="314.277656" style="stroke: #000000; stroke-width: 0.8"/>
      </g>
     </g>
     <g id="text_5">
      <!-- 2000 -->
      <g transform="translate(550.001031 328.875312) scale(0.1 -0.1)">
       <defs>
        <path id="DejaVuSans-15" d="M 1228 531 
L 3431 531 
L 3431 0 
L 469 0 
L 469 531 
Q 828 903 1448 1529 
Q 2069 2156 2228 2338 
Q 2531 2678 2651 2914 
Q 2772 3150 2772 3378 
Q 2772 3750 2511 3984 
Q 2250 4219 1831 4219 
Q 1534 4219 1204 4116 
Q 875 4013 500 3803 
L 500 4441 
Q 881 4594 1212 4672 
Q 1544 4750 1819 4750 
Q 2544 4750 2975 4387 
Q 3406 4025 3406 3419 
Q 3406 3131 3298 2873 
Q 3191 2616 2906 2266 
Q 2828 2175 2409 1742 
Q 1991 1309 1228 531 
z
" transform="scale(0.015625)"/>
       </defs>
       <use xlink:href="#DejaVuSans-15"/>
       <use xlink:href="#DejaVuSans-13" transform="translate(63.625 0)"/>
       <use xlink:href="#DejaVuSans-13" transform="translate(127.25 0)"/>
       <use xlink:href="#DejaVuSans-13" transform="translate(190.875 0)"/>
      </g>
     </g>
    </g>
    <g id="xtick_6">
     <g id="line2d_6">
      <g>
       <use xlink:href="#mc4a0fd6a75" x="692.381562" y="314.277656" style="stroke: #000000; stroke-width: 0.8"/>
      </g>
     </g>
     <g id="text_6">
      <!-- 2500 -->
      <g transform="translate(679.656562 328.875312) scale(0.1 -0.1)">
       <use xlink:href="#DejaVuSans-15"/>
       <use xlink:href="#DejaVuSans-18" transform="translate(63.625 0)"/>
       <use xlink:href="#DejaVuSans-13" transform="translate(127.25 0)"/>
       <use xlink:href="#DejaVuSans-13" transform="translate(190.875 0)"/>
      </g>
     </g>
    </g>
    <g id="text_7">
     <!-- Time/(s) -->
     <g transform="translate(347.816172 342.876094) scale(0.1 -0.1)">
      <defs>
       <path id="DejaVuSans-37" d="M -19 4666 
L 3928 4666 
L 3928 4134 
L 2272 4134 
L 2272 0 
L 1638 0 
L 1638 4134 
L -19 4134 
L -19 4666 
z
" transform="scale(0.015625)"/>
       <path id="DejaVuSans-4c" d="M 603 3500 
L 1178 3500 
L 1178 0 
L 603 0 
L 603 3500 
z
M 603 4863 
L 1178 4863 
L 1178 4134 
L 603 4134 
L 603 4863 
z
" transform="scale(0.015625)"/>
       <path id="DejaVuSans-50" d="M 3328 2828 
Q 3544 3216 3844 3400 
Q 4144 3584 4550 3584 
Q 5097 3584 5394 3201 
Q 5691 2819 5691 2113 
L 5691 0 
L 5113 0 
L 5113 2094 
Q 5113 2597 4934 2840 
Q 4756 3084 4391 3084 
Q 3944 3084 3684 2787 
Q 3425 2491 3425 1978 
L 3425 0 
L 2847 0 
L 2847 2094 
Q 2847 2600 2669 2842 
Q 2491 3084 2119 3084 
Q 1678 3084 1418 2786 
Q 1159 2488 1159 1978 
L 1159 0 
L 581 0 
L 581 3500 
L 1159 3500 
L 1159 2956 
Q 1356 3278 1631 3431 
Q 1906 3584 2284 3584 
Q 2666 3584 2933 3390 
Q 3200 3197 3328 2828 
z
" transform="scale(0.015625)"/>
       <path id="DejaVuSans-48" d="M 3597 1894 
L 3597 1613 
L 953 1613 
Q 991 1019 1311 708 
Q 1631 397 2203 397 
Q 2534 397 2845 478 
Q 3156 559 3463 722 
L 3463 178 
Q 3153 47 2828 -22 
Q 2503 -91 2169 -91 
Q 1331 -91 842 396 
Q 353 884 353 1716 
Q 353 2575 817 3079 
Q 1281 3584 2069 3584 
Q 2775 3584 3186 3129 
Q 3597 2675 3597 1894 
z
M 3022 2063 
Q 3016 2534 2758 2815 
Q 2500 3097 2075 3097 
Q 1594 3097 1305 2825 
Q 1016 2553 972 2059 
L 3022 2063 
z
" transform="scale(0.015625)"/>
       <path id="DejaVuSans-12" d="M 1625 4666 
L 2156 4666 
L 531 -594 
L 0 -594 
L 1625 4666 
z
" transform="scale(0.015625)"/>
       <path id="DejaVuSans-b" d="M 1984 4856 
Q 1566 4138 1362 3434 
Q 1159 2731 1159 2009 
Q 1159 1288 1364 580 
Q 1569 -128 1984 -844 
L 1484 -844 
Q 1016 -109 783 600 
Q 550 1309 550 2009 
Q 550 2706 781 3412 
Q 1013 4119 1484 4856 
L 1984 4856 
z
" transform="scale(0.015625)"/>
       <path id="DejaVuSans-56" d="M 2834 3397 
L 2834 2853 
Q 2591 2978 2328 3040 
Q 2066 3103 1784 3103 
Q 1356 3103 1142 2972 
Q 928 2841 928 2578 
Q 928 2378 1081 2264 
Q 1234 2150 1697 2047 
L 1894 2003 
Q 2506 1872 2764 1633 
Q 3022 1394 3022 966 
Q 3022 478 2636 193 
Q 2250 -91 1575 -91 
Q 1294 -91 989 -36 
Q 684 19 347 128 
L 347 722 
Q 666 556 975 473 
Q 1284 391 1588 391 
Q 1994 391 2212 530 
Q 2431 669 2431 922 
Q 2431 1156 2273 1281 
Q 2116 1406 1581 1522 
L 1381 1569 
Q 847 1681 609 1914 
Q 372 2147 372 2553 
Q 372 3047 722 3315 
Q 1072 3584 1716 3584 
Q 2034 3584 2315 3537 
Q 2597 3491 2834 3397 
z
" transform="scale(0.015625)"/>
       <path id="DejaVuSans-c" d="M 513 4856 
L 1013 4856 
Q 1481 4119 1714 3412 
Q 1947 2706 1947 2009 
Q 1947 1309 1714 600 
Q 1481 -109 1013 -844 
L 513 -844 
Q 928 -128 1133 580 
Q 1338 1288 1338 2009 
Q 1338 2731 1133 3434 
Q 928 4138 513 4856 
z
" transform="scale(0.015625)"/>
      </defs>
      <use xlink:href="#DejaVuSans-37"/>
      <use xlink:href="#DejaVuSans-4c" transform="translate(58 0)"/>
      <use xlink:href="#DejaVuSans-50" transform="translate(85.78125 0)"/>
      <use xlink:href="#DejaVuSans-48" transform="translate(183.1875 0)"/>
      <use xlink:href="#DejaVuSans-12" transform="translate(244.71875 0)"/>
      <use xlink:href="#DejaVuSans-b" transform="translate(278.40625 0)"/>
      <use xlink:href="#DejaVuSans-56" transform="translate(317.421875 0)"/>
      <use xlink:href="#DejaVuSans-c" transform="translate(369.515625 0)"/>
     </g>
    </g>
   </g>
   <g id="matplotlib.axis_2">
    <g id="ytick_1">
     <g id="line2d_7">
      <defs>
       <path id="me3caa3d117" d="M 0 0 
L -3.5 0 
" style="stroke: #000000; stroke-width: 0.8"/>
      </defs>
      <g>
       <use xlink:href="#me3caa3d117" x="44.103906" y="314.277656" style="stroke: #000000; stroke-width: 0.8"/>
      </g>
     </g>
     <g id="text_8">
      <!-- 0.0 -->
      <g transform="translate(21.200781 318.076484) scale(0.1 -0.1)">
       <defs>
        <path id="DejaVuSans-11" d="M 684 794 
L 1344 794 
L 1344 0 
L 684 0 
L 684 794 
z
" transform="scale(0.015625)"/>
       </defs>
       <use xlink:href="#DejaVuSans-13"/>
       <use xlink:href="#DejaVuSans-11" transform="translate(63.625 0)"/>
       <use xlink:href="#DejaVuSans-13" transform="translate(95.40625 0)"/>
      </g>
     </g>
    </g>
    <g id="ytick_2">
     <g id="line2d_8">
      <g>
       <use xlink:href="#me3caa3d117" x="44.103906" y="258.445355" style="stroke: #000000; stroke-width: 0.8"/>
      </g>
     </g>
     <g id="text_9">
      <!-- 0.2 -->
      <g transform="translate(21.200781 262.244183) scale(0.1 -0.1)">
       <use xlink:href="#DejaVuSans-13"/>
       <use xlink:href="#DejaVuSans-11" transform="translate(63.625 0)"/>
       <use xlink:href="#DejaVuSans-15" transform="translate(95.40625 0)"/>
      </g>
     </g>
    </g>
    <g id="ytick_3">
     <g id="line2d_9">
      <g>
       <use xlink:href="#me3caa3d117" x="44.103906" y="202.613054" style="stroke: #000000; stroke-width: 0.8"/>
      </g>
     </g>
     <g id="text_10">
      <!-- 0.4 -->
      <g transform="translate(21.200781 206.411882) scale(0.1 -0.1)">
       <defs>
        <path id="DejaVuSans-17" d="M 2419 4116 
L 825 1625 
L 2419 1625 
L 2419 4116 
z
M 2253 4666 
L 3047 4666 
L 3047 1625 
L 3713 1625 
L 3713 1100 
L 3047 1100 
L 3047 0 
L 2419 0 
L 2419 1100 
L 313 1100 
L 313 1709 
L 2253 4666 
z
" transform="scale(0.015625)"/>
       </defs>
       <use xlink:href="#DejaVuSans-13"/>
       <use xlink:href="#DejaVuSans-11" transform="translate(63.625 0)"/>
       <use xlink:href="#DejaVuSans-17" transform="translate(95.40625 0)"/>
      </g>
     </g>
    </g>
    <g id="ytick_4">
     <g id="line2d_10">
      <g>
       <use xlink:href="#me3caa3d117" x="44.103906" y="146.780753" style="stroke: #000000; stroke-width: 0.8"/>
      </g>
     </g>
     <g id="text_11">
      <!-- 0.6 -->
      <g transform="translate(21.200781 150.579581) scale(0.1 -0.1)">
       <defs>
        <path id="DejaVuSans-19" d="M 2113 2584 
Q 1688 2584 1439 2293 
Q 1191 2003 1191 1497 
Q 1191 994 1439 701 
Q 1688 409 2113 409 
Q 2538 409 2786 701 
Q 3034 994 3034 1497 
Q 3034 2003 2786 2293 
Q 2538 2584 2113 2584 
z
M 3366 4563 
L 3366 3988 
Q 3128 4100 2886 4159 
Q 2644 4219 2406 4219 
Q 1781 4219 1451 3797 
Q 1122 3375 1075 2522 
Q 1259 2794 1537 2939 
Q 1816 3084 2150 3084 
Q 2853 3084 3261 2657 
Q 3669 2231 3669 1497 
Q 3669 778 3244 343 
Q 2819 -91 2113 -91 
Q 1303 -91 875 529 
Q 447 1150 447 2328 
Q 447 3434 972 4092 
Q 1497 4750 2381 4750 
Q 2619 4750 2861 4703 
Q 3103 4656 3366 4563 
z
" transform="scale(0.015625)"/>
       </defs>
       <use xlink:href="#DejaVuSans-13"/>
       <use xlink:href="#DejaVuSans-11" transform="translate(63.625 0)"/>
       <use xlink:href="#DejaVuSans-19" transform="translate(95.40625 0)"/>
      </g>
     </g>
    </g>
    <g id="ytick_5">
     <g id="line2d_11">
      <g>
       <use xlink:href="#me3caa3d117" x="44.103906" y="90.948452" style="stroke: #000000; stroke-width: 0.8"/>
      </g>
     </g>
     <g id="text_12">
      <!-- 0.8 -->
      <g transform="translate(21.200781 94.74728) scale(0.1 -0.1)">
       <defs>
        <path id="DejaVuSans-1b" d="M 2034 2216 
Q 1584 2216 1326 1975 
Q 1069 1734 1069 1313 
Q 1069 891 1326 650 
Q 1584 409 2034 409 
Q 2484 409 2743 651 
Q 3003 894 3003 1313 
Q 3003 1734 2745 1975 
Q 2488 2216 2034 2216 
z
M 1403 2484 
Q 997 2584 770 2862 
Q 544 3141 544 3541 
Q 544 4100 942 4425 
Q 1341 4750 2034 4750 
Q 2731 4750 3128 4425 
Q 3525 4100 3525 3541 
Q 3525 3141 3298 2862 
Q 3072 2584 2669 2484 
Q 3125 2378 3379 2068 
Q 3634 1759 3634 1313 
Q 3634 634 3220 271 
Q 2806 -91 2034 -91 
Q 1263 -91 848 271 
Q 434 634 434 1313 
Q 434 1759 690 2068 
Q 947 2378 1403 2484 
z
M 1172 3481 
Q 1172 3119 1398 2916 
Q 1625 2713 2034 2713 
Q 2441 2713 2670 2916 
Q 2900 3119 2900 3481 
Q 2900 3844 2670 4047 
Q 2441 4250 2034 4250 
Q 1625 4250 1398 4047 
Q 1172 3844 1172 3481 
z
" transform="scale(0.015625)"/>
       </defs>
       <use xlink:href="#DejaVuSans-13"/>
       <use xlink:href="#DejaVuSans-11" transform="translate(63.625 0)"/>
       <use xlink:href="#DejaVuSans-1b" transform="translate(95.40625 0)"/>
      </g>
     </g>
    </g>
    <g id="ytick_6">
     <g id="line2d_12">
      <g>
       <use xlink:href="#me3caa3d117" x="44.103906" y="35.116151" style="stroke: #000000; stroke-width: 0.8"/>
      </g>
     </g>
     <g id="text_13">
      <!-- 1.0 -->
      <g transform="translate(21.200781 38.914979) scale(0.1 -0.1)">
       <use xlink:href="#DejaVuSans-14"/>
       <use xlink:href="#DejaVuSans-11" transform="translate(63.625 0)"/>
       <use xlink:href="#DejaVuSans-13" transform="translate(95.40625 0)"/>
      </g>
     </g>
    </g>
    <g id="text_14">
     <!-- Fluorescence (normalised) -->
     <g transform="translate(14.798438 226.933359) rotate(-90) scale(0.1 -0.1)">
      <defs>
       <path id="DejaVuSans-29" d="M 628 4666 
L 3309 4666 
L 3309 4134 
L 1259 4134 
L 1259 2759 
L 3109 2759 
L 3109 2228 
L 1259 2228 
L 1259 0 
L 628 0 
L 628 4666 
z
" transform="scale(0.015625)"/>
       <path id="DejaVuSans-4f" d="M 603 4863 
L 1178 4863 
L 1178 0 
L 603 0 
L 603 4863 
z
" transform="scale(0.015625)"/>
       <path id="DejaVuSans-58" d="M 544 1381 
L 544 3500 
L 1119 3500 
L 1119 1403 
Q 1119 906 1312 657 
Q 1506 409 1894 409 
Q 2359 409 2629 706 
Q 2900 1003 2900 1516 
L 2900 3500 
L 3475 3500 
L 3475 0 
L 2900 0 
L 2900 538 
Q 2691 219 2414 64 
Q 2138 -91 1772 -91 
Q 1169 -91 856 284 
Q 544 659 544 1381 
z
M 1991 3584 
L 1991 3584 
z
" transform="scale(0.015625)"/>
       <path id="DejaVuSans-52" d="M 1959 3097 
Q 1497 3097 1228 2736 
Q 959 2375 959 1747 
Q 959 1119 1226 758 
Q 1494 397 1959 397 
Q 2419 397 2687 759 
Q 2956 1122 2956 1747 
Q 2956 2369 2687 2733 
Q 2419 3097 1959 3097 
z
M 1959 3584 
Q 2709 3584 3137 3096 
Q 3566 2609 3566 1747 
Q 3566 888 3137 398 
Q 2709 -91 1959 -91 
Q 1206 -91 779 398 
Q 353 888 353 1747 
Q 353 2609 779 3096 
Q 1206 3584 1959 3584 
z
" transform="scale(0.015625)"/>
       <path id="DejaVuSans-55" d="M 2631 2963 
Q 2534 3019 2420 3045 
Q 2306 3072 2169 3072 
Q 1681 3072 1420 2755 
Q 1159 2438 1159 1844 
L 1159 0 
L 581 0 
L 581 3500 
L 1159 3500 
L 1159 2956 
Q 1341 3275 1631 3429 
Q 1922 3584 2338 3584 
Q 2397 3584 2469 3576 
Q 2541 3569 2628 3553 
L 2631 2963 
z
" transform="scale(0.015625)"/>
       <path id="DejaVuSans-46" d="M 3122 3366 
L 3122 2828 
Q 2878 2963 2633 3030 
Q 2388 3097 2138 3097 
Q 1578 3097 1268 2742 
Q 959 2388 959 1747 
Q 959 1106 1268 751 
Q 1578 397 2138 397 
Q 2388 397 2633 464 
Q 2878 531 3122 666 
L 3122 134 
Q 2881 22 2623 -34 
Q 2366 -91 2075 -91 
Q 1284 -91 818 406 
Q 353 903 353 1747 
Q 353 2603 823 3093 
Q 1294 3584 2113 3584 
Q 2378 3584 2631 3529 
Q 2884 3475 3122 3366 
z
" transform="scale(0.015625)"/>
       <path id="DejaVuSans-51" d="M 3513 2113 
L 3513 0 
L 2938 0 
L 2938 2094 
Q 2938 2591 2744 2837 
Q 2550 3084 2163 3084 
Q 1697 3084 1428 2787 
Q 1159 2491 1159 1978 
L 1159 0 
L 581 0 
L 581 3500 
L 1159 3500 
L 1159 2956 
Q 1366 3272 1645 3428 
Q 1925 3584 2291 3584 
Q 2894 3584 3203 3211 
Q 3513 2838 3513 2113 
z
" transform="scale(0.015625)"/>
       <path id="DejaVuSans-3" transform="scale(0.015625)"/>
       <path id="DejaVuSans-44" d="M 2194 1759 
Q 1497 1759 1228 1600 
Q 959 1441 959 1056 
Q 959 750 1161 570 
Q 1363 391 1709 391 
Q 2188 391 2477 730 
Q 2766 1069 2766 1631 
L 2766 1759 
L 2194 1759 
z
M 3341 1997 
L 3341 0 
L 2766 0 
L 2766 531 
Q 2569 213 2275 61 
Q 1981 -91 1556 -91 
Q 1019 -91 701 211 
Q 384 513 384 1019 
Q 384 1609 779 1909 
Q 1175 2209 1959 2209 
L 2766 2209 
L 2766 2266 
Q 2766 2663 2505 2880 
Q 2244 3097 1772 3097 
Q 1472 3097 1187 3025 
Q 903 2953 641 2809 
L 641 3341 
Q 956 3463 1253 3523 
Q 1550 3584 1831 3584 
Q 2591 3584 2966 3190 
Q 3341 2797 3341 1997 
z
" transform="scale(0.015625)"/>
       <path id="DejaVuSans-47" d="M 2906 2969 
L 2906 4863 
L 3481 4863 
L 3481 0 
L 2906 0 
L 2906 525 
Q 2725 213 2448 61 
Q 2172 -91 1784 -91 
Q 1150 -91 751 415 
Q 353 922 353 1747 
Q 353 2572 751 3078 
Q 1150 3584 1784 3584 
Q 2172 3584 2448 3432 
Q 2725 3281 2906 2969 
z
M 947 1747 
Q 947 1113 1208 752 
Q 1469 391 1925 391 
Q 2381 391 2643 752 
Q 2906 1113 2906 1747 
Q 2906 2381 2643 2742 
Q 2381 3103 1925 3103 
Q 1469 3103 1208 2742 
Q 947 2381 947 1747 
z
" transform="scale(0.015625)"/>
      </defs>
      <use xlink:href="#DejaVuSans-29"/>
      <use xlink:href="#DejaVuSans-4f" transform="translate(57.515625 0)"/>
      <use xlink:href="#DejaVuSans-58" transform="translate(85.296875 0)"/>
      <use xlink:href="#DejaVuSans-52" transform="translate(148.671875 0)"/>
      <use xlink:href="#DejaVuSans-55" transform="translate(209.859375 0)"/>
      <use xlink:href="#DejaVuSans-48" transform="translate(248.765625 0)"/>
      <use xlink:href="#DejaVuSans-56" transform="translate(310.296875 0)"/>
      <use xlink:href="#DejaVuSans-46" transform="translate(362.390625 0)"/>
      <use xlink:href="#DejaVuSans-48" transform="translate(417.375 0)"/>
      <use xlink:href="#DejaVuSans-51" transform="translate(478.90625 0)"/>
      <use xlink:href="#DejaVuSans-46" transform="translate(542.28125 0)"/>
      <use xlink:href="#DejaVuSans-48" transform="translate(597.265625 0)"/>
      <use xlink:href="#DejaVuSans-3" transform="translate(658.796875 0)"/>
      <use xlink:href="#DejaVuSans-b" transform="translate(690.578125 0)"/>
      <use xlink:href="#DejaVuSans-51" transform="translate(729.59375 0)"/>
      <use xlink:href="#DejaVuSans-52" transform="translate(792.96875 0)"/>
      <use xlink:href="#DejaVuSans-55" transform="translate(854.15625 0)"/>
      <use xlink:href="#DejaVuSans-50" transform="translate(893.515625 0)"/>
      <use xlink:href="#DejaVuSans-44" transform="translate(990.921875 0)"/>
      <use xlink:href="#DejaVuSans-4f" transform="translate(1052.203125 0)"/>
      <use xlink:href="#DejaVuSans-4c" transform="translate(1079.984375 0)"/>
      <use xlink:href="#DejaVuSans-56" transform="translate(1107.765625 0)"/>
      <use xlink:href="#DejaVuSans-48" transform="translate(1159.859375 0)"/>
      <use xlink:href="#DejaVuSans-47" transform="translate(1221.390625 0)"/>
      <use xlink:href="#DejaVuSans-c" transform="translate(1284.875 0)"/>
     </g>
    </g>
   </g>
   <g id="line2d_13">
    <path d="M 44.103906 240.598691 
L 47.194894 256.063445 
L 65.740821 255.191239 
L 75.013785 254.813118 
L 75.03453 40.378043 
L 75.138254 41.68596 
L 75.221234 42.799352 
L 78.312222 254.879522 
L 106.131112 253.869553 
L 106.151857 35.116151 
L 106.255582 36.458704 
L 106.338561 37.590909 
L 109.429549 118.591878 
L 121.793501 139.170023 
L 124.884488 143.83058 
L 127.975476 148.263973 
L 131.066464 152.476374 
L 134.157452 156.474393 
L 137.24844 160.265072 
L 137.269185 111.158052 
L 137.372909 111.837648 
L 137.455889 112.299257 
L 140.546877 164.152009 
L 143.637864 167.533913 
L 146.728852 170.732117 
L 149.81984 173.754539 
L 152.910828 176.608964 
L 156.001816 179.303142 
L 159.092804 181.844717 
L 165.27478 186.4998 
L 168.365767 188.627702 
L 168.386512 138.133539 
L 168.490237 138.69074 
L 168.573216 139.077178 
L 171.664204 190.835367 
L 177.84618 194.473992 
L 184.028156 197.695001 
L 190.210131 200.543576 
L 196.392107 203.060618 
L 199.483095 204.206505 
L 199.50384 153.130678 
L 199.607564 153.613205 
L 199.690544 153.9543 
L 202.781532 205.433647 
L 208.963507 207.377083 
L 215.145483 209.090616 
L 221.327459 210.600819 
L 227.509435 211.931121 
L 230.600422 212.535409 
L 230.621167 161.171674 
L 230.724892 161.610821 
L 230.807871 161.92602 
L 233.898859 213.224033 
L 243.171823 214.70162 
L 252.444786 215.919306 
L 261.71775 216.921653 
L 261.738495 165.381893 
L 261.842219 165.796855 
L 261.925199 166.097829 
L 265.016187 217.320721 
L 277.380138 218.293337 
L 289.74409 219.037939 
L 292.835077 219.194709 
L 292.855822 167.524591 
L 292.959547 167.926545 
L 293.042526 168.219967 
L 296.133514 219.439219 
L 311.588453 220.010419 
L 323.952405 220.340904 
L 323.97315 168.560849 
L 324.076874 168.956067 
L 324.159854 169.245635 
L 327.250842 220.503167 
L 351.978745 220.857923 
L 355.069732 220.887593 
L 355.090477 169.007744 
L 355.194202 169.399659 
L 355.277181 169.687386 
L 358.368169 221.00619 
L 386.18706 221.115983 
L 386.207805 169.141981 
L 386.311529 169.532446 
L 386.394509 169.819413 
L 389.485497 221.211471 
L 417.304387 221.175891 
L 417.325132 169.111277 
L 417.428857 169.501282 
L 417.511836 169.788067 
L 420.602824 279.946676 
L 436.057763 277.372883 
L 448.421715 275.484856 
L 448.44246 135.644492 
L 448.546184 136.265955 
L 448.629164 137.011162 
L 451.720152 275.096617 
L 470.266079 272.52562 
L 479.539042 271.33269 
L 479.559787 116.439258 
L 479.663512 117.186626 
L 479.746491 117.998604 
L 482.837479 271.030808 
L 501.383406 268.838816 
L 510.65637 267.8229 
L 510.677115 100.07486 
L 510.780839 100.943807 
L 510.863819 101.83517 
L 513.954807 267.595445 
L 532.500734 265.727037 
L 541.773697 264.861783 
L 541.794442 86.146691 
L 541.898167 87.119156 
L 541.981146 88.070445 
L 545.072134 264.698565 
L 566.709049 262.854028 
L 572.891025 262.366148 
L 572.91177 74.330869 
L 573.015494 75.390713 
L 573.098474 76.38849 
L 576.189462 262.258083 
L 597.826377 260.680549 
L 604.008352 260.263395 
L 604.029097 64.314997 
L 604.132822 65.448366 
L 604.215801 66.483143 
L 607.306789 260.202719 
L 632.034692 258.668792 
L 635.12568 258.491347 
L 635.146425 55.82304 
L 635.250149 57.018202 
L 635.333129 58.083054 
L 638.424117 258.471523 
L 666.243007 256.997132 
L 666.263752 48.618306 
L 666.367477 49.86533 
L 666.450456 50.955057 
L 669.541444 257.012741 
L 697.360335 255.73593 
L 697.38108 42.500133 
L 697.484804 43.790595 
L 697.567784 44.90119 
L 697.567784 44.90119 
" clip-path="url(#p108e8b5954)" style="fill: none; stroke: #ff0000; stroke-width: 2.5; stroke-linecap: square"/>
   </g>
   <g id="line2d_14">
    <path d="M 75.03453 314.277656 
L 106.151857 319.539549 
L 137.269185 216.999729 
L 168.386512 159.350134 
L 199.50384 118.951652 
L 230.621167 94.031971 
L 261.738495 79.910592 
L 292.855822 72.412714 
L 323.97315 68.707457 
L 355.090477 67.093223 
L 386.207805 66.606401 
L 417.325132 66.717832 
L 448.44246 165.398664 
L 479.559787 206.950851 
L 510.677115 236.477303 
L 541.794442 258.271035 
L 572.91177 274.775889 
L 604.029097 287.544558 
L 635.146425 297.595236 
L 666.263752 305.618581 
L 697.38108 312.097911 
" clip-path="url(#p108e8b5954)" style="fill: none; stroke-dasharray: 7.4,3.2; stroke-dashoffset: 0; stroke: #000000; stroke-width: 2"/>
   </g>
   <g id="patch_14">
    <path d="M 44.103906 314.277656 
L 44.103906 7.2 
" style="fill: none; stroke: #000000; stroke-width: 0.8; stroke-linejoin: miter; stroke-linecap: square"/>
   </g>
   <g id="patch_15">
    <path d="M 692.381562 314.277656 
L 692.381562 7.2 
" style="fill: none; stroke: #000000; stroke-width: 0.8; stroke-linejoin: miter; stroke-linecap: square"/>
   </g>
   <g id="patch_16">
    <path d="M 44.103906 314.277656 
L 692.381562 314.277656 
" style="fill: none; stroke: #000000; stroke-width: 0.8; stroke-linejoin: miter; stroke-linecap: square"/>
   </g>
   <g id="patch_17">
    <path d="M 44.103906 7.2 
L 692.381562 7.2 
" style="fill: none; stroke: #000000; stroke-width: 0.8; stroke-linejoin: miter; stroke-linecap: square"/>
   </g>
   <g id="legend_1">
    <g id="patch_18">
     <path d="M 587.501875 45.201562 
L 685.381562 45.201562 
Q 687.381562 45.201562 687.381562 43.201562 
L 687.381562 14.2 
Q 687.381562 12.2 685.381562 12.2 
L 587.501875 12.2 
Q 585.501875 12.2 585.501875 14.2 
L 585.501875 43.201562 
Q 585.501875 45.201562 587.501875 45.201562 
z
" style="fill: #ffffff; opacity: 0.8; stroke: #cccccc; stroke-linejoin: miter"/>
    </g>
    <g id="line2d_15">
     <path d="M 589.501875 20.298437 
L 599.501875 20.298437 
L 609.501875 20.298437 
" style="fill: none; stroke: #ff0000; stroke-width: 2.5; stroke-linecap: square"/>
    </g>
    <g id="text_15">
     <!-- Fluorescence -->
     <g transform="translate(617.501875 23.798437) scale(0.1 -0.1)">
      <use xlink:href="#DejaVuSans-29"/>
      <use xlink:href="#DejaVuSans-4f" transform="translate(57.515625 0)"/>
      <use xlink:href="#DejaVuSans-58" transform="translate(85.296875 0)"/>
      <use xlink:href="#DejaVuSans-52" transform="translate(148.671875 0)"/>
      <use xlink:href="#DejaVuSans-55" transform="translate(209.859375 0)"/>
      <use xlink:href="#DejaVuSans-48" transform="translate(248.765625 0)"/>
      <use xlink:href="#DejaVuSans-56" transform="translate(310.296875 0)"/>
      <use xlink:href="#DejaVuSans-46" transform="translate(362.390625 0)"/>
      <use xlink:href="#DejaVuSans-48" transform="translate(417.375 0)"/>
      <use xlink:href="#DejaVuSans-51" transform="translate(478.90625 0)"/>
      <use xlink:href="#DejaVuSans-46" transform="translate(542.28125 0)"/>
      <use xlink:href="#DejaVuSans-48" transform="translate(597.265625 0)"/>
     </g>
    </g>
    <g id="line2d_16">
     <path d="M 589.501875 35.299219 
L 599.501875 35.299219 
L 609.501875 35.299219 
" style="fill: none; stroke-dasharray: 7.4,3.2; stroke-dashoffset: 0; stroke: #000000; stroke-width: 2"/>
    </g>
    <g id="text_16">
     <!-- NPQ -->
     <g transform="translate(617.501875 38.799219) scale(0.1 -0.1)">
      <defs>
       <path id="DejaVuSans-31" d="M 628 4666 
L 1478 4666 
L 3547 763 
L 3547 4666 
L 4159 4666 
L 4159 0 
L 3309 0 
L 1241 3903 
L 1241 0 
L 628 0 
L 628 4666 
z
" transform="scale(0.015625)"/>
       <path id="DejaVuSans-33" d="M 1259 4147 
L 1259 2394 
L 2053 2394 
Q 2494 2394 2734 2622 
Q 2975 2850 2975 3272 
Q 2975 3691 2734 3919 
Q 2494 4147 2053 4147 
L 1259 4147 
z
M 628 4666 
L 2053 4666 
Q 2838 4666 3239 4311 
Q 3641 3956 3641 3272 
Q 3641 2581 3239 2228 
Q 2838 1875 2053 1875 
L 1259 1875 
L 1259 0 
L 628 0 
L 628 4666 
z
" transform="scale(0.015625)"/>
       <path id="DejaVuSans-34" d="M 2522 4238 
Q 1834 4238 1429 3725 
Q 1025 3213 1025 2328 
Q 1025 1447 1429 934 
Q 1834 422 2522 422 
Q 3209 422 3611 934 
Q 4013 1447 4013 2328 
Q 4013 3213 3611 3725 
Q 3209 4238 2522 4238 
z
M 3406 84 
L 4238 -825 
L 3475 -825 
L 2784 -78 
Q 2681 -84 2626 -87 
Q 2572 -91 2522 -91 
Q 1538 -91 948 567 
Q 359 1225 359 2328 
Q 359 3434 948 4092 
Q 1538 4750 2522 4750 
Q 3503 4750 4090 4092 
Q 4678 3434 4678 2328 
Q 4678 1516 4351 937 
Q 4025 359 3406 84 
z
" transform="scale(0.015625)"/>
      </defs>
      <use xlink:href="#DejaVuSans-31"/>
      <use xlink:href="#DejaVuSans-33" transform="translate(74.8125 0)"/>
      <use xlink:href="#DejaVuSans-34" transform="translate(135.109375 0)"/>
     </g>
    </g>
   </g>
  </g>
 </g>
 <defs>
  <clipPath id="p108e8b5954">
   <rect x="44.103906" y="7.2" width="648.277656" height="307.077656"/>
  </clipPath>
 </defs>
</svg>
