<?xml version="1.0" encoding="utf-8" standalone="no"?>
<!DOCTYPE svg PUBLIC "-//W3C//DTD SVG 1.1//EN"
  "http://www.w3.org/Graphics/SVG/1.1/DTD/svg11.dtd">
<svg xmlns:xlink="http://www.w3.org/1999/xlink" width="565.85393pt" height="425.091617pt" viewBox="0 0 565.85393 425.091617" xmlns="http://www.w3.org/2000/svg" version="1.1">
 <metadata>
  <rdf:RDF xmlns:dc="http://purl.org/dc/elements/1.1/" xmlns:cc="http://creativecommons.org/ns#" xmlns:rdf="http://www.w3.org/1999/02/22-rdf-syntax-ns#">
   <cc:Work>
    <dc:type rdf:resource="http://purl.org/dc/dcmitype/StillImage"/>
    <dc:date>2026-06-29T12:59:12.309217</dc:date>
    <dc:format>image/svg+xml</dc:format>
    <dc:creator>
     <cc:Agent>
      <dc:title>Matplotlib v3.11.0, https://matplotlib.org/</dc:title>
     </cc:Agent>
    </dc:creator>
   </cc:Work>
  </rdf:RDF>
 </metadata>
 <defs>
  <style type="text/css">*{stroke-linejoin: round; stroke-linecap: butt}</style>
 </defs>
 <g id="figure_1">
  <g id="patch_1">
   <path d="M 0 425.091617 
L 565.85393 425.091617 
L 565.85393 0 
L 0 0 
z
" style="fill: #ffffff"/>
  </g>
  <g id="axes_1">
   <g id="patch_2">
    <path d="M 71.825648 190.200445 
L 502.663305 190.200445 
L 502.663305 26.768102 
L 71.825648 26.768102 
z
" style="fill: #ffffff"/>
   </g>
   <g id="matplotlib.axis_1">
    <g id="xtick_1">
     <g id="line2d_1">
      <defs>
       <path id="m15e4667cbd" d="M 0 0 
L 0 3.5 
" style="stroke: #000000; stroke-width: 0.8"/>
      </defs>
      <g>
       <use xlink:href="#m15e4667cbd" x="91.409178" y="190.200445" style="stroke: #000000; stroke-width: 0.8"/>
      </g>
     </g>
    </g>
    <g id="xtick_2">
     <g id="line2d_2">
      <g>
       <use xlink:href="#m15e4667cbd" x="156.687611" y="190.200445" style="stroke: #000000; stroke-width: 0.8"/>
      </g>
     </g>
    </g>
    <g id="xtick_3">
     <g id="line2d_3">
      <g>
       <use xlink:href="#m15e4667cbd" x="221.966044" y="190.200445" style="stroke: #000000; stroke-width: 0.8"/>
      </g>
     </g>
    </g>
    <g id="xtick_4">
     <g id="line2d_4">
      <g>
       <use xlink:href="#m15e4667cbd" x="287.244477" y="190.200445" style="stroke: #000000; stroke-width: 0.8"/>
      </g>
     </g>
    </g>
    <g id="xtick_5">
     <g id="line2d_5">
      <g>
       <use xlink:href="#m15e4667cbd" x="352.522909" y="190.200445" style="stroke: #000000; stroke-width: 0.8"/>
      </g>
     </g>
    </g>
    <g id="xtick_6">
     <g id="line2d_6">
      <g>
       <use xlink:href="#m15e4667cbd" x="417.801342" y="190.200445" style="stroke: #000000; stroke-width: 0.8"/>
      </g>
     </g>
    </g>
    <g id="xtick_7">
     <g id="line2d_7">
      <g>
       <use xlink:href="#m15e4667cbd" x="483.079775" y="190.200445" style="stroke: #000000; stroke-width: 0.8"/>
      </g>
     </g>
    </g>
   </g>
   <g id="matplotlib.axis_2">
    <g id="ytick_1">
     <g id="line2d_8">
      <defs>
       <path id="m8139a99996" d="M 0 0 
L -3.5 0 
" style="stroke: #000000; stroke-width: 0.8"/>
      </defs>
      <g>
       <use xlink:href="#m8139a99996" x="71.825648" y="184.927532" style="stroke: #000000; stroke-width: 0.8"/>
      </g>
     </g>
     <g id="text_1">
      <!-- 0 -->
      <g transform="translate(58.463148 188.72636) scale(0.1 -0.1)">
       <defs>
        <path id="DejaVuSans-13" d="M 2034 4250 
Q 1547 4250 1301 3770 
Q 1056 3291 1056 2328 
Q 1056 1369 1301 889 
Q 1547 409 2034 409 
Q 2525 409 2770 889 
Q 3016 1369 3016 2328 
Q 3016 3291 2770 3770 
Q 2525 4250 2034 4250 
z
M 2034 4750 
Q 2819 4750 3233 4129 
Q 3647 3509 3647 2328 
Q 3647 1150 3233 529 
Q 2819 -91 2034 -91 
Q 1250 -91 836 529 
Q 422 1150 422 2328 
Q 422 3509 836 4129 
Q 1250 4750 2034 4750 
z
" transform="scale(0.015625)"/>
       </defs>
       <use xlink:href="#DejaVuSans-13"/>
      </g>
     </g>
    </g>
    <g id="ytick_2">
     <g id="line2d_9">
      <g>
       <use xlink:href="#m8139a99996" x="71.825648" y="164.064727" style="stroke: #000000; stroke-width: 0.8"/>
      </g>
     </g>
     <g id="text_2">
      <!-- 100 -->
      <g transform="translate(45.738148 167.863556) scale(0.1 -0.1)">
       <defs>
        <path id="DejaVuSans-14" d="M 794 531 
L 1825 531 
L 1825 4091 
L 703 3866 
L 703 4441 
L 1819 4666 
L 2450 4666 
L 2450 531 
L 3481 531 
L 3481 0 
L 794 0 
L 794 531 
z
" transform="scale(0.015625)"/>
       </defs>
       <use xlink:href="#DejaVuSans-14"/>
       <use xlink:href="#DejaVuSans-13" transform="translate(63.625 0)"/>
       <use xlink:href="#DejaVuSans-13" transform="translate(127.25 0)"/>
      </g>
     </g>
    </g>
    <g id="ytick_3">
     <g id="line2d_10">
      <g>
       <use xlink:href="#m8139a99996" x="71.825648" y="143.201923" style="stroke: #000000; stroke-width: 0.8"/>
      </g>
     </g>
     <g id="text_3">
      <!-- 200 -->
      <g transform="translate(45.738148 147.000751) scale(0.1 -0.1)">
       <defs>
        <path id="DejaVuSans-15" d="M 1228 531 
L 3431 531 
L 3431 0 
L 469 0 
L 469 531 
Q 828 903 1448 1529 
Q 2069 2156 2228 2338 
Q 2531 2678 2651 2914 
Q 2772 3150 2772 3378 
Q 2772 3750 2511 3984 
Q 2250 4219 1831 4219 
Q 1534 4219 1204 4116 
Q 875 4013 500 3803 
L 500 4441 
Q 881 4594 1212 4672 
Q 1544 4750 1819 4750 
Q 2544 4750 2975 4387 
Q 3406 4025 3406 3419 
Q 3406 3131 3298 2873 
Q 3191 2616 2906 2266 
Q 2828 2175 2409 1742 
Q 1991 1309 1228 531 
z
" transform="scale(0.015625)"/>
       </defs>
       <use xlink:href="#DejaVuSans-15"/>
       <use xlink:href="#DejaVuSans-13" transform="translate(63.625 0)"/>
       <use xlink:href="#DejaVuSans-13" transform="translate(127.25 0)"/>
      </g>
     </g>
    </g>
    <g id="ytick_4">
     <g id="line2d_11">
      <g>
       <use xlink:href="#m8139a99996" x="71.825648" y="122.339119" style="stroke: #000000; stroke-width: 0.8"/>
      </g>
     </g>
     <g id="text_4">
      <!-- 300 -->
      <g transform="translate(45.738148 126.137947) scale(0.1 -0.1)">
       <defs>
        <path id="DejaVuSans-16" d="M 2597 2516 
Q 3050 2419 3304 2112 
Q 3559 1806 3559 1356 
Q 3559 666 3084 287 
Q 2609 -91 1734 -91 
Q 1441 -91 1130 -33 
Q 819 25 488 141 
L 488 750 
Q 750 597 1062 519 
Q 1375 441 1716 441 
Q 2309 441 2620 675 
Q 2931 909 2931 1356 
Q 2931 1769 2642 2001 
Q 2353 2234 1838 2234 
L 1294 2234 
L 1294 2753 
L 1863 2753 
Q 2328 2753 2575 2939 
Q 2822 3125 2822 3475 
Q 2822 3834 2567 4026 
Q 2313 4219 1838 4219 
Q 1578 4219 1281 4162 
Q 984 4106 628 3988 
L 628 4550 
Q 988 4650 1302 4700 
Q 1616 4750 1894 4750 
Q 2613 4750 3031 4423 
Q 3450 4097 3450 3541 
Q 3450 3153 3228 2886 
Q 3006 2619 2597 2516 
z
" transform="scale(0.015625)"/>
       </defs>
       <use xlink:href="#DejaVuSans-16"/>
       <use xlink:href="#DejaVuSans-13" transform="translate(63.625 0)"/>
       <use xlink:href="#DejaVuSans-13" transform="translate(127.25 0)"/>
      </g>
     </g>
    </g>
    <g id="ytick_5">
     <g id="line2d_12">
      <g>
       <use xlink:href="#m8139a99996" x="71.825648" y="101.476315" style="stroke: #000000; stroke-width: 0.8"/>
      </g>
     </g>
     <g id="text_5">
      <!-- 400 -->
      <g transform="translate(45.738148 105.275143) scale(0.1 -0.1)">
       <defs>
        <path id="DejaVuSans-17" d="M 2419 4116 
L 825 1625 
L 2419 1625 
L 2419 4116 
z
M 2253 4666 
L 3047 4666 
L 3047 1625 
L 3713 1625 
L 3713 1100 
L 3047 1100 
L 3047 0 
L 2419 0 
L 2419 1100 
L 313 1100 
L 313 1709 
L 2253 4666 
z
" transform="scale(0.015625)"/>
       </defs>
       <use xlink:href="#DejaVuSans-17"/>
       <use xlink:href="#DejaVuSans-13" transform="translate(63.625 0)"/>
       <use xlink:href="#DejaVuSans-13" transform="translate(127.25 0)"/>
      </g>
     </g>
    </g>
    <g id="ytick_6">
     <g id="line2d_13">
      <g>
       <use xlink:href="#m8139a99996" x="71.825648" y="80.61351" style="stroke: #000000; stroke-width: 0.8"/>
      </g>
     </g>
     <g id="text_6">
      <!-- 500 -->
      <g transform="translate(45.738148 84.412339) scale(0.1 -0.1)">
       <defs>
        <path id="DejaVuSans-18" d="M 691 4666 
L 3169 4666 
L 3169 4134 
L 1269 4134 
L 1269 2991 
Q 1406 3038 1543 3061 
Q 1681 3084 1819 3084 
Q 2600 3084 3056 2656 
Q 3513 2228 3513 1497 
Q 3513 744 3044 326 
Q 2575 -91 1722 -91 
Q 1428 -91 1123 -41 
Q 819 9 494 109 
L 494 744 
Q 775 591 1075 516 
Q 1375 441 1709 441 
Q 2250 441 2565 725 
Q 2881 1009 2881 1497 
Q 2881 1984 2565 2268 
Q 2250 2553 1709 2553 
Q 1456 2553 1204 2497 
Q 953 2441 691 2322 
L 691 4666 
z
" transform="scale(0.015625)"/>
       </defs>
       <use xlink:href="#DejaVuSans-18"/>
       <use xlink:href="#DejaVuSans-13" transform="translate(63.625 0)"/>
       <use xlink:href="#DejaVuSans-13" transform="translate(127.25 0)"/>
      </g>
     </g>
    </g>
    <g id="ytick_7">
     <g id="line2d_14">
      <g>
       <use xlink:href="#m8139a99996" x="71.825648" y="59.750706" style="stroke: #000000; stroke-width: 0.8"/>
      </g>
     </g>
     <g id="text_7">
      <!-- 600 -->
      <g transform="translate(45.738148 63.549534) scale(0.1 -0.1)">
       <defs>
        <path id="DejaVuSans-19" d="M 2113 2584 
Q 1688 2584 1439 2293 
Q 1191 2003 1191 1497 
Q 1191 994 1439 701 
Q 1688 409 2113 409 
Q 2538 409 2786 701 
Q 3034 994 3034 1497 
Q 3034 2003 2786 2293 
Q 2538 2584 2113 2584 
z
M 3366 4563 
L 3366 3988 
Q 3128 4100 2886 4159 
Q 2644 4219 2406 4219 
Q 1781 4219 1451 3797 
Q 1122 3375 1075 2522 
Q 1259 2794 1537 2939 
Q 1816 3084 2150 3084 
Q 2853 3084 3261 2657 
Q 3669 2231 3669 1497 
Q 3669 778 3244 343 
Q 2819 -91 2113 -91 
Q 1303 -91 875 529 
Q 447 1150 447 2328 
Q 447 3434 972 4092 
Q 1497 4750 2381 4750 
Q 2619 4750 2861 4703 
Q 3103 4656 3366 4563 
z
" transform="scale(0.015625)"/>
       </defs>
       <use xlink:href="#DejaVuSans-19"/>
       <use xlink:href="#DejaVuSans-13" transform="translate(63.625 0)"/>
       <use xlink:href="#DejaVuSans-13" transform="translate(127.25 0)"/>
      </g>
     </g>
    </g>
    <g id="ytick_8">
     <g id="line2d_15">
      <g>
       <use xlink:href="#m8139a99996" x="71.825648" y="38.887902" style="stroke: #000000; stroke-width: 0.8"/>
      </g>
     </g>
     <g id="text_8">
      <!-- 700 -->
      <g transform="translate(45.738148 42.68673) scale(0.1 -0.1)">
       <defs>
        <path id="DejaVuSans-1a" d="M 525 4666 
L 3525 4666 
L 3525 4397 
L 1831 0 
L 1172 0 
L 2766 4134 
L 525 4134 
L 525 4666 
z
" transform="scale(0.015625)"/>
       </defs>
       <use xlink:href="#DejaVuSans-1a"/>
       <use xlink:href="#DejaVuSans-13" transform="translate(63.625 0)"/>
       <use xlink:href="#DejaVuSans-13" transform="translate(127.25 0)"/>
      </g>
     </g>
    </g>
    <g id="text_9">
     <!-- mmol e$^-$ / mol Chl / s -->
     <g transform="translate(39.335805 163.134273) rotate(-90) scale(0.1 -0.1)">
      <defs>
       <path id="DejaVuSans-50" d="M 3328 2828 
Q 3544 3216 3844 3400 
Q 4144 3584 4550 3584 
Q 5097 3584 5394 3201 
Q 5691 2819 5691 2113 
L 5691 0 
L 5113 0 
L 5113 2094 
Q 5113 2597 4934 2840 
Q 4756 3084 4391 3084 
Q 3944 3084 3684 2787 
Q 3425 2491 3425 1978 
L 3425 0 
L 2847 0 
L 2847 2094 
Q 2847 2600 2669 2842 
Q 2491 3084 2119 3084 
Q 1678 3084 1418 2786 
Q 1159 2488 1159 1978 
L 1159 0 
L 581 0 
L 581 3500 
L 1159 3500 
L 1159 2956 
Q 1356 3278 1631 3431 
Q 1906 3584 2284 3584 
Q 2666 3584 2933 3390 
Q 3200 3197 3328 2828 
z
" transform="scale(0.015625)"/>
       <path id="DejaVuSans-52" d="M 1959 3097 
Q 1497 3097 1228 2736 
Q 959 2375 959 1747 
Q 959 1119 1226 758 
Q 1494 397 1959 397 
Q 2419 397 2687 759 
Q 2956 1122 2956 1747 
Q 2956 2369 2687 2733 
Q 2419 3097 1959 3097 
z
M 1959 3584 
Q 2709 3584 3137 3096 
Q 3566 2609 3566 1747 
Q 3566 888 3137 398 
Q 2709 -91 1959 -91 
Q 1206 -91 779 398 
Q 353 888 353 1747 
Q 353 2609 779 3096 
Q 1206 3584 1959 3584 
z
" transform="scale(0.015625)"/>
       <path id="DejaVuSans-4f" d="M 603 4863 
L 1178 4863 
L 1178 0 
L 603 0 
L 603 4863 
z
" transform="scale(0.015625)"/>
       <path id="DejaVuSans-3" transform="scale(0.015625)"/>
       <path id="DejaVuSans-48" d="M 3597 1894 
L 3597 1613 
L 953 1613 
Q 991 1019 1311 708 
Q 1631 397 2203 397 
Q 2534 397 2845 478 
Q 3156 559 3463 722 
L 3463 178 
Q 3153 47 2828 -22 
Q 2503 -91 2169 -91 
Q 1331 -91 842 396 
Q 353 884 353 1716 
Q 353 2575 817 3079 
Q 1281 3584 2069 3584 
Q 2775 3584 3186 3129 
Q 3597 2675 3597 1894 
z
M 3022 2063 
Q 3016 2534 2758 2815 
Q 2500 3097 2075 3097 
Q 1594 3097 1305 2825 
Q 1016 2553 972 2059 
L 3022 2063 
z
" transform="scale(0.015625)"/>
       <path id="DejaVuSans-c9c" d="M 678 2272 
L 4684 2272 
L 4684 1741 
L 678 1741 
L 678 2272 
z
" transform="scale(0.015625)"/>
       <path id="DejaVuSans-12" d="M 1625 4666 
L 2156 4666 
L 531 -594 
L 0 -594 
L 1625 4666 
z
" transform="scale(0.015625)"/>
       <path id="DejaVuSans-26" d="M 4122 4306 
L 4122 3641 
Q 3803 3938 3442 4084 
Q 3081 4231 2675 4231 
Q 1875 4231 1450 3742 
Q 1025 3253 1025 2328 
Q 1025 1406 1450 917 
Q 1875 428 2675 428 
Q 3081 428 3442 575 
Q 3803 722 4122 1019 
L 4122 359 
Q 3791 134 3420 21 
Q 3050 -91 2638 -91 
Q 1578 -91 968 557 
Q 359 1206 359 2328 
Q 359 3453 968 4101 
Q 1578 4750 2638 4750 
Q 3056 4750 3426 4639 
Q 3797 4528 4122 4306 
z
" transform="scale(0.015625)"/>
       <path id="DejaVuSans-4b" d="M 3513 2113 
L 3513 0 
L 2938 0 
L 2938 2094 
Q 2938 2591 2744 2837 
Q 2550 3084 2163 3084 
Q 1697 3084 1428 2787 
Q 1159 2491 1159 1978 
L 1159 0 
L 581 0 
L 581 4863 
L 1159 4863 
L 1159 2956 
Q 1366 3272 1645 3428 
Q 1925 3584 2291 3584 
Q 2894 3584 3203 3211 
Q 3513 2838 3513 2113 
z
" transform="scale(0.015625)"/>
       <path id="DejaVuSans-56" d="M 2834 3397 
L 2834 2853 
Q 2591 2978 2328 3040 
Q 2066 3103 1784 3103 
Q 1356 3103 1142 2972 
Q 928 2841 928 2578 
Q 928 2378 1081 2264 
Q 1234 2150 1697 2047 
L 1894 2003 
Q 2506 1872 2764 1633 
Q 3022 1394 3022 966 
Q 3022 478 2636 193 
Q 2250 -91 1575 -91 
Q 1294 -91 989 -36 
Q 684 19 347 128 
L 347 722 
Q 666 556 975 473 
Q 1284 391 1588 391 
Q 1994 391 2212 530 
Q 2431 669 2431 922 
Q 2431 1156 2273 1281 
Q 2116 1406 1581 1522 
L 1381 1569 
Q 847 1681 609 1914 
Q 372 2147 372 2553 
Q 372 3047 722 3315 
Q 1072 3584 1716 3584 
Q 2034 3584 2315 3537 
Q 2597 3491 2834 3397 
z
" transform="scale(0.015625)"/>
      </defs>
      <use xlink:href="#DejaVuSans-50" transform="translate(0 0.015625)"/>
      <use xlink:href="#DejaVuSans-50" transform="translate(97.412109 0.015625)"/>
      <use xlink:href="#DejaVuSans-52" transform="translate(194.824219 0.015625)"/>
      <use xlink:href="#DejaVuSans-4f" transform="translate(256.005859 0.015625)"/>
      <use xlink:href="#DejaVuSans-3" transform="translate(283.789062 0.015625)"/>
      <use xlink:href="#DejaVuSans-48" transform="translate(315.576172 0.015625)"/>
      <use xlink:href="#DejaVuSans-c9c" transform="translate(391.694336 41.315625) scale(0.7)"/>
      <use xlink:href="#DejaVuSans-3" transform="translate(466.71875 0.015625)"/>
      <use xlink:href="#DejaVuSans-12" transform="translate(498.505859 0.015625)"/>
      <use xlink:href="#DejaVuSans-3" transform="translate(532.197266 0.015625)"/>
      <use xlink:href="#DejaVuSans-50" transform="translate(563.984375 0.015625)"/>
      <use xlink:href="#DejaVuSans-52" transform="translate(661.396484 0.015625)"/>
      <use xlink:href="#DejaVuSans-4f" transform="translate(722.578125 0.015625)"/>
      <use xlink:href="#DejaVuSans-3" transform="translate(750.361328 0.015625)"/>
      <use xlink:href="#DejaVuSans-26" transform="translate(782.148438 0.015625)"/>
      <use xlink:href="#DejaVuSans-4b" transform="translate(851.972656 0.015625)"/>
      <use xlink:href="#DejaVuSans-4f" transform="translate(915.351562 0.015625)"/>
      <use xlink:href="#DejaVuSans-3" transform="translate(943.134766 0.015625)"/>
      <use xlink:href="#DejaVuSans-12" transform="translate(974.921875 0.015625)"/>
      <use xlink:href="#DejaVuSans-3" transform="translate(1008.613281 0.015625)"/>
      <use xlink:href="#DejaVuSans-56" transform="translate(1040.400391 0.015625)"/>
     </g>
    </g>
   </g>
   <g id="line2d_16">
    <path d="M 91.409178 111.885409 
L 101.220566 110.22639 
L 110.214338 108.484581 
L 118.554018 106.647254 
L 126.239605 104.732862 
L 133.434622 102.717305 
L 140.13907 100.614541 
L 146.516472 98.382925 
L 152.403305 96.09364 
L 157.963091 93.701136 
L 163.032308 91.298938 
L 168.101525 88.659365 
L 169.246187 88.027531 
L 169.736757 87.601008 
L 169.90028 87.660244 
L 171.535511 86.721643 
L 224.019894 40.700723 
L 227.238029 38.631029 
L 228.310741 38.053085 
L 249.22862 34.21061 
L 254.592178 34.249423 
L 258.883025 34.502638 
L 262.637516 34.95605 
L 266.392007 35.629397 
L 270.682854 36.618675 
L 271.755566 36.857378 
L 276.046413 36.727209 
L 279.264548 36.967463 
L 284.628107 37.618412 
L 292.137089 38.762421 
L 301.791494 40.469524 
L 311.982255 42.491836 
L 323.245728 44.953879 
L 335.045557 47.761742 
L 346.845386 50.777505 
L 361.326995 54.721005 
L 377.41767 59.348825 
L 398.871905 65.777281 
L 444.998509 79.737045 
L 466.452743 85.953011 
L 483.079775 90.554237 
L 483.079775 90.554237 
" clip-path="url(#p2af3acea7f)" style="fill: none; stroke: #1a75b5; stroke-width: 2; stroke-linecap: square"/>
   </g>
   <g id="line2d_17">
    <path d="M 91.409178 115.726181 
L 103.50989 114.359463 
L 114.465939 112.899364 
L 124.44085 111.346256 
L 133.434622 109.725925 
L 141.774302 108.001228 
L 149.459889 106.188133 
L 156.164337 104.40181 
L 163.032308 102.34255 
L 169.246187 100.249697 
L 169.90028 100.015451 
L 171.535511 99.417534 
L 224.019894 73.174063 
L 227.238029 72.429028 
L 228.310741 72.243779 
L 250.301331 71.685433 
L 256.737602 72.005375 
L 261.028449 72.411097 
L 265.319296 73.025923 
L 270.146498 73.934586 
L 272.291922 74.314743 
L 277.65548 74.84897 
L 286.237174 75.994448 
L 296.964291 77.620969 
L 310.373188 79.88627 
L 323.782084 82.388752 
L 336.118269 84.885512 
L 351.672589 88.270931 
L 367.763265 92.005596 
L 386.53572 96.580733 
L 470.74359 117.459019 
L 483.079775 120.309305 
L 483.079775 120.309305 
" clip-path="url(#p2af3acea7f)" style="fill: none; stroke: #fc7f09; stroke-width: 2; stroke-linecap: square"/>
   </g>
   <g id="line2d_18">
    <path d="M 91.409178 182.771702 
L 113.811847 182.05838 
L 132.126437 181.260609 
L 147.334088 180.384221 
L 160.252415 179.42399 
L 171.208465 178.395677 
L 171.535511 178.361271 
L 228.310741 167.650627 
L 250.301331 166.007036 
L 260.492093 165.911456 
L 274.437345 165.859488 
L 279.264548 165.714059 
L 289.455309 165.686228 
L 309.300476 165.869285 
L 339.87276 166.385157 
L 377.41767 167.234518 
L 483.079775 169.818885 
L 483.079775 169.818885 
" clip-path="url(#p2af3acea7f)" style="fill: none; stroke: #269b2a; stroke-width: 2; stroke-linecap: square"/>
   </g>
   <g id="patch_3">
    <path d="M 71.825648 190.200445 
L 71.825648 26.768102 
" style="fill: none; stroke: #000000; stroke-width: 0.8; stroke-linejoin: miter; stroke-linecap: square"/>
   </g>
   <g id="patch_4">
    <path d="M 502.663305 190.200445 
L 502.663305 26.768102 
" style="fill: none; stroke: #000000; stroke-width: 0.8; stroke-linejoin: miter; stroke-linecap: square"/>
   </g>
   <g id="patch_5">
    <path d="M 71.825648 190.200445 
L 502.663305 190.200445 
" style="fill: none; stroke: #000000; stroke-width: 0.8; stroke-linejoin: miter; stroke-linecap: square"/>
   </g>
   <g id="patch_6">
    <path d="M 71.825648 26.768102 
L 502.663305 26.768102 
" style="fill: none; stroke: #000000; stroke-width: 0.8; stroke-linejoin: miter; stroke-linecap: square"/>
   </g>
   <g id="text_10">
    <!-- A -->
    <g transform="translate(7.2 18.596484) scale(0.15 -0.15)">
     <defs>
      <path id="DejaVuSans-Bold-24" d="M 3419 850 
L 1538 850 
L 1241 0 
L 31 0 
L 1759 4666 
L 3194 4666 
L 4922 0 
L 3713 0 
L 3419 850 
z
M 1838 1716 
L 3116 1716 
L 2478 3572 
L 1838 1716 
z
" transform="scale(0.015625)"/>
     </defs>
     <use xlink:href="#DejaVuSans-Bold-24"/>
    </g>
   </g>
   <g id="text_11">
    <!-- Photosynthetic Electron Fluxes -->
    <g transform="translate(194.957914 20.768102) scale(0.12 -0.12)">
     <defs>
      <path id="DejaVuSans-33" d="M 1259 4147 
L 1259 2394 
L 2053 2394 
Q 2494 2394 2734 2622 
Q 2975 2850 2975 3272 
Q 2975 3691 2734 3919 
Q 2494 4147 2053 4147 
L 1259 4147 
z
M 628 4666 
L 2053 4666 
Q 2838 4666 3239 4311 
Q 3641 3956 3641 3272 
Q 3641 2581 3239 2228 
Q 2838 1875 2053 1875 
L 1259 1875 
L 1259 0 
L 628 0 
L 628 4666 
z
" transform="scale(0.015625)"/>
      <path id="DejaVuSans-57" d="M 1172 4494 
L 1172 3500 
L 2356 3500 
L 2356 3053 
L 1172 3053 
L 1172 1153 
Q 1172 725 1289 603 
Q 1406 481 1766 481 
L 2356 481 
L 2356 0 
L 1766 0 
Q 1100 0 847 248 
Q 594 497 594 1153 
L 594 3053 
L 172 3053 
L 172 3500 
L 594 3500 
L 594 4494 
L 1172 4494 
z
" transform="scale(0.015625)"/>
      <path id="DejaVuSans-5c" d="M 2059 -325 
Q 1816 -950 1584 -1140 
Q 1353 -1331 966 -1331 
L 506 -1331 
L 506 -850 
L 844 -850 
Q 1081 -850 1212 -737 
Q 1344 -625 1503 -206 
L 1606 56 
L 191 3500 
L 800 3500 
L 1894 763 
L 2988 3500 
L 3597 3500 
L 2059 -325 
z
" transform="scale(0.015625)"/>
      <path id="DejaVuSans-51" d="M 3513 2113 
L 3513 0 
L 2938 0 
L 2938 2094 
Q 2938 2591 2744 2837 
Q 2550 3084 2163 3084 
Q 1697 3084 1428 2787 
Q 1159 2491 1159 1978 
L 1159 0 
L 581 0 
L 581 3500 
L 1159 3500 
L 1159 2956 
Q 1366 3272 1645 3428 
Q 1925 3584 2291 3584 
Q 2894 3584 3203 3211 
Q 3513 2838 3513 2113 
z
" transform="scale(0.015625)"/>
      <path id="DejaVuSans-4c" d="M 603 3500 
L 1178 3500 
L 1178 0 
L 603 0 
L 603 3500 
z
M 603 4863 
L 1178 4863 
L 1178 4134 
L 603 4134 
L 603 4863 
z
" transform="scale(0.015625)"/>
      <path id="DejaVuSans-46" d="M 3122 3366 
L 3122 2828 
Q 2878 2963 2633 3030 
Q 2388 3097 2138 3097 
Q 1578 3097 1268 2742 
Q 959 2388 959 1747 
Q 959 1106 1268 751 
Q 1578 397 2138 397 
Q 2388 397 2633 464 
Q 2878 531 3122 666 
L 3122 134 
Q 2881 22 2623 -34 
Q 2366 -91 2075 -91 
Q 1284 -91 818 406 
Q 353 903 353 1747 
Q 353 2603 823 3093 
Q 1294 3584 2113 3584 
Q 2378 3584 2631 3529 
Q 2884 3475 3122 3366 
z
" transform="scale(0.015625)"/>
      <path id="DejaVuSans-28" d="M 628 4666 
L 3578 4666 
L 3578 4134 
L 1259 4134 
L 1259 2753 
L 3481 2753 
L 3481 2222 
L 1259 2222 
L 1259 531 
L 3634 531 
L 3634 0 
L 628 0 
L 628 4666 
z
" transform="scale(0.015625)"/>
      <path id="DejaVuSans-55" d="M 2631 2963 
Q 2534 3019 2420 3045 
Q 2306 3072 2169 3072 
Q 1681 3072 1420 2755 
Q 1159 2438 1159 1844 
L 1159 0 
L 581 0 
L 581 3500 
L 1159 3500 
L 1159 2956 
Q 1341 3275 1631 3429 
Q 1922 3584 2338 3584 
Q 2397 3584 2469 3576 
Q 2541 3569 2628 3553 
L 2631 2963 
z
" transform="scale(0.015625)"/>
      <path id="DejaVuSans-29" d="M 628 4666 
L 3309 4666 
L 3309 4134 
L 1259 4134 
L 1259 2759 
L 3109 2759 
L 3109 2228 
L 1259 2228 
L 1259 0 
L 628 0 
L 628 4666 
z
" transform="scale(0.015625)"/>
      <path id="DejaVuSans-58" d="M 544 1381 
L 544 3500 
L 1119 3500 
L 1119 1403 
Q 1119 906 1312 657 
Q 1506 409 1894 409 
Q 2359 409 2629 706 
Q 2900 1003 2900 1516 
L 2900 3500 
L 3475 3500 
L 3475 0 
L 2900 0 
L 2900 538 
Q 2691 219 2414 64 
Q 2138 -91 1772 -91 
Q 1169 -91 856 284 
Q 544 659 544 1381 
z
M 1991 3584 
L 1991 3584 
z
" transform="scale(0.015625)"/>
      <path id="DejaVuSans-5b" d="M 3513 3500 
L 2247 1797 
L 3578 0 
L 2900 0 
L 1881 1375 
L 863 0 
L 184 0 
L 1544 1831 
L 300 3500 
L 978 3500 
L 1906 2253 
L 2834 3500 
L 3513 3500 
z
" transform="scale(0.015625)"/>
     </defs>
     <use xlink:href="#DejaVuSans-33"/>
     <use xlink:href="#DejaVuSans-4b" transform="translate(60.296875 0)"/>
     <use xlink:href="#DejaVuSans-52" transform="translate(123.671875 0)"/>
     <use xlink:href="#DejaVuSans-57" transform="translate(184.859375 0)"/>
     <use xlink:href="#DejaVuSans-52" transform="translate(224.0625 0)"/>
     <use xlink:href="#DejaVuSans-56" transform="translate(285.25 0)"/>
     <use xlink:href="#DejaVuSans-5c" transform="translate(337.34375 0)"/>
     <use xlink:href="#DejaVuSans-51" transform="translate(396.53125 0)"/>
     <use xlink:href="#DejaVuSans-57" transform="translate(459.90625 0)"/>
     <use xlink:href="#DejaVuSans-4b" transform="translate(499.109375 0)"/>
     <use xlink:href="#DejaVuSans-48" transform="translate(562.484375 0)"/>
     <use xlink:href="#DejaVuSans-57" transform="translate(624.015625 0)"/>
     <use xlink:href="#DejaVuSans-4c" transform="translate(663.21875 0)"/>
     <use xlink:href="#DejaVuSans-46" transform="translate(691 0)"/>
     <use xlink:href="#DejaVuSans-3" transform="translate(745.984375 0)"/>
     <use xlink:href="#DejaVuSans-28" transform="translate(777.765625 0)"/>
     <use xlink:href="#DejaVuSans-4f" transform="translate(840.953125 0)"/>
     <use xlink:href="#DejaVuSans-48" transform="translate(868.734375 0)"/>
     <use xlink:href="#DejaVuSans-46" transform="translate(930.265625 0)"/>
     <use xlink:href="#DejaVuSans-57" transform="translate(985.25 0)"/>
     <use xlink:href="#DejaVuSans-55" transform="translate(1024.453125 0)"/>
     <use xlink:href="#DejaVuSans-52" transform="translate(1063.359375 0)"/>
     <use xlink:href="#DejaVuSans-51" transform="translate(1124.546875 0)"/>
     <use xlink:href="#DejaVuSans-3" transform="translate(1187.921875 0)"/>
     <use xlink:href="#DejaVuSans-29" transform="translate(1219.703125 0)"/>
     <use xlink:href="#DejaVuSans-4f" transform="translate(1277.21875 0)"/>
     <use xlink:href="#DejaVuSans-58" transform="translate(1305 0)"/>
     <use xlink:href="#DejaVuSans-5b" transform="translate(1368.375 0)"/>
     <use xlink:href="#DejaVuSans-48" transform="translate(1424.484375 0)"/>
     <use xlink:href="#DejaVuSans-56" transform="translate(1486.015625 0)"/>
    </g>
   </g>
   <g id="legend_1">
    <g id="patch_7">
     <path d="M 78.825648 79.770445 
L 129.878773 79.770445 
Q 131.878773 79.770445 131.878773 77.770445 
L 131.878773 33.768102 
Q 131.878773 31.768102 129.878773 31.768102 
L 78.825648 31.768102 
Q 76.825648 31.768102 76.825648 33.768102 
L 76.825648 77.770445 
Q 76.825648 79.770445 78.825648 79.770445 
z
" style="fill: #ffffff; opacity: 0.8; stroke: #cccccc; stroke-linejoin: miter"/>
    </g>
    <g id="line2d_19">
     <path d="M 80.825648 39.866539 
L 90.825648 39.866539 
L 100.825648 39.866539 
" style="fill: none; stroke: #1a75b5; stroke-width: 2; stroke-linecap: square"/>
    </g>
    <g id="text_12">
     <!-- PSI -->
     <g transform="translate(108.825648 43.366539) scale(0.1 -0.1)">
      <defs>
       <path id="DejaVuSans-36" d="M 3425 4513 
L 3425 3897 
Q 3066 4069 2747 4153 
Q 2428 4238 2131 4238 
Q 1616 4238 1336 4038 
Q 1056 3838 1056 3469 
Q 1056 3159 1242 3001 
Q 1428 2844 1947 2747 
L 2328 2669 
Q 3034 2534 3370 2195 
Q 3706 1856 3706 1288 
Q 3706 609 3251 259 
Q 2797 -91 1919 -91 
Q 1588 -91 1214 -16 
Q 841 59 441 206 
L 441 856 
Q 825 641 1194 531 
Q 1563 422 1919 422 
Q 2459 422 2753 634 
Q 3047 847 3047 1241 
Q 3047 1584 2836 1778 
Q 2625 1972 2144 2069 
L 1759 2144 
Q 1053 2284 737 2584 
Q 422 2884 422 3419 
Q 422 4038 858 4394 
Q 1294 4750 2059 4750 
Q 2388 4750 2728 4690 
Q 3069 4631 3425 4513 
z
" transform="scale(0.015625)"/>
       <path id="DejaVuSans-2c" d="M 628 4666 
L 1259 4666 
L 1259 0 
L 628 0 
L 628 4666 
z
" transform="scale(0.015625)"/>
      </defs>
      <use xlink:href="#DejaVuSans-33"/>
      <use xlink:href="#DejaVuSans-36" transform="translate(60.296875 0)"/>
      <use xlink:href="#DejaVuSans-2c" transform="translate(123.78125 0)"/>
     </g>
    </g>
    <g id="line2d_20">
     <path d="M 80.825648 54.86732 
L 90.825648 54.86732 
L 100.825648 54.86732 
" style="fill: none; stroke: #fc7f09; stroke-width: 2; stroke-linecap: square"/>
    </g>
    <g id="text_13">
     <!-- LEF -->
     <g transform="translate(108.825648 58.36732) scale(0.1 -0.1)">
      <defs>
       <path id="DejaVuSans-2f" d="M 628 4666 
L 1259 4666 
L 1259 531 
L 3531 531 
L 3531 0 
L 628 0 
L 628 4666 
z
" transform="scale(0.015625)"/>
      </defs>
      <use xlink:href="#DejaVuSans-2f"/>
      <use xlink:href="#DejaVuSans-28" transform="translate(55.71875 0)"/>
      <use xlink:href="#DejaVuSans-29" transform="translate(118.90625 0)"/>
     </g>
    </g>
    <g id="line2d_21">
     <path d="M 80.825648 69.868102 
L 90.825648 69.868102 
L 100.825648 69.868102 
" style="fill: none; stroke: #269b2a; stroke-width: 2; stroke-linecap: square"/>
    </g>
    <g id="text_14">
     <!-- CEF -->
     <g transform="translate(108.825648 73.368102) scale(0.1 -0.1)">
      <use xlink:href="#DejaVuSans-26"/>
      <use xlink:href="#DejaVuSans-28" transform="translate(69.828125 0)"/>
      <use xlink:href="#DejaVuSans-29" transform="translate(133.015625 0)"/>
     </g>
    </g>
   </g>
  </g>
  <g id="axes_2">
   <g id="patch_8">
    <path d="M 71.825648 386.889273 
L 502.663305 386.889273 
L 502.663305 223.45693 
L 71.825648 223.45693 
z
" style="fill: #ffffff"/>
   </g>
   <g id="matplotlib.axis_3">
    <g id="xtick_8">
     <g id="line2d_22">
      <g>
       <use xlink:href="#m15e4667cbd" x="91.409178" y="386.889273" style="stroke: #000000; stroke-width: 0.8"/>
      </g>
     </g>
     <g id="text_15">
      <!-- −3 -->
      <g transform="translate(84.038085 401.48693) scale(0.1 -0.1)">
       <use xlink:href="#DejaVuSans-c9c"/>
       <use xlink:href="#DejaVuSans-16" transform="translate(83.796875 0)"/>
      </g>
     </g>
    </g>
    <g id="xtick_9">
     <g id="line2d_23">
      <g>
       <use xlink:href="#m15e4667cbd" x="156.687611" y="386.889273" style="stroke: #000000; stroke-width: 0.8"/>
      </g>
     </g>
     <g id="text_16">
      <!-- −2 -->
      <g transform="translate(149.316517 401.48693) scale(0.1 -0.1)">
       <use xlink:href="#DejaVuSans-c9c"/>
       <use xlink:href="#DejaVuSans-15" transform="translate(83.796875 0)"/>
      </g>
     </g>
    </g>
    <g id="xtick_10">
     <g id="line2d_24">
      <g>
       <use xlink:href="#m15e4667cbd" x="221.966044" y="386.889273" style="stroke: #000000; stroke-width: 0.8"/>
      </g>
     </g>
     <g id="text_17">
      <!-- −1 -->
      <g transform="translate(214.59495 401.48693) scale(0.1 -0.1)">
       <use xlink:href="#DejaVuSans-c9c"/>
       <use xlink:href="#DejaVuSans-14" transform="translate(83.796875 0)"/>
      </g>
     </g>
    </g>
    <g id="xtick_11">
     <g id="line2d_25">
      <g>
       <use xlink:href="#m15e4667cbd" x="287.244477" y="386.889273" style="stroke: #000000; stroke-width: 0.8"/>
      </g>
     </g>
     <g id="text_18">
      <!-- 0 -->
      <g transform="translate(284.063227 401.48693) scale(0.1 -0.1)">
       <use xlink:href="#DejaVuSans-13"/>
      </g>
     </g>
    </g>
    <g id="xtick_12">
     <g id="line2d_26">
      <g>
       <use xlink:href="#m15e4667cbd" x="352.522909" y="386.889273" style="stroke: #000000; stroke-width: 0.8"/>
      </g>
     </g>
     <g id="text_19">
      <!-- 1 -->
      <g transform="translate(349.341659 401.48693) scale(0.1 -0.1)">
       <use xlink:href="#DejaVuSans-14"/>
      </g>
     </g>
    </g>
    <g id="xtick_13">
     <g id="line2d_27">
      <g>
       <use xlink:href="#m15e4667cbd" x="417.801342" y="386.889273" style="stroke: #000000; stroke-width: 0.8"/>
      </g>
     </g>
     <g id="text_20">
      <!-- 2 -->
      <g transform="translate(414.620092 401.48693) scale(0.1 -0.1)">
       <use xlink:href="#DejaVuSans-15"/>
      </g>
     </g>
    </g>
    <g id="xtick_14">
     <g id="line2d_28">
      <g>
       <use xlink:href="#m15e4667cbd" x="483.079775" y="386.889273" style="stroke: #000000; stroke-width: 0.8"/>
      </g>
     </g>
     <g id="text_21">
      <!-- 3 -->
      <g transform="translate(479.898525 401.48693) scale(0.1 -0.1)">
       <use xlink:href="#DejaVuSans-16"/>
      </g>
     </g>
    </g>
    <g id="text_22">
     <!-- log$_2$-fold change in PRG5 activity -->
     <g transform="translate(204.694477 415.489273) scale(0.1 -0.1)">
      <defs>
       <path id="DejaVuSans-4a" d="M 2906 1791 
Q 2906 2416 2648 2759 
Q 2391 3103 1925 3103 
Q 1463 3103 1205 2759 
Q 947 2416 947 1791 
Q 947 1169 1205 825 
Q 1463 481 1925 481 
Q 2391 481 2648 825 
Q 2906 1169 2906 1791 
z
M 3481 434 
Q 3481 -459 3084 -895 
Q 2688 -1331 1869 -1331 
Q 1566 -1331 1297 -1286 
Q 1028 -1241 775 -1147 
L 775 -588 
Q 1028 -725 1275 -790 
Q 1522 -856 1778 -856 
Q 2344 -856 2625 -561 
Q 2906 -266 2906 331 
L 2906 616 
Q 2728 306 2450 153 
Q 2172 0 1784 0 
Q 1141 0 747 490 
Q 353 981 353 1791 
Q 353 2603 747 3093 
Q 1141 3584 1784 3584 
Q 2172 3584 2450 3431 
Q 2728 3278 2906 2969 
L 2906 3500 
L 3481 3500 
L 3481 434 
z
" transform="scale(0.015625)"/>
       <path id="DejaVuSans-10" d="M 313 2009 
L 1997 2009 
L 1997 1497 
L 313 1497 
L 313 2009 
z
" transform="scale(0.015625)"/>
       <path id="DejaVuSans-49" d="M 2375 4863 
L 2375 4384 
L 1825 4384 
Q 1516 4384 1395 4259 
Q 1275 4134 1275 3809 
L 1275 3500 
L 2222 3500 
L 2222 3053 
L 1275 3053 
L 1275 0 
L 697 0 
L 697 3053 
L 147 3053 
L 147 3500 
L 697 3500 
L 697 3744 
Q 697 4328 969 4595 
Q 1241 4863 1831 4863 
L 2375 4863 
z
" transform="scale(0.015625)"/>
       <path id="DejaVuSans-47" d="M 2906 2969 
L 2906 4863 
L 3481 4863 
L 3481 0 
L 2906 0 
L 2906 525 
Q 2725 213 2448 61 
Q 2172 -91 1784 -91 
Q 1150 -91 751 415 
Q 353 922 353 1747 
Q 353 2572 751 3078 
Q 1150 3584 1784 3584 
Q 2172 3584 2448 3432 
Q 2725 3281 2906 2969 
z
M 947 1747 
Q 947 1113 1208 752 
Q 1469 391 1925 391 
Q 2381 391 2643 752 
Q 2906 1113 2906 1747 
Q 2906 2381 2643 2742 
Q 2381 3103 1925 3103 
Q 1469 3103 1208 2742 
Q 947 2381 947 1747 
z
" transform="scale(0.015625)"/>
       <path id="DejaVuSans-44" d="M 2194 1759 
Q 1497 1759 1228 1600 
Q 959 1441 959 1056 
Q 959 750 1161 570 
Q 1363 391 1709 391 
Q 2188 391 2477 730 
Q 2766 1069 2766 1631 
L 2766 1759 
L 2194 1759 
z
M 3341 1997 
L 3341 0 
L 2766 0 
L 2766 531 
Q 2569 213 2275 61 
Q 1981 -91 1556 -91 
Q 1019 -91 701 211 
Q 384 513 384 1019 
Q 384 1609 779 1909 
Q 1175 2209 1959 2209 
L 2766 2209 
L 2766 2266 
Q 2766 2663 2505 2880 
Q 2244 3097 1772 3097 
Q 1472 3097 1187 3025 
Q 903 2953 641 2809 
L 641 3341 
Q 956 3463 1253 3523 
Q 1550 3584 1831 3584 
Q 2591 3584 2966 3190 
Q 3341 2797 3341 1997 
z
" transform="scale(0.015625)"/>
       <path id="DejaVuSans-35" d="M 2841 2188 
Q 3044 2119 3236 1894 
Q 3428 1669 3622 1275 
L 4263 0 
L 3584 0 
L 2988 1197 
Q 2756 1666 2539 1819 
Q 2322 1972 1947 1972 
L 1259 1972 
L 1259 0 
L 628 0 
L 628 4666 
L 2053 4666 
Q 2853 4666 3247 4331 
Q 3641 3997 3641 3322 
Q 3641 2881 3436 2590 
Q 3231 2300 2841 2188 
z
M 1259 4147 
L 1259 2491 
L 2053 2491 
Q 2509 2491 2742 2702 
Q 2975 2913 2975 3322 
Q 2975 3731 2742 3939 
Q 2509 4147 2053 4147 
L 1259 4147 
z
" transform="scale(0.015625)"/>
       <path id="DejaVuSans-2a" d="M 3809 666 
L 3809 1919 
L 2778 1919 
L 2778 2438 
L 4434 2438 
L 4434 434 
Q 4069 175 3628 42 
Q 3188 -91 2688 -91 
Q 1594 -91 976 548 
Q 359 1188 359 2328 
Q 359 3472 976 4111 
Q 1594 4750 2688 4750 
Q 3144 4750 3555 4637 
Q 3966 4525 4313 4306 
L 4313 3634 
Q 3963 3931 3569 4081 
Q 3175 4231 2741 4231 
Q 1884 4231 1454 3753 
Q 1025 3275 1025 2328 
Q 1025 1384 1454 906 
Q 1884 428 2741 428 
Q 3075 428 3337 486 
Q 3600 544 3809 666 
z
" transform="scale(0.015625)"/>
       <path id="DejaVuSans-59" d="M 191 3500 
L 800 3500 
L 1894 563 
L 2988 3500 
L 3597 3500 
L 2284 0 
L 1503 0 
L 191 3500 
z
" transform="scale(0.015625)"/>
      </defs>
      <use xlink:href="#DejaVuSans-4f" transform="translate(0 0.015625)"/>
      <use xlink:href="#DejaVuSans-52" transform="translate(27.783203 0.015625)"/>
      <use xlink:href="#DejaVuSans-4a" transform="translate(88.964844 0.015625)"/>
      <use xlink:href="#DejaVuSans-15" transform="translate(153.398438 -14.984326) scale(0.7)"/>
      <use xlink:href="#DejaVuSans-10" transform="translate(200.668945 0.015625)"/>
      <use xlink:href="#DejaVuSans-49" transform="translate(236.75293 0.015625)"/>
      <use xlink:href="#DejaVuSans-52" transform="translate(271.958008 0.015625)"/>
      <use xlink:href="#DejaVuSans-4f" transform="translate(333.139648 0.015625)"/>
      <use xlink:href="#DejaVuSans-47" transform="translate(360.922852 0.015625)"/>
      <use xlink:href="#DejaVuSans-3" transform="translate(424.399414 0.015625)"/>
      <use xlink:href="#DejaVuSans-46" transform="translate(456.186523 0.015625)"/>
      <use xlink:href="#DejaVuSans-4b" transform="translate(511.166992 0.015625)"/>
      <use xlink:href="#DejaVuSans-44" transform="translate(574.545898 0.015625)"/>
      <use xlink:href="#DejaVuSans-51" transform="translate(635.825195 0.015625)"/>
      <use xlink:href="#DejaVuSans-4a" transform="translate(699.204102 0.015625)"/>
      <use xlink:href="#DejaVuSans-48" transform="translate(762.680664 0.015625)"/>
      <use xlink:href="#DejaVuSans-3" transform="translate(824.204102 0.015625)"/>
      <use xlink:href="#DejaVuSans-4c" transform="translate(855.991211 0.015625)"/>
      <use xlink:href="#DejaVuSans-51" transform="translate(883.774414 0.015625)"/>
      <use xlink:href="#DejaVuSans-3" transform="translate(947.15332 0.015625)"/>
      <use xlink:href="#DejaVuSans-33" transform="translate(978.94043 0.015625)"/>
      <use xlink:href="#DejaVuSans-35" transform="translate(1039.243164 0.015625)"/>
      <use xlink:href="#DejaVuSans-2a" transform="translate(1108.725586 0.015625)"/>
      <use xlink:href="#DejaVuSans-18" transform="translate(1186.21582 0.015625)"/>
      <use xlink:href="#DejaVuSans-3" transform="translate(1249.838867 0.015625)"/>
      <use xlink:href="#DejaVuSans-44" transform="translate(1281.625977 0.015625)"/>
      <use xlink:href="#DejaVuSans-46" transform="translate(1342.905273 0.015625)"/>
      <use xlink:href="#DejaVuSans-57" transform="translate(1397.885742 0.015625)"/>
      <use xlink:href="#DejaVuSans-4c" transform="translate(1437.094727 0.015625)"/>
      <use xlink:href="#DejaVuSans-59" transform="translate(1464.87793 0.015625)"/>
      <use xlink:href="#DejaVuSans-4c" transform="translate(1524.057617 0.015625)"/>
      <use xlink:href="#DejaVuSans-57" transform="translate(1551.84082 0.015625)"/>
      <use xlink:href="#DejaVuSans-5c" transform="translate(1591.049805 0.015625)"/>
     </g>
    </g>
   </g>
   <g id="matplotlib.axis_4">
    <g id="ytick_9">
     <g id="line2d_29">
      <g>
       <use xlink:href="#m8139a99996" x="71.825648" y="384.395575" style="stroke: #000000; stroke-width: 0.8"/>
      </g>
     </g>
     <g id="text_23">
      <!-- 0.0 -->
      <g transform="translate(48.922523 388.194403) scale(0.1 -0.1)">
       <defs>
        <path id="DejaVuSans-11" d="M 684 794 
L 1344 794 
L 1344 0 
L 684 0 
L 684 794 
z
" transform="scale(0.015625)"/>
       </defs>
       <use xlink:href="#DejaVuSans-13"/>
       <use xlink:href="#DejaVuSans-11" transform="translate(63.625 0)"/>
       <use xlink:href="#DejaVuSans-13" transform="translate(95.40625 0)"/>
      </g>
     </g>
    </g>
    <g id="ytick_10">
     <g id="line2d_30">
      <g>
       <use xlink:href="#m8139a99996" x="71.825648" y="353.675469" style="stroke: #000000; stroke-width: 0.8"/>
      </g>
     </g>
     <g id="text_24">
      <!-- 0.2 -->
      <g transform="translate(48.922523 357.474297) scale(0.1 -0.1)">
       <use xlink:href="#DejaVuSans-13"/>
       <use xlink:href="#DejaVuSans-11" transform="translate(63.625 0)"/>
       <use xlink:href="#DejaVuSans-15" transform="translate(95.40625 0)"/>
      </g>
     </g>
    </g>
    <g id="ytick_11">
     <g id="line2d_31">
      <g>
       <use xlink:href="#m8139a99996" x="71.825648" y="322.955363" style="stroke: #000000; stroke-width: 0.8"/>
      </g>
     </g>
     <g id="text_25">
      <!-- 0.4 -->
      <g transform="translate(48.922523 326.754191) scale(0.1 -0.1)">
       <use xlink:href="#DejaVuSans-13"/>
       <use xlink:href="#DejaVuSans-11" transform="translate(63.625 0)"/>
       <use xlink:href="#DejaVuSans-17" transform="translate(95.40625 0)"/>
      </g>
     </g>
    </g>
    <g id="ytick_12">
     <g id="line2d_32">
      <g>
       <use xlink:href="#m8139a99996" x="71.825648" y="292.235257" style="stroke: #000000; stroke-width: 0.8"/>
      </g>
     </g>
     <g id="text_26">
      <!-- 0.6 -->
      <g transform="translate(48.922523 296.034085) scale(0.1 -0.1)">
       <use xlink:href="#DejaVuSans-13"/>
       <use xlink:href="#DejaVuSans-11" transform="translate(63.625 0)"/>
       <use xlink:href="#DejaVuSans-19" transform="translate(95.40625 0)"/>
      </g>
     </g>
    </g>
    <g id="ytick_13">
     <g id="line2d_33">
      <g>
       <use xlink:href="#m8139a99996" x="71.825648" y="261.515151" style="stroke: #000000; stroke-width: 0.8"/>
      </g>
     </g>
     <g id="text_27">
      <!-- 0.8 -->
      <g transform="translate(48.922523 265.313979) scale(0.1 -0.1)">
       <defs>
        <path id="DejaVuSans-1b" d="M 2034 2216 
Q 1584 2216 1326 1975 
Q 1069 1734 1069 1313 
Q 1069 891 1326 650 
Q 1584 409 2034 409 
Q 2484 409 2743 651 
Q 3003 894 3003 1313 
Q 3003 1734 2745 1975 
Q 2488 2216 2034 2216 
z
M 1403 2484 
Q 997 2584 770 2862 
Q 544 3141 544 3541 
Q 544 4100 942 4425 
Q 1341 4750 2034 4750 
Q 2731 4750 3128 4425 
Q 3525 4100 3525 3541 
Q 3525 3141 3298 2862 
Q 3072 2584 2669 2484 
Q 3125 2378 3379 2068 
Q 3634 1759 3634 1313 
Q 3634 634 3220 271 
Q 2806 -91 2034 -91 
Q 1263 -91 848 271 
Q 434 634 434 1313 
Q 434 1759 690 2068 
Q 947 2378 1403 2484 
z
M 1172 3481 
Q 1172 3119 1398 2916 
Q 1625 2713 2034 2713 
Q 2441 2713 2670 2916 
Q 2900 3119 2900 3481 
Q 2900 3844 2670 4047 
Q 2441 4250 2034 4250 
Q 1625 4250 1398 4047 
Q 1172 3844 1172 3481 
z
" transform="scale(0.015625)"/>
       </defs>
       <use xlink:href="#DejaVuSans-13"/>
       <use xlink:href="#DejaVuSans-11" transform="translate(63.625 0)"/>
       <use xlink:href="#DejaVuSans-1b" transform="translate(95.40625 0)"/>
      </g>
     </g>
    </g>
    <g id="ytick_14">
     <g id="line2d_34">
      <g>
       <use xlink:href="#m8139a99996" x="71.825648" y="230.795045" style="stroke: #000000; stroke-width: 0.8"/>
      </g>
     </g>
     <g id="text_28">
      <!-- 1.0 -->
      <g transform="translate(48.922523 234.593873) scale(0.1 -0.1)">
       <use xlink:href="#DejaVuSans-14"/>
       <use xlink:href="#DejaVuSans-11" transform="translate(63.625 0)"/>
       <use xlink:href="#DejaVuSans-13" transform="translate(95.40625 0)"/>
      </g>
     </g>
    </g>
    <g id="text_29">
     <!-- Fraction of the pool -->
     <g transform="translate(42.52018 353.605133) rotate(-90) scale(0.1 -0.1)">
      <defs>
       <path id="DejaVuSans-53" d="M 1159 525 
L 1159 -1331 
L 581 -1331 
L 581 3500 
L 1159 3500 
L 1159 2969 
Q 1341 3281 1617 3432 
Q 1894 3584 2278 3584 
Q 2916 3584 3314 3078 
Q 3713 2572 3713 1747 
Q 3713 922 3314 415 
Q 2916 -91 2278 -91 
Q 1894 -91 1617 61 
Q 1341 213 1159 525 
z
M 3116 1747 
Q 3116 2381 2855 2742 
Q 2594 3103 2138 3103 
Q 1681 3103 1420 2742 
Q 1159 2381 1159 1747 
Q 1159 1113 1420 752 
Q 1681 391 2138 391 
Q 2594 391 2855 752 
Q 3116 1113 3116 1747 
z
" transform="scale(0.015625)"/>
      </defs>
      <use xlink:href="#DejaVuSans-29"/>
      <use xlink:href="#DejaVuSans-55" transform="translate(50.234375 0)"/>
      <use xlink:href="#DejaVuSans-44" transform="translate(91.34375 0)"/>
      <use xlink:href="#DejaVuSans-46" transform="translate(152.625 0)"/>
      <use xlink:href="#DejaVuSans-57" transform="translate(207.609375 0)"/>
      <use xlink:href="#DejaVuSans-4c" transform="translate(246.8125 0)"/>
      <use xlink:href="#DejaVuSans-52" transform="translate(274.59375 0)"/>
      <use xlink:href="#DejaVuSans-51" transform="translate(335.78125 0)"/>
      <use xlink:href="#DejaVuSans-3" transform="translate(399.15625 0)"/>
      <use xlink:href="#DejaVuSans-52" transform="translate(430.9375 0)"/>
      <use xlink:href="#DejaVuSans-49" transform="translate(492.125 0)"/>
      <use xlink:href="#DejaVuSans-3" transform="translate(527.328125 0)"/>
      <use xlink:href="#DejaVuSans-57" transform="translate(559.109375 0)"/>
      <use xlink:href="#DejaVuSans-4b" transform="translate(598.3125 0)"/>
      <use xlink:href="#DejaVuSans-48" transform="translate(661.6875 0)"/>
      <use xlink:href="#DejaVuSans-3" transform="translate(723.21875 0)"/>
      <use xlink:href="#DejaVuSans-53" transform="translate(755 0)"/>
      <use xlink:href="#DejaVuSans-52" transform="translate(818.484375 0)"/>
      <use xlink:href="#DejaVuSans-52" transform="translate(879.671875 0)"/>
      <use xlink:href="#DejaVuSans-4f" transform="translate(940.859375 0)"/>
     </g>
    </g>
   </g>
   <g id="line2d_35">
    <path d="M 91.409178 322.411337 
L 106.780352 321.417065 
L 120.025726 320.344717 
L 131.635868 319.188034 
L 141.937825 317.94089 
L 150.931597 316.633742 
L 158.94423 315.250993 
L 164.994586 314.037346 
L 171.535511 312.522838 
L 224.019894 284.915779 
L 227.238029 282.807783 
L 228.310741 282.174036 
L 249.764976 274.736424 
L 257.273958 272.985021 
L 261.564805 272.197818 
L 266.392007 271.559872 
L 271.755566 271.056904 
L 284.628107 270.540353 
L 304.473273 269.466112 
L 326.463864 268.047967 
L 350.063521 266.295417 
L 377.41767 264.032905 
L 433.735036 259.041521 
L 477.17986 255.324206 
L 483.079775 254.844976 
L 483.079775 254.844976 
" clip-path="url(#p62ccb9dfed)" style="fill: none; stroke: #1f77b4; stroke-width: 2; stroke-linecap: square"/>
   </g>
   <g id="line2d_36">
    <path d="M 91.409178 232.829199 
L 143.900102 233.144433 
L 171.535511 233.472829 
L 228.310741 235.109417 
L 250.301331 237.600843 
L 256.201246 238.739738 
L 261.028449 239.892962 
L 265.319296 241.137984 
L 269.610142 242.601969 
L 271.755566 243.383674 
L 278.191836 244.530892 
L 284.628107 246.06235 
L 292.673444 248.213093 
L 301.791494 250.883369 
L 311.982255 254.109026 
L 323.782084 258.103063 
L 336.118269 262.504945 
L 354.890724 269.478949 
L 392.97199 283.773325 
L 409.062666 289.589362 
L 415.498936 291.851563 
L 433.735036 298.027735 
L 444.998509 301.655349 
L 461.089185 306.575093 
L 475.570793 310.733442 
L 483.079775 312.789081 
L 483.079775 312.789081 
" clip-path="url(#p62ccb9dfed)" style="fill: none; stroke: #ff7f0e; stroke-width: 2; stroke-linecap: square"/>
   </g>
   <g id="line2d_37">
    <path d="M 91.409178 230.885673 
L 171.535511 230.982938 
L 224.019894 232.886566 
L 227.238029 233.674288 
L 228.310741 234.003339 
L 249.22862 246.16537 
L 255.66489 250.892517 
L 260.492093 254.707617 
L 265.319296 258.842289 
L 271.755566 264.587897 
L 277.65548 266.925242 
L 283.555395 269.812635 
L 301.255138 278.543734 
L 311.982255 283.55757 
L 322.709373 288.318529 
L 333.43649 292.827563 
L 343.627251 296.88566 
L 354.890724 301.127454 
L 364.54513 304.570392 
L 377.41767 308.900479 
L 392.97199 313.762389 
L 405.308175 317.351055 
L 415.498936 320.149105 
L 433.735036 324.806168 
L 444.998509 327.473164 
L 461.089185 331.0266 
L 477.17986 334.299801 
L 483.079775 335.434242 
L 483.079775 335.434242 
" clip-path="url(#p62ccb9dfed)" style="fill: none; stroke: #2da02d; stroke-width: 2; stroke-linecap: square"/>
   </g>
   <g id="line2d_38">
    <path d="M 91.409178 259.852593 
L 97.623057 260.203899 
L 97.78658 260.334138 
L 98.113627 260.232996 
L 113.484801 261.260183 
L 126.730174 262.361536 
L 138.503839 263.559715 
L 148.805796 264.825319 
L 158.126615 266.191769 
L 164.994586 267.364804 
L 169.246187 268.174636 
L 169.736757 268.455397 
L 169.90028 268.305497 
L 171.535511 268.640391 
L 224.019894 286.371852 
L 228.310741 287.499096 
L 250.837687 289.677238 
L 258.346669 290.202283 
L 263.173872 290.789384 
L 268.001075 291.608924 
L 272.291922 292.323541 
L 278.191836 291.861308 
L 289.455309 290.677153 
L 305.009629 288.812664 
L 322.173017 286.528818 
L 341.481828 283.729709 
L 364.54513 280.160287 
L 444.998509 267.471711 
L 473.425369 263.387208 
L 483.079775 262.074309 
L 483.079775 262.074309 
" clip-path="url(#p62ccb9dfed)" style="fill: none; stroke: #9467bd; stroke-width: 2; stroke-linecap: square"/>
   </g>
   <g id="line2d_39">
    <path d="M 91.409178 316.098334 
L 103.182843 317.511493 
L 113.811847 319.005398 
L 123.623235 320.606494 
L 132.617007 322.29902 
L 140.793163 324.060281 
L 148.315227 325.902458 
L 155.346721 327.850881 
L 161.724123 329.839439 
L 168.101525 332.073746 
L 169.246187 332.503817 
L 169.736757 332.850761 
L 169.90028 332.753809 
L 171.535511 333.392657 
L 224.019894 365.907726 
L 227.238029 367.488191 
L 228.310741 367.933053 
L 249.22862 371.239518 
L 261.564805 371.689669 
L 276.046413 372.091215 
L 286.237174 372.423178 
L 319.491237 373.797728 
L 386.53572 376.587927 
L 415.498936 377.620343 
L 461.089185 378.94512 
L 483.079775 379.460531 
L 483.079775 379.460531 
" clip-path="url(#p62ccb9dfed)" style="fill: none; stroke: #8c564b; stroke-width: 2; stroke-linecap: square"/>
   </g>
   <g id="patch_9">
    <path d="M 71.825648 386.889273 
L 71.825648 223.45693 
" style="fill: none; stroke: #000000; stroke-width: 0.8; stroke-linejoin: miter; stroke-linecap: square"/>
   </g>
   <g id="patch_10">
    <path d="M 502.663305 386.889273 
L 502.663305 223.45693 
" style="fill: none; stroke: #000000; stroke-width: 0.8; stroke-linejoin: miter; stroke-linecap: square"/>
   </g>
   <g id="patch_11">
    <path d="M 71.825648 386.889273 
L 502.663305 386.889273 
" style="fill: none; stroke: #000000; stroke-width: 0.8; stroke-linejoin: miter; stroke-linecap: square"/>
   </g>
   <g id="patch_12">
    <path d="M 71.825648 223.45693 
L 502.663305 223.45693 
" style="fill: none; stroke: #000000; stroke-width: 0.8; stroke-linejoin: miter; stroke-linecap: square"/>
   </g>
   <g id="text_30">
    <!-- B -->
    <g transform="translate(7.2 215.285312) scale(0.15 -0.15)">
     <defs>
      <path id="DejaVuSans-Bold-25" d="M 2456 2859 
Q 2741 2859 2887 2984 
Q 3034 3109 3034 3353 
Q 3034 3594 2887 3720 
Q 2741 3847 2456 3847 
L 1791 3847 
L 1791 2859 
L 2456 2859 
z
M 2497 819 
Q 2859 819 3042 972 
Q 3225 1125 3225 1434 
Q 3225 1738 3044 1889 
Q 2863 2041 2497 2041 
L 1791 2041 
L 1791 819 
L 2497 819 
z
M 3616 2497 
Q 4003 2384 4215 2081 
Q 4428 1778 4428 1338 
Q 4428 663 3972 331 
Q 3516 0 2584 0 
L 588 0 
L 588 4666 
L 2394 4666 
Q 3366 4666 3802 4372 
Q 4238 4078 4238 3431 
Q 4238 3091 4078 2852 
Q 3919 2613 3616 2497 
z
" transform="scale(0.015625)"/>
     </defs>
     <use xlink:href="#DejaVuSans-Bold-25"/>
    </g>
   </g>
   <g id="text_31">
    <!-- Energy and Redox Status -->
    <g transform="translate(211.670727 217.45693) scale(0.12 -0.12)">
     <use xlink:href="#DejaVuSans-28"/>
     <use xlink:href="#DejaVuSans-51" transform="translate(63.1875 0)"/>
     <use xlink:href="#DejaVuSans-48" transform="translate(126.5625 0)"/>
     <use xlink:href="#DejaVuSans-55" transform="translate(188.09375 0)"/>
     <use xlink:href="#DejaVuSans-4a" transform="translate(227.453125 0)"/>
     <use xlink:href="#DejaVuSans-5c" transform="translate(290.9375 0)"/>
     <use xlink:href="#DejaVuSans-3" transform="translate(350.125 0)"/>
     <use xlink:href="#DejaVuSans-44" transform="translate(381.90625 0)"/>
     <use xlink:href="#DejaVuSans-51" transform="translate(443.1875 0)"/>
     <use xlink:href="#DejaVuSans-47" transform="translate(506.5625 0)"/>
     <use xlink:href="#DejaVuSans-3" transform="translate(570.046875 0)"/>
     <use xlink:href="#DejaVuSans-35" transform="translate(601.828125 0)"/>
     <use xlink:href="#DejaVuSans-48" transform="translate(666.828125 0)"/>
     <use xlink:href="#DejaVuSans-47" transform="translate(728.359375 0)"/>
     <use xlink:href="#DejaVuSans-52" transform="translate(791.84375 0)"/>
     <use xlink:href="#DejaVuSans-5b" transform="translate(849.953125 0)"/>
     <use xlink:href="#DejaVuSans-3" transform="translate(909.140625 0)"/>
     <use xlink:href="#DejaVuSans-36" transform="translate(940.921875 0)"/>
     <use xlink:href="#DejaVuSans-57" transform="translate(1004.40625 0)"/>
     <use xlink:href="#DejaVuSans-44" transform="translate(1043.609375 0)"/>
     <use xlink:href="#DejaVuSans-57" transform="translate(1104.890625 0)"/>
     <use xlink:href="#DejaVuSans-58" transform="translate(1144.09375 0)"/>
     <use xlink:href="#DejaVuSans-56" transform="translate(1207.46875 0)"/>
    </g>
   </g>
   <g id="legend_2">
    <g id="patch_13">
     <path d="M 78.825648 306.460836 
L 146.397523 306.460836 
Q 148.397523 306.460836 148.397523 304.460836 
L 148.397523 230.45693 
Q 148.397523 228.45693 146.397523 228.45693 
L 78.825648 228.45693 
Q 76.825648 228.45693 76.825648 230.45693 
L 76.825648 304.460836 
Q 76.825648 306.460836 78.825648 306.460836 
z
" style="fill: #ffffff; opacity: 0.8; stroke: #cccccc; stroke-linejoin: miter"/>
    </g>
    <g id="line2d_40">
     <path d="M 80.825648 236.555367 
L 90.825648 236.555367 
L 100.825648 236.555367 
" style="fill: none; stroke: #1f77b4; stroke-width: 2; stroke-linecap: square"/>
    </g>
    <g id="text_32">
     <!-- ATP -->
     <g transform="translate(108.825648 240.055367) scale(0.1 -0.1)">
      <defs>
       <path id="DejaVuSans-24" d="M 2188 4044 
L 1331 1722 
L 3047 1722 
L 2188 4044 
z
M 1831 4666 
L 2547 4666 
L 4325 0 
L 3669 0 
L 3244 1197 
L 1141 1197 
L 716 0 
L 50 0 
L 1831 4666 
z
" transform="scale(0.015625)"/>
       <path id="DejaVuSans-37" d="M -19 4666 
L 3928 4666 
L 3928 4134 
L 2272 4134 
L 2272 0 
L 1638 0 
L 1638 4134 
L -19 4134 
L -19 4666 
z
" transform="scale(0.015625)"/>
      </defs>
      <use xlink:href="#DejaVuSans-24"/>
      <use xlink:href="#DejaVuSans-37" transform="translate(60.640625 0)"/>
      <use xlink:href="#DejaVuSans-33" transform="translate(121.71875 0)"/>
     </g>
    </g>
    <g id="line2d_41">
     <path d="M 80.825648 251.556148 
L 90.825648 251.556148 
L 100.825648 251.556148 
" style="fill: none; stroke: #ff7f0e; stroke-width: 2; stroke-linecap: square"/>
    </g>
    <g id="text_33">
     <!-- NADPH -->
     <g transform="translate(108.825648 255.056148) scale(0.1 -0.1)">
      <defs>
       <path id="DejaVuSans-31" d="M 628 4666 
L 1478 4666 
L 3547 763 
L 3547 4666 
L 4159 4666 
L 4159 0 
L 3309 0 
L 1241 3903 
L 1241 0 
L 628 0 
L 628 4666 
z
" transform="scale(0.015625)"/>
       <path id="DejaVuSans-27" d="M 1259 4147 
L 1259 519 
L 2022 519 
Q 2988 519 3436 956 
Q 3884 1394 3884 2338 
Q 3884 3275 3436 3711 
Q 2988 4147 2022 4147 
L 1259 4147 
z
M 628 4666 
L 1925 4666 
Q 3281 4666 3915 4102 
Q 4550 3538 4550 2338 
Q 4550 1131 3912 565 
Q 3275 0 1925 0 
L 628 0 
L 628 4666 
z
" transform="scale(0.015625)"/>
       <path id="DejaVuSans-2b" d="M 628 4666 
L 1259 4666 
L 1259 2753 
L 3553 2753 
L 3553 4666 
L 4184 4666 
L 4184 0 
L 3553 0 
L 3553 2222 
L 1259 2222 
L 1259 0 
L 628 0 
L 628 4666 
z
" transform="scale(0.015625)"/>
      </defs>
      <use xlink:href="#DejaVuSans-31"/>
      <use xlink:href="#DejaVuSans-24" transform="translate(74.8125 0)"/>
      <use xlink:href="#DejaVuSans-27" transform="translate(143.21875 0)"/>
      <use xlink:href="#DejaVuSans-33" transform="translate(220.21875 0)"/>
      <use xlink:href="#DejaVuSans-2b" transform="translate(280.515625 0)"/>
     </g>
    </g>
    <g id="line2d_42">
     <path d="M 80.825648 266.55693 
L 90.825648 266.55693 
L 100.825648 266.55693 
" style="fill: none; stroke: #2da02d; stroke-width: 2; stroke-linecap: square"/>
    </g>
    <g id="text_34">
     <!-- Fdred -->
     <g transform="translate(108.825648 270.05693) scale(0.1 -0.1)">
      <use xlink:href="#DejaVuSans-29"/>
      <use xlink:href="#DejaVuSans-47" transform="translate(57.515625 0)"/>
      <use xlink:href="#DejaVuSans-55" transform="translate(121 0)"/>
      <use xlink:href="#DejaVuSans-48" transform="translate(159.90625 0)"/>
      <use xlink:href="#DejaVuSans-47" transform="translate(221.4375 0)"/>
     </g>
    </g>
    <g id="line2d_43">
     <path d="M 80.825648 281.557711 
L 90.825648 281.557711 
L 100.825648 281.557711 
" style="fill: none; stroke: #9467bd; stroke-width: 2; stroke-linecap: square"/>
    </g>
    <g id="text_35">
     <!-- PQred -->
     <g transform="translate(108.825648 285.057711) scale(0.1 -0.1)">
      <defs>
       <path id="DejaVuSans-34" d="M 2522 4238 
Q 1834 4238 1429 3725 
Q 1025 3213 1025 2328 
Q 1025 1447 1429 934 
Q 1834 422 2522 422 
Q 3209 422 3611 934 
Q 4013 1447 4013 2328 
Q 4013 3213 3611 3725 
Q 3209 4238 2522 4238 
z
M 3406 84 
L 4238 -825 
L 3475 -825 
L 2784 -78 
Q 2681 -84 2626 -87 
Q 2572 -91 2522 -91 
Q 1538 -91 948 567 
Q 359 1225 359 2328 
Q 359 3434 948 4092 
Q 1538 4750 2522 4750 
Q 3503 4750 4090 4092 
Q 4678 3434 4678 2328 
Q 4678 1516 4351 937 
Q 4025 359 3406 84 
z
" transform="scale(0.015625)"/>
      </defs>
      <use xlink:href="#DejaVuSans-33"/>
      <use xlink:href="#DejaVuSans-34" transform="translate(60.296875 0)"/>
      <use xlink:href="#DejaVuSans-55" transform="translate(139.015625 0)"/>
      <use xlink:href="#DejaVuSans-48" transform="translate(177.921875 0)"/>
      <use xlink:href="#DejaVuSans-47" transform="translate(239.453125 0)"/>
     </g>
    </g>
    <g id="line2d_44">
     <path d="M 80.825648 296.558492 
L 90.825648 296.558492 
L 100.825648 296.558492 
" style="fill: none; stroke: #8c564b; stroke-width: 2; stroke-linecap: square"/>
    </g>
    <g id="text_36">
     <!-- PCred -->
     <g transform="translate(108.825648 300.058492) scale(0.1 -0.1)">
      <use xlink:href="#DejaVuSans-33"/>
      <use xlink:href="#DejaVuSans-26" transform="translate(60.296875 0)"/>
      <use xlink:href="#DejaVuSans-55" transform="translate(130.125 0)"/>
      <use xlink:href="#DejaVuSans-48" transform="translate(169.03125 0)"/>
      <use xlink:href="#DejaVuSans-47" transform="translate(230.5625 0)"/>
     </g>
    </g>
   </g>
  </g>
  <g id="axes_3">
   <g id="matplotlib.axis_5">
    <g id="ytick_15">
     <g id="line2d_45">
      <defs>
       <path id="m7d3f544c1d" d="M 0 0 
L 3.5 0 
" style="stroke: #ff0000; stroke-width: 0.8"/>
      </defs>
      <g>
       <use xlink:href="#m7d3f544c1d" x="502.663305" y="183.4309" style="fill: #ff0000; stroke: #ff0000; stroke-width: 0.8"/>
      </g>
     </g>
     <g id="text_37">
      <!-- 0.0000 -->
      <g style="fill: #ff0000" transform="translate(509.663305 187.229728) scale(0.1 -0.1)">
       <use xlink:href="#DejaVuSans-13"/>
       <use xlink:href="#DejaVuSans-11" transform="translate(63.625 0)"/>
       <use xlink:href="#DejaVuSans-13" transform="translate(95.40625 0)"/>
       <use xlink:href="#DejaVuSans-13" transform="translate(159.03125 0)"/>
       <use xlink:href="#DejaVuSans-13" transform="translate(222.65625 0)"/>
       <use xlink:href="#DejaVuSans-13" transform="translate(286.28125 0)"/>
      </g>
     </g>
    </g>
    <g id="ytick_16">
     <g id="line2d_46">
      <g>
       <use xlink:href="#m7d3f544c1d" x="502.663305" y="162.136882" style="fill: #ff0000; stroke: #ff0000; stroke-width: 0.8"/>
      </g>
     </g>
     <g id="text_38">
      <!-- 0.0001 -->
      <g style="fill: #ff0000" transform="translate(509.663305 165.93571) scale(0.1 -0.1)">
       <use xlink:href="#DejaVuSans-13"/>
       <use xlink:href="#DejaVuSans-11" transform="translate(63.625 0)"/>
       <use xlink:href="#DejaVuSans-13" transform="translate(95.40625 0)"/>
       <use xlink:href="#DejaVuSans-13" transform="translate(159.03125 0)"/>
       <use xlink:href="#DejaVuSans-13" transform="translate(222.65625 0)"/>
       <use xlink:href="#DejaVuSans-14" transform="translate(286.28125 0)"/>
      </g>
     </g>
    </g>
    <g id="ytick_17">
     <g id="line2d_47">
      <g>
       <use xlink:href="#m7d3f544c1d" x="502.663305" y="140.842863" style="fill: #ff0000; stroke: #ff0000; stroke-width: 0.8"/>
      </g>
     </g>
     <g id="text_39">
      <!-- 0.0002 -->
      <g style="fill: #ff0000" transform="translate(509.663305 144.641691) scale(0.1 -0.1)">
       <use xlink:href="#DejaVuSans-13"/>
       <use xlink:href="#DejaVuSans-11" transform="translate(63.625 0)"/>
       <use xlink:href="#DejaVuSans-13" transform="translate(95.40625 0)"/>
       <use xlink:href="#DejaVuSans-13" transform="translate(159.03125 0)"/>
       <use xlink:href="#DejaVuSans-13" transform="translate(222.65625 0)"/>
       <use xlink:href="#DejaVuSans-15" transform="translate(286.28125 0)"/>
      </g>
     </g>
    </g>
    <g id="ytick_18">
     <g id="line2d_48">
      <g>
       <use xlink:href="#m7d3f544c1d" x="502.663305" y="119.548845" style="fill: #ff0000; stroke: #ff0000; stroke-width: 0.8"/>
      </g>
     </g>
     <g id="text_40">
      <!-- 0.0003 -->
      <g style="fill: #ff0000" transform="translate(509.663305 123.347673) scale(0.1 -0.1)">
       <use xlink:href="#DejaVuSans-13"/>
       <use xlink:href="#DejaVuSans-11" transform="translate(63.625 0)"/>
       <use xlink:href="#DejaVuSans-13" transform="translate(95.40625 0)"/>
       <use xlink:href="#DejaVuSans-13" transform="translate(159.03125 0)"/>
       <use xlink:href="#DejaVuSans-13" transform="translate(222.65625 0)"/>
       <use xlink:href="#DejaVuSans-16" transform="translate(286.28125 0)"/>
      </g>
     </g>
    </g>
    <g id="ytick_19">
     <g id="line2d_49">
      <g>
       <use xlink:href="#m7d3f544c1d" x="502.663305" y="98.254826" style="fill: #ff0000; stroke: #ff0000; stroke-width: 0.8"/>
      </g>
     </g>
     <g id="text_41">
      <!-- 0.0004 -->
      <g style="fill: #ff0000" transform="translate(509.663305 102.053654) scale(0.1 -0.1)">
       <use xlink:href="#DejaVuSans-13"/>
       <use xlink:href="#DejaVuSans-11" transform="translate(63.625 0)"/>
       <use xlink:href="#DejaVuSans-13" transform="translate(95.40625 0)"/>
       <use xlink:href="#DejaVuSans-13" transform="translate(159.03125 0)"/>
       <use xlink:href="#DejaVuSans-13" transform="translate(222.65625 0)"/>
       <use xlink:href="#DejaVuSans-17" transform="translate(286.28125 0)"/>
      </g>
     </g>
    </g>
    <g id="ytick_20">
     <g id="line2d_50">
      <g>
       <use xlink:href="#m7d3f544c1d" x="502.663305" y="76.960808" style="fill: #ff0000; stroke: #ff0000; stroke-width: 0.8"/>
      </g>
     </g>
     <g id="text_42">
      <!-- 0.0005 -->
      <g style="fill: #ff0000" transform="translate(509.663305 80.759636) scale(0.1 -0.1)">
       <use xlink:href="#DejaVuSans-13"/>
       <use xlink:href="#DejaVuSans-11" transform="translate(63.625 0)"/>
       <use xlink:href="#DejaVuSans-13" transform="translate(95.40625 0)"/>
       <use xlink:href="#DejaVuSans-13" transform="translate(159.03125 0)"/>
       <use xlink:href="#DejaVuSans-13" transform="translate(222.65625 0)"/>
       <use xlink:href="#DejaVuSans-18" transform="translate(286.28125 0)"/>
      </g>
     </g>
    </g>
    <g id="ytick_21">
     <g id="line2d_51">
      <g>
       <use xlink:href="#m7d3f544c1d" x="502.663305" y="55.666789" style="fill: #ff0000; stroke: #ff0000; stroke-width: 0.8"/>
      </g>
     </g>
     <g id="text_43">
      <!-- 0.0006 -->
      <g style="fill: #ff0000" transform="translate(509.663305 59.465617) scale(0.1 -0.1)">
       <use xlink:href="#DejaVuSans-13"/>
       <use xlink:href="#DejaVuSans-11" transform="translate(63.625 0)"/>
       <use xlink:href="#DejaVuSans-13" transform="translate(95.40625 0)"/>
       <use xlink:href="#DejaVuSans-13" transform="translate(159.03125 0)"/>
       <use xlink:href="#DejaVuSans-13" transform="translate(222.65625 0)"/>
       <use xlink:href="#DejaVuSans-19" transform="translate(286.28125 0)"/>
      </g>
     </g>
    </g>
    <g id="ytick_22">
     <g id="line2d_52">
      <g>
       <use xlink:href="#m7d3f544c1d" x="502.663305" y="34.372771" style="fill: #ff0000; stroke: #ff0000; stroke-width: 0.8"/>
      </g>
     </g>
     <g id="text_44">
      <!-- 0.0007 -->
      <g style="fill: #ff0000" transform="translate(509.663305 38.171599) scale(0.1 -0.1)">
       <use xlink:href="#DejaVuSans-13"/>
       <use xlink:href="#DejaVuSans-11" transform="translate(63.625 0)"/>
       <use xlink:href="#DejaVuSans-13" transform="translate(95.40625 0)"/>
       <use xlink:href="#DejaVuSans-13" transform="translate(159.03125 0)"/>
       <use xlink:href="#DejaVuSans-13" transform="translate(222.65625 0)"/>
       <use xlink:href="#DejaVuSans-1a" transform="translate(286.28125 0)"/>
      </g>
     </g>
    </g>
    <g id="text_45">
     <!-- H$_2$O$_2$ / µM -->
     <g style="fill: #ff0000" transform="translate(556.251586 133.384273) rotate(-90) scale(0.1 -0.1)">
      <defs>
       <path id="DejaVuSans-32" d="M 2522 4238 
Q 1834 4238 1429 3725 
Q 1025 3213 1025 2328 
Q 1025 1447 1429 934 
Q 1834 422 2522 422 
Q 3209 422 3611 934 
Q 4013 1447 4013 2328 
Q 4013 3213 3611 3725 
Q 3209 4238 2522 4238 
z
M 2522 4750 
Q 3503 4750 4090 4092 
Q 4678 3434 4678 2328 
Q 4678 1225 4090 567 
Q 3503 -91 2522 -91 
Q 1538 -91 948 565 
Q 359 1222 359 2328 
Q 359 3434 948 4092 
Q 1538 4750 2522 4750 
z
" transform="scale(0.015625)"/>
       <path id="DejaVuSans-77" d="M 544 -1331 
L 544 3500 
L 1119 3500 
L 1119 1325 
Q 1119 872 1334 640 
Q 1550 409 1972 409 
Q 2434 409 2667 671 
Q 2900 934 2900 1459 
L 2900 3500 
L 3475 3500 
L 3475 806 
Q 3475 619 3529 530 
Q 3584 441 3700 441 
Q 3728 441 3778 458 
Q 3828 475 3916 513 
L 3916 50 
Q 3788 -22 3673 -56 
Q 3559 -91 3450 -91 
Q 3234 -91 3106 31 
Q 2978 153 2931 403 
Q 2775 156 2548 32 
Q 2322 -91 2016 -91 
Q 1697 -91 1473 31 
Q 1250 153 1119 397 
L 1119 -1331 
L 544 -1331 
z
" transform="scale(0.015625)"/>
       <path id="DejaVuSans-30" d="M 628 4666 
L 1569 4666 
L 2759 1491 
L 3956 4666 
L 4897 4666 
L 4897 0 
L 4281 0 
L 4281 4097 
L 3078 897 
L 2444 897 
L 1241 4097 
L 1241 0 
L 628 0 
L 628 4666 
z
" transform="scale(0.015625)"/>
      </defs>
      <use xlink:href="#DejaVuSans-2b" transform="translate(0 0.78125)"/>
      <use xlink:href="#DejaVuSans-15" transform="translate(76.152344 -14.218701) scale(0.7)"/>
      <use xlink:href="#DejaVuSans-32" transform="translate(123.422852 0.78125)"/>
      <use xlink:href="#DejaVuSans-15" transform="translate(203.09082 -14.218701) scale(0.7)"/>
      <use xlink:href="#DejaVuSans-3" transform="translate(250.361328 0.78125)"/>
      <use xlink:href="#DejaVuSans-12" transform="translate(282.148438 0.78125)"/>
      <use xlink:href="#DejaVuSans-3" transform="translate(315.839844 0.78125)"/>
      <use xlink:href="#DejaVuSans-77" transform="translate(347.626953 0.78125)"/>
      <use xlink:href="#DejaVuSans-30" transform="translate(411.25 0.78125)"/>
     </g>
    </g>
   </g>
   <g id="line2d_53">
    <path d="M 91.409178 34.196844 
L 97.623057 35.048299 
L 97.78658 35.195912 
L 98.113627 35.119104 
L 107.761491 36.630692 
L 116.428217 38.209343 
L 124.44085 39.894014 
L 131.635868 41.628375 
L 138.340316 43.470143 
L 144.554195 45.408371 
L 150.277504 47.426817 
L 155.510245 49.50311 
L 160.415938 51.684872 
L 164.994586 53.961556 
L 169.246187 56.318127 
L 169.736757 56.849377 
L 169.90028 56.703809 
L 171.535511 57.697203 
L 223.483538 139.155047 
L 226.165318 146.45731 
L 228.310741 151.868764 
L 248.692264 175.461107 
L 251.910399 176.566063 
L 255.66489 177.576229 
L 259.955737 178.49184 
L 265.319296 179.39381 
L 271.21921 180.14031 
L 273.364633 180.255755 
L 303.936917 181.353665 
L 325.927508 181.781586 
L 355.963436 182.138822 
L 405.308175 182.476378 
L 483.079775 182.771702 
L 483.079775 182.771702 
" clip-path="url(#p2af3acea7f)" style="fill: none; stroke: #fa0002; stroke-width: 2; stroke-linecap: square"/>
   </g>
   <g id="patch_14">
    <path d="M 71.825648 190.200445 
L 71.825648 26.768102 
" style="fill: none; stroke: #000000; stroke-width: 0.8; stroke-linejoin: miter; stroke-linecap: square"/>
   </g>
   <g id="patch_15">
    <path d="M 502.663305 190.200445 
L 502.663305 26.768102 
" style="fill: none; stroke: #000000; stroke-width: 0.8; stroke-linejoin: miter; stroke-linecap: square"/>
   </g>
   <g id="patch_16">
    <path d="M 71.825648 190.200445 
L 502.663305 190.200445 
" style="fill: none; stroke: #000000; stroke-width: 0.8; stroke-linejoin: miter; stroke-linecap: square"/>
   </g>
   <g id="patch_17">
    <path d="M 71.825648 26.768102 
L 502.663305 26.768102 
" style="fill: none; stroke: #000000; stroke-width: 0.8; stroke-linejoin: miter; stroke-linecap: square"/>
   </g>
   <g id="legend_3">
    <g id="patch_18">
     <path d="M 435.546117 185.200445 
L 495.663305 185.200445 
Q 497.663305 185.200445 497.663305 183.200445 
L 497.663305 169.199664 
Q 497.663305 167.199664 495.663305 167.199664 
L 435.546117 167.199664 
Q 433.546117 167.199664 433.546117 169.199664 
L 433.546117 183.200445 
Q 433.546117 185.200445 435.546117 185.200445 
z
" style="fill: #ffffff; opacity: 0.8; stroke: #cccccc; stroke-linejoin: miter"/>
    </g>
    <g id="line2d_54">
     <path d="M 437.546117 175.298102 
L 447.546117 175.298102 
L 457.546117 175.298102 
" style="fill: none; stroke: #fa0002; stroke-width: 2; stroke-linecap: square"/>
    </g>
    <g id="text_46">
     <!-- H2O2 -->
     <g transform="translate(465.546117 178.798102) scale(0.1 -0.1)">
      <use xlink:href="#DejaVuSans-2b"/>
      <use xlink:href="#DejaVuSans-15" transform="translate(75.203125 0)"/>
      <use xlink:href="#DejaVuSans-32" transform="translate(138.828125 0)"/>
      <use xlink:href="#DejaVuSans-15" transform="translate(217.546875 0)"/>
     </g>
    </g>
   </g>
  </g>
 </g>
 <defs>
  <clipPath id="p2af3acea7f">
   <rect x="71.825648" y="26.768102" width="430.837656" height="163.432344"/>
  </clipPath>
  <clipPath id="p62ccb9dfed">
   <rect x="71.825648" y="223.45693" width="430.837656" height="163.432344"/>
  </clipPath>
 </defs>
</svg>
