<?xml version="1.0" encoding="utf-8" standalone="no"?>
<!DOCTYPE svg PUBLIC "-//W3C//DTD SVG 1.1//EN"
  "http://www.w3.org/Graphics/SVG/1.1/DTD/svg11.dtd">
<svg xmlns:xlink="http://www.w3.org/1999/xlink" width="719.927727pt" height="280.020096pt" viewBox="0 0 719.927727 280.020096" xmlns="http://www.w3.org/2000/svg" version="1.1">
 <metadata>
  <rdf:RDF xmlns:dc="http://purl.org/dc/elements/1.1/" xmlns:cc="http://creativecommons.org/ns#" xmlns:rdf="http://www.w3.org/1999/02/22-rdf-syntax-ns#">
   <cc:Work>
    <dc:type rdf:resource="http://purl.org/dc/dcmitype/StillImage"/>
    <dc:date>2026-06-29T12:59:20.513487</dc:date>
    <dc:format>image/svg+xml</dc:format>
    <dc:creator>
     <cc:Agent>
      <dc:title>Matplotlib v3.11.0, https://matplotlib.org/</dc:title>
     </cc:Agent>
    </dc:creator>
   </cc:Work>
  </rdf:RDF>
 </metadata>
 <defs>
  <style type="text/css">*{stroke-linejoin: round; stroke-linecap: butt}</style>
 </defs>
 <g id="figure_1">
  <g id="patch_1">
   <path d="M 0 280.020096 
L 719.927727 280.020096 
L 719.927727 0 
L 0 0 
z
" style="fill: #ffffff"/>
  </g>
  <g id="axes_1">
   <g id="patch_2">
    <path d="M 52.373182 241.819315 
L 353.527727 241.819315 
L 353.527727 29.226143 
L 52.373182 29.226143 
z
" style="fill: #ffffff"/>
   </g>
   <g id="patch_3">
    <path d="M 93.439711 241.819315 
L 120.817397 241.819315 
L 120.817397 29.226143 
L 93.439711 29.226143 
z
" clip-path="url(#p7c9c189ab7)" style="fill: #b3b3b3; stroke: #b3b3b3; stroke-linejoin: miter"/>
   </g>
   <g id="patch_4">
    <path d="M 148.195083 241.819315 
L 175.572769 241.819315 
L 175.572769 29.226143 
L 148.195083 29.226143 
z
" clip-path="url(#p7c9c189ab7)" style="fill: #b3b3b3; stroke: #b3b3b3; stroke-linejoin: miter"/>
   </g>
   <g id="patch_5">
    <path d="M 202.950455 241.819315 
L 230.32814 241.819315 
L 230.32814 29.226143 
L 202.950455 29.226143 
z
" clip-path="url(#p7c9c189ab7)" style="fill: #b3b3b3; stroke: #b3b3b3; stroke-linejoin: miter"/>
   </g>
   <g id="patch_6">
    <path d="M 257.705826 241.819315 
L 285.083512 241.819315 
L 285.083512 29.226143 
L 257.705826 29.226143 
z
" clip-path="url(#p7c9c189ab7)" style="fill: #b3b3b3; stroke: #b3b3b3; stroke-linejoin: miter"/>
   </g>
   <g id="patch_7">
    <path d="M 312.461198 241.819315 
L 339.838884 241.819315 
L 339.838884 29.226143 
L 312.461198 29.226143 
z
" clip-path="url(#p7c9c189ab7)" style="fill: #b3b3b3; stroke: #b3b3b3; stroke-linejoin: miter"/>
   </g>
   <g id="matplotlib.axis_1">
    <g id="xtick_1">
     <g id="line2d_1">
      <defs>
       <path id="mb564cb531c" d="M 0 0 
L 0 3.5 
" style="stroke: #000000; stroke-width: 0.8"/>
      </defs>
      <g>
       <use xlink:href="#mb564cb531c" x="66.062025" y="241.819315" style="stroke: #000000; stroke-width: 0.8"/>
      </g>
     </g>
     <g id="text_1">
      <!-- 0 -->
      <g transform="translate(62.880775 256.416971) scale(0.1 -0.1)">
       <defs>
        <path id="DejaVuSans-13" d="M 2034 4250 
Q 1547 4250 1301 3770 
Q 1056 3291 1056 2328 
Q 1056 1369 1301 889 
Q 1547 409 2034 409 
Q 2525 409 2770 889 
Q 3016 1369 3016 2328 
Q 3016 3291 2770 3770 
Q 2525 4250 2034 4250 
z
M 2034 4750 
Q 2819 4750 3233 4129 
Q 3647 3509 3647 2328 
Q 3647 1150 3233 529 
Q 2819 -91 2034 -91 
Q 1250 -91 836 529 
Q 422 1150 422 2328 
Q 422 3509 836 4129 
Q 1250 4750 2034 4750 
z
" transform="scale(0.015625)"/>
       </defs>
       <use xlink:href="#DejaVuSans-13"/>
      </g>
     </g>
    </g>
    <g id="xtick_2">
     <g id="line2d_2">
      <g>
       <use xlink:href="#mb564cb531c" x="111.691501" y="241.819315" style="stroke: #000000; stroke-width: 0.8"/>
      </g>
     </g>
     <g id="text_2">
      <!-- 100 -->
      <g transform="translate(102.147751 256.416971) scale(0.1 -0.1)">
       <defs>
        <path id="DejaVuSans-14" d="M 794 531 
L 1825 531 
L 1825 4091 
L 703 3866 
L 703 4441 
L 1819 4666 
L 2450 4666 
L 2450 531 
L 3481 531 
L 3481 0 
L 794 0 
L 794 531 
z
" transform="scale(0.015625)"/>
       </defs>
       <use xlink:href="#DejaVuSans-14"/>
       <use xlink:href="#DejaVuSans-13" transform="translate(63.625 0)"/>
       <use xlink:href="#DejaVuSans-13" transform="translate(127.25 0)"/>
      </g>
     </g>
    </g>
    <g id="xtick_3">
     <g id="line2d_3">
      <g>
       <use xlink:href="#mb564cb531c" x="157.320978" y="241.819315" style="stroke: #000000; stroke-width: 0.8"/>
      </g>
     </g>
     <g id="text_3">
      <!-- 200 -->
      <g transform="translate(147.777228 256.416971) scale(0.1 -0.1)">
       <defs>
        <path id="DejaVuSans-15" d="M 1228 531 
L 3431 531 
L 3431 0 
L 469 0 
L 469 531 
Q 828 903 1448 1529 
Q 2069 2156 2228 2338 
Q 2531 2678 2651 2914 
Q 2772 3150 2772 3378 
Q 2772 3750 2511 3984 
Q 2250 4219 1831 4219 
Q 1534 4219 1204 4116 
Q 875 4013 500 3803 
L 500 4441 
Q 881 4594 1212 4672 
Q 1544 4750 1819 4750 
Q 2544 4750 2975 4387 
Q 3406 4025 3406 3419 
Q 3406 3131 3298 2873 
Q 3191 2616 2906 2266 
Q 2828 2175 2409 1742 
Q 1991 1309 1228 531 
z
" transform="scale(0.015625)"/>
       </defs>
       <use xlink:href="#DejaVuSans-15"/>
       <use xlink:href="#DejaVuSans-13" transform="translate(63.625 0)"/>
       <use xlink:href="#DejaVuSans-13" transform="translate(127.25 0)"/>
      </g>
     </g>
    </g>
    <g id="xtick_4">
     <g id="line2d_4">
      <g>
       <use xlink:href="#mb564cb531c" x="202.950455" y="241.819315" style="stroke: #000000; stroke-width: 0.8"/>
      </g>
     </g>
     <g id="text_4">
      <!-- 300 -->
      <g transform="translate(193.406705 256.416971) scale(0.1 -0.1)">
       <defs>
        <path id="DejaVuSans-16" d="M 2597 2516 
Q 3050 2419 3304 2112 
Q 3559 1806 3559 1356 
Q 3559 666 3084 287 
Q 2609 -91 1734 -91 
Q 1441 -91 1130 -33 
Q 819 25 488 141 
L 488 750 
Q 750 597 1062 519 
Q 1375 441 1716 441 
Q 2309 441 2620 675 
Q 2931 909 2931 1356 
Q 2931 1769 2642 2001 
Q 2353 2234 1838 2234 
L 1294 2234 
L 1294 2753 
L 1863 2753 
Q 2328 2753 2575 2939 
Q 2822 3125 2822 3475 
Q 2822 3834 2567 4026 
Q 2313 4219 1838 4219 
Q 1578 4219 1281 4162 
Q 984 4106 628 3988 
L 628 4550 
Q 988 4650 1302 4700 
Q 1616 4750 1894 4750 
Q 2613 4750 3031 4423 
Q 3450 4097 3450 3541 
Q 3450 3153 3228 2886 
Q 3006 2619 2597 2516 
z
" transform="scale(0.015625)"/>
       </defs>
       <use xlink:href="#DejaVuSans-16"/>
       <use xlink:href="#DejaVuSans-13" transform="translate(63.625 0)"/>
       <use xlink:href="#DejaVuSans-13" transform="translate(127.25 0)"/>
      </g>
     </g>
    </g>
    <g id="xtick_5">
     <g id="line2d_5">
      <g>
       <use xlink:href="#mb564cb531c" x="248.579931" y="241.819315" style="stroke: #000000; stroke-width: 0.8"/>
      </g>
     </g>
     <g id="text_5">
      <!-- 400 -->
      <g transform="translate(239.036181 256.416971) scale(0.1 -0.1)">
       <defs>
        <path id="DejaVuSans-17" d="M 2419 4116 
L 825 1625 
L 2419 1625 
L 2419 4116 
z
M 2253 4666 
L 3047 4666 
L 3047 1625 
L 3713 1625 
L 3713 1100 
L 3047 1100 
L 3047 0 
L 2419 0 
L 2419 1100 
L 313 1100 
L 313 1709 
L 2253 4666 
z
" transform="scale(0.015625)"/>
       </defs>
       <use xlink:href="#DejaVuSans-17"/>
       <use xlink:href="#DejaVuSans-13" transform="translate(63.625 0)"/>
       <use xlink:href="#DejaVuSans-13" transform="translate(127.25 0)"/>
      </g>
     </g>
    </g>
    <g id="xtick_6">
     <g id="line2d_6">
      <g>
       <use xlink:href="#mb564cb531c" x="294.209408" y="241.819315" style="stroke: #000000; stroke-width: 0.8"/>
      </g>
     </g>
     <g id="text_6">
      <!-- 500 -->
      <g transform="translate(284.665658 256.416971) scale(0.1 -0.1)">
       <defs>
        <path id="DejaVuSans-18" d="M 691 4666 
L 3169 4666 
L 3169 4134 
L 1269 4134 
L 1269 2991 
Q 1406 3038 1543 3061 
Q 1681 3084 1819 3084 
Q 2600 3084 3056 2656 
Q 3513 2228 3513 1497 
Q 3513 744 3044 326 
Q 2575 -91 1722 -91 
Q 1428 -91 1123 -41 
Q 819 9 494 109 
L 494 744 
Q 775 591 1075 516 
Q 1375 441 1709 441 
Q 2250 441 2565 725 
Q 2881 1009 2881 1497 
Q 2881 1984 2565 2268 
Q 2250 2553 1709 2553 
Q 1456 2553 1204 2497 
Q 953 2441 691 2322 
L 691 4666 
z
" transform="scale(0.015625)"/>
       </defs>
       <use xlink:href="#DejaVuSans-18"/>
       <use xlink:href="#DejaVuSans-13" transform="translate(63.625 0)"/>
       <use xlink:href="#DejaVuSans-13" transform="translate(127.25 0)"/>
      </g>
     </g>
    </g>
    <g id="xtick_7">
     <g id="line2d_7">
      <g>
       <use xlink:href="#mb564cb531c" x="339.838884" y="241.819315" style="stroke: #000000; stroke-width: 0.8"/>
      </g>
     </g>
     <g id="text_7">
      <!-- 600 -->
      <g transform="translate(330.295134 256.416971) scale(0.1 -0.1)">
       <defs>
        <path id="DejaVuSans-19" d="M 2113 2584 
Q 1688 2584 1439 2293 
Q 1191 2003 1191 1497 
Q 1191 994 1439 701 
Q 1688 409 2113 409 
Q 2538 409 2786 701 
Q 3034 994 3034 1497 
Q 3034 2003 2786 2293 
Q 2538 2584 2113 2584 
z
M 3366 4563 
L 3366 3988 
Q 3128 4100 2886 4159 
Q 2644 4219 2406 4219 
Q 1781 4219 1451 3797 
Q 1122 3375 1075 2522 
Q 1259 2794 1537 2939 
Q 1816 3084 2150 3084 
Q 2853 3084 3261 2657 
Q 3669 2231 3669 1497 
Q 3669 778 3244 343 
Q 2819 -91 2113 -91 
Q 1303 -91 875 529 
Q 447 1150 447 2328 
Q 447 3434 972 4092 
Q 1497 4750 2381 4750 
Q 2619 4750 2861 4703 
Q 3103 4656 3366 4563 
z
" transform="scale(0.015625)"/>
       </defs>
       <use xlink:href="#DejaVuSans-19"/>
       <use xlink:href="#DejaVuSans-13" transform="translate(63.625 0)"/>
       <use xlink:href="#DejaVuSans-13" transform="translate(127.25 0)"/>
      </g>
     </g>
    </g>
    <g id="text_8">
     <!-- Time / (s) -->
     <g transform="translate(179.345767 270.417752) scale(0.1 -0.1)">
      <defs>
       <path id="DejaVuSans-37" d="M -19 4666 
L 3928 4666 
L 3928 4134 
L 2272 4134 
L 2272 0 
L 1638 0 
L 1638 4134 
L -19 4134 
L -19 4666 
z
" transform="scale(0.015625)"/>
       <path id="DejaVuSans-4c" d="M 603 3500 
L 1178 3500 
L 1178 0 
L 603 0 
L 603 3500 
z
M 603 4863 
L 1178 4863 
L 1178 4134 
L 603 4134 
L 603 4863 
z
" transform="scale(0.015625)"/>
       <path id="DejaVuSans-50" d="M 3328 2828 
Q 3544 3216 3844 3400 
Q 4144 3584 4550 3584 
Q 5097 3584 5394 3201 
Q 5691 2819 5691 2113 
L 5691 0 
L 5113 0 
L 5113 2094 
Q 5113 2597 4934 2840 
Q 4756 3084 4391 3084 
Q 3944 3084 3684 2787 
Q 3425 2491 3425 1978 
L 3425 0 
L 2847 0 
L 2847 2094 
Q 2847 2600 2669 2842 
Q 2491 3084 2119 3084 
Q 1678 3084 1418 2786 
Q 1159 2488 1159 1978 
L 1159 0 
L 581 0 
L 581 3500 
L 1159 3500 
L 1159 2956 
Q 1356 3278 1631 3431 
Q 1906 3584 2284 3584 
Q 2666 3584 2933 3390 
Q 3200 3197 3328 2828 
z
" transform="scale(0.015625)"/>
       <path id="DejaVuSans-48" d="M 3597 1894 
L 3597 1613 
L 953 1613 
Q 991 1019 1311 708 
Q 1631 397 2203 397 
Q 2534 397 2845 478 
Q 3156 559 3463 722 
L 3463 178 
Q 3153 47 2828 -22 
Q 2503 -91 2169 -91 
Q 1331 -91 842 396 
Q 353 884 353 1716 
Q 353 2575 817 3079 
Q 1281 3584 2069 3584 
Q 2775 3584 3186 3129 
Q 3597 2675 3597 1894 
z
M 3022 2063 
Q 3016 2534 2758 2815 
Q 2500 3097 2075 3097 
Q 1594 3097 1305 2825 
Q 1016 2553 972 2059 
L 3022 2063 
z
" transform="scale(0.015625)"/>
       <path id="DejaVuSans-3" transform="scale(0.015625)"/>
       <path id="DejaVuSans-12" d="M 1625 4666 
L 2156 4666 
L 531 -594 
L 0 -594 
L 1625 4666 
z
" transform="scale(0.015625)"/>
       <path id="DejaVuSans-b" d="M 1984 4856 
Q 1566 4138 1362 3434 
Q 1159 2731 1159 2009 
Q 1159 1288 1364 580 
Q 1569 -128 1984 -844 
L 1484 -844 
Q 1016 -109 783 600 
Q 550 1309 550 2009 
Q 550 2706 781 3412 
Q 1013 4119 1484 4856 
L 1984 4856 
z
" transform="scale(0.015625)"/>
       <path id="DejaVuSans-56" d="M 2834 3397 
L 2834 2853 
Q 2591 2978 2328 3040 
Q 2066 3103 1784 3103 
Q 1356 3103 1142 2972 
Q 928 2841 928 2578 
Q 928 2378 1081 2264 
Q 1234 2150 1697 2047 
L 1894 2003 
Q 2506 1872 2764 1633 
Q 3022 1394 3022 966 
Q 3022 478 2636 193 
Q 2250 -91 1575 -91 
Q 1294 -91 989 -36 
Q 684 19 347 128 
L 347 722 
Q 666 556 975 473 
Q 1284 391 1588 391 
Q 1994 391 2212 530 
Q 2431 669 2431 922 
Q 2431 1156 2273 1281 
Q 2116 1406 1581 1522 
L 1381 1569 
Q 847 1681 609 1914 
Q 372 2147 372 2553 
Q 372 3047 722 3315 
Q 1072 3584 1716 3584 
Q 2034 3584 2315 3537 
Q 2597 3491 2834 3397 
z
" transform="scale(0.015625)"/>
       <path id="DejaVuSans-c" d="M 513 4856 
L 1013 4856 
Q 1481 4119 1714 3412 
Q 1947 2706 1947 2009 
Q 1947 1309 1714 600 
Q 1481 -109 1013 -844 
L 513 -844 
Q 928 -128 1133 580 
Q 1338 1288 1338 2009 
Q 1338 2731 1133 3434 
Q 928 4138 513 4856 
z
" transform="scale(0.015625)"/>
      </defs>
      <use xlink:href="#DejaVuSans-37"/>
      <use xlink:href="#DejaVuSans-4c" transform="translate(58 0)"/>
      <use xlink:href="#DejaVuSans-50" transform="translate(85.78125 0)"/>
      <use xlink:href="#DejaVuSans-48" transform="translate(183.1875 0)"/>
      <use xlink:href="#DejaVuSans-3" transform="translate(244.71875 0)"/>
      <use xlink:href="#DejaVuSans-12" transform="translate(276.5 0)"/>
      <use xlink:href="#DejaVuSans-3" transform="translate(310.1875 0)"/>
      <use xlink:href="#DejaVuSans-b" transform="translate(341.96875 0)"/>
      <use xlink:href="#DejaVuSans-56" transform="translate(380.984375 0)"/>
      <use xlink:href="#DejaVuSans-c" transform="translate(433.078125 0)"/>
     </g>
    </g>
   </g>
   <g id="matplotlib.axis_2">
    <g id="ytick_1">
     <g id="line2d_8">
      <defs>
       <path id="m5bdbcff2e2" d="M 0 0 
L -3.5 0 
" style="stroke: #000000; stroke-width: 0.8"/>
      </defs>
      <g>
       <use xlink:href="#m5bdbcff2e2" x="52.373182" y="219.069374" style="stroke: #000000; stroke-width: 0.8"/>
      </g>
     </g>
     <g id="text_9">
      <!-- 0.2 -->
      <g transform="translate(29.470057 222.868202) scale(0.1 -0.1)">
       <defs>
        <path id="DejaVuSans-11" d="M 684 794 
L 1344 794 
L 1344 0 
L 684 0 
L 684 794 
z
" transform="scale(0.015625)"/>
       </defs>
       <use xlink:href="#DejaVuSans-13"/>
       <use xlink:href="#DejaVuSans-11" transform="translate(63.625 0)"/>
       <use xlink:href="#DejaVuSans-15" transform="translate(95.40625 0)"/>
      </g>
     </g>
    </g>
    <g id="ytick_2">
     <g id="line2d_9">
      <g>
       <use xlink:href="#m5bdbcff2e2" x="52.373182" y="174.000063" style="stroke: #000000; stroke-width: 0.8"/>
      </g>
     </g>
     <g id="text_10">
      <!-- 0.4 -->
      <g transform="translate(29.470057 177.798891) scale(0.1 -0.1)">
       <use xlink:href="#DejaVuSans-13"/>
       <use xlink:href="#DejaVuSans-11" transform="translate(63.625 0)"/>
       <use xlink:href="#DejaVuSans-17" transform="translate(95.40625 0)"/>
      </g>
     </g>
    </g>
    <g id="ytick_3">
     <g id="line2d_10">
      <g>
       <use xlink:href="#m5bdbcff2e2" x="52.373182" y="128.930752" style="stroke: #000000; stroke-width: 0.8"/>
      </g>
     </g>
     <g id="text_11">
      <!-- 0.6 -->
      <g transform="translate(29.470057 132.72958) scale(0.1 -0.1)">
       <use xlink:href="#DejaVuSans-13"/>
       <use xlink:href="#DejaVuSans-11" transform="translate(63.625 0)"/>
       <use xlink:href="#DejaVuSans-19" transform="translate(95.40625 0)"/>
      </g>
     </g>
    </g>
    <g id="ytick_4">
     <g id="line2d_11">
      <g>
       <use xlink:href="#m5bdbcff2e2" x="52.373182" y="83.861441" style="stroke: #000000; stroke-width: 0.8"/>
      </g>
     </g>
     <g id="text_12">
      <!-- 0.8 -->
      <g transform="translate(29.470057 87.660269) scale(0.1 -0.1)">
       <defs>
        <path id="DejaVuSans-1b" d="M 2034 2216 
Q 1584 2216 1326 1975 
Q 1069 1734 1069 1313 
Q 1069 891 1326 650 
Q 1584 409 2034 409 
Q 2484 409 2743 651 
Q 3003 894 3003 1313 
Q 3003 1734 2745 1975 
Q 2488 2216 2034 2216 
z
M 1403 2484 
Q 997 2584 770 2862 
Q 544 3141 544 3541 
Q 544 4100 942 4425 
Q 1341 4750 2034 4750 
Q 2731 4750 3128 4425 
Q 3525 4100 3525 3541 
Q 3525 3141 3298 2862 
Q 3072 2584 2669 2484 
Q 3125 2378 3379 2068 
Q 3634 1759 3634 1313 
Q 3634 634 3220 271 
Q 2806 -91 2034 -91 
Q 1263 -91 848 271 
Q 434 634 434 1313 
Q 434 1759 690 2068 
Q 947 2378 1403 2484 
z
M 1172 3481 
Q 1172 3119 1398 2916 
Q 1625 2713 2034 2713 
Q 2441 2713 2670 2916 
Q 2900 3119 2900 3481 
Q 2900 3844 2670 4047 
Q 2441 4250 2034 4250 
Q 1625 4250 1398 4047 
Q 1172 3844 1172 3481 
z
" transform="scale(0.015625)"/>
       </defs>
       <use xlink:href="#DejaVuSans-13"/>
       <use xlink:href="#DejaVuSans-11" transform="translate(63.625 0)"/>
       <use xlink:href="#DejaVuSans-1b" transform="translate(95.40625 0)"/>
      </g>
     </g>
    </g>
    <g id="ytick_5">
     <g id="line2d_12">
      <g>
       <use xlink:href="#m5bdbcff2e2" x="52.373182" y="38.79213" style="stroke: #000000; stroke-width: 0.8"/>
      </g>
     </g>
     <g id="text_13">
      <!-- 1.0 -->
      <g transform="translate(29.470057 42.590958) scale(0.1 -0.1)">
       <use xlink:href="#DejaVuSans-14"/>
       <use xlink:href="#DejaVuSans-11" transform="translate(63.625 0)"/>
       <use xlink:href="#DejaVuSans-13" transform="translate(95.40625 0)"/>
      </g>
     </g>
    </g>
    <g id="text_14">
     <!-- Fd Redox State -->
     <g transform="translate(23.067713 173.351635) rotate(-90) scale(0.1 -0.1)">
      <defs>
       <path id="DejaVuSans-29" d="M 628 4666 
L 3309 4666 
L 3309 4134 
L 1259 4134 
L 1259 2759 
L 3109 2759 
L 3109 2228 
L 1259 2228 
L 1259 0 
L 628 0 
L 628 4666 
z
" transform="scale(0.015625)"/>
       <path id="DejaVuSans-47" d="M 2906 2969 
L 2906 4863 
L 3481 4863 
L 3481 0 
L 2906 0 
L 2906 525 
Q 2725 213 2448 61 
Q 2172 -91 1784 -91 
Q 1150 -91 751 415 
Q 353 922 353 1747 
Q 353 2572 751 3078 
Q 1150 3584 1784 3584 
Q 2172 3584 2448 3432 
Q 2725 3281 2906 2969 
z
M 947 1747 
Q 947 1113 1208 752 
Q 1469 391 1925 391 
Q 2381 391 2643 752 
Q 2906 1113 2906 1747 
Q 2906 2381 2643 2742 
Q 2381 3103 1925 3103 
Q 1469 3103 1208 2742 
Q 947 2381 947 1747 
z
" transform="scale(0.015625)"/>
       <path id="DejaVuSans-35" d="M 2841 2188 
Q 3044 2119 3236 1894 
Q 3428 1669 3622 1275 
L 4263 0 
L 3584 0 
L 2988 1197 
Q 2756 1666 2539 1819 
Q 2322 1972 1947 1972 
L 1259 1972 
L 1259 0 
L 628 0 
L 628 4666 
L 2053 4666 
Q 2853 4666 3247 4331 
Q 3641 3997 3641 3322 
Q 3641 2881 3436 2590 
Q 3231 2300 2841 2188 
z
M 1259 4147 
L 1259 2491 
L 2053 2491 
Q 2509 2491 2742 2702 
Q 2975 2913 2975 3322 
Q 2975 3731 2742 3939 
Q 2509 4147 2053 4147 
L 1259 4147 
z
" transform="scale(0.015625)"/>
       <path id="DejaVuSans-52" d="M 1959 3097 
Q 1497 3097 1228 2736 
Q 959 2375 959 1747 
Q 959 1119 1226 758 
Q 1494 397 1959 397 
Q 2419 397 2687 759 
Q 2956 1122 2956 1747 
Q 2956 2369 2687 2733 
Q 2419 3097 1959 3097 
z
M 1959 3584 
Q 2709 3584 3137 3096 
Q 3566 2609 3566 1747 
Q 3566 888 3137 398 
Q 2709 -91 1959 -91 
Q 1206 -91 779 398 
Q 353 888 353 1747 
Q 353 2609 779 3096 
Q 1206 3584 1959 3584 
z
" transform="scale(0.015625)"/>
       <path id="DejaVuSans-5b" d="M 3513 3500 
L 2247 1797 
L 3578 0 
L 2900 0 
L 1881 1375 
L 863 0 
L 184 0 
L 1544 1831 
L 300 3500 
L 978 3500 
L 1906 2253 
L 2834 3500 
L 3513 3500 
z
" transform="scale(0.015625)"/>
       <path id="DejaVuSans-36" d="M 3425 4513 
L 3425 3897 
Q 3066 4069 2747 4153 
Q 2428 4238 2131 4238 
Q 1616 4238 1336 4038 
Q 1056 3838 1056 3469 
Q 1056 3159 1242 3001 
Q 1428 2844 1947 2747 
L 2328 2669 
Q 3034 2534 3370 2195 
Q 3706 1856 3706 1288 
Q 3706 609 3251 259 
Q 2797 -91 1919 -91 
Q 1588 -91 1214 -16 
Q 841 59 441 206 
L 441 856 
Q 825 641 1194 531 
Q 1563 422 1919 422 
Q 2459 422 2753 634 
Q 3047 847 3047 1241 
Q 3047 1584 2836 1778 
Q 2625 1972 2144 2069 
L 1759 2144 
Q 1053 2284 737 2584 
Q 422 2884 422 3419 
Q 422 4038 858 4394 
Q 1294 4750 2059 4750 
Q 2388 4750 2728 4690 
Q 3069 4631 3425 4513 
z
" transform="scale(0.015625)"/>
       <path id="DejaVuSans-57" d="M 1172 4494 
L 1172 3500 
L 2356 3500 
L 2356 3053 
L 1172 3053 
L 1172 1153 
Q 1172 725 1289 603 
Q 1406 481 1766 481 
L 2356 481 
L 2356 0 
L 1766 0 
Q 1100 0 847 248 
Q 594 497 594 1153 
L 594 3053 
L 172 3053 
L 172 3500 
L 594 3500 
L 594 4494 
L 1172 4494 
z
" transform="scale(0.015625)"/>
       <path id="DejaVuSans-44" d="M 2194 1759 
Q 1497 1759 1228 1600 
Q 959 1441 959 1056 
Q 959 750 1161 570 
Q 1363 391 1709 391 
Q 2188 391 2477 730 
Q 2766 1069 2766 1631 
L 2766 1759 
L 2194 1759 
z
M 3341 1997 
L 3341 0 
L 2766 0 
L 2766 531 
Q 2569 213 2275 61 
Q 1981 -91 1556 -91 
Q 1019 -91 701 211 
Q 384 513 384 1019 
Q 384 1609 779 1909 
Q 1175 2209 1959 2209 
L 2766 2209 
L 2766 2266 
Q 2766 2663 2505 2880 
Q 2244 3097 1772 3097 
Q 1472 3097 1187 3025 
Q 903 2953 641 2809 
L 641 3341 
Q 956 3463 1253 3523 
Q 1550 3584 1831 3584 
Q 2591 3584 2966 3190 
Q 3341 2797 3341 1997 
z
" transform="scale(0.015625)"/>
      </defs>
      <use xlink:href="#DejaVuSans-29"/>
      <use xlink:href="#DejaVuSans-47" transform="translate(57.515625 0)"/>
      <use xlink:href="#DejaVuSans-3" transform="translate(121 0)"/>
      <use xlink:href="#DejaVuSans-35" transform="translate(152.78125 0)"/>
      <use xlink:href="#DejaVuSans-48" transform="translate(217.78125 0)"/>
      <use xlink:href="#DejaVuSans-47" transform="translate(279.3125 0)"/>
      <use xlink:href="#DejaVuSans-52" transform="translate(342.796875 0)"/>
      <use xlink:href="#DejaVuSans-5b" transform="translate(400.90625 0)"/>
      <use xlink:href="#DejaVuSans-3" transform="translate(460.09375 0)"/>
      <use xlink:href="#DejaVuSans-36" transform="translate(491.875 0)"/>
      <use xlink:href="#DejaVuSans-57" transform="translate(555.359375 0)"/>
      <use xlink:href="#DejaVuSans-44" transform="translate(594.5625 0)"/>
      <use xlink:href="#DejaVuSans-57" transform="translate(655.84375 0)"/>
      <use xlink:href="#DejaVuSans-48" transform="translate(695.046875 0)"/>
     </g>
    </g>
   </g>
   <g id="line2d_13">
    <path d="M 66.062025 206.256276 
L 68.799793 38.889891 
L 71.537562 38.889613 
L 74.275331 38.889541 
L 77.013099 38.889508 
L 79.750868 38.889492 
L 82.488636 38.889481 
L 85.226405 38.889473 
L 87.964174 38.889469 
L 90.701942 38.889469 
L 93.439711 38.889472 
L 96.177479 184.662946 
L 98.915248 190.910348 
L 101.653017 193.093818 
L 104.390785 192.269837 
L 107.128554 189.16195 
L 109.866322 184.50785 
L 112.604091 178.942588 
L 115.34186 172.943243 
L 118.079628 166.834627 
L 120.817397 160.848252 
L 123.555165 38.897074 
L 126.292934 38.891231 
L 129.030702 38.889767 
L 131.768471 38.889557 
L 134.50624 38.889529 
L 137.244008 38.889541 
L 139.981777 38.889563 
L 142.719545 38.889589 
L 145.457314 38.889616 
L 148.195083 38.889645 
L 150.932851 194.380413 
L 153.67062 198.720653 
L 156.408388 199.503847 
L 159.146157 198.297844 
L 161.883926 195.527739 
L 164.621694 191.558855 
L 167.359463 186.75094 
L 170.097231 181.458945 
L 172.835 175.993244 
L 175.572769 170.595547 
L 178.310537 38.899279 
L 181.048306 38.891518 
L 183.786074 38.88998 
L 186.523843 38.88977 
L 189.261612 38.889752 
L 191.99938 38.889775 
L 194.737149 38.88981 
L 197.474917 38.889847 
L 200.212686 38.889886 
L 202.950455 38.889925 
L 205.688223 199.607903 
L 208.425992 203.115047 
L 211.16376 203.311048 
L 213.901529 201.929066 
L 216.639298 199.314607 
L 219.377066 195.693629 
L 222.114835 191.292357 
L 224.852603 186.380571 
L 227.590372 181.240336 
L 230.32814 176.11532 
L 233.065909 38.902076 
L 235.803678 38.891841 
L 238.541446 38.890235 
L 241.279215 38.890021 
L 244.016983 38.890005 
L 246.754752 38.890033 
L 249.492521 38.890072 
L 252.230289 38.890113 
L 254.968058 38.890156 
L 257.705826 38.890199 
L 260.443595 202.686789 
L 263.181364 205.750528 
L 265.919132 205.649657 
L 268.656901 204.173888 
L 271.394669 201.641019 
L 274.132438 198.214938 
L 276.870207 194.051499 
L 279.607975 189.36567 
L 282.345744 184.41443 
L 285.083512 179.438998 
L 287.821281 38.90509 
L 290.55905 38.892125 
L 293.296818 38.890464 
L 296.034587 38.890245 
L 298.772355 38.890228 
L 301.510124 38.890257 
L 304.247893 38.890297 
L 306.985661 38.89034 
L 309.72343 38.890383 
L 312.461198 38.890427 
L 315.198967 204.585316 
L 317.936736 207.392466 
L 320.674504 207.125858 
L 323.412273 205.596238 
L 326.150041 203.110267 
L 328.88781 199.800756 
L 331.625579 195.783735 
L 334.363347 191.239326 
L 337.101116 186.405555 
L 339.838884 181.520072 
" clip-path="url(#p7c9c189ab7)" style="fill: none; stroke: #ff0000; stroke-width: 3; stroke-linecap: square"/>
   </g>
   <g id="line2d_14">
    <path d="M 66.062025 206.256276 
L 68.799793 110.187051 
L 71.537562 127.429923 
L 74.275331 126.376762 
L 77.013099 124.194312 
L 79.750868 124.010617 
L 82.488636 124.06181 
L 85.226405 124.120328 
L 87.964174 124.17503 
L 90.701942 124.230511 
L 93.439711 124.288897 
L 96.177479 230.5851 
L 98.915248 230.078778 
L 101.653017 229.865287 
L 104.390785 229.840143 
L 107.128554 229.734488 
L 109.866322 229.40512 
L 112.604091 228.81282 
L 115.34186 227.991533 
L 118.079628 227.023283 
L 120.817397 226.005547 
L 123.555165 101.093876 
L 126.292934 123.694193 
L 129.030702 138.916983 
L 131.768471 130.418256 
L 134.50624 129.326617 
L 137.244008 129.13097 
L 139.981777 129.026334 
L 142.719545 128.924786 
L 145.457314 128.827568 
L 148.195083 128.738542 
L 150.932851 231.414767 
L 153.67062 231.045445 
L 156.408388 230.831289 
L 159.146157 230.749859 
L 161.883926 230.584486 
L 164.621694 230.212423 
L 167.359463 229.59842 
L 170.097231 228.771978 
L 172.835 227.807198 
L 175.572769 226.794449 
L 178.310537 103.816424 
L 181.048306 126.265619 
L 183.786074 141.209485 
L 186.523843 132.934447 
L 189.261612 131.77743 
L 191.99938 131.515743 
L 194.737149 131.348668 
L 197.474917 131.186966 
L 200.212686 131.031633 
L 202.950455 130.886491 
L 205.688223 231.811261 
L 208.425992 231.499266 
L 211.16376 231.290343 
L 213.901529 231.18973 
L 216.639298 231.001458 
L 219.377066 230.613887 
L 222.114835 229.994875 
L 224.852603 229.171721 
L 227.590372 228.214074 
L 230.32814 227.208445 
L 233.065909 105.24058 
L 235.803678 127.639404 
L 238.541446 142.46226 
L 241.279215 134.262275 
L 244.016983 133.081436 
L 246.754752 132.790746 
L 249.492521 132.595517 
L 252.230289 132.406574 
L 254.968058 132.224821 
L 257.705826 132.054035 
L 260.443595 232.027951 
L 263.181364 231.735383 
L 265.919132 231.529191 
L 268.656901 231.421514 
L 271.394669 231.223955 
L 274.132438 230.831043 
L 276.870207 230.212674 
L 279.607975 229.394692 
L 282.345744 228.443859 
L 285.083512 227.444381 
L 287.821281 106.058948 
L 290.55905 128.438635 
L 293.296818 143.201834 
L 296.034587 135.027763 
L 298.772355 133.836696 
L 301.510124 133.530928 
L 304.247893 133.320744 
L 306.985661 133.117291 
L 309.72343 132.921453 
L 312.461198 132.736968 
L 315.198967 232.155989 
L 317.936736 231.868139 
L 320.674504 231.662889 
L 323.412273 231.552225 
L 326.150041 231.350456 
L 328.88781 230.955721 
L 331.625579 230.339232 
L 334.363347 229.525816 
L 337.101116 228.580282 
L 339.838884 227.585368 
" clip-path="url(#p7c9c189ab7)" style="fill: none; stroke: #000000; stroke-width: 3; stroke-linecap: square"/>
   </g>
   <g id="patch_8">
    <path d="M 52.373182 241.819315 
L 52.373182 29.226143 
" style="fill: none; stroke: #000000; stroke-width: 0.8; stroke-linejoin: miter; stroke-linecap: square"/>
   </g>
   <g id="patch_9">
    <path d="M 353.527727 241.819315 
L 353.527727 29.226143 
" style="fill: none; stroke: #000000; stroke-width: 0.8; stroke-linejoin: miter; stroke-linecap: square"/>
   </g>
   <g id="patch_10">
    <path d="M 52.373182 241.819315 
L 353.527727 241.819315 
" style="fill: none; stroke: #000000; stroke-width: 0.8; stroke-linejoin: miter; stroke-linecap: square"/>
   </g>
   <g id="patch_11">
    <path d="M 52.373182 29.226143 
L 353.527727 29.226143 
" style="fill: none; stroke: #000000; stroke-width: 0.8; stroke-linejoin: miter; stroke-linecap: square"/>
   </g>
   <g id="text_15">
    <!-- A -->
    <g transform="translate(7.2 18.596484) scale(0.15 -0.15)">
     <defs>
      <path id="DejaVuSans-Bold-24" d="M 3419 850 
L 1538 850 
L 1241 0 
L 31 0 
L 1759 4666 
L 3194 4666 
L 4922 0 
L 3713 0 
L 3419 850 
z
M 1838 1716 
L 3116 1716 
L 2478 3572 
L 1838 1716 
z
" transform="scale(0.015625)"/>
     </defs>
     <use xlink:href="#DejaVuSans-Bold-24"/>
    </g>
   </g>
  </g>
  <g id="axes_2">
   <g id="patch_12">
    <path d="M 411.573182 241.819315 
L 712.727727 241.819315 
L 712.727727 29.226143 
L 411.573182 29.226143 
z
" style="fill: #ffffff"/>
   </g>
   <g id="patch_13">
    <path d="M 452.639711 241.819315 
L 480.017397 241.819315 
L 480.017397 29.226143 
L 452.639711 29.226143 
z
" clip-path="url(#p9d5b8b89e6)" style="fill: #b3b3b3; stroke: #b3b3b3; stroke-linejoin: miter"/>
   </g>
   <g id="patch_14">
    <path d="M 507.395083 241.819315 
L 534.772769 241.819315 
L 534.772769 29.226143 
L 507.395083 29.226143 
z
" clip-path="url(#p9d5b8b89e6)" style="fill: #b3b3b3; stroke: #b3b3b3; stroke-linejoin: miter"/>
   </g>
   <g id="patch_15">
    <path d="M 562.150455 241.819315 
L 589.52814 241.819315 
L 589.52814 29.226143 
L 562.150455 29.226143 
z
" clip-path="url(#p9d5b8b89e6)" style="fill: #b3b3b3; stroke: #b3b3b3; stroke-linejoin: miter"/>
   </g>
   <g id="patch_16">
    <path d="M 616.905826 241.819315 
L 644.283512 241.819315 
L 644.283512 29.226143 
L 616.905826 29.226143 
z
" clip-path="url(#p9d5b8b89e6)" style="fill: #b3b3b3; stroke: #b3b3b3; stroke-linejoin: miter"/>
   </g>
   <g id="patch_17">
    <path d="M 671.661198 241.819315 
L 699.038884 241.819315 
L 699.038884 29.226143 
L 671.661198 29.226143 
z
" clip-path="url(#p9d5b8b89e6)" style="fill: #b3b3b3; stroke: #b3b3b3; stroke-linejoin: miter"/>
   </g>
   <g id="matplotlib.axis_3">
    <g id="xtick_8">
     <g id="line2d_15">
      <g>
       <use xlink:href="#mb564cb531c" x="425.262025" y="241.819315" style="stroke: #000000; stroke-width: 0.8"/>
      </g>
     </g>
     <g id="text_16">
      <!-- 0 -->
      <g transform="translate(422.080775 256.416971) scale(0.1 -0.1)">
       <use xlink:href="#DejaVuSans-13"/>
      </g>
     </g>
    </g>
    <g id="xtick_9">
     <g id="line2d_16">
      <g>
       <use xlink:href="#mb564cb531c" x="470.891501" y="241.819315" style="stroke: #000000; stroke-width: 0.8"/>
      </g>
     </g>
     <g id="text_17">
      <!-- 100 -->
      <g transform="translate(461.347751 256.416971) scale(0.1 -0.1)">
       <use xlink:href="#DejaVuSans-14"/>
       <use xlink:href="#DejaVuSans-13" transform="translate(63.625 0)"/>
       <use xlink:href="#DejaVuSans-13" transform="translate(127.25 0)"/>
      </g>
     </g>
    </g>
    <g id="xtick_10">
     <g id="line2d_17">
      <g>
       <use xlink:href="#mb564cb531c" x="516.520978" y="241.819315" style="stroke: #000000; stroke-width: 0.8"/>
      </g>
     </g>
     <g id="text_18">
      <!-- 200 -->
      <g transform="translate(506.977228 256.416971) scale(0.1 -0.1)">
       <use xlink:href="#DejaVuSans-15"/>
       <use xlink:href="#DejaVuSans-13" transform="translate(63.625 0)"/>
       <use xlink:href="#DejaVuSans-13" transform="translate(127.25 0)"/>
      </g>
     </g>
    </g>
    <g id="xtick_11">
     <g id="line2d_18">
      <g>
       <use xlink:href="#mb564cb531c" x="562.150455" y="241.819315" style="stroke: #000000; stroke-width: 0.8"/>
      </g>
     </g>
     <g id="text_19">
      <!-- 300 -->
      <g transform="translate(552.606705 256.416971) scale(0.1 -0.1)">
       <use xlink:href="#DejaVuSans-16"/>
       <use xlink:href="#DejaVuSans-13" transform="translate(63.625 0)"/>
       <use xlink:href="#DejaVuSans-13" transform="translate(127.25 0)"/>
      </g>
     </g>
    </g>
    <g id="xtick_12">
     <g id="line2d_19">
      <g>
       <use xlink:href="#mb564cb531c" x="607.779931" y="241.819315" style="stroke: #000000; stroke-width: 0.8"/>
      </g>
     </g>
     <g id="text_20">
      <!-- 400 -->
      <g transform="translate(598.236181 256.416971) scale(0.1 -0.1)">
       <use xlink:href="#DejaVuSans-17"/>
       <use xlink:href="#DejaVuSans-13" transform="translate(63.625 0)"/>
       <use xlink:href="#DejaVuSans-13" transform="translate(127.25 0)"/>
      </g>
     </g>
    </g>
    <g id="xtick_13">
     <g id="line2d_20">
      <g>
       <use xlink:href="#mb564cb531c" x="653.409408" y="241.819315" style="stroke: #000000; stroke-width: 0.8"/>
      </g>
     </g>
     <g id="text_21">
      <!-- 500 -->
      <g transform="translate(643.865658 256.416971) scale(0.1 -0.1)">
       <use xlink:href="#DejaVuSans-18"/>
       <use xlink:href="#DejaVuSans-13" transform="translate(63.625 0)"/>
       <use xlink:href="#DejaVuSans-13" transform="translate(127.25 0)"/>
      </g>
     </g>
    </g>
    <g id="xtick_14">
     <g id="line2d_21">
      <g>
       <use xlink:href="#mb564cb531c" x="699.038884" y="241.819315" style="stroke: #000000; stroke-width: 0.8"/>
      </g>
     </g>
     <g id="text_22">
      <!-- 600 -->
      <g transform="translate(689.495134 256.416971) scale(0.1 -0.1)">
       <use xlink:href="#DejaVuSans-19"/>
       <use xlink:href="#DejaVuSans-13" transform="translate(63.625 0)"/>
       <use xlink:href="#DejaVuSans-13" transform="translate(127.25 0)"/>
      </g>
     </g>
    </g>
    <g id="text_23">
     <!-- Time / (s) -->
     <g transform="translate(538.545767 270.417752) scale(0.1 -0.1)">
      <use xlink:href="#DejaVuSans-37"/>
      <use xlink:href="#DejaVuSans-4c" transform="translate(58 0)"/>
      <use xlink:href="#DejaVuSans-50" transform="translate(85.78125 0)"/>
      <use xlink:href="#DejaVuSans-48" transform="translate(183.1875 0)"/>
      <use xlink:href="#DejaVuSans-3" transform="translate(244.71875 0)"/>
      <use xlink:href="#DejaVuSans-12" transform="translate(276.5 0)"/>
      <use xlink:href="#DejaVuSans-3" transform="translate(310.1875 0)"/>
      <use xlink:href="#DejaVuSans-b" transform="translate(341.96875 0)"/>
      <use xlink:href="#DejaVuSans-56" transform="translate(380.984375 0)"/>
      <use xlink:href="#DejaVuSans-c" transform="translate(433.078125 0)"/>
     </g>
    </g>
   </g>
   <g id="matplotlib.axis_4">
    <g id="ytick_6">
     <g id="line2d_22">
      <g>
       <use xlink:href="#m5bdbcff2e2" x="411.573182" y="212.81415" style="stroke: #000000; stroke-width: 0.8"/>
      </g>
     </g>
     <g id="text_24">
      <!-- 0.5 -->
      <g transform="translate(388.670057 216.612978) scale(0.1 -0.1)">
       <use xlink:href="#DejaVuSans-13"/>
       <use xlink:href="#DejaVuSans-11" transform="translate(63.625 0)"/>
       <use xlink:href="#DejaVuSans-18" transform="translate(95.40625 0)"/>
      </g>
     </g>
    </g>
    <g id="ytick_7">
     <g id="line2d_23">
      <g>
       <use xlink:href="#m5bdbcff2e2" x="411.573182" y="183.249782" style="stroke: #000000; stroke-width: 0.8"/>
      </g>
     </g>
     <g id="text_25">
      <!-- 1.0 -->
      <g transform="translate(388.670057 187.04861) scale(0.1 -0.1)">
       <use xlink:href="#DejaVuSans-14"/>
       <use xlink:href="#DejaVuSans-11" transform="translate(63.625 0)"/>
       <use xlink:href="#DejaVuSans-13" transform="translate(95.40625 0)"/>
      </g>
     </g>
    </g>
    <g id="ytick_8">
     <g id="line2d_24">
      <g>
       <use xlink:href="#m5bdbcff2e2" x="411.573182" y="153.685414" style="stroke: #000000; stroke-width: 0.8"/>
      </g>
     </g>
     <g id="text_26">
      <!-- 1.5 -->
      <g transform="translate(388.670057 157.484242) scale(0.1 -0.1)">
       <use xlink:href="#DejaVuSans-14"/>
       <use xlink:href="#DejaVuSans-11" transform="translate(63.625 0)"/>
       <use xlink:href="#DejaVuSans-18" transform="translate(95.40625 0)"/>
      </g>
     </g>
    </g>
    <g id="ytick_9">
     <g id="line2d_25">
      <g>
       <use xlink:href="#m5bdbcff2e2" x="411.573182" y="124.121046" style="stroke: #000000; stroke-width: 0.8"/>
      </g>
     </g>
     <g id="text_27">
      <!-- 2.0 -->
      <g transform="translate(388.670057 127.919874) scale(0.1 -0.1)">
       <use xlink:href="#DejaVuSans-15"/>
       <use xlink:href="#DejaVuSans-11" transform="translate(63.625 0)"/>
       <use xlink:href="#DejaVuSans-13" transform="translate(95.40625 0)"/>
      </g>
     </g>
    </g>
    <g id="ytick_10">
     <g id="line2d_26">
      <g>
       <use xlink:href="#m5bdbcff2e2" x="411.573182" y="94.556678" style="stroke: #000000; stroke-width: 0.8"/>
      </g>
     </g>
     <g id="text_28">
      <!-- 2.5 -->
      <g transform="translate(388.670057 98.355506) scale(0.1 -0.1)">
       <use xlink:href="#DejaVuSans-15"/>
       <use xlink:href="#DejaVuSans-11" transform="translate(63.625 0)"/>
       <use xlink:href="#DejaVuSans-18" transform="translate(95.40625 0)"/>
      </g>
     </g>
    </g>
    <g id="ytick_11">
     <g id="line2d_27">
      <g>
       <use xlink:href="#m5bdbcff2e2" x="411.573182" y="64.99231" style="stroke: #000000; stroke-width: 0.8"/>
      </g>
     </g>
     <g id="text_29">
      <!-- 3.0 -->
      <g transform="translate(388.670057 68.791138) scale(0.1 -0.1)">
       <use xlink:href="#DejaVuSans-16"/>
       <use xlink:href="#DejaVuSans-11" transform="translate(63.625 0)"/>
       <use xlink:href="#DejaVuSans-13" transform="translate(95.40625 0)"/>
      </g>
     </g>
    </g>
    <g id="ytick_12">
     <g id="line2d_28">
      <g>
       <use xlink:href="#m5bdbcff2e2" x="411.573182" y="35.427942" style="stroke: #000000; stroke-width: 0.8"/>
      </g>
     </g>
     <g id="text_30">
      <!-- 3.5 -->
      <g transform="translate(388.670057 39.22677) scale(0.1 -0.1)">
       <use xlink:href="#DejaVuSans-16"/>
       <use xlink:href="#DejaVuSans-11" transform="translate(63.625 0)"/>
       <use xlink:href="#DejaVuSans-18" transform="translate(95.40625 0)"/>
      </g>
     </g>
    </g>
    <g id="text_31">
     <!-- Rate of RuBisCO / (mM / s) -->
     <g transform="translate(382.267713 201.671166) rotate(-90) scale(0.1 -0.1)">
      <defs>
       <path id="DejaVuSans-49" d="M 2375 4863 
L 2375 4384 
L 1825 4384 
Q 1516 4384 1395 4259 
Q 1275 4134 1275 3809 
L 1275 3500 
L 2222 3500 
L 2222 3053 
L 1275 3053 
L 1275 0 
L 697 0 
L 697 3053 
L 147 3053 
L 147 3500 
L 697 3500 
L 697 3744 
Q 697 4328 969 4595 
Q 1241 4863 1831 4863 
L 2375 4863 
z
" transform="scale(0.015625)"/>
       <path id="DejaVuSans-58" d="M 544 1381 
L 544 3500 
L 1119 3500 
L 1119 1403 
Q 1119 906 1312 657 
Q 1506 409 1894 409 
Q 2359 409 2629 706 
Q 2900 1003 2900 1516 
L 2900 3500 
L 3475 3500 
L 3475 0 
L 2900 0 
L 2900 538 
Q 2691 219 2414 64 
Q 2138 -91 1772 -91 
Q 1169 -91 856 284 
Q 544 659 544 1381 
z
M 1991 3584 
L 1991 3584 
z
" transform="scale(0.015625)"/>
       <path id="DejaVuSans-25" d="M 1259 2228 
L 1259 519 
L 2272 519 
Q 2781 519 3026 730 
Q 3272 941 3272 1375 
Q 3272 1813 3026 2020 
Q 2781 2228 2272 2228 
L 1259 2228 
z
M 1259 4147 
L 1259 2741 
L 2194 2741 
Q 2656 2741 2882 2914 
Q 3109 3088 3109 3444 
Q 3109 3797 2882 3972 
Q 2656 4147 2194 4147 
L 1259 4147 
z
M 628 4666 
L 2241 4666 
Q 2963 4666 3353 4366 
Q 3744 4066 3744 3513 
Q 3744 3084 3544 2831 
Q 3344 2578 2956 2516 
Q 3422 2416 3680 2098 
Q 3938 1781 3938 1306 
Q 3938 681 3513 340 
Q 3088 0 2303 0 
L 628 0 
L 628 4666 
z
" transform="scale(0.015625)"/>
       <path id="DejaVuSans-26" d="M 4122 4306 
L 4122 3641 
Q 3803 3938 3442 4084 
Q 3081 4231 2675 4231 
Q 1875 4231 1450 3742 
Q 1025 3253 1025 2328 
Q 1025 1406 1450 917 
Q 1875 428 2675 428 
Q 3081 428 3442 575 
Q 3803 722 4122 1019 
L 4122 359 
Q 3791 134 3420 21 
Q 3050 -91 2638 -91 
Q 1578 -91 968 557 
Q 359 1206 359 2328 
Q 359 3453 968 4101 
Q 1578 4750 2638 4750 
Q 3056 4750 3426 4639 
Q 3797 4528 4122 4306 
z
" transform="scale(0.015625)"/>
       <path id="DejaVuSans-32" d="M 2522 4238 
Q 1834 4238 1429 3725 
Q 1025 3213 1025 2328 
Q 1025 1447 1429 934 
Q 1834 422 2522 422 
Q 3209 422 3611 934 
Q 4013 1447 4013 2328 
Q 4013 3213 3611 3725 
Q 3209 4238 2522 4238 
z
M 2522 4750 
Q 3503 4750 4090 4092 
Q 4678 3434 4678 2328 
Q 4678 1225 4090 567 
Q 3503 -91 2522 -91 
Q 1538 -91 948 565 
Q 359 1222 359 2328 
Q 359 3434 948 4092 
Q 1538 4750 2522 4750 
z
" transform="scale(0.015625)"/>
       <path id="DejaVuSans-30" d="M 628 4666 
L 1569 4666 
L 2759 1491 
L 3956 4666 
L 4897 4666 
L 4897 0 
L 4281 0 
L 4281 4097 
L 3078 897 
L 2444 897 
L 1241 4097 
L 1241 0 
L 628 0 
L 628 4666 
z
" transform="scale(0.015625)"/>
      </defs>
      <use xlink:href="#DejaVuSans-35"/>
      <use xlink:href="#DejaVuSans-44" transform="translate(67.28125 0)"/>
      <use xlink:href="#DejaVuSans-57" transform="translate(128.5625 0)"/>
      <use xlink:href="#DejaVuSans-48" transform="translate(167.765625 0)"/>
      <use xlink:href="#DejaVuSans-3" transform="translate(229.296875 0)"/>
      <use xlink:href="#DejaVuSans-52" transform="translate(261.078125 0)"/>
      <use xlink:href="#DejaVuSans-49" transform="translate(322.265625 0)"/>
      <use xlink:href="#DejaVuSans-3" transform="translate(357.46875 0)"/>
      <use xlink:href="#DejaVuSans-35" transform="translate(389.25 0)"/>
      <use xlink:href="#DejaVuSans-58" transform="translate(454.25 0)"/>
      <use xlink:href="#DejaVuSans-25" transform="translate(517.625 0)"/>
      <use xlink:href="#DejaVuSans-4c" transform="translate(586.234375 0)"/>
      <use xlink:href="#DejaVuSans-56" transform="translate(614.015625 0)"/>
      <use xlink:href="#DejaVuSans-26" transform="translate(666.109375 0)"/>
      <use xlink:href="#DejaVuSans-32" transform="translate(735.9375 0)"/>
      <use xlink:href="#DejaVuSans-3" transform="translate(814.65625 0)"/>
      <use xlink:href="#DejaVuSans-12" transform="translate(846.4375 0)"/>
      <use xlink:href="#DejaVuSans-3" transform="translate(880.125 0)"/>
      <use xlink:href="#DejaVuSans-b" transform="translate(911.90625 0)"/>
      <use xlink:href="#DejaVuSans-50" transform="translate(950.921875 0)"/>
      <use xlink:href="#DejaVuSans-30" transform="translate(1048.328125 0)"/>
      <use xlink:href="#DejaVuSans-3" transform="translate(1134.609375 0)"/>
      <use xlink:href="#DejaVuSans-12" transform="translate(1166.390625 0)"/>
      <use xlink:href="#DejaVuSans-3" transform="translate(1200.078125 0)"/>
      <use xlink:href="#DejaVuSans-56" transform="translate(1231.859375 0)"/>
      <use xlink:href="#DejaVuSans-c" transform="translate(1283.953125 0)"/>
     </g>
    </g>
   </g>
   <g id="line2d_29">
    <path d="M 425.262025 202.884315 
L 427.999793 65.243042 
L 430.737562 42.224513 
L 433.475331 39.053869 
L 436.213099 38.889469 
L 438.950868 39.175664 
L 441.688636 39.276256 
L 444.426405 39.281839 
L 447.164174 39.255295 
L 449.901942 39.221074 
L 452.639711 39.187457 
L 455.377479 223.324297 
L 458.115248 222.648106 
L 460.853017 223.342203 
L 463.590785 224.327008 
L 466.328554 225.339301 
L 469.066322 226.290609 
L 471.804091 227.128756 
L 474.54186 227.832385 
L 477.279628 228.407201 
L 480.017397 228.87242 
L 482.755165 91.883559 
L 485.492934 55.83804 
L 488.230702 42.429333 
L 490.968471 42.080231 
L 493.70624 42.169776 
L 496.444008 42.272764 
L 499.181777 42.233167 
L 501.919545 42.133793 
L 504.657314 42.019245 
L 507.395083 41.905818 
L 510.132851 223.498586 
L 512.87062 222.832105 
L 515.608388 223.517061 
L 518.346157 224.490816 
L 521.083926 225.488564 
L 523.821694 226.423571 
L 526.559463 227.246455 
L 529.297231 227.937288 
L 532.035 228.501709 
L 534.772769 228.958376 
L 537.510537 92.906761 
L 540.248306 57.479539 
L 542.986074 44.513881 
L 545.723843 43.947623 
L 548.461612 43.938152 
L 551.19938 43.98474 
L 553.937149 43.894802 
L 556.674917 43.747353 
L 559.412686 43.587082 
L 562.150455 43.430378 
L 564.888223 223.620676 
L 567.625992 222.956086 
L 570.36376 223.63117 
L 573.101529 224.595578 
L 575.839298 225.582177 
L 578.577066 226.50519 
L 581.314835 227.317119 
L 584.052603 227.999015 
L 586.790372 228.556412 
L 589.52814 229.007438 
L 592.265909 93.496872 
L 595.003678 58.40428 
L 597.741446 45.68844 
L 600.479215 45.018587 
L 603.216983 44.958669 
L 605.954752 44.974909 
L 608.692521 44.857844 
L 611.430289 44.684607 
L 614.168058 44.499841 
L 616.905826 44.319938 
L 619.643595 223.708153 
L 622.381364 223.040446 
L 625.119132 223.706475 
L 627.856901 224.6634 
L 630.594669 225.641663 
L 633.332438 226.556044 
L 636.070207 227.36037 
L 638.807975 228.036257 
L 641.545744 228.589043 
L 644.283512 229.036477 
L 647.021281 93.846137 
L 649.75905 58.953145 
L 652.496818 46.390591 
L 655.234587 45.665141 
L 657.972355 45.576983 
L 660.710124 45.575437 
L 663.447893 45.442433 
L 666.185661 45.254095 
L 668.92343 45.055 
L 671.661198 44.861522 
L 674.398967 223.769458 
L 677.136736 223.09729 
L 679.874504 223.756355 
L 682.612273 224.707788 
L 685.350041 225.680111 
L 688.08781 226.588471 
L 690.825579 227.387591 
L 693.563347 228.059448 
L 696.301116 228.609209 
L 699.038884 229.054315 
" clip-path="url(#p9d5b8b89e6)" style="fill: none; stroke: #000000; stroke-width: 3; stroke-linecap: square"/>
   </g>
   <g id="line2d_30">
    <path d="M 425.262025 202.884315 
L 427.999793 144.680845 
L 430.737562 145.138686 
L 433.475331 144.824091 
L 436.213099 144.520527 
L 438.950868 144.241479 
L 441.688636 143.984635 
L 444.426405 143.746092 
L 447.164174 143.522712 
L 449.901942 143.31224 
L 452.639711 143.113074 
L 455.377479 226.567491 
L 458.115248 227.268294 
L 460.853017 228.003519 
L 463.590785 228.591662 
L 466.328554 229.029907 
L 469.066322 229.354612 
L 471.804091 229.600775 
L 474.54186 229.791153 
L 477.279628 229.9381 
L 480.017397 230.04947 
L 482.755165 140.91114 
L 485.492934 142.441444 
L 488.230702 143.01097 
L 490.968471 142.877641 
L 493.70624 142.6779 
L 496.444008 142.486619 
L 499.181777 142.311266 
L 501.919545 142.149976 
L 504.657314 142.000069 
L 507.395083 141.859472 
L 510.132851 227.623832 
L 512.87062 228.191717 
L 515.608388 228.849709 
L 518.346157 229.413916 
L 521.083926 229.862435 
L 523.821694 230.208104 
L 526.559463 230.470431 
L 529.297231 230.669286 
L 532.035 230.819992 
L 534.772769 230.932889 
L 537.510537 138.42587 
L 540.248306 141.253606 
L 542.986074 141.95565 
L 545.723843 141.88431 
L 548.461612 141.735747 
L 551.19938 141.590365 
L 553.937149 141.457345 
L 556.674917 141.335582 
L 559.412686 141.222867 
L 562.150455 141.117413 
L 564.888223 228.306407 
L 567.625992 228.803724 
L 570.36376 229.418575 
L 573.101529 229.963924 
L 575.839298 230.412515 
L 578.577066 230.768316 
L 581.314835 231.041655 
L 584.052603 231.248052 
L 586.790372 231.402927 
L 589.52814 231.517965 
L 592.265909 136.199345 
L 595.003678 140.531128 
L 597.741446 141.325522 
L 600.479215 141.290989 
L 603.216983 141.172547 
L 605.954752 141.054163 
L 608.692521 140.946065 
L 611.430289 140.847624 
L 614.168058 140.756892 
L 616.905826 140.672245 
L 619.643595 228.751014 
L 622.381364 229.207718 
L 625.119132 229.796627 
L 627.856901 230.328487 
L 630.594669 230.774336 
L 633.332438 231.134855 
L 636.070207 231.415118 
L 638.807975 231.627142 
L 641.545744 231.785541 
L 644.283512 231.902592 
L 647.021281 134.248099 
L 649.75905 140.086396 
L 652.496818 140.944554 
L 655.234587 140.932377 
L 657.972355 140.83211 
L 660.710124 140.730015 
L 663.447893 140.636967 
L 666.185661 140.552622 
L 668.92343 140.475195 
L 671.661198 140.403158 
L 674.398967 229.042255 
L 677.136736 229.474528 
L 679.874504 230.047293 
L 682.612273 230.569819 
L 685.350041 231.012777 
L 688.08781 231.375562 
L 690.825579 231.660156 
L 693.563347 231.876144 
L 696.301116 232.03726 
L 699.038884 232.155989 
" clip-path="url(#p9d5b8b89e6)" style="fill: none; stroke: #ff0000; stroke-width: 3; stroke-linecap: square"/>
   </g>
   <g id="patch_18">
    <path d="M 411.573182 241.819315 
L 411.573182 29.226143 
" style="fill: none; stroke: #000000; stroke-width: 0.8; stroke-linejoin: miter; stroke-linecap: square"/>
   </g>
   <g id="patch_19">
    <path d="M 712.727727 241.819315 
L 712.727727 29.226143 
" style="fill: none; stroke: #000000; stroke-width: 0.8; stroke-linejoin: miter; stroke-linecap: square"/>
   </g>
   <g id="patch_20">
    <path d="M 411.573182 241.819315 
L 712.727727 241.819315 
" style="fill: none; stroke: #000000; stroke-width: 0.8; stroke-linejoin: miter; stroke-linecap: square"/>
   </g>
   <g id="patch_21">
    <path d="M 411.573182 29.226143 
L 712.727727 29.226143 
" style="fill: none; stroke: #000000; stroke-width: 0.8; stroke-linejoin: miter; stroke-linecap: square"/>
   </g>
   <g id="text_32">
    <!-- B -->
    <g transform="translate(366.4 18.596484) scale(0.15 -0.15)">
     <defs>
      <path id="DejaVuSans-Bold-25" d="M 2456 2859 
Q 2741 2859 2887 2984 
Q 3034 3109 3034 3353 
Q 3034 3594 2887 3720 
Q 2741 3847 2456 3847 
L 1791 3847 
L 1791 2859 
L 2456 2859 
z
M 2497 819 
Q 2859 819 3042 972 
Q 3225 1125 3225 1434 
Q 3225 1738 3044 1889 
Q 2863 2041 2497 2041 
L 1791 2041 
L 1791 819 
L 2497 819 
z
M 3616 2497 
Q 4003 2384 4215 2081 
Q 4428 1778 4428 1338 
Q 4428 663 3972 331 
Q 3516 0 2584 0 
L 588 0 
L 588 4666 
L 2394 4666 
Q 3366 4666 3802 4372 
Q 4238 4078 4238 3431 
Q 4238 3091 4078 2852 
Q 3919 2613 3616 2497 
z
" transform="scale(0.015625)"/>
     </defs>
     <use xlink:href="#DejaVuSans-Bold-25"/>
    </g>
   </g>
  </g>
 </g>
 <defs>
  <clipPath id="p7c9c189ab7">
   <rect x="52.373182" y="29.226143" width="301.154545" height="212.593172"/>
  </clipPath>
  <clipPath id="p9d5b8b89e6">
   <rect x="411.573182" y="29.226143" width="301.154545" height="212.593172"/>
  </clipPath>
 </defs>
</svg>
