<?xml version="1.0" encoding="utf-8" standalone="no"?>
<!DOCTYPE svg PUBLIC "-//W3C//DTD SVG 1.1//EN"
  "http://www.w3.org/Graphics/SVG/1.1/DTD/svg11.dtd">
<svg xmlns:xlink="http://www.w3.org/1999/xlink" width="460.8pt" height="345.6pt" viewBox="0 0 460.8 345.6" xmlns="http://www.w3.org/2000/svg" version="1.1">
 <metadata>
  <rdf:RDF xmlns:dc="http://purl.org/dc/elements/1.1/" xmlns:cc="http://creativecommons.org/ns#" xmlns:rdf="http://www.w3.org/1999/02/22-rdf-syntax-ns#">
   <cc:Work>
    <dc:type rdf:resource="http://purl.org/dc/dcmitype/StillImage"/>
    <dc:date>2026-07-13T09:40:09.775081</dc:date>
    <dc:format>image/svg+xml</dc:format>
    <dc:creator>
     <cc:Agent>
      <dc:title>Matplotlib v3.10.8, https://matplotlib.org/</dc:title>
     </cc:Agent>
    </dc:creator>
   </cc:Work>
  </rdf:RDF>
 </metadata>
 <defs>
  <style type="text/css">*{stroke-linejoin: round; stroke-linecap: butt}</style>
 </defs>
 <g id="figure_1">
  <g id="patch_1">
   <path d="M 0 345.6 
L 460.8 345.6 
L 460.8 0 
L 0 0 
z
" style="fill: #ffffff"/>
  </g>
  <g id="axes_1">
   <g id="patch_2">
    <path d="M 57.6 307.584 
L 414.72 307.584 
L 414.72 41.472 
L 57.6 41.472 
z
" style="fill: #ffffff"/>
   </g>
   <g id="matplotlib.axis_1">
    <g id="xtick_1">
     <g id="line2d_1">
      <defs>
       <path id="m08ebc4b170" d="M 0 0 
L 0 3.5 
" style="stroke: #000000; stroke-width: 0.8"/>
      </defs>
      <g>
       <use xlink:href="#m08ebc4b170" x="73.832727" y="307.584" style="stroke: #000000; stroke-width: 0.8"/>
      </g>
     </g>
     <g id="text_1">
      <!-- 0 -->
      <g transform="translate(70.651477 322.182437) scale(0.1 -0.1)">
       <defs>
        <path id="DejaVuSans-30" d="M 2034 4250 
Q 1547 4250 1301 3770 
Q 1056 3291 1056 2328 
Q 1056 1369 1301 889 
Q 1547 409 2034 409 
Q 2525 409 2770 889 
Q 3016 1369 3016 2328 
Q 3016 3291 2770 3770 
Q 2525 4250 2034 4250 
z
M 2034 4750 
Q 2819 4750 3233 4129 
Q 3647 3509 3647 2328 
Q 3647 1150 3233 529 
Q 2819 -91 2034 -91 
Q 1250 -91 836 529 
Q 422 1150 422 2328 
Q 422 3509 836 4129 
Q 1250 4750 2034 4750 
z
" transform="scale(0.015625)"/>
       </defs>
       <use xlink:href="#DejaVuSans-30"/>
      </g>
     </g>
    </g>
    <g id="xtick_2">
     <g id="line2d_2">
      <g>
       <use xlink:href="#m08ebc4b170" x="116.091698" y="307.584" style="stroke: #000000; stroke-width: 0.8"/>
      </g>
     </g>
     <g id="text_2">
      <!-- 200 -->
      <g transform="translate(106.547948 322.182437) scale(0.1 -0.1)">
       <defs>
        <path id="DejaVuSans-32" d="M 1228 531 
L 3431 531 
L 3431 0 
L 469 0 
L 469 531 
Q 828 903 1448 1529 
Q 2069 2156 2228 2338 
Q 2531 2678 2651 2914 
Q 2772 3150 2772 3378 
Q 2772 3750 2511 3984 
Q 2250 4219 1831 4219 
Q 1534 4219 1204 4116 
Q 875 4013 500 3803 
L 500 4441 
Q 881 4594 1212 4672 
Q 1544 4750 1819 4750 
Q 2544 4750 2975 4387 
Q 3406 4025 3406 3419 
Q 3406 3131 3298 2873 
Q 3191 2616 2906 2266 
Q 2828 2175 2409 1742 
Q 1991 1309 1228 531 
z
" transform="scale(0.015625)"/>
       </defs>
       <use xlink:href="#DejaVuSans-32"/>
       <use xlink:href="#DejaVuSans-30" transform="translate(63.623047 0)"/>
       <use xlink:href="#DejaVuSans-30" transform="translate(127.246094 0)"/>
      </g>
     </g>
    </g>
    <g id="xtick_3">
     <g id="line2d_3">
      <g>
       <use xlink:href="#m08ebc4b170" x="158.350669" y="307.584" style="stroke: #000000; stroke-width: 0.8"/>
      </g>
     </g>
     <g id="text_3">
      <!-- 400 -->
      <g transform="translate(148.806919 322.182437) scale(0.1 -0.1)">
       <defs>
        <path id="DejaVuSans-34" d="M 2419 4116 
L 825 1625 
L 2419 1625 
L 2419 4116 
z
M 2253 4666 
L 3047 4666 
L 3047 1625 
L 3713 1625 
L 3713 1100 
L 3047 1100 
L 3047 0 
L 2419 0 
L 2419 1100 
L 313 1100 
L 313 1709 
L 2253 4666 
z
" transform="scale(0.015625)"/>
       </defs>
       <use xlink:href="#DejaVuSans-34"/>
       <use xlink:href="#DejaVuSans-30" transform="translate(63.623047 0)"/>
       <use xlink:href="#DejaVuSans-30" transform="translate(127.246094 0)"/>
      </g>
     </g>
    </g>
    <g id="xtick_4">
     <g id="line2d_4">
      <g>
       <use xlink:href="#m08ebc4b170" x="200.609641" y="307.584" style="stroke: #000000; stroke-width: 0.8"/>
      </g>
     </g>
     <g id="text_4">
      <!-- 600 -->
      <g transform="translate(191.065891 322.182437) scale(0.1 -0.1)">
       <defs>
        <path id="DejaVuSans-36" d="M 2113 2584 
Q 1688 2584 1439 2293 
Q 1191 2003 1191 1497 
Q 1191 994 1439 701 
Q 1688 409 2113 409 
Q 2538 409 2786 701 
Q 3034 994 3034 1497 
Q 3034 2003 2786 2293 
Q 2538 2584 2113 2584 
z
M 3366 4563 
L 3366 3988 
Q 3128 4100 2886 4159 
Q 2644 4219 2406 4219 
Q 1781 4219 1451 3797 
Q 1122 3375 1075 2522 
Q 1259 2794 1537 2939 
Q 1816 3084 2150 3084 
Q 2853 3084 3261 2657 
Q 3669 2231 3669 1497 
Q 3669 778 3244 343 
Q 2819 -91 2113 -91 
Q 1303 -91 875 529 
Q 447 1150 447 2328 
Q 447 3434 972 4092 
Q 1497 4750 2381 4750 
Q 2619 4750 2861 4703 
Q 3103 4656 3366 4563 
z
" transform="scale(0.015625)"/>
       </defs>
       <use xlink:href="#DejaVuSans-36"/>
       <use xlink:href="#DejaVuSans-30" transform="translate(63.623047 0)"/>
       <use xlink:href="#DejaVuSans-30" transform="translate(127.246094 0)"/>
      </g>
     </g>
    </g>
    <g id="xtick_5">
     <g id="line2d_5">
      <g>
       <use xlink:href="#m08ebc4b170" x="242.868612" y="307.584" style="stroke: #000000; stroke-width: 0.8"/>
      </g>
     </g>
     <g id="text_5">
      <!-- 800 -->
      <g transform="translate(233.324862 322.182437) scale(0.1 -0.1)">
       <defs>
        <path id="DejaVuSans-38" d="M 2034 2216 
Q 1584 2216 1326 1975 
Q 1069 1734 1069 1313 
Q 1069 891 1326 650 
Q 1584 409 2034 409 
Q 2484 409 2743 651 
Q 3003 894 3003 1313 
Q 3003 1734 2745 1975 
Q 2488 2216 2034 2216 
z
M 1403 2484 
Q 997 2584 770 2862 
Q 544 3141 544 3541 
Q 544 4100 942 4425 
Q 1341 4750 2034 4750 
Q 2731 4750 3128 4425 
Q 3525 4100 3525 3541 
Q 3525 3141 3298 2862 
Q 3072 2584 2669 2484 
Q 3125 2378 3379 2068 
Q 3634 1759 3634 1313 
Q 3634 634 3220 271 
Q 2806 -91 2034 -91 
Q 1263 -91 848 271 
Q 434 634 434 1313 
Q 434 1759 690 2068 
Q 947 2378 1403 2484 
z
M 1172 3481 
Q 1172 3119 1398 2916 
Q 1625 2713 2034 2713 
Q 2441 2713 2670 2916 
Q 2900 3119 2900 3481 
Q 2900 3844 2670 4047 
Q 2441 4250 2034 4250 
Q 1625 4250 1398 4047 
Q 1172 3844 1172 3481 
z
" transform="scale(0.015625)"/>
       </defs>
       <use xlink:href="#DejaVuSans-38"/>
       <use xlink:href="#DejaVuSans-30" transform="translate(63.623047 0)"/>
       <use xlink:href="#DejaVuSans-30" transform="translate(127.246094 0)"/>
      </g>
     </g>
    </g>
    <g id="xtick_6">
     <g id="line2d_6">
      <g>
       <use xlink:href="#m08ebc4b170" x="285.127583" y="307.584" style="stroke: #000000; stroke-width: 0.8"/>
      </g>
     </g>
     <g id="text_6">
      <!-- 1000 -->
      <g transform="translate(272.402583 322.182437) scale(0.1 -0.1)">
       <defs>
        <path id="DejaVuSans-31" d="M 794 531 
L 1825 531 
L 1825 4091 
L 703 3866 
L 703 4441 
L 1819 4666 
L 2450 4666 
L 2450 531 
L 3481 531 
L 3481 0 
L 794 0 
L 794 531 
z
" transform="scale(0.015625)"/>
       </defs>
       <use xlink:href="#DejaVuSans-31"/>
       <use xlink:href="#DejaVuSans-30" transform="translate(63.623047 0)"/>
       <use xlink:href="#DejaVuSans-30" transform="translate(127.246094 0)"/>
       <use xlink:href="#DejaVuSans-30" transform="translate(190.869141 0)"/>
      </g>
     </g>
    </g>
    <g id="xtick_7">
     <g id="line2d_7">
      <g>
       <use xlink:href="#m08ebc4b170" x="327.386554" y="307.584" style="stroke: #000000; stroke-width: 0.8"/>
      </g>
     </g>
     <g id="text_7">
      <!-- 1200 -->
      <g transform="translate(314.661554 322.182437) scale(0.1 -0.1)">
       <use xlink:href="#DejaVuSans-31"/>
       <use xlink:href="#DejaVuSans-32" transform="translate(63.623047 0)"/>
       <use xlink:href="#DejaVuSans-30" transform="translate(127.246094 0)"/>
       <use xlink:href="#DejaVuSans-30" transform="translate(190.869141 0)"/>
      </g>
     </g>
    </g>
    <g id="xtick_8">
     <g id="line2d_8">
      <g>
       <use xlink:href="#m08ebc4b170" x="369.645525" y="307.584" style="stroke: #000000; stroke-width: 0.8"/>
      </g>
     </g>
     <g id="text_8">
      <!-- 1400 -->
      <g transform="translate(356.920525 322.182437) scale(0.1 -0.1)">
       <use xlink:href="#DejaVuSans-31"/>
       <use xlink:href="#DejaVuSans-34" transform="translate(63.623047 0)"/>
       <use xlink:href="#DejaVuSans-30" transform="translate(127.246094 0)"/>
       <use xlink:href="#DejaVuSans-30" transform="translate(190.869141 0)"/>
      </g>
     </g>
    </g>
    <g id="xtick_9">
     <g id="line2d_9">
      <g>
       <use xlink:href="#m08ebc4b170" x="411.904496" y="307.584" style="stroke: #000000; stroke-width: 0.8"/>
      </g>
     </g>
     <g id="text_9">
      <!-- 1600 -->
      <g transform="translate(399.179496 322.182437) scale(0.1 -0.1)">
       <use xlink:href="#DejaVuSans-31"/>
       <use xlink:href="#DejaVuSans-36" transform="translate(63.623047 0)"/>
       <use xlink:href="#DejaVuSans-30" transform="translate(127.246094 0)"/>
       <use xlink:href="#DejaVuSans-30" transform="translate(190.869141 0)"/>
      </g>
     </g>
    </g>
    <g id="text_10">
     <!-- Time (s) -->
     <g transform="translate(215.831094 335.860562) scale(0.1 -0.1)">
      <defs>
       <path id="DejaVuSans-54" d="M -19 4666 
L 3928 4666 
L 3928 4134 
L 2272 4134 
L 2272 0 
L 1638 0 
L 1638 4134 
L -19 4134 
L -19 4666 
z
" transform="scale(0.015625)"/>
       <path id="DejaVuSans-69" d="M 603 3500 
L 1178 3500 
L 1178 0 
L 603 0 
L 603 3500 
z
M 603 4863 
L 1178 4863 
L 1178 4134 
L 603 4134 
L 603 4863 
z
" transform="scale(0.015625)"/>
       <path id="DejaVuSans-6d" d="M 3328 2828 
Q 3544 3216 3844 3400 
Q 4144 3584 4550 3584 
Q 5097 3584 5394 3201 
Q 5691 2819 5691 2113 
L 5691 0 
L 5113 0 
L 5113 2094 
Q 5113 2597 4934 2840 
Q 4756 3084 4391 3084 
Q 3944 3084 3684 2787 
Q 3425 2491 3425 1978 
L 3425 0 
L 2847 0 
L 2847 2094 
Q 2847 2600 2669 2842 
Q 2491 3084 2119 3084 
Q 1678 3084 1418 2786 
Q 1159 2488 1159 1978 
L 1159 0 
L 581 0 
L 581 3500 
L 1159 3500 
L 1159 2956 
Q 1356 3278 1631 3431 
Q 1906 3584 2284 3584 
Q 2666 3584 2933 3390 
Q 3200 3197 3328 2828 
z
" transform="scale(0.015625)"/>
       <path id="DejaVuSans-65" d="M 3597 1894 
L 3597 1613 
L 953 1613 
Q 991 1019 1311 708 
Q 1631 397 2203 397 
Q 2534 397 2845 478 
Q 3156 559 3463 722 
L 3463 178 
Q 3153 47 2828 -22 
Q 2503 -91 2169 -91 
Q 1331 -91 842 396 
Q 353 884 353 1716 
Q 353 2575 817 3079 
Q 1281 3584 2069 3584 
Q 2775 3584 3186 3129 
Q 3597 2675 3597 1894 
z
M 3022 2063 
Q 3016 2534 2758 2815 
Q 2500 3097 2075 3097 
Q 1594 3097 1305 2825 
Q 1016 2553 972 2059 
L 3022 2063 
z
" transform="scale(0.015625)"/>
       <path id="DejaVuSans-20" transform="scale(0.015625)"/>
       <path id="DejaVuSans-28" d="M 1984 4856 
Q 1566 4138 1362 3434 
Q 1159 2731 1159 2009 
Q 1159 1288 1364 580 
Q 1569 -128 1984 -844 
L 1484 -844 
Q 1016 -109 783 600 
Q 550 1309 550 2009 
Q 550 2706 781 3412 
Q 1013 4119 1484 4856 
L 1984 4856 
z
" transform="scale(0.015625)"/>
       <path id="DejaVuSans-73" d="M 2834 3397 
L 2834 2853 
Q 2591 2978 2328 3040 
Q 2066 3103 1784 3103 
Q 1356 3103 1142 2972 
Q 928 2841 928 2578 
Q 928 2378 1081 2264 
Q 1234 2150 1697 2047 
L 1894 2003 
Q 2506 1872 2764 1633 
Q 3022 1394 3022 966 
Q 3022 478 2636 193 
Q 2250 -91 1575 -91 
Q 1294 -91 989 -36 
Q 684 19 347 128 
L 347 722 
Q 666 556 975 473 
Q 1284 391 1588 391 
Q 1994 391 2212 530 
Q 2431 669 2431 922 
Q 2431 1156 2273 1281 
Q 2116 1406 1581 1522 
L 1381 1569 
Q 847 1681 609 1914 
Q 372 2147 372 2553 
Q 372 3047 722 3315 
Q 1072 3584 1716 3584 
Q 2034 3584 2315 3537 
Q 2597 3491 2834 3397 
z
" transform="scale(0.015625)"/>
       <path id="DejaVuSans-29" d="M 513 4856 
L 1013 4856 
Q 1481 4119 1714 3412 
Q 1947 2706 1947 2009 
Q 1947 1309 1714 600 
Q 1481 -109 1013 -844 
L 513 -844 
Q 928 -128 1133 580 
Q 1338 1288 1338 2009 
Q 1338 2731 1133 3434 
Q 928 4138 513 4856 
z
" transform="scale(0.015625)"/>
      </defs>
      <use xlink:href="#DejaVuSans-54"/>
      <use xlink:href="#DejaVuSans-69" transform="translate(57.958984 0)"/>
      <use xlink:href="#DejaVuSans-6d" transform="translate(85.742188 0)"/>
      <use xlink:href="#DejaVuSans-65" transform="translate(183.154297 0)"/>
      <use xlink:href="#DejaVuSans-20" transform="translate(244.677734 0)"/>
      <use xlink:href="#DejaVuSans-28" transform="translate(276.464844 0)"/>
      <use xlink:href="#DejaVuSans-73" transform="translate(315.478516 0)"/>
      <use xlink:href="#DejaVuSans-29" transform="translate(367.578125 0)"/>
     </g>
    </g>
   </g>
   <g id="matplotlib.axis_2">
    <g id="ytick_1">
     <g id="line2d_10">
      <defs>
       <path id="m08ad47eab6" d="M 0 0 
L -3.5 0 
" style="stroke: #000000; stroke-width: 0.8"/>
      </defs>
      <g>
       <use xlink:href="#m08ad47eab6" x="57.6" y="292.163964" style="stroke: #000000; stroke-width: 0.8"/>
      </g>
     </g>
     <g id="text_11">
      <!-- 5.25 -->
      <g transform="translate(28.334375 295.963183) scale(0.1 -0.1)">
       <defs>
        <path id="DejaVuSans-35" d="M 691 4666 
L 3169 4666 
L 3169 4134 
L 1269 4134 
L 1269 2991 
Q 1406 3038 1543 3061 
Q 1681 3084 1819 3084 
Q 2600 3084 3056 2656 
Q 3513 2228 3513 1497 
Q 3513 744 3044 326 
Q 2575 -91 1722 -91 
Q 1428 -91 1123 -41 
Q 819 9 494 109 
L 494 744 
Q 775 591 1075 516 
Q 1375 441 1709 441 
Q 2250 441 2565 725 
Q 2881 1009 2881 1497 
Q 2881 1984 2565 2268 
Q 2250 2553 1709 2553 
Q 1456 2553 1204 2497 
Q 953 2441 691 2322 
L 691 4666 
z
" transform="scale(0.015625)"/>
        <path id="DejaVuSans-2e" d="M 684 794 
L 1344 794 
L 1344 0 
L 684 0 
L 684 794 
z
" transform="scale(0.015625)"/>
       </defs>
       <use xlink:href="#DejaVuSans-35"/>
       <use xlink:href="#DejaVuSans-2e" transform="translate(63.623047 0)"/>
       <use xlink:href="#DejaVuSans-32" transform="translate(95.410156 0)"/>
       <use xlink:href="#DejaVuSans-35" transform="translate(159.033203 0)"/>
      </g>
     </g>
    </g>
    <g id="ytick_2">
     <g id="line2d_11">
      <g>
       <use xlink:href="#m08ad47eab6" x="57.6" y="261.574738" style="stroke: #000000; stroke-width: 0.8"/>
      </g>
     </g>
     <g id="text_12">
      <!-- 5.50 -->
      <g transform="translate(28.334375 265.373957) scale(0.1 -0.1)">
       <use xlink:href="#DejaVuSans-35"/>
       <use xlink:href="#DejaVuSans-2e" transform="translate(63.623047 0)"/>
       <use xlink:href="#DejaVuSans-35" transform="translate(95.410156 0)"/>
       <use xlink:href="#DejaVuSans-30" transform="translate(159.033203 0)"/>
      </g>
     </g>
    </g>
    <g id="ytick_3">
     <g id="line2d_12">
      <g>
       <use xlink:href="#m08ad47eab6" x="57.6" y="230.985512" style="stroke: #000000; stroke-width: 0.8"/>
      </g>
     </g>
     <g id="text_13">
      <!-- 5.75 -->
      <g transform="translate(28.334375 234.78473) scale(0.1 -0.1)">
       <defs>
        <path id="DejaVuSans-37" d="M 525 4666 
L 3525 4666 
L 3525 4397 
L 1831 0 
L 1172 0 
L 2766 4134 
L 525 4134 
L 525 4666 
z
" transform="scale(0.015625)"/>
       </defs>
       <use xlink:href="#DejaVuSans-35"/>
       <use xlink:href="#DejaVuSans-2e" transform="translate(63.623047 0)"/>
       <use xlink:href="#DejaVuSans-37" transform="translate(95.410156 0)"/>
       <use xlink:href="#DejaVuSans-35" transform="translate(159.033203 0)"/>
      </g>
     </g>
    </g>
    <g id="ytick_4">
     <g id="line2d_13">
      <g>
       <use xlink:href="#m08ad47eab6" x="57.6" y="200.396286" style="stroke: #000000; stroke-width: 0.8"/>
      </g>
     </g>
     <g id="text_14">
      <!-- 6.00 -->
      <g transform="translate(28.334375 204.195504) scale(0.1 -0.1)">
       <use xlink:href="#DejaVuSans-36"/>
       <use xlink:href="#DejaVuSans-2e" transform="translate(63.623047 0)"/>
       <use xlink:href="#DejaVuSans-30" transform="translate(95.410156 0)"/>
       <use xlink:href="#DejaVuSans-30" transform="translate(159.033203 0)"/>
      </g>
     </g>
    </g>
    <g id="ytick_5">
     <g id="line2d_14">
      <g>
       <use xlink:href="#m08ad47eab6" x="57.6" y="169.807059" style="stroke: #000000; stroke-width: 0.8"/>
      </g>
     </g>
     <g id="text_15">
      <!-- 6.25 -->
      <g transform="translate(28.334375 173.606278) scale(0.1 -0.1)">
       <use xlink:href="#DejaVuSans-36"/>
       <use xlink:href="#DejaVuSans-2e" transform="translate(63.623047 0)"/>
       <use xlink:href="#DejaVuSans-32" transform="translate(95.410156 0)"/>
       <use xlink:href="#DejaVuSans-35" transform="translate(159.033203 0)"/>
      </g>
     </g>
    </g>
    <g id="ytick_6">
     <g id="line2d_15">
      <g>
       <use xlink:href="#m08ad47eab6" x="57.6" y="139.217833" style="stroke: #000000; stroke-width: 0.8"/>
      </g>
     </g>
     <g id="text_16">
      <!-- 6.50 -->
      <g transform="translate(28.334375 143.017052) scale(0.1 -0.1)">
       <use xlink:href="#DejaVuSans-36"/>
       <use xlink:href="#DejaVuSans-2e" transform="translate(63.623047 0)"/>
       <use xlink:href="#DejaVuSans-35" transform="translate(95.410156 0)"/>
       <use xlink:href="#DejaVuSans-30" transform="translate(159.033203 0)"/>
      </g>
     </g>
    </g>
    <g id="ytick_7">
     <g id="line2d_16">
      <g>
       <use xlink:href="#m08ad47eab6" x="57.6" y="108.628607" style="stroke: #000000; stroke-width: 0.8"/>
      </g>
     </g>
     <g id="text_17">
      <!-- 6.75 -->
      <g transform="translate(28.334375 112.427826) scale(0.1 -0.1)">
       <use xlink:href="#DejaVuSans-36"/>
       <use xlink:href="#DejaVuSans-2e" transform="translate(63.623047 0)"/>
       <use xlink:href="#DejaVuSans-37" transform="translate(95.410156 0)"/>
       <use xlink:href="#DejaVuSans-35" transform="translate(159.033203 0)"/>
      </g>
     </g>
    </g>
    <g id="ytick_8">
     <g id="line2d_17">
      <g>
       <use xlink:href="#m08ad47eab6" x="57.6" y="78.039381" style="stroke: #000000; stroke-width: 0.8"/>
      </g>
     </g>
     <g id="text_18">
      <!-- 7.00 -->
      <g transform="translate(28.334375 81.8386) scale(0.1 -0.1)">
       <use xlink:href="#DejaVuSans-37"/>
       <use xlink:href="#DejaVuSans-2e" transform="translate(63.623047 0)"/>
       <use xlink:href="#DejaVuSans-30" transform="translate(95.410156 0)"/>
       <use xlink:href="#DejaVuSans-30" transform="translate(159.033203 0)"/>
      </g>
     </g>
    </g>
    <g id="ytick_9">
     <g id="line2d_18">
      <g>
       <use xlink:href="#m08ad47eab6" x="57.6" y="47.450155" style="stroke: #000000; stroke-width: 0.8"/>
      </g>
     </g>
     <g id="text_19">
      <!-- 7.25 -->
      <g transform="translate(28.334375 51.249374) scale(0.1 -0.1)">
       <use xlink:href="#DejaVuSans-37"/>
       <use xlink:href="#DejaVuSans-2e" transform="translate(63.623047 0)"/>
       <use xlink:href="#DejaVuSans-32" transform="translate(95.410156 0)"/>
       <use xlink:href="#DejaVuSans-35" transform="translate(159.033203 0)"/>
      </g>
     </g>
    </g>
    <g id="text_20">
     <!-- pH lumen -->
     <g transform="translate(22.254687 198.724875) rotate(-90) scale(0.1 -0.1)">
      <defs>
       <path id="DejaVuSans-70" d="M 1159 525 
L 1159 -1331 
L 581 -1331 
L 581 3500 
L 1159 3500 
L 1159 2969 
Q 1341 3281 1617 3432 
Q 1894 3584 2278 3584 
Q 2916 3584 3314 3078 
Q 3713 2572 3713 1747 
Q 3713 922 3314 415 
Q 2916 -91 2278 -91 
Q 1894 -91 1617 61 
Q 1341 213 1159 525 
z
M 3116 1747 
Q 3116 2381 2855 2742 
Q 2594 3103 2138 3103 
Q 1681 3103 1420 2742 
Q 1159 2381 1159 1747 
Q 1159 1113 1420 752 
Q 1681 391 2138 391 
Q 2594 391 2855 752 
Q 3116 1113 3116 1747 
z
" transform="scale(0.015625)"/>
       <path id="DejaVuSans-48" d="M 628 4666 
L 1259 4666 
L 1259 2753 
L 3553 2753 
L 3553 4666 
L 4184 4666 
L 4184 0 
L 3553 0 
L 3553 2222 
L 1259 2222 
L 1259 0 
L 628 0 
L 628 4666 
z
" transform="scale(0.015625)"/>
       <path id="DejaVuSans-6c" d="M 603 4863 
L 1178 4863 
L 1178 0 
L 603 0 
L 603 4863 
z
" transform="scale(0.015625)"/>
       <path id="DejaVuSans-75" d="M 544 1381 
L 544 3500 
L 1119 3500 
L 1119 1403 
Q 1119 906 1312 657 
Q 1506 409 1894 409 
Q 2359 409 2629 706 
Q 2900 1003 2900 1516 
L 2900 3500 
L 3475 3500 
L 3475 0 
L 2900 0 
L 2900 538 
Q 2691 219 2414 64 
Q 2138 -91 1772 -91 
Q 1169 -91 856 284 
Q 544 659 544 1381 
z
M 1991 3584 
L 1991 3584 
z
" transform="scale(0.015625)"/>
       <path id="DejaVuSans-6e" d="M 3513 2113 
L 3513 0 
L 2938 0 
L 2938 2094 
Q 2938 2591 2744 2837 
Q 2550 3084 2163 3084 
Q 1697 3084 1428 2787 
Q 1159 2491 1159 1978 
L 1159 0 
L 581 0 
L 581 3500 
L 1159 3500 
L 1159 2956 
Q 1366 3272 1645 3428 
Q 1925 3584 2291 3584 
Q 2894 3584 3203 3211 
Q 3513 2838 3513 2113 
z
" transform="scale(0.015625)"/>
      </defs>
      <use xlink:href="#DejaVuSans-70"/>
      <use xlink:href="#DejaVuSans-48" transform="translate(63.476562 0)"/>
      <use xlink:href="#DejaVuSans-20" transform="translate(138.671875 0)"/>
      <use xlink:href="#DejaVuSans-6c" transform="translate(170.458984 0)"/>
      <use xlink:href="#DejaVuSans-75" transform="translate(198.242188 0)"/>
      <use xlink:href="#DejaVuSans-6d" transform="translate(261.621094 0)"/>
      <use xlink:href="#DejaVuSans-65" transform="translate(359.033203 0)"/>
      <use xlink:href="#DejaVuSans-6e" transform="translate(420.556641 0)"/>
     </g>
    </g>
   </g>
   <g id="line2d_19">
    <path d="M 73.832727 53.568 
L 79.470074 53.586194 
L 86.087829 53.607512 
L 86.199815 136.772004 
L 86.218832 134.644221 
L 86.39315 124.893131 
L 87.144303 109.813632 
L 88.031742 96.607987 
L 88.91918 86.853203 
L 89.806618 79.553166 
L 90.694057 74.043158 
L 91.581495 69.857443 
L 92.468934 66.660978 
L 93.356372 64.208767 
L 94.370587 62.087399 
L 95.384803 60.504879 
L 96.399018 59.318444 
L 97.54001 58.329386 
L 98.807779 57.538079 
L 99.18811 57.348693 
L 99.323339 147.998787 
L 99.604361 206.268213 
L 100.033289 247.939496 
L 100.447427 271.590545 
L 100.903824 282.938434 
L 101.358108 289.472629 
L 101.816618 293.256101 
L 102.215965 294.958236 
L 102.496987 295.400001 
L 102.724129 295.36226 
L 103.124533 294.627004 
L 103.646431 293.090166 
L 104.607823 289.433396 
L 105.788961 284.002667 
L 108.711169 270.639351 
L 110.75439 262.376104 
L 112.66027 255.567731 
L 114.528116 249.722817 
L 116.296654 244.897862 
L 118.054628 240.735536 
L 119.768229 237.23476 
L 121.471265 234.244357 
L 123.184867 231.676006 
L 124.860435 229.538244 
L 124.861491 229.668012 
L 124.969252 229.356467 
L 124.981929 229.398059 
L 125.070673 229.299832 
L 126.766314 227.500489 
L 128.029858 226.348033 
L 128.030914 226.490639 
L 128.138675 226.198832 
L 128.154522 226.247046 
L 128.246435 226.172015 
L 130.018142 224.814362 
L 131.199281 224.041262 
L 131.200337 224.193943 
L 131.308097 223.916063 
L 131.323945 223.970096 
L 131.419027 223.915125 
L 133.379843 222.847693 
L 134.368703 222.39037 
L 134.36976 222.550672 
L 134.47752 222.283033 
L 134.496537 222.341401 
L 134.58845 222.302937 
L 136.743658 221.475798 
L 139.34681 220.709526 
L 140.707549 220.388972 
L 140.708606 220.559049 
L 140.816366 220.303955 
L 140.841721 220.368232 
L 140.930465 220.348973 
L 143.792454 219.820249 
L 147.046395 219.398988 
L 147.047451 219.574231 
L 147.155212 219.320704 
L 147.202753 219.38742 
L 147.27248 219.379764 
L 151.551201 219.021444 
L 153.38524 218.915107 
L 153.386297 219.093044 
L 153.494057 218.839686 
L 153.611326 218.905979 
L 159.724086 218.680249 
L 159.725143 218.85959 
L 159.832903 218.606201 
L 159.950172 218.675984 
L 169.828206 218.529329 
L 172.401777 218.511709 
L 172.402834 218.692169 
L 172.510594 218.438591 
L 172.627863 218.510816 
L 185.079469 218.472416 
L 185.080525 218.653192 
L 185.188286 218.399506 
L 185.305554 218.472303 
L 197.75716 218.463241 
L 197.758216 218.64411 
L 197.865977 218.390377 
L 197.983246 218.463311 
L 210.434851 218.461092 
L 210.435908 218.641988 
L 210.543668 218.388237 
L 210.660937 218.461205 
L 223.112543 218.460586 
L 223.113599 218.641491 
L 223.22136 218.387734 
L 223.338628 218.46071 
L 235.790234 218.460466 
L 235.79129 218.641374 
L 235.899051 218.387614 
L 236.016319 218.460593 
L 248.467925 218.460438 
L 248.468982 218.641346 
L 248.576742 218.387586 
L 248.694011 218.460565 
L 248.890515 218.460502 
L 249.097584 184.575222 
L 249.585675 136.271501 
L 250.103348 105.860675 
L 250.369579 95.26495 
L 250.370636 98.433913 
L 250.475226 122.28037 
L 250.494243 115.727797 
L 250.719272 104.462858 
L 251.235888 86.646667 
L 251.768351 75.355877 
L 252.271233 68.697975 
L 252.37688 100.829458 
L 252.389558 95.393615 
L 252.529012 89.901304 
L 253.048798 77.591747 
L 253.581261 69.759594 
L 254.113724 64.881888 
L 254.646187 61.822356 
L 255.17865 59.892378 
L 255.711113 58.696819 
L 256.302739 57.88502 
L 257.012689 57.307406 
L 257.900128 56.891369 
L 258.610078 56.678856 
L 258.715726 90.894916 
L 258.728404 85.134335 
L 258.85835 80.843844 
L 259.387643 71.641899 
L 259.920106 65.868042 
L 260.45257 62.243058 
L 260.985033 59.952529 
L 261.576658 58.37095 
L 262.168284 57.405976 
L 262.819072 56.767279 
L 263.588185 56.337555 
L 264.653111 56.028021 
L 264.948924 55.973195 
L 265.054571 91.368676 
L 265.067249 85.275001 
L 265.197196 80.731117 
L 265.726489 71.468734 
L 266.258952 65.650717 
L 266.791415 61.993374 
L 267.323878 59.680879 
L 267.915504 58.085403 
L 268.507129 57.115446 
L 269.157918 56.476169 
L 269.927031 56.048594 
L 270.932794 55.764858 
L 271.28777 55.70493 
L 271.393417 92.911454 
L 271.406095 86.548015 
L 271.536041 81.64524 
L 271.955461 73.681228 
L 272.445666 67.446874 
L 273.058421 62.60173 
L 273.671176 59.736579 
L 274.283931 58.032249 
L 274.896686 57.013004 
L 275.509441 56.399819 
L 276.244747 55.973312 
L 277.225155 55.682082 
L 278.695767 55.50113 
L 281.882094 55.387647 
L 283.965461 55.356973 
L 284.071108 97.141466 
L 284.086956 89.323819 
L 284.220071 84.348842 
L 284.755704 73.783008 
L 285.368459 66.41628 
L 285.981214 62.035908 
L 286.593969 59.412278 
L 287.206724 57.83284 
L 287.819479 56.877878 
L 288.432234 56.297878 
L 289.16754 55.891328 
L 290.147949 55.612711 
L 291.741112 55.434108 
L 295.17254 55.341261 
L 296.643152 55.326746 
L 296.7488 102.081833 
L 296.764647 93.724054 
L 296.897763 87.867804 
L 297.433395 76.245681 
L 298.04615 68.059581 
L 298.658905 63.131698 
L 299.27166 60.141592 
L 299.884415 58.317477 
L 300.497171 57.199783 
L 301.109926 56.511976 
L 301.845232 56.023252 
L 302.82564 55.68316 
L 304.173701 55.482126 
L 306.747272 55.367355 
L 309.320844 55.332582 
L 309.426491 107.153757 
L 309.442338 98.383838 
L 309.572285 91.641146 
L 310.111086 78.894033 
L 310.723842 69.881556 
L 311.336597 64.383366 
L 311.949352 61.000057 
L 312.562107 58.906068 
L 313.174862 57.604086 
L 313.787617 56.791006 
L 314.522923 56.204081 
L 315.38078 55.824955 
L 316.60629 55.566251 
L 318.567107 55.417656 
L 321.998535 55.346475 
L 322.104182 112.105495 
L 322.123199 101.935591 
L 322.259484 95.008254 
L 322.788778 81.607436 
L 323.401533 71.805988 
L 324.014288 65.74217 
L 324.627043 61.955703 
L 325.239798 59.57669 
L 325.852553 58.074757 
L 326.465308 57.122323 
L 327.200614 56.423364 
L 328.058471 55.963206 
L 329.161431 55.663586 
L 330.877145 55.47428 
L 334.431124 55.366847 
L 334.676226 55.363368 
L 334.781874 116.670114 
L 334.80089 106.318102 
L 334.934006 98.57568 
L 335.466469 84.275033 
L 336.079224 73.763534 
L 336.691979 67.165667 
L 337.304734 62.983283 
L 337.917489 60.314812 
L 338.530245 58.603725 
L 339.143 57.501585 
L 339.878306 56.679049 
L 340.613612 56.18728 
L 341.59402 55.819592 
L 342.942081 55.580223 
L 345.27055 55.431621 
L 347.353918 55.382084 
L 347.459565 120.563894 
L 347.478582 110.312504 
L 347.611697 101.69183 
L 348.14416 86.778953 
L 348.756916 75.675845 
L 349.369671 68.602902 
L 349.982426 64.050554 
L 350.595181 61.100682 
L 351.207936 59.179342 
L 351.820691 57.922232 
L 352.433446 57.095957 
L 353.168752 56.465293 
L 354.026609 56.030054 
L 355.129568 55.729728 
L 356.845283 55.524389 
L 360.031609 55.401978 
L 360.137256 123.63755 
L 360.156273 113.769052 
L 360.292558 104.253805 
L 360.821852 89.045456 
L 361.434607 77.487822 
L 362.047362 70.014634 
L 362.660117 65.130774 
L 363.272872 61.916851 
L 363.885627 59.790749 
L 364.498382 58.377879 
L 365.111137 57.434792 
L 365.846443 56.703059 
L 366.704301 56.188603 
L 367.80726 55.826308 
L 369.400423 55.584787 
L 372.219096 55.435659 
L 372.7093 55.422702 
L 372.814948 125.973266 
L 372.837134 115.468849 
L 372.976588 106.292507 
L 373.499543 91.081424 
L 374.112298 79.193951 
L 374.725053 71.39219 
L 375.337808 66.216059 
L 375.950563 62.757557 
L 376.563319 60.434429 
L 377.176074 58.866883 
L 377.91138 57.637016 
L 378.646686 56.860846 
L 379.504543 56.3042 
L 380.484951 55.93606 
L 381.833012 55.67301 
L 384.038931 55.494689 
L 385.386992 55.444478 
L 385.492639 127.763848 
L 385.514825 117.936051 
L 385.65428 108.240335 
L 386.177234 92.936625 
L 386.78999 80.817047 
L 387.402745 72.745466 
L 388.0155 67.310591 
L 388.628255 63.624859 
L 389.24101 61.111961 
L 389.853765 59.390985 
L 390.589071 58.018963 
L 391.324377 57.137941 
L 392.182234 56.494758 
L 393.162642 56.061258 
L 394.510704 55.745481 
L 396.47152 55.543371 
L 398.064683 55.468001 
L 398.17033 129.178665 
L 398.192516 120.078786 
L 398.331971 109.960564 
L 398.487273 104.821607 
L 398.487273 104.821607 
" clip-path="url(#p4b2a18a24b)" style="fill: none; stroke: #960000; stroke-width: 4; stroke-linecap: square"/>
   </g>
   <g id="line2d_20">
    <path d="M 73.832727 53.568 
L 79.470074 53.586188 
L 86.087829 53.607493 
L 86.199815 136.754762 
L 86.218832 134.628755 
L 86.39315 124.881979 
L 87.144303 109.805351 
L 88.031742 96.602011 
L 88.91918 86.848831 
L 89.806618 79.549939 
L 90.694057 74.040758 
L 91.581495 69.855647 
L 92.468934 66.659627 
L 93.356372 64.207745 
L 94.370587 62.08665 
L 95.384803 60.504325 
L 96.399018 59.318031 
L 97.54001 58.329085 
L 98.807779 57.537864 
L 99.18811 57.348498 
L 99.323339 147.96502 
L 99.604361 206.036892 
L 100.033289 247.232875 
L 100.462218 271.671808 
L 100.916502 282.940725 
L 101.372899 289.483916 
L 101.831409 293.247431 
L 102.230756 294.936786 
L 102.511778 295.369694 
L 102.726242 295.322836 
L 103.049523 294.791644 
L 103.50909 293.544823 
L 104.33314 290.554332 
L 105.376936 285.974447 
L 109.013321 269.329779 
L 109.014377 269.456156 
L 109.118968 268.925519 
L 109.242576 268.361806 
L 111.331225 260.115918 
L 113.264573 253.37216 
L 115.159888 247.544389 
L 115.352166 246.994592 
L 115.353223 247.345597 
L 115.460983 246.633703 
L 115.473661 246.65881 
L 116.296654 244.40811 
L 118.137033 239.819125 
L 118.521589 238.935268 
L 118.522646 239.410856 
L 118.630406 238.688414 
L 118.646253 238.715014 
L 118.877621 238.18542 
L 120.317595 235.129419 
L 121.691012 232.526336 
L 121.692069 233.122941 
L 121.799829 232.417299 
L 121.815676 232.437716 
L 121.967808 232.138092 
L 122.992588 230.315543 
L 124.832967 227.490023 
L 124.860435 227.450832 
L 124.861491 228.154855 
L 124.969252 227.469026 
L 124.985099 227.483509 
L 125.118215 227.247953 
L 125.914796 226.046902 
L 127.590364 223.95771 
L 128.029858 223.458027 
L 128.030914 224.249558 
L 128.138675 223.598956 
L 128.154522 223.609767 
L 128.281299 223.401994 
L 128.946877 222.534562 
L 130.375231 221.098773 
L 131.199281 220.363291 
L 131.200337 221.221522 
L 131.308097 220.619278 
L 131.323945 220.628444 
L 131.444383 220.443054 
L 132.033895 219.764501 
L 133.215033 218.807441 
L 134.368703 218.012178 
L 134.36976 218.918901 
L 134.47752 218.366413 
L 134.493367 218.374236 
L 134.610636 218.202412 
L 135.146268 217.649569 
L 136.152032 216.987706 
L 138.104396 215.994299 
L 140.470899 215.039718 
L 140.707549 214.956602 
L 140.709662 215.933653 
L 140.816366 215.450761 
L 140.946312 215.292351 
L 141.425952 214.887234 
L 142.254227 214.519291 
L 144.265754 213.934307 
L 147.046395 213.347139 
L 147.049564 214.365268 
L 147.155212 213.920655 
L 147.285158 213.757231 
L 147.705635 213.444068 
L 148.474748 213.185602 
L 150.486275 212.839927 
L 153.38524 212.517145 
L 153.38841 213.559914 
L 153.494057 213.13374 
L 153.624004 212.966629 
L 154.04448 212.683158 
L 154.754431 212.489192 
L 156.765958 212.269687 
L 159.724086 212.093597 
L 159.727255 213.149543 
L 159.832903 212.733215 
L 159.962849 212.563445 
L 160.391778 212.291177 
L 161.127084 212.121855 
L 163.333002 211.964076 
L 169.338002 211.813044 
L 172.401777 211.770664 
L 172.404947 212.837596 
L 172.510594 212.428486 
L 172.640541 212.254389 
L 173.069469 211.989144 
L 173.804775 211.83961 
L 176.010693 211.743404 
L 184.589265 211.68664 
L 185.079469 211.685167 
L 185.082638 212.755555 
L 185.188286 212.348666 
L 185.318232 212.173374 
L 185.74716 211.910304 
L 186.482467 211.765679 
L 188.810936 211.682587 
L 197.75716 211.661348 
L 197.760329 212.732887 
L 197.865977 212.326692 
L 197.995923 212.150988 
L 198.424852 211.888474 
L 199.160158 211.745112 
L 201.488627 211.666087 
L 210.434851 211.65433 
L 210.438021 212.726271 
L 210.543668 212.320303 
L 210.673615 212.144448 
L 211.102543 211.882069 
L 211.837849 211.739045 
L 214.166318 211.661148 
L 223.112543 211.652135 
L 223.115712 212.724223 
L 223.22136 212.318332 
L 223.351306 212.14242 
L 223.780234 211.880074 
L 224.515541 211.737145 
L 226.84401 211.65958 
L 235.790234 211.65141 
L 235.793403 212.723551 
L 235.899051 212.317688 
L 236.028997 212.141755 
L 236.457926 211.879417 
L 237.193232 211.736516 
L 239.521701 211.659054 
L 248.467925 211.651158 
L 248.471095 212.72332 
L 248.576742 212.317467 
L 248.706689 212.141525 
L 248.890515 211.999069 
L 249.097584 179.709443 
L 249.585675 133.44403 
L 250.103348 104.220621 
L 250.369579 94.017037 
L 250.370636 97.101668 
L 250.475226 121.083311 
L 250.494243 114.503183 
L 250.716103 103.626176 
L 251.235888 86.07422 
L 251.768351 75.018655 
L 252.271233 68.489014 
L 252.37688 100.520675 
L 252.389558 95.054924 
L 252.529012 89.59358 
L 253.048798 77.403361 
L 253.581261 69.640462 
L 254.113724 64.801436 
L 254.646187 61.763287 
L 255.17865 59.842935 
L 255.711113 58.645759 
L 256.302739 57.831948 
L 257.012689 57.253585 
L 257.900128 56.839152 
L 258.610078 56.629216 
L 258.715726 90.895573 
L 258.728404 85.11226 
L 258.85835 80.809979 
L 259.387643 71.614761 
L 259.920106 65.844112 
L 260.45257 62.220483 
L 260.985033 59.930493 
L 261.576658 58.349215 
L 262.168284 57.384556 
L 262.819072 56.745591 
L 263.588185 56.315864 
L 264.653111 56.007402 
L 264.948924 55.953022 
L 265.054571 91.452341 
L 265.067249 85.340691 
L 265.197196 80.776216 
L 265.726489 71.496391 
L 266.258952 65.666426 
L 266.791415 62.000881 
L 267.323878 59.682802 
L 267.915504 58.083266 
L 268.507129 57.110803 
L 269.157918 56.469959 
L 269.927031 56.04151 
L 270.932794 55.757467 
L 271.28777 55.697594 
L 271.393417 93.029498 
L 271.406095 86.650862 
L 271.536041 81.723582 
L 271.955461 73.7381 
L 272.445666 67.485811 
L 273.058421 62.625531 
L 273.671176 59.750605 
L 274.283931 58.039996 
L 274.896686 57.016761 
L 275.509441 56.401079 
L 276.244747 55.972821 
L 277.225155 55.68047 
L 278.695767 55.499055 
L 281.882094 55.38597 
L 283.965461 55.355663 
L 284.071108 97.282589 
L 284.086956 89.447808 
L 284.220071 84.448606 
L 284.755704 73.852056 
L 285.368459 66.46176 
L 285.981214 62.065829 
L 286.593969 59.431906 
L 287.206724 57.845675 
L 287.819479 56.886247 
L 288.432234 56.303324 
L 289.16754 55.894575 
L 290.147949 55.614343 
L 291.741112 55.434658 
L 295.17254 55.341352 
L 296.643152 55.326809 
L 296.7488 102.228661 
L 296.764647 93.857501 
L 296.897763 87.973826 
L 297.433395 76.321106 
L 298.04615 68.110828 
L 298.658905 63.166493 
L 299.27166 60.16519 
L 299.884415 58.333485 
L 300.497171 57.210666 
L 301.109926 56.519413 
L 301.845232 56.028019 
L 302.82564 55.685883 
L 304.173701 55.483515 
L 306.747272 55.367932 
L 309.320844 55.332942 
L 309.426491 107.297649 
L 309.442338 98.519315 
L 309.572285 91.747305 
L 310.111086 78.971703 
L 310.723842 69.93598 
L 311.336597 64.421368 
L 311.949352 61.026506 
L 312.562107 58.924449 
L 313.174862 57.61687 
L 313.787617 56.799931 
L 314.522923 56.209937 
L 315.38078 55.828619 
L 316.60629 55.568253 
L 318.567107 55.418604 
L 321.998535 55.346933 
L 322.104182 112.236905 
L 322.123199 102.06139 
L 322.259484 95.107939 
L 322.788778 81.683507 
L 323.401533 71.86124 
L 324.014288 65.781962 
L 324.627043 61.984166 
L 325.239798 59.596958 
L 325.852553 58.089163 
L 326.465308 57.132574 
L 327.200614 56.430219 
L 328.058471 55.967563 
L 329.161431 55.666123 
L 330.877145 55.475541 
L 334.431124 55.367376 
L 334.676226 55.363877 
L 334.781874 116.776619 
L 334.80089 106.429706 
L 334.934006 98.662507 
L 335.466469 84.344673 
L 336.079224 73.816505 
L 336.691979 67.205274 
L 337.304734 63.012523 
L 337.917489 60.33621 
L 338.530245 58.619299 
L 339.143 57.512894 
L 339.878306 56.686763 
L 340.613612 56.192578 
L 341.59402 55.822872 
L 342.942081 55.582033 
L 345.27055 55.432452 
L 347.353918 55.382615 
L 347.459565 120.634786 
L 347.478582 110.401371 
L 347.611697 101.75966 
L 348.14416 86.837832 
L 348.756916 75.723559 
L 349.369671 68.640309 
L 349.982426 64.079235 
L 350.595181 61.122339 
L 351.207936 59.195527 
L 351.820691 57.93425 
L 352.433446 57.104856 
L 353.168752 56.4715 
L 354.026609 56.034163 
L 355.129568 55.732208 
L 356.845283 55.525638 
L 360.031609 55.402506 
L 360.137256 123.672048 
L 360.156273 113.832719 
L 360.292558 104.301928 
L 360.821852 89.092592 
L 361.434607 77.529322 
L 362.047362 70.049051 
L 362.660117 65.158304 
L 363.272872 61.938354 
L 363.885627 59.807276 
L 364.498382 58.390443 
L 365.111137 57.444278 
L 365.846443 56.7098 
L 366.704301 56.19313 
L 367.80726 55.829056 
L 369.277872 55.59829 
L 371.973994 55.443573 
L 372.7093 55.423221 
L 372.814948 125.979319 
L 372.837134 115.511606 
L 372.976588 106.324955 
L 373.499543 91.118943 
L 374.112298 79.230297 
L 374.725053 71.424145 
L 375.337808 66.24271 
L 375.950563 62.779067 
L 376.563319 60.451413 
L 377.176074 58.880093 
L 377.91138 57.646659 
L 378.646686 56.867823 
L 379.504543 56.308964 
L 380.484951 55.93915 
L 381.833012 55.674757 
L 384.038931 55.49547 
L 385.386992 55.445009 
L 385.492639 127.750357 
L 385.514825 117.963176 
L 385.65428 108.261568 
L 386.177234 92.967204 
L 386.78999 80.849728 
L 387.402745 72.775809 
L 388.0155 67.336871 
L 388.628255 63.646701 
L 389.24101 61.129634 
L 389.853765 59.405024 
L 390.589071 58.029439 
L 391.324377 57.145666 
L 392.182234 56.500127 
L 393.162642 56.064793 
L 394.510704 55.747492 
L 396.47152 55.544324 
L 398.064683 55.468577 
L 398.17033 129.152035 
L 398.192516 120.093899 
L 398.331971 109.973865 
L 398.487273 104.839739 
L 398.487273 104.839739 
" clip-path="url(#p4b2a18a24b)" style="fill: none; stroke: #008100; stroke-width: 4; stroke-linecap: square"/>
   </g>
   <g id="line2d_21">
    <path d="M 73.832727 53.568 
L 79.470074 53.586171 
L 86.087829 53.607441 
L 86.199815 136.706248 
L 86.218832 134.585223 
L 86.39315 124.850557 
L 87.144303 109.782017 
L 88.031742 96.585174 
L 88.91918 86.836512 
L 89.806618 79.540844 
L 90.694057 74.033997 
L 91.581495 69.85059 
L 92.468934 66.655822 
L 93.356372 64.204865 
L 94.370587 62.084539 
L 95.384803 60.502765 
L 96.399018 59.316866 
L 97.54001 58.328236 
L 98.807779 57.537257 
L 99.18811 57.347946 
L 99.323339 147.870671 
L 99.604361 205.449438 
L 100.033289 245.613989 
L 100.50659 272.069645 
L 100.951366 282.984542 
L 101.417271 289.571375 
L 101.87578 293.252153 
L 102.275128 294.88784 
L 102.541359 295.276852 
L 102.757937 295.227824 
L 103.033676 294.786196 
L 103.454153 293.698642 
L 104.195798 291.081035 
L 105.239595 286.585977 
L 109.013321 268.577325 
L 109.014377 269.293215 
L 109.015434 269.311074 
L 109.084104 268.598654 
L 109.122138 268.187317 
L 109.255253 267.498404 
L 111.001605 258.196309 
L 111.962997 251.583866 
L 112.182744 249.883721 
L 112.190139 251.916663 
L 112.29473 250.901223 
L 112.797612 245.868593 
L 114.225965 232.739165 
L 115.352166 223.47399 
L 115.457814 228.608644 
L 115.464153 227.840117 
L 115.657487 225.062928 
L 116.324123 217.934166 
L 117.148173 211.525536 
L 118.109564 205.773854 
L 118.521589 203.689129 
L 118.627237 211.111442 
L 118.636745 210.023452 
L 118.811063 207.252758 
L 119.383672 202.088688 
L 120.042912 198.132807 
L 120.784557 195.024612 
L 121.691012 192.184942 
L 121.796659 200.383455 
L 121.806168 199.190999 
L 121.967808 196.59579 
L 122.498158 192.68203 
L 123.074993 189.984746 
L 123.706765 188.046362 
L 124.558283 186.206205 
L 124.860435 185.668313 
L 124.966082 193.965707 
L 124.975591 192.734059 
L 125.130892 190.297325 
L 125.640113 187.072665 
L 126.18948 184.943868 
L 126.766314 183.549346 
L 127.507959 182.361767 
L 128.029858 181.715479 
L 128.135505 189.905746 
L 128.145013 188.663409 
L 128.297146 186.339014 
L 128.782067 183.540406 
L 129.303966 181.721817 
L 129.853332 180.5726 
L 130.512572 179.723597 
L 131.199281 179.091448 
L 131.304928 187.143403 
L 131.314436 185.901756 
L 131.466569 183.649832 
L 131.95149 181.049073 
L 132.44592 179.468499 
L 132.967818 178.485795 
L 133.572122 177.823755 
L 134.368703 177.254173 
L 134.474351 185.18063 
L 134.483859 183.943923 
L 134.632822 181.772267 
L 135.087106 179.419874 
L 135.560406 177.943663 
L 136.092869 176.991721 
L 136.684495 176.419512 
L 137.512771 175.942246 
L 138.577697 175.596641 
L 140.648386 175.212891 
L 140.707549 175.203088 
L 140.813196 182.870027 
L 140.822705 181.647205 
L 140.971668 179.578954 
L 141.425952 177.422524 
L 141.899252 176.073379 
L 142.431715 175.219123 
L 142.964178 174.772431 
L 143.792454 174.417698 
L 144.916543 174.190562 
L 147.046395 174.017837 
L 147.152042 181.5546 
L 147.16155 180.340877 
L 147.310513 178.316855 
L 147.764797 176.231689 
L 148.238098 174.946525 
L 148.711398 174.221269 
L 149.243861 173.801599 
L 150.012974 173.52964 
L 151.137063 173.382269 
L 153.38524 173.352809 
L 153.490888 180.811198 
L 153.500396 179.604436 
L 153.649359 177.61137 
L 154.103643 175.574589 
L 154.576943 174.328278 
L 155.050244 173.636048 
L 155.582707 173.249512 
L 156.35182 173.019639 
L 157.475909 172.926409 
L 159.724086 172.985165 
L 159.829733 180.393812 
L 159.839242 179.191926 
L 159.988205 177.218825 
L 160.391778 175.388386 
L 160.881982 174.055164 
L 161.372186 173.333672 
L 161.86239 172.97577 
L 162.597696 172.758041 
L 163.700655 172.678552 
L 167.009533 172.82317 
L 171.421369 172.822659 
L 172.401777 172.81448 
L 172.507425 180.133628 
L 172.516933 178.935275 
L 172.665896 176.961076 
L 173.069469 175.110558 
L 173.559673 173.779845 
L 174.049877 173.074387 
L 174.540081 172.737359 
L 175.275387 172.555974 
L 176.378347 172.5199 
L 185.079469 172.79024 
L 185.185116 180.077646 
L 185.194624 178.882394 
L 185.343587 176.917788 
L 185.74716 175.079123 
L 186.237364 173.759612 
L 186.727569 173.062633 
L 187.217773 172.73209 
L 187.953079 172.558369 
L 189.056038 172.53114 
L 197.512058 172.840191 
L 197.75716 172.841499 
L 197.862807 180.107793 
L 197.872316 178.914846 
L 198.021279 176.956597 
L 198.424852 175.125244 
L 198.915056 173.812038 
L 199.40526 173.119113 
L 199.895464 172.79104 
L 200.63077 172.619437 
L 201.85628 172.600317 
L 208.841688 172.904938 
L 210.434851 172.91456 
L 210.540499 180.163915 
L 210.550007 178.972852 
L 210.69897 177.019398 
L 211.102543 175.193284 
L 211.592747 173.884478 
L 212.082951 173.194092 
L 212.573155 172.86721 
L 213.308461 172.696126 
L 214.533972 172.676801 
L 221.519379 172.981258 
L 223.112543 172.990868 
L 223.21819 180.225506 
L 223.227698 179.036085 
L 223.376661 177.086645 
L 223.780234 175.264787 
L 224.270438 173.959522 
L 224.760643 173.27105 
L 225.250847 172.944891 
L 225.986153 172.773805 
L 227.211663 172.753572 
L 234.319622 173.055727 
L 235.790234 173.064118 
L 235.895881 180.285557 
L 235.90539 179.097609 
L 236.054353 177.151708 
L 236.457926 175.333547 
L 236.94813 174.031342 
L 237.438334 173.344474 
L 237.928538 173.018846 
L 238.663844 172.847586 
L 239.889354 172.826265 
L 247.119864 173.125201 
L 248.467925 173.132349 
L 248.573573 180.341809 
L 248.583081 179.155199 
L 248.732044 177.212486 
L 248.890515 176.397195 
L 249.127165 149.956261 
L 249.630047 114.939219 
L 250.147719 93.168819 
L 250.369579 86.626598 
L 250.370636 89.048542 
L 250.475226 114.251862 
L 250.494243 107.453173 
L 250.697086 98.64887 
L 251.221097 82.968355 
L 251.75356 73.117436 
L 252.271233 67.118993 
L 252.37688 99.096378 
L 252.389558 93.414393 
L 252.525843 88.140889 
L 253.048798 76.422942 
L 253.581261 68.98827 
L 254.113724 64.33401 
L 254.646187 61.399388 
L 255.17865 59.536278 
L 255.770276 58.242843 
L 256.361901 57.460457 
L 257.071852 56.905256 
L 257.95929 56.516075 
L 258.610078 56.340205 
L 258.715726 91.258907 
L 258.728404 85.307603 
L 258.85835 80.872225 
L 259.387643 71.623533 
L 259.920106 65.812037 
L 260.45257 62.157842 
L 260.985033 59.84603 
L 261.576658 58.248896 
L 262.168284 57.275214 
L 262.819072 56.630075 
L 263.588185 56.196213 
L 264.593949 55.902655 
L 264.948924 55.838654 
L 265.054571 92.288972 
L 265.067249 86.038759 
L 265.197196 81.290035 
L 265.726489 71.826779 
L 266.258952 65.872548 
L 266.791415 62.122495 
L 267.323878 59.747078 
L 267.915504 58.105616 
L 268.507129 57.106709 
L 269.157918 56.448471 
L 269.927031 56.009261 
L 270.932794 55.719562 
L 271.28777 55.659171 
L 271.393417 94.066689 
L 271.406095 87.56833 
L 271.536041 82.431552 
L 271.955461 74.255839 
L 272.445666 67.844708 
L 273.058421 62.8504 
L 273.671176 59.888816 
L 274.283931 58.122343 
L 274.896686 57.063344 
L 275.509441 56.424994 
L 276.244747 55.980455 
L 277.225155 55.677117 
L 278.695767 55.490067 
L 281.759543 55.379722 
L 283.965461 55.349041 
L 284.071108 98.462321 
L 284.086956 90.489248 
L 284.220071 85.286544 
L 284.755704 74.433918 
L 285.368459 66.846708 
L 285.981214 62.320437 
L 286.593969 59.600056 
L 287.206724 57.956595 
L 287.819479 56.959411 
L 288.432234 56.351669 
L 289.16754 55.924154 
L 290.147949 55.630019 
L 291.618561 55.449066 
L 294.682336 55.349589 
L 296.643152 55.328136 
L 296.7488 103.448265 
L 296.764647 94.968024 
L 296.897763 88.855306 
L 297.433395 76.949807 
L 298.04615 68.539259 
L 298.658905 63.458252 
L 299.27166 60.363678 
L 299.884415 58.468555 
L 300.497171 57.302808 
L 301.109926 56.582612 
L 301.845232 56.06872 
L 302.703089 55.741138 
L 303.928599 55.520963 
L 306.134517 55.388624 
L 309.320844 55.336116 
L 309.426491 108.498847 
L 309.442338 99.649024 
L 309.572285 92.632263 
L 310.111086 79.620288 
L 310.723842 70.391401 
L 311.336597 64.740047 
L 311.949352 61.248797 
L 312.562107 59.079268 
L 313.174862 57.724784 
L 313.787617 56.875429 
L 314.522923 56.259597 
L 315.38078 55.859765 
L 316.483739 55.603456 
L 318.322005 55.43791 
L 321.998535 55.350824 
L 322.104182 113.354489 
L 322.123199 103.122907 
L 322.259484 95.949946 
L 322.788778 82.325536 
L 323.401533 72.327546 
L 324.014288 66.117985 
L 324.627043 62.224748 
L 325.239798 59.768481 
L 325.852553 58.211247 
L 326.465308 57.219571 
L 327.200614 56.488502 
L 328.058471 56.004679 
L 329.161431 55.687789 
L 330.754594 55.494813 
L 333.94092 55.380022 
L 334.676226 55.368213 
L 334.781874 117.731093 
L 334.80089 107.400529 
L 334.934006 99.421203 
L 335.466469 84.948236 
L 336.079224 74.273022 
L 336.691979 67.545489 
L 337.304734 63.263239 
L 337.917489 60.519529 
L 338.530245 58.752706 
L 339.143 57.609811 
L 339.878306 56.752943 
L 340.613612 56.238105 
L 341.59402 55.851126 
L 342.942081 55.597686 
L 345.147999 55.444222 
L 347.353918 55.387227 
L 347.459565 121.366662 
L 347.478582 111.230207 
L 347.614867 102.289856 
L 348.14416 87.377146 
L 348.756916 76.152137 
L 349.369671 68.972283 
L 349.982426 64.331815 
L 350.595181 61.312122 
L 351.207936 59.336933 
L 351.820691 58.039089 
L 352.433446 57.182439 
L 353.168752 56.525655 
L 354.026609 56.070092 
L 355.129568 55.754006 
L 356.722732 55.546366 
L 359.786507 55.412694 
L 360.031609 55.407259 
L 360.137256 124.18667 
L 360.156273 114.509156 
L 360.292558 104.822228 
L 360.821852 89.56394 
L 361.434607 77.925129 
L 362.047362 70.368414 
L 362.660117 65.409365 
L 363.272872 62.132245 
L 363.885627 59.955195 
L 364.498382 58.502378 
L 365.111137 57.52858 
L 365.846443 56.769664 
L 366.704301 56.233413 
L 367.684709 55.88455 
L 369.155321 55.625337 
L 371.606341 55.462196 
L 372.7093 55.428116 
L 372.814948 126.327949 
L 372.837134 116.056912 
L 372.976588 106.75161 
L 373.499543 91.535454 
L 374.112298 79.599431 
L 374.725053 71.733633 
L 375.337808 66.493493 
L 375.950563 62.977733 
L 376.563319 60.60636 
L 377.176074 58.99965 
L 377.91138 57.733455 
L 378.646686 56.930517 
L 379.504543 56.351844 
L 380.484951 55.967147 
L 381.833012 55.690843 
L 384.038931 55.502937 
L 385.386992 55.450203 
L 385.492639 127.984693 
L 385.514825 118.414272 
L 385.65428 108.620919 
L 386.177234 93.343564 
L 386.78999 81.199688 
L 387.402745 73.07923 
L 388.0155 67.589368 
L 388.628255 63.851305 
L 389.24101 61.292439 
L 389.853765 59.53293 
L 390.589071 58.124117 
L 391.324377 57.215227 
L 392.182234 56.548499 
L 393.162642 56.096817 
L 394.388153 55.787319 
L 396.226418 55.570759 
L 398.064683 55.474294 
L 398.17033 129.308232 
L 398.192516 120.470855 
L 398.331971 110.284157 
L 398.487273 105.167108 
L 398.487273 105.167108 
" clip-path="url(#p4b2a18a24b)" style="fill: none; stroke: #ff4c00; stroke-width: 4; stroke-linecap: square"/>
   </g>
   <g id="line2d_22">
    <path d="M 73.832727 53.568 
L 79.347523 53.585721 
L 86.087829 53.607258 
L 86.199815 136.54453 
L 86.218832 134.439954 
L 86.39315 124.745377 
L 87.144303 109.703914 
L 88.031742 96.528822 
L 88.91918 86.795288 
L 89.806618 79.510415 
L 90.694057 74.011379 
L 91.581495 69.833673 
L 92.468934 66.643096 
L 93.356372 64.195234 
L 94.370587 62.077481 
L 95.384803 60.497548 
L 96.399018 59.312972 
L 97.54001 58.325399 
L 98.807779 57.535227 
L 99.18811 57.346104 
L 99.323339 147.56239 
L 99.604361 203.86723 
L 100.018499 240.681407 
L 100.536171 268.563112 
L 100.948196 280.537431 
L 101.358108 287.266734 
L 101.831409 291.830288 
L 102.245546 293.946673 
L 102.55615 294.621903 
L 102.674475 294.661179 
L 102.676588 295.363927 
L 102.783292 294.621591 
L 102.799139 294.423154 
L 102.897391 294.457521 
L 103.078048 294.150466 
L 103.426685 293.099953 
L 103.893646 290.922781 
L 104.305671 287.908634 
L 104.745165 282.725656 
L 105.349468 272.619896 
L 105.843898 262.755549 
L 105.848124 265.056667 
L 105.949545 268.566567 
L 105.962223 267.645539 
L 107.859651 222.61258 
L 108.793574 206.814187 
L 109.013321 203.705569 
L 109.015434 204.947403 
L 109.118968 221.5658 
L 109.150662 218.311347 
L 109.375691 211.48541 
L 109.985277 198.008506 
L 110.617049 188.719117 
L 111.221352 182.869098 
L 111.853124 178.806584 
L 112.182744 177.191159 
L 112.288391 196.930873 
L 112.316916 193.253368 
L 112.488065 188.803721 
L 113.044827 180.413794 
L 113.594193 175.154883 
L 114.116091 172.051538 
L 114.692926 169.904469 
L 115.29723 168.437308 
L 115.352166 168.333321 
L 115.457814 186.979971 
L 115.483169 183.395164 
L 115.64164 179.519173 
L 116.186781 172.763769 
L 116.736148 168.517774 
L 117.230578 166.233055 
L 117.752476 164.820943 
L 118.329311 163.846419 
L 118.521589 163.615113 
L 118.627237 181.069938 
L 118.649423 177.748569 
L 118.804724 173.99519 
L 119.356204 167.764974 
L 119.878102 164.136589 
L 120.372532 162.145915 
L 120.839494 161.119744 
L 121.38886 160.420209 
L 121.691012 160.179322 
L 121.796659 176.681215 
L 121.818845 173.42077 
L 121.974147 169.925349 
L 122.525627 164.132451 
L 123.047525 160.81642 
L 123.514487 159.1413 
L 123.95398 158.315131 
L 124.475878 157.79364 
L 124.860435 157.589558 
L 124.966082 173.304134 
L 124.985099 170.394107 
L 125.137231 166.932216 
L 125.69505 161.396837 
L 126.18948 158.432549 
L 126.656441 156.866538 
L 127.068466 156.168867 
L 127.590364 155.740435 
L 128.029858 155.587753 
L 128.135505 170.644827 
L 128.154522 167.813164 
L 128.306654 164.542424 
L 128.864472 159.278617 
L 129.358902 156.484696 
L 129.798396 155.105222 
L 130.210421 154.466259 
L 130.704851 154.123656 
L 131.199281 154.013825 
L 131.304928 168.521222 
L 131.320775 166.03327 
L 131.469738 162.724357 
L 132.006427 157.804407 
L 132.500857 155.063647 
L 132.94035 153.724547 
L 133.352375 153.122931 
L 133.846805 152.829036 
L 134.368703 152.764248 
L 134.474351 166.812543 
L 134.490198 164.381866 
L 134.639161 161.212193 
L 135.146268 156.677332 
L 135.619569 154.047238 
L 136.033707 152.740246 
L 136.447845 152.096945 
L 136.921145 151.814876 
L 137.453608 151.75877 
L 138.341047 151.941528 
L 139.701786 152.191756 
L 140.707549 152.152664 
L 140.813196 165.249563 
L 140.829044 162.905763 
L 140.978006 159.865662 
L 141.544277 154.886366 
L 142.017577 152.375887 
L 142.431715 151.149824 
L 142.845853 150.571947 
L 143.319153 150.358871 
L 143.851616 150.365473 
L 144.85738 150.666551 
L 146.099794 150.967694 
L 147.046395 150.995821 
L 147.152042 163.623979 
L 147.167889 161.346516 
L 147.316852 158.441888 
L 147.883122 153.654878 
L 148.356423 151.258388 
L 148.770561 150.107946 
L 149.125536 149.632423 
L 149.539674 149.440278 
L 150.072137 149.444137 
L 150.959575 149.735553 
L 152.379477 150.172084 
L 153.38524 150.250449 
L 153.490888 162.55604 
L 153.506735 160.327207 
L 153.655698 157.516064 
L 154.221968 152.862242 
L 154.695268 150.543083 
L 155.109406 149.442639 
L 155.464382 148.999711 
L 155.87852 148.834492 
L 156.410983 148.865111 
L 157.298421 149.189712 
L 158.65916 149.655059 
L 159.724086 149.775748 
L 159.829733 161.856675 
L 159.842411 159.909376 
L 159.991374 156.948597 
L 160.514329 152.652645 
L 161.004533 150.199339 
L 161.372186 149.170624 
L 161.739839 148.654881 
L 162.107492 148.477223 
L 162.597696 148.472 
L 163.333002 148.71684 
L 165.048716 149.353207 
L 166.151676 149.487204 
L 167.86739 149.422648 
L 171.666471 149.268718 
L 172.401777 149.259974 
L 172.507425 161.044415 
L 172.520102 159.12246 
L 172.669065 156.220665 
L 173.19202 152.023119 
L 173.682224 149.672249 
L 174.049877 148.711829 
L 174.41753 148.252339 
L 174.785183 148.11817 
L 175.275387 148.156535 
L 176.133245 148.496771 
L 177.603857 149.074214 
L 178.706816 149.259484 
L 180.299979 149.252087 
L 184.466714 149.163449 
L 185.079469 149.16713 
L 185.185116 160.806817 
L 185.197794 158.902409 
L 185.346757 156.041899 
L 185.869711 151.90485 
L 186.359916 149.593379 
L 186.727569 148.652894 
L 187.095222 148.206715 
L 187.462875 148.081018 
L 187.953079 148.126747 
L 188.810936 148.472247 
L 190.281548 149.056546 
L 191.384507 149.255665 
L 192.97767 149.26877 
L 197.389507 149.222235 
L 197.75716 149.227449 
L 197.862807 160.782721 
L 197.875485 158.888915 
L 198.024448 156.052303 
L 198.547403 151.952638 
L 199.037607 149.664603 
L 199.40526 148.734945 
L 199.772913 148.295027 
L 200.140566 148.172349 
L 200.63077 148.219746 
L 201.611178 148.621893 
L 203.08179 149.183911 
L 204.18475 149.365831 
L 205.900464 149.371802 
L 210.067198 149.351567 
L 210.434851 149.358086 
L 210.540499 160.855447 
L 210.553176 158.968747 
L 210.702139 156.147576 
L 211.225094 152.074495 
L 211.715298 149.802991 
L 212.082951 148.880393 
L 212.450604 148.443883 
L 212.818257 148.322172 
L 213.308461 148.369137 
L 214.28887 148.768359 
L 215.759482 149.328959 
L 216.862441 149.513805 
L 218.578155 149.525729 
L 222.74489 149.513503 
L 223.112543 149.520582 
L 223.21819 160.972338 
L 223.230868 159.091068 
L 223.379831 156.281323 
L 223.902785 152.229708 
L 224.392989 149.971527 
L 224.760643 149.054266 
L 225.128296 148.619878 
L 225.495949 148.498238 
L 226.108704 148.579105 
L 227.456765 149.156693 
L 228.682275 149.555901 
L 229.907785 149.704386 
L 232.236255 149.673733 
L 235.790234 149.696922 
L 235.895881 161.108951 
L 235.908559 159.232309 
L 236.057522 156.432082 
L 236.580477 152.399444 
L 237.070681 150.153034 
L 237.438334 149.240294 
L 237.805987 148.807429 
L 238.17364 148.68541 
L 238.786395 148.763983 
L 240.134456 149.335847 
L 241.359966 149.733151 
L 242.585477 149.882754 
L 244.913946 149.854788 
L 248.467925 149.878632 
L 248.573573 161.253857 
L 248.58625 159.381452 
L 248.735213 156.589807 
L 248.890515 155.206507 
L 249.141956 133.134521 
L 249.644838 104.801913 
L 250.177301 86.558864 
L 250.369579 81.881029 
L 250.370636 83.796212 
L 250.475226 110.138468 
L 250.497412 102.87989 
L 250.73195 93.905298 
L 251.265469 79.83138 
L 251.797932 71.14014 
L 252.271233 66.189429 
L 252.37688 98.715949 
L 252.389558 92.860511 
L 252.525843 87.540362 
L 253.048798 76.025006 
L 253.581261 68.703231 
L 254.113724 64.108842 
L 254.646187 61.205484 
L 255.17865 59.358799 
L 255.770276 58.073533 
L 256.361901 57.284609 
L 257.071852 56.725339 
L 257.95929 56.339526 
L 258.610078 56.170398 
L 258.715726 92.063141 
L 258.728404 85.953684 
L 258.85835 81.331729 
L 259.387643 71.908918 
L 259.920106 65.979254 
L 260.45257 62.244623 
L 260.985033 59.878338 
L 261.576658 58.241643 
L 262.168284 57.2434 
L 262.819072 56.582621 
L 263.588185 56.138189 
L 264.593949 55.840399 
L 264.948924 55.776585 
L 265.054571 93.373896 
L 265.067249 86.986877 
L 265.197196 82.017765 
L 265.726489 72.310845 
L 266.258952 66.191777 
L 266.791415 62.329712 
L 267.323878 59.878066 
L 267.915504 58.180321 
L 268.507129 57.145169 
L 269.157918 56.462113 
L 269.867868 56.03224 
L 270.814469 55.730733 
L 271.28777 55.643908 
L 271.393417 95.271419 
L 271.406095 88.65307 
L 271.536041 83.276546 
L 271.955461 74.879762 
L 272.445666 68.283435 
L 273.058421 63.132256 
L 273.671176 60.068699 
L 274.283931 58.236002 
L 274.896686 57.134161 
L 275.509441 56.468243 
L 276.244747 56.003418 
L 277.225155 55.685694 
L 278.695767 55.490073 
L 281.636992 55.379222 
L 283.965461 55.346778 
L 284.071108 99.757658 
L 284.086956 91.644052 
L 284.220071 86.213237 
L 284.755704 75.082056 
L 285.368459 67.27911 
L 285.981214 62.608992 
L 286.593969 59.792523 
L 287.206724 58.085018 
L 287.819479 57.045291 
L 288.432234 56.40938 
L 289.16754 55.960385 
L 290.147949 55.650131 
L 291.618561 55.458386 
L 294.559785 55.354875 
L 296.643152 55.33056 
L 296.7488 104.760289 
L 296.764647 96.174605 
L 296.897763 89.80897 
L 297.433395 77.635304 
L 298.04615 69.010179 
L 298.658905 63.781324 
L 299.27166 60.584991 
L 299.884415 58.620145 
L 300.497171 57.406867 
L 301.109926 56.654415 
L 301.845232 56.115277 
L 302.703089 55.769967 
L 303.928599 55.53661 
L 306.011966 55.399567 
L 309.320844 55.33982 
L 309.426491 109.76279 
L 309.442338 100.854538 
L 309.572285 93.572038 
L 310.111086 80.315963 
L 310.723842 70.884623 
L 311.336597 65.088061 
L 311.949352 61.493332 
L 312.562107 59.25069 
L 313.174862 57.844962 
L 313.787617 56.95993 
L 314.522923 56.315454 
L 315.38078 55.894938 
L 316.483739 55.623865 
L 318.199454 55.454375 
L 321.998535 55.355141 
L 322.104182 114.486868 
L 322.123199 104.226606 
L 322.259484 96.819964 
L 322.788778 82.998398 
L 323.401533 72.822628 
L 324.014288 66.478526 
L 324.627043 62.485182 
L 325.239798 59.955571 
L 325.852553 58.345279 
L 326.465308 57.315608 
L 327.200614 56.553176 
L 327.93592 56.101205 
L 328.916329 55.766335 
L 330.386941 55.538544 
L 333.083063 55.403997 
L 334.676226 55.372916 
L 334.781874 118.637546 
L 334.80089 108.370222 
L 334.934006 100.173484 
L 335.466469 85.560623 
L 336.079224 74.745128 
L 336.691979 67.902433 
L 337.304734 63.529322 
L 337.917489 60.715925 
L 338.530245 58.89675 
L 339.143 57.715128 
L 339.755755 56.944076 
L 340.491061 56.36008 
L 341.348918 55.960547 
L 342.574428 55.667238 
L 344.412693 55.487594 
L 347.353918 55.392115 
L 347.459565 121.997102 
L 347.478582 112.018073 
L 347.614867 102.893104 
L 348.14416 87.905747 
L 348.756916 76.584125 
L 349.369671 69.313503 
L 349.982426 64.595272 
L 350.595181 61.512377 
L 351.207936 59.487534 
L 351.820691 58.151583 
L 352.433446 57.26618 
L 353.168752 56.584408 
L 354.026609 56.109196 
L 355.129568 55.777711 
L 356.722732 55.558832 
L 359.663956 55.420903 
L 360.031609 55.412203 
L 360.137256 124.571637 
L 360.159442 113.923487 
L 360.298897 105.068723 
L 360.821852 90.013261 
L 361.434607 78.317139 
L 362.047362 70.692588 
L 362.660117 65.668714 
L 363.272872 62.335217 
L 363.885627 60.111668 
L 364.498382 58.621775 
L 365.111137 57.619095 
L 365.846443 56.834315 
L 366.704301 56.277091 
L 367.684709 55.912723 
L 369.03277 55.655788 
L 371.361239 55.478936 
L 372.7093 55.433178 
L 372.814948 126.534638 
L 372.837134 116.527712 
L 372.976588 107.11863 
L 373.499543 91.92425 
L 374.112298 79.961127 
L 374.725053 72.045799 
L 375.337808 66.751491 
L 375.950563 63.185113 
L 376.563319 60.769933 
L 377.176074 59.126993 
L 377.91138 57.826675 
L 378.646686 56.998262 
L 379.504543 56.398386 
L 380.484951 55.997582 
L 381.833012 55.708247 
L 383.916379 55.517414 
L 385.386992 55.455602 
L 385.492639 128.070555 
L 385.514825 118.781598 
L 385.65428 108.915986 
L 386.177234 93.688747 
L 386.78999 81.540012 
L 387.402745 73.384149 
L 388.0155 67.84865 
L 388.628255 64.064706 
L 389.24101 61.464274 
L 389.853765 59.669205 
L 390.589071 58.225881 
L 391.324377 57.290493 
L 392.182234 56.601115 
L 393.162642 56.131752 
L 394.388153 55.8085 
L 396.226418 55.581397 
L 398.064683 55.480301 
L 398.17033 129.311477 
L 398.192516 120.756566 
L 398.331971 110.526745 
L 398.487273 105.438805 
L 398.487273 105.438805 
" clip-path="url(#p4b2a18a24b)" style="fill: none; stroke: #0030d1; stroke-width: 4; stroke-linecap: square"/>
   </g>
   <g id="patch_3">
    <path d="M 57.6 307.584 
L 57.6 41.472 
" style="fill: none; stroke: #000000; stroke-width: 0.8; stroke-linejoin: miter; stroke-linecap: square"/>
   </g>
   <g id="patch_4">
    <path d="M 414.72 307.584 
L 414.72 41.472 
" style="fill: none; stroke: #000000; stroke-width: 0.8; stroke-linejoin: miter; stroke-linecap: square"/>
   </g>
   <g id="patch_5">
    <path d="M 57.6 307.584 
L 414.72 307.584 
" style="fill: none; stroke: #000000; stroke-width: 0.8; stroke-linejoin: miter; stroke-linecap: square"/>
   </g>
   <g id="patch_6">
    <path d="M 57.6 41.472 
L 414.72 41.472 
" style="fill: none; stroke: #000000; stroke-width: 0.8; stroke-linejoin: miter; stroke-linecap: square"/>
   </g>
   <g id="legend_1">
    <g id="patch_7">
     <path d="M 322.080938 302.584 
L 407.72 302.584 
Q 409.72 302.584 409.72 300.584 
L 409.72 242.8715 
Q 409.72 240.8715 407.72 240.8715 
L 322.080938 240.8715 
Q 320.080938 240.8715 320.080938 242.8715 
L 320.080938 300.584 
Q 320.080938 302.584 322.080938 302.584 
z
" style="fill: #ffffff; opacity: 0.8; stroke: #cccccc; stroke-linejoin: miter"/>
    </g>
    <g id="line2d_23">
     <path d="M 324.080938 248.969937 
L 334.080938 248.969937 
L 344.080938 248.969937 
" style="fill: none; stroke: #960000; stroke-width: 4; stroke-linecap: square"/>
    </g>
    <g id="text_21">
     <!-- kQ = 3e9 -->
     <g transform="translate(352.080938 252.469937) scale(0.1 -0.1)">
      <defs>
       <path id="DejaVuSans-6b" d="M 581 4863 
L 1159 4863 
L 1159 1991 
L 2875 3500 
L 3609 3500 
L 1753 1863 
L 3688 0 
L 2938 0 
L 1159 1709 
L 1159 0 
L 581 0 
L 581 4863 
z
" transform="scale(0.015625)"/>
       <path id="DejaVuSans-51" d="M 2522 4238 
Q 1834 4238 1429 3725 
Q 1025 3213 1025 2328 
Q 1025 1447 1429 934 
Q 1834 422 2522 422 
Q 3209 422 3611 934 
Q 4013 1447 4013 2328 
Q 4013 3213 3611 3725 
Q 3209 4238 2522 4238 
z
M 3406 84 
L 4238 -825 
L 3475 -825 
L 2784 -78 
Q 2681 -84 2626 -87 
Q 2572 -91 2522 -91 
Q 1538 -91 948 567 
Q 359 1225 359 2328 
Q 359 3434 948 4092 
Q 1538 4750 2522 4750 
Q 3503 4750 4090 4092 
Q 4678 3434 4678 2328 
Q 4678 1516 4351 937 
Q 4025 359 3406 84 
z
" transform="scale(0.015625)"/>
       <path id="DejaVuSans-3d" d="M 678 2906 
L 4684 2906 
L 4684 2381 
L 678 2381 
L 678 2906 
z
M 678 1631 
L 4684 1631 
L 4684 1100 
L 678 1100 
L 678 1631 
z
" transform="scale(0.015625)"/>
       <path id="DejaVuSans-33" d="M 2597 2516 
Q 3050 2419 3304 2112 
Q 3559 1806 3559 1356 
Q 3559 666 3084 287 
Q 2609 -91 1734 -91 
Q 1441 -91 1130 -33 
Q 819 25 488 141 
L 488 750 
Q 750 597 1062 519 
Q 1375 441 1716 441 
Q 2309 441 2620 675 
Q 2931 909 2931 1356 
Q 2931 1769 2642 2001 
Q 2353 2234 1838 2234 
L 1294 2234 
L 1294 2753 
L 1863 2753 
Q 2328 2753 2575 2939 
Q 2822 3125 2822 3475 
Q 2822 3834 2567 4026 
Q 2313 4219 1838 4219 
Q 1578 4219 1281 4162 
Q 984 4106 628 3988 
L 628 4550 
Q 988 4650 1302 4700 
Q 1616 4750 1894 4750 
Q 2613 4750 3031 4423 
Q 3450 4097 3450 3541 
Q 3450 3153 3228 2886 
Q 3006 2619 2597 2516 
z
" transform="scale(0.015625)"/>
       <path id="DejaVuSans-39" d="M 703 97 
L 703 672 
Q 941 559 1184 500 
Q 1428 441 1663 441 
Q 2288 441 2617 861 
Q 2947 1281 2994 2138 
Q 2813 1869 2534 1725 
Q 2256 1581 1919 1581 
Q 1219 1581 811 2004 
Q 403 2428 403 3163 
Q 403 3881 828 4315 
Q 1253 4750 1959 4750 
Q 2769 4750 3195 4129 
Q 3622 3509 3622 2328 
Q 3622 1225 3098 567 
Q 2575 -91 1691 -91 
Q 1453 -91 1209 -44 
Q 966 3 703 97 
z
M 1959 2075 
Q 2384 2075 2632 2365 
Q 2881 2656 2881 3163 
Q 2881 3666 2632 3958 
Q 2384 4250 1959 4250 
Q 1534 4250 1286 3958 
Q 1038 3666 1038 3163 
Q 1038 2656 1286 2365 
Q 1534 2075 1959 2075 
z
" transform="scale(0.015625)"/>
      </defs>
      <use xlink:href="#DejaVuSans-6b"/>
      <use xlink:href="#DejaVuSans-51" transform="translate(57.910156 0)"/>
      <use xlink:href="#DejaVuSans-20" transform="translate(136.621094 0)"/>
      <use xlink:href="#DejaVuSans-3d" transform="translate(168.408203 0)"/>
      <use xlink:href="#DejaVuSans-20" transform="translate(252.197266 0)"/>
      <use xlink:href="#DejaVuSans-33" transform="translate(283.984375 0)"/>
      <use xlink:href="#DejaVuSans-65" transform="translate(347.607422 0)"/>
      <use xlink:href="#DejaVuSans-39" transform="translate(409.130859 0)"/>
     </g>
    </g>
    <g id="line2d_24">
     <path d="M 324.080938 263.648062 
L 334.080938 263.648062 
L 344.080938 263.648062 
" style="fill: none; stroke: #008100; stroke-width: 4; stroke-linecap: square"/>
    </g>
    <g id="text_22">
     <!-- kQ = 1e10 -->
     <g transform="translate(352.080938 267.148062) scale(0.1 -0.1)">
      <use xlink:href="#DejaVuSans-6b"/>
      <use xlink:href="#DejaVuSans-51" transform="translate(57.910156 0)"/>
      <use xlink:href="#DejaVuSans-20" transform="translate(136.621094 0)"/>
      <use xlink:href="#DejaVuSans-3d" transform="translate(168.408203 0)"/>
      <use xlink:href="#DejaVuSans-20" transform="translate(252.197266 0)"/>
      <use xlink:href="#DejaVuSans-31" transform="translate(283.984375 0)"/>
      <use xlink:href="#DejaVuSans-65" transform="translate(347.607422 0)"/>
      <use xlink:href="#DejaVuSans-31" transform="translate(409.130859 0)"/>
      <use xlink:href="#DejaVuSans-30" transform="translate(472.753906 0)"/>
     </g>
    </g>
    <g id="line2d_25">
     <path d="M 324.080938 278.326187 
L 334.080938 278.326187 
L 344.080938 278.326187 
" style="fill: none; stroke: #ff4c00; stroke-width: 4; stroke-linecap: square"/>
    </g>
    <g id="text_23">
     <!-- kQ = 3e10 -->
     <g transform="translate(352.080938 281.826187) scale(0.1 -0.1)">
      <use xlink:href="#DejaVuSans-6b"/>
      <use xlink:href="#DejaVuSans-51" transform="translate(57.910156 0)"/>
      <use xlink:href="#DejaVuSans-20" transform="translate(136.621094 0)"/>
      <use xlink:href="#DejaVuSans-3d" transform="translate(168.408203 0)"/>
      <use xlink:href="#DejaVuSans-20" transform="translate(252.197266 0)"/>
      <use xlink:href="#DejaVuSans-33" transform="translate(283.984375 0)"/>
      <use xlink:href="#DejaVuSans-65" transform="translate(347.607422 0)"/>
      <use xlink:href="#DejaVuSans-31" transform="translate(409.130859 0)"/>
      <use xlink:href="#DejaVuSans-30" transform="translate(472.753906 0)"/>
     </g>
    </g>
    <g id="line2d_26">
     <path d="M 324.080938 293.004312 
L 334.080938 293.004312 
L 344.080938 293.004312 
" style="fill: none; stroke: #0030d1; stroke-width: 4; stroke-linecap: square"/>
    </g>
    <g id="text_24">
     <!-- kQ = 1e11 -->
     <g transform="translate(352.080938 296.504312) scale(0.1 -0.1)">
      <use xlink:href="#DejaVuSans-6b"/>
      <use xlink:href="#DejaVuSans-51" transform="translate(57.910156 0)"/>
      <use xlink:href="#DejaVuSans-20" transform="translate(136.621094 0)"/>
      <use xlink:href="#DejaVuSans-3d" transform="translate(168.408203 0)"/>
      <use xlink:href="#DejaVuSans-20" transform="translate(252.197266 0)"/>
      <use xlink:href="#DejaVuSans-31" transform="translate(283.984375 0)"/>
      <use xlink:href="#DejaVuSans-65" transform="translate(347.607422 0)"/>
      <use xlink:href="#DejaVuSans-31" transform="translate(409.130859 0)"/>
      <use xlink:href="#DejaVuSans-31" transform="translate(472.753906 0)"/>
     </g>
    </g>
   </g>
  </g>
  <g id="text_25">
   <!-- Figure 6 -->
   <g transform="translate(207.36 0) scale(0.15 -0.15)">
    <defs>
     <path id="DejaVuSans-46" d="M 628 4666 
L 3309 4666 
L 3309 4134 
L 1259 4134 
L 1259 2759 
L 3109 2759 
L 3109 2228 
L 1259 2228 
L 1259 0 
L 628 0 
L 628 4666 
z
" transform="scale(0.015625)"/>
     <path id="DejaVuSans-67" d="M 2906 1791 
Q 2906 2416 2648 2759 
Q 2391 3103 1925 3103 
Q 1463 3103 1205 2759 
Q 947 2416 947 1791 
Q 947 1169 1205 825 
Q 1463 481 1925 481 
Q 2391 481 2648 825 
Q 2906 1169 2906 1791 
z
M 3481 434 
Q 3481 -459 3084 -895 
Q 2688 -1331 1869 -1331 
Q 1566 -1331 1297 -1286 
Q 1028 -1241 775 -1147 
L 775 -588 
Q 1028 -725 1275 -790 
Q 1522 -856 1778 -856 
Q 2344 -856 2625 -561 
Q 2906 -266 2906 331 
L 2906 616 
Q 2728 306 2450 153 
Q 2172 0 1784 0 
Q 1141 0 747 490 
Q 353 981 353 1791 
Q 353 2603 747 3093 
Q 1141 3584 1784 3584 
Q 2172 3584 2450 3431 
Q 2728 3278 2906 2969 
L 2906 3500 
L 3481 3500 
L 3481 434 
z
" transform="scale(0.015625)"/>
     <path id="DejaVuSans-72" d="M 2631 2963 
Q 2534 3019 2420 3045 
Q 2306 3072 2169 3072 
Q 1681 3072 1420 2755 
Q 1159 2438 1159 1844 
L 1159 0 
L 581 0 
L 581 3500 
L 1159 3500 
L 1159 2956 
Q 1341 3275 1631 3429 
Q 1922 3584 2338 3584 
Q 2397 3584 2469 3576 
Q 2541 3569 2628 3553 
L 2631 2963 
z
" transform="scale(0.015625)"/>
    </defs>
    <use xlink:href="#DejaVuSans-46"/>
    <use xlink:href="#DejaVuSans-69" transform="translate(50.269531 0)"/>
    <use xlink:href="#DejaVuSans-67" transform="translate(78.052734 0)"/>
    <use xlink:href="#DejaVuSans-75" transform="translate(141.529297 0)"/>
    <use xlink:href="#DejaVuSans-72" transform="translate(204.908203 0)"/>
    <use xlink:href="#DejaVuSans-65" transform="translate(243.771484 0)"/>
    <use xlink:href="#DejaVuSans-20" transform="translate(305.294922 0)"/>
    <use xlink:href="#DejaVuSans-36" transform="translate(337.082031 0)"/>
   </g>
  </g>
 </g>
 <defs>
  <clipPath id="p4b2a18a24b">
   <rect x="57.6" y="41.472" width="357.12" height="266.112"/>
  </clipPath>
 </defs>
</svg>
