<?xml version="1.0" encoding="utf-8" standalone="no"?>
<!DOCTYPE svg PUBLIC "-//W3C//DTD SVG 1.1//EN"
  "http://www.w3.org/Graphics/SVG/1.1/DTD/svg11.dtd">
<svg xmlns:xlink="http://www.w3.org/1999/xlink" width="720pt" height="360pt" viewBox="0 0 720 360" xmlns="http://www.w3.org/2000/svg" version="1.1">
 <metadata>
  <rdf:RDF xmlns:dc="http://purl.org/dc/elements/1.1/" xmlns:cc="http://creativecommons.org/ns#" xmlns:rdf="http://www.w3.org/1999/02/22-rdf-syntax-ns#">
   <cc:Work>
    <dc:type rdf:resource="http://purl.org/dc/dcmitype/StillImage"/>
    <dc:date>2026-07-13T09:37:24.034407</dc:date>
    <dc:format>image/svg+xml</dc:format>
    <dc:creator>
     <cc:Agent>
      <dc:title>Matplotlib v3.10.8, https://matplotlib.org/</dc:title>
     </cc:Agent>
    </dc:creator>
   </cc:Work>
  </rdf:RDF>
 </metadata>
 <defs>
  <style type="text/css">*{stroke-linejoin: round; stroke-linecap: butt}</style>
 </defs>
 <g id="figure_1">
  <g id="patch_1">
   <path d="M 0 360 
L 720 360 
L 720 0 
L 0 0 
z
" style="fill: #ffffff"/>
  </g>
  <g id="axes_1">
   <g id="patch_2">
    <path d="M 90 320.4 
L 343.636364 320.4 
L 343.636364 43.2 
L 90 43.2 
z
" style="fill: #ffffff"/>
   </g>
   <g id="matplotlib.axis_1">
    <g id="xtick_1">
     <g id="line2d_1">
      <defs>
       <path id="m9d8b8ee1d5" d="M 0 0 
L 0 3.5 
" style="stroke: #000000; stroke-width: 0.8"/>
      </defs>
      <g>
       <use xlink:href="#m9d8b8ee1d5" x="101.528926" y="320.4" style="stroke: #000000; stroke-width: 0.8"/>
      </g>
     </g>
     <g id="text_1">
      <!-- 0 -->
      <g transform="translate(98.347676 334.998438) scale(0.1 -0.1)">
       <defs>
        <path id="DejaVuSans-30" d="M 2034 4250 
Q 1547 4250 1301 3770 
Q 1056 3291 1056 2328 
Q 1056 1369 1301 889 
Q 1547 409 2034 409 
Q 2525 409 2770 889 
Q 3016 1369 3016 2328 
Q 3016 3291 2770 3770 
Q 2525 4250 2034 4250 
z
M 2034 4750 
Q 2819 4750 3233 4129 
Q 3647 3509 3647 2328 
Q 3647 1150 3233 529 
Q 2819 -91 2034 -91 
Q 1250 -91 836 529 
Q 422 1150 422 2328 
Q 422 3509 836 4129 
Q 1250 4750 2034 4750 
z
" transform="scale(0.015625)"/>
       </defs>
       <use xlink:href="#DejaVuSans-30"/>
      </g>
     </g>
    </g>
    <g id="xtick_2">
     <g id="line2d_2">
      <g>
       <use xlink:href="#m9d8b8ee1d5" x="139.045768" y="320.4" style="stroke: #000000; stroke-width: 0.8"/>
      </g>
     </g>
     <g id="text_2">
      <!-- 250 -->
      <g transform="translate(129.502018 334.998438) scale(0.1 -0.1)">
       <defs>
        <path id="DejaVuSans-32" d="M 1228 531 
L 3431 531 
L 3431 0 
L 469 0 
L 469 531 
Q 828 903 1448 1529 
Q 2069 2156 2228 2338 
Q 2531 2678 2651 2914 
Q 2772 3150 2772 3378 
Q 2772 3750 2511 3984 
Q 2250 4219 1831 4219 
Q 1534 4219 1204 4116 
Q 875 4013 500 3803 
L 500 4441 
Q 881 4594 1212 4672 
Q 1544 4750 1819 4750 
Q 2544 4750 2975 4387 
Q 3406 4025 3406 3419 
Q 3406 3131 3298 2873 
Q 3191 2616 2906 2266 
Q 2828 2175 2409 1742 
Q 1991 1309 1228 531 
z
" transform="scale(0.015625)"/>
        <path id="DejaVuSans-35" d="M 691 4666 
L 3169 4666 
L 3169 4134 
L 1269 4134 
L 1269 2991 
Q 1406 3038 1543 3061 
Q 1681 3084 1819 3084 
Q 2600 3084 3056 2656 
Q 3513 2228 3513 1497 
Q 3513 744 3044 326 
Q 2575 -91 1722 -91 
Q 1428 -91 1123 -41 
Q 819 9 494 109 
L 494 744 
Q 775 591 1075 516 
Q 1375 441 1709 441 
Q 2250 441 2565 725 
Q 2881 1009 2881 1497 
Q 2881 1984 2565 2268 
Q 2250 2553 1709 2553 
Q 1456 2553 1204 2497 
Q 953 2441 691 2322 
L 691 4666 
z
" transform="scale(0.015625)"/>
       </defs>
       <use xlink:href="#DejaVuSans-32"/>
       <use xlink:href="#DejaVuSans-35" transform="translate(63.623047 0)"/>
       <use xlink:href="#DejaVuSans-30" transform="translate(127.246094 0)"/>
      </g>
     </g>
    </g>
    <g id="xtick_3">
     <g id="line2d_3">
      <g>
       <use xlink:href="#m9d8b8ee1d5" x="176.56261" y="320.4" style="stroke: #000000; stroke-width: 0.8"/>
      </g>
     </g>
     <g id="text_3">
      <!-- 500 -->
      <g transform="translate(167.01886 334.998438) scale(0.1 -0.1)">
       <use xlink:href="#DejaVuSans-35"/>
       <use xlink:href="#DejaVuSans-30" transform="translate(63.623047 0)"/>
       <use xlink:href="#DejaVuSans-30" transform="translate(127.246094 0)"/>
      </g>
     </g>
    </g>
    <g id="xtick_4">
     <g id="line2d_4">
      <g>
       <use xlink:href="#m9d8b8ee1d5" x="214.079452" y="320.4" style="stroke: #000000; stroke-width: 0.8"/>
      </g>
     </g>
     <g id="text_4">
      <!-- 750 -->
      <g transform="translate(204.535702 334.998438) scale(0.1 -0.1)">
       <defs>
        <path id="DejaVuSans-37" d="M 525 4666 
L 3525 4666 
L 3525 4397 
L 1831 0 
L 1172 0 
L 2766 4134 
L 525 4134 
L 525 4666 
z
" transform="scale(0.015625)"/>
       </defs>
       <use xlink:href="#DejaVuSans-37"/>
       <use xlink:href="#DejaVuSans-35" transform="translate(63.623047 0)"/>
       <use xlink:href="#DejaVuSans-30" transform="translate(127.246094 0)"/>
      </g>
     </g>
    </g>
    <g id="xtick_5">
     <g id="line2d_5">
      <g>
       <use xlink:href="#m9d8b8ee1d5" x="251.596295" y="320.4" style="stroke: #000000; stroke-width: 0.8"/>
      </g>
     </g>
     <g id="text_5">
      <!-- 1000 -->
      <g transform="translate(238.871295 334.998438) scale(0.1 -0.1)">
       <defs>
        <path id="DejaVuSans-31" d="M 794 531 
L 1825 531 
L 1825 4091 
L 703 3866 
L 703 4441 
L 1819 4666 
L 2450 4666 
L 2450 531 
L 3481 531 
L 3481 0 
L 794 0 
L 794 531 
z
" transform="scale(0.015625)"/>
       </defs>
       <use xlink:href="#DejaVuSans-31"/>
       <use xlink:href="#DejaVuSans-30" transform="translate(63.623047 0)"/>
       <use xlink:href="#DejaVuSans-30" transform="translate(127.246094 0)"/>
       <use xlink:href="#DejaVuSans-30" transform="translate(190.869141 0)"/>
      </g>
     </g>
    </g>
    <g id="xtick_6">
     <g id="line2d_6">
      <g>
       <use xlink:href="#m9d8b8ee1d5" x="289.113137" y="320.4" style="stroke: #000000; stroke-width: 0.8"/>
      </g>
     </g>
     <g id="text_6">
      <!-- 1250 -->
      <g transform="translate(276.388137 334.998438) scale(0.1 -0.1)">
       <use xlink:href="#DejaVuSans-31"/>
       <use xlink:href="#DejaVuSans-32" transform="translate(63.623047 0)"/>
       <use xlink:href="#DejaVuSans-35" transform="translate(127.246094 0)"/>
       <use xlink:href="#DejaVuSans-30" transform="translate(190.869141 0)"/>
      </g>
     </g>
    </g>
    <g id="xtick_7">
     <g id="line2d_7">
      <g>
       <use xlink:href="#m9d8b8ee1d5" x="326.629979" y="320.4" style="stroke: #000000; stroke-width: 0.8"/>
      </g>
     </g>
     <g id="text_7">
      <!-- 1500 -->
      <g transform="translate(313.904979 334.998438) scale(0.1 -0.1)">
       <use xlink:href="#DejaVuSans-31"/>
       <use xlink:href="#DejaVuSans-35" transform="translate(63.623047 0)"/>
       <use xlink:href="#DejaVuSans-30" transform="translate(127.246094 0)"/>
       <use xlink:href="#DejaVuSans-30" transform="translate(190.869141 0)"/>
      </g>
     </g>
    </g>
    <g id="text_8">
     <!-- Time(s) -->
     <g transform="translate(198.078338 348.676562) scale(0.1 -0.1)">
      <defs>
       <path id="DejaVuSans-54" d="M -19 4666 
L 3928 4666 
L 3928 4134 
L 2272 4134 
L 2272 0 
L 1638 0 
L 1638 4134 
L -19 4134 
L -19 4666 
z
" transform="scale(0.015625)"/>
       <path id="DejaVuSans-69" d="M 603 3500 
L 1178 3500 
L 1178 0 
L 603 0 
L 603 3500 
z
M 603 4863 
L 1178 4863 
L 1178 4134 
L 603 4134 
L 603 4863 
z
" transform="scale(0.015625)"/>
       <path id="DejaVuSans-6d" d="M 3328 2828 
Q 3544 3216 3844 3400 
Q 4144 3584 4550 3584 
Q 5097 3584 5394 3201 
Q 5691 2819 5691 2113 
L 5691 0 
L 5113 0 
L 5113 2094 
Q 5113 2597 4934 2840 
Q 4756 3084 4391 3084 
Q 3944 3084 3684 2787 
Q 3425 2491 3425 1978 
L 3425 0 
L 2847 0 
L 2847 2094 
Q 2847 2600 2669 2842 
Q 2491 3084 2119 3084 
Q 1678 3084 1418 2786 
Q 1159 2488 1159 1978 
L 1159 0 
L 581 0 
L 581 3500 
L 1159 3500 
L 1159 2956 
Q 1356 3278 1631 3431 
Q 1906 3584 2284 3584 
Q 2666 3584 2933 3390 
Q 3200 3197 3328 2828 
z
" transform="scale(0.015625)"/>
       <path id="DejaVuSans-65" d="M 3597 1894 
L 3597 1613 
L 953 1613 
Q 991 1019 1311 708 
Q 1631 397 2203 397 
Q 2534 397 2845 478 
Q 3156 559 3463 722 
L 3463 178 
Q 3153 47 2828 -22 
Q 2503 -91 2169 -91 
Q 1331 -91 842 396 
Q 353 884 353 1716 
Q 353 2575 817 3079 
Q 1281 3584 2069 3584 
Q 2775 3584 3186 3129 
Q 3597 2675 3597 1894 
z
M 3022 2063 
Q 3016 2534 2758 2815 
Q 2500 3097 2075 3097 
Q 1594 3097 1305 2825 
Q 1016 2553 972 2059 
L 3022 2063 
z
" transform="scale(0.015625)"/>
       <path id="DejaVuSans-28" d="M 1984 4856 
Q 1566 4138 1362 3434 
Q 1159 2731 1159 2009 
Q 1159 1288 1364 580 
Q 1569 -128 1984 -844 
L 1484 -844 
Q 1016 -109 783 600 
Q 550 1309 550 2009 
Q 550 2706 781 3412 
Q 1013 4119 1484 4856 
L 1984 4856 
z
" transform="scale(0.015625)"/>
       <path id="DejaVuSans-73" d="M 2834 3397 
L 2834 2853 
Q 2591 2978 2328 3040 
Q 2066 3103 1784 3103 
Q 1356 3103 1142 2972 
Q 928 2841 928 2578 
Q 928 2378 1081 2264 
Q 1234 2150 1697 2047 
L 1894 2003 
Q 2506 1872 2764 1633 
Q 3022 1394 3022 966 
Q 3022 478 2636 193 
Q 2250 -91 1575 -91 
Q 1294 -91 989 -36 
Q 684 19 347 128 
L 347 722 
Q 666 556 975 473 
Q 1284 391 1588 391 
Q 1994 391 2212 530 
Q 2431 669 2431 922 
Q 2431 1156 2273 1281 
Q 2116 1406 1581 1522 
L 1381 1569 
Q 847 1681 609 1914 
Q 372 2147 372 2553 
Q 372 3047 722 3315 
Q 1072 3584 1716 3584 
Q 2034 3584 2315 3537 
Q 2597 3491 2834 3397 
z
" transform="scale(0.015625)"/>
       <path id="DejaVuSans-29" d="M 513 4856 
L 1013 4856 
Q 1481 4119 1714 3412 
Q 1947 2706 1947 2009 
Q 1947 1309 1714 600 
Q 1481 -109 1013 -844 
L 513 -844 
Q 928 -128 1133 580 
Q 1338 1288 1338 2009 
Q 1338 2731 1133 3434 
Q 928 4138 513 4856 
z
" transform="scale(0.015625)"/>
      </defs>
      <use xlink:href="#DejaVuSans-54"/>
      <use xlink:href="#DejaVuSans-69" transform="translate(57.958984 0)"/>
      <use xlink:href="#DejaVuSans-6d" transform="translate(85.742188 0)"/>
      <use xlink:href="#DejaVuSans-65" transform="translate(183.154297 0)"/>
      <use xlink:href="#DejaVuSans-28" transform="translate(244.677734 0)"/>
      <use xlink:href="#DejaVuSans-73" transform="translate(283.691406 0)"/>
      <use xlink:href="#DejaVuSans-29" transform="translate(335.791016 0)"/>
     </g>
    </g>
   </g>
   <g id="matplotlib.axis_2">
    <g id="ytick_1">
     <g id="line2d_8">
      <defs>
       <path id="m9ed6156074" d="M 0 0 
L -3.5 0 
" style="stroke: #000000; stroke-width: 0.8"/>
      </defs>
      <g>
       <use xlink:href="#m9ed6156074" x="90" y="304.311884" style="stroke: #000000; stroke-width: 0.8"/>
      </g>
     </g>
     <g id="text_9">
      <!-- 5.25 -->
      <g transform="translate(60.734375 308.111103) scale(0.1 -0.1)">
       <defs>
        <path id="DejaVuSans-2e" d="M 684 794 
L 1344 794 
L 1344 0 
L 684 0 
L 684 794 
z
" transform="scale(0.015625)"/>
       </defs>
       <use xlink:href="#DejaVuSans-35"/>
       <use xlink:href="#DejaVuSans-2e" transform="translate(63.623047 0)"/>
       <use xlink:href="#DejaVuSans-32" transform="translate(95.410156 0)"/>
       <use xlink:href="#DejaVuSans-35" transform="translate(159.033203 0)"/>
      </g>
     </g>
    </g>
    <g id="ytick_2">
     <g id="line2d_9">
      <g>
       <use xlink:href="#m9ed6156074" x="90" y="272.451386" style="stroke: #000000; stroke-width: 0.8"/>
      </g>
     </g>
     <g id="text_10">
      <!-- 5.50 -->
      <g transform="translate(60.734375 276.250605) scale(0.1 -0.1)">
       <use xlink:href="#DejaVuSans-35"/>
       <use xlink:href="#DejaVuSans-2e" transform="translate(63.623047 0)"/>
       <use xlink:href="#DejaVuSans-35" transform="translate(95.410156 0)"/>
       <use xlink:href="#DejaVuSans-30" transform="translate(159.033203 0)"/>
      </g>
     </g>
    </g>
    <g id="ytick_3">
     <g id="line2d_10">
      <g>
       <use xlink:href="#m9ed6156074" x="90" y="240.590888" style="stroke: #000000; stroke-width: 0.8"/>
      </g>
     </g>
     <g id="text_11">
      <!-- 5.75 -->
      <g transform="translate(60.734375 244.390107) scale(0.1 -0.1)">
       <use xlink:href="#DejaVuSans-35"/>
       <use xlink:href="#DejaVuSans-2e" transform="translate(63.623047 0)"/>
       <use xlink:href="#DejaVuSans-37" transform="translate(95.410156 0)"/>
       <use xlink:href="#DejaVuSans-35" transform="translate(159.033203 0)"/>
      </g>
     </g>
    </g>
    <g id="ytick_4">
     <g id="line2d_11">
      <g>
       <use xlink:href="#m9ed6156074" x="90" y="208.73039" style="stroke: #000000; stroke-width: 0.8"/>
      </g>
     </g>
     <g id="text_12">
      <!-- 6.00 -->
      <g transform="translate(60.734375 212.529609) scale(0.1 -0.1)">
       <defs>
        <path id="DejaVuSans-36" d="M 2113 2584 
Q 1688 2584 1439 2293 
Q 1191 2003 1191 1497 
Q 1191 994 1439 701 
Q 1688 409 2113 409 
Q 2538 409 2786 701 
Q 3034 994 3034 1497 
Q 3034 2003 2786 2293 
Q 2538 2584 2113 2584 
z
M 3366 4563 
L 3366 3988 
Q 3128 4100 2886 4159 
Q 2644 4219 2406 4219 
Q 1781 4219 1451 3797 
Q 1122 3375 1075 2522 
Q 1259 2794 1537 2939 
Q 1816 3084 2150 3084 
Q 2853 3084 3261 2657 
Q 3669 2231 3669 1497 
Q 3669 778 3244 343 
Q 2819 -91 2113 -91 
Q 1303 -91 875 529 
Q 447 1150 447 2328 
Q 447 3434 972 4092 
Q 1497 4750 2381 4750 
Q 2619 4750 2861 4703 
Q 3103 4656 3366 4563 
z
" transform="scale(0.015625)"/>
       </defs>
       <use xlink:href="#DejaVuSans-36"/>
       <use xlink:href="#DejaVuSans-2e" transform="translate(63.623047 0)"/>
       <use xlink:href="#DejaVuSans-30" transform="translate(95.410156 0)"/>
       <use xlink:href="#DejaVuSans-30" transform="translate(159.033203 0)"/>
      </g>
     </g>
    </g>
    <g id="ytick_5">
     <g id="line2d_12">
      <g>
       <use xlink:href="#m9ed6156074" x="90" y="176.869892" style="stroke: #000000; stroke-width: 0.8"/>
      </g>
     </g>
     <g id="text_13">
      <!-- 6.25 -->
      <g transform="translate(60.734375 180.669111) scale(0.1 -0.1)">
       <use xlink:href="#DejaVuSans-36"/>
       <use xlink:href="#DejaVuSans-2e" transform="translate(63.623047 0)"/>
       <use xlink:href="#DejaVuSans-32" transform="translate(95.410156 0)"/>
       <use xlink:href="#DejaVuSans-35" transform="translate(159.033203 0)"/>
      </g>
     </g>
    </g>
    <g id="ytick_6">
     <g id="line2d_13">
      <g>
       <use xlink:href="#m9ed6156074" x="90" y="145.009394" style="stroke: #000000; stroke-width: 0.8"/>
      </g>
     </g>
     <g id="text_14">
      <!-- 6.50 -->
      <g transform="translate(60.734375 148.808613) scale(0.1 -0.1)">
       <use xlink:href="#DejaVuSans-36"/>
       <use xlink:href="#DejaVuSans-2e" transform="translate(63.623047 0)"/>
       <use xlink:href="#DejaVuSans-35" transform="translate(95.410156 0)"/>
       <use xlink:href="#DejaVuSans-30" transform="translate(159.033203 0)"/>
      </g>
     </g>
    </g>
    <g id="ytick_7">
     <g id="line2d_14">
      <g>
       <use xlink:href="#m9ed6156074" x="90" y="113.148896" style="stroke: #000000; stroke-width: 0.8"/>
      </g>
     </g>
     <g id="text_15">
      <!-- 6.75 -->
      <g transform="translate(60.734375 116.948115) scale(0.1 -0.1)">
       <use xlink:href="#DejaVuSans-36"/>
       <use xlink:href="#DejaVuSans-2e" transform="translate(63.623047 0)"/>
       <use xlink:href="#DejaVuSans-37" transform="translate(95.410156 0)"/>
       <use xlink:href="#DejaVuSans-35" transform="translate(159.033203 0)"/>
      </g>
     </g>
    </g>
    <g id="ytick_8">
     <g id="line2d_15">
      <g>
       <use xlink:href="#m9ed6156074" x="90" y="81.288398" style="stroke: #000000; stroke-width: 0.8"/>
      </g>
     </g>
     <g id="text_16">
      <!-- 7.00 -->
      <g transform="translate(60.734375 85.087617) scale(0.1 -0.1)">
       <use xlink:href="#DejaVuSans-37"/>
       <use xlink:href="#DejaVuSans-2e" transform="translate(63.623047 0)"/>
       <use xlink:href="#DejaVuSans-30" transform="translate(95.410156 0)"/>
       <use xlink:href="#DejaVuSans-30" transform="translate(159.033203 0)"/>
      </g>
     </g>
    </g>
    <g id="ytick_9">
     <g id="line2d_16">
      <g>
       <use xlink:href="#m9ed6156074" x="90" y="49.4279" style="stroke: #000000; stroke-width: 0.8"/>
      </g>
     </g>
     <g id="text_17">
      <!-- 7.25 -->
      <g transform="translate(60.734375 53.227119) scale(0.1 -0.1)">
       <use xlink:href="#DejaVuSans-37"/>
       <use xlink:href="#DejaVuSans-2e" transform="translate(63.623047 0)"/>
       <use xlink:href="#DejaVuSans-32" transform="translate(95.410156 0)"/>
       <use xlink:href="#DejaVuSans-35" transform="translate(159.033203 0)"/>
      </g>
     </g>
    </g>
    <g id="text_18">
     <!-- pH lumen -->
     <g transform="translate(54.654687 205.996875) rotate(-90) scale(0.1 -0.1)">
      <defs>
       <path id="DejaVuSans-70" d="M 1159 525 
L 1159 -1331 
L 581 -1331 
L 581 3500 
L 1159 3500 
L 1159 2969 
Q 1341 3281 1617 3432 
Q 1894 3584 2278 3584 
Q 2916 3584 3314 3078 
Q 3713 2572 3713 1747 
Q 3713 922 3314 415 
Q 2916 -91 2278 -91 
Q 1894 -91 1617 61 
Q 1341 213 1159 525 
z
M 3116 1747 
Q 3116 2381 2855 2742 
Q 2594 3103 2138 3103 
Q 1681 3103 1420 2742 
Q 1159 2381 1159 1747 
Q 1159 1113 1420 752 
Q 1681 391 2138 391 
Q 2594 391 2855 752 
Q 3116 1113 3116 1747 
z
" transform="scale(0.015625)"/>
       <path id="DejaVuSans-48" d="M 628 4666 
L 1259 4666 
L 1259 2753 
L 3553 2753 
L 3553 4666 
L 4184 4666 
L 4184 0 
L 3553 0 
L 3553 2222 
L 1259 2222 
L 1259 0 
L 628 0 
L 628 4666 
z
" transform="scale(0.015625)"/>
       <path id="DejaVuSans-20" transform="scale(0.015625)"/>
       <path id="DejaVuSans-6c" d="M 603 4863 
L 1178 4863 
L 1178 0 
L 603 0 
L 603 4863 
z
" transform="scale(0.015625)"/>
       <path id="DejaVuSans-75" d="M 544 1381 
L 544 3500 
L 1119 3500 
L 1119 1403 
Q 1119 906 1312 657 
Q 1506 409 1894 409 
Q 2359 409 2629 706 
Q 2900 1003 2900 1516 
L 2900 3500 
L 3475 3500 
L 3475 0 
L 2900 0 
L 2900 538 
Q 2691 219 2414 64 
Q 2138 -91 1772 -91 
Q 1169 -91 856 284 
Q 544 659 544 1381 
z
M 1991 3584 
L 1991 3584 
z
" transform="scale(0.015625)"/>
       <path id="DejaVuSans-6e" d="M 3513 2113 
L 3513 0 
L 2938 0 
L 2938 2094 
Q 2938 2591 2744 2837 
Q 2550 3084 2163 3084 
Q 1697 3084 1428 2787 
Q 1159 2491 1159 1978 
L 1159 0 
L 581 0 
L 581 3500 
L 1159 3500 
L 1159 2956 
Q 1366 3272 1645 3428 
Q 1925 3584 2291 3584 
Q 2894 3584 3203 3211 
Q 3513 2838 3513 2113 
z
" transform="scale(0.015625)"/>
      </defs>
      <use xlink:href="#DejaVuSans-70"/>
      <use xlink:href="#DejaVuSans-48" transform="translate(63.476562 0)"/>
      <use xlink:href="#DejaVuSans-20" transform="translate(138.671875 0)"/>
      <use xlink:href="#DejaVuSans-6c" transform="translate(170.458984 0)"/>
      <use xlink:href="#DejaVuSans-75" transform="translate(198.242188 0)"/>
      <use xlink:href="#DejaVuSans-6d" transform="translate(261.621094 0)"/>
      <use xlink:href="#DejaVuSans-65" transform="translate(359.033203 0)"/>
      <use xlink:href="#DejaVuSans-6e" transform="translate(420.556641 0)"/>
     </g>
    </g>
   </g>
   <g id="line2d_17">
    <path d="M 101.528926 55.8 
L 105.358645 55.818131 
L 110.232833 55.841154 
L 110.312369 142.461918 
L 110.357389 134.88549 
L 110.532968 127.318482 
L 111.253291 107.960248 
L 111.973614 94.45948 
L 112.693938 84.821673 
L 113.414261 77.85191 
L 114.134585 72.766423 
L 114.944948 68.637578 
L 115.755312 65.696767 
L 116.565676 63.587986 
L 117.37604 62.066161 
L 118.276444 60.858394 
L 119.176848 60.005402 
L 119.53701 59.737817 
L 119.664567 152.119362 
L 120.137279 206.440948 
L 120.567973 228.915368 
L 120.664016 236.786224 
L 120.737549 258.946395 
L 120.782569 252.051526 
L 120.856852 249.392281 
L 120.915379 249.976449 
L 121.687475 260.600821 
L 122.013121 262.390841 
L 122.088155 278.821559 
L 122.126422 274.875946 
L 122.304252 270.045835 
L 122.820484 264.733812 
L 123.366729 257.595914 
L 124.225115 242.647639 
L 124.264132 241.921846 
L 124.339166 261.88036 
L 124.377433 257.425807 
L 124.622793 246.9938 
L 125.227565 227.898447 
L 125.949389 211.990326 
L 126.515143 202.506664 
L 126.590176 231.69287 
L 126.630694 225.101234 
L 126.854295 214.631995 
L 127.361523 198.544456 
L 127.927276 187.280984 
L 128.532048 179.41046 
L 128.766153 177.070145 
L 128.841187 209.664679 
L 128.881705 202.071498 
L 129.085797 193.094625 
L 129.573516 179.177343 
L 130.080743 170.533711 
L 130.626988 164.800878 
L 131.017164 161.995879 
L 131.092197 194.729465 
L 131.132715 186.892498 
L 131.336807 178.688421 
L 131.805017 166.63287 
L 132.292736 159.318505 
L 132.799964 154.79264 
L 133.268174 152.136936 
L 133.343208 184.050135 
L 133.383726 176.297668 
L 133.607326 168.092687 
L 134.075537 157.300791 
L 134.563256 150.921706 
L 135.050974 147.217361 
L 135.519185 145.015675 
L 135.594218 175.95453 
L 135.634737 168.405159 
L 135.858337 160.688693 
L 136.326547 150.614403 
L 136.794757 144.945779 
L 137.282476 141.558316 
L 137.770195 139.539874 
L 137.845229 169.574677 
L 137.885747 162.257831 
L 138.109347 154.920211 
L 138.558049 145.686289 
L 139.026259 140.268792 
L 139.494469 137.185916 
L 140.001697 135.241669 
L 140.021206 135.185011 
L 140.096239 164.432094 
L 140.136758 157.340739 
L 140.379867 149.803286 
L 140.828568 141.206365 
L 141.296778 136.209156 
L 141.764989 133.39938 
L 142.252708 131.70714 
L 142.272216 131.655941 
L 142.34725 160.22936 
L 142.387768 153.342914 
L 142.630877 146.066477 
L 143.079579 137.797541 
L 143.52828 133.177881 
L 143.99649 130.462994 
L 144.484209 128.857161 
L 144.523227 128.76229 
L 144.598261 156.762481 
L 144.638779 150.056727 
L 144.86538 143.389995 
L 145.327588 135.031362 
L 145.789795 130.475174 
L 146.252003 127.947393 
L 146.71421 126.506952 
L 147.260456 125.524198 
L 147.974776 124.727987 
L 148.94121 124.011747 
L 149.025248 123.959464 
L 149.100282 151.186594 
L 149.1408 144.713074 
L 149.367401 138.621789 
L 149.829609 131.023007 
L 150.291816 126.899197 
L 150.754024 124.622948 
L 151.216231 123.337394 
L 151.720458 122.529147 
L 152.39276 121.89825 
L 153.317175 121.344903 
L 153.527269 121.245178 
L 153.602303 147.837916 
L 153.642821 141.536308 
L 153.869423 135.635074 
L 154.33163 128.306651 
L 154.793838 124.365265 
L 155.256045 122.216951 
L 155.718253 121.026897 
L 156.222479 120.302148 
L 156.852762 119.796005 
L 157.777177 119.352884 
L 158.02929 119.263203 
L 158.104324 145.428669 
L 158.144842 139.266418 
L 158.371444 133.500323 
L 158.833651 126.358949 
L 159.295859 122.541719 
L 159.758066 120.48026 
L 160.220274 119.35533 
L 160.7245 118.687904 
L 161.354783 118.243553 
L 162.279198 117.882402 
L 162.531311 117.814018 
L 162.606345 143.668888 
L 162.646863 137.614276 
L 162.831446 132.834031 
L 163.266641 125.722982 
L 163.701837 121.802674 
L 164.137032 119.624322 
L 164.572227 118.408057 
L 165.094462 117.6273 
L 165.703735 117.17499 
L 166.574126 116.84587 
L 167.966751 116.595868 
L 171.535353 116.244151 
L 171.610387 141.650666 
L 171.650905 135.68158 
L 171.835488 131.015734 
L 172.270683 124.100083 
L 172.705879 120.309732 
L 173.141074 118.219827 
L 173.576269 117.066747 
L 174.098504 116.342882 
L 174.620738 115.986544 
L 175.491129 115.710891 
L 176.883754 115.54539 
L 180.539395 115.390026 
L 180.614429 140.599882 
L 180.654947 134.69432 
L 180.83953 130.078818 
L 181.274725 123.245296 
L 181.709921 119.509781 
L 182.145116 117.458226 
L 182.580312 116.333587 
L 183.015507 115.720181 
L 183.537741 115.342415 
L 184.321093 115.091947 
L 185.626679 114.953394 
L 189.28232 114.900949 
L 189.543438 114.899368 
L 189.618471 140.000107 
L 189.658989 134.134253 
L 189.843572 129.547278 
L 190.278768 122.759361 
L 190.713963 119.053812 
L 191.149158 117.022976 
L 191.584354 115.913584 
L 192.019549 115.31227 
L 192.541784 114.946768 
L 193.325135 114.712055 
L 194.630721 114.598438 
L 198.373402 114.611327 
L 198.54748 114.613094 
L 198.622513 139.6489 
L 198.663032 133.807138 
L 198.847614 129.237162 
L 199.28281 122.476467 
L 199.718005 118.788725 
L 200.1532 116.770064 
L 200.588396 115.669506 
L 201.023591 115.075105 
L 201.545826 114.716554 
L 202.329177 114.490666 
L 203.634763 114.391242 
L 207.377444 114.442469 
L 207.551522 114.44589 
L 207.626555 139.441933 
L 207.667074 133.614789 
L 207.851657 129.055224 
L 208.286852 122.311385 
L 208.722047 118.634653 
L 209.157243 116.623408 
L 209.592438 115.528105 
L 210.027633 114.937717 
L 210.549868 114.583125 
L 211.333219 114.362238 
L 212.638806 114.270918 
L 216.468525 114.346778 
L 216.555564 114.348974 
L 216.630598 139.320086 
L 216.671116 133.501893 
L 216.855699 128.948871 
L 217.290894 122.21582 
L 217.726089 118.546134 
L 218.161285 116.53953 
L 218.59648 115.447397 
L 219.031676 114.859333 
L 219.55391 114.506955 
L 220.337262 114.288845 
L 221.642848 114.20207 
L 225.472567 114.291297 
L 225.559606 114.293782 
L 225.63464 139.248795 
L 225.675158 133.436169 
L 226.017312 115.709854 
L 226.469014 91.191353 
L 226.910212 77.656017 
L 226.985246 113.402126 
L 227.025764 102.903939 
L 227.472965 84.161546 
L 227.935173 73.184828 
L 228.260819 68.425377 
L 228.335852 106.676458 
L 228.376371 96.447791 
L 228.813067 80.739347 
L 229.275274 71.20171 
L 229.737482 65.742351 
L 230.199689 62.586445 
L 230.703915 60.623092 
L 231.208142 59.521048 
L 231.754387 58.855589 
L 232.38467 58.44687 
L 232.76284 58.300458 
L 232.837873 100.699119 
L 232.880643 90.203845 
L 233.315088 77.106373 
L 233.777295 69.044582 
L 234.239503 64.405438 
L 234.70171 61.71312 
L 235.205937 60.034101 
L 235.710163 59.091645 
L 236.256408 58.524089 
L 236.92871 58.161091 
L 237.264861 58.055206 
L 237.339895 102.472124 
L 237.382664 91.391168 
L 237.817109 77.845224 
L 238.279316 69.480551 
L 238.741524 64.647669 
L 239.203731 61.831773 
L 239.707958 60.069651 
L 240.212184 59.078478 
L 240.758429 58.482011 
L 241.388712 58.119303 
L 241.766882 57.993354 
L 241.841916 104.617321 
L 241.884685 92.96922 
L 242.328134 78.657107 
L 242.763329 70.396413 
L 243.285564 64.72154 
L 243.807798 61.618375 
L 244.330033 59.908404 
L 244.852267 58.959363 
L 245.374501 58.428107 
L 246.070814 58.058704 
L 247.028244 57.838705 
L 248.769025 57.710292 
L 250.770924 57.660361 
L 250.845958 109.426976 
L 250.888727 96.528717 
L 251.332176 81.039349 
L 251.85441 70.680477 
L 252.376645 64.982721 
L 252.898879 61.814752 
L 253.421114 60.040479 
L 253.943348 59.040377 
L 254.465583 58.47259 
L 255.161895 58.072689 
L 256.119325 57.832591 
L 257.773067 57.699463 
L 259.774966 57.650182 
L 259.85 114.613543 
L 259.892769 100.522535 
L 260.336218 83.80672 
L 260.858453 72.480783 
L 261.380687 66.14758 
L 261.902921 62.564859 
L 262.425156 60.522544 
L 262.94739 59.350789 
L 263.469625 58.673873 
L 264.078898 58.231789 
L 264.86225 57.946485 
L 266.080797 57.76781 
L 268.691969 57.664576 
L 268.779008 57.662932 
L 268.854042 119.568718 
L 268.899062 104.301989 
L 269.34026 86.61355 
L 269.862495 74.380133 
L 270.384729 67.420294 
L 270.906964 63.411421 
L 271.429198 61.083691 
L 271.951432 59.72316 
L 272.473667 58.922561 
L 273.08294 58.389604 
L 273.866292 58.038206 
L 274.9978 57.822715 
L 277.173777 57.696684 
L 277.78305 57.681093 
L 277.858084 123.954772 
L 277.903104 107.873151 
L 278.257263 92.279524 
L 278.779498 77.988113 
L 279.301732 69.737202 
L 279.823967 64.904961 
L 280.346201 62.049732 
L 280.868436 60.351057 
L 281.39067 59.333808 
L 281.999944 58.644385 
L 282.696256 58.21747 
L 283.566647 57.953039 
L 285.046311 57.775673 
L 286.787093 57.701265 
L 286.862126 127.525794 
L 286.907146 110.971225 
L 287.261305 94.865534 
L 287.78354 79.924113 
L 288.305774 71.142674 
L 288.828009 65.904369 
L 289.350243 62.750957 
L 289.872478 60.839389 
L 290.394712 59.67311 
L 291.003986 58.867133 
L 291.700298 58.357311 
L 292.570689 58.034556 
L 293.876275 57.829494 
L 295.791135 57.722481 
L 295.866168 130.266491 
L 295.911189 113.581072 
L 296.265348 97.161083 
L 296.787582 81.746592 
L 297.309817 72.523457 
L 297.832051 66.920302 
L 298.354285 63.484466 
L 298.87652 61.362816 
L 299.398754 60.044358 
L 300.008028 59.115527 
L 300.617301 58.572278 
L 301.400653 58.1842 
L 302.445122 57.93421 
L 304.272942 57.768093 
L 304.795177 57.744629 
L 304.870211 132.350569 
L 304.917482 115.637805 
L 305.26939 99.213731 
L 305.791624 83.471151 
L 306.313859 73.883145 
L 306.836093 67.95285 
L 307.358328 64.250135 
L 307.880562 61.921974 
L 308.402796 60.448976 
L 309.01207 59.391564 
L 309.621343 58.760842 
L 310.317656 58.33915 
L 311.275086 58.034512 
L 312.75475 57.833419 
L 313.799219 57.768252 
L 313.874253 133.974437 
L 313.921524 117.556973 
L 314.186393 104.603427 
L 314.708627 87.275177 
L 315.230862 76.576697 
L 315.753096 69.856622 
L 316.275331 65.592409 
L 316.797565 62.866761 
L 317.319799 61.113775 
L 317.929073 59.833609 
L 318.538347 59.056362 
L 319.234659 58.527887 
L 320.10505 58.16478 
L 321.323597 57.921987 
L 322.803261 57.794198 
L 322.878295 135.281309 
L 322.925566 119.269935 
L 323.190435 106.33507 
L 323.712669 88.906134 
L 324.234904 77.963525 
L 324.757138 70.973698 
L 325.279373 66.463059 
L 325.888646 63.152683 
L 326.49792 61.133593 
L 327.107193 59.892278 
L 327.716467 59.122435 
L 328.412779 58.587372 
L 329.28317 58.210557 
L 330.501717 57.95152 
L 331.807303 57.823348 
L 331.882337 136.363135 
L 331.929608 120.825987 
L 332.107438 111.736615 
L 332.107438 111.736615 
" clip-path="url(#p295ec3143f)" style="fill: none; stroke: #000000; stroke-width: 1.5; stroke-linecap: square"/>
   </g>
   <g id="line2d_18">
    <path d="M 101.528926 55.8 
L 105.358645 55.818133 
L 110.232833 55.841162 
L 110.312369 142.46966 
L 110.357389 134.891158 
L 110.532968 127.323249 
L 111.253291 107.963473 
L 111.973614 94.461721 
L 112.693938 84.823252 
L 113.414261 77.853034 
L 114.134585 72.767229 
L 114.944948 68.638138 
L 115.755312 65.697159 
L 116.565676 63.588265 
L 117.37604 62.06636 
L 118.276444 60.858535 
L 119.176848 60.005502 
L 119.53701 59.737905 
L 119.664567 152.147369 
L 120.147784 207.725651 
L 120.588982 231.013117 
L 120.664016 238.16831 
L 120.737549 260.183461 
L 120.782569 253.538245 
L 120.854601 251.066546 
L 120.913128 251.708853 
L 121.782018 265.006325 
L 122.013121 266.777847 
L 122.088155 281.157904 
L 122.126422 277.959816 
L 122.29975 274.366846 
L 122.605888 272.952096 
L 122.976554 270.722048 
L 123.464273 266.226691 
L 124.049536 258.437447 
L 124.264132 255.110416 
L 124.339166 269.657154 
L 124.377433 266.400527 
L 124.642302 257.434389 
L 125.286091 240.255866 
L 126.124967 223.757141 
L 126.515143 217.355272 
L 126.590176 239.995453 
L 126.628443 234.953882 
L 126.854295 225.586821 
L 127.381031 210.369204 
L 127.985803 198.964691 
L 128.707627 189.458582 
L 128.766153 188.807222 
L 128.841187 215.962321 
L 128.881705 209.486075 
L 129.105305 200.540932 
L 129.593024 187.664627 
L 130.13927 178.73208 
L 130.76355 172.010565 
L 131.017164 169.877696 
L 131.092197 198.507876 
L 131.132715 191.531241 
L 131.356316 183.190231 
L 131.824526 171.962438 
L 132.351263 164.423054 
L 132.936525 159.169682 
L 133.268174 156.981621 
L 133.343208 185.780963 
L 133.383726 178.711929 
L 133.607326 170.927704 
L 134.075537 160.653648 
L 134.582764 154.19395 
L 135.12901 149.947029 
L 135.519185 147.828397 
L 135.594218 176.318666 
L 135.634737 169.33035 
L 135.858337 161.995232 
L 136.326547 152.434503 
L 136.814266 146.754557 
L 137.341003 143.087873 
L 137.770195 141.0988 
L 137.845229 169.133504 
L 137.885747 162.287903 
L 138.128856 154.809271 
L 138.577558 146.281946 
L 139.045768 141.187338 
L 139.552996 137.925644 
L 140.021206 136.008393 
L 140.096239 163.570306 
L 140.136758 156.881116 
L 140.379867 149.699826 
L 140.828568 141.563051 
L 141.296778 136.773894 
L 141.784497 133.866378 
L 142.272216 132.068978 
L 142.34725 159.189276 
L 142.387768 152.650195 
L 142.630877 145.704421 
L 143.079579 137.871108 
L 143.547789 133.314319 
L 144.035508 130.598992 
L 144.523227 128.963561 
L 144.598261 155.689024 
L 144.638779 149.286253 
L 144.86538 142.906448 
L 145.327588 134.972492 
L 145.789795 130.621229 
L 146.252003 128.129624 
L 146.756229 126.522407 
L 147.344493 125.39092 
L 148.100833 124.453694 
L 149.025248 123.6472 
L 149.100282 149.951361 
L 149.1408 143.71648 
L 149.367401 137.860972 
L 149.829609 130.645431 
L 150.291816 126.746155 
L 150.754024 124.561999 
L 151.25825 123.19801 
L 151.804496 122.333332 
L 152.518816 121.647001 
L 153.48525 121.031733 
L 153.527269 121.00974 
L 153.602303 146.837392 
L 153.642821 140.73023 
L 153.869423 135.040087 
L 154.289611 128.525228 
L 154.751819 124.575622 
L 155.214026 122.404402 
L 155.718253 121.087737 
L 156.264498 120.290877 
L 156.9368 119.731346 
L 157.903233 119.236411 
L 158.02929 119.186576 
L 158.104324 144.69252 
L 158.144842 138.691168 
L 158.371444 133.109928 
L 158.791632 126.731924 
L 159.25384 122.8871 
L 159.716047 120.795171 
L 160.178255 119.626234 
L 160.682481 118.903351 
L 161.312764 118.401006 
L 162.237179 117.979049 
L 162.531311 117.884749 
L 162.606345 143.160294 
L 162.646863 137.24138 
L 162.831446 132.595646 
L 163.266641 125.754773 
L 163.701837 122.007922 
L 164.137032 119.914321 
L 164.572227 118.722437 
L 165.094462 117.927135 
L 165.703735 117.438236 
L 166.574126 117.062672 
L 167.879712 116.774319 
L 170.316806 116.511256 
L 171.535353 116.422545 
L 171.610387 141.386472 
L 171.650905 135.522341 
L 171.835488 130.97731 
L 172.270683 124.309382 
L 172.705879 120.681015 
L 173.141074 118.673215 
L 173.576269 117.547128 
L 174.098504 116.814743 
L 174.707777 116.386527 
L 175.578168 116.093695 
L 176.970793 115.89096 
L 179.843083 115.753265 
L 180.539395 115.735648 
L 180.614429 140.562324 
L 180.654947 134.74145 
L 180.83953 130.231628 
L 181.274725 123.619714 
L 181.709921 120.0295 
L 182.145116 118.05031 
L 182.580312 116.947367 
L 183.102546 116.23853 
L 183.71182 115.834358 
L 184.58221 115.572077 
L 185.974835 115.412607 
L 189.021203 115.349752 
L 189.543438 115.348878 
L 189.618471 140.103975 
L 189.658989 134.310268 
L 189.843572 129.819381 
L 190.278768 123.236476 
L 190.713963 119.665598 
L 191.149158 117.700864 
L 191.584354 116.609697 
L 192.106588 115.912987 
L 192.715862 115.521379 
L 193.586252 115.274508 
L 194.978878 115.138124 
L 198.112284 115.120318 
L 198.54748 115.12531 
L 198.622513 139.839708 
L 198.663032 134.06219 
L 198.847614 129.582102 
L 199.28281 123.015569 
L 199.718005 119.455534 
L 200.1532 117.498896 
L 200.588396 116.414334 
L 201.11063 115.724448 
L 201.719904 115.339936 
L 202.590295 115.101675 
L 203.98292 114.978416 
L 207.116326 114.98663 
L 207.551522 114.994875 
L 207.626555 139.685576 
L 207.667074 133.9176 
L 207.851657 129.443788 
L 208.286852 122.886742 
L 208.722047 119.332977 
L 209.157243 117.381016 
L 209.592438 116.300271 
L 210.114672 115.614329 
L 210.723946 115.233924 
L 211.594337 115.00063 
L 212.986962 114.884981 
L 216.120369 114.908336 
L 216.555564 114.918476 
L 216.630598 139.595285 
L 216.671116 133.83292 
L 216.855699 129.36278 
L 217.290894 122.811279 
L 217.726089 119.261177 
L 218.161285 117.311947 
L 218.59648 116.23343 
L 219.118715 115.54979 
L 219.727988 115.171782 
L 220.598379 114.941384 
L 221.991004 114.830181 
L 225.21145 114.864601 
L 225.559606 114.873641 
L 225.63464 139.542288 
L 225.675158 133.783222 
L 226.006807 116.806164 
L 226.45851 91.785878 
L 226.910212 77.747906 
L 226.985246 113.31243 
L 227.025764 102.856068 
L 227.472965 84.124954 
L 227.935173 73.159119 
L 228.260819 68.406177 
L 228.335852 106.493967 
L 228.376371 96.310758 
L 228.813067 80.651561 
L 229.275274 71.146918 
L 229.737482 65.708579 
L 230.199689 62.56608 
L 230.703915 60.611828 
L 231.208142 59.515264 
L 231.754387 58.853347 
L 232.38467 58.446841 
L 232.76284 58.301149 
L 232.837873 100.516416 
L 232.878392 90.154131 
L 233.315088 77.016993 
L 233.777295 68.988018 
L 234.239503 64.369744 
L 234.70171 61.690728 
L 235.205937 60.020758 
L 235.710163 59.083792 
L 236.256408 58.51975 
L 236.92871 58.159105 
L 237.264861 58.053906 
L 237.339895 102.285492 
L 237.382664 91.249017 
L 237.817109 77.751687 
L 238.279316 69.420266 
L 238.741524 64.608797 
L 239.203731 61.80672 
L 239.707958 60.054129 
L 240.212184 59.06883 
L 240.758429 58.476196 
L 241.388712 58.115993 
L 241.766882 57.990955 
L 241.841916 104.43013 
L 241.884685 92.825779 
L 242.328134 78.562209 
L 242.763329 70.332782 
L 243.285564 64.682105 
L 243.807798 61.593909 
L 244.330033 59.893166 
L 244.852267 58.949788 
L 245.374501 58.421997 
L 246.070814 58.055215 
L 247.028244 57.836906 
L 248.856064 57.706313 
L 250.770924 57.659873 
L 250.845958 109.240687 
L 250.888727 96.385332 
L 251.332176 80.94155 
L 251.85441 70.617888 
L 252.376645 64.942756 
L 252.898879 61.789272 
L 253.421114 60.024205 
L 253.943348 59.029914 
L 254.465583 58.465776 
L 255.161895 58.068713 
L 256.119325 57.830511 
L 257.773067 57.698518 
L 259.774966 57.649627 
L 259.85 114.433646 
L 259.892769 100.382104 
L 260.336218 83.707552 
L 260.858453 72.414956 
L 261.380687 66.104189 
L 261.902921 62.536403 
L 262.425156 60.503911 
L 262.94739 59.338549 
L 263.469625 58.665761 
L 264.078898 58.226668 
L 264.86225 57.943507 
L 266.080797 57.766312 
L 268.779008 57.662305 
L 268.854042 119.405521 
L 268.899062 104.171266 
L 269.34026 86.517031 
L 269.862495 74.313315 
L 270.384729 67.374675 
L 270.906964 63.380586 
L 271.429198 61.062962 
L 271.951432 59.709234 
L 272.473667 58.913162 
L 273.08294 58.383581 
L 273.866292 58.034677 
L 274.9978 57.820889 
L 277.173777 57.695887 
L 277.78305 57.680409 
L 277.858084 123.819912 
L 277.903104 107.758811 
L 278.257263 92.185822 
L 278.779498 77.919537 
L 279.301732 69.688302 
L 279.823967 64.870711 
L 280.346201 62.026017 
L 280.868436 60.334732 
L 281.39067 59.322578 
L 281.999944 58.637081 
L 282.696256 58.212916 
L 283.653686 57.933457 
L 285.13335 57.768782 
L 286.787093 57.700546 
L 286.862126 127.425032 
L 286.907146 110.876739 
L 287.261305 94.783553 
L 287.78354 79.860187 
L 288.305774 71.094938 
L 288.828009 65.869688 
L 289.350243 62.726203 
L 289.872478 60.821907 
L 290.394712 59.660828 
L 291.003986 58.858992 
L 291.700298 58.35217 
L 292.570689 58.031561 
L 293.876275 57.827996 
L 295.791135 57.721742 
L 295.866168 130.19569 
L 295.911189 113.504285 
L 296.265348 97.090001 
L 296.787582 81.687297 
L 297.309817 72.477083 
L 297.832051 66.885382 
L 298.354285 63.458795 
L 298.87652 61.344229 
L 299.398754 60.03102 
L 300.008028 59.106509 
L 300.617301 58.566168 
L 301.400653 58.180438 
L 302.445122 57.932133 
L 304.272942 57.767176 
L 304.795177 57.743861 
L 304.870211 132.301481 
L 304.917482 115.574537 
L 305.26939 99.150973 
L 305.791624 83.41538 
L 306.313859 73.837664 
L 306.836093 67.91748 
L 307.358328 64.223422 
L 307.880562 61.902177 
L 308.402796 60.434479 
L 309.01207 59.381565 
L 309.621343 58.753958 
L 310.317656 58.33463 
L 311.275086 58.031906 
L 312.75475 57.832172 
L 313.799219 57.767424 
L 313.874253 133.940165 
L 313.921524 117.503019 
L 314.186393 104.547182 
L 314.708627 87.220892 
L 315.230862 76.53021 
L 315.753096 69.819161 
L 316.275331 65.563294 
L 316.797565 62.844651 
L 317.319799 61.097238 
L 317.929073 59.82196 
L 318.538347 59.048205 
L 319.234659 58.522455 
L 320.10505 58.161471 
L 321.323597 57.92024 
L 322.803261 57.793277 
L 322.878295 135.257284 
L 322.925566 119.222769 
L 323.190435 106.284068 
L 323.712669 88.854256 
L 324.234904 77.917621 
L 324.757138 70.935747 
L 325.279373 66.432905 
L 325.801607 63.507652 
L 326.410881 61.348207 
L 327.020154 60.023035 
L 327.629428 59.202811 
L 328.32574 58.634095 
L 329.196131 58.234914 
L 330.327639 57.97518 
L 331.807303 57.822301 
L 331.882337 136.346481 
L 331.929608 120.784092 
L 332.107438 111.691779 
L 332.107438 111.691779 
" clip-path="url(#p295ec3143f)" style="fill: none; stroke: #ff0000; stroke-width: 1.5; stroke-linecap: square"/>
   </g>
   <g id="patch_3">
    <path d="M 90 320.4 
L 90 43.2 
" style="fill: none; stroke: #000000; stroke-width: 0.8; stroke-linejoin: miter; stroke-linecap: square"/>
   </g>
   <g id="patch_4">
    <path d="M 343.636364 320.4 
L 343.636364 43.2 
" style="fill: none; stroke: #000000; stroke-width: 0.8; stroke-linejoin: miter; stroke-linecap: square"/>
   </g>
   <g id="patch_5">
    <path d="M 90 320.4 
L 343.636364 320.4 
" style="fill: none; stroke: #000000; stroke-width: 0.8; stroke-linejoin: miter; stroke-linecap: square"/>
   </g>
   <g id="patch_6">
    <path d="M 90 43.2 
L 343.636364 43.2 
" style="fill: none; stroke: #000000; stroke-width: 0.8; stroke-linejoin: miter; stroke-linecap: square"/>
   </g>
   <g id="text_19">
    <!-- 100 $\mu$mol photon m$^{-2}$ s$^{-1}$ -->
    <g transform="translate(139.778182 37.2) scale(0.12 -0.12)">
     <defs>
      <path id="DejaVuSans-Oblique-3bc" d="M -84 -1331 
L 856 3500 
L 1434 3500 
L 1009 1322 
Q 997 1256 987 1175 
Q 978 1094 978 1013 
Q 978 722 1161 565 
Q 1344 409 1684 409 
Q 2147 409 2431 671 
Q 2716 934 2816 1459 
L 3213 3500 
L 3788 3500 
L 3266 809 
Q 3253 750 3248 706 
Q 3244 663 3244 628 
Q 3244 531 3283 486 
Q 3322 441 3406 441 
Q 3438 441 3492 456 
Q 3547 472 3647 513 
L 3559 50 
Q 3422 -19 3297 -55 
Q 3172 -91 3053 -91 
Q 2847 -91 2730 40 
Q 2613 172 2613 403 
Q 2438 153 2195 31 
Q 1953 -91 1625 -91 
Q 1334 -91 1117 43 
Q 900 178 831 397 
L 494 -1331 
L -84 -1331 
z
" transform="scale(0.015625)"/>
      <path id="DejaVuSans-6f" d="M 1959 3097 
Q 1497 3097 1228 2736 
Q 959 2375 959 1747 
Q 959 1119 1226 758 
Q 1494 397 1959 397 
Q 2419 397 2687 759 
Q 2956 1122 2956 1747 
Q 2956 2369 2687 2733 
Q 2419 3097 1959 3097 
z
M 1959 3584 
Q 2709 3584 3137 3096 
Q 3566 2609 3566 1747 
Q 3566 888 3137 398 
Q 2709 -91 1959 -91 
Q 1206 -91 779 398 
Q 353 888 353 1747 
Q 353 2609 779 3096 
Q 1206 3584 1959 3584 
z
" transform="scale(0.015625)"/>
      <path id="DejaVuSans-68" d="M 3513 2113 
L 3513 0 
L 2938 0 
L 2938 2094 
Q 2938 2591 2744 2837 
Q 2550 3084 2163 3084 
Q 1697 3084 1428 2787 
Q 1159 2491 1159 1978 
L 1159 0 
L 581 0 
L 581 4863 
L 1159 4863 
L 1159 2956 
Q 1366 3272 1645 3428 
Q 1925 3584 2291 3584 
Q 2894 3584 3203 3211 
Q 3513 2838 3513 2113 
z
" transform="scale(0.015625)"/>
      <path id="DejaVuSans-74" d="M 1172 4494 
L 1172 3500 
L 2356 3500 
L 2356 3053 
L 1172 3053 
L 1172 1153 
Q 1172 725 1289 603 
Q 1406 481 1766 481 
L 2356 481 
L 2356 0 
L 1766 0 
Q 1100 0 847 248 
Q 594 497 594 1153 
L 594 3053 
L 172 3053 
L 172 3500 
L 594 3500 
L 594 4494 
L 1172 4494 
z
" transform="scale(0.015625)"/>
      <path id="DejaVuSans-2212" d="M 678 2272 
L 4684 2272 
L 4684 1741 
L 678 1741 
L 678 2272 
z
" transform="scale(0.015625)"/>
     </defs>
     <use xlink:href="#DejaVuSans-31" transform="translate(0 0.765625)"/>
     <use xlink:href="#DejaVuSans-30" transform="translate(63.623047 0.765625)"/>
     <use xlink:href="#DejaVuSans-30" transform="translate(127.246094 0.765625)"/>
     <use xlink:href="#DejaVuSans-20" transform="translate(190.869141 0.765625)"/>
     <use xlink:href="#DejaVuSans-Oblique-3bc" transform="translate(222.65625 0.765625)"/>
     <use xlink:href="#DejaVuSans-6d" transform="translate(286.279297 0.765625)"/>
     <use xlink:href="#DejaVuSans-6f" transform="translate(383.691406 0.765625)"/>
     <use xlink:href="#DejaVuSans-6c" transform="translate(444.873047 0.765625)"/>
     <use xlink:href="#DejaVuSans-20" transform="translate(472.65625 0.765625)"/>
     <use xlink:href="#DejaVuSans-70" transform="translate(504.443359 0.765625)"/>
     <use xlink:href="#DejaVuSans-68" transform="translate(567.919922 0.765625)"/>
     <use xlink:href="#DejaVuSans-6f" transform="translate(631.298828 0.765625)"/>
     <use xlink:href="#DejaVuSans-74" transform="translate(692.480469 0.765625)"/>
     <use xlink:href="#DejaVuSans-6f" transform="translate(731.689453 0.765625)"/>
     <use xlink:href="#DejaVuSans-6e" transform="translate(792.871094 0.765625)"/>
     <use xlink:href="#DejaVuSans-20" transform="translate(856.25 0.765625)"/>
     <use xlink:href="#DejaVuSans-6d" transform="translate(888.037109 0.765625)"/>
     <use xlink:href="#DejaVuSans-2212" transform="translate(986.40625 39.046875) scale(0.7)"/>
     <use xlink:href="#DejaVuSans-32" transform="translate(1045.058594 39.046875) scale(0.7)"/>
     <use xlink:href="#DejaVuSans-20" transform="translate(1092.329102 0.765625)"/>
     <use xlink:href="#DejaVuSans-73" transform="translate(1124.116211 0.765625)"/>
     <use xlink:href="#DejaVuSans-2212" transform="translate(1177.172852 39.046875) scale(0.7)"/>
     <use xlink:href="#DejaVuSans-31" transform="translate(1235.825195 39.046875) scale(0.7)"/>
    </g>
   </g>
   <g id="legend_1">
    <g id="patch_7">
     <path d="M 97 315.4 
L 154.396875 315.4 
Q 156.396875 315.4 156.396875 313.4 
L 156.396875 285.04375 
Q 156.396875 283.04375 154.396875 283.04375 
L 97 283.04375 
Q 95 283.04375 95 285.04375 
L 95 313.4 
Q 95 315.4 97 315.4 
z
" style="fill: #ffffff; opacity: 0.8; stroke: #cccccc; stroke-linejoin: miter"/>
    </g>
    <g id="line2d_19">
     <path d="M 99 291.142187 
L 109 291.142187 
L 119 291.142187 
" style="fill: none; stroke: #000000; stroke-width: 1.5; stroke-linecap: square"/>
    </g>
    <g id="text_20">
     <!-- WT -->
     <g transform="translate(127 294.642187) scale(0.1 -0.1)">
      <defs>
       <path id="DejaVuSans-57" d="M 213 4666 
L 850 4666 
L 1831 722 
L 2809 4666 
L 3519 4666 
L 4500 722 
L 5478 4666 
L 6119 4666 
L 4947 0 
L 4153 0 
L 3169 4050 
L 2175 0 
L 1381 0 
L 213 4666 
z
" transform="scale(0.015625)"/>
      </defs>
      <use xlink:href="#DejaVuSans-57"/>
      <use xlink:href="#DejaVuSans-54" transform="translate(98.876953 0)"/>
     </g>
    </g>
    <g id="line2d_20">
     <path d="M 99 305.820312 
L 109 305.820312 
L 119 305.820312 
" style="fill: none; stroke: #ff0000; stroke-width: 1.5; stroke-linecap: square"/>
    </g>
    <g id="text_21">
     <!-- npq4 -->
     <g transform="translate(127 309.320312) scale(0.1 -0.1)">
      <defs>
       <path id="DejaVuSans-71" d="M 947 1747 
Q 947 1113 1208 752 
Q 1469 391 1925 391 
Q 2381 391 2643 752 
Q 2906 1113 2906 1747 
Q 2906 2381 2643 2742 
Q 2381 3103 1925 3103 
Q 1469 3103 1208 2742 
Q 947 2381 947 1747 
z
M 2906 525 
Q 2725 213 2448 61 
Q 2172 -91 1784 -91 
Q 1150 -91 751 415 
Q 353 922 353 1747 
Q 353 2572 751 3078 
Q 1150 3584 1784 3584 
Q 2172 3584 2448 3432 
Q 2725 3281 2906 2969 
L 2906 3500 
L 3481 3500 
L 3481 -1331 
L 2906 -1331 
L 2906 525 
z
" transform="scale(0.015625)"/>
       <path id="DejaVuSans-34" d="M 2419 4116 
L 825 1625 
L 2419 1625 
L 2419 4116 
z
M 2253 4666 
L 3047 4666 
L 3047 1625 
L 3713 1625 
L 3713 1100 
L 3047 1100 
L 3047 0 
L 2419 0 
L 2419 1100 
L 313 1100 
L 313 1709 
L 2253 4666 
z
" transform="scale(0.015625)"/>
      </defs>
      <use xlink:href="#DejaVuSans-6e"/>
      <use xlink:href="#DejaVuSans-70" transform="translate(63.378906 0)"/>
      <use xlink:href="#DejaVuSans-71" transform="translate(126.855469 0)"/>
      <use xlink:href="#DejaVuSans-34" transform="translate(190.332031 0)"/>
     </g>
    </g>
   </g>
  </g>
  <g id="axes_2">
   <g id="patch_8">
    <path d="M 394.363636 320.4 
L 648 320.4 
L 648 43.2 
L 394.363636 43.2 
z
" style="fill: #ffffff"/>
   </g>
   <g id="matplotlib.axis_3">
    <g id="xtick_8">
     <g id="line2d_21">
      <g>
       <use xlink:href="#m9d8b8ee1d5" x="405.892562" y="320.4" style="stroke: #000000; stroke-width: 0.8"/>
      </g>
     </g>
     <g id="text_22">
      <!-- 0 -->
      <g transform="translate(402.711312 334.998438) scale(0.1 -0.1)">
       <use xlink:href="#DejaVuSans-30"/>
      </g>
     </g>
    </g>
    <g id="xtick_9">
     <g id="line2d_22">
      <g>
       <use xlink:href="#m9d8b8ee1d5" x="443.409404" y="320.4" style="stroke: #000000; stroke-width: 0.8"/>
      </g>
     </g>
     <g id="text_23">
      <!-- 250 -->
      <g transform="translate(433.865654 334.998438) scale(0.1 -0.1)">
       <use xlink:href="#DejaVuSans-32"/>
       <use xlink:href="#DejaVuSans-35" transform="translate(63.623047 0)"/>
       <use xlink:href="#DejaVuSans-30" transform="translate(127.246094 0)"/>
      </g>
     </g>
    </g>
    <g id="xtick_10">
     <g id="line2d_23">
      <g>
       <use xlink:href="#m9d8b8ee1d5" x="480.926246" y="320.4" style="stroke: #000000; stroke-width: 0.8"/>
      </g>
     </g>
     <g id="text_24">
      <!-- 500 -->
      <g transform="translate(471.382496 334.998438) scale(0.1 -0.1)">
       <use xlink:href="#DejaVuSans-35"/>
       <use xlink:href="#DejaVuSans-30" transform="translate(63.623047 0)"/>
       <use xlink:href="#DejaVuSans-30" transform="translate(127.246094 0)"/>
      </g>
     </g>
    </g>
    <g id="xtick_11">
     <g id="line2d_24">
      <g>
       <use xlink:href="#m9d8b8ee1d5" x="518.443089" y="320.4" style="stroke: #000000; stroke-width: 0.8"/>
      </g>
     </g>
     <g id="text_25">
      <!-- 750 -->
      <g transform="translate(508.899339 334.998438) scale(0.1 -0.1)">
       <use xlink:href="#DejaVuSans-37"/>
       <use xlink:href="#DejaVuSans-35" transform="translate(63.623047 0)"/>
       <use xlink:href="#DejaVuSans-30" transform="translate(127.246094 0)"/>
      </g>
     </g>
    </g>
    <g id="xtick_12">
     <g id="line2d_25">
      <g>
       <use xlink:href="#m9d8b8ee1d5" x="555.959931" y="320.4" style="stroke: #000000; stroke-width: 0.8"/>
      </g>
     </g>
     <g id="text_26">
      <!-- 1000 -->
      <g transform="translate(543.234931 334.998438) scale(0.1 -0.1)">
       <use xlink:href="#DejaVuSans-31"/>
       <use xlink:href="#DejaVuSans-30" transform="translate(63.623047 0)"/>
       <use xlink:href="#DejaVuSans-30" transform="translate(127.246094 0)"/>
       <use xlink:href="#DejaVuSans-30" transform="translate(190.869141 0)"/>
      </g>
     </g>
    </g>
    <g id="xtick_13">
     <g id="line2d_26">
      <g>
       <use xlink:href="#m9d8b8ee1d5" x="593.476773" y="320.4" style="stroke: #000000; stroke-width: 0.8"/>
      </g>
     </g>
     <g id="text_27">
      <!-- 1250 -->
      <g transform="translate(580.751773 334.998438) scale(0.1 -0.1)">
       <use xlink:href="#DejaVuSans-31"/>
       <use xlink:href="#DejaVuSans-32" transform="translate(63.623047 0)"/>
       <use xlink:href="#DejaVuSans-35" transform="translate(127.246094 0)"/>
       <use xlink:href="#DejaVuSans-30" transform="translate(190.869141 0)"/>
      </g>
     </g>
    </g>
    <g id="xtick_14">
     <g id="line2d_27">
      <g>
       <use xlink:href="#m9d8b8ee1d5" x="630.993615" y="320.4" style="stroke: #000000; stroke-width: 0.8"/>
      </g>
     </g>
     <g id="text_28">
      <!-- 1500 -->
      <g transform="translate(618.268615 334.998438) scale(0.1 -0.1)">
       <use xlink:href="#DejaVuSans-31"/>
       <use xlink:href="#DejaVuSans-35" transform="translate(63.623047 0)"/>
       <use xlink:href="#DejaVuSans-30" transform="translate(127.246094 0)"/>
       <use xlink:href="#DejaVuSans-30" transform="translate(190.869141 0)"/>
      </g>
     </g>
    </g>
    <g id="text_29">
     <!-- Time(s) -->
     <g transform="translate(502.441974 348.676562) scale(0.1 -0.1)">
      <use xlink:href="#DejaVuSans-54"/>
      <use xlink:href="#DejaVuSans-69" transform="translate(57.958984 0)"/>
      <use xlink:href="#DejaVuSans-6d" transform="translate(85.742188 0)"/>
      <use xlink:href="#DejaVuSans-65" transform="translate(183.154297 0)"/>
      <use xlink:href="#DejaVuSans-28" transform="translate(244.677734 0)"/>
      <use xlink:href="#DejaVuSans-73" transform="translate(283.691406 0)"/>
      <use xlink:href="#DejaVuSans-29" transform="translate(335.791016 0)"/>
     </g>
    </g>
   </g>
   <g id="matplotlib.axis_4">
    <g id="ytick_10">
     <g id="line2d_28">
      <g>
       <use xlink:href="#m9ed6156074" x="394.363636" y="304.311884" style="stroke: #000000; stroke-width: 0.8"/>
      </g>
     </g>
    </g>
    <g id="ytick_11">
     <g id="line2d_29">
      <g>
       <use xlink:href="#m9ed6156074" x="394.363636" y="272.451386" style="stroke: #000000; stroke-width: 0.8"/>
      </g>
     </g>
    </g>
    <g id="ytick_12">
     <g id="line2d_30">
      <g>
       <use xlink:href="#m9ed6156074" x="394.363636" y="240.590888" style="stroke: #000000; stroke-width: 0.8"/>
      </g>
     </g>
    </g>
    <g id="ytick_13">
     <g id="line2d_31">
      <g>
       <use xlink:href="#m9ed6156074" x="394.363636" y="208.73039" style="stroke: #000000; stroke-width: 0.8"/>
      </g>
     </g>
    </g>
    <g id="ytick_14">
     <g id="line2d_32">
      <g>
       <use xlink:href="#m9ed6156074" x="394.363636" y="176.869892" style="stroke: #000000; stroke-width: 0.8"/>
      </g>
     </g>
    </g>
    <g id="ytick_15">
     <g id="line2d_33">
      <g>
       <use xlink:href="#m9ed6156074" x="394.363636" y="145.009394" style="stroke: #000000; stroke-width: 0.8"/>
      </g>
     </g>
    </g>
    <g id="ytick_16">
     <g id="line2d_34">
      <g>
       <use xlink:href="#m9ed6156074" x="394.363636" y="113.148896" style="stroke: #000000; stroke-width: 0.8"/>
      </g>
     </g>
    </g>
    <g id="ytick_17">
     <g id="line2d_35">
      <g>
       <use xlink:href="#m9ed6156074" x="394.363636" y="81.288398" style="stroke: #000000; stroke-width: 0.8"/>
      </g>
     </g>
    </g>
    <g id="ytick_18">
     <g id="line2d_36">
      <g>
       <use xlink:href="#m9ed6156074" x="394.363636" y="49.4279" style="stroke: #000000; stroke-width: 0.8"/>
      </g>
     </g>
    </g>
   </g>
   <g id="line2d_37">
    <path d="M 405.892562 55.8 
L 409.722281 55.818131 
L 414.596469 55.841154 
L 414.676005 142.461918 
L 414.721025 134.88549 
L 414.896604 127.318482 
L 415.616927 107.960248 
L 416.337251 94.45948 
L 417.057574 84.821673 
L 417.777898 77.85191 
L 418.498221 72.766423 
L 419.308585 68.637578 
L 420.118949 65.696767 
L 420.929312 63.587986 
L 421.739676 62.066161 
L 422.64008 60.858394 
L 423.540485 60.005402 
L 423.900646 59.737817 
L 424.028204 168.48067 
L 424.290821 230.929557 
L 424.71101 278.257293 
L 425.053164 292.819177 
L 425.462848 301.838251 
L 425.851522 306.115045 
L 426.166664 307.57636 
L 426.334739 307.682862 
L 426.345244 307.676535 
L 426.378259 307.774065 
L 426.451792 307.565306 
L 426.566593 307.278593 
L 426.87198 306.185384 
L 427.476752 303.071736 
L 428.374155 297.304255 
L 431.08212 279.3005 
L 432.837158 269.393073 
L 434.405362 261.812317 
L 435.895531 255.668296 
L 437.358688 250.558108 
L 438.770822 246.406449 
L 439.882821 243.617476 
L 439.883571 243.736738 
L 439.99162 243.370748 
L 441.333973 240.539831 
L 442.726598 238.106552 
L 444.131228 236.084361 
L 445.562871 234.406471 
L 446.635853 233.358039 
L 446.636603 233.517066 
L 446.713137 233.227637 
L 446.744651 233.269184 
L 448.223565 232.087042 
L 448.886863 231.638537 
L 448.887614 231.805502 
L 448.964148 231.526739 
L 448.995662 231.577998 
L 450.615639 230.665142 
L 452.506488 229.856756 
L 453.388884 229.553962 
L 453.389635 229.731107 
L 453.466169 229.465412 
L 453.497683 229.528648 
L 455.579868 228.961603 
L 457.890905 228.522834 
L 457.891656 228.705361 
L 457.96819 228.441298 
L 458.001955 228.510786 
L 461.216398 228.117837 
L 462.392926 228.018844 
L 462.393677 228.204176 
L 462.470211 227.940288 
L 462.503976 228.013203 
L 466.894947 227.774226 
L 466.895698 227.96102 
L 466.972232 227.6971 
L 467.005997 227.771648 
L 475.811951 227.599437 
L 475.89899 227.598681 
L 475.89974 227.786641 
L 475.976274 227.522525 
L 476.010039 227.598171 
L 484.903032 227.557755 
L 484.903782 227.746044 
L 484.980316 227.481815 
L 485.014082 227.557726 
L 493.907074 227.548199 
L 493.907824 227.736584 
L 493.984359 227.472307 
L 494.018124 227.548284 
L 502.911116 227.54596 
L 502.911866 227.734374 
L 502.988401 227.470078 
L 503.022166 227.546072 
L 511.915158 227.545433 
L 511.915908 227.733857 
L 511.992443 227.469553 
L 512.026208 227.545552 
L 520.9192 227.545309 
L 520.919951 227.733735 
L 520.996485 227.469429 
L 521.03025 227.545429 
L 529.923242 227.545279 
L 529.923993 227.733706 
L 530.000527 227.469399 
L 530.034292 227.545399 
L 530.223377 227.545346 
L 530.422967 182.749259 
L 530.843155 129.204551 
L 531.273849 99.229853 
L 531.348882 127.368019 
L 531.38715 118.290558 
L 531.826097 92.837031 
L 532.277799 78.241366 
L 532.624455 71.558769 
L 532.699489 105.025619 
L 532.740007 96.728556 
L 533.176703 80.822162 
L 533.63891 71.320759 
L 534.101118 65.984908 
L 534.563325 62.956578 
L 535.025533 61.252765 
L 535.529759 60.232672 
L 536.076005 59.62175 
L 536.790325 59.179119 
L 537.126476 59.040142 
L 537.20151 94.678202 
L 537.242028 86.236574 
L 537.678724 74.625041 
L 538.140932 67.615305 
L 538.603139 63.640418 
L 539.065347 61.365065 
L 539.569573 59.961342 
L 540.073799 59.179178 
L 540.662063 58.684657 
L 541.418403 58.362258 
L 541.628497 58.305154 
L 541.703531 95.171651 
L 541.744049 86.132224 
L 542.180745 74.444679 
L 542.642953 67.38046 
L 543.10516 63.36893 
L 543.567368 61.072193 
L 544.071594 59.659147 
L 544.57582 58.876018 
L 545.164084 58.383686 
L 545.878405 58.088158 
L 546.130518 58.02574 
L 546.205552 96.778546 
L 546.24607 87.157638 
L 546.69177 74.855104 
L 547.126966 67.913004 
L 547.562161 63.826266 
L 547.997356 61.403491 
L 548.519591 59.749163 
L 549.041825 58.852879 
L 549.56406 58.362326 
L 550.260372 58.028565 
L 551.304841 57.823019 
L 553.393779 57.702648 
L 555.13456 57.663321 
L 555.209594 101.184356 
L 555.252363 90.244481 
L 555.695812 76.855133 
L 556.131008 69.182248 
L 556.566203 64.61983 
L 557.088438 61.488493 
L 557.610672 59.783731 
L 558.132906 58.849795 
L 558.655141 58.334514 
L 559.351453 57.983061 
L 560.308883 57.780513 
L 562.136704 57.668071 
L 564.138603 57.631839 
L 564.213636 106.330042 
L 564.256405 94.13783 
L 564.699855 79.420153 
L 565.13505 70.893843 
L 565.657284 65.008749 
L 566.179519 61.773371 
L 566.701753 59.9817 
L 567.223988 58.983359 
L 567.746222 58.423284 
L 568.442535 58.034358 
L 569.399965 57.805557 
L 571.140746 57.679711 
L 573.142645 57.637917 
L 573.217678 111.612752 
L 573.260448 98.192014 
L 573.703897 82.178569 
L 574.226131 71.41163 
L 574.748366 65.44899 
L 575.2706 62.109995 
L 575.792834 60.226345 
L 576.315069 59.156952 
L 576.837303 58.545635 
L 577.446577 58.150753 
L 578.316968 57.881298 
L 579.709593 57.726526 
L 582.146687 57.652388 
L 582.221721 116.770282 
L 582.26449 102.206884 
L 582.707939 85.004739 
L 583.230173 73.281956 
L 583.752408 66.678884 
L 584.274642 62.9149 
L 584.796877 60.752475 
L 585.319111 59.502039 
L 585.841345 58.774031 
L 586.450619 58.294749 
L 587.233971 57.982677 
L 588.365479 57.793787 
L 590.715534 57.679504 
L 591.150729 57.669983 
L 591.225763 121.524604 
L 591.270783 105.874031 
L 591.624942 90.671055 
L 592.147176 76.834849 
L 592.669411 68.927101 
L 593.191645 64.344216 
L 593.71388 61.665146 
L 594.236114 60.088364 
L 594.758349 59.154193 
L 595.367622 58.528136 
L 596.063935 58.145167 
L 597.021364 57.895849 
L 598.675107 57.741072 
L 600.154771 57.689476 
L 600.229805 125.580208 
L 600.274825 109.254536 
L 600.628984 93.417262 
L 601.151218 78.826635 
L 601.673453 70.338749 
L 602.195687 65.328567 
L 602.717922 62.344499 
L 603.240156 60.554876 
L 603.762391 59.474577 
L 604.371664 58.736293 
L 605.067977 58.274944 
L 605.938367 57.986521 
L 607.330993 57.798197 
L 609.158813 57.710197 
L 609.233847 128.781603 
L 609.278867 112.136337 
L 609.633026 95.876137 
L 610.155261 80.713917 
L 610.677495 71.734246 
L 611.199729 66.335623 
L 611.721964 63.059887 
L 612.244198 61.05834 
L 612.766433 59.827494 
L 613.375706 58.969849 
L 613.98498 58.473933 
L 614.768331 58.123709 
L 615.899839 57.888858 
L 617.901738 57.741705 
L 618.162855 57.731782 
L 618.237889 131.21439 
L 618.282909 114.562687 
L 618.637068 98.059407 
L 619.159303 82.490952 
L 619.681537 73.104513 
L 620.203772 67.357985 
L 620.726006 63.806742 
L 621.24824 61.596696 
L 621.770475 60.212654 
L 622.379748 59.229694 
L 622.989022 58.649915 
L 623.772374 58.23219 
L 624.816843 57.9608 
L 626.557624 57.784739 
L 627.166898 57.754463 
L 627.241931 133.079387 
L 627.289202 116.480271 
L 627.554071 103.539035 
L 628.076306 86.30831 
L 628.59854 75.774471 
L 629.120775 69.223113 
L 629.643009 65.107136 
L 630.165244 62.502305 
L 630.687478 60.843523 
L 631.296751 59.644714 
L 631.906025 58.92481 
L 632.602338 58.440599 
L 633.472728 58.111597 
L 634.778314 57.883869 
L 636.17094 57.778964 
L 636.245973 134.553004 
L 636.293245 118.303189 
L 636.471074 109.18368 
L 636.471074 109.18368 
" clip-path="url(#pc29e3f1643)" style="fill: none; stroke: #000000; stroke-width: 1.5; stroke-linecap: square"/>
   </g>
   <g id="line2d_38">
    <path d="M 405.892562 55.8 
L 409.722281 55.818131 
L 414.596469 55.841154 
L 414.676005 142.461918 
L 414.721025 134.88549 
L 414.896604 127.318483 
L 415.616927 107.960248 
L 416.337251 94.45948 
L 417.057574 84.821674 
L 417.777898 77.85191 
L 418.498221 72.766423 
L 419.308585 68.637579 
L 420.118949 65.696767 
L 420.929312 63.587986 
L 421.739676 62.066161 
L 422.64008 60.858394 
L 423.540485 60.005402 
L 423.900646 59.737817 
L 424.028204 168.480673 
L 424.290821 230.936319 
L 424.71101 278.30049 
L 425.054664 292.879757 
L 425.462848 301.847817 
L 425.851522 306.120906 
L 426.166664 307.579907 
L 426.334739 307.685253 
L 426.376758 307.65205 
L 426.377508 307.787421 
L 426.378259 307.8 
L 426.454043 307.394413 
L 426.467549 307.459439 
L 426.490059 307.443241 
L 426.528326 307.370342 
L 426.774436 306.588307 
L 427.301173 304.053697 
L 428.179067 298.647428 
L 431.374001 277.552945 
L 433.032246 268.38975 
L 434.580941 261.04856 
L 436.07111 255.033747 
L 437.514758 250.107439 
L 438.926892 246.058686 
L 440.319517 242.721249 
L 441.743656 239.896939 
L 443.136282 237.623363 
L 444.384842 235.934325 
L 444.385592 236.052814 
L 444.462127 235.765999 
L 444.493641 235.791431 
L 446.187151 233.979857 
L 447.716338 232.686919 
L 448.886863 231.880495 
L 448.887614 231.995098 
L 448.964148 231.763029 
L 448.995662 231.802878 
L 450.95179 230.768067 
L 452.884658 230.004546 
L 453.388884 229.840613 
L 453.389635 229.953374 
L 453.466169 229.748935 
L 453.497683 229.796646 
L 456.168132 229.137831 
L 457.890905 228.83474 
L 457.891656 228.946618 
L 457.96819 228.755922 
L 457.999704 228.807725 
L 462.140813 228.363715 
L 462.392926 228.344622 
L 462.393677 228.456074 
L 462.470211 228.272108 
L 462.501725 228.325944 
L 466.894947 228.107384 
L 466.895698 228.218631 
L 466.972232 228.037891 
L 467.003746 228.092704 
L 475.89899 227.937627 
L 475.89974 228.048728 
L 475.976274 227.870091 
L 476.007788 227.925569 
L 484.978065 227.904734 
L 484.980316 227.831025 
L 485.088365 227.887409 
L 493.982108 227.895662 
L 493.984359 227.821966 
L 494.092407 227.878419 
L 502.98615 227.893546 
L 502.988401 227.819853 
L 503.096449 227.876319 
L 511.990192 227.893047 
L 511.992443 227.819355 
L 512.100491 227.875824 
L 520.994234 227.89293 
L 520.996485 227.819238 
L 521.104533 227.875708 
L 529.998276 227.892903 
L 530.000527 227.819211 
L 530.108576 227.875681 
L 530.223377 227.876866 
L 530.422967 182.97785 
L 530.843155 129.32376 
L 531.273849 99.293123 
L 531.348882 127.43081 
L 531.38715 118.35198 
L 531.826097 92.869338 
L 532.277799 78.258403 
L 532.624455 71.569404 
L 532.699489 105.044744 
L 532.740007 96.748622 
L 533.176703 80.833316 
L 533.63891 71.327098 
L 534.101118 65.988852 
L 534.563325 62.959344 
L 535.025533 61.255458 
L 535.529759 60.235417 
L 536.076005 59.624485 
L 536.790325 59.181717 
L 537.126476 59.042644 
L 537.20151 94.678703 
L 537.242028 86.238775 
L 537.678724 74.626646 
L 538.140932 67.616622 
L 538.603139 63.641613 
L 539.065347 61.366203 
L 539.569573 59.962442 
L 540.073799 59.180276 
L 540.662063 58.685752 
L 541.418403 58.363297 
L 541.628497 58.30617 
L 541.703531 95.167859 
L 541.744049 86.130094 
L 542.180745 74.443481 
L 542.642953 67.379891 
L 543.10516 63.368761 
L 543.567368 61.072272 
L 544.071594 59.659385 
L 544.57582 58.87634 
L 545.164084 58.384051 
L 545.878405 58.088534 
L 546.130518 58.026112 
L 546.205552 96.773079 
L 546.24607 87.153784 
L 546.69177 74.852716 
L 547.126966 67.911526 
L 547.562161 63.825378 
L 547.997356 61.402984 
L 548.519591 59.748937 
L 549.041825 58.852815 
L 549.56406 58.362352 
L 550.260372 58.028648 
L 551.304841 57.823126 
L 553.393779 57.702737 
L 555.13456 57.663388 
L 555.209594 101.177901 
L 555.252363 90.239609 
L 555.695812 76.851947 
L 556.131008 69.180142 
L 556.566203 64.618441 
L 557.088438 61.487654 
L 557.610672 59.783228 
L 558.132906 58.849494 
L 558.655141 58.334336 
L 559.351453 57.982973 
L 560.308883 57.780479 
L 562.136704 57.668066 
L 564.138603 57.631837 
L 564.213636 106.323673 
L 564.256405 94.132891 
L 564.699855 79.416797 
L 565.13505 70.891542 
L 565.657284 65.007291 
L 566.179519 61.772451 
L 566.701753 59.98112 
L 567.223988 58.982992 
L 567.746222 58.423049 
L 568.442535 58.034225 
L 569.399965 57.805491 
L 571.140746 57.679684 
L 573.142645 57.637902 
L 573.217678 111.607284 
L 573.260448 98.187583 
L 573.703897 82.175391 
L 574.226131 71.409502 
L 574.748366 65.447583 
L 575.2706 62.109074 
L 575.792834 60.225744 
L 576.315069 59.15656 
L 576.837303 58.545377 
L 577.446577 58.150592 
L 578.316968 57.88121 
L 579.709593 57.726486 
L 582.146687 57.652369 
L 582.221721 116.766935 
L 582.26449 102.203702 
L 582.707939 85.002195 
L 583.230173 73.280093 
L 583.752408 66.67757 
L 584.274642 62.913995 
L 584.796877 60.75186 
L 585.319111 59.501624 
L 585.841345 58.773752 
L 586.450619 58.294572 
L 587.233971 57.982575 
L 588.365479 57.793736 
L 590.715534 57.679483 
L 591.150729 57.669965 
L 591.225763 121.525162 
L 591.270783 105.87313 
L 591.624942 90.669824 
L 592.147176 76.833609 
L 592.669411 68.926068 
L 593.191645 64.343426 
L 593.71388 61.664569 
L 594.236114 60.087955 
L 594.758349 59.153908 
L 595.367622 58.527951 
L 596.063935 58.145054 
L 597.021364 57.89579 
L 598.675107 57.741049 
L 600.154771 57.689463 
L 600.229805 125.586277 
L 600.274825 109.256792 
L 600.628984 93.4181 
L 601.151218 78.826517 
L 601.673453 70.338326 
L 602.195687 65.328106 
L 602.717922 62.344099 
L 603.240156 60.554562 
L 603.762391 59.474344 
L 604.371664 58.736135 
L 605.067977 58.274848 
L 605.938367 57.986471 
L 607.330993 57.798181 
L 609.158813 57.710193 
L 609.233847 128.793277 
L 609.278867 112.141791 
L 609.633026 95.87912 
L 610.155261 80.715001 
L 610.677495 71.734499 
L 611.199729 66.335541 
L 611.721964 63.059698 
L 612.244198 61.058144 
L 612.766433 59.827327 
L 613.375706 58.969728 
L 613.98498 58.473853 
L 614.768331 58.123667 
L 615.899839 57.888847 
L 617.901738 57.741711 
L 618.162855 57.731789 
L 618.237889 131.23038 
L 618.282909 114.570632 
L 618.637068 98.064088 
L 619.159303 82.493003 
L 619.681537 73.105313 
L 620.203772 67.358206 
L 620.726006 63.806718 
L 621.24824 61.596587 
L 621.770475 60.212533 
L 622.379748 59.229595 
L 622.989022 58.649846 
L 623.772374 58.232155 
L 624.816843 57.960795 
L 626.557624 57.784753 
L 627.166898 57.754478 
L 627.241931 133.098252 
L 627.289202 116.48989 
L 627.554071 103.545659 
L 628.076306 86.311403 
L 628.59854 75.775822 
L 629.120775 69.223614 
L 629.643009 65.107243 
L 630.165244 62.502247 
L 630.687478 60.843414 
L 631.296751 59.644607 
L 631.906025 58.924729 
L 632.602338 58.44055 
L 633.472728 58.111581 
L 634.778314 57.883879 
L 636.17094 57.778982 
L 636.245973 134.573711 
L 636.293245 118.313905 
L 636.471074 109.192108 
L 636.471074 109.192108 
" clip-path="url(#pc29e3f1643)" style="fill: none; stroke: #ff0000; stroke-width: 1.5; stroke-linecap: square"/>
   </g>
   <g id="patch_9">
    <path d="M 394.363636 320.4 
L 394.363636 43.2 
" style="fill: none; stroke: #000000; stroke-width: 0.8; stroke-linejoin: miter; stroke-linecap: square"/>
   </g>
   <g id="patch_10">
    <path d="M 648 320.4 
L 648 43.2 
" style="fill: none; stroke: #000000; stroke-width: 0.8; stroke-linejoin: miter; stroke-linecap: square"/>
   </g>
   <g id="patch_11">
    <path d="M 394.363636 320.4 
L 648 320.4 
" style="fill: none; stroke: #000000; stroke-width: 0.8; stroke-linejoin: miter; stroke-linecap: square"/>
   </g>
   <g id="patch_12">
    <path d="M 394.363636 43.2 
L 648 43.2 
" style="fill: none; stroke: #000000; stroke-width: 0.8; stroke-linejoin: miter; stroke-linecap: square"/>
   </g>
   <g id="text_30">
    <!-- 1000 $\mu$mol photon m$^{-2}$ s$^{-1}$ -->
    <g transform="translate(440.361818 37.2) scale(0.12 -0.12)">
     <use xlink:href="#DejaVuSans-31" transform="translate(0 0.765625)"/>
     <use xlink:href="#DejaVuSans-30" transform="translate(63.623047 0.765625)"/>
     <use xlink:href="#DejaVuSans-30" transform="translate(127.246094 0.765625)"/>
     <use xlink:href="#DejaVuSans-30" transform="translate(190.869141 0.765625)"/>
     <use xlink:href="#DejaVuSans-20" transform="translate(254.492188 0.765625)"/>
     <use xlink:href="#DejaVuSans-Oblique-3bc" transform="translate(286.279297 0.765625)"/>
     <use xlink:href="#DejaVuSans-6d" transform="translate(349.902344 0.765625)"/>
     <use xlink:href="#DejaVuSans-6f" transform="translate(447.314453 0.765625)"/>
     <use xlink:href="#DejaVuSans-6c" transform="translate(508.496094 0.765625)"/>
     <use xlink:href="#DejaVuSans-20" transform="translate(536.279297 0.765625)"/>
     <use xlink:href="#DejaVuSans-70" transform="translate(568.066406 0.765625)"/>
     <use xlink:href="#DejaVuSans-68" transform="translate(631.542969 0.765625)"/>
     <use xlink:href="#DejaVuSans-6f" transform="translate(694.921875 0.765625)"/>
     <use xlink:href="#DejaVuSans-74" transform="translate(756.103516 0.765625)"/>
     <use xlink:href="#DejaVuSans-6f" transform="translate(795.3125 0.765625)"/>
     <use xlink:href="#DejaVuSans-6e" transform="translate(856.494141 0.765625)"/>
     <use xlink:href="#DejaVuSans-20" transform="translate(919.873047 0.765625)"/>
     <use xlink:href="#DejaVuSans-6d" transform="translate(951.660156 0.765625)"/>
     <use xlink:href="#DejaVuSans-2212" transform="translate(1050.029297 39.046875) scale(0.7)"/>
     <use xlink:href="#DejaVuSans-32" transform="translate(1108.681641 39.046875) scale(0.7)"/>
     <use xlink:href="#DejaVuSans-20" transform="translate(1155.952148 0.765625)"/>
     <use xlink:href="#DejaVuSans-73" transform="translate(1187.739258 0.765625)"/>
     <use xlink:href="#DejaVuSans-2212" transform="translate(1240.795898 39.046875) scale(0.7)"/>
     <use xlink:href="#DejaVuSans-31" transform="translate(1299.448242 39.046875) scale(0.7)"/>
    </g>
   </g>
   <g id="legend_2">
    <g id="patch_13">
     <path d="M 583.603125 315.4 
L 641 315.4 
Q 643 315.4 643 313.4 
L 643 285.04375 
Q 643 283.04375 641 283.04375 
L 583.603125 283.04375 
Q 581.603125 283.04375 581.603125 285.04375 
L 581.603125 313.4 
Q 581.603125 315.4 583.603125 315.4 
z
" style="fill: #ffffff; opacity: 0.8; stroke: #cccccc; stroke-linejoin: miter"/>
    </g>
    <g id="line2d_39">
     <path d="M 585.603125 291.142187 
L 595.603125 291.142187 
L 605.603125 291.142187 
" style="fill: none; stroke: #000000; stroke-width: 1.5; stroke-linecap: square"/>
    </g>
    <g id="text_31">
     <!-- WT -->
     <g transform="translate(613.603125 294.642187) scale(0.1 -0.1)">
      <use xlink:href="#DejaVuSans-57"/>
      <use xlink:href="#DejaVuSans-54" transform="translate(98.876953 0)"/>
     </g>
    </g>
    <g id="line2d_40">
     <path d="M 585.603125 305.820312 
L 595.603125 305.820312 
L 605.603125 305.820312 
" style="fill: none; stroke: #ff0000; stroke-width: 1.5; stroke-linecap: square"/>
    </g>
    <g id="text_32">
     <!-- npq4 -->
     <g transform="translate(613.603125 309.320312) scale(0.1 -0.1)">
      <use xlink:href="#DejaVuSans-6e"/>
      <use xlink:href="#DejaVuSans-70" transform="translate(63.378906 0)"/>
      <use xlink:href="#DejaVuSans-71" transform="translate(126.855469 0)"/>
      <use xlink:href="#DejaVuSans-34" transform="translate(190.332031 0)"/>
     </g>
    </g>
   </g>
  </g>
  <g id="text_33">
   <!-- Figure 5 -->
   <g transform="translate(324 0) scale(0.15 -0.15)">
    <defs>
     <path id="DejaVuSans-46" d="M 628 4666 
L 3309 4666 
L 3309 4134 
L 1259 4134 
L 1259 2759 
L 3109 2759 
L 3109 2228 
L 1259 2228 
L 1259 0 
L 628 0 
L 628 4666 
z
" transform="scale(0.015625)"/>
     <path id="DejaVuSans-67" d="M 2906 1791 
Q 2906 2416 2648 2759 
Q 2391 3103 1925 3103 
Q 1463 3103 1205 2759 
Q 947 2416 947 1791 
Q 947 1169 1205 825 
Q 1463 481 1925 481 
Q 2391 481 2648 825 
Q 2906 1169 2906 1791 
z
M 3481 434 
Q 3481 -459 3084 -895 
Q 2688 -1331 1869 -1331 
Q 1566 -1331 1297 -1286 
Q 1028 -1241 775 -1147 
L 775 -588 
Q 1028 -725 1275 -790 
Q 1522 -856 1778 -856 
Q 2344 -856 2625 -561 
Q 2906 -266 2906 331 
L 2906 616 
Q 2728 306 2450 153 
Q 2172 0 1784 0 
Q 1141 0 747 490 
Q 353 981 353 1791 
Q 353 2603 747 3093 
Q 1141 3584 1784 3584 
Q 2172 3584 2450 3431 
Q 2728 3278 2906 2969 
L 2906 3500 
L 3481 3500 
L 3481 434 
z
" transform="scale(0.015625)"/>
     <path id="DejaVuSans-72" d="M 2631 2963 
Q 2534 3019 2420 3045 
Q 2306 3072 2169 3072 
Q 1681 3072 1420 2755 
Q 1159 2438 1159 1844 
L 1159 0 
L 581 0 
L 581 3500 
L 1159 3500 
L 1159 2956 
Q 1341 3275 1631 3429 
Q 1922 3584 2338 3584 
Q 2397 3584 2469 3576 
Q 2541 3569 2628 3553 
L 2631 2963 
z
" transform="scale(0.015625)"/>
    </defs>
    <use xlink:href="#DejaVuSans-46"/>
    <use xlink:href="#DejaVuSans-69" transform="translate(50.269531 0)"/>
    <use xlink:href="#DejaVuSans-67" transform="translate(78.052734 0)"/>
    <use xlink:href="#DejaVuSans-75" transform="translate(141.529297 0)"/>
    <use xlink:href="#DejaVuSans-72" transform="translate(204.908203 0)"/>
    <use xlink:href="#DejaVuSans-65" transform="translate(243.771484 0)"/>
    <use xlink:href="#DejaVuSans-20" transform="translate(305.294922 0)"/>
    <use xlink:href="#DejaVuSans-35" transform="translate(337.082031 0)"/>
   </g>
  </g>
 </g>
 <defs>
  <clipPath id="p295ec3143f">
   <rect x="90" y="43.2" width="253.636364" height="277.2"/>
  </clipPath>
  <clipPath id="pc29e3f1643">
   <rect x="394.363636" y="43.2" width="253.636364" height="277.2"/>
  </clipPath>
 </defs>
</svg>
