<?xml version="1.0" encoding="utf-8" standalone="no"?>
<!DOCTYPE svg PUBLIC "-//W3C//DTD SVG 1.1//EN"
  "http://www.w3.org/Graphics/SVG/1.1/DTD/svg11.dtd">
<svg xmlns:xlink="http://www.w3.org/1999/xlink" width="288pt" height="288pt" viewBox="0 0 288 288" xmlns="http://www.w3.org/2000/svg" version="1.1">
 <metadata>
  <rdf:RDF xmlns:dc="http://purl.org/dc/elements/1.1/" xmlns:cc="http://creativecommons.org/ns#" xmlns:rdf="http://www.w3.org/1999/02/22-rdf-syntax-ns#">
   <cc:Work>
    <dc:type rdf:resource="http://purl.org/dc/dcmitype/StillImage"/>
    <dc:date>2026-07-13T09:51:20.660755</dc:date>
    <dc:format>image/svg+xml</dc:format>
    <dc:creator>
     <cc:Agent>
      <dc:title>Matplotlib v3.10.8, https://matplotlib.org/</dc:title>
     </cc:Agent>
    </dc:creator>
   </cc:Work>
  </rdf:RDF>
 </metadata>
 <defs>
  <style type="text/css">*{stroke-linejoin: round; stroke-linecap: butt}</style>
 </defs>
 <g id="figure_1">
  <g id="patch_1">
   <path d="M 0 288 
L 288 288 
L 288 0 
L 0 0 
z
" style="fill: #ffffff"/>
  </g>
  <g id="axes_1">
   <g id="patch_2">
    <path d="M 36 256.32 
L 259.2 256.32 
L 259.2 34.56 
L 36 34.56 
z
" style="fill: #ffffff"/>
   </g>
   <g id="matplotlib.axis_1">
    <g id="xtick_1">
     <g id="line2d_1">
      <path d="M 46.145455 256.32 
L 46.145455 34.56 
" clip-path="url(#p301d1ec3c5)" style="fill: none; stroke: #b0b0b0; stroke-width: 0.8; stroke-linecap: square"/>
     </g>
     <g id="line2d_2">
      <defs>
       <path id="m0e44c35c29" d="M 0 0 
L 0 3.5 
" style="stroke: #000000; stroke-width: 0.8"/>
      </defs>
      <g>
       <use xlink:href="#m0e44c35c29" x="46.145455" y="256.32" style="stroke: #000000; stroke-width: 0.8"/>
      </g>
     </g>
     <g id="text_1">
      <!-- 0.00 -->
      <g transform="translate(35.012642 270.918437) scale(0.1 -0.1)">
       <defs>
        <path id="DejaVuSans-30" d="M 2034 4250 
Q 1547 4250 1301 3770 
Q 1056 3291 1056 2328 
Q 1056 1369 1301 889 
Q 1547 409 2034 409 
Q 2525 409 2770 889 
Q 3016 1369 3016 2328 
Q 3016 3291 2770 3770 
Q 2525 4250 2034 4250 
z
M 2034 4750 
Q 2819 4750 3233 4129 
Q 3647 3509 3647 2328 
Q 3647 1150 3233 529 
Q 2819 -91 2034 -91 
Q 1250 -91 836 529 
Q 422 1150 422 2328 
Q 422 3509 836 4129 
Q 1250 4750 2034 4750 
z
" transform="scale(0.015625)"/>
        <path id="DejaVuSans-2e" d="M 684 794 
L 1344 794 
L 1344 0 
L 684 0 
L 684 794 
z
" transform="scale(0.015625)"/>
       </defs>
       <use xlink:href="#DejaVuSans-30"/>
       <use xlink:href="#DejaVuSans-2e" transform="translate(63.623047 0)"/>
       <use xlink:href="#DejaVuSans-30" transform="translate(95.410156 0)"/>
       <use xlink:href="#DejaVuSans-30" transform="translate(159.033203 0)"/>
      </g>
     </g>
    </g>
    <g id="xtick_2">
     <g id="line2d_3">
      <path d="M 86.727273 256.32 
L 86.727273 34.56 
" clip-path="url(#p301d1ec3c5)" style="fill: none; stroke: #b0b0b0; stroke-width: 0.8; stroke-linecap: square"/>
     </g>
     <g id="line2d_4">
      <g>
       <use xlink:href="#m0e44c35c29" x="86.727273" y="256.32" style="stroke: #000000; stroke-width: 0.8"/>
      </g>
     </g>
     <g id="text_2">
      <!-- 0.02 -->
      <g transform="translate(75.59446 270.918437) scale(0.1 -0.1)">
       <defs>
        <path id="DejaVuSans-32" d="M 1228 531 
L 3431 531 
L 3431 0 
L 469 0 
L 469 531 
Q 828 903 1448 1529 
Q 2069 2156 2228 2338 
Q 2531 2678 2651 2914 
Q 2772 3150 2772 3378 
Q 2772 3750 2511 3984 
Q 2250 4219 1831 4219 
Q 1534 4219 1204 4116 
Q 875 4013 500 3803 
L 500 4441 
Q 881 4594 1212 4672 
Q 1544 4750 1819 4750 
Q 2544 4750 2975 4387 
Q 3406 4025 3406 3419 
Q 3406 3131 3298 2873 
Q 3191 2616 2906 2266 
Q 2828 2175 2409 1742 
Q 1991 1309 1228 531 
z
" transform="scale(0.015625)"/>
       </defs>
       <use xlink:href="#DejaVuSans-30"/>
       <use xlink:href="#DejaVuSans-2e" transform="translate(63.623047 0)"/>
       <use xlink:href="#DejaVuSans-30" transform="translate(95.410156 0)"/>
       <use xlink:href="#DejaVuSans-32" transform="translate(159.033203 0)"/>
      </g>
     </g>
    </g>
    <g id="xtick_3">
     <g id="line2d_5">
      <path d="M 127.309091 256.32 
L 127.309091 34.56 
" clip-path="url(#p301d1ec3c5)" style="fill: none; stroke: #b0b0b0; stroke-width: 0.8; stroke-linecap: square"/>
     </g>
     <g id="line2d_6">
      <g>
       <use xlink:href="#m0e44c35c29" x="127.309091" y="256.32" style="stroke: #000000; stroke-width: 0.8"/>
      </g>
     </g>
     <g id="text_3">
      <!-- 0.04 -->
      <g transform="translate(116.176278 270.918437) scale(0.1 -0.1)">
       <defs>
        <path id="DejaVuSans-34" d="M 2419 4116 
L 825 1625 
L 2419 1625 
L 2419 4116 
z
M 2253 4666 
L 3047 4666 
L 3047 1625 
L 3713 1625 
L 3713 1100 
L 3047 1100 
L 3047 0 
L 2419 0 
L 2419 1100 
L 313 1100 
L 313 1709 
L 2253 4666 
z
" transform="scale(0.015625)"/>
       </defs>
       <use xlink:href="#DejaVuSans-30"/>
       <use xlink:href="#DejaVuSans-2e" transform="translate(63.623047 0)"/>
       <use xlink:href="#DejaVuSans-30" transform="translate(95.410156 0)"/>
       <use xlink:href="#DejaVuSans-34" transform="translate(159.033203 0)"/>
      </g>
     </g>
    </g>
    <g id="xtick_4">
     <g id="line2d_7">
      <path d="M 167.890909 256.32 
L 167.890909 34.56 
" clip-path="url(#p301d1ec3c5)" style="fill: none; stroke: #b0b0b0; stroke-width: 0.8; stroke-linecap: square"/>
     </g>
     <g id="line2d_8">
      <g>
       <use xlink:href="#m0e44c35c29" x="167.890909" y="256.32" style="stroke: #000000; stroke-width: 0.8"/>
      </g>
     </g>
     <g id="text_4">
      <!-- 0.06 -->
      <g transform="translate(156.758097 270.918437) scale(0.1 -0.1)">
       <defs>
        <path id="DejaVuSans-36" d="M 2113 2584 
Q 1688 2584 1439 2293 
Q 1191 2003 1191 1497 
Q 1191 994 1439 701 
Q 1688 409 2113 409 
Q 2538 409 2786 701 
Q 3034 994 3034 1497 
Q 3034 2003 2786 2293 
Q 2538 2584 2113 2584 
z
M 3366 4563 
L 3366 3988 
Q 3128 4100 2886 4159 
Q 2644 4219 2406 4219 
Q 1781 4219 1451 3797 
Q 1122 3375 1075 2522 
Q 1259 2794 1537 2939 
Q 1816 3084 2150 3084 
Q 2853 3084 3261 2657 
Q 3669 2231 3669 1497 
Q 3669 778 3244 343 
Q 2819 -91 2113 -91 
Q 1303 -91 875 529 
Q 447 1150 447 2328 
Q 447 3434 972 4092 
Q 1497 4750 2381 4750 
Q 2619 4750 2861 4703 
Q 3103 4656 3366 4563 
z
" transform="scale(0.015625)"/>
       </defs>
       <use xlink:href="#DejaVuSans-30"/>
       <use xlink:href="#DejaVuSans-2e" transform="translate(63.623047 0)"/>
       <use xlink:href="#DejaVuSans-30" transform="translate(95.410156 0)"/>
       <use xlink:href="#DejaVuSans-36" transform="translate(159.033203 0)"/>
      </g>
     </g>
    </g>
    <g id="xtick_5">
     <g id="line2d_9">
      <path d="M 208.472727 256.32 
L 208.472727 34.56 
" clip-path="url(#p301d1ec3c5)" style="fill: none; stroke: #b0b0b0; stroke-width: 0.8; stroke-linecap: square"/>
     </g>
     <g id="line2d_10">
      <g>
       <use xlink:href="#m0e44c35c29" x="208.472727" y="256.32" style="stroke: #000000; stroke-width: 0.8"/>
      </g>
     </g>
     <g id="text_5">
      <!-- 0.08 -->
      <g transform="translate(197.339915 270.918437) scale(0.1 -0.1)">
       <defs>
        <path id="DejaVuSans-38" d="M 2034 2216 
Q 1584 2216 1326 1975 
Q 1069 1734 1069 1313 
Q 1069 891 1326 650 
Q 1584 409 2034 409 
Q 2484 409 2743 651 
Q 3003 894 3003 1313 
Q 3003 1734 2745 1975 
Q 2488 2216 2034 2216 
z
M 1403 2484 
Q 997 2584 770 2862 
Q 544 3141 544 3541 
Q 544 4100 942 4425 
Q 1341 4750 2034 4750 
Q 2731 4750 3128 4425 
Q 3525 4100 3525 3541 
Q 3525 3141 3298 2862 
Q 3072 2584 2669 2484 
Q 3125 2378 3379 2068 
Q 3634 1759 3634 1313 
Q 3634 634 3220 271 
Q 2806 -91 2034 -91 
Q 1263 -91 848 271 
Q 434 634 434 1313 
Q 434 1759 690 2068 
Q 947 2378 1403 2484 
z
M 1172 3481 
Q 1172 3119 1398 2916 
Q 1625 2713 2034 2713 
Q 2441 2713 2670 2916 
Q 2900 3119 2900 3481 
Q 2900 3844 2670 4047 
Q 2441 4250 2034 4250 
Q 1625 4250 1398 4047 
Q 1172 3844 1172 3481 
z
" transform="scale(0.015625)"/>
       </defs>
       <use xlink:href="#DejaVuSans-30"/>
       <use xlink:href="#DejaVuSans-2e" transform="translate(63.623047 0)"/>
       <use xlink:href="#DejaVuSans-30" transform="translate(95.410156 0)"/>
       <use xlink:href="#DejaVuSans-38" transform="translate(159.033203 0)"/>
      </g>
     </g>
    </g>
    <g id="xtick_6">
     <g id="line2d_11">
      <path d="M 249.054545 256.32 
L 249.054545 34.56 
" clip-path="url(#p301d1ec3c5)" style="fill: none; stroke: #b0b0b0; stroke-width: 0.8; stroke-linecap: square"/>
     </g>
     <g id="line2d_12">
      <g>
       <use xlink:href="#m0e44c35c29" x="249.054545" y="256.32" style="stroke: #000000; stroke-width: 0.8"/>
      </g>
     </g>
     <g id="text_6">
      <!-- 0.10 -->
      <g transform="translate(237.921733 270.918437) scale(0.1 -0.1)">
       <defs>
        <path id="DejaVuSans-31" d="M 794 531 
L 1825 531 
L 1825 4091 
L 703 3866 
L 703 4441 
L 1819 4666 
L 2450 4666 
L 2450 531 
L 3481 531 
L 3481 0 
L 794 0 
L 794 531 
z
" transform="scale(0.015625)"/>
       </defs>
       <use xlink:href="#DejaVuSans-30"/>
       <use xlink:href="#DejaVuSans-2e" transform="translate(63.623047 0)"/>
       <use xlink:href="#DejaVuSans-31" transform="translate(95.410156 0)"/>
       <use xlink:href="#DejaVuSans-30" transform="translate(159.033203 0)"/>
      </g>
     </g>
    </g>
    <g id="text_7">
     <!-- Time / h -->
     <g transform="translate(127.335156 284.596563) scale(0.1 -0.1)">
      <defs>
       <path id="DejaVuSans-54" d="M -19 4666 
L 3928 4666 
L 3928 4134 
L 2272 4134 
L 2272 0 
L 1638 0 
L 1638 4134 
L -19 4134 
L -19 4666 
z
" transform="scale(0.015625)"/>
       <path id="DejaVuSans-69" d="M 603 3500 
L 1178 3500 
L 1178 0 
L 603 0 
L 603 3500 
z
M 603 4863 
L 1178 4863 
L 1178 4134 
L 603 4134 
L 603 4863 
z
" transform="scale(0.015625)"/>
       <path id="DejaVuSans-6d" d="M 3328 2828 
Q 3544 3216 3844 3400 
Q 4144 3584 4550 3584 
Q 5097 3584 5394 3201 
Q 5691 2819 5691 2113 
L 5691 0 
L 5113 0 
L 5113 2094 
Q 5113 2597 4934 2840 
Q 4756 3084 4391 3084 
Q 3944 3084 3684 2787 
Q 3425 2491 3425 1978 
L 3425 0 
L 2847 0 
L 2847 2094 
Q 2847 2600 2669 2842 
Q 2491 3084 2119 3084 
Q 1678 3084 1418 2786 
Q 1159 2488 1159 1978 
L 1159 0 
L 581 0 
L 581 3500 
L 1159 3500 
L 1159 2956 
Q 1356 3278 1631 3431 
Q 1906 3584 2284 3584 
Q 2666 3584 2933 3390 
Q 3200 3197 3328 2828 
z
" transform="scale(0.015625)"/>
       <path id="DejaVuSans-65" d="M 3597 1894 
L 3597 1613 
L 953 1613 
Q 991 1019 1311 708 
Q 1631 397 2203 397 
Q 2534 397 2845 478 
Q 3156 559 3463 722 
L 3463 178 
Q 3153 47 2828 -22 
Q 2503 -91 2169 -91 
Q 1331 -91 842 396 
Q 353 884 353 1716 
Q 353 2575 817 3079 
Q 1281 3584 2069 3584 
Q 2775 3584 3186 3129 
Q 3597 2675 3597 1894 
z
M 3022 2063 
Q 3016 2534 2758 2815 
Q 2500 3097 2075 3097 
Q 1594 3097 1305 2825 
Q 1016 2553 972 2059 
L 3022 2063 
z
" transform="scale(0.015625)"/>
       <path id="DejaVuSans-20" transform="scale(0.015625)"/>
       <path id="DejaVuSans-2f" d="M 1625 4666 
L 2156 4666 
L 531 -594 
L 0 -594 
L 1625 4666 
z
" transform="scale(0.015625)"/>
       <path id="DejaVuSans-68" d="M 3513 2113 
L 3513 0 
L 2938 0 
L 2938 2094 
Q 2938 2591 2744 2837 
Q 2550 3084 2163 3084 
Q 1697 3084 1428 2787 
Q 1159 2491 1159 1978 
L 1159 0 
L 581 0 
L 581 4863 
L 1159 4863 
L 1159 2956 
Q 1366 3272 1645 3428 
Q 1925 3584 2291 3584 
Q 2894 3584 3203 3211 
Q 3513 2838 3513 2113 
z
" transform="scale(0.015625)"/>
      </defs>
      <use xlink:href="#DejaVuSans-54"/>
      <use xlink:href="#DejaVuSans-69" transform="translate(57.958984 0)"/>
      <use xlink:href="#DejaVuSans-6d" transform="translate(85.742188 0)"/>
      <use xlink:href="#DejaVuSans-65" transform="translate(183.154297 0)"/>
      <use xlink:href="#DejaVuSans-20" transform="translate(244.677734 0)"/>
      <use xlink:href="#DejaVuSans-2f" transform="translate(276.464844 0)"/>
      <use xlink:href="#DejaVuSans-20" transform="translate(310.15625 0)"/>
      <use xlink:href="#DejaVuSans-68" transform="translate(341.943359 0)"/>
     </g>
    </g>
   </g>
   <g id="matplotlib.axis_2">
    <g id="ytick_1">
     <g id="line2d_13">
      <path d="M 36 246.24 
L 259.2 246.24 
" clip-path="url(#p301d1ec3c5)" style="fill: none; stroke: #b0b0b0; stroke-width: 0.8; stroke-linecap: square"/>
     </g>
     <g id="line2d_14">
      <defs>
       <path id="mdf8bdb94a8" d="M 0 0 
L -3.5 0 
" style="stroke: #000000; stroke-width: 0.8"/>
      </defs>
      <g>
       <use xlink:href="#mdf8bdb94a8" x="36" y="246.24" style="stroke: #000000; stroke-width: 0.8"/>
      </g>
     </g>
     <g id="text_8">
      <!-- 0.0 -->
      <g transform="translate(13.096875 250.039219) scale(0.1 -0.1)">
       <use xlink:href="#DejaVuSans-30"/>
       <use xlink:href="#DejaVuSans-2e" transform="translate(63.623047 0)"/>
       <use xlink:href="#DejaVuSans-30" transform="translate(95.410156 0)"/>
      </g>
     </g>
    </g>
    <g id="ytick_2">
     <g id="line2d_15">
      <path d="M 36 208.768554 
L 259.2 208.768554 
" clip-path="url(#p301d1ec3c5)" style="fill: none; stroke: #b0b0b0; stroke-width: 0.8; stroke-linecap: square"/>
     </g>
     <g id="line2d_16">
      <g>
       <use xlink:href="#mdf8bdb94a8" x="36" y="208.768554" style="stroke: #000000; stroke-width: 0.8"/>
      </g>
     </g>
     <g id="text_9">
      <!-- 0.5 -->
      <g transform="translate(13.096875 212.567773) scale(0.1 -0.1)">
       <defs>
        <path id="DejaVuSans-35" d="M 691 4666 
L 3169 4666 
L 3169 4134 
L 1269 4134 
L 1269 2991 
Q 1406 3038 1543 3061 
Q 1681 3084 1819 3084 
Q 2600 3084 3056 2656 
Q 3513 2228 3513 1497 
Q 3513 744 3044 326 
Q 2575 -91 1722 -91 
Q 1428 -91 1123 -41 
Q 819 9 494 109 
L 494 744 
Q 775 591 1075 516 
Q 1375 441 1709 441 
Q 2250 441 2565 725 
Q 2881 1009 2881 1497 
Q 2881 1984 2565 2268 
Q 2250 2553 1709 2553 
Q 1456 2553 1204 2497 
Q 953 2441 691 2322 
L 691 4666 
z
" transform="scale(0.015625)"/>
       </defs>
       <use xlink:href="#DejaVuSans-30"/>
       <use xlink:href="#DejaVuSans-2e" transform="translate(63.623047 0)"/>
       <use xlink:href="#DejaVuSans-35" transform="translate(95.410156 0)"/>
      </g>
     </g>
    </g>
    <g id="ytick_3">
     <g id="line2d_17">
      <path d="M 36 171.297108 
L 259.2 171.297108 
" clip-path="url(#p301d1ec3c5)" style="fill: none; stroke: #b0b0b0; stroke-width: 0.8; stroke-linecap: square"/>
     </g>
     <g id="line2d_18">
      <g>
       <use xlink:href="#mdf8bdb94a8" x="36" y="171.297108" style="stroke: #000000; stroke-width: 0.8"/>
      </g>
     </g>
     <g id="text_10">
      <!-- 1.0 -->
      <g transform="translate(13.096875 175.096326) scale(0.1 -0.1)">
       <use xlink:href="#DejaVuSans-31"/>
       <use xlink:href="#DejaVuSans-2e" transform="translate(63.623047 0)"/>
       <use xlink:href="#DejaVuSans-30" transform="translate(95.410156 0)"/>
      </g>
     </g>
    </g>
    <g id="ytick_4">
     <g id="line2d_19">
      <path d="M 36 133.825661 
L 259.2 133.825661 
" clip-path="url(#p301d1ec3c5)" style="fill: none; stroke: #b0b0b0; stroke-width: 0.8; stroke-linecap: square"/>
     </g>
     <g id="line2d_20">
      <g>
       <use xlink:href="#mdf8bdb94a8" x="36" y="133.825661" style="stroke: #000000; stroke-width: 0.8"/>
      </g>
     </g>
     <g id="text_11">
      <!-- 1.5 -->
      <g transform="translate(13.096875 137.62488) scale(0.1 -0.1)">
       <use xlink:href="#DejaVuSans-31"/>
       <use xlink:href="#DejaVuSans-2e" transform="translate(63.623047 0)"/>
       <use xlink:href="#DejaVuSans-35" transform="translate(95.410156 0)"/>
      </g>
     </g>
    </g>
    <g id="ytick_5">
     <g id="line2d_21">
      <path d="M 36 96.354215 
L 259.2 96.354215 
" clip-path="url(#p301d1ec3c5)" style="fill: none; stroke: #b0b0b0; stroke-width: 0.8; stroke-linecap: square"/>
     </g>
     <g id="line2d_22">
      <g>
       <use xlink:href="#mdf8bdb94a8" x="36" y="96.354215" style="stroke: #000000; stroke-width: 0.8"/>
      </g>
     </g>
     <g id="text_12">
      <!-- 2.0 -->
      <g transform="translate(13.096875 100.153434) scale(0.1 -0.1)">
       <use xlink:href="#DejaVuSans-32"/>
       <use xlink:href="#DejaVuSans-2e" transform="translate(63.623047 0)"/>
       <use xlink:href="#DejaVuSans-30" transform="translate(95.410156 0)"/>
      </g>
     </g>
    </g>
    <g id="ytick_6">
     <g id="line2d_23">
      <path d="M 36 58.882769 
L 259.2 58.882769 
" clip-path="url(#p301d1ec3c5)" style="fill: none; stroke: #b0b0b0; stroke-width: 0.8; stroke-linecap: square"/>
     </g>
     <g id="line2d_24">
      <g>
       <use xlink:href="#mdf8bdb94a8" x="36" y="58.882769" style="stroke: #000000; stroke-width: 0.8"/>
      </g>
     </g>
     <g id="text_13">
      <!-- 2.5 -->
      <g transform="translate(13.096875 62.681988) scale(0.1 -0.1)">
       <use xlink:href="#DejaVuSans-32"/>
       <use xlink:href="#DejaVuSans-2e" transform="translate(63.623047 0)"/>
       <use xlink:href="#DejaVuSans-35" transform="translate(95.410156 0)"/>
      </g>
     </g>
    </g>
    <g id="text_14">
     <!-- Concentration / $\mu\ mol\ mg^{-1}\ Chl\ h^{-1}$ -->
     <g transform="translate(6.996875 235.14) rotate(-90) scale(0.1 -0.1)">
      <defs>
       <path id="DejaVuSans-43" d="M 4122 4306 
L 4122 3641 
Q 3803 3938 3442 4084 
Q 3081 4231 2675 4231 
Q 1875 4231 1450 3742 
Q 1025 3253 1025 2328 
Q 1025 1406 1450 917 
Q 1875 428 2675 428 
Q 3081 428 3442 575 
Q 3803 722 4122 1019 
L 4122 359 
Q 3791 134 3420 21 
Q 3050 -91 2638 -91 
Q 1578 -91 968 557 
Q 359 1206 359 2328 
Q 359 3453 968 4101 
Q 1578 4750 2638 4750 
Q 3056 4750 3426 4639 
Q 3797 4528 4122 4306 
z
" transform="scale(0.015625)"/>
       <path id="DejaVuSans-6f" d="M 1959 3097 
Q 1497 3097 1228 2736 
Q 959 2375 959 1747 
Q 959 1119 1226 758 
Q 1494 397 1959 397 
Q 2419 397 2687 759 
Q 2956 1122 2956 1747 
Q 2956 2369 2687 2733 
Q 2419 3097 1959 3097 
z
M 1959 3584 
Q 2709 3584 3137 3096 
Q 3566 2609 3566 1747 
Q 3566 888 3137 398 
Q 2709 -91 1959 -91 
Q 1206 -91 779 398 
Q 353 888 353 1747 
Q 353 2609 779 3096 
Q 1206 3584 1959 3584 
z
" transform="scale(0.015625)"/>
       <path id="DejaVuSans-6e" d="M 3513 2113 
L 3513 0 
L 2938 0 
L 2938 2094 
Q 2938 2591 2744 2837 
Q 2550 3084 2163 3084 
Q 1697 3084 1428 2787 
Q 1159 2491 1159 1978 
L 1159 0 
L 581 0 
L 581 3500 
L 1159 3500 
L 1159 2956 
Q 1366 3272 1645 3428 
Q 1925 3584 2291 3584 
Q 2894 3584 3203 3211 
Q 3513 2838 3513 2113 
z
" transform="scale(0.015625)"/>
       <path id="DejaVuSans-63" d="M 3122 3366 
L 3122 2828 
Q 2878 2963 2633 3030 
Q 2388 3097 2138 3097 
Q 1578 3097 1268 2742 
Q 959 2388 959 1747 
Q 959 1106 1268 751 
Q 1578 397 2138 397 
Q 2388 397 2633 464 
Q 2878 531 3122 666 
L 3122 134 
Q 2881 22 2623 -34 
Q 2366 -91 2075 -91 
Q 1284 -91 818 406 
Q 353 903 353 1747 
Q 353 2603 823 3093 
Q 1294 3584 2113 3584 
Q 2378 3584 2631 3529 
Q 2884 3475 3122 3366 
z
" transform="scale(0.015625)"/>
       <path id="DejaVuSans-74" d="M 1172 4494 
L 1172 3500 
L 2356 3500 
L 2356 3053 
L 1172 3053 
L 1172 1153 
Q 1172 725 1289 603 
Q 1406 481 1766 481 
L 2356 481 
L 2356 0 
L 1766 0 
Q 1100 0 847 248 
Q 594 497 594 1153 
L 594 3053 
L 172 3053 
L 172 3500 
L 594 3500 
L 594 4494 
L 1172 4494 
z
" transform="scale(0.015625)"/>
       <path id="DejaVuSans-72" d="M 2631 2963 
Q 2534 3019 2420 3045 
Q 2306 3072 2169 3072 
Q 1681 3072 1420 2755 
Q 1159 2438 1159 1844 
L 1159 0 
L 581 0 
L 581 3500 
L 1159 3500 
L 1159 2956 
Q 1341 3275 1631 3429 
Q 1922 3584 2338 3584 
Q 2397 3584 2469 3576 
Q 2541 3569 2628 3553 
L 2631 2963 
z
" transform="scale(0.015625)"/>
       <path id="DejaVuSans-61" d="M 2194 1759 
Q 1497 1759 1228 1600 
Q 959 1441 959 1056 
Q 959 750 1161 570 
Q 1363 391 1709 391 
Q 2188 391 2477 730 
Q 2766 1069 2766 1631 
L 2766 1759 
L 2194 1759 
z
M 3341 1997 
L 3341 0 
L 2766 0 
L 2766 531 
Q 2569 213 2275 61 
Q 1981 -91 1556 -91 
Q 1019 -91 701 211 
Q 384 513 384 1019 
Q 384 1609 779 1909 
Q 1175 2209 1959 2209 
L 2766 2209 
L 2766 2266 
Q 2766 2663 2505 2880 
Q 2244 3097 1772 3097 
Q 1472 3097 1187 3025 
Q 903 2953 641 2809 
L 641 3341 
Q 956 3463 1253 3523 
Q 1550 3584 1831 3584 
Q 2591 3584 2966 3190 
Q 3341 2797 3341 1997 
z
" transform="scale(0.015625)"/>
       <path id="DejaVuSans-Oblique-3bc" d="M -84 -1331 
L 856 3500 
L 1434 3500 
L 1009 1322 
Q 997 1256 987 1175 
Q 978 1094 978 1013 
Q 978 722 1161 565 
Q 1344 409 1684 409 
Q 2147 409 2431 671 
Q 2716 934 2816 1459 
L 3213 3500 
L 3788 3500 
L 3266 809 
Q 3253 750 3248 706 
Q 3244 663 3244 628 
Q 3244 531 3283 486 
Q 3322 441 3406 441 
Q 3438 441 3492 456 
Q 3547 472 3647 513 
L 3559 50 
Q 3422 -19 3297 -55 
Q 3172 -91 3053 -91 
Q 2847 -91 2730 40 
Q 2613 172 2613 403 
Q 2438 153 2195 31 
Q 1953 -91 1625 -91 
Q 1334 -91 1117 43 
Q 900 178 831 397 
L 494 -1331 
L -84 -1331 
z
" transform="scale(0.015625)"/>
       <path id="DejaVuSans-Oblique-6d" d="M 5747 2113 
L 5338 0 
L 4763 0 
L 5166 2094 
Q 5191 2228 5203 2325 
Q 5216 2422 5216 2491 
Q 5216 2772 5059 2928 
Q 4903 3084 4622 3084 
Q 4203 3084 3875 2770 
Q 3547 2456 3450 1953 
L 3066 0 
L 2491 0 
L 2900 2094 
Q 2925 2209 2937 2307 
Q 2950 2406 2950 2484 
Q 2950 2769 2794 2926 
Q 2638 3084 2363 3084 
Q 1938 3084 1609 2770 
Q 1281 2456 1184 1953 
L 800 0 
L 225 0 
L 909 3500 
L 1484 3500 
L 1375 2956 
Q 1609 3263 1923 3423 
Q 2238 3584 2597 3584 
Q 2978 3584 3223 3384 
Q 3469 3184 3519 2828 
Q 3781 3197 4126 3390 
Q 4472 3584 4856 3584 
Q 5306 3584 5551 3325 
Q 5797 3066 5797 2591 
Q 5797 2488 5784 2364 
Q 5772 2241 5747 2113 
z
" transform="scale(0.015625)"/>
       <path id="DejaVuSans-Oblique-6f" d="M 1625 -91 
Q 1009 -91 651 289 
Q 294 669 294 1325 
Q 294 1706 417 2101 
Q 541 2497 738 2766 
Q 1047 3184 1428 3384 
Q 1809 3584 2291 3584 
Q 2888 3584 3255 3212 
Q 3622 2841 3622 2241 
Q 3622 1825 3500 1412 
Q 3378 1000 3181 728 
Q 2875 309 2494 109 
Q 2113 -91 1625 -91 
z
M 891 1344 
Q 891 869 1089 633 
Q 1288 397 1691 397 
Q 2269 397 2648 901 
Q 3028 1406 3028 2181 
Q 3028 2634 2825 2865 
Q 2622 3097 2228 3097 
Q 1903 3097 1650 2945 
Q 1397 2794 1197 2484 
Q 1050 2253 970 1956 
Q 891 1659 891 1344 
z
" transform="scale(0.015625)"/>
       <path id="DejaVuSans-Oblique-6c" d="M 1172 4863 
L 1747 4863 
L 800 0 
L 225 0 
L 1172 4863 
z
" transform="scale(0.015625)"/>
       <path id="DejaVuSans-Oblique-67" d="M 3816 3500 
L 3219 434 
Q 3047 -456 2561 -893 
Q 2075 -1331 1253 -1331 
Q 950 -1331 690 -1286 
Q 431 -1241 206 -1147 
L 313 -588 
Q 525 -725 762 -790 
Q 1000 -856 1269 -856 
Q 1816 -856 2167 -557 
Q 2519 -259 2631 300 
L 2681 563 
Q 2441 288 2122 144 
Q 1803 0 1434 0 
Q 903 0 598 351 
Q 294 703 294 1319 
Q 294 1803 478 2267 
Q 663 2731 997 3091 
Q 1219 3328 1514 3456 
Q 1809 3584 2131 3584 
Q 2484 3584 2746 3420 
Q 3009 3256 3138 2956 
L 3238 3500 
L 3816 3500 
z
M 2950 2216 
Q 2950 2641 2750 2872 
Q 2550 3103 2181 3103 
Q 1953 3103 1747 3012 
Q 1541 2922 1394 2759 
Q 1156 2491 1023 2127 
Q 891 1763 891 1375 
Q 891 944 1092 712 
Q 1294 481 1672 481 
Q 2219 481 2584 976 
Q 2950 1472 2950 2216 
z
" transform="scale(0.015625)"/>
       <path id="DejaVuSans-2212" d="M 678 2272 
L 4684 2272 
L 4684 1741 
L 678 1741 
L 678 2272 
z
" transform="scale(0.015625)"/>
       <path id="DejaVuSans-Oblique-43" d="M 4447 4306 
L 4319 3641 
Q 4019 3944 3683 4091 
Q 3347 4238 2956 4238 
Q 2422 4238 2017 3981 
Q 1613 3725 1319 3200 
Q 1131 2863 1032 2486 
Q 934 2109 934 1728 
Q 934 1091 1264 756 
Q 1594 422 2222 422 
Q 2656 422 3056 561 
Q 3456 700 3834 978 
L 3688 231 
Q 3316 72 2936 -9 
Q 2556 -91 2175 -91 
Q 1278 -91 773 396 
Q 269 884 269 1753 
Q 269 2309 461 2846 
Q 653 3384 1013 3828 
Q 1394 4300 1883 4525 
Q 2372 4750 3022 4750 
Q 3422 4750 3780 4639 
Q 4138 4528 4447 4306 
z
" transform="scale(0.015625)"/>
       <path id="DejaVuSans-Oblique-68" d="M 3566 2113 
L 3156 0 
L 2578 0 
L 2988 2091 
Q 3016 2238 3031 2350 
Q 3047 2463 3047 2528 
Q 3047 2791 2881 2937 
Q 2716 3084 2419 3084 
Q 1956 3084 1617 2771 
Q 1278 2459 1178 1941 
L 800 0 
L 225 0 
L 1172 4863 
L 1747 4863 
L 1375 2950 
Q 1594 3244 1934 3414 
Q 2275 3584 2650 3584 
Q 3113 3584 3367 3334 
Q 3622 3084 3622 2631 
Q 3622 2519 3608 2391 
Q 3594 2263 3566 2113 
z
" transform="scale(0.015625)"/>
      </defs>
      <use xlink:href="#DejaVuSans-43" transform="translate(0 0.684375)"/>
      <use xlink:href="#DejaVuSans-6f" transform="translate(69.824219 0.684375)"/>
      <use xlink:href="#DejaVuSans-6e" transform="translate(131.005859 0.684375)"/>
      <use xlink:href="#DejaVuSans-63" transform="translate(194.384766 0.684375)"/>
      <use xlink:href="#DejaVuSans-65" transform="translate(249.365234 0.684375)"/>
      <use xlink:href="#DejaVuSans-6e" transform="translate(310.888672 0.684375)"/>
      <use xlink:href="#DejaVuSans-74" transform="translate(374.267578 0.684375)"/>
      <use xlink:href="#DejaVuSans-72" transform="translate(413.476562 0.684375)"/>
      <use xlink:href="#DejaVuSans-61" transform="translate(454.589844 0.684375)"/>
      <use xlink:href="#DejaVuSans-74" transform="translate(515.869141 0.684375)"/>
      <use xlink:href="#DejaVuSans-69" transform="translate(555.078125 0.684375)"/>
      <use xlink:href="#DejaVuSans-6f" transform="translate(582.861328 0.684375)"/>
      <use xlink:href="#DejaVuSans-6e" transform="translate(644.042969 0.684375)"/>
      <use xlink:href="#DejaVuSans-20" transform="translate(707.421875 0.684375)"/>
      <use xlink:href="#DejaVuSans-2f" transform="translate(739.208984 0.684375)"/>
      <use xlink:href="#DejaVuSans-20" transform="translate(772.900391 0.684375)"/>
      <use xlink:href="#DejaVuSans-Oblique-3bc" transform="translate(804.6875 0.684375)"/>
      <use xlink:href="#DejaVuSans-Oblique-6d" transform="translate(900.780925 0.684375)"/>
      <use xlink:href="#DejaVuSans-Oblique-6f" transform="translate(998.193035 0.684375)"/>
      <use xlink:href="#DejaVuSans-Oblique-6c" transform="translate(1059.374675 0.684375)"/>
      <use xlink:href="#DejaVuSans-Oblique-6d" transform="translate(1119.628257 0.684375)"/>
      <use xlink:href="#DejaVuSans-Oblique-67" transform="translate(1217.040366 0.684375)"/>
      <use xlink:href="#DejaVuSans-2212" transform="translate(1285.166825 38.965625) scale(0.7)"/>
      <use xlink:href="#DejaVuSans-31" transform="translate(1343.819168 38.965625) scale(0.7)"/>
      <use xlink:href="#DejaVuSans-Oblique-43" transform="translate(1423.560055 0.684375)"/>
      <use xlink:href="#DejaVuSans-Oblique-68" transform="translate(1493.384273 0.684375)"/>
      <use xlink:href="#DejaVuSans-Oblique-6c" transform="translate(1556.76318 0.684375)"/>
      <use xlink:href="#DejaVuSans-Oblique-68" transform="translate(1617.016761 0.684375)"/>
      <use xlink:href="#DejaVuSans-2212" transform="translate(1687.843376 38.965625) scale(0.7)"/>
      <use xlink:href="#DejaVuSans-31" transform="translate(1746.495719 38.965625) scale(0.7)"/>
     </g>
    </g>
   </g>
   <g id="line2d_25">
    <path d="M 46.145455 246.24 
L 48.195041 243.551339 
L 50.244628 242.256419 
L 52.294215 241.460156 
L 54.343802 240.92657 
L 56.393388 240.552805 
L 58.442975 240.283964 
L 60.492562 240.087245 
L 62.542149 239.941607 
L 64.591736 239.8329 
L 66.641322 239.751278 
L 68.690909 239.689726 
L 70.740496 239.643164 
L 72.790083 239.607856 
L 74.839669 239.581036 
L 76.889256 239.560633 
L 78.938843 239.545099 
L 80.98843 239.533262 
L 83.038017 239.524237 
L 85.087603 239.517352 
L 87.13719 239.512099 
L 89.186777 239.50809 
L 91.236364 239.505029 
L 93.28595 239.502693 
L 95.335537 239.500908 
L 97.385124 239.499546 
L 99.434711 239.498505 
L 101.484298 239.49771 
L 103.533884 239.497103 
L 105.583471 239.496639 
L 107.633058 239.496285 
L 109.682645 239.496015 
L 111.732231 239.495808 
L 113.781818 239.49565 
L 115.831405 239.49553 
L 117.880992 239.495438 
L 119.930579 239.495367 
L 121.980165 239.495314 
L 124.029752 239.495272 
L 126.079339 239.495241 
L 128.128926 239.495217 
L 130.178512 239.495199 
L 132.228099 239.495185 
L 134.277686 239.495174 
L 136.327273 239.495166 
L 138.37686 239.49516 
L 140.426446 239.495155 
L 142.476033 239.495151 
L 144.52562 239.495149 
L 146.575207 239.495147 
L 148.624793 239.495145 
L 150.67438 239.495144 
L 152.723967 239.495143 
L 154.773554 239.495142 
L 156.82314 239.495141 
L 158.872727 239.495141 
L 160.922314 239.495141 
L 162.971901 239.49514 
L 165.021488 239.49514 
L 167.071074 239.49514 
L 169.120661 239.49514 
L 171.170248 239.49514 
L 173.219835 239.49514 
L 175.269421 239.49514 
L 177.319008 239.49514 
L 179.368595 239.49514 
L 181.418182 239.49514 
L 183.467769 239.49514 
L 185.517355 239.49514 
L 187.566942 239.49514 
L 189.616529 239.49514 
L 191.666116 239.49514 
L 193.715702 239.49514 
L 195.765289 239.49514 
L 197.814876 239.49514 
L 199.864463 239.49514 
L 201.91405 239.49514 
L 203.963636 239.49514 
L 206.013223 239.49514 
L 208.06281 239.49514 
L 210.112397 239.49514 
L 212.161983 239.49514 
L 214.21157 239.49514 
L 216.261157 239.49514 
L 218.310744 239.49514 
L 220.360331 239.49514 
L 222.409917 239.49514 
L 224.459504 239.49514 
L 226.509091 239.49514 
L 228.558678 239.49514 
L 230.608264 239.49514 
L 232.657851 239.49514 
L 234.707438 239.49514 
L 236.757025 239.49514 
L 238.806612 239.49514 
L 240.856198 239.49514 
L 242.905785 239.49514 
L 244.955372 239.49514 
L 247.004959 239.49514 
L 249.054545 239.49514 
" clip-path="url(#p301d1ec3c5)" style="fill: none; stroke: #1f77b4; stroke-width: 1.5; stroke-linecap: square"/>
   </g>
   <g id="line2d_26">
    <path d="M 46.145455 246.24 
L 48.195041 244.420355 
L 50.244628 241.330529 
L 52.294215 237.893892 
L 54.343802 234.351331 
L 56.393388 230.803266 
L 58.442975 227.299227 
L 60.492562 223.865463 
L 62.542149 220.516093 
L 64.591736 217.258376 
L 66.641322 214.095502 
L 68.690909 211.028159 
L 70.740496 208.055484 
L 72.790083 205.175653 
L 74.839669 202.386253 
L 76.889256 199.68454 
L 78.938843 197.067594 
L 80.98843 194.532433 
L 83.038017 192.076085 
L 85.087603 189.695639 
L 87.13719 187.38827 
L 89.186777 185.15126 
L 91.236364 182.98201 
L 93.28595 180.878042 
L 95.335537 178.837001 
L 97.385124 176.856651 
L 99.434711 174.934875 
L 101.484298 173.069665 
L 103.533884 171.259122 
L 105.583471 169.501445 
L 107.633058 167.79493 
L 109.682645 166.137958 
L 111.732231 164.528999 
L 113.781818 162.966594 
L 115.831405 161.44936 
L 117.880992 159.975979 
L 119.930579 158.545197 
L 121.980165 157.15582 
L 124.029752 155.806708 
L 126.079339 154.496771 
L 128.128926 153.224968 
L 130.178512 151.990301 
L 132.228099 150.791815 
L 134.277686 149.628593 
L 136.327273 148.499755 
L 138.37686 147.404453 
L 140.426446 146.341874 
L 142.476033 145.311232 
L 144.52562 144.311772 
L 146.575207 143.342764 
L 148.624793 142.403501 
L 150.67438 141.493303 
L 152.723967 140.611509 
L 154.773554 139.757481 
L 156.82314 138.930599 
L 158.872727 138.130264 
L 160.922314 137.355892 
L 162.971901 136.606918 
L 165.021488 135.882791 
L 167.071074 135.182975 
L 169.120661 134.506951 
L 171.170248 133.85421 
L 173.219835 133.224259 
L 175.269421 132.616616 
L 177.319008 132.030811 
L 179.368595 131.466385 
L 181.418182 130.922891 
L 183.467769 130.39989 
L 185.517355 129.896954 
L 187.566942 129.413667 
L 189.616529 128.949618 
L 191.666116 128.504408 
L 193.715702 128.077645 
L 195.765289 127.668945 
L 197.814876 127.277932 
L 199.864463 126.904238 
L 201.91405 126.547502 
L 203.963636 126.207371 
L 206.013223 125.883497 
L 208.06281 125.57554 
L 210.112397 125.283165 
L 212.161983 125.006046 
L 214.21157 124.743859 
L 216.261157 124.49629 
L 218.310744 124.263027 
L 220.360331 124.043767 
L 222.409917 123.83821 
L 224.459504 123.646062 
L 226.509091 123.467033 
L 228.558678 123.300841 
L 230.608264 123.147205 
L 232.657851 123.005852 
L 234.707438 122.876512 
L 236.757025 122.758919 
L 238.806612 122.652813 
L 240.856198 122.557938 
L 242.905785 122.474042 
L 244.955372 122.400876 
L 247.004959 122.338197 
L 249.054545 122.285765 
" clip-path="url(#p301d1ec3c5)" style="fill: none; stroke: #ff7f0e; stroke-width: 1.5; stroke-linecap: square"/>
   </g>
   <g id="line2d_27">
    <path d="M 46.145455 246.24 
L 48.195041 246.206468 
L 50.244628 246.050895 
L 52.294215 245.747324 
L 54.343802 245.293365 
L 56.393388 244.693926 
L 58.442975 243.956723 
L 60.492562 243.090493 
L 62.542149 242.104176 
L 64.591736 241.006508 
L 66.641322 239.805827 
L 68.690909 238.509977 
L 70.740496 237.126277 
L 72.790083 235.661519 
L 74.839669 234.121987 
L 76.889256 232.513483 
L 78.938843 230.841353 
L 80.98843 229.110524 
L 83.038017 227.325535 
L 85.087603 225.490569 
L 87.13719 223.60948 
L 89.186777 221.685821 
L 91.236364 219.722872 
L 93.28595 217.723661 
L 95.335537 215.690984 
L 97.385124 213.627429 
L 99.434711 211.53539 
L 101.484298 209.417084 
L 103.533884 207.274568 
L 105.583471 205.109748 
L 107.633058 202.924396 
L 109.682645 200.72016 
L 111.732231 198.498568 
L 113.781818 196.261051 
L 115.831405 194.008935 
L 117.880992 191.743463 
L 119.930579 189.465793 
L 121.980165 187.177006 
L 124.029752 184.878112 
L 126.079339 182.57006 
L 128.128926 180.253735 
L 130.178512 177.929971 
L 132.228099 175.599548 
L 134.277686 173.263198 
L 136.327273 170.921611 
L 138.37686 168.575435 
L 140.426446 166.22528 
L 142.476033 163.871722 
L 144.52562 161.515302 
L 146.575207 159.156534 
L 148.624793 156.7959 
L 150.67438 154.433858 
L 152.723967 152.070842 
L 154.773554 149.707262 
L 156.82314 147.343504 
L 158.872727 144.979939 
L 160.922314 142.616915 
L 162.971901 140.254765 
L 165.021488 137.893805 
L 167.071074 135.534336 
L 169.120661 133.176643 
L 171.170248 130.821001 
L 173.219835 128.467668 
L 175.269421 126.116894 
L 177.319008 123.768915 
L 179.368595 121.423958 
L 181.418182 119.08224 
L 183.467769 116.743969 
L 185.517355 114.409342 
L 187.566942 112.078552 
L 189.616529 109.75178 
L 191.666116 107.429202 
L 193.715702 105.110986 
L 195.765289 102.797293 
L 197.814876 100.48828 
L 199.864463 98.184094 
L 201.91405 95.884881 
L 203.963636 93.590779 
L 206.013223 91.301921 
L 208.06281 89.018435 
L 210.112397 86.740446 
L 212.161983 84.468073 
L 214.21157 82.201432 
L 216.261157 79.940632 
L 218.310744 77.685783 
L 220.360331 75.436988 
L 222.409917 73.194346 
L 224.459504 70.957955 
L 226.509091 68.727909 
L 228.558678 66.504298 
L 230.608264 64.287208 
L 232.657851 62.076726 
L 234.707438 59.872933 
L 236.757025 57.675908 
L 238.806612 55.485727 
L 240.856198 53.302465 
L 242.905785 51.126193 
L 244.955372 48.95698 
L 247.004959 46.794894 
L 249.054545 44.64 
" clip-path="url(#p301d1ec3c5)" style="fill: none; stroke: #2ca02c; stroke-width: 1.5; stroke-linecap: square"/>
   </g>
   <g id="line2d_28">
    <path d="M 46.145455 246.24 
L 48.195041 246.239922 
L 50.244628 246.239086 
L 52.294215 246.236335 
L 54.343802 246.230433 
L 56.393388 246.220186 
L 58.442975 246.204484 
L 60.492562 246.18232 
L 62.542149 246.152793 
L 64.591736 246.115108 
L 66.641322 246.06857 
L 68.690909 246.012578 
L 70.740496 245.946622 
L 72.790083 245.870272 
L 74.839669 245.783173 
L 76.889256 245.68504 
L 78.938843 245.575647 
L 80.98843 245.454827 
L 83.038017 245.322465 
L 85.087603 245.178488 
L 87.13719 245.022868 
L 89.186777 244.855613 
L 91.236364 244.676763 
L 93.28595 244.486388 
L 95.335537 244.284585 
L 97.385124 244.071473 
L 99.434711 243.847192 
L 101.484298 243.611898 
L 103.533884 243.365767 
L 105.583471 243.108984 
L 107.633058 242.841747 
L 109.682645 242.564264 
L 111.732231 242.276753 
L 113.781818 241.979435 
L 115.831405 241.672541 
L 117.880992 241.356303 
L 119.930579 241.030959 
L 121.980165 240.696747 
L 124.029752 240.353909 
L 126.079339 240.002686 
L 128.128926 239.643321 
L 130.178512 239.276055 
L 132.228099 238.90113 
L 134.277686 238.518783 
L 136.327273 238.129254 
L 138.37686 237.732777 
L 140.426446 237.329585 
L 142.476033 236.919908 
L 144.52562 236.503972 
L 146.575207 236.082002 
L 148.624793 235.654218 
L 150.67438 235.220834 
L 152.723967 234.782065 
L 154.773554 234.338118 
L 156.82314 233.889199 
L 158.872727 233.435507 
L 160.922314 232.977239 
L 162.971901 232.514587 
L 165.021488 232.04774 
L 167.071074 231.57688 
L 169.120661 231.102188 
L 171.170248 230.623838 
L 173.219835 230.142002 
L 175.269421 229.656846 
L 177.319008 229.168534 
L 179.368595 228.677224 
L 181.418182 228.183069 
L 183.467769 227.686222 
L 185.517355 227.186828 
L 187.566942 226.68503 
L 189.616529 226.180966 
L 191.666116 225.674772 
L 193.715702 225.166579 
L 195.765289 224.656514 
L 197.814876 224.1447 
L 199.864463 223.63126 
L 201.91405 223.116308 
L 203.963636 222.59996 
L 206.013223 222.082324 
L 208.06281 221.563507 
L 210.112397 221.043614 
L 212.161983 220.522745 
L 214.21157 220.000998 
L 216.261157 219.478466 
L 218.310744 218.955242 
L 220.360331 218.431414 
L 222.409917 217.907068 
L 224.459504 217.382287 
L 226.509091 216.857153 
L 228.558678 216.331742 
L 230.608264 215.806132 
L 232.657851 215.280394 
L 234.707438 214.754599 
L 236.757025 214.228816 
L 238.806612 213.70311 
L 240.856198 213.177547 
L 242.905785 212.652187 
L 244.955372 212.12709 
L 247.004959 211.602314 
L 249.054545 211.077914 
" clip-path="url(#p301d1ec3c5)" style="fill: none; stroke: #d62728; stroke-width: 1.5; stroke-linecap: square"/>
   </g>
   <g id="line2d_29">
    <path d="M 46.145455 246.24 
L 48.195041 246.24 
L 50.244628 246.239999 
L 52.294215 246.239996 
L 54.343802 246.239984 
L 56.393388 246.239959 
L 58.442975 246.239913 
L 60.492562 246.239841 
L 62.542149 246.239734 
L 64.591736 246.239589 
L 66.641322 246.2394 
L 68.690909 246.239162 
L 70.740496 246.23887 
L 72.790083 246.238522 
L 74.839669 246.238115 
L 76.889256 246.237645 
L 78.938843 246.237111 
L 80.98843 246.23651 
L 83.038017 246.235842 
L 85.087603 246.235106 
L 87.13719 246.2343 
L 89.186777 246.233425 
L 91.236364 246.23248 
L 93.28595 246.231465 
L 95.335537 246.230381 
L 97.385124 246.229228 
L 99.434711 246.228007 
L 101.484298 246.226718 
L 103.533884 246.225363 
L 105.583471 246.223942 
L 107.633058 246.222456 
L 109.682645 246.220908 
L 111.732231 246.219297 
L 113.781818 246.217626 
L 115.831405 246.215896 
L 117.880992 246.214108 
L 119.930579 246.212265 
L 121.980165 246.210366 
L 124.029752 246.208415 
L 126.079339 246.206412 
L 128.128926 246.20436 
L 130.178512 246.202259 
L 132.228099 246.200112 
L 134.277686 246.19792 
L 136.327273 246.195685 
L 138.37686 246.193408 
L 140.426446 246.19109 
L 142.476033 246.188734 
L 144.52562 246.186341 
L 146.575207 246.183913 
L 148.624793 246.18145 
L 150.67438 246.178955 
L 152.723967 246.176429 
L 154.773554 246.173874 
L 156.82314 246.17129 
L 158.872727 246.168679 
L 160.922314 246.166043 
L 162.971901 246.163383 
L 165.021488 246.1607 
L 167.071074 246.157996 
L 169.120661 246.155271 
L 171.170248 246.152527 
L 173.219835 246.149766 
L 175.269421 246.146987 
L 177.319008 246.144193 
L 179.368595 246.141385 
L 181.418182 246.138563 
L 183.467769 246.135729 
L 185.517355 246.132883 
L 187.566942 246.130027 
L 189.616529 246.127162 
L 191.666116 246.124288 
L 193.715702 246.121407 
L 195.765289 246.118518 
L 197.814876 246.115624 
L 199.864463 246.112725 
L 201.91405 246.109822 
L 203.963636 246.106915 
L 206.013223 246.104006 
L 208.06281 246.101094 
L 210.112397 246.098182 
L 212.161983 246.095268 
L 214.21157 246.092355 
L 216.261157 246.089442 
L 218.310744 246.086531 
L 220.360331 246.083621 
L 222.409917 246.080714 
L 224.459504 246.07781 
L 226.509091 246.07491 
L 228.558678 246.072014 
L 230.608264 246.069122 
L 232.657851 246.066235 
L 234.707438 246.063353 
L 236.757025 246.060478 
L 238.806612 246.057609 
L 240.856198 246.054746 
L 242.905785 246.051891 
L 244.955372 246.049043 
L 247.004959 246.046203 
L 249.054545 246.043372 
" clip-path="url(#p301d1ec3c5)" style="fill: none; stroke: #9467bd; stroke-width: 1.5; stroke-linecap: square"/>
   </g>
   <g id="line2d_30">
    <path d="M 46.145455 246.24 
L 48.195041 245.778808 
L 50.244628 245.619064 
L 52.294215 245.548837 
L 54.343802 245.509397 
L 56.393388 245.484627 
L 58.442975 245.468062 
L 60.492562 245.456541 
L 62.542149 245.448317 
L 64.591736 245.442337 
L 66.641322 245.437935 
L 68.690909 245.434663 
L 70.740496 245.432215 
L 72.790083 245.430373 
L 74.839669 245.428983 
L 76.889256 245.427931 
L 78.938843 245.427132 
L 80.98843 245.426525 
L 83.038017 245.426064 
L 85.087603 245.425712 
L 87.13719 245.425444 
L 89.186777 245.42524 
L 91.236364 245.425084 
L 93.28595 245.424965 
L 95.335537 245.424874 
L 97.385124 245.424805 
L 99.434711 245.424752 
L 101.484298 245.424711 
L 103.533884 245.424681 
L 105.583471 245.424657 
L 107.633058 245.424639 
L 109.682645 245.424625 
L 111.732231 245.424615 
L 113.781818 245.424606 
L 115.831405 245.4246 
L 117.880992 245.424596 
L 119.930579 245.424592 
L 121.980165 245.424589 
L 124.029752 245.424587 
L 126.079339 245.424586 
L 128.128926 245.424585 
L 130.178512 245.424584 
L 132.228099 245.424583 
L 134.277686 245.424582 
L 136.327273 245.424582 
L 138.37686 245.424582 
L 140.426446 245.424581 
L 142.476033 245.424581 
L 144.52562 245.424581 
L 146.575207 245.424581 
L 148.624793 245.424581 
L 150.67438 245.424581 
L 152.723967 245.424581 
L 154.773554 245.424581 
L 156.82314 245.424581 
L 158.872727 245.424581 
L 160.922314 245.424581 
L 162.971901 245.424581 
L 165.021488 245.424581 
L 167.071074 245.424581 
L 169.120661 245.424581 
L 171.170248 245.424581 
L 173.219835 245.424581 
L 175.269421 245.424581 
L 177.319008 245.424581 
L 179.368595 245.424581 
L 181.418182 245.424581 
L 183.467769 245.424581 
L 185.517355 245.424581 
L 187.566942 245.424581 
L 189.616529 245.424581 
L 191.666116 245.424581 
L 193.715702 245.424581 
L 195.765289 245.424581 
L 197.814876 245.424581 
L 199.864463 245.424581 
L 201.91405 245.424581 
L 203.963636 245.424581 
L 206.013223 245.424581 
L 208.06281 245.424581 
L 210.112397 245.424581 
L 212.161983 245.424581 
L 214.21157 245.424581 
L 216.261157 245.424581 
L 218.310744 245.424581 
L 220.360331 245.424581 
L 222.409917 245.424581 
L 224.459504 245.424581 
L 226.509091 245.424581 
L 228.558678 245.424581 
L 230.608264 245.424581 
L 232.657851 245.424581 
L 234.707438 245.424581 
L 236.757025 245.424581 
L 238.806612 245.424581 
L 240.856198 245.424581 
L 242.905785 245.424581 
L 244.955372 245.424581 
L 247.004959 245.424581 
L 249.054545 245.424581 
" clip-path="url(#p301d1ec3c5)" style="fill: none; stroke: #8c564b; stroke-width: 1.5; stroke-linecap: square"/>
   </g>
   <g id="patch_3">
    <path d="M 36 256.32 
L 36 34.56 
" style="fill: none; stroke: #000000; stroke-width: 0.8; stroke-linejoin: miter; stroke-linecap: square"/>
   </g>
   <g id="patch_4">
    <path d="M 259.2 256.32 
L 259.2 34.56 
" style="fill: none; stroke: #000000; stroke-width: 0.8; stroke-linejoin: miter; stroke-linecap: square"/>
   </g>
   <g id="patch_5">
    <path d="M 36 256.32 
L 259.2 256.32 
" style="fill: none; stroke: #000000; stroke-width: 0.8; stroke-linejoin: miter; stroke-linecap: square"/>
   </g>
   <g id="patch_6">
    <path d="M 36 34.56 
L 259.2 34.56 
" style="fill: none; stroke: #000000; stroke-width: 0.8; stroke-linejoin: miter; stroke-linecap: square"/>
   </g>
   <g id="legend_1">
    <g id="patch_7">
     <path d="M 43 130.62875 
L 159.970313 130.62875 
Q 161.970313 130.62875 161.970313 128.62875 
L 161.970313 41.56 
Q 161.970313 39.56 159.970313 39.56 
L 43 39.56 
Q 41 39.56 41 41.56 
L 41 128.62875 
Q 41 130.62875 43 130.62875 
z
" style="fill: #ffffff; opacity: 0.8; stroke: #cccccc; stroke-linejoin: miter"/>
    </g>
    <g id="line2d_31">
     <path d="M 45 47.658438 
L 55 47.658438 
L 65 47.658438 
" style="fill: none; stroke: #1f77b4; stroke-width: 1.5; stroke-linecap: square"/>
    </g>
    <g id="text_15">
     <!-- glycolate -->
     <g transform="translate(73 51.158438) scale(0.1 -0.1)">
      <defs>
       <path id="DejaVuSans-67" d="M 2906 1791 
Q 2906 2416 2648 2759 
Q 2391 3103 1925 3103 
Q 1463 3103 1205 2759 
Q 947 2416 947 1791 
Q 947 1169 1205 825 
Q 1463 481 1925 481 
Q 2391 481 2648 825 
Q 2906 1169 2906 1791 
z
M 3481 434 
Q 3481 -459 3084 -895 
Q 2688 -1331 1869 -1331 
Q 1566 -1331 1297 -1286 
Q 1028 -1241 775 -1147 
L 775 -588 
Q 1028 -725 1275 -790 
Q 1522 -856 1778 -856 
Q 2344 -856 2625 -561 
Q 2906 -266 2906 331 
L 2906 616 
Q 2728 306 2450 153 
Q 2172 0 1784 0 
Q 1141 0 747 490 
Q 353 981 353 1791 
Q 353 2603 747 3093 
Q 1141 3584 1784 3584 
Q 2172 3584 2450 3431 
Q 2728 3278 2906 2969 
L 2906 3500 
L 3481 3500 
L 3481 434 
z
" transform="scale(0.015625)"/>
       <path id="DejaVuSans-6c" d="M 603 4863 
L 1178 4863 
L 1178 0 
L 603 0 
L 603 4863 
z
" transform="scale(0.015625)"/>
       <path id="DejaVuSans-79" d="M 2059 -325 
Q 1816 -950 1584 -1140 
Q 1353 -1331 966 -1331 
L 506 -1331 
L 506 -850 
L 844 -850 
Q 1081 -850 1212 -737 
Q 1344 -625 1503 -206 
L 1606 56 
L 191 3500 
L 800 3500 
L 1894 763 
L 2988 3500 
L 3597 3500 
L 2059 -325 
z
" transform="scale(0.015625)"/>
      </defs>
      <use xlink:href="#DejaVuSans-67"/>
      <use xlink:href="#DejaVuSans-6c" transform="translate(63.476562 0)"/>
      <use xlink:href="#DejaVuSans-79" transform="translate(91.259766 0)"/>
      <use xlink:href="#DejaVuSans-63" transform="translate(150.439453 0)"/>
      <use xlink:href="#DejaVuSans-6f" transform="translate(205.419922 0)"/>
      <use xlink:href="#DejaVuSans-6c" transform="translate(266.601562 0)"/>
      <use xlink:href="#DejaVuSans-61" transform="translate(294.384766 0)"/>
      <use xlink:href="#DejaVuSans-74" transform="translate(355.664062 0)"/>
      <use xlink:href="#DejaVuSans-65" transform="translate(394.873047 0)"/>
     </g>
    </g>
    <g id="line2d_32">
     <path d="M 45 62.336563 
L 55 62.336563 
L 65 62.336563 
" style="fill: none; stroke: #ff7f0e; stroke-width: 1.5; stroke-linecap: square"/>
    </g>
    <g id="text_16">
     <!-- glyoxylate -->
     <g transform="translate(73 65.836563) scale(0.1 -0.1)">
      <defs>
       <path id="DejaVuSans-78" d="M 3513 3500 
L 2247 1797 
L 3578 0 
L 2900 0 
L 1881 1375 
L 863 0 
L 184 0 
L 1544 1831 
L 300 3500 
L 978 3500 
L 1906 2253 
L 2834 3500 
L 3513 3500 
z
" transform="scale(0.015625)"/>
      </defs>
      <use xlink:href="#DejaVuSans-67"/>
      <use xlink:href="#DejaVuSans-6c" transform="translate(63.476562 0)"/>
      <use xlink:href="#DejaVuSans-79" transform="translate(91.259766 0)"/>
      <use xlink:href="#DejaVuSans-6f" transform="translate(150.439453 0)"/>
      <use xlink:href="#DejaVuSans-78" transform="translate(208.496094 0)"/>
      <use xlink:href="#DejaVuSans-79" transform="translate(267.675781 0)"/>
      <use xlink:href="#DejaVuSans-6c" transform="translate(326.855469 0)"/>
      <use xlink:href="#DejaVuSans-61" transform="translate(354.638672 0)"/>
      <use xlink:href="#DejaVuSans-74" transform="translate(415.917969 0)"/>
      <use xlink:href="#DejaVuSans-65" transform="translate(455.126953 0)"/>
     </g>
    </g>
    <g id="line2d_33">
     <path d="M 45 77.014688 
L 55 77.014688 
L 65 77.014688 
" style="fill: none; stroke: #2ca02c; stroke-width: 1.5; stroke-linecap: square"/>
    </g>
    <g id="text_17">
     <!-- glycine -->
     <g transform="translate(73 80.514688) scale(0.1 -0.1)">
      <use xlink:href="#DejaVuSans-67"/>
      <use xlink:href="#DejaVuSans-6c" transform="translate(63.476562 0)"/>
      <use xlink:href="#DejaVuSans-79" transform="translate(91.259766 0)"/>
      <use xlink:href="#DejaVuSans-63" transform="translate(150.439453 0)"/>
      <use xlink:href="#DejaVuSans-69" transform="translate(205.419922 0)"/>
      <use xlink:href="#DejaVuSans-6e" transform="translate(233.203125 0)"/>
      <use xlink:href="#DejaVuSans-65" transform="translate(296.582031 0)"/>
     </g>
    </g>
    <g id="line2d_34">
     <path d="M 45 91.692813 
L 55 91.692813 
L 65 91.692813 
" style="fill: none; stroke: #d62728; stroke-width: 1.5; stroke-linecap: square"/>
    </g>
    <g id="text_18">
     <!-- serine -->
     <g transform="translate(73 95.192813) scale(0.1 -0.1)">
      <defs>
       <path id="DejaVuSans-73" d="M 2834 3397 
L 2834 2853 
Q 2591 2978 2328 3040 
Q 2066 3103 1784 3103 
Q 1356 3103 1142 2972 
Q 928 2841 928 2578 
Q 928 2378 1081 2264 
Q 1234 2150 1697 2047 
L 1894 2003 
Q 2506 1872 2764 1633 
Q 3022 1394 3022 966 
Q 3022 478 2636 193 
Q 2250 -91 1575 -91 
Q 1294 -91 989 -36 
Q 684 19 347 128 
L 347 722 
Q 666 556 975 473 
Q 1284 391 1588 391 
Q 1994 391 2212 530 
Q 2431 669 2431 922 
Q 2431 1156 2273 1281 
Q 2116 1406 1581 1522 
L 1381 1569 
Q 847 1681 609 1914 
Q 372 2147 372 2553 
Q 372 3047 722 3315 
Q 1072 3584 1716 3584 
Q 2034 3584 2315 3537 
Q 2597 3491 2834 3397 
z
" transform="scale(0.015625)"/>
      </defs>
      <use xlink:href="#DejaVuSans-73"/>
      <use xlink:href="#DejaVuSans-65" transform="translate(52.099609 0)"/>
      <use xlink:href="#DejaVuSans-72" transform="translate(113.623047 0)"/>
      <use xlink:href="#DejaVuSans-69" transform="translate(154.736328 0)"/>
      <use xlink:href="#DejaVuSans-6e" transform="translate(182.519531 0)"/>
      <use xlink:href="#DejaVuSans-65" transform="translate(245.898438 0)"/>
     </g>
    </g>
    <g id="line2d_35">
     <path d="M 45 106.370938 
L 55 106.370938 
L 65 106.370938 
" style="fill: none; stroke: #9467bd; stroke-width: 1.5; stroke-linecap: square"/>
    </g>
    <g id="text_19">
     <!-- hydroxypyruvate -->
     <g transform="translate(73 109.870938) scale(0.1 -0.1)">
      <defs>
       <path id="DejaVuSans-64" d="M 2906 2969 
L 2906 4863 
L 3481 4863 
L 3481 0 
L 2906 0 
L 2906 525 
Q 2725 213 2448 61 
Q 2172 -91 1784 -91 
Q 1150 -91 751 415 
Q 353 922 353 1747 
Q 353 2572 751 3078 
Q 1150 3584 1784 3584 
Q 2172 3584 2448 3432 
Q 2725 3281 2906 2969 
z
M 947 1747 
Q 947 1113 1208 752 
Q 1469 391 1925 391 
Q 2381 391 2643 752 
Q 2906 1113 2906 1747 
Q 2906 2381 2643 2742 
Q 2381 3103 1925 3103 
Q 1469 3103 1208 2742 
Q 947 2381 947 1747 
z
" transform="scale(0.015625)"/>
       <path id="DejaVuSans-70" d="M 1159 525 
L 1159 -1331 
L 581 -1331 
L 581 3500 
L 1159 3500 
L 1159 2969 
Q 1341 3281 1617 3432 
Q 1894 3584 2278 3584 
Q 2916 3584 3314 3078 
Q 3713 2572 3713 1747 
Q 3713 922 3314 415 
Q 2916 -91 2278 -91 
Q 1894 -91 1617 61 
Q 1341 213 1159 525 
z
M 3116 1747 
Q 3116 2381 2855 2742 
Q 2594 3103 2138 3103 
Q 1681 3103 1420 2742 
Q 1159 2381 1159 1747 
Q 1159 1113 1420 752 
Q 1681 391 2138 391 
Q 2594 391 2855 752 
Q 3116 1113 3116 1747 
z
" transform="scale(0.015625)"/>
       <path id="DejaVuSans-75" d="M 544 1381 
L 544 3500 
L 1119 3500 
L 1119 1403 
Q 1119 906 1312 657 
Q 1506 409 1894 409 
Q 2359 409 2629 706 
Q 2900 1003 2900 1516 
L 2900 3500 
L 3475 3500 
L 3475 0 
L 2900 0 
L 2900 538 
Q 2691 219 2414 64 
Q 2138 -91 1772 -91 
Q 1169 -91 856 284 
Q 544 659 544 1381 
z
M 1991 3584 
L 1991 3584 
z
" transform="scale(0.015625)"/>
       <path id="DejaVuSans-76" d="M 191 3500 
L 800 3500 
L 1894 563 
L 2988 3500 
L 3597 3500 
L 2284 0 
L 1503 0 
L 191 3500 
z
" transform="scale(0.015625)"/>
      </defs>
      <use xlink:href="#DejaVuSans-68"/>
      <use xlink:href="#DejaVuSans-79" transform="translate(63.378906 0)"/>
      <use xlink:href="#DejaVuSans-64" transform="translate(122.558594 0)"/>
      <use xlink:href="#DejaVuSans-72" transform="translate(186.035156 0)"/>
      <use xlink:href="#DejaVuSans-6f" transform="translate(224.898438 0)"/>
      <use xlink:href="#DejaVuSans-78" transform="translate(282.955078 0)"/>
      <use xlink:href="#DejaVuSans-79" transform="translate(342.134766 0)"/>
      <use xlink:href="#DejaVuSans-70" transform="translate(401.314453 0)"/>
      <use xlink:href="#DejaVuSans-79" transform="translate(464.791016 0)"/>
      <use xlink:href="#DejaVuSans-72" transform="translate(523.970703 0)"/>
      <use xlink:href="#DejaVuSans-75" transform="translate(565.083984 0)"/>
      <use xlink:href="#DejaVuSans-76" transform="translate(628.462891 0)"/>
      <use xlink:href="#DejaVuSans-61" transform="translate(687.642578 0)"/>
      <use xlink:href="#DejaVuSans-74" transform="translate(748.921875 0)"/>
      <use xlink:href="#DejaVuSans-65" transform="translate(788.130859 0)"/>
     </g>
    </g>
    <g id="line2d_36">
     <path d="M 45 121.049063 
L 55 121.049063 
L 65 121.049063 
" style="fill: none; stroke: #8c564b; stroke-width: 1.5; stroke-linecap: square"/>
    </g>
    <g id="text_20">
     <!-- H2O2 -->
     <g transform="translate(73 124.549063) scale(0.1 -0.1)">
      <defs>
       <path id="DejaVuSans-48" d="M 628 4666 
L 1259 4666 
L 1259 2753 
L 3553 2753 
L 3553 4666 
L 4184 4666 
L 4184 0 
L 3553 0 
L 3553 2222 
L 1259 2222 
L 1259 0 
L 628 0 
L 628 4666 
z
" transform="scale(0.015625)"/>
       <path id="DejaVuSans-4f" d="M 2522 4238 
Q 1834 4238 1429 3725 
Q 1025 3213 1025 2328 
Q 1025 1447 1429 934 
Q 1834 422 2522 422 
Q 3209 422 3611 934 
Q 4013 1447 4013 2328 
Q 4013 3213 3611 3725 
Q 3209 4238 2522 4238 
z
M 2522 4750 
Q 3503 4750 4090 4092 
Q 4678 3434 4678 2328 
Q 4678 1225 4090 567 
Q 3503 -91 2522 -91 
Q 1538 -91 948 565 
Q 359 1222 359 2328 
Q 359 3434 948 4092 
Q 1538 4750 2522 4750 
z
" transform="scale(0.015625)"/>
      </defs>
      <use xlink:href="#DejaVuSans-48"/>
      <use xlink:href="#DejaVuSans-32" transform="translate(75.195312 0)"/>
      <use xlink:href="#DejaVuSans-4f" transform="translate(138.818359 0)"/>
      <use xlink:href="#DejaVuSans-32" transform="translate(217.529297 0)"/>
     </g>
    </g>
   </g>
  </g>
 </g>
 <defs>
  <clipPath id="p301d1ec3c5">
   <rect x="36" y="34.56" width="223.2" height="221.76"/>
  </clipPath>
 </defs>
</svg>
