<?xml version="1.0" encoding="UTF-8" standalone="no"?>
<svg
   width="19.726555mm"
   height="22.779129mm"
   version="1.1"
   viewBox="0 0 55.917871 64.571"
   id="svg18"
   sodipodi:docname="cpbl-favivon.svg"
   inkscape:version="1.4.2 (ebf0e940d0, 2025-05-08)"
   xmlns:inkscape="http://www.inkscape.org/namespaces/inkscape"
   xmlns:sodipodi="http://sodipodi.sourceforge.net/DTD/sodipodi-0.dtd"
   xmlns="http://www.w3.org/2000/svg"
   xmlns:svg="http://www.w3.org/2000/svg">
  <defs
     id="defs18" />
  <sodipodi:namedview
     id="namedview18"
     pagecolor="#ffffff"
     bordercolor="#000000"
     borderopacity="0.25"
     inkscape:showpageshadow="2"
     inkscape:pageopacity="0.0"
     inkscape:pagecheckerboard="0"
     inkscape:deskcolor="#d1d1d1"
     inkscape:document-units="mm"
     inkscape:zoom="3.3109365"
     inkscape:cx="203.86981"
     inkscape:cy="57.687606"
     inkscape:window-width="3440"
     inkscape:window-height="1371"
     inkscape:window-x="0"
     inkscape:window-y="0"
     inkscape:window-maximized="1"
     inkscape:current-layer="g18" />
  <!-- Generator: Adobe Illustrator 29.5.1, SVG Export Plug-In . SVG Version: 2.1.0 Build 141)  -->
  <g
     id="Schutzraum"
     transform="matrix(0.45459938,0,0,1,-14.174172,-13.111)">
    <rect
       y="0"
       width="372.96899"
       height="90.709"
       fill="none"
       id="rect1"
       x="0" />
    <rect
       y="0"
       width="372.96899"
       height="90.709"
       fill="none"
       id="rect2"
       x="0" />
    <rect
       y="0"
       width="372.96899"
       height="90.709"
       fill="none"
       id="rect3"
       x="0" />
    <rect
       y="0"
       width="372.96899"
       height="90.709"
       fill="none"
       id="rect4"
       x="0" />
    <rect
       y="0"
       width="372.96899"
       height="90.709"
       fill="none"
       id="rect5"
       x="0" />
  </g>
  <g
     id="Logo"
     transform="translate(-14.174172,-13.111)">
    <g
       id="g18">
      <path
         d="m 70.092,36.036 v -1.155 l -3.958,2.293 0.027,17.032 3.931,2.261 V 55.314 L 67.16,53.628 67.135,37.75 Z m -4.64,0.177 4.64,-2.636 v -1.15 l -4.632,2.632 -9.425,-5.566 -0.002,-8.357 -0.995,-0.574 0.053,9.501 z m 0.192,19.049 -10.513,6.093 0.015,8.814 0.998,-0.577 -0.013,-7.661 9.515,-5.514 4.446,2.599 V 57.82 Z m -32.63,6.259 -0.006,10.906 0.995,0.578 0.011,-10.908 9.517,-5.515 9.371,5.643 0.006,9.318 0.99,-0.575 L 53.881,61.545 43.53,55.428 Z M 27.395,38.596 c 1.944,-1.502 3.924,-2.999 4.91,-2.499 1.153,0.585 1.131,3.285 1.111,5.667 v 0.002 c -1.612,1.174 -3.558,2.538 -4.786,1.915 -0.795,-0.403 -1.057,-2.739 -1.235,-5.085 m 6.747,3.543 c 0.766,-0.558 1.831,-1.319 2.085,-1.212 0.397,0.201 0.448,0.589 0.485,1.205 0.033,0.544 0.07,1.161 0.655,1.431 0.238,0.111 0.953,0.457 1.847,0.893 -0.028,0.023 -0.054,0.044 -0.082,0.067 -1.401,1.146 -3.144,2.572 -4.198,2.05 -0.777,-0.385 -0.806,-2.473 -0.792,-4.434 m 6.43,2.168 c 0.6,-0.456 1.149,-0.805 1.448,-0.764 0.358,0.048 1.016,0.305 1.801,0.664 l -0.006,0.938 c 0.214,0.112 0.347,0.18 0.424,0.22 0.06,0.031 0.244,0.125 0.695,0.357 0.318,0.164 0.535,0.37 0.639,0.74 0.202,0.723 0.296,1.57 0.744,2.107 0.439,0.525 1.261,0.733 1.917,1.075 1.9,0.987 3.804,1.966 5.699,2.959 0.249,0.131 0.405,0.144 0.637,-0.068 0.729,-0.667 1.785,-0.661 2.558,-0.033 0.679,0.55 0.884,1.591 0.473,2.396 -0.42,0.82 -1.399,1.252 -2.261,0.999 -0.957,-0.282 -1.559,-1.151 -1.423,-2.13 0.041,-0.294 -0.05,-0.403 -0.288,-0.525 -2.55,-1.312 -5.093,-2.638 -7.643,-3.949 -0.239,-0.123 -0.373,-0.279 -0.448,-0.535 -0.195,-0.67 -0.4,-1.341 -0.64,-1.997 C 44.827,46.57 44.657,46.367 44.477,46.273 44.002,46.024 43.724,45.87 43.57,45.776 42.711,45.355 41.603,44.812 40.572,44.307 M 18.629,31.182 c -0.427,0.019 -2.23,-0.768 -4.454,-1.86 v 0.818 c 1.945,0.948 3.819,1.771 4.459,1.771 0.014,0 0.027,0 0.04,0 1.031,-0.064 2.003,-0.604 2.942,-1.126 1.172,-0.651 2.184,-1.213 3.058,-0.77 1.432,0.727 1.691,4.39 1.92,7.622 0.015,0.21 0.029,0.417 0.044,0.623 -2.253,1.742 -4.77,3.647 -6.273,2.885 -1,-0.508 -1.098,-2.388 -1.169,-3.76 -0.049,-0.939 -0.084,-1.617 -0.349,-1.974 -0.307,-0.415 -2.464,-1.558 -4.672,-2.656 v 0.815 c 2.189,1.095 3.865,2.001 4.086,2.275 0.134,0.181 0.174,0.955 0.207,1.578 0.085,1.636 0.19,3.673 1.567,4.372 1.815,0.922 4.256,-0.809 6.669,-2.665 0.209,2.581 0.519,4.657 1.596,5.203 1.487,0.755 3.429,-0.458 5.11,-1.662 -0.003,2.206 0.111,4.017 1.2,4.556 0.265,0.131 0.542,0.19 0.829,0.19 1.309,0 2.806,-1.224 4.155,-2.328 0.112,-0.092 0.227,-0.186 0.342,-0.279 1.35,0.659 2.903,1.421 3.868,1.894 l 0.007,7.547 10.418,6.148 10.686,-6.002 V 37.366 c 0,0 -10.479,-6.15 -10.479,-6.15 l -5.208,2.958 c -1.184,-0.583 -2.377,-1.143 -3.614,-1.765 -0.179,-0.09 -0.35,-0.287 -0.423,-0.475 -0.248,-0.644 -0.461,-1.303 -0.665,-1.962 -0.078,-0.252 -0.213,-0.404 -0.452,-0.521 -2.537,-1.252 -5.07,-2.518 -7.609,-3.771 -0.237,-0.116 -0.328,-0.222 -0.293,-0.513 0.118,-0.968 -0.491,-1.816 -1.439,-2.078 -0.856,-0.235 -1.814,0.207 -2.215,1.024 -0.393,0.801 -0.173,1.825 0.506,2.356 0.774,0.607 1.817,0.595 2.525,-0.075 0.224,-0.213 0.378,-0.203 0.626,-0.078 1.887,0.949 3.783,1.884 5.676,2.825 0.653,0.327 1.468,0.52 1.909,1.031 0.451,0.523 0.558,1.358 0.77,2.069 0.049,0.163 0.121,0.292 0.212,0.4 0.113,0.132 0.256,0.233 0.431,0.319 1.071,0.529 2.024,0.981 2.984,1.455 l 0.345,0.171 -0.007,0.005 c 0.357,0.186 0.716,0.371 1.073,0.558 0.29,0.15 0.55,0.23 0.848,0.073 0.764,-0.404 1.458,-0.287 2.178,0.176 0.642,0.414 1.354,0.719 2.047,1.078 0.107,-0.11 0.197,-0.21 0.293,-0.304 0.685,-0.67 1.715,-0.746 2.529,-0.186 0.734,0.506 1.009,1.519 0.647,2.388 -0.345,0.823 -1.3,1.309 -2.206,1.122 -0.906,-0.187 -1.572,-0.986 -1.54,-1.921 0.013,-0.344 -0.094,-0.507 -0.389,-0.649 -0.741,-0.358 -1.458,-0.766 -2.202,-1.119 -0.185,-0.089 -0.472,-0.132 -0.643,-0.05 -0.834,0.403 -1.538,0.227 -2.34,-0.2 -0.344,-0.183 -0.69,-0.364 -1.035,-0.546 l -2.64,1.499 c 4.192,2.17 8.383,4.34 12.57,6.518 0.247,0.128 0.396,0.158 0.622,-0.08 0.635,-0.676 1.714,-0.772 2.453,-0.268 0.814,0.553 1.107,1.571 0.714,2.472 -0.359,0.819 -1.33,1.297 -2.223,1.091 -0.922,-0.212 -1.577,-1.032 -1.517,-1.979 0.021,-0.316 -0.071,-0.449 -0.339,-0.587 -4.344,-2.242 -8.683,-4.491 -13.02,-6.746 l -0.019,0.011 c -0.473,-0.234 -1.002,-0.474 -2.026,-0.993 -0.287,-0.145 -0.484,-0.333 -0.512,-0.665 -0.071,-0.85 -0.539,-1.365 -1.309,-1.715 -0.686,-0.313 -1.319,-0.743 -1.986,-1.127 0.034,-0.147 0.069,-0.275 0.096,-0.405 0.192,-0.925 -0.295,-1.821 -1.194,-2.2 -0.811,-0.34 -1.799,-0.029 -2.327,0.736 -0.5,0.725 -0.395,1.777 0.242,2.43 0.639,0.653 1.657,0.781 2.417,0.255 0.279,-0.194 0.471,-0.192 0.746,-0.022 0.693,0.424 1.414,0.803 2.104,1.232 0.172,0.107 0.362,0.322 0.384,0.508 0.111,0.907 0.633,1.398 1.415,1.837 1.102,0.58 1.123,0.538 1.432,0.678 l -0.006,5.181 5.931,3.229 c 0.773,-0.822 1.813,-1.003 2.602,-0.487 0.85,0.556 1.162,1.585 0.753,2.485 -0.4,0.876 -1.343,1.327 -2.286,1.091 -1.017,-0.254 -1.512,-1.127 -1.392,-2.496 l -5.613,-3.106 v 0.023 c -0.716,-0.314 -1.331,-0.539 -1.711,-0.59 -0.622,-0.084 -1.37,0.412 -2.276,1.13 -1.038,-0.507 -1.895,-0.923 -2.167,-1.048 -0.17,-0.079 -0.203,-0.321 -0.233,-0.814 -0.035,-0.594 -0.084,-1.407 -0.883,-1.812 -0.558,-0.282 -1.319,0.177 -2.408,0.958 0.015,-2.545 -0.06,-5.05 -1.514,-5.788 -1.315,-0.667 -3.162,0.632 -5.304,2.278 -0.003,-0.047 -0.006,-0.093 -0.009,-0.14 -0.255,-3.592 -0.518,-7.307 -2.318,-8.22 -1.22,-0.62 -2.503,0.093 -3.743,0.783 -0.868,0.482 -1.765,0.982 -2.632,1.035"
         fill="#ffffff"
         id="path14" />
      <path
         d="m 34.014,62.097 -0.011,10.907 8.131,4.678 10.774,-6.145 -0.007,-9.312 -9.37,-5.643 z M 18.634,31.911 c -0.64,0 -2.515,-0.824 -4.46,-1.772 v 2.614 c 2.208,1.098 4.365,2.241 4.673,2.657 0.265,0.357 0.3,1.035 0.349,1.974 0.071,1.372 0.169,3.252 1.169,3.76 1.502,0.762 4.02,-1.143 6.273,-2.885 -0.015,-0.206 -0.03,-0.413 -0.045,-0.623 -0.228,-3.232 -0.488,-6.896 -1.919,-7.622 -0.874,-0.443 -1.887,0.119 -3.058,0.77 -0.94,0.522 -1.911,1.062 -2.943,1.126 -0.012,0.001 -0.025,0.001 -0.039,0.001 m 46.826,3.148 4.632,-2.632 v -3.174 l -14.059,-8.117 0.002,8.357 z m 1.7,18.569 2.932,1.686 V 36.036 l -2.957,1.714 z m -1.516,1.634 4.448,2.558 V 56.467 L 66.161,54.206 66.134,37.174 70.092,34.88 v -1.303 l -4.641,2.636 -10.36,-6.15 -0.054,-9.502 -12.903,-7.45 -27.96,16.142 v 0.069 c 2.224,1.092 4.027,1.879 4.455,1.86 0.866,-0.053 1.764,-0.553 2.632,-1.035 1.24,-0.69 2.523,-1.403 3.743,-0.783 1.8,0.913 2.063,4.628 2.317,8.22 0.003,0.047 0.007,0.093 0.01,0.14 2.142,-1.647 3.989,-2.945 5.303,-2.278 1.455,0.738 1.53,3.243 1.515,5.788 1.089,-0.782 1.849,-1.241 2.408,-0.958 0.798,0.405 0.847,1.218 0.883,1.811 0.03,0.494 0.063,0.735 0.233,0.814 0.272,0.126 1.129,0.542 2.166,1.049 0.906,-0.718 1.654,-1.214 2.277,-1.13 0.38,0.051 0.994,0.276 1.71,0.59 v -0.023 c 0,0 5.614,3.106 5.614,3.106 -0.12,1.369 0.374,2.242 1.392,2.496 0.942,0.236 1.885,-0.215 2.285,-1.091 0.41,-0.9 0.098,-1.929 -0.752,-2.485 -0.79,-0.516 -1.83,-0.336 -2.602,0.487 l -5.931,-3.229 0.006,-5.181 c -0.31,-0.14 -0.331,-0.098 -1.432,-0.678 -0.782,-0.439 -1.304,-0.931 -1.415,-1.838 -0.023,-0.185 -0.212,-0.4 -0.384,-0.507 -0.691,-0.429 -1.411,-0.808 -2.104,-1.232 -0.275,-0.17 -0.467,-0.172 -0.746,0.022 -0.76,0.526 -1.778,0.398 -2.417,-0.255 -0.637,-0.653 -0.743,-1.705 -0.243,-2.43 0.529,-0.765 1.517,-1.076 2.328,-0.736 0.899,0.378 1.385,1.275 1.193,2.2 -0.027,0.13 -0.062,0.258 -0.096,0.405 0.668,0.384 1.301,0.814 1.987,1.127 0.769,0.35 1.238,0.865 1.309,1.715 0.028,0.331 0.225,0.52 0.512,0.665 1.024,0.518 1.552,0.759 2.026,0.993 l 0.019,-0.011 c 4.337,2.255 8.675,4.504 13.02,6.746 0.268,0.137 0.359,0.271 0.338,0.587 -0.059,0.946 0.595,1.767 1.518,1.979 0.892,0.206 1.863,-0.272 2.222,-1.091 0.394,-0.902 0.1,-1.92 -0.713,-2.472 -0.739,-0.504 -1.818,-0.408 -2.454,0.268 -0.225,0.238 -0.375,0.208 -0.622,0.08 -4.186,-2.179 -8.378,-4.348 -12.569,-6.518 l 2.64,-1.499 c 0.345,0.182 0.691,0.363 1.035,0.546 0.801,0.427 1.506,0.602 2.34,0.2 0.171,-0.082 0.458,-0.039 0.643,0.05 0.743,0.353 1.461,0.761 2.201,1.119 0.296,0.142 0.403,0.305 0.39,0.649 -0.033,0.935 0.633,1.734 1.54,1.921 0.906,0.187 1.861,-0.299 2.205,-1.122 0.363,-0.869 0.088,-1.882 -0.646,-2.388 -0.814,-0.56 -1.845,-0.484 -2.529,0.186 -0.096,0.094 -0.186,0.194 -0.293,0.304 -0.693,-0.36 -1.405,-0.664 -2.048,-1.078 -0.719,-0.463 -1.414,-0.58 -2.177,-0.176 -0.299,0.157 -0.559,0.077 -0.848,-0.073 -0.358,-0.187 -0.716,-0.372 -1.074,-0.558 l 0.008,-0.005 C 48.387,34.528 48.272,34.471 48.156,34.414 47.197,33.94 46.244,33.488 45.172,32.959 44.998,32.873 44.855,32.772 44.742,32.64 44.65,32.532 44.578,32.403 44.529,32.24 44.318,31.529 44.211,30.694 43.76,30.171 43.319,29.66 42.504,29.467 41.851,29.14 39.957,28.199 38.062,27.264 36.175,26.315 35.927,26.19 35.773,26.18 35.548,26.393 c -0.708,0.67 -1.75,0.681 -2.524,0.075 -0.68,-0.531 -0.9,-1.555 -0.506,-2.356 0.4,-0.817 1.359,-1.259 2.214,-1.024 0.949,0.262 1.558,1.11 1.44,2.078 -0.035,0.291 0.056,0.397 0.292,0.513 2.539,1.253 5.073,2.519 7.61,3.771 0.238,0.117 0.373,0.269 0.452,0.521 0.203,0.659 0.417,1.318 0.665,1.961 0.072,0.189 0.244,0.386 0.423,0.476 1.237,0.622 2.43,1.182 3.613,1.765 l 5.209,-2.958 10.48,6.15 -0.002,17.031 -10.685,6.002 -10.418,-6.148 -0.007,-7.547 c -0.966,-0.474 -2.519,-1.235 -3.868,-1.894 -0.115,0.093 -0.23,0.186 -0.342,0.279 -1.35,1.104 -2.847,2.328 -4.156,2.328 -0.286,0 -0.563,-0.059 -0.828,-0.19 -1.089,-0.539 -1.203,-2.35 -1.2,-4.556 -1.682,1.204 -3.623,2.417 -5.11,1.662 -1.077,-0.546 -1.387,-2.622 -1.596,-5.203 -2.413,1.856 -4.855,3.587 -6.669,2.665 -1.377,-0.699 -1.483,-2.736 -1.568,-4.372 -0.032,-0.623 -0.072,-1.398 -0.206,-1.578 -0.221,-0.274 -1.898,-1.181 -4.087,-2.275 v 27.97 l 18.833,10.888 0.007,-10.906 10.515,-6.093 10.352,6.117 0.017,9.421 1.247,-0.797 -0.015,-8.814 z M 33.415,41.766 v -0.002 c 0.02,-2.382 0.043,-5.082 -1.111,-5.667 -0.985,-0.501 -2.965,0.997 -4.909,2.499 0.178,2.346 0.44,4.682 1.234,5.085 1.228,0.623 3.174,-0.741 4.786,-1.915 m 2.812,-0.84 c -0.254,-0.107 -1.319,0.655 -2.085,1.213 -0.014,1.961 0.015,4.049 0.792,4.434 1.053,0.522 2.797,-0.904 4.198,-2.05 0.027,-0.023 0.054,-0.045 0.082,-0.067 -0.895,-0.436 -1.609,-0.782 -1.848,-0.893 -0.584,-0.271 -0.621,-0.887 -0.654,-1.432 -0.037,-0.615 -0.088,-1.003 -0.485,-1.205 m 8.012,4.439 c -0.077,-0.04 -0.21,-0.109 -0.425,-0.22 l 0.007,-0.938 c -0.786,-0.359 -1.444,-0.616 -1.801,-0.664 -0.299,-0.041 -0.848,0.308 -1.449,0.764 1.032,0.505 2.14,1.048 2.999,1.469 0.154,0.094 0.432,0.248 0.907,0.497 0.18,0.094 0.35,0.297 0.42,0.489 0.241,0.655 0.446,1.326 0.641,1.996 0.075,0.256 0.209,0.412 0.448,0.535 2.549,1.311 5.092,2.637 7.643,3.949 0.238,0.122 0.328,0.231 0.288,0.526 -0.137,0.978 0.466,1.847 1.422,2.129 0.863,0.253 1.842,-0.179 2.261,-0.999 0.412,-0.805 0.207,-1.846 -0.472,-2.396 -0.774,-0.628 -1.83,-0.634 -2.558,0.033 -0.232,0.212 -0.388,0.199 -0.637,0.068 -1.895,-0.993 -3.8,-1.972 -5.7,-2.959 -0.655,-0.342 -1.477,-0.55 -1.916,-1.075 -0.448,-0.537 -0.542,-1.384 -0.744,-2.107 -0.104,-0.37 -0.321,-0.576 -0.64,-0.739 -0.451,-0.233 -0.634,-0.327 -0.694,-0.358 m 25.853,16.174 v -2.523 l -4.446,-2.599 -9.515,5.514 0.013,7.661 z"
         fill="#006165"
         id="path15" />
    </g>
  </g>
</svg>
