<?xml version="1.0" encoding="utf-8" standalone="no"?>
<!DOCTYPE svg PUBLIC "-//W3C//DTD SVG 1.1//EN"
  "http://www.w3.org/Graphics/SVG/1.1/DTD/svg11.dtd">
<svg xmlns:xlink="http://www.w3.org/1999/xlink" width="1296pt" height="1080pt" viewBox="0 0 1296 1080" xmlns="http://www.w3.org/2000/svg" version="1.1">
 <metadata>
  <rdf:RDF xmlns:dc="http://purl.org/dc/elements/1.1/" xmlns:cc="http://creativecommons.org/ns#" xmlns:rdf="http://www.w3.org/1999/02/22-rdf-syntax-ns#">
   <cc:Work>
    <dc:type rdf:resource="http://purl.org/dc/dcmitype/StillImage"/>
    <dc:date>2026-07-13T10:12:44.443819</dc:date>
    <dc:format>image/svg+xml</dc:format>
    <dc:creator>
     <cc:Agent>
      <dc:title>Matplotlib v3.10.8, https://matplotlib.org/</dc:title>
     </cc:Agent>
    </dc:creator>
   </cc:Work>
  </rdf:RDF>
 </metadata>
 <defs>
  <style type="text/css">*{stroke-linejoin: round; stroke-linecap: butt}</style>
 </defs>
 <g id="figure_1">
  <g id="patch_1">
   <path d="M 0 1080 
L 1296 1080 
L 1296 0 
L 0 0 
z
" style="fill: #ffffff"/>
  </g>
  <g id="axes_1">
   <g id="patch_2">
    <path d="M 162 374.188235 
L 1166.4 374.188235 
L 1166.4 129.6 
L 162 129.6 
z
" style="fill: #ffffff"/>
   </g>
   <g id="patch_3">
    <path d="M 316.523077 374.188235 
L 625.569231 374.188235 
L 625.569231 129.6 
L 316.523077 129.6 
z
" clip-path="url(#p88eb8bbb9f)" style="fill: #696969; opacity: 0.4; stroke: #696969; stroke-linejoin: miter"/>
   </g>
   <g id="matplotlib.axis_1">
    <g id="xtick_1">
     <g id="line2d_1">
      <path d="M 162 374.188235 
L 162 129.6 
" clip-path="url(#p88eb8bbb9f)" style="fill: none; stroke: #d3d3d3; stroke-width: 0.8; stroke-linecap: square"/>
     </g>
     <g id="line2d_2">
      <defs>
       <path id="m3324f3a6dc" d="M 0 0 
L 0 3.5 
" style="stroke: #000000; stroke-width: 0.8"/>
      </defs>
      <g>
       <use xlink:href="#m3324f3a6dc" x="162" y="374.188235" style="stroke: #000000; stroke-width: 0.8"/>
      </g>
     </g>
    </g>
    <g id="xtick_2">
     <g id="line2d_3">
      <path d="M 316.523077 374.188235 
L 316.523077 129.6 
" clip-path="url(#p88eb8bbb9f)" style="fill: none; stroke: #d3d3d3; stroke-width: 0.8; stroke-linecap: square"/>
     </g>
     <g id="line2d_4">
      <g>
       <use xlink:href="#m3324f3a6dc" x="316.523077" y="374.188235" style="stroke: #000000; stroke-width: 0.8"/>
      </g>
     </g>
    </g>
    <g id="xtick_3">
     <g id="line2d_5">
      <path d="M 471.046154 374.188235 
L 471.046154 129.6 
" clip-path="url(#p88eb8bbb9f)" style="fill: none; stroke: #d3d3d3; stroke-width: 0.8; stroke-linecap: square"/>
     </g>
     <g id="line2d_6">
      <g>
       <use xlink:href="#m3324f3a6dc" x="471.046154" y="374.188235" style="stroke: #000000; stroke-width: 0.8"/>
      </g>
     </g>
    </g>
    <g id="xtick_4">
     <g id="line2d_7">
      <path d="M 625.569231 374.188235 
L 625.569231 129.6 
" clip-path="url(#p88eb8bbb9f)" style="fill: none; stroke: #d3d3d3; stroke-width: 0.8; stroke-linecap: square"/>
     </g>
     <g id="line2d_8">
      <g>
       <use xlink:href="#m3324f3a6dc" x="625.569231" y="374.188235" style="stroke: #000000; stroke-width: 0.8"/>
      </g>
     </g>
    </g>
    <g id="xtick_5">
     <g id="line2d_9">
      <path d="M 780.092308 374.188235 
L 780.092308 129.6 
" clip-path="url(#p88eb8bbb9f)" style="fill: none; stroke: #d3d3d3; stroke-width: 0.8; stroke-linecap: square"/>
     </g>
     <g id="line2d_10">
      <g>
       <use xlink:href="#m3324f3a6dc" x="780.092308" y="374.188235" style="stroke: #000000; stroke-width: 0.8"/>
      </g>
     </g>
    </g>
    <g id="xtick_6">
     <g id="line2d_11">
      <path d="M 934.615385 374.188235 
L 934.615385 129.6 
" clip-path="url(#p88eb8bbb9f)" style="fill: none; stroke: #d3d3d3; stroke-width: 0.8; stroke-linecap: square"/>
     </g>
     <g id="line2d_12">
      <g>
       <use xlink:href="#m3324f3a6dc" x="934.615385" y="374.188235" style="stroke: #000000; stroke-width: 0.8"/>
      </g>
     </g>
    </g>
    <g id="xtick_7">
     <g id="line2d_13">
      <path d="M 1089.138462 374.188235 
L 1089.138462 129.6 
" clip-path="url(#p88eb8bbb9f)" style="fill: none; stroke: #d3d3d3; stroke-width: 0.8; stroke-linecap: square"/>
     </g>
     <g id="line2d_14">
      <g>
       <use xlink:href="#m3324f3a6dc" x="1089.138462" y="374.188235" style="stroke: #000000; stroke-width: 0.8"/>
      </g>
     </g>
    </g>
   </g>
   <g id="matplotlib.axis_2">
    <g id="ytick_1">
     <g id="line2d_15">
      <path d="M 162 348.132375 
L 1166.4 348.132375 
" clip-path="url(#p88eb8bbb9f)" style="fill: none; stroke: #d3d3d3; stroke-width: 0.8; stroke-linecap: square"/>
     </g>
     <g id="line2d_16">
      <defs>
       <path id="mbb450c4fd3" d="M 0 0 
L -3.5 0 
" style="stroke: #000000; stroke-width: 0.8"/>
      </defs>
      <g>
       <use xlink:href="#mbb450c4fd3" x="162" y="348.132375" style="stroke: #000000; stroke-width: 0.8"/>
      </g>
     </g>
     <g id="text_1">
      <!-- 0.5 -->
      <g transform="translate(126.374375 354.970968) scale(0.18 -0.18)">
       <defs>
        <path id="DejaVuSans-30" d="M 2034 4250 
Q 1547 4250 1301 3770 
Q 1056 3291 1056 2328 
Q 1056 1369 1301 889 
Q 1547 409 2034 409 
Q 2525 409 2770 889 
Q 3016 1369 3016 2328 
Q 3016 3291 2770 3770 
Q 2525 4250 2034 4250 
z
M 2034 4750 
Q 2819 4750 3233 4129 
Q 3647 3509 3647 2328 
Q 3647 1150 3233 529 
Q 2819 -91 2034 -91 
Q 1250 -91 836 529 
Q 422 1150 422 2328 
Q 422 3509 836 4129 
Q 1250 4750 2034 4750 
z
" transform="scale(0.015625)"/>
        <path id="DejaVuSans-2e" d="M 684 794 
L 1344 794 
L 1344 0 
L 684 0 
L 684 794 
z
" transform="scale(0.015625)"/>
        <path id="DejaVuSans-35" d="M 691 4666 
L 3169 4666 
L 3169 4134 
L 1269 4134 
L 1269 2991 
Q 1406 3038 1543 3061 
Q 1681 3084 1819 3084 
Q 2600 3084 3056 2656 
Q 3513 2228 3513 1497 
Q 3513 744 3044 326 
Q 2575 -91 1722 -91 
Q 1428 -91 1123 -41 
Q 819 9 494 109 
L 494 744 
Q 775 591 1075 516 
Q 1375 441 1709 441 
Q 2250 441 2565 725 
Q 2881 1009 2881 1497 
Q 2881 1984 2565 2268 
Q 2250 2553 1709 2553 
Q 1456 2553 1204 2497 
Q 953 2441 691 2322 
L 691 4666 
z
" transform="scale(0.015625)"/>
       </defs>
       <use xlink:href="#DejaVuSans-30"/>
       <use xlink:href="#DejaVuSans-2e" transform="translate(63.623047 0)"/>
       <use xlink:href="#DejaVuSans-35" transform="translate(95.410156 0)"/>
      </g>
     </g>
    </g>
    <g id="ytick_2">
     <g id="line2d_17">
      <path d="M 162 306.247188 
L 1166.4 306.247188 
" clip-path="url(#p88eb8bbb9f)" style="fill: none; stroke: #d3d3d3; stroke-width: 0.8; stroke-linecap: square"/>
     </g>
     <g id="line2d_18">
      <g>
       <use xlink:href="#mbb450c4fd3" x="162" y="306.247188" style="stroke: #000000; stroke-width: 0.8"/>
      </g>
     </g>
     <g id="text_2">
      <!-- 0.6 -->
      <g transform="translate(126.374375 313.085782) scale(0.18 -0.18)">
       <defs>
        <path id="DejaVuSans-36" d="M 2113 2584 
Q 1688 2584 1439 2293 
Q 1191 2003 1191 1497 
Q 1191 994 1439 701 
Q 1688 409 2113 409 
Q 2538 409 2786 701 
Q 3034 994 3034 1497 
Q 3034 2003 2786 2293 
Q 2538 2584 2113 2584 
z
M 3366 4563 
L 3366 3988 
Q 3128 4100 2886 4159 
Q 2644 4219 2406 4219 
Q 1781 4219 1451 3797 
Q 1122 3375 1075 2522 
Q 1259 2794 1537 2939 
Q 1816 3084 2150 3084 
Q 2853 3084 3261 2657 
Q 3669 2231 3669 1497 
Q 3669 778 3244 343 
Q 2819 -91 2113 -91 
Q 1303 -91 875 529 
Q 447 1150 447 2328 
Q 447 3434 972 4092 
Q 1497 4750 2381 4750 
Q 2619 4750 2861 4703 
Q 3103 4656 3366 4563 
z
" transform="scale(0.015625)"/>
       </defs>
       <use xlink:href="#DejaVuSans-30"/>
       <use xlink:href="#DejaVuSans-2e" transform="translate(63.623047 0)"/>
       <use xlink:href="#DejaVuSans-36" transform="translate(95.410156 0)"/>
      </g>
     </g>
    </g>
    <g id="ytick_3">
     <g id="line2d_19">
      <path d="M 162 264.362002 
L 1166.4 264.362002 
" clip-path="url(#p88eb8bbb9f)" style="fill: none; stroke: #d3d3d3; stroke-width: 0.8; stroke-linecap: square"/>
     </g>
     <g id="line2d_20">
      <g>
       <use xlink:href="#mbb450c4fd3" x="162" y="264.362002" style="stroke: #000000; stroke-width: 0.8"/>
      </g>
     </g>
     <g id="text_3">
      <!-- 0.7 -->
      <g transform="translate(126.374375 271.200595) scale(0.18 -0.18)">
       <defs>
        <path id="DejaVuSans-37" d="M 525 4666 
L 3525 4666 
L 3525 4397 
L 1831 0 
L 1172 0 
L 2766 4134 
L 525 4134 
L 525 4666 
z
" transform="scale(0.015625)"/>
       </defs>
       <use xlink:href="#DejaVuSans-30"/>
       <use xlink:href="#DejaVuSans-2e" transform="translate(63.623047 0)"/>
       <use xlink:href="#DejaVuSans-37" transform="translate(95.410156 0)"/>
      </g>
     </g>
    </g>
    <g id="ytick_4">
     <g id="line2d_21">
      <path d="M 162 222.476815 
L 1166.4 222.476815 
" clip-path="url(#p88eb8bbb9f)" style="fill: none; stroke: #d3d3d3; stroke-width: 0.8; stroke-linecap: square"/>
     </g>
     <g id="line2d_22">
      <g>
       <use xlink:href="#mbb450c4fd3" x="162" y="222.476815" style="stroke: #000000; stroke-width: 0.8"/>
      </g>
     </g>
     <g id="text_4">
      <!-- 0.8 -->
      <g transform="translate(126.374375 229.315409) scale(0.18 -0.18)">
       <defs>
        <path id="DejaVuSans-38" d="M 2034 2216 
Q 1584 2216 1326 1975 
Q 1069 1734 1069 1313 
Q 1069 891 1326 650 
Q 1584 409 2034 409 
Q 2484 409 2743 651 
Q 3003 894 3003 1313 
Q 3003 1734 2745 1975 
Q 2488 2216 2034 2216 
z
M 1403 2484 
Q 997 2584 770 2862 
Q 544 3141 544 3541 
Q 544 4100 942 4425 
Q 1341 4750 2034 4750 
Q 2731 4750 3128 4425 
Q 3525 4100 3525 3541 
Q 3525 3141 3298 2862 
Q 3072 2584 2669 2484 
Q 3125 2378 3379 2068 
Q 3634 1759 3634 1313 
Q 3634 634 3220 271 
Q 2806 -91 2034 -91 
Q 1263 -91 848 271 
Q 434 634 434 1313 
Q 434 1759 690 2068 
Q 947 2378 1403 2484 
z
M 1172 3481 
Q 1172 3119 1398 2916 
Q 1625 2713 2034 2713 
Q 2441 2713 2670 2916 
Q 2900 3119 2900 3481 
Q 2900 3844 2670 4047 
Q 2441 4250 2034 4250 
Q 1625 4250 1398 4047 
Q 1172 3844 1172 3481 
z
" transform="scale(0.015625)"/>
       </defs>
       <use xlink:href="#DejaVuSans-30"/>
       <use xlink:href="#DejaVuSans-2e" transform="translate(63.623047 0)"/>
       <use xlink:href="#DejaVuSans-38" transform="translate(95.410156 0)"/>
      </g>
     </g>
    </g>
    <g id="ytick_5">
     <g id="line2d_23">
      <path d="M 162 180.591628 
L 1166.4 180.591628 
" clip-path="url(#p88eb8bbb9f)" style="fill: none; stroke: #d3d3d3; stroke-width: 0.8; stroke-linecap: square"/>
     </g>
     <g id="line2d_24">
      <g>
       <use xlink:href="#mbb450c4fd3" x="162" y="180.591628" style="stroke: #000000; stroke-width: 0.8"/>
      </g>
     </g>
     <g id="text_5">
      <!-- 0.9 -->
      <g transform="translate(126.374375 187.430222) scale(0.18 -0.18)">
       <defs>
        <path id="DejaVuSans-39" d="M 703 97 
L 703 672 
Q 941 559 1184 500 
Q 1428 441 1663 441 
Q 2288 441 2617 861 
Q 2947 1281 2994 2138 
Q 2813 1869 2534 1725 
Q 2256 1581 1919 1581 
Q 1219 1581 811 2004 
Q 403 2428 403 3163 
Q 403 3881 828 4315 
Q 1253 4750 1959 4750 
Q 2769 4750 3195 4129 
Q 3622 3509 3622 2328 
Q 3622 1225 3098 567 
Q 2575 -91 1691 -91 
Q 1453 -91 1209 -44 
Q 966 3 703 97 
z
M 1959 2075 
Q 2384 2075 2632 2365 
Q 2881 2656 2881 3163 
Q 2881 3666 2632 3958 
Q 2384 4250 1959 4250 
Q 1534 4250 1286 3958 
Q 1038 3666 1038 3163 
Q 1038 2656 1286 2365 
Q 1534 2075 1959 2075 
z
" transform="scale(0.015625)"/>
       </defs>
       <use xlink:href="#DejaVuSans-30"/>
       <use xlink:href="#DejaVuSans-2e" transform="translate(63.623047 0)"/>
       <use xlink:href="#DejaVuSans-39" transform="translate(95.410156 0)"/>
      </g>
     </g>
    </g>
    <g id="ytick_6">
     <g id="line2d_25">
      <path d="M 162 138.706442 
L 1166.4 138.706442 
" clip-path="url(#p88eb8bbb9f)" style="fill: none; stroke: #d3d3d3; stroke-width: 0.8; stroke-linecap: square"/>
     </g>
     <g id="line2d_26">
      <g>
       <use xlink:href="#mbb450c4fd3" x="162" y="138.706442" style="stroke: #000000; stroke-width: 0.8"/>
      </g>
     </g>
     <g id="text_6">
      <!-- 1.0 -->
      <g transform="translate(126.374375 145.545036) scale(0.18 -0.18)">
       <defs>
        <path id="DejaVuSans-31" d="M 794 531 
L 1825 531 
L 1825 4091 
L 703 3866 
L 703 4441 
L 1819 4666 
L 2450 4666 
L 2450 531 
L 3481 531 
L 3481 0 
L 794 0 
L 794 531 
z
" transform="scale(0.015625)"/>
       </defs>
       <use xlink:href="#DejaVuSans-31"/>
       <use xlink:href="#DejaVuSans-2e" transform="translate(63.623047 0)"/>
       <use xlink:href="#DejaVuSans-30" transform="translate(95.410156 0)"/>
      </g>
     </g>
    </g>
    <g id="text_7">
     <!-- Int. free [PO4$^{3−}$] (mM) -->
     <g transform="translate(119.462812 331.414118) rotate(-90) scale(0.14 -0.14)">
      <defs>
       <path id="DejaVuSans-49" d="M 628 4666 
L 1259 4666 
L 1259 0 
L 628 0 
L 628 4666 
z
" transform="scale(0.015625)"/>
       <path id="DejaVuSans-6e" d="M 3513 2113 
L 3513 0 
L 2938 0 
L 2938 2094 
Q 2938 2591 2744 2837 
Q 2550 3084 2163 3084 
Q 1697 3084 1428 2787 
Q 1159 2491 1159 1978 
L 1159 0 
L 581 0 
L 581 3500 
L 1159 3500 
L 1159 2956 
Q 1366 3272 1645 3428 
Q 1925 3584 2291 3584 
Q 2894 3584 3203 3211 
Q 3513 2838 3513 2113 
z
" transform="scale(0.015625)"/>
       <path id="DejaVuSans-74" d="M 1172 4494 
L 1172 3500 
L 2356 3500 
L 2356 3053 
L 1172 3053 
L 1172 1153 
Q 1172 725 1289 603 
Q 1406 481 1766 481 
L 2356 481 
L 2356 0 
L 1766 0 
Q 1100 0 847 248 
Q 594 497 594 1153 
L 594 3053 
L 172 3053 
L 172 3500 
L 594 3500 
L 594 4494 
L 1172 4494 
z
" transform="scale(0.015625)"/>
       <path id="DejaVuSans-20" transform="scale(0.015625)"/>
       <path id="DejaVuSans-66" d="M 2375 4863 
L 2375 4384 
L 1825 4384 
Q 1516 4384 1395 4259 
Q 1275 4134 1275 3809 
L 1275 3500 
L 2222 3500 
L 2222 3053 
L 1275 3053 
L 1275 0 
L 697 0 
L 697 3053 
L 147 3053 
L 147 3500 
L 697 3500 
L 697 3744 
Q 697 4328 969 4595 
Q 1241 4863 1831 4863 
L 2375 4863 
z
" transform="scale(0.015625)"/>
       <path id="DejaVuSans-72" d="M 2631 2963 
Q 2534 3019 2420 3045 
Q 2306 3072 2169 3072 
Q 1681 3072 1420 2755 
Q 1159 2438 1159 1844 
L 1159 0 
L 581 0 
L 581 3500 
L 1159 3500 
L 1159 2956 
Q 1341 3275 1631 3429 
Q 1922 3584 2338 3584 
Q 2397 3584 2469 3576 
Q 2541 3569 2628 3553 
L 2631 2963 
z
" transform="scale(0.015625)"/>
       <path id="DejaVuSans-65" d="M 3597 1894 
L 3597 1613 
L 953 1613 
Q 991 1019 1311 708 
Q 1631 397 2203 397 
Q 2534 397 2845 478 
Q 3156 559 3463 722 
L 3463 178 
Q 3153 47 2828 -22 
Q 2503 -91 2169 -91 
Q 1331 -91 842 396 
Q 353 884 353 1716 
Q 353 2575 817 3079 
Q 1281 3584 2069 3584 
Q 2775 3584 3186 3129 
Q 3597 2675 3597 1894 
z
M 3022 2063 
Q 3016 2534 2758 2815 
Q 2500 3097 2075 3097 
Q 1594 3097 1305 2825 
Q 1016 2553 972 2059 
L 3022 2063 
z
" transform="scale(0.015625)"/>
       <path id="DejaVuSans-5b" d="M 550 4863 
L 1875 4863 
L 1875 4416 
L 1125 4416 
L 1125 -397 
L 1875 -397 
L 1875 -844 
L 550 -844 
L 550 4863 
z
" transform="scale(0.015625)"/>
       <path id="DejaVuSans-50" d="M 1259 4147 
L 1259 2394 
L 2053 2394 
Q 2494 2394 2734 2622 
Q 2975 2850 2975 3272 
Q 2975 3691 2734 3919 
Q 2494 4147 2053 4147 
L 1259 4147 
z
M 628 4666 
L 2053 4666 
Q 2838 4666 3239 4311 
Q 3641 3956 3641 3272 
Q 3641 2581 3239 2228 
Q 2838 1875 2053 1875 
L 1259 1875 
L 1259 0 
L 628 0 
L 628 4666 
z
" transform="scale(0.015625)"/>
       <path id="DejaVuSans-4f" d="M 2522 4238 
Q 1834 4238 1429 3725 
Q 1025 3213 1025 2328 
Q 1025 1447 1429 934 
Q 1834 422 2522 422 
Q 3209 422 3611 934 
Q 4013 1447 4013 2328 
Q 4013 3213 3611 3725 
Q 3209 4238 2522 4238 
z
M 2522 4750 
Q 3503 4750 4090 4092 
Q 4678 3434 4678 2328 
Q 4678 1225 4090 567 
Q 3503 -91 2522 -91 
Q 1538 -91 948 565 
Q 359 1222 359 2328 
Q 359 3434 948 4092 
Q 1538 4750 2522 4750 
z
" transform="scale(0.015625)"/>
       <path id="DejaVuSans-34" d="M 2419 4116 
L 825 1625 
L 2419 1625 
L 2419 4116 
z
M 2253 4666 
L 3047 4666 
L 3047 1625 
L 3713 1625 
L 3713 1100 
L 3047 1100 
L 3047 0 
L 2419 0 
L 2419 1100 
L 313 1100 
L 313 1709 
L 2253 4666 
z
" transform="scale(0.015625)"/>
       <path id="DejaVuSans-33" d="M 2597 2516 
Q 3050 2419 3304 2112 
Q 3559 1806 3559 1356 
Q 3559 666 3084 287 
Q 2609 -91 1734 -91 
Q 1441 -91 1130 -33 
Q 819 25 488 141 
L 488 750 
Q 750 597 1062 519 
Q 1375 441 1716 441 
Q 2309 441 2620 675 
Q 2931 909 2931 1356 
Q 2931 1769 2642 2001 
Q 2353 2234 1838 2234 
L 1294 2234 
L 1294 2753 
L 1863 2753 
Q 2328 2753 2575 2939 
Q 2822 3125 2822 3475 
Q 2822 3834 2567 4026 
Q 2313 4219 1838 4219 
Q 1578 4219 1281 4162 
Q 984 4106 628 3988 
L 628 4550 
Q 988 4650 1302 4700 
Q 1616 4750 1894 4750 
Q 2613 4750 3031 4423 
Q 3450 4097 3450 3541 
Q 3450 3153 3228 2886 
Q 3006 2619 2597 2516 
z
" transform="scale(0.015625)"/>
       <path id="DejaVuSans-2212" d="M 678 2272 
L 4684 2272 
L 4684 1741 
L 678 1741 
L 678 2272 
z
" transform="scale(0.015625)"/>
       <path id="DejaVuSans-5d" d="M 1947 4863 
L 1947 -844 
L 622 -844 
L 622 -397 
L 1369 -397 
L 1369 4416 
L 622 4416 
L 622 4863 
L 1947 4863 
z
" transform="scale(0.015625)"/>
       <path id="DejaVuSans-28" d="M 1984 4856 
Q 1566 4138 1362 3434 
Q 1159 2731 1159 2009 
Q 1159 1288 1364 580 
Q 1569 -128 1984 -844 
L 1484 -844 
Q 1016 -109 783 600 
Q 550 1309 550 2009 
Q 550 2706 781 3412 
Q 1013 4119 1484 4856 
L 1984 4856 
z
" transform="scale(0.015625)"/>
       <path id="DejaVuSans-6d" d="M 3328 2828 
Q 3544 3216 3844 3400 
Q 4144 3584 4550 3584 
Q 5097 3584 5394 3201 
Q 5691 2819 5691 2113 
L 5691 0 
L 5113 0 
L 5113 2094 
Q 5113 2597 4934 2840 
Q 4756 3084 4391 3084 
Q 3944 3084 3684 2787 
Q 3425 2491 3425 1978 
L 3425 0 
L 2847 0 
L 2847 2094 
Q 2847 2600 2669 2842 
Q 2491 3084 2119 3084 
Q 1678 3084 1418 2786 
Q 1159 2488 1159 1978 
L 1159 0 
L 581 0 
L 581 3500 
L 1159 3500 
L 1159 2956 
Q 1356 3278 1631 3431 
Q 1906 3584 2284 3584 
Q 2666 3584 2933 3390 
Q 3200 3197 3328 2828 
z
" transform="scale(0.015625)"/>
       <path id="DejaVuSans-4d" d="M 628 4666 
L 1569 4666 
L 2759 1491 
L 3956 4666 
L 4897 4666 
L 4897 0 
L 4281 0 
L 4281 4097 
L 3078 897 
L 2444 897 
L 1241 4097 
L 1241 0 
L 628 0 
L 628 4666 
z
" transform="scale(0.015625)"/>
       <path id="DejaVuSans-29" d="M 513 4856 
L 1013 4856 
Q 1481 4119 1714 3412 
Q 1947 2706 1947 2009 
Q 1947 1309 1714 600 
Q 1481 -109 1013 -844 
L 513 -844 
Q 928 -128 1133 580 
Q 1338 1288 1338 2009 
Q 1338 2731 1133 3434 
Q 928 4138 513 4856 
z
" transform="scale(0.015625)"/>
      </defs>
      <use xlink:href="#DejaVuSans-49" transform="translate(0 0.765625)"/>
      <use xlink:href="#DejaVuSans-6e" transform="translate(29.492188 0.765625)"/>
      <use xlink:href="#DejaVuSans-74" transform="translate(92.871094 0.765625)"/>
      <use xlink:href="#DejaVuSans-2e" transform="translate(132.080078 0.765625)"/>
      <use xlink:href="#DejaVuSans-20" transform="translate(163.867188 0.765625)"/>
      <use xlink:href="#DejaVuSans-66" transform="translate(195.654297 0.765625)"/>
      <use xlink:href="#DejaVuSans-72" transform="translate(230.859375 0.765625)"/>
      <use xlink:href="#DejaVuSans-65" transform="translate(271.972656 0.765625)"/>
      <use xlink:href="#DejaVuSans-65" transform="translate(333.496094 0.765625)"/>
      <use xlink:href="#DejaVuSans-20" transform="translate(395.019531 0.765625)"/>
      <use xlink:href="#DejaVuSans-5b" transform="translate(426.806641 0.765625)"/>
      <use xlink:href="#DejaVuSans-50" transform="translate(465.820312 0.765625)"/>
      <use xlink:href="#DejaVuSans-4f" transform="translate(526.123047 0.765625)"/>
      <use xlink:href="#DejaVuSans-34" transform="translate(604.833984 0.765625)"/>
      <use xlink:href="#DejaVuSans-33" transform="translate(669.414062 39.046875) scale(0.7)"/>
      <use xlink:href="#DejaVuSans-2212" transform="translate(727.587891 39.046875) scale(0.7)"/>
      <use xlink:href="#DejaVuSans-5d" transform="translate(802.612305 0.765625)"/>
      <use xlink:href="#DejaVuSans-20" transform="translate(841.625977 0.765625)"/>
      <use xlink:href="#DejaVuSans-28" transform="translate(873.413086 0.765625)"/>
      <use xlink:href="#DejaVuSans-6d" transform="translate(912.426758 0.765625)"/>
      <use xlink:href="#DejaVuSans-4d" transform="translate(1009.838867 0.765625)"/>
      <use xlink:href="#DejaVuSans-29" transform="translate(1096.118164 0.765625)"/>
     </g>
    </g>
   </g>
   <g id="patch_4">
    <path d="M 162 374.188235 
L 162 129.6 
" style="fill: none; stroke: #000000; stroke-width: 0.8; stroke-linejoin: miter; stroke-linecap: square"/>
   </g>
   <g id="patch_5">
    <path d="M 1166.4 374.188235 
L 1166.4 129.6 
" style="fill: none; stroke: #000000; stroke-width: 0.8; stroke-linejoin: miter; stroke-linecap: square"/>
   </g>
   <g id="patch_6">
    <path d="M 162 374.188235 
L 1166.4 374.188235 
" style="fill: none; stroke: #000000; stroke-width: 0.8; stroke-linejoin: miter; stroke-linecap: square"/>
   </g>
   <g id="patch_7">
    <path d="M 162 129.6 
L 1166.4 129.6 
" style="fill: none; stroke: #000000; stroke-width: 0.8; stroke-linejoin: miter; stroke-linecap: square"/>
   </g>
   <g id="text_8">
    <g id="patch_8">
     <path d="M 228.535385 115.506342 
L 242.893197 115.506342 
L 242.893197 94.989155 
L 228.535385 94.989155 
z
" style="fill: #ffffff; opacity: 0.5; stroke: #000000; stroke-linejoin: miter"/>
    </g>
    <!-- L -->
    <g transform="translate(231.535385 109.386811) scale(0.15 -0.15)">
     <defs>
      <path id="DejaVuSans-4c" d="M 628 4666 
L 1259 4666 
L 1259 531 
L 3531 531 
L 3531 0 
L 628 0 
L 628 4666 
z
" transform="scale(0.015625)"/>
     </defs>
     <use xlink:href="#DejaVuSans-4c"/>
    </g>
   </g>
   <g id="text_9">
    <g id="patch_9">
     <path d="M 452.593846 115.506342 
L 470.143846 115.506342 
L 470.143846 94.989155 
L 452.593846 94.989155 
z
" style="fill: #ffffff; opacity: 0.5; stroke: #000000; stroke-linejoin: miter"/>
    </g>
    <!-- D -->
    <g transform="translate(455.593846 109.386811) scale(0.15 -0.15)">
     <defs>
      <path id="DejaVuSans-44" d="M 1259 4147 
L 1259 519 
L 2022 519 
Q 2988 519 3436 956 
Q 3884 1394 3884 2338 
Q 3884 3275 3436 3711 
Q 2988 4147 2022 4147 
L 1259 4147 
z
M 628 4666 
L 1925 4666 
Q 3281 4666 3915 4102 
Q 4550 3538 4550 2338 
Q 4550 1131 3912 565 
Q 3275 0 1925 0 
L 628 0 
L 628 4666 
z
" transform="scale(0.015625)"/>
     </defs>
     <use xlink:href="#DejaVuSans-44"/>
    </g>
   </g>
   <g id="text_10">
    <g id="patch_10">
     <path d="M 761.64 115.506342 
L 775.997813 115.506342 
L 775.997813 94.989155 
L 761.64 94.989155 
z
" style="fill: #ffffff; opacity: 0.5; stroke: #000000; stroke-linejoin: miter"/>
    </g>
    <!-- L -->
    <g transform="translate(764.64 109.386811) scale(0.15 -0.15)">
     <use xlink:href="#DejaVuSans-4c"/>
    </g>
   </g>
   <g id="line2d_27">
    <path d="M -1 167.584659 
L 26.206993 167.741484 
L 82.397203 167.760707 
L 316.523077 167.525142 
L 318.068308 163.498649 
L 319.613538 161.29531 
L 321.158769 159.814702 
L 322.704 158.686792 
L 324.249231 157.763746 
L 327.339692 156.285677 
L 330.430154 155.124775 
L 333.520615 154.190791 
L 336.611077 153.440555 
L 341.246769 152.603422 
L 345.882462 152.059571 
L 350.518154 151.766636 
L 355.153846 151.693229 
L 359.789538 151.814136 
L 365.970462 152.239462 
L 372.151385 152.919934 
L 379.877538 154.044445 
L 393.784615 156.30976 
L 432.415385 154.316333 
L 449.412923 153.704093 
L 466.410462 153.325062 
L 486.498462 153.114356 
L 520.493538 153.018853 
L 664.2 153.002514 
L 1089.138462 153.000625 
L 1089.138462 153.000625 
" clip-path="url(#p88eb8bbb9f)" style="fill: none; stroke-dasharray: 12.8,3.2,2,3.2; stroke-dashoffset: 0; stroke: #4169e1; stroke-width: 2"/>
   </g>
   <g id="line2d_28">
    <path d="M -1 199.958074 
L 133.904895 199.605912 
L 316.523077 199.286388 
L 318.068308 188.885229 
L 319.613538 183.557719 
L 321.158769 179.58887 
L 322.704 176.230167 
L 324.249231 173.250388 
L 325.794462 170.562129 
L 327.339692 168.126383 
L 328.884923 165.920013 
L 330.430154 163.924192 
L 331.975385 162.121038 
L 335.065846 159.02363 
L 338.156308 156.497851 
L 341.246769 154.430939 
L 344.337231 152.729076 
L 347.427692 151.316046 
L 350.518154 150.130818 
L 355.153846 148.677275 
L 359.789538 147.509139 
L 364.425231 146.545496 
L 370.606154 145.492568 
L 376.787077 144.645441 
L 384.513231 143.833733 
L 392.239385 143.28537 
L 399.965538 143.006441 
L 406.146462 142.984973 
L 412.327385 143.149018 
L 418.508308 143.50329 
L 424.689231 144.051029 
L 430.870154 144.7935 
L 437.051077 145.729273 
L 443.232 146.853204 
L 450.958154 148.506475 
L 458.684308 150.401364 
L 469.500923 153.338241 
L 478.772308 155.898433 
L 480.317538 156.201011 
L 523.584 154.056573 
L 540.581538 153.532566 
L 557.579077 153.234342 
L 580.757538 153.067802 
L 628.659692 153.006859 
L 1089.138462 153.000892 
L 1089.138462 153.000892 
" clip-path="url(#p88eb8bbb9f)" style="fill: none; stroke-dasharray: 12.8,3.2,2,3.2; stroke-dashoffset: 0; stroke: #228b22; stroke-width: 2"/>
   </g>
   <g id="line2d_29">
    <path d="M -1 273.286579 
L 16.841958 274.332003 
L 35.572028 275.206265 
L 58.984615 276.074624 
L 87.07972 276.877955 
L 119.857343 277.573291 
L 157.317483 278.134354 
L 204.142657 278.590401 
L 260.332867 278.905855 
L 316.523077 279.071549 
L 318.068308 260.358531 
L 319.613538 250.922338 
L 321.158769 243.756556 
L 322.704 237.57966 
L 324.249231 232.054603 
L 325.794462 227.050776 
L 327.339692 222.501549 
L 328.884923 218.364859 
L 330.430154 214.608891 
L 331.975385 211.205856 
L 333.520615 208.129137 
L 335.065846 205.352217 
L 336.611077 202.848613 
L 338.156308 200.592306 
L 339.701538 198.558296 
L 341.246769 196.723049 
L 344.337231 193.563448 
L 347.427692 190.960591 
L 350.518154 188.788396 
L 353.608615 186.944217 
L 356.699077 185.345542 
L 361.334769 183.269013 
L 365.970462 181.43973 
L 373.696615 178.673045 
L 387.603692 174.010095 
L 403.056 169.036306 
L 416.963077 164.792687 
L 429.324923 161.245831 
L 441.686769 157.923411 
L 454.048615 154.831687 
L 466.410462 151.979785 
L 477.227077 149.692494 
L 488.043692 147.61363 
L 498.860308 145.760459 
L 509.676923 144.153873 
L 518.948308 142.991602 
L 528.219692 142.046193 
L 537.491077 141.337356 
L 546.762462 140.886734 
L 554.488615 140.725247 
L 562.214769 140.773395 
L 569.940923 141.045525 
L 577.667077 141.555602 
L 585.393231 142.316306 
L 593.119385 143.337672 
L 600.845538 144.625106 
L 608.571692 146.17656 
L 616.297846 147.978602 
L 624.024 150.000981 
L 625.569231 150.427625 
L 627.114462 157.693585 
L 636.385846 157.155041 
L 696.649846 154.097105 
L 713.647385 153.554964 
L 730.644923 153.244316 
L 753.823385 153.070007 
L 800.180308 153.006624 
L 1089.138462 153.000879 
L 1089.138462 153.000879 
" clip-path="url(#p88eb8bbb9f)" style="fill: none; stroke-dasharray: 12.8,3.2,2,3.2; stroke-dashoffset: 0; stroke: #cd5c5c; stroke-width: 2"/>
   </g>
   <g id="line2d_30">
    <path d="M -1 317.941843 
L 7.476923 321.320943 
L 16.841958 324.678189 
L 26.206993 327.677757 
L 35.572028 330.3492 
L 44.937063 332.721979 
L 54.302098 334.824751 
L 63.667133 336.684859 
L 73.032168 338.327994 
L 82.397203 339.777989 
L 91.762238 341.056728 
L 105.80979 342.696771 
L 119.857343 344.055034 
L 133.904895 345.181666 
L 147.952448 346.118693 
L 166.682517 347.132542 
L 185.412587 347.936887 
L 208.825175 348.723756 
L 236.92028 349.440557 
L 274.38042 350.14477 
L 316.523077 350.729172 
L 318.068308 348.163604 
L 319.613538 335.399351 
L 321.158769 325.019943 
L 322.704 315.560031 
L 324.249231 306.854745 
L 325.794462 298.992019 
L 327.339692 292.243649 
L 328.884923 286.422877 
L 330.430154 281.295298 
L 331.975385 276.751239 
L 333.520615 272.715367 
L 335.065846 269.125472 
L 336.611077 265.926771 
L 338.156308 263.07023 
L 339.701538 260.511945 
L 341.246769 258.212751 
L 342.792 256.137839 
L 345.882462 252.541049 
L 348.972923 249.515436 
L 352.063385 246.900874 
L 355.153846 244.574277 
L 359.789538 241.428319 
L 365.970462 237.572311 
L 376.787077 231.14191 
L 386.058462 225.821628 
L 393.784615 221.620938 
L 401.510769 217.658742 
L 410.782154 213.189168 
L 420.053538 208.978837 
L 430.870154 204.329844 
L 443.232 199.295085 
L 455.593846 194.503205 
L 469.500923 189.356802 
L 483.408 184.436832 
L 498.860308 179.21121 
L 514.312615 174.226412 
L 529.764923 169.480682 
L 545.217231 164.982088 
L 559.124308 161.158349 
L 573.031385 157.566275 
L 585.393231 154.586734 
L 597.755077 151.829271 
L 610.116923 149.318414 
L 620.933538 147.34637 
L 625.569231 146.571237 
L 627.114462 183.700625 
L 630.204923 185.348429 
L 634.840615 187.484079 
L 642.566769 191.042993 
L 648.747692 194.144854 
L 654.928615 197.500882 
L 661.109538 201.113362 
L 667.290462 204.978763 
L 673.471385 209.088191 
L 679.652308 213.427377 
L 687.378462 219.144139 
L 695.104615 225.139827 
L 704.376 232.618631 
L 718.283077 244.172152 
L 736.825846 259.560524 
L 746.097231 266.993972 
L 755.368615 274.130607 
L 763.094769 279.801304 
L 770.820923 285.189452 
L 778.547077 290.275511 
L 786.273231 295.048288 
L 793.999385 299.503854 
L 801.725538 303.644349 
L 809.451692 307.476801 
L 817.177846 311.012005 
L 824.904 314.263519 
L 832.630154 317.246793 
L 840.356308 319.978437 
L 848.082462 322.475622 
L 855.808615 324.755611 
L 863.534769 326.835387 
L 872.806154 329.089929 
L 882.077538 331.106758 
L 891.348923 332.910995 
L 902.165538 334.777963 
L 912.982154 336.420102 
L 925.344 338.059097 
L 937.705846 339.481004 
L 951.612923 340.861762 
L 967.065231 342.169762 
L 984.062769 343.384218 
L 1004.150769 344.578243 
L 1025.784 345.636585 
L 1050.507692 346.626868 
L 1079.867077 347.578154 
L 1089.138462 347.838979 
L 1089.138462 347.838979 
" clip-path="url(#p88eb8bbb9f)" style="fill: none; stroke-dasharray: 12.8,3.2,2,3.2; stroke-dashoffset: 0; stroke: #ff8c00; stroke-width: 2"/>
   </g>
   <g id="line2d_31">
    <path d="M -1 322.636171 
L 7.476923 326.485958 
L 16.841958 330.358909 
L 26.206993 333.862901 
L 35.572028 337.02155 
L 44.937063 339.859483 
L 54.302098 342.401616 
L 63.667133 344.672585 
L 73.032168 346.696309 
L 82.397203 348.495672 
L 91.762238 350.092304 
L 101.127273 351.506437 
L 110.492308 352.756839 
L 124.53986 354.362825 
L 138.587413 355.691061 
L 152.634965 356.786619 
L 166.682517 357.688088 
L 185.412587 358.644017 
L 204.142657 359.376394 
L 227.555245 360.053248 
L 255.65035 360.611741 
L 288.427972 361.026881 
L 316.523077 361.250107 
L 318.068308 363.070588 
L 319.613538 359.939241 
L 322.704 347.576501 
L 325.794462 325.560993 
L 327.339692 316.708247 
L 328.884923 309.156698 
L 330.430154 302.465191 
L 331.975385 296.532112 
L 333.520615 291.26875 
L 335.065846 286.590318 
L 336.611077 282.418679 
L 338.156308 278.684106 
L 339.701538 275.325589 
L 341.246769 272.29032 
L 342.792 269.532842 
L 345.882462 264.700616 
L 348.972923 260.578235 
L 352.063385 256.980545 
L 355.153846 253.770556 
L 358.244308 250.847188 
L 362.88 246.843878 
L 367.515692 243.15799 
L 373.696615 238.580339 
L 379.877538 234.295034 
L 386.058462 230.26159 
L 392.239385 226.462082 
L 398.420308 222.880136 
L 406.146462 218.676661 
L 413.872615 214.733277 
L 423.144 210.278902 
L 432.415385 206.0623 
L 443.232 201.370498 
L 455.593846 196.233052 
L 469.500923 190.692466 
L 483.408 185.401664 
L 497.315077 180.359468 
L 511.222154 175.559555 
L 525.129231 170.999151 
L 539.036308 166.682278 
L 552.943385 162.619987 
L 565.305231 159.237124 
L 577.667077 156.086689 
L 588.483692 153.537697 
L 599.300308 151.200816 
L 610.116923 149.096646 
L 619.388308 147.496256 
L 625.569231 146.542314 
L 627.114462 180.901937 
L 631.750154 182.928394 
L 642.566769 187.293881 
L 648.747692 190.061405 
L 654.928615 193.077273 
L 661.109538 196.348885 
L 667.290462 199.879189 
L 673.471385 203.666599 
L 679.652308 207.704221 
L 685.833231 211.980754 
L 693.559385 217.637291 
L 701.285538 223.599206 
L 710.556923 231.082136 
L 721.373538 240.131715 
L 756.913846 270.152581 
L 766.185231 277.577241 
L 775.456615 284.687616 
L 783.182769 290.33806 
L 790.908923 295.717471 
L 798.635077 300.812933 
L 806.361231 305.617282 
L 814.087385 310.128274 
L 821.813538 314.347778 
L 829.539692 318.281026 
L 837.265846 321.935926 
L 844.992 325.322458 
L 852.718154 328.452145 
L 860.444308 331.33759 
L 868.170462 333.992097 
L 875.896615 336.429342 
L 883.622769 338.663106 
L 892.894154 341.094264 
L 902.165538 343.275152 
L 911.436923 345.227939 
L 920.708308 346.973672 
L 931.524923 348.77497 
L 942.341538 350.350367 
L 954.703385 351.908075 
L 967.065231 353.24074 
L 980.972308 354.509867 
L 996.424615 355.679362 
L 1013.422154 356.724932 
L 1031.964923 357.633946 
L 1053.598154 358.455675 
L 1078.321846 359.157211 
L 1089.138462 359.402326 
L 1089.138462 359.402326 
" clip-path="url(#p88eb8bbb9f)" style="fill: none; stroke-dasharray: 12.8,3.2,2,3.2; stroke-dashoffset: 0; stroke: #000000; stroke-width: 2"/>
   </g>
  </g>
  <g id="axes_2">
   <g id="patch_11">
    <path d="M 162 667.694118 
L 1166.4 667.694118 
L 1166.4 423.105882 
L 162 423.105882 
z
" style="fill: #ffffff"/>
   </g>
   <g id="patch_12">
    <path d="M 316.523077 667.694118 
L 625.569231 667.694118 
L 625.569231 423.105882 
L 316.523077 423.105882 
z
" clip-path="url(#p329cc4522b)" style="fill: #696969; opacity: 0.4; stroke: #696969; stroke-linejoin: miter"/>
   </g>
   <g id="matplotlib.axis_3">
    <g id="xtick_8">
     <g id="line2d_32">
      <path d="M 162 667.694118 
L 162 423.105882 
" clip-path="url(#p329cc4522b)" style="fill: none; stroke: #d3d3d3; stroke-width: 0.8; stroke-linecap: square"/>
     </g>
     <g id="line2d_33">
      <g>
       <use xlink:href="#m3324f3a6dc" x="162" y="667.694118" style="stroke: #000000; stroke-width: 0.8"/>
      </g>
     </g>
    </g>
    <g id="xtick_9">
     <g id="line2d_34">
      <path d="M 316.523077 667.694118 
L 316.523077 423.105882 
" clip-path="url(#p329cc4522b)" style="fill: none; stroke: #d3d3d3; stroke-width: 0.8; stroke-linecap: square"/>
     </g>
     <g id="line2d_35">
      <g>
       <use xlink:href="#m3324f3a6dc" x="316.523077" y="667.694118" style="stroke: #000000; stroke-width: 0.8"/>
      </g>
     </g>
    </g>
    <g id="xtick_10">
     <g id="line2d_36">
      <path d="M 471.046154 667.694118 
L 471.046154 423.105882 
" clip-path="url(#p329cc4522b)" style="fill: none; stroke: #d3d3d3; stroke-width: 0.8; stroke-linecap: square"/>
     </g>
     <g id="line2d_37">
      <g>
       <use xlink:href="#m3324f3a6dc" x="471.046154" y="667.694118" style="stroke: #000000; stroke-width: 0.8"/>
      </g>
     </g>
    </g>
    <g id="xtick_11">
     <g id="line2d_38">
      <path d="M 625.569231 667.694118 
L 625.569231 423.105882 
" clip-path="url(#p329cc4522b)" style="fill: none; stroke: #d3d3d3; stroke-width: 0.8; stroke-linecap: square"/>
     </g>
     <g id="line2d_39">
      <g>
       <use xlink:href="#m3324f3a6dc" x="625.569231" y="667.694118" style="stroke: #000000; stroke-width: 0.8"/>
      </g>
     </g>
    </g>
    <g id="xtick_12">
     <g id="line2d_40">
      <path d="M 780.092308 667.694118 
L 780.092308 423.105882 
" clip-path="url(#p329cc4522b)" style="fill: none; stroke: #d3d3d3; stroke-width: 0.8; stroke-linecap: square"/>
     </g>
     <g id="line2d_41">
      <g>
       <use xlink:href="#m3324f3a6dc" x="780.092308" y="667.694118" style="stroke: #000000; stroke-width: 0.8"/>
      </g>
     </g>
    </g>
    <g id="xtick_13">
     <g id="line2d_42">
      <path d="M 934.615385 667.694118 
L 934.615385 423.105882 
" clip-path="url(#p329cc4522b)" style="fill: none; stroke: #d3d3d3; stroke-width: 0.8; stroke-linecap: square"/>
     </g>
     <g id="line2d_43">
      <g>
       <use xlink:href="#m3324f3a6dc" x="934.615385" y="667.694118" style="stroke: #000000; stroke-width: 0.8"/>
      </g>
     </g>
    </g>
    <g id="xtick_14">
     <g id="line2d_44">
      <path d="M 1089.138462 667.694118 
L 1089.138462 423.105882 
" clip-path="url(#p329cc4522b)" style="fill: none; stroke: #d3d3d3; stroke-width: 0.8; stroke-linecap: square"/>
     </g>
     <g id="line2d_45">
      <g>
       <use xlink:href="#m3324f3a6dc" x="1089.138462" y="667.694118" style="stroke: #000000; stroke-width: 0.8"/>
      </g>
     </g>
    </g>
   </g>
   <g id="matplotlib.axis_4">
    <g id="ytick_7">
     <g id="line2d_46">
      <path d="M 162 656.576471 
L 1166.4 656.576471 
" clip-path="url(#p329cc4522b)" style="fill: none; stroke: #d3d3d3; stroke-width: 0.8; stroke-linecap: square"/>
     </g>
     <g id="line2d_47">
      <g>
       <use xlink:href="#mbb450c4fd3" x="162" y="656.576471" style="stroke: #000000; stroke-width: 0.8"/>
      </g>
     </g>
     <g id="text_11">
      <!-- 0.00 -->
      <g transform="translate(114.921875 663.415064) scale(0.18 -0.18)">
       <use xlink:href="#DejaVuSans-30"/>
       <use xlink:href="#DejaVuSans-2e" transform="translate(63.623047 0)"/>
       <use xlink:href="#DejaVuSans-30" transform="translate(95.410156 0)"/>
       <use xlink:href="#DejaVuSans-30" transform="translate(159.033203 0)"/>
      </g>
     </g>
    </g>
    <g id="ytick_8">
     <g id="line2d_48">
      <path d="M 162 611.051071 
L 1166.4 611.051071 
" clip-path="url(#p329cc4522b)" style="fill: none; stroke: #d3d3d3; stroke-width: 0.8; stroke-linecap: square"/>
     </g>
     <g id="line2d_49">
      <g>
       <use xlink:href="#mbb450c4fd3" x="162" y="611.051071" style="stroke: #000000; stroke-width: 0.8"/>
      </g>
     </g>
     <g id="text_12">
      <!-- 0.05 -->
      <g transform="translate(114.921875 617.889665) scale(0.18 -0.18)">
       <use xlink:href="#DejaVuSans-30"/>
       <use xlink:href="#DejaVuSans-2e" transform="translate(63.623047 0)"/>
       <use xlink:href="#DejaVuSans-30" transform="translate(95.410156 0)"/>
       <use xlink:href="#DejaVuSans-35" transform="translate(159.033203 0)"/>
      </g>
     </g>
    </g>
    <g id="ytick_9">
     <g id="line2d_50">
      <path d="M 162 565.525671 
L 1166.4 565.525671 
" clip-path="url(#p329cc4522b)" style="fill: none; stroke: #d3d3d3; stroke-width: 0.8; stroke-linecap: square"/>
     </g>
     <g id="line2d_51">
      <g>
       <use xlink:href="#mbb450c4fd3" x="162" y="565.525671" style="stroke: #000000; stroke-width: 0.8"/>
      </g>
     </g>
     <g id="text_13">
      <!-- 0.10 -->
      <g transform="translate(114.921875 572.364265) scale(0.18 -0.18)">
       <use xlink:href="#DejaVuSans-30"/>
       <use xlink:href="#DejaVuSans-2e" transform="translate(63.623047 0)"/>
       <use xlink:href="#DejaVuSans-31" transform="translate(95.410156 0)"/>
       <use xlink:href="#DejaVuSans-30" transform="translate(159.033203 0)"/>
      </g>
     </g>
    </g>
    <g id="ytick_10">
     <g id="line2d_52">
      <path d="M 162 520.000272 
L 1166.4 520.000272 
" clip-path="url(#p329cc4522b)" style="fill: none; stroke: #d3d3d3; stroke-width: 0.8; stroke-linecap: square"/>
     </g>
     <g id="line2d_53">
      <g>
       <use xlink:href="#mbb450c4fd3" x="162" y="520.000272" style="stroke: #000000; stroke-width: 0.8"/>
      </g>
     </g>
     <g id="text_14">
      <!-- 0.15 -->
      <g transform="translate(114.921875 526.838866) scale(0.18 -0.18)">
       <use xlink:href="#DejaVuSans-30"/>
       <use xlink:href="#DejaVuSans-2e" transform="translate(63.623047 0)"/>
       <use xlink:href="#DejaVuSans-31" transform="translate(95.410156 0)"/>
       <use xlink:href="#DejaVuSans-35" transform="translate(159.033203 0)"/>
      </g>
     </g>
    </g>
    <g id="ytick_11">
     <g id="line2d_54">
      <path d="M 162 474.474872 
L 1166.4 474.474872 
" clip-path="url(#p329cc4522b)" style="fill: none; stroke: #d3d3d3; stroke-width: 0.8; stroke-linecap: square"/>
     </g>
     <g id="line2d_55">
      <g>
       <use xlink:href="#mbb450c4fd3" x="162" y="474.474872" style="stroke: #000000; stroke-width: 0.8"/>
      </g>
     </g>
     <g id="text_15">
      <!-- 0.20 -->
      <g transform="translate(114.921875 481.313466) scale(0.18 -0.18)">
       <defs>
        <path id="DejaVuSans-32" d="M 1228 531 
L 3431 531 
L 3431 0 
L 469 0 
L 469 531 
Q 828 903 1448 1529 
Q 2069 2156 2228 2338 
Q 2531 2678 2651 2914 
Q 2772 3150 2772 3378 
Q 2772 3750 2511 3984 
Q 2250 4219 1831 4219 
Q 1534 4219 1204 4116 
Q 875 4013 500 3803 
L 500 4441 
Q 881 4594 1212 4672 
Q 1544 4750 1819 4750 
Q 2544 4750 2975 4387 
Q 3406 4025 3406 3419 
Q 3406 3131 3298 2873 
Q 3191 2616 2906 2266 
Q 2828 2175 2409 1742 
Q 1991 1309 1228 531 
z
" transform="scale(0.015625)"/>
       </defs>
       <use xlink:href="#DejaVuSans-30"/>
       <use xlink:href="#DejaVuSans-2e" transform="translate(63.623047 0)"/>
       <use xlink:href="#DejaVuSans-32" transform="translate(95.410156 0)"/>
       <use xlink:href="#DejaVuSans-30" transform="translate(159.033203 0)"/>
      </g>
     </g>
    </g>
    <g id="ytick_12">
     <g id="line2d_56">
      <path d="M 162 428.949473 
L 1166.4 428.949473 
" clip-path="url(#p329cc4522b)" style="fill: none; stroke: #d3d3d3; stroke-width: 0.8; stroke-linecap: square"/>
     </g>
     <g id="line2d_57">
      <g>
       <use xlink:href="#mbb450c4fd3" x="162" y="428.949473" style="stroke: #000000; stroke-width: 0.8"/>
      </g>
     </g>
     <g id="text_16">
      <!-- 0.25 -->
      <g transform="translate(114.921875 435.788066) scale(0.18 -0.18)">
       <use xlink:href="#DejaVuSans-30"/>
       <use xlink:href="#DejaVuSans-2e" transform="translate(63.623047 0)"/>
       <use xlink:href="#DejaVuSans-32" transform="translate(95.410156 0)"/>
       <use xlink:href="#DejaVuSans-35" transform="translate(159.033203 0)"/>
      </g>
     </g>
    </g>
    <g id="text_17">
     <!-- TPT translocators (mM/s) -->
     <g transform="translate(108.010312 632.858438) rotate(-90) scale(0.14 -0.14)">
      <defs>
       <path id="DejaVuSans-54" d="M -19 4666 
L 3928 4666 
L 3928 4134 
L 2272 4134 
L 2272 0 
L 1638 0 
L 1638 4134 
L -19 4134 
L -19 4666 
z
" transform="scale(0.015625)"/>
       <path id="DejaVuSans-61" d="M 2194 1759 
Q 1497 1759 1228 1600 
Q 959 1441 959 1056 
Q 959 750 1161 570 
Q 1363 391 1709 391 
Q 2188 391 2477 730 
Q 2766 1069 2766 1631 
L 2766 1759 
L 2194 1759 
z
M 3341 1997 
L 3341 0 
L 2766 0 
L 2766 531 
Q 2569 213 2275 61 
Q 1981 -91 1556 -91 
Q 1019 -91 701 211 
Q 384 513 384 1019 
Q 384 1609 779 1909 
Q 1175 2209 1959 2209 
L 2766 2209 
L 2766 2266 
Q 2766 2663 2505 2880 
Q 2244 3097 1772 3097 
Q 1472 3097 1187 3025 
Q 903 2953 641 2809 
L 641 3341 
Q 956 3463 1253 3523 
Q 1550 3584 1831 3584 
Q 2591 3584 2966 3190 
Q 3341 2797 3341 1997 
z
" transform="scale(0.015625)"/>
       <path id="DejaVuSans-73" d="M 2834 3397 
L 2834 2853 
Q 2591 2978 2328 3040 
Q 2066 3103 1784 3103 
Q 1356 3103 1142 2972 
Q 928 2841 928 2578 
Q 928 2378 1081 2264 
Q 1234 2150 1697 2047 
L 1894 2003 
Q 2506 1872 2764 1633 
Q 3022 1394 3022 966 
Q 3022 478 2636 193 
Q 2250 -91 1575 -91 
Q 1294 -91 989 -36 
Q 684 19 347 128 
L 347 722 
Q 666 556 975 473 
Q 1284 391 1588 391 
Q 1994 391 2212 530 
Q 2431 669 2431 922 
Q 2431 1156 2273 1281 
Q 2116 1406 1581 1522 
L 1381 1569 
Q 847 1681 609 1914 
Q 372 2147 372 2553 
Q 372 3047 722 3315 
Q 1072 3584 1716 3584 
Q 2034 3584 2315 3537 
Q 2597 3491 2834 3397 
z
" transform="scale(0.015625)"/>
       <path id="DejaVuSans-6c" d="M 603 4863 
L 1178 4863 
L 1178 0 
L 603 0 
L 603 4863 
z
" transform="scale(0.015625)"/>
       <path id="DejaVuSans-6f" d="M 1959 3097 
Q 1497 3097 1228 2736 
Q 959 2375 959 1747 
Q 959 1119 1226 758 
Q 1494 397 1959 397 
Q 2419 397 2687 759 
Q 2956 1122 2956 1747 
Q 2956 2369 2687 2733 
Q 2419 3097 1959 3097 
z
M 1959 3584 
Q 2709 3584 3137 3096 
Q 3566 2609 3566 1747 
Q 3566 888 3137 398 
Q 2709 -91 1959 -91 
Q 1206 -91 779 398 
Q 353 888 353 1747 
Q 353 2609 779 3096 
Q 1206 3584 1959 3584 
z
" transform="scale(0.015625)"/>
       <path id="DejaVuSans-63" d="M 3122 3366 
L 3122 2828 
Q 2878 2963 2633 3030 
Q 2388 3097 2138 3097 
Q 1578 3097 1268 2742 
Q 959 2388 959 1747 
Q 959 1106 1268 751 
Q 1578 397 2138 397 
Q 2388 397 2633 464 
Q 2878 531 3122 666 
L 3122 134 
Q 2881 22 2623 -34 
Q 2366 -91 2075 -91 
Q 1284 -91 818 406 
Q 353 903 353 1747 
Q 353 2603 823 3093 
Q 1294 3584 2113 3584 
Q 2378 3584 2631 3529 
Q 2884 3475 3122 3366 
z
" transform="scale(0.015625)"/>
       <path id="DejaVuSans-2f" d="M 1625 4666 
L 2156 4666 
L 531 -594 
L 0 -594 
L 1625 4666 
z
" transform="scale(0.015625)"/>
      </defs>
      <use xlink:href="#DejaVuSans-54"/>
      <use xlink:href="#DejaVuSans-50" transform="translate(61.083984 0)"/>
      <use xlink:href="#DejaVuSans-54" transform="translate(121.386719 0)"/>
      <use xlink:href="#DejaVuSans-20" transform="translate(182.470703 0)"/>
      <use xlink:href="#DejaVuSans-74" transform="translate(214.257812 0)"/>
      <use xlink:href="#DejaVuSans-72" transform="translate(253.466797 0)"/>
      <use xlink:href="#DejaVuSans-61" transform="translate(294.580078 0)"/>
      <use xlink:href="#DejaVuSans-6e" transform="translate(355.859375 0)"/>
      <use xlink:href="#DejaVuSans-73" transform="translate(419.238281 0)"/>
      <use xlink:href="#DejaVuSans-6c" transform="translate(471.337891 0)"/>
      <use xlink:href="#DejaVuSans-6f" transform="translate(499.121094 0)"/>
      <use xlink:href="#DejaVuSans-63" transform="translate(560.302734 0)"/>
      <use xlink:href="#DejaVuSans-61" transform="translate(615.283203 0)"/>
      <use xlink:href="#DejaVuSans-74" transform="translate(676.5625 0)"/>
      <use xlink:href="#DejaVuSans-6f" transform="translate(715.771484 0)"/>
      <use xlink:href="#DejaVuSans-72" transform="translate(776.953125 0)"/>
      <use xlink:href="#DejaVuSans-73" transform="translate(818.066406 0)"/>
      <use xlink:href="#DejaVuSans-20" transform="translate(870.166016 0)"/>
      <use xlink:href="#DejaVuSans-28" transform="translate(901.953125 0)"/>
      <use xlink:href="#DejaVuSans-6d" transform="translate(940.966797 0)"/>
      <use xlink:href="#DejaVuSans-4d" transform="translate(1038.378906 0)"/>
      <use xlink:href="#DejaVuSans-2f" transform="translate(1124.658203 0)"/>
      <use xlink:href="#DejaVuSans-73" transform="translate(1158.349609 0)"/>
      <use xlink:href="#DejaVuSans-29" transform="translate(1210.449219 0)"/>
     </g>
    </g>
   </g>
   <g id="patch_13">
    <path d="M 162 667.694118 
L 162 423.105882 
" style="fill: none; stroke: #000000; stroke-width: 0.8; stroke-linejoin: miter; stroke-linecap: square"/>
   </g>
   <g id="patch_14">
    <path d="M 1166.4 667.694118 
L 1166.4 423.105882 
" style="fill: none; stroke: #000000; stroke-width: 0.8; stroke-linejoin: miter; stroke-linecap: square"/>
   </g>
   <g id="patch_15">
    <path d="M 162 667.694118 
L 1166.4 667.694118 
" style="fill: none; stroke: #000000; stroke-width: 0.8; stroke-linejoin: miter; stroke-linecap: square"/>
   </g>
   <g id="patch_16">
    <path d="M 162 423.105882 
L 1166.4 423.105882 
" style="fill: none; stroke: #000000; stroke-width: 0.8; stroke-linejoin: miter; stroke-linecap: square"/>
   </g>
   <g id="legend_1">
    <g id="patch_17">
     <path d="M 1042.29 626.707353 
L 1155.2 626.707353 
Q 1158.4 626.707353 1158.4 623.507353 
L 1158.4 507.682353 
Q 1158.4 504.482353 1155.2 504.482353 
L 1042.29 504.482353 
Q 1039.09 504.482353 1039.09 507.682353 
L 1039.09 623.507353 
Q 1039.09 626.707353 1042.29 626.707353 
z
" style="fill: #ffffff; opacity: 0.8; stroke: #cccccc; stroke-linejoin: miter"/>
    </g>
    <g id="line2d_58">
     <path d="M 1045.49 517.439853 
L 1061.49 517.439853 
L 1077.49 517.439853 
" style="fill: none; stroke-dasharray: 12.8,3.2,2,3.2; stroke-dashoffset: 0; stroke: #4169e1; stroke-width: 2"/>
    </g>
    <g id="text_18">
     <!-- 20PFD -->
     <g transform="translate(1090.29 523.039853) scale(0.16 -0.16)">
      <defs>
       <path id="DejaVuSans-46" d="M 628 4666 
L 3309 4666 
L 3309 4134 
L 1259 4134 
L 1259 2759 
L 3109 2759 
L 3109 2228 
L 1259 2228 
L 1259 0 
L 628 0 
L 628 4666 
z
" transform="scale(0.015625)"/>
      </defs>
      <use xlink:href="#DejaVuSans-32"/>
      <use xlink:href="#DejaVuSans-30" transform="translate(63.623047 0)"/>
      <use xlink:href="#DejaVuSans-50" transform="translate(127.246094 0)"/>
      <use xlink:href="#DejaVuSans-46" transform="translate(187.548828 0)"/>
      <use xlink:href="#DejaVuSans-44" transform="translate(245.068359 0)"/>
     </g>
    </g>
    <g id="line2d_59">
     <path d="M 1045.49 540.924853 
L 1061.49 540.924853 
L 1077.49 540.924853 
" style="fill: none; stroke-dasharray: 12.8,3.2,2,3.2; stroke-dashoffset: 0; stroke: #228b22; stroke-width: 2"/>
    </g>
    <g id="text_19">
     <!-- 50PFD -->
     <g transform="translate(1090.29 546.524853) scale(0.16 -0.16)">
      <use xlink:href="#DejaVuSans-35"/>
      <use xlink:href="#DejaVuSans-30" transform="translate(63.623047 0)"/>
      <use xlink:href="#DejaVuSans-50" transform="translate(127.246094 0)"/>
      <use xlink:href="#DejaVuSans-46" transform="translate(187.548828 0)"/>
      <use xlink:href="#DejaVuSans-44" transform="translate(245.068359 0)"/>
     </g>
    </g>
    <g id="line2d_60">
     <path d="M 1045.49 564.409853 
L 1061.49 564.409853 
L 1077.49 564.409853 
" style="fill: none; stroke-dasharray: 12.8,3.2,2,3.2; stroke-dashoffset: 0; stroke: #cd5c5c; stroke-width: 2"/>
    </g>
    <g id="text_20">
     <!-- 100PFD -->
     <g transform="translate(1090.29 570.009853) scale(0.16 -0.16)">
      <use xlink:href="#DejaVuSans-31"/>
      <use xlink:href="#DejaVuSans-30" transform="translate(63.623047 0)"/>
      <use xlink:href="#DejaVuSans-30" transform="translate(127.246094 0)"/>
      <use xlink:href="#DejaVuSans-50" transform="translate(190.869141 0)"/>
      <use xlink:href="#DejaVuSans-46" transform="translate(251.171875 0)"/>
      <use xlink:href="#DejaVuSans-44" transform="translate(308.691406 0)"/>
     </g>
    </g>
    <g id="line2d_61">
     <path d="M 1045.49 587.894853 
L 1061.49 587.894853 
L 1077.49 587.894853 
" style="fill: none; stroke-dasharray: 12.8,3.2,2,3.2; stroke-dashoffset: 0; stroke: #ff8c00; stroke-width: 2"/>
    </g>
    <g id="text_21">
     <!-- 150PFD -->
     <g transform="translate(1090.29 593.494853) scale(0.16 -0.16)">
      <use xlink:href="#DejaVuSans-31"/>
      <use xlink:href="#DejaVuSans-35" transform="translate(63.623047 0)"/>
      <use xlink:href="#DejaVuSans-30" transform="translate(127.246094 0)"/>
      <use xlink:href="#DejaVuSans-50" transform="translate(190.869141 0)"/>
      <use xlink:href="#DejaVuSans-46" transform="translate(251.171875 0)"/>
      <use xlink:href="#DejaVuSans-44" transform="translate(308.691406 0)"/>
     </g>
    </g>
    <g id="line2d_62">
     <path d="M 1045.49 611.379853 
L 1061.49 611.379853 
L 1077.49 611.379853 
" style="fill: none; stroke-dasharray: 12.8,3.2,2,3.2; stroke-dashoffset: 0; stroke: #000000; stroke-width: 2"/>
    </g>
    <g id="text_22">
     <!-- 200PFD -->
     <g transform="translate(1090.29 616.979853) scale(0.16 -0.16)">
      <use xlink:href="#DejaVuSans-32"/>
      <use xlink:href="#DejaVuSans-30" transform="translate(63.623047 0)"/>
      <use xlink:href="#DejaVuSans-30" transform="translate(127.246094 0)"/>
      <use xlink:href="#DejaVuSans-50" transform="translate(190.869141 0)"/>
      <use xlink:href="#DejaVuSans-46" transform="translate(251.171875 0)"/>
      <use xlink:href="#DejaVuSans-44" transform="translate(308.691406 0)"/>
     </g>
    </g>
   </g>
   <g id="line2d_63">
    <path d="M -1 611.212542 
L 12.159441 611.572287 
L 30.88951 611.868425 
L 63.667133 612.129838 
L 133.904895 612.408162 
L 302.475524 612.814498 
L 316.523077 612.841658 
L 318.068308 616.925326 
L 319.613538 616.548941 
L 321.158769 616.621926 
L 322.704 617.118035 
L 325.794462 618.65216 
L 333.520615 622.810601 
L 338.156308 625.05746 
L 344.337231 627.759724 
L 350.518154 630.195784 
L 356.699077 632.421487 
L 364.425231 634.953158 
L 372.151385 637.222927 
L 379.877538 639.223368 
L 386.058462 640.620204 
L 393.784615 642.21404 
L 396.875077 643.176507 
L 401.510769 644.243115 
L 412.327385 646.355923 
L 433.960615 650.364981 
L 444.777231 652.144056 
L 454.048615 653.433532 
L 461.774769 654.305615 
L 471.046154 655.102378 
L 480.317538 655.65525 
L 491.134154 656.062464 
L 505.041231 656.341992 
L 526.674462 656.509846 
L 573.031385 656.572167 
L 1045.872 656.576471 
L 1089.138462 656.576471 
L 1089.138462 656.576471 
" clip-path="url(#p329cc4522b)" style="fill: none; stroke-dasharray: 12.8,3.2,2,3.2; stroke-dashoffset: 0; stroke: #4169e1; stroke-width: 2"/>
   </g>
   <g id="line2d_64">
    <path d="M -1 556.290184 
L 49.61958 556.54519 
L 166.682517 556.855283 
L 316.523077 557.109132 
L 318.068308 562.261955 
L 319.613538 558.235342 
L 321.158769 557.944046 
L 322.704 560.020147 
L 324.249231 563.423593 
L 327.339692 571.835302 
L 330.430154 580.299215 
L 333.520615 587.804691 
L 335.065846 591.123162 
L 336.611077 594.157639 
L 338.156308 596.923206 
L 339.701538 599.438201 
L 341.246769 601.721996 
L 342.792 603.793815 
L 344.337231 605.67213 
L 347.427692 608.916786 
L 350.518154 611.581335 
L 353.608615 613.772823 
L 356.699077 615.58168 
L 359.789538 617.083841 
L 362.88 618.342753 
L 365.970462 619.41112 
L 370.606154 620.749282 
L 376.787077 622.208877 
L 384.513231 623.759474 
L 418.508308 630.294553 
L 435.505846 633.927094 
L 457.139077 638.550737 
L 467.955692 640.622201 
L 477.227077 642.160698 
L 480.317538 642.702996 
L 483.408 643.584415 
L 488.043692 644.607937 
L 500.405538 646.996933 
L 518.948308 650.413181 
L 529.764923 652.186773 
L 539.036308 653.469817 
L 546.762462 654.335553 
L 556.033846 655.124471 
L 565.305231 655.670423 
L 576.121846 656.071597 
L 590.028923 656.346425 
L 611.662154 656.51118 
L 658.019077 656.572257 
L 1089.138462 656.576471 
L 1089.138462 656.576471 
" clip-path="url(#p329cc4522b)" style="fill: none; stroke-dasharray: 12.8,3.2,2,3.2; stroke-dashoffset: 0; stroke: #228b22; stroke-width: 2"/>
   </g>
   <g id="line2d_65">
    <path d="M -1 491.623285 
L 12.159441 490.615888 
L 26.206993 489.774559 
L 44.937063 488.899527 
L 68.34965 488.063715 
L 96.444755 487.305074 
L 129.222378 486.646024 
L 171.365035 486.045992 
L 222.872727 485.570016 
L 288.427972 485.220415 
L 316.523077 485.126383 
L 318.068308 493.618868 
L 319.613538 486.951814 
L 321.158769 489.053729 
L 322.704 495.056647 
L 324.249231 502.561521 
L 330.430154 534.767617 
L 333.520615 549.36167 
L 336.611077 562.130995 
L 338.156308 567.783922 
L 339.701538 572.954615 
L 341.246769 577.659902 
L 342.792 581.922966 
L 344.337231 585.770909 
L 345.882462 589.232876 
L 347.427692 592.338658 
L 348.972923 595.117704 
L 350.518154 597.598453 
L 352.063385 599.807914 
L 353.608615 601.771422 
L 355.153846 603.512542 
L 356.699077 605.053043 
L 358.244308 606.41295 
L 359.789538 607.61062 
L 362.88 609.584955 
L 365.970462 611.093529 
L 369.060923 612.233879 
L 372.151385 613.086604 
L 375.241846 613.717899 
L 379.877538 614.364607 
L 384.513231 614.770921 
L 392.239385 615.162588 
L 412.327385 615.77727 
L 433.960615 616.574237 
L 457.139077 617.642185 
L 478.772308 618.861434 
L 497.315077 620.140036 
L 512.767385 621.420563 
L 526.674462 622.778889 
L 540.581538 624.367869 
L 552.943385 626.000801 
L 565.305231 627.860089 
L 577.667077 629.951 
L 591.574154 632.555748 
L 611.662154 636.602974 
L 625.569231 639.348253 
L 627.114462 637.822525 
L 628.659692 638.61988 
L 630.204923 639.184909 
L 633.295385 639.97404 
L 637.931077 640.816012 
L 664.2 645.129252 
L 685.833231 649.099432 
L 699.740308 651.528252 
L 709.011692 652.92773 
L 716.737846 653.901028 
L 724.464 654.680517 
L 733.735385 655.370467 
L 743.006769 655.834746 
L 755.368615 656.202208 
L 770.820923 656.422513 
L 797.089846 656.543637 
L 874.351385 656.576139 
L 1089.138462 656.576471 
L 1089.138462 656.576471 
" clip-path="url(#p329cc4522b)" style="fill: none; stroke-dasharray: 12.8,3.2,2,3.2; stroke-dashoffset: 0; stroke: #cd5c5c; stroke-width: 2"/>
   </g>
   <g id="line2d_66">
    <path d="M -1 483.098011 
L 7.476923 480.167942 
L 16.841958 477.236054 
L 26.206993 474.599632 
L 35.572028 472.238754 
L 44.937063 470.132514 
L 54.302098 468.259692 
L 63.667133 466.599309 
L 73.032168 465.13104 
L 82.397203 463.835526 
L 96.444755 462.176742 
L 110.492308 460.810222 
L 124.53986 459.687053 
L 138.587413 458.765109 
L 157.317483 457.787864 
L 176.047552 457.036114 
L 199.46014 456.33234 
L 227.555245 455.732736 
L 260.332867 455.255156 
L 307.158042 454.81647 
L 316.523077 454.750478 
L 319.613538 448.512869 
L 321.158769 459.49828 
L 325.794462 504.58484 
L 327.339692 517.703375 
L 328.884923 529.795561 
L 330.430154 540.912811 
L 331.975385 550.959185 
L 333.520615 559.928396 
L 335.065846 567.863198 
L 336.611077 574.832418 
L 338.156308 580.917678 
L 339.701538 586.2046 
L 341.246769 590.777186 
L 342.792 594.714552 
L 344.337231 598.089301 
L 345.882462 600.96697 
L 347.427692 603.406138 
L 348.972923 605.458897 
L 350.518154 607.171522 
L 352.063385 608.585188 
L 353.608615 609.736688 
L 355.153846 610.659082 
L 356.699077 611.382258 
L 358.244308 611.933393 
L 359.789538 612.337306 
L 362.88 612.792382 
L 365.970462 612.906525 
L 370.606154 612.716184 
L 382.968 611.923303 
L 389.148923 611.818039 
L 396.875077 611.929771 
L 415.417846 612.544729 
L 437.051077 613.148657 
L 475.681846 613.933626 
L 520.493538 614.912305 
L 549.852923 615.772782 
L 574.576615 616.723791 
L 594.664615 617.707664 
L 613.207385 618.835952 
L 625.569231 619.733609 
L 627.114462 610.039319 
L 628.659692 604.864429 
L 630.204923 600.897049 
L 631.750154 598.3429 
L 633.295385 596.628219 
L 634.840615 595.378124 
L 637.931077 593.495985 
L 644.112 590.324156 
L 651.838154 586.287661 
L 659.564308 582.00208 
L 667.290462 577.47466 
L 676.561846 571.746931 
L 685.833231 565.738113 
L 696.649846 558.445689 
L 712.102154 547.700449 
L 735.280615 531.546862 
L 746.097231 524.27374 
L 755.368615 518.283167 
L 764.64 512.5717 
L 772.366154 508.05428 
L 780.092308 503.775071 
L 787.818462 499.745205 
L 795.544615 495.970629 
L 803.270769 492.452641 
L 810.996923 489.188513 
L 818.723077 486.172179 
L 826.449231 483.394919 
L 834.175385 480.846001 
L 841.901538 478.513264 
L 849.627692 476.383628 
L 858.899077 474.077036 
L 868.170462 472.019692 
L 877.441846 470.188311 
L 886.713231 468.560492 
L 897.529846 466.890491 
L 908.346462 465.437727 
L 920.708308 464.007471 
L 934.615385 462.647653 
L 948.522462 461.508101 
L 963.974769 460.453973 
L 982.517538 459.42555 
L 1002.605538 458.538604 
L 1025.784 457.736645 
L 1053.598154 457.002031 
L 1087.593231 456.337167 
L 1089.138462 456.311554 
L 1089.138462 456.311554 
" clip-path="url(#p329cc4522b)" style="fill: none; stroke-dasharray: 12.8,3.2,2,3.2; stroke-dashoffset: 0; stroke: #ff8c00; stroke-width: 2"/>
   </g>
   <g id="line2d_67">
    <path d="M -1 483.773923 
L 7.476923 480.694709 
L 16.841958 477.569234 
L 26.206993 474.715914 
L 35.572028 472.121242 
L 44.937063 469.770433 
L 54.302098 467.647866 
L 63.667133 465.737479 
L 73.032168 464.023115 
L 82.397203 462.488826 
L 91.762238 461.119102 
L 105.80979 459.340741 
L 119.857343 457.852481 
L 133.904895 456.611922 
L 147.952448 455.581384 
L 166.682517 454.477634 
L 185.412587 453.62297 
L 208.825175 452.824206 
L 232.237762 452.249732 
L 260.332867 451.771566 
L 297.793007 451.373202 
L 316.523077 451.242799 
L 318.068308 439.902066 
L 319.613538 434.223529 
L 321.158769 441.412065 
L 322.704 455.413952 
L 324.249231 467.762583 
L 325.794462 485.454163 
L 328.884923 517.012302 
L 330.430154 531.480325 
L 331.975385 544.363223 
L 333.520615 555.615981 
L 335.065846 565.334508 
L 336.611077 573.67131 
L 338.156308 580.794148 
L 339.701538 586.865188 
L 341.246769 592.03182 
L 342.792 596.423652 
L 344.337231 600.152555 
L 345.882462 603.31408 
L 347.427692 605.989388 
L 348.972923 608.247271 
L 350.518154 610.146048 
L 352.063385 611.735264 
L 353.608615 613.057156 
L 355.153846 614.147896 
L 356.699077 615.038622 
L 358.244308 615.756296 
L 359.789538 616.324397 
L 362.88 617.091608 
L 365.970462 617.476987 
L 369.060923 617.587299 
L 373.696615 617.41405 
L 379.877538 616.846878 
L 406.146462 614.049275 
L 418.508308 613.020163 
L 429.324923 612.309715 
L 440.141538 611.818716 
L 450.958154 611.563841 
L 461.774769 611.52361 
L 475.681846 611.696819 
L 497.315077 612.211201 
L 526.674462 613.125715 
L 551.398154 614.099233 
L 573.031385 615.166806 
L 591.574154 616.29691 
L 608.571692 617.557502 
L 624.024 618.936167 
L 625.569231 619.088074 
L 627.114462 610.511346 
L 628.659692 606.432536 
L 630.204923 603.344406 
L 631.750154 601.325623 
L 633.295385 599.931627 
L 634.840615 598.879227 
L 637.931077 597.223104 
L 654.928615 589.011922 
L 662.654769 584.917027 
L 670.380923 580.574448 
L 678.107077 575.993628 
L 687.378462 570.225363 
L 698.195077 563.191769 
L 710.556923 554.872356 
L 746.097231 530.745632 
L 756.913846 523.740787 
L 766.185231 517.972545 
L 775.456615 512.458198 
L 784.728 507.222512 
L 793.999385 502.282196 
L 801.725538 498.398122 
L 809.451692 494.728535 
L 817.177846 491.27348 
L 824.904 488.030923 
L 832.630154 484.997071 
L 840.356308 482.166665 
L 849.627692 479.029565 
L 858.899077 476.163137 
L 868.170462 473.552989 
L 877.441846 471.183751 
L 886.713231 469.039494 
L 895.984615 467.104089 
L 906.801231 465.088713 
L 917.617846 463.31097 
L 928.434462 461.747075 
L 940.796308 460.192895 
L 953.158154 458.857714 
L 967.065231 457.582358 
L 982.517538 456.405041 
L 999.515077 455.352388 
L 1018.057846 454.439121 
L 1038.145846 453.668998 
L 1061.324308 452.998024 
L 1089.138462 452.419208 
L 1089.138462 452.419208 
" clip-path="url(#p329cc4522b)" style="fill: none; stroke-dasharray: 12.8,3.2,2,3.2; stroke-dashoffset: 0; stroke: #000000; stroke-width: 2"/>
   </g>
  </g>
  <g id="axes_3">
   <g id="patch_18">
    <path d="M 162 961.2 
L 1166.4 961.2 
L 1166.4 716.611765 
L 162 716.611765 
z
" style="fill: #ffffff"/>
   </g>
   <g id="patch_19">
    <path d="M 316.523077 961.2 
L 625.569231 961.2 
L 625.569231 716.611765 
L 316.523077 716.611765 
z
" clip-path="url(#pa5c48f71b3)" style="fill: #696969; opacity: 0.4; stroke: #696969; stroke-linejoin: miter"/>
   </g>
   <g id="matplotlib.axis_5">
    <g id="xtick_15">
     <g id="line2d_68">
      <path d="M 162 961.2 
L 162 716.611765 
" clip-path="url(#pa5c48f71b3)" style="fill: none; stroke: #d3d3d3; stroke-width: 0.8; stroke-linecap: square"/>
     </g>
     <g id="line2d_69">
      <g>
       <use xlink:href="#m3324f3a6dc" x="162" y="961.2" style="stroke: #000000; stroke-width: 0.8"/>
      </g>
     </g>
     <g id="text_23">
      <!-- 200 -->
      <g transform="translate(144.82125 981.877187) scale(0.18 -0.18)">
       <use xlink:href="#DejaVuSans-32"/>
       <use xlink:href="#DejaVuSans-30" transform="translate(63.623047 0)"/>
       <use xlink:href="#DejaVuSans-30" transform="translate(127.246094 0)"/>
      </g>
     </g>
    </g>
    <g id="xtick_16">
     <g id="line2d_70">
      <path d="M 316.523077 961.2 
L 316.523077 716.611765 
" clip-path="url(#pa5c48f71b3)" style="fill: none; stroke: #d3d3d3; stroke-width: 0.8; stroke-linecap: square"/>
     </g>
     <g id="line2d_71">
      <g>
       <use xlink:href="#m3324f3a6dc" x="316.523077" y="961.2" style="stroke: #000000; stroke-width: 0.8"/>
      </g>
     </g>
     <g id="text_24">
      <!-- 300 -->
      <g transform="translate(299.344327 981.877187) scale(0.18 -0.18)">
       <use xlink:href="#DejaVuSans-33"/>
       <use xlink:href="#DejaVuSans-30" transform="translate(63.623047 0)"/>
       <use xlink:href="#DejaVuSans-30" transform="translate(127.246094 0)"/>
      </g>
     </g>
    </g>
    <g id="xtick_17">
     <g id="line2d_72">
      <path d="M 471.046154 961.2 
L 471.046154 716.611765 
" clip-path="url(#pa5c48f71b3)" style="fill: none; stroke: #d3d3d3; stroke-width: 0.8; stroke-linecap: square"/>
     </g>
     <g id="line2d_73">
      <g>
       <use xlink:href="#m3324f3a6dc" x="471.046154" y="961.2" style="stroke: #000000; stroke-width: 0.8"/>
      </g>
     </g>
     <g id="text_25">
      <!-- 400 -->
      <g transform="translate(453.867404 981.877187) scale(0.18 -0.18)">
       <use xlink:href="#DejaVuSans-34"/>
       <use xlink:href="#DejaVuSans-30" transform="translate(63.623047 0)"/>
       <use xlink:href="#DejaVuSans-30" transform="translate(127.246094 0)"/>
      </g>
     </g>
    </g>
    <g id="xtick_18">
     <g id="line2d_74">
      <path d="M 625.569231 961.2 
L 625.569231 716.611765 
" clip-path="url(#pa5c48f71b3)" style="fill: none; stroke: #d3d3d3; stroke-width: 0.8; stroke-linecap: square"/>
     </g>
     <g id="line2d_75">
      <g>
       <use xlink:href="#m3324f3a6dc" x="625.569231" y="961.2" style="stroke: #000000; stroke-width: 0.8"/>
      </g>
     </g>
     <g id="text_26">
      <!-- 500 -->
      <g transform="translate(608.390481 981.877187) scale(0.18 -0.18)">
       <use xlink:href="#DejaVuSans-35"/>
       <use xlink:href="#DejaVuSans-30" transform="translate(63.623047 0)"/>
       <use xlink:href="#DejaVuSans-30" transform="translate(127.246094 0)"/>
      </g>
     </g>
    </g>
    <g id="xtick_19">
     <g id="line2d_76">
      <path d="M 780.092308 961.2 
L 780.092308 716.611765 
" clip-path="url(#pa5c48f71b3)" style="fill: none; stroke: #d3d3d3; stroke-width: 0.8; stroke-linecap: square"/>
     </g>
     <g id="line2d_77">
      <g>
       <use xlink:href="#m3324f3a6dc" x="780.092308" y="961.2" style="stroke: #000000; stroke-width: 0.8"/>
      </g>
     </g>
     <g id="text_27">
      <!-- 600 -->
      <g transform="translate(762.913558 981.877187) scale(0.18 -0.18)">
       <use xlink:href="#DejaVuSans-36"/>
       <use xlink:href="#DejaVuSans-30" transform="translate(63.623047 0)"/>
       <use xlink:href="#DejaVuSans-30" transform="translate(127.246094 0)"/>
      </g>
     </g>
    </g>
    <g id="xtick_20">
     <g id="line2d_78">
      <path d="M 934.615385 961.2 
L 934.615385 716.611765 
" clip-path="url(#pa5c48f71b3)" style="fill: none; stroke: #d3d3d3; stroke-width: 0.8; stroke-linecap: square"/>
     </g>
     <g id="line2d_79">
      <g>
       <use xlink:href="#m3324f3a6dc" x="934.615385" y="961.2" style="stroke: #000000; stroke-width: 0.8"/>
      </g>
     </g>
     <g id="text_28">
      <!-- 700 -->
      <g transform="translate(917.436635 981.877187) scale(0.18 -0.18)">
       <use xlink:href="#DejaVuSans-37"/>
       <use xlink:href="#DejaVuSans-30" transform="translate(63.623047 0)"/>
       <use xlink:href="#DejaVuSans-30" transform="translate(127.246094 0)"/>
      </g>
     </g>
    </g>
    <g id="xtick_21">
     <g id="line2d_80">
      <path d="M 1089.138462 961.2 
L 1089.138462 716.611765 
" clip-path="url(#pa5c48f71b3)" style="fill: none; stroke: #d3d3d3; stroke-width: 0.8; stroke-linecap: square"/>
     </g>
     <g id="line2d_81">
      <g>
       <use xlink:href="#m3324f3a6dc" x="1089.138462" y="961.2" style="stroke: #000000; stroke-width: 0.8"/>
      </g>
     </g>
     <g id="text_29">
      <!-- 800 -->
      <g transform="translate(1071.959712 981.877187) scale(0.18 -0.18)">
       <use xlink:href="#DejaVuSans-38"/>
       <use xlink:href="#DejaVuSans-30" transform="translate(63.623047 0)"/>
       <use xlink:href="#DejaVuSans-30" transform="translate(127.246094 0)"/>
      </g>
     </g>
    </g>
    <g id="text_30">
     <!-- Time (s) -->
     <g transform="translate(623.542188 1004.8175) scale(0.2 -0.2)">
      <defs>
       <path id="DejaVuSans-69" d="M 603 3500 
L 1178 3500 
L 1178 0 
L 603 0 
L 603 3500 
z
M 603 4863 
L 1178 4863 
L 1178 4134 
L 603 4134 
L 603 4863 
z
" transform="scale(0.015625)"/>
      </defs>
      <use xlink:href="#DejaVuSans-54"/>
      <use xlink:href="#DejaVuSans-69" transform="translate(57.958984 0)"/>
      <use xlink:href="#DejaVuSans-6d" transform="translate(85.742188 0)"/>
      <use xlink:href="#DejaVuSans-65" transform="translate(183.154297 0)"/>
      <use xlink:href="#DejaVuSans-20" transform="translate(244.677734 0)"/>
      <use xlink:href="#DejaVuSans-28" transform="translate(276.464844 0)"/>
      <use xlink:href="#DejaVuSans-73" transform="translate(315.478516 0)"/>
      <use xlink:href="#DejaVuSans-29" transform="translate(367.578125 0)"/>
     </g>
    </g>
   </g>
   <g id="matplotlib.axis_6">
    <g id="ytick_13">
     <g id="line2d_82">
      <path d="M 162 950.082353 
L 1166.4 950.082353 
" clip-path="url(#pa5c48f71b3)" style="fill: none; stroke: #d3d3d3; stroke-width: 0.8; stroke-linecap: square"/>
     </g>
     <g id="line2d_83">
      <g>
       <use xlink:href="#mbb450c4fd3" x="162" y="950.082353" style="stroke: #000000; stroke-width: 0.8"/>
      </g>
     </g>
     <g id="text_31">
      <!-- 0.0 -->
      <g transform="translate(126.374375 956.920947) scale(0.18 -0.18)">
       <use xlink:href="#DejaVuSans-30"/>
       <use xlink:href="#DejaVuSans-2e" transform="translate(63.623047 0)"/>
       <use xlink:href="#DejaVuSans-30" transform="translate(95.410156 0)"/>
      </g>
     </g>
    </g>
    <g id="ytick_14">
     <g id="line2d_84">
      <path d="M 162 900.016795 
L 1166.4 900.016795 
" clip-path="url(#pa5c48f71b3)" style="fill: none; stroke: #d3d3d3; stroke-width: 0.8; stroke-linecap: square"/>
     </g>
     <g id="line2d_85">
      <g>
       <use xlink:href="#mbb450c4fd3" x="162" y="900.016795" style="stroke: #000000; stroke-width: 0.8"/>
      </g>
     </g>
     <g id="text_32">
      <!-- 0.2 -->
      <g transform="translate(126.374375 906.855388) scale(0.18 -0.18)">
       <use xlink:href="#DejaVuSans-30"/>
       <use xlink:href="#DejaVuSans-2e" transform="translate(63.623047 0)"/>
       <use xlink:href="#DejaVuSans-32" transform="translate(95.410156 0)"/>
      </g>
     </g>
    </g>
    <g id="ytick_15">
     <g id="line2d_86">
      <path d="M 162 849.951236 
L 1166.4 849.951236 
" clip-path="url(#pa5c48f71b3)" style="fill: none; stroke: #d3d3d3; stroke-width: 0.8; stroke-linecap: square"/>
     </g>
     <g id="line2d_87">
      <g>
       <use xlink:href="#mbb450c4fd3" x="162" y="849.951236" style="stroke: #000000; stroke-width: 0.8"/>
      </g>
     </g>
     <g id="text_33">
      <!-- 0.4 -->
      <g transform="translate(126.374375 856.78983) scale(0.18 -0.18)">
       <use xlink:href="#DejaVuSans-30"/>
       <use xlink:href="#DejaVuSans-2e" transform="translate(63.623047 0)"/>
       <use xlink:href="#DejaVuSans-34" transform="translate(95.410156 0)"/>
      </g>
     </g>
    </g>
    <g id="ytick_16">
     <g id="line2d_88">
      <path d="M 162 799.885678 
L 1166.4 799.885678 
" clip-path="url(#pa5c48f71b3)" style="fill: none; stroke: #d3d3d3; stroke-width: 0.8; stroke-linecap: square"/>
     </g>
     <g id="line2d_89">
      <g>
       <use xlink:href="#mbb450c4fd3" x="162" y="799.885678" style="stroke: #000000; stroke-width: 0.8"/>
      </g>
     </g>
     <g id="text_34">
      <!-- 0.6 -->
      <g transform="translate(126.374375 806.724271) scale(0.18 -0.18)">
       <use xlink:href="#DejaVuSans-30"/>
       <use xlink:href="#DejaVuSans-2e" transform="translate(63.623047 0)"/>
       <use xlink:href="#DejaVuSans-36" transform="translate(95.410156 0)"/>
      </g>
     </g>
    </g>
    <g id="ytick_17">
     <g id="line2d_90">
      <path d="M 162 749.820119 
L 1166.4 749.820119 
" clip-path="url(#pa5c48f71b3)" style="fill: none; stroke: #d3d3d3; stroke-width: 0.8; stroke-linecap: square"/>
     </g>
     <g id="line2d_91">
      <g>
       <use xlink:href="#mbb450c4fd3" x="162" y="749.820119" style="stroke: #000000; stroke-width: 0.8"/>
      </g>
     </g>
     <g id="text_35">
      <!-- 0.8 -->
      <g transform="translate(126.374375 756.658713) scale(0.18 -0.18)">
       <use xlink:href="#DejaVuSans-30"/>
       <use xlink:href="#DejaVuSans-2e" transform="translate(63.623047 0)"/>
       <use xlink:href="#DejaVuSans-38" transform="translate(95.410156 0)"/>
      </g>
     </g>
    </g>
    <g id="text_36">
     <!-- RuBisCO (mM/s) -->
     <g transform="translate(119.462812 895.232914) rotate(-90) scale(0.14 -0.14)">
      <defs>
       <path id="DejaVuSans-52" d="M 2841 2188 
Q 3044 2119 3236 1894 
Q 3428 1669 3622 1275 
L 4263 0 
L 3584 0 
L 2988 1197 
Q 2756 1666 2539 1819 
Q 2322 1972 1947 1972 
L 1259 1972 
L 1259 0 
L 628 0 
L 628 4666 
L 2053 4666 
Q 2853 4666 3247 4331 
Q 3641 3997 3641 3322 
Q 3641 2881 3436 2590 
Q 3231 2300 2841 2188 
z
M 1259 4147 
L 1259 2491 
L 2053 2491 
Q 2509 2491 2742 2702 
Q 2975 2913 2975 3322 
Q 2975 3731 2742 3939 
Q 2509 4147 2053 4147 
L 1259 4147 
z
" transform="scale(0.015625)"/>
       <path id="DejaVuSans-75" d="M 544 1381 
L 544 3500 
L 1119 3500 
L 1119 1403 
Q 1119 906 1312 657 
Q 1506 409 1894 409 
Q 2359 409 2629 706 
Q 2900 1003 2900 1516 
L 2900 3500 
L 3475 3500 
L 3475 0 
L 2900 0 
L 2900 538 
Q 2691 219 2414 64 
Q 2138 -91 1772 -91 
Q 1169 -91 856 284 
Q 544 659 544 1381 
z
M 1991 3584 
L 1991 3584 
z
" transform="scale(0.015625)"/>
       <path id="DejaVuSans-42" d="M 1259 2228 
L 1259 519 
L 2272 519 
Q 2781 519 3026 730 
Q 3272 941 3272 1375 
Q 3272 1813 3026 2020 
Q 2781 2228 2272 2228 
L 1259 2228 
z
M 1259 4147 
L 1259 2741 
L 2194 2741 
Q 2656 2741 2882 2914 
Q 3109 3088 3109 3444 
Q 3109 3797 2882 3972 
Q 2656 4147 2194 4147 
L 1259 4147 
z
M 628 4666 
L 2241 4666 
Q 2963 4666 3353 4366 
Q 3744 4066 3744 3513 
Q 3744 3084 3544 2831 
Q 3344 2578 2956 2516 
Q 3422 2416 3680 2098 
Q 3938 1781 3938 1306 
Q 3938 681 3513 340 
Q 3088 0 2303 0 
L 628 0 
L 628 4666 
z
" transform="scale(0.015625)"/>
       <path id="DejaVuSans-43" d="M 4122 4306 
L 4122 3641 
Q 3803 3938 3442 4084 
Q 3081 4231 2675 4231 
Q 1875 4231 1450 3742 
Q 1025 3253 1025 2328 
Q 1025 1406 1450 917 
Q 1875 428 2675 428 
Q 3081 428 3442 575 
Q 3803 722 4122 1019 
L 4122 359 
Q 3791 134 3420 21 
Q 3050 -91 2638 -91 
Q 1578 -91 968 557 
Q 359 1206 359 2328 
Q 359 3453 968 4101 
Q 1578 4750 2638 4750 
Q 3056 4750 3426 4639 
Q 3797 4528 4122 4306 
z
" transform="scale(0.015625)"/>
      </defs>
      <use xlink:href="#DejaVuSans-52"/>
      <use xlink:href="#DejaVuSans-75" transform="translate(64.982422 0)"/>
      <use xlink:href="#DejaVuSans-42" transform="translate(128.361328 0)"/>
      <use xlink:href="#DejaVuSans-69" transform="translate(196.964844 0)"/>
      <use xlink:href="#DejaVuSans-73" transform="translate(224.748047 0)"/>
      <use xlink:href="#DejaVuSans-43" transform="translate(276.847656 0)"/>
      <use xlink:href="#DejaVuSans-4f" transform="translate(346.671875 0)"/>
      <use xlink:href="#DejaVuSans-20" transform="translate(425.382812 0)"/>
      <use xlink:href="#DejaVuSans-28" transform="translate(457.169922 0)"/>
      <use xlink:href="#DejaVuSans-6d" transform="translate(496.183594 0)"/>
      <use xlink:href="#DejaVuSans-4d" transform="translate(593.595703 0)"/>
      <use xlink:href="#DejaVuSans-2f" transform="translate(679.875 0)"/>
      <use xlink:href="#DejaVuSans-73" transform="translate(713.566406 0)"/>
      <use xlink:href="#DejaVuSans-29" transform="translate(765.666016 0)"/>
     </g>
    </g>
   </g>
   <g id="patch_20">
    <path d="M 162 961.2 
L 162 716.611765 
" style="fill: none; stroke: #000000; stroke-width: 0.8; stroke-linejoin: miter; stroke-linecap: square"/>
   </g>
   <g id="patch_21">
    <path d="M 1166.4 961.2 
L 1166.4 716.611765 
" style="fill: none; stroke: #000000; stroke-width: 0.8; stroke-linejoin: miter; stroke-linecap: square"/>
   </g>
   <g id="patch_22">
    <path d="M 162 961.2 
L 1166.4 961.2 
" style="fill: none; stroke: #000000; stroke-width: 0.8; stroke-linejoin: miter; stroke-linecap: square"/>
   </g>
   <g id="patch_23">
    <path d="M 162 716.611765 
L 1166.4 716.611765 
" style="fill: none; stroke: #000000; stroke-width: 0.8; stroke-linejoin: miter; stroke-linecap: square"/>
   </g>
   <g id="line2d_92">
    <path d="M -1 912.010426 
L 44.937063 912.068091 
L 316.523077 912.659817 
L 318.068308 924.401892 
L 319.613538 931.57034 
L 321.158769 935.006059 
L 322.704 936.780125 
L 324.249231 937.768046 
L 325.794462 938.365481 
L 328.884923 939.043333 
L 333.520615 939.605817 
L 341.246769 940.238515 
L 355.153846 941.11289 
L 369.060923 941.773931 
L 381.422769 942.156737 
L 393.784615 942.369576 
L 401.510769 943.766518 
L 410.782154 945.102564 
L 423.144 946.655348 
L 433.960615 947.776065 
L 443.232 948.527336 
L 454.048615 949.158013 
L 464.865231 949.561231 
L 478.772308 949.844871 
L 498.860308 950.009035 
L 540.581538 950.076143 
L 872.806154 950.082353 
L 1089.138462 950.082353 
L 1089.138462 950.082353 
" clip-path="url(#pa5c48f71b3)" style="fill: none; stroke-dasharray: 12.8,3.2,2,3.2; stroke-dashoffset: 0; stroke: #4169e1; stroke-width: 2"/>
   </g>
   <g id="line2d_93">
    <path d="M -1 854.726213 
L 199.46014 855.238413 
L 316.523077 855.44364 
L 318.068308 895.981822 
L 319.613538 916.615027 
L 321.158769 925.655109 
L 322.704 930.382774 
L 324.249231 933.149407 
L 325.794462 934.866532 
L 327.339692 935.967808 
L 328.884923 936.696878 
L 330.430154 937.20008 
L 333.520615 937.843202 
L 338.156308 938.399782 
L 344.337231 938.829472 
L 352.063385 939.129503 
L 369.060923 939.47892 
L 389.148923 939.972369 
L 415.417846 940.879256 
L 457.139077 942.35097 
L 471.046154 942.619236 
L 480.317538 942.706132 
L 488.043692 944.0352 
L 498.860308 945.550018 
L 509.676923 946.861547 
L 520.493538 947.939831 
L 529.764923 948.652265 
L 540.581538 949.241241 
L 552.943385 949.650658 
L 568.395692 949.904216 
L 593.119385 950.040779 
L 656.473846 950.08138 
L 1089.138462 950.082353 
L 1089.138462 950.082353 
" clip-path="url(#pa5c48f71b3)" style="fill: none; stroke-dasharray: 12.8,3.2,2,3.2; stroke-dashoffset: 0; stroke: #228b22; stroke-width: 2"/>
   </g>
   <g id="line2d_94">
    <path d="M -1 770.432953 
L 26.206993 769.628326 
L 58.984615 768.922331 
L 96.444755 768.371756 
L 138.587413 767.982782 
L 194.777622 767.707592 
L 274.38042 767.572249 
L 316.523077 767.559851 
L 318.068308 860.638515 
L 319.613538 902.81816 
L 321.158769 918.35812 
L 322.704 925.059319 
L 324.249231 928.624678 
L 325.794462 930.905078 
L 327.339692 932.546361 
L 328.884923 933.801053 
L 330.430154 934.785923 
L 331.975385 935.567093 
L 333.520615 936.18923 
L 336.611077 937.083487 
L 339.701538 937.660338 
L 344.337231 938.173845 
L 348.972923 938.439246 
L 355.153846 938.568954 
L 364.425231 938.51223 
L 390.694154 938.229312 
L 413.872615 938.325615 
L 475.681846 938.876482 
L 514.312615 939.420552 
L 545.217231 940.065232 
L 574.576615 940.902491 
L 625.569231 942.530792 
L 627.114462 938.356586 
L 630.204923 939.299059 
L 633.295385 939.939665 
L 639.476308 940.91164 
L 665.745231 944.599296 
L 679.652308 946.380301 
L 690.468923 947.552111 
L 699.740308 948.357014 
L 709.011692 948.964093 
L 719.828308 949.443817 
L 732.190154 949.762072 
L 749.187692 949.963391 
L 780.092308 950.0633 
L 899.075077 950.082337 
L 1089.138462 950.082353 
L 1089.138462 950.082353 
" clip-path="url(#pa5c48f71b3)" style="fill: none; stroke-dasharray: 12.8,3.2,2,3.2; stroke-dashoffset: 0; stroke: #cd5c5c; stroke-width: 2"/>
   </g>
   <g id="line2d_95">
    <path d="M -1 738.152074 
L 7.476923 737.129093 
L 16.841958 736.166703 
L 30.88951 734.986677 
L 44.937063 734.057265 
L 58.984615 733.321114 
L 77.714685 732.566485 
L 101.127273 731.885883 
L 129.222378 731.327364 
L 166.682517 730.85114 
L 218.19021 730.466824 
L 293.11049 730.156611 
L 316.523077 730.088447 
L 318.068308 826.542637 
L 319.613538 904.508885 
L 321.158769 922.37143 
L 322.704 926.810607 
L 324.249231 929.25555 
L 325.794462 931.268663 
L 327.339692 933.801241 
L 328.884923 935.610055 
L 330.430154 936.638722 
L 331.975385 937.308115 
L 333.520615 937.780344 
L 336.611077 938.381504 
L 339.701538 938.703642 
L 342.792 938.842486 
L 347.427692 938.801041 
L 353.608615 938.431359 
L 367.515692 937.396126 
L 373.696615 937.204872 
L 381.422769 937.207759 
L 437.051077 937.795108 
L 599.300308 938.687879 
L 625.569231 939.01781 
L 627.114462 889.748246 
L 628.659692 880.240973 
L 630.204923 874.485155 
L 631.750154 870.614298 
L 633.295385 867.866101 
L 634.840615 865.740497 
L 637.931077 862.314226 
L 658.019077 842.047335 
L 668.835692 830.465146 
L 687.378462 810.521393 
L 695.104615 802.550076 
L 701.285538 796.442784 
L 707.466462 790.631423 
L 713.647385 785.156189 
L 719.828308 780.045298 
L 724.464 776.461402 
L 729.099692 773.094401 
L 733.735385 769.943659 
L 738.371077 767.005701 
L 743.006769 764.274673 
L 747.642462 761.74282 
L 753.823385 758.660822 
L 760.004308 755.892135 
L 766.185231 753.410856 
L 772.366154 751.190791 
L 778.547077 749.206389 
L 784.728 747.433395 
L 792.454154 745.480234 
L 800.180308 743.78234 
L 807.906462 742.304506 
L 817.177846 740.778701 
L 826.449231 739.480696 
L 837.265846 738.204471 
L 849.627692 737.001072 
L 863.534769 735.90474 
L 878.987077 734.933724 
L 895.984615 734.092961 
L 916.072615 733.32566 
L 940.796308 732.620059 
L 970.155692 732.013435 
L 1007.241231 731.475576 
L 1056.688615 730.992509 
L 1089.138462 730.763017 
L 1089.138462 730.763017 
" clip-path="url(#pa5c48f71b3)" style="fill: none; stroke-dasharray: 12.8,3.2,2,3.2; stroke-dashoffset: 0; stroke: #ff8c00; stroke-width: 2"/>
   </g>
   <g id="line2d_96">
    <path d="M -1 736.274259 
L 7.476923 735.164772 
L 16.841958 734.115804 
L 30.88951 732.822681 
L 44.937063 731.79898 
L 58.984615 730.98554 
L 77.714685 730.151033 
L 96.444755 729.530634 
L 119.857343 728.970897 
L 147.952448 728.517371 
L 185.412587 728.147329 
L 236.92028 727.884211 
L 316.523077 727.729412 
L 318.068308 805.985633 
L 319.613538 893.610782 
L 321.158769 916.159701 
L 322.704 920.607727 
L 324.249231 924.398319 
L 325.794462 927.258883 
L 327.339692 933.366694 
L 328.884923 936.237817 
L 330.430154 937.337236 
L 331.975385 937.967384 
L 333.520615 938.381763 
L 336.611077 938.90788 
L 341.246769 939.364498 
L 345.882462 939.587288 
L 352.063385 939.599524 
L 359.789538 939.305431 
L 382.968 938.199012 
L 401.510769 937.709303 
L 424.689231 937.296916 
L 444.777231 937.171585 
L 472.591385 937.262021 
L 560.669538 937.839805 
L 603.936 938.340884 
L 625.569231 938.700486 
L 627.114462 891.428417 
L 628.659692 884.274463 
L 630.204923 879.808606 
L 631.750154 876.74175 
L 633.295385 874.487791 
L 634.840615 872.677425 
L 637.931077 869.631441 
L 650.292923 858.213272 
L 656.473846 852.148005 
L 664.2 844.233455 
L 673.471385 834.375726 
L 699.740308 806.175648 
L 707.466462 798.34372 
L 713.647385 792.373506 
L 719.828308 786.712671 
L 726.009231 781.392693 
L 732.190154 776.433729 
L 738.371077 771.84518 
L 743.006769 768.647065 
L 747.642462 765.654263 
L 752.278154 762.861544 
L 758.459077 759.436987 
L 764.64 756.335849 
L 770.820923 753.535776 
L 777.001846 751.013171 
L 783.182769 748.744226 
L 789.363692 746.705678 
L 795.544615 744.875338 
L 803.270769 742.848688 
L 810.996923 741.0779 
L 818.723077 739.529893 
L 827.994462 737.925569 
L 837.265846 736.556788 
L 848.082462 735.208928 
L 858.899077 734.083574 
L 871.260923 733.019753 
L 885.168 732.050811 
L 900.620308 731.196552 
L 919.163077 730.407255 
L 940.796308 729.726094 
L 967.065231 729.142799 
L 999.515077 728.666923 
L 1041.236308 728.297475 
L 1089.138462 728.06146 
L 1089.138462 728.06146 
" clip-path="url(#pa5c48f71b3)" style="fill: none; stroke-dasharray: 12.8,3.2,2,3.2; stroke-dashoffset: 0; stroke: #000000; stroke-width: 2"/>
   </g>
  </g>
 </g>
 <defs>
  <clipPath id="p88eb8bbb9f">
   <rect x="162" y="129.6" width="1004.4" height="244.588235"/>
  </clipPath>
  <clipPath id="p329cc4522b">
   <rect x="162" y="423.105882" width="1004.4" height="244.588235"/>
  </clipPath>
  <clipPath id="pa5c48f71b3">
   <rect x="162" y="716.611765" width="1004.4" height="244.588235"/>
  </clipPath>
 </defs>
</svg>
